0
SECTION
2
HEADER
9
$INSUNITS
70
4
0
ENDSEC
0
SECTION
2
ENTITIES
0
LWPOLYLINE
100
AcDbEntity
8
CUCITURA
100
AcDbPolyline
90
79
70
1
10
105.0000
20
-40.6203
10
105.0527
20
-39.8616
10
105.4175
20
-37.6419
10
106.3870
20
-34.1261
10
108.2154
20
-29.5752
10
111.1023
20
-24.3268
10
115.1795
20
-18.7699
10
120.5019
20
-13.3165
10
127.0418
20
-8.3724
10
134.6898
20
-4.3092
10
143.2584
20
-1.4398
10
152.4918
20
0.0000
10
162.0784
20
-0.1361
10
171.6675
20
-1.9009
10
180.8876
20
-5.2563
10
189.3668
20
-10.0840
10
196.7525
20
-16.2002
10
202.7308
20
-23.3761
10
207.0436
20
-31.3585
10
209.5027
20
-39.8916
10
210.0000
20
-48.7361
10
208.5136
20
-57.6850
10
205.1090
20
-66.5736
10
199.9352
20
-75.2852
10
193.2171
20
-83.7501
10
185.2426
20
-91.9396
10
176.3472
20
-99.8566
10
166.8956
20
-107.5227
10
157.2622
20
-114.9641
10
147.8104
20
-122.1989
10
138.8735
20
-129.2252
10
130.7373
20
-136.0140
10
123.6246
20
-142.5047
10
117.6848
20
-148.6062
10
112.9868
20
-154.2019
10
109.5166
20
-159.1586
10
107.1799
20
-163.3373
10
105.8097
20
-166.6066
10
105.1771
20
-168.8546
10
105.0066
20
-170.0000
10
104.9934
20
-170.0000
10
104.8229
20
-168.8546
10
104.1903
20
-166.6066
10
102.8201
20
-163.3373
10
100.4834
20
-159.1586
10
97.0132
20
-154.2019
10
92.3152
20
-148.6062
10
86.3754
20
-142.5047
10
79.2627
20
-136.0140
10
71.1265
20
-129.2252
10
62.1896
20
-122.1989
10
52.7378
20
-114.9641
10
43.1044
20
-107.5227
10
33.6528
20
-99.8566
10
24.7574
20
-91.9396
10
16.7829
20
-83.7501
10
10.0648
20
-75.2852
10
4.8910
20
-66.5736
10
1.4864
20
-57.6850
10
0.0000
20
-48.7361
10
0.4973
20
-39.8916
10
2.9564
20
-31.3585
10
7.2692
20
-23.3761
10
13.2475
20
-16.2002
10
20.6332
20
-10.0840
10
29.1124
20
-5.2563
10
38.3325
20
-1.9009
10
47.9216
20
-0.1361
10
57.5082
20
-0.0000
10
66.7416
20
-1.4398
10
75.3102
20
-4.3092
10
82.9582
20
-8.3724
10
89.4981
20
-13.3165
10
94.8205
20
-18.7699
10
98.8977
20
-24.3268
10
101.7846
20
-29.5752
10
103.6130
20
-34.1261
10
104.5825
20
-37.6419
10
104.9473
20
-39.8616
0
LWPOLYLINE
100
AcDbEntity
8
TAGLIO_STUDIO
100
AcDbPolyline
90
79
70
1
10
105.0000
20
-37.7106
10
98.0922
20
-39.0497
10
98.5705
20
-36.1396
10
99.7441
20
-31.8837
10
101.8779
20
-26.5726
10
105.1887
20
-20.5535
10
109.8266
20
-14.2325
10
115.8602
20
-8.0503
10
123.2652
20
-2.4522
10
131.9174
20
2.1445
10
141.5960
20
5.3856
10
151.9987
20
7.0077
10
162.7664
20
6.8548
10
173.5108
20
4.8775
10
183.8372
20
1.1194
10
193.3611
20
-4.3030
10
201.7161
20
-11.2220
10
208.5568
20
-19.4331
10
213.5610
20
-28.6950
10
216.4474
20
-38.7111
10
217.0325
20
-49.1178
10
215.3032
20
-59.5290
10
211.4324
20
-69.6348
10
205.7123
20
-79.2663
10
198.4797
20
-88.3795
10
190.0832
20
-97.0023
10
180.8812
20
-105.1922
10
171.2406
20
-113.0116
10
161.5291
20
-120.5133
10
152.1011
20
-127.7298
10
143.2800
20
-134.6652
10
135.3411
20
-141.2893
10
128.4960
20
-147.5358
10
122.8803
20
-153.3045
10
118.5451
20
-158.4680
10
115.4537
20
-162.8836
10
113.4828
20
-166.4082
10
112.4317
20
-168.9162
10
112.0355
20
-170.3239
10
111.0416
20
-177.0000
10
98.9584
20
-177.0000
10
97.9645
20
-170.3239
10
97.5683
20
-168.9162
10
96.5172
20
-166.4082
10
94.5463
20
-162.8836
10
91.4549
20
-158.4680
10
87.1197
20
-153.3045
10
81.5040
20
-147.5358
10
74.6589
20
-141.2893
10
66.7200
20
-134.6652
10
57.8989
20
-127.7298
10
48.4709
20
-120.5133
10
38.7594
20
-113.0116
10
29.1188
20
-105.1922
10
19.9168
20
-97.0023
10
11.5203
20
-88.3795
10
4.2877
20
-79.2663
10
-1.4324
20
-69.6348
10
-5.3032
20
-59.5290
10
-7.0325
20
-49.1178
10
-6.4474
20
-38.7111
10
-3.5610
20
-28.6950
10
1.4432
20
-19.4331
10
8.2839
20
-11.2220
10
16.6389
20
-4.3030
10
26.1628
20
1.1194
10
36.4892
20
4.8775
10
47.2336
20
6.8548
10
58.0013
20
7.0077
10
68.4040
20
5.3856
10
78.0826
20
2.1445
10
86.7348
20
-2.4522
10
94.1398
20
-8.0503
10
100.1734
20
-14.2325
10
104.8113
20
-20.5535
10
108.1221
20
-26.5726
10
110.2559
20
-31.8837
10
111.4295
20
-36.1396
10
111.9078
20
-39.0497
0
LWPOLYLINE
100
AcDbEntity
8
CUCITURA
100
AcDbPolyline
90
79
70
1
10
375.0000
20
-40.6203
10
375.0527
20
-39.8616
10
375.4175
20
-37.6419
10
376.3870
20
-34.1261
10
378.2154
20
-29.5752
10
381.1023
20
-24.3268
10
385.1795
20
-18.7699
10
390.5019
20
-13.3165
10
397.0418
20
-8.3724
10
404.6898
20
-4.3092
10
413.2584
20
-1.4398
10
422.4918
20
0.0000
10
432.0784
20
-0.1361
10
441.6675
20
-1.9009
10
450.8876
20
-5.2563
10
459.3668
20
-10.0840
10
466.7525
20
-16.2002
10
472.7308
20
-23.3761
10
477.0436
20
-31.3585
10
479.5027
20
-39.8916
10
480.0000
20
-48.7361
10
478.5136
20
-57.6850
10
475.1090
20
-66.5736
10
469.9352
20
-75.2852
10
463.2171
20
-83.7501
10
455.2426
20
-91.9396
10
446.3472
20
-99.8566
10
436.8956
20
-107.5227
10
427.2622
20
-114.9641
10
417.8104
20
-122.1989
10
408.8735
20
-129.2252
10
400.7373
20
-136.0140
10
393.6246
20
-142.5047
10
387.6848
20
-148.6062
10
382.9868
20
-154.2019
10
379.5166
20
-159.1586
10
377.1799
20
-163.3373
10
375.8097
20
-166.6066
10
375.1771
20
-168.8546
10
375.0066
20
-170.0000
10
374.9934
20
-170.0000
10
374.8229
20
-168.8546
10
374.1903
20
-166.6066
10
372.8201
20
-163.3373
10
370.4834
20
-159.1586
10
367.0132
20
-154.2019
10
362.3152
20
-148.6062
10
356.3754
20
-142.5047
10
349.2627
20
-136.0140
10
341.1265
20
-129.2252
10
332.1896
20
-122.1989
10
322.7378
20
-114.9641
10
313.1044
20
-107.5227
10
303.6528
20
-99.8566
10
294.7574
20
-91.9396
10
286.7829
20
-83.7501
10
280.0648
20
-75.2852
10
274.8910
20
-66.5736
10
271.4864
20
-57.6850
10
270.0000
20
-48.7361
10
270.4973
20
-39.8916
10
272.9564
20
-31.3585
10
277.2692
20
-23.3761
10
283.2475
20
-16.2002
10
290.6332
20
-10.0840
10
299.1124
20
-5.2563
10
308.3325
20
-1.9009
10
317.9216
20
-0.1361
10
327.5082
20
-0.0000
10
336.7416
20
-1.4398
10
345.3102
20
-4.3092
10
352.9582
20
-8.3724
10
359.4981
20
-13.3165
10
364.8205
20
-18.7699
10
368.8977
20
-24.3268
10
371.7846
20
-29.5752
10
373.6130
20
-34.1261
10
374.5825
20
-37.6419
10
374.9473
20
-39.8616
0
LWPOLYLINE
100
AcDbEntity
8
TAGLIO_STUDIO
100
AcDbPolyline
90
79
70
1
10
375.0000
20
-37.7106
10
368.0922
20
-39.0497
10
368.5705
20
-36.1396
10
369.7441
20
-31.8837
10
371.8779
20
-26.5726
10
375.1887
20
-20.5535
10
379.8266
20
-14.2325
10
385.8602
20
-8.0503
10
393.2652
20
-2.4522
10
401.9174
20
2.1445
10
411.5960
20
5.3856
10
421.9987
20
7.0077
10
432.7664
20
6.8548
10
443.5108
20
4.8775
10
453.8372
20
1.1194
10
463.3611
20
-4.3030
10
471.7161
20
-11.2220
10
478.5568
20
-19.4331
10
483.5610
20
-28.6950
10
486.4474
20
-38.7111
10
487.0325
20
-49.1178
10
485.3032
20
-59.5290
10
481.4324
20
-69.6348
10
475.7123
20
-79.2663
10
468.4797
20
-88.3795
10
460.0832
20
-97.0023
10
450.8812
20
-105.1922
10
441.2406
20
-113.0116
10
431.5291
20
-120.5133
10
422.1011
20
-127.7298
10
413.2800
20
-134.6652
10
405.3411
20
-141.2893
10
398.4960
20
-147.5358
10
392.8803
20
-153.3045
10
388.5451
20
-158.4680
10
385.4537
20
-162.8836
10
383.4828
20
-166.4082
10
382.4317
20
-168.9162
10
382.0355
20
-170.3239
10
381.0416
20
-177.0000
10
368.9584
20
-177.0000
10
367.9645
20
-170.3239
10
367.5683
20
-168.9162
10
366.5172
20
-166.4082
10
364.5463
20
-162.8836
10
361.4549
20
-158.4680
10
357.1197
20
-153.3045
10
351.5040
20
-147.5358
10
344.6589
20
-141.2893
10
336.7200
20
-134.6652
10
327.8989
20
-127.7298
10
318.4709
20
-120.5133
10
308.7594
20
-113.0116
10
299.1188
20
-105.1922
10
289.9168
20
-97.0023
10
281.5203
20
-88.3795
10
274.2877
20
-79.2663
10
268.5676
20
-69.6348
10
264.6968
20
-59.5290
10
262.9675
20
-49.1178
10
263.5526
20
-38.7111
10
266.4390
20
-28.6950
10
271.4432
20
-19.4331
10
278.2839
20
-11.2220
10
286.6389
20
-4.3030
10
296.1628
20
1.1194
10
306.4892
20
4.8775
10
317.2336
20
6.8548
10
328.0013
20
7.0077
10
338.4040
20
5.3856
10
348.0826
20
2.1445
10
356.7348
20
-2.4522
10
364.1398
20
-8.0503
10
370.1734
20
-14.2325
10
374.8113
20
-20.5535
10
378.1221
20
-26.5726
10
380.2559
20
-31.8837
10
381.4295
20
-36.1396
10
381.9078
20
-39.0497
0
LWPOLYLINE
100
AcDbEntity
8
CUCITURA
100
AcDbPolyline
90
4
70
1
10
0.0000
20
-230.0000
10
632.7270
20
-230.0000
10
632.7270
20
-280.0000
10
0.0000
20
-280.0000
0
LWPOLYLINE
100
AcDbEntity
8
TAGLIO_STUDIO
100
AcDbPolyline
90
4
70
1
10
-7.0000
20
-223.0000
10
639.7270
20
-223.0000
10
639.7270
20
-287.0000
10
-7.0000
20
-287.0000
0
ENDSEC
0
EOF
