0
SECTION
2
HEADER
9
$INSUNITS
70
4
0
ENDSEC
0
SECTION
2
ENTITIES
0
LWPOLYLINE
100
AcDbEntity
8
CUCITURA
100
AcDbPolyline
90
30
70
1
10
0.0000
20
-230.0000
10
0.0000
20
-80.5000
10
1.1157
20
-71.1545
10
4.4476
20
-61.9354
10
9.9507
20
-52.9674
10
17.5506
20
-44.3717
10
27.1445
20
-36.2645
10
38.6027
20
-28.7556
10
51.7701
20
-21.9464
10
66.4688
20
-15.9291
10
82.5000
20
-10.7850
10
99.6468
20
-6.5836
10
117.6775
20
-3.3818
10
136.3481
20
-1.2230
10
155.4061
20
-0.1362
10
174.5939
20
-0.1362
10
193.6519
20
-1.2230
10
212.3225
20
-3.3818
10
230.3532
20
-6.5836
10
247.5000
20
-10.7850
10
263.5312
20
-15.9291
10
278.2299
20
-21.9464
10
291.3973
20
-28.7556
10
302.8555
20
-36.2645
10
312.4494
20
-44.3717
10
320.0493
20
-52.9674
10
325.5524
20
-61.9354
10
328.8843
20
-71.1545
10
330.0000
20
-80.5000
10
330.0000
20
-230.0000
0
LWPOLYLINE
100
AcDbEntity
8
TAGLIO_STUDIO
100
AcDbPolyline
90
30
70
1
10
-7.0000
20
-237.0000
10
-7.0000
20
-80.0836
10
-5.7400
20
-69.5290
10
-1.8926
20
-58.8837
10
4.3030
20
-48.7871
10
12.6437
20
-39.3536
10
22.9516
20
-30.6431
10
35.0672
20
-22.7033
10
48.8307
20
-15.5859
10
64.0698
20
-9.3473
10
80.5953
20
-4.0446
10
98.2005
20
0.2691
10
116.6626
20
3.5474
10
135.7463
20
5.7541
10
155.2067
20
6.8638
10
174.7933
20
6.8638
10
194.2537
20
5.7541
10
213.3374
20
3.5474
10
231.7995
20
0.2691
10
249.4047
20
-4.0446
10
265.9302
20
-9.3473
10
281.1693
20
-15.5859
10
294.9328
20
-22.7033
10
307.0484
20
-30.6431
10
317.3563
20
-39.3536
10
325.6970
20
-48.7871
10
331.8926
20
-58.8837
10
335.7400
20
-69.5290
10
337.0000
20
-80.0836
10
337.0000
20
-237.0000
0
LWPOLYLINE
100
AcDbEntity
8
CUCITURA
100
AcDbPolyline
90
30
70
1
10
390.0000
20
-230.0000
10
390.0000
20
-80.5000
10
391.1157
20
-71.1545
10
394.4476
20
-61.9354
10
399.9507
20
-52.9674
10
407.5506
20
-44.3717
10
417.1445
20
-36.2645
10
428.6027
20
-28.7556
10
441.7701
20
-21.9464
10
456.4688
20
-15.9291
10
472.5000
20
-10.7850
10
489.6468
20
-6.5836
10
507.6775
20
-3.3818
10
526.3481
20
-1.2230
10
545.4061
20
-0.1362
10
564.5939
20
-0.1362
10
583.6519
20
-1.2230
10
602.3225
20
-3.3818
10
620.3532
20
-6.5836
10
637.5000
20
-10.7850
10
653.5312
20
-15.9291
10
668.2299
20
-21.9464
10
681.3973
20
-28.7556
10
692.8555
20
-36.2645
10
702.4494
20
-44.3717
10
710.0493
20
-52.9674
10
715.5524
20
-61.9354
10
718.8843
20
-71.1545
10
720.0000
20
-80.5000
10
720.0000
20
-230.0000
0
LWPOLYLINE
100
AcDbEntity
8
TAGLIO_STUDIO
100
AcDbPolyline
90
30
70
1
10
383.0000
20
-237.0000
10
383.0000
20
-80.0836
10
384.2600
20
-69.5290
10
388.1074
20
-58.8837
10
394.3030
20
-48.7871
10
402.6437
20
-39.3536
10
412.9516
20
-30.6431
10
425.0672
20
-22.7033
10
438.8307
20
-15.5859
10
454.0698
20
-9.3473
10
470.5953
20
-4.0446
10
488.2005
20
0.2691
10
506.6626
20
3.5474
10
525.7463
20
5.7541
10
545.2067
20
6.8638
10
564.7933
20
6.8638
10
584.2537
20
5.7541
10
603.3374
20
3.5474
10
621.7995
20
0.2691
10
639.4047
20
-4.0446
10
655.9302
20
-9.3473
10
671.1693
20
-15.5859
10
684.9328
20
-22.7033
10
697.0484
20
-30.6431
10
707.3563
20
-39.3536
10
715.6970
20
-48.7871
10
721.8926
20
-58.8837
10
725.7400
20
-69.5290
10
727.0000
20
-80.0836
10
727.0000
20
-237.0000
0
LWPOLYLINE
100
AcDbEntity
8
CUCITURA
100
AcDbPolyline
90
4
70
1
10
0.0000
20
-290.0000
10
1025.9152
20
-290.0000
10
1025.9152
20
-520.0000
10
0.0000
20
-520.0000
0
LWPOLYLINE
100
AcDbEntity
8
TAGLIO_STUDIO
100
AcDbPolyline
90
4
70
1
10
-7.0000
20
-283.0000
10
1032.9152
20
-283.0000
10
1032.9152
20
-527.0000
10
-7.0000
20
-527.0000
0
ENDSEC
0
EOF
