0
SECTION
2
HEADER
9
$INSUNITS
70
4
0
ENDSEC
0
SECTION
2
ENTITIES
0
LWPOLYLINE
100
AcDbEntity
8
CUCITURA
100
AcDbPolyline
90
4
70
1
10
0.0000
20
0.0000
10
160.0000
20
0.0000
10
160.0000
20
-100.0000
10
0.0000
20
-100.0000
0
LWPOLYLINE
100
AcDbEntity
8
TAGLIO_STUDIO
100
AcDbPolyline
90
4
70
1
10
-7.0000
20
7.0000
10
167.0000
20
7.0000
10
167.0000
20
-107.0000
10
-7.0000
20
-107.0000
0
LWPOLYLINE
100
AcDbEntity
8
CUCITURA
100
AcDbPolyline
90
4
70
1
10
220.0000
20
0.0000
10
380.0000
20
0.0000
10
380.0000
20
-100.0000
10
220.0000
20
-100.0000
0
LWPOLYLINE
100
AcDbEntity
8
TAGLIO_STUDIO
100
AcDbPolyline
90
4
70
1
10
213.0000
20
7.0000
10
387.0000
20
7.0000
10
387.0000
20
-107.0000
10
213.0000
20
-107.0000
0
LWPOLYLINE
100
AcDbEntity
8
CUCITURA
100
AcDbPolyline
90
4
70
1
10
0.0000
20
-160.0000
10
520.0000
20
-160.0000
10
520.0000
20
-210.0000
10
0.0000
20
-210.0000
0
LWPOLYLINE
100
AcDbEntity
8
TAGLIO_STUDIO
100
AcDbPolyline
90
4
70
1
10
-7.0000
20
-153.0000
10
527.0000
20
-153.0000
10
527.0000
20
-217.0000
10
-7.0000
20
-217.0000
0
ENDSEC
0
EOF
