0
SECTION
2
HEADER
9
$INSUNITS
70
4
0
ENDSEC
0
SECTION
2
ENTITIES
0
LWPOLYLINE
100
AcDbEntity
8
CUCITURA
100
AcDbPolyline
90
4
70
1
10
32.5000
20
0.0000
10
217.5000
20
0.0000
10
250.0000
20
-180.0000
10
0.0000
20
-180.0000
0
LWPOLYLINE
100
AcDbEntity
8
TAGLIO_STUDIO
100
AcDbPolyline
90
4
70
1
10
26.6507
20
7.0000
10
223.3493
20
7.0000
10
258.3771
20
-187.0000
10
-8.3771
20
-187.0000
0
LWPOLYLINE
100
AcDbEntity
8
CUCITURA
100
AcDbPolyline
90
4
70
1
10
342.5000
20
0.0000
10
527.5000
20
0.0000
10
560.0000
20
-180.0000
10
310.0000
20
-180.0000
0
LWPOLYLINE
100
AcDbEntity
8
TAGLIO_STUDIO
100
AcDbPolyline
90
4
70
1
10
336.6507
20
7.0000
10
533.3493
20
7.0000
10
568.3771
20
-187.0000
10
301.6229
20
-187.0000
0
LWPOLYLINE
100
AcDbEntity
8
CUCITURA
100
AcDbPolyline
90
4
70
1
10
0.0000
20
-240.0000
10
800.8210
20
-240.0000
10
800.8210
20
-350.0000
10
0.0000
20
-350.0000
0
LWPOLYLINE
100
AcDbEntity
8
TAGLIO_STUDIO
100
AcDbPolyline
90
4
70
1
10
-7.0000
20
-233.0000
10
807.8210
20
-233.0000
10
807.8210
20
-357.0000
10
-7.0000
20
-357.0000
0
ENDSEC
0
EOF
