0
SECTION
2
HEADER
9
$INSUNITS
70
4
0
ENDSEC
0
SECTION
2
ENTITIES
0
LWPOLYLINE
100
AcDbEntity
8
CUCITURA
100
AcDbPolyline
90
16
70
1
10
0.0000
20
-24.0000
10
15.6000
20
0.0000
10
41.6000
20
-9.6000
10
67.6000
20
-48.0000
10
104.0000
20
-64.0000
10
156.0000
20
-64.0000
10
192.4000
20
-48.0000
10
218.4000
20
-9.6000
10
244.4000
20
0.0000
10
260.0000
20
-24.0000
10
249.6000
20
-102.4000
10
218.4000
20
-137.6000
10
166.4000
20
-160.0000
10
93.6000
20
-160.0000
10
41.6000
20
-137.6000
10
10.4000
20
-102.4000
0
LWPOLYLINE
100
AcDbEntity
8
TAGLIO_STUDIO
100
AcDbPolyline
90
16
70
1
10
-7.2795
20
-22.3550
10
12.7786
20
8.5037
10
46.1350
20
-3.8126
10
72.2647
20
-42.4040
10
105.4706
20
-57.0000
10
154.5294
20
-57.0000
10
187.7353
20
-42.4040
10
213.8650
20
-3.8126
10
247.2214
20
8.5037
10
267.2795
20
-22.3550
10
256.2578
20
-105.4418
10
222.6030
20
-143.4113
10
167.8436
20
-167.0000
10
92.1564
20
-167.0000
10
37.3970
20
-143.4113
10
3.7422
20
-105.4418
0
LWPOLYLINE
100
AcDbEntity
8
CUCITURA
100
AcDbPolyline
90
16
70
1
10
320.0000
20
-24.0000
10
335.6000
20
0.0000
10
361.6000
20
-9.6000
10
387.6000
20
-48.0000
10
424.0000
20
-64.0000
10
476.0000
20
-64.0000
10
512.4000
20
-48.0000
10
538.4000
20
-9.6000
10
564.4000
20
0.0000
10
580.0000
20
-24.0000
10
569.6000
20
-102.4000
10
538.4000
20
-137.6000
10
486.4000
20
-160.0000
10
413.6000
20
-160.0000
10
361.6000
20
-137.6000
10
330.4000
20
-102.4000
0
LWPOLYLINE
100
AcDbEntity
8
TAGLIO_STUDIO
100
AcDbPolyline
90
16
70
1
10
312.7205
20
-22.3550
10
332.7786
20
8.5037
10
366.1350
20
-3.8126
10
392.2647
20
-42.4040
10
425.4706
20
-57.0000
10
474.5294
20
-57.0000
10
507.7353
20
-42.4040
10
533.8650
20
-3.8126
10
567.2214
20
8.5037
10
587.2795
20
-22.3550
10
576.2578
20
-105.4418
10
542.6030
20
-143.4113
10
487.8436
20
-167.0000
10
412.1564
20
-167.0000
10
357.3970
20
-143.4113
10
323.7422
20
-105.4418
0
LWPOLYLINE
100
AcDbEntity
8
CUCITURA
100
AcDbPolyline
90
4
70
1
10
0.0000
20
-220.0000
10
775.2376
20
-220.0000
10
775.2376
20
-290.0000
10
0.0000
20
-290.0000
0
LWPOLYLINE
100
AcDbEntity
8
TAGLIO_STUDIO
100
AcDbPolyline
90
4
70
1
10
-7.0000
20
-213.0000
10
782.2376
20
-213.0000
10
782.2376
20
-297.0000
10
-7.0000
20
-297.0000
0
ENDSEC
0
EOF
