0
SECTION
2
HEADER
9
$INSUNITS
70
4
0
ENDSEC
0
SECTION
2
ENTITIES
0
LWPOLYLINE
100
AcDbEntity
8
CUCITURA
100
AcDbPolyline
90
30
70
1
10
0.0000
20
-240.0000
10
0.0000
20
-84.0000
10
1.2847
20
-74.2482
10
5.1215
20
-64.6283
10
11.4584
20
-55.2703
10
20.2098
20
-46.3009
10
31.2573
20
-37.8412
10
44.4516
20
-30.0058
10
59.6141
20
-22.9006
10
76.5399
20
-16.6217
10
95.0000
20
-11.2539
10
114.7448
20
-6.8698
10
135.5074
20
-3.5289
10
157.0068
20
-1.2761
10
178.9525
20
-0.1421
10
201.0475
20
-0.1421
10
222.9932
20
-1.2761
10
244.4926
20
-3.5289
10
265.2552
20
-6.8698
10
285.0000
20
-11.2539
10
303.4601
20
-16.6217
10
320.3859
20
-22.9006
10
335.5484
20
-30.0058
10
348.7427
20
-37.8412
10
359.7902
20
-46.3009
10
368.5416
20
-55.2703
10
374.8785
20
-64.6283
10
378.7153
20
-74.2482
10
380.0000
20
-84.0000
10
380.0000
20
-240.0000
0
LWPOLYLINE
100
AcDbEntity
8
TAGLIO_STUDIO
100
AcDbPolyline
90
30
70
1
10
-7.0000
20
-247.0000
10
-7.0000
20
-83.5409
10
-5.5411
20
-72.4671
10
-1.0997
20
-61.3310
10
6.0123
20
-50.8286
10
15.5526
20
-41.0505
10
27.3287
20
-32.0330
10
41.1715
20
-23.8124
10
56.9070
20
-16.4387
10
74.3424
20
-9.9707
10
93.2623
20
-4.4692
10
113.4290
20
0.0085
10
134.5859
20
3.4129
10
156.4611
20
5.7050
10
178.7717
20
6.8579
10
201.2283
20
6.8579
10
223.5389
20
5.7050
10
245.4141
20
3.4129
10
266.5710
20
0.0085
10
286.7377
20
-4.4692
10
305.6576
20
-9.9707
10
323.0930
20
-16.4387
10
338.8285
20
-23.8124
10
352.6713
20
-32.0330
10
364.4474
20
-41.0505
10
373.9877
20
-50.8286
10
381.0997
20
-61.3310
10
385.5411
20
-72.4671
10
387.0000
20
-83.5409
10
387.0000
20
-247.0000
0
LWPOLYLINE
100
AcDbEntity
8
CUCITURA
100
AcDbPolyline
90
30
70
1
10
440.0000
20
-240.0000
10
440.0000
20
-84.0000
10
441.2847
20
-74.2482
10
445.1215
20
-64.6283
10
451.4584
20
-55.2703
10
460.2098
20
-46.3009
10
471.2573
20
-37.8412
10
484.4516
20
-30.0058
10
499.6141
20
-22.9006
10
516.5399
20
-16.6217
10
535.0000
20
-11.2539
10
554.7448
20
-6.8698
10
575.5074
20
-3.5289
10
597.0068
20
-1.2761
10
618.9525
20
-0.1421
10
641.0475
20
-0.1421
10
662.9932
20
-1.2761
10
684.4926
20
-3.5289
10
705.2552
20
-6.8698
10
725.0000
20
-11.2539
10
743.4601
20
-16.6217
10
760.3859
20
-22.9006
10
775.5484
20
-30.0058
10
788.7427
20
-37.8412
10
799.7902
20
-46.3009
10
808.5416
20
-55.2703
10
814.8785
20
-64.6283
10
818.7153
20
-74.2482
10
820.0000
20
-84.0000
10
820.0000
20
-240.0000
0
LWPOLYLINE
100
AcDbEntity
8
TAGLIO_STUDIO
100
AcDbPolyline
90
30
70
1
10
433.0000
20
-247.0000
10
433.0000
20
-83.5409
10
434.4589
20
-72.4671
10
438.9003
20
-61.3310
10
446.0123
20
-50.8286
10
455.5526
20
-41.0505
10
467.3287
20
-32.0330
10
481.1715
20
-23.8124
10
496.9070
20
-16.4387
10
514.3424
20
-9.9707
10
533.2623
20
-4.4692
10
553.4290
20
0.0085
10
574.5859
20
3.4129
10
596.4611
20
5.7050
10
618.7717
20
6.8579
10
641.2283
20
6.8579
10
663.5389
20
5.7050
10
685.4141
20
3.4129
10
706.5710
20
0.0085
10
726.7377
20
-4.4692
10
745.6576
20
-9.9707
10
763.0930
20
-16.4387
10
778.8285
20
-23.8124
10
792.6713
20
-32.0330
10
804.4474
20
-41.0505
10
813.9877
20
-50.8286
10
821.0997
20
-61.3310
10
825.5411
20
-72.4671
10
827.0000
20
-83.5409
10
827.0000
20
-247.0000
0
LWPOLYLINE
100
AcDbEntity
8
CUCITURA
100
AcDbPolyline
90
4
70
1
10
0.0000
20
-300.0000
10
1138.4064
20
-300.0000
10
1138.4064
20
-440.0000
10
0.0000
20
-440.0000
0
LWPOLYLINE
100
AcDbEntity
8
TAGLIO_STUDIO
100
AcDbPolyline
90
4
70
1
10
-7.0000
20
-293.0000
10
1145.4064
20
-293.0000
10
1145.4064
20
-447.0000
10
-7.0000
20
-447.0000
0
ENDSEC
0
EOF
