0
SECTION
2
HEADER
9
$INSUNITS
70
4
0
ENDSEC
0
SECTION
2
ENTITIES
0
LWPOLYLINE
100
AcDbEntity
8
CUCITURA
100
AcDbPolyline
90
8
70
1
10
23.0000
20
0.0000
10
207.0000
20
0.0000
10
230.0000
20
-145.5000
10
184.0000
20
-132.0000
10
138.0000
20
-126.0000
10
92.0000
20
-126.0000
10
46.0000
20
-132.0000
10
0.0000
20
-145.5000
0
LWPOLYLINE
100
AcDbEntity
8
TAGLIO_STUDIO
100
AcDbPolyline
90
8
70
1
10
17.0196
20
7.0000
10
212.9804
20
7.0000
10
238.6410
20
-155.3312
10
182.5529
20
-138.8705
10
137.5454
20
-133.0000
10
92.4546
20
-133.0000
10
47.4471
20
-138.8705
10
-8.6410
20
-155.3312
0
LWPOLYLINE
100
AcDbEntity
8
CUCITURA
100
AcDbPolyline
90
8
70
1
10
313.0000
20
0.0000
10
497.0000
20
0.0000
10
520.0000
20
-145.5000
10
474.0000
20
-132.0000
10
428.0000
20
-126.0000
10
382.0000
20
-126.0000
10
336.0000
20
-132.0000
10
290.0000
20
-145.5000
0
LWPOLYLINE
100
AcDbEntity
8
TAGLIO_STUDIO
100
AcDbPolyline
90
8
70
1
10
307.0196
20
7.0000
10
502.9804
20
7.0000
10
528.6410
20
-155.3312
10
472.5529
20
-138.8705
10
427.5454
20
-133.0000
10
382.4546
20
-133.0000
10
337.4471
20
-138.8705
10
281.3590
20
-155.3312
0
LWPOLYLINE
100
AcDbEntity
8
CUCITURA
100
AcDbPolyline
90
4
70
1
10
0.0000
20
-210.0000
10
713.2727
20
-210.0000
10
713.2727
20
-310.0000
10
0.0000
20
-310.0000
0
LWPOLYLINE
100
AcDbEntity
8
TAGLIO_STUDIO
100
AcDbPolyline
90
4
70
1
10
-7.0000
20
-203.0000
10
720.2727
20
-203.0000
10
720.2727
20
-317.0000
10
-7.0000
20
-317.0000
0
ENDSEC
0
EOF
