0
SECTION
2
HEADER
9
$INSUNITS
70
4
0
ENDSEC
0
SECTION
2
ENTITIES
0
LWPOLYLINE
100
AcDbEntity
8
CUCITURA
100
AcDbPolyline
90
4
70
1
10
45.5000
20
0.0000
10
304.5000
20
0.0000
10
350.0000
20
-240.0000
10
0.0000
20
-240.0000
0
LWPOLYLINE
100
AcDbEntity
8
TAGLIO_STUDIO
100
AcDbPolyline
90
4
70
1
10
39.7024
20
7.0000
10
310.2976
20
7.0000
10
358.4518
20
-247.0000
10
-8.4518
20
-247.0000
0
LWPOLYLINE
100
AcDbEntity
8
CUCITURA
100
AcDbPolyline
90
4
70
1
10
455.5000
20
0.0000
10
714.5000
20
0.0000
10
760.0000
20
-240.0000
10
410.0000
20
-240.0000
0
LWPOLYLINE
100
AcDbEntity
8
TAGLIO_STUDIO
100
AcDbPolyline
90
4
70
1
10
449.7024
20
7.0000
10
720.2976
20
7.0000
10
768.4518
20
-247.0000
10
401.5482
20
-247.0000
0
LWPOLYLINE
100
AcDbEntity
8
CUCITURA
100
AcDbPolyline
90
4
70
1
10
0.0000
20
-300.0000
10
1097.5499
20
-300.0000
10
1097.5499
20
-420.0000
10
0.0000
20
-420.0000
0
LWPOLYLINE
100
AcDbEntity
8
TAGLIO_STUDIO
100
AcDbPolyline
90
4
70
1
10
-7.0000
20
-293.0000
10
1104.5499
20
-293.0000
10
1104.5499
20
-427.0000
10
-7.0000
20
-427.0000
0
ENDSEC
0
EOF
