0
SECTION
2
HEADER
9
$INSUNITS
70
4
0
ENDSEC
0
SECTION
2
ENTITIES
0
LWPOLYLINE
100
AcDbEntity
8
CUCITURA
100
AcDbPolyline
90
4
70
1
10
0.0000
20
0.0000
10
300.0000
20
0.0000
10
300.0000
20
-200.0000
10
0.0000
20
-200.0000
0
LWPOLYLINE
100
AcDbEntity
8
TAGLIO_STUDIO
100
AcDbPolyline
90
4
70
1
10
-7.0000
20
7.0000
10
307.0000
20
7.0000
10
307.0000
20
-207.0000
10
-7.0000
20
-207.0000
0
LWPOLYLINE
100
AcDbEntity
8
CUCITURA
100
AcDbPolyline
90
4
70
1
10
360.0000
20
0.0000
10
660.0000
20
0.0000
10
660.0000
20
-200.0000
10
360.0000
20
-200.0000
0
LWPOLYLINE
100
AcDbEntity
8
TAGLIO_STUDIO
100
AcDbPolyline
90
4
70
1
10
353.0000
20
7.0000
10
667.0000
20
7.0000
10
667.0000
20
-207.0000
10
353.0000
20
-207.0000
0
LWPOLYLINE
100
AcDbEntity
8
CUCITURA
100
AcDbPolyline
90
4
70
1
10
0.0000
20
-260.0000
10
1000.0000
20
-260.0000
10
1000.0000
20
-360.0000
10
0.0000
20
-360.0000
0
LWPOLYLINE
100
AcDbEntity
8
TAGLIO_STUDIO
100
AcDbPolyline
90
4
70
1
10
-7.0000
20
-253.0000
10
1007.0000
20
-253.0000
10
1007.0000
20
-367.0000
10
-7.0000
20
-367.0000
0
ENDSEC
0
EOF
