0
SECTION
2
HEADER
9
$INSUNITS
70
4
0
ENDSEC
0
SECTION
2
ENTITIES
0
LWPOLYLINE
100
AcDbEntity
8
CUCITURA
100
AcDbPolyline
90
4
70
1
10
0.0000
20
0.0000
10
400.0000
20
0.0000
10
400.0000
20
-250.0000
10
0.0000
20
-250.0000
0
LWPOLYLINE
100
AcDbEntity
8
TAGLIO_STUDIO
100
AcDbPolyline
90
4
70
1
10
-7.0000
20
7.0000
10
407.0000
20
7.0000
10
407.0000
20
-257.0000
10
-7.0000
20
-257.0000
0
LWPOLYLINE
100
AcDbEntity
8
CUCITURA
100
AcDbPolyline
90
4
70
1
10
460.0000
20
0.0000
10
860.0000
20
0.0000
10
860.0000
20
-250.0000
10
460.0000
20
-250.0000
0
LWPOLYLINE
100
AcDbEntity
8
TAGLIO_STUDIO
100
AcDbPolyline
90
4
70
1
10
453.0000
20
7.0000
10
867.0000
20
7.0000
10
867.0000
20
-257.0000
10
453.0000
20
-257.0000
0
LWPOLYLINE
100
AcDbEntity
8
CUCITURA
100
AcDbPolyline
90
4
70
1
10
0.0000
20
-310.0000
10
1300.0000
20
-310.0000
10
1300.0000
20
-470.0000
10
0.0000
20
-470.0000
0
LWPOLYLINE
100
AcDbEntity
8
TAGLIO_STUDIO
100
AcDbPolyline
90
4
70
1
10
-7.0000
20
-303.0000
10
1307.0000
20
-303.0000
10
1307.0000
20
-477.0000
10
-7.0000
20
-477.0000
0
ENDSEC
0
EOF
