0
SECTION
2
HEADER
9
$INSUNITS
70
4
0
ENDSEC
0
SECTION
2
ENTITIES
0
LWPOLYLINE
100
AcDbEntity
8
CUCITURA
100
AcDbPolyline
90
14
70
1
10
56.0000
20
-9.0000
10
112.0000
20
0.0000
10
160.0000
20
-9.0000
10
220.0000
20
-3.6000
10
280.0000
20
0.0000
10
336.0000
20
-14.4000
10
384.0000
20
-77.4000
10
400.0000
20
-126.0000
10
376.0000
20
-158.4000
10
312.0000
20
-176.4000
10
120.0000
20
-180.0000
10
40.0000
20
-162.0000
10
0.0000
20
-126.0000
10
12.0000
20
-72.0000
0
LWPOLYLINE
100
AcDbEntity
8
TAGLIO_STUDIO
100
AcDbPolyline
90
14
70
1
10
51.9599
20
-2.5595
10
112.0924
20
7.1047
10
160.3376
20
-1.9413
10
219.4765
20
3.3812
10
280.6784
20
7.0533
10
340.0959
20
-8.2255
10
390.2810
20
-74.0935
10
407.7824
20
-127.2540
10
380.1999
20
-164.4904
10
313.0299
20
-183.3819
10
119.2871
20
-187.0146
10
36.6777
20
-168.4275
10
-7.7196
20
-128.4699
10
5.4674
20
-69.1283
0
LWPOLYLINE
100
AcDbEntity
8
CUCITURA
100
AcDbPolyline
90
14
70
1
10
516.0000
20
-9.0000
10
572.0000
20
0.0000
10
620.0000
20
-9.0000
10
680.0000
20
-3.6000
10
740.0000
20
0.0000
10
796.0000
20
-14.4000
10
844.0000
20
-77.4000
10
860.0000
20
-126.0000
10
836.0000
20
-158.4000
10
772.0000
20
-176.4000
10
580.0000
20
-180.0000
10
500.0000
20
-162.0000
10
460.0000
20
-126.0000
10
472.0000
20
-72.0000
0
LWPOLYLINE
100
AcDbEntity
8
TAGLIO_STUDIO
100
AcDbPolyline
90
14
70
1
10
511.9599
20
-2.5595
10
572.0924
20
7.1047
10
620.3376
20
-1.9413
10
679.4765
20
3.3812
10
740.6784
20
7.0533
10
800.0959
20
-8.2255
10
850.2810
20
-74.0935
10
867.7824
20
-127.2540
10
840.1999
20
-164.4904
10
773.0299
20
-183.3819
10
579.2871
20
-187.0146
10
496.6777
20
-168.4275
10
452.2804
20
-128.4699
10
465.4674
20
-69.1283
0
LWPOLYLINE
100
AcDbEntity
8
CUCITURA
100
AcDbPolyline
90
4
70
1
10
0.0000
20
-240.0000
10
980.9089
20
-240.0000
10
980.9089
20
-420.0000
10
0.0000
20
-420.0000
0
LWPOLYLINE
100
AcDbEntity
8
TAGLIO_STUDIO
100
AcDbPolyline
90
4
70
1
10
-7.0000
20
-233.0000
10
987.9089
20
-233.0000
10
987.9089
20
-427.0000
10
-7.0000
20
-427.0000
0
ENDSEC
0
EOF
