0
SECTION
2
HEADER
9
$INSUNITS
70
4
0
ENDSEC
0
SECTION
2
ENTITIES
0
LWPOLYLINE
100
AcDbEntity
8
CUCITURA
100
AcDbPolyline
90
16
70
1
10
0.0000
20
-37.5000
10
21.0000
20
0.0000
10
56.0000
20
-15.0000
10
91.0000
20
-75.0000
10
140.0000
20
-100.0000
10
210.0000
20
-100.0000
10
259.0000
20
-75.0000
10
294.0000
20
-15.0000
10
329.0000
20
0.0000
10
350.0000
20
-37.5000
10
336.0000
20
-160.0000
10
294.0000
20
-215.0000
10
224.0000
20
-250.0000
10
126.0000
20
-250.0000
10
56.0000
20
-215.0000
10
14.0000
20
-160.0000
0
LWPOLYLINE
100
AcDbEntity
8
TAGLIO_STUDIO
100
AcDbPolyline
90
16
70
1
10
-7.2112
20
-36.0506
10
17.9693
20
8.9146
10
60.8819
20
-9.4765
10
96.0113
20
-69.6983
10
141.6825
20
-93.0000
10
208.3175
20
-93.0000
10
253.9887
20
-69.6983
10
289.1181
20
-9.4765
10
332.0307
20
8.9146
10
357.2112
20
-36.0506
10
342.7354
20
-162.7135
10
298.5799
20
-220.5363
10
225.6525
20
-257.0000
10
124.3475
20
-257.0000
10
51.4201
20
-220.5363
10
7.2646
20
-162.7135
0
LWPOLYLINE
100
AcDbEntity
8
CUCITURA
100
AcDbPolyline
90
16
70
1
10
410.0000
20
-37.5000
10
431.0000
20
0.0000
10
466.0000
20
-15.0000
10
501.0000
20
-75.0000
10
550.0000
20
-100.0000
10
620.0000
20
-100.0000
10
669.0000
20
-75.0000
10
704.0000
20
-15.0000
10
739.0000
20
0.0000
10
760.0000
20
-37.5000
10
746.0000
20
-160.0000
10
704.0000
20
-215.0000
10
634.0000
20
-250.0000
10
536.0000
20
-250.0000
10
466.0000
20
-215.0000
10
424.0000
20
-160.0000
0
LWPOLYLINE
100
AcDbEntity
8
TAGLIO_STUDIO
100
AcDbPolyline
90
16
70
1
10
402.7888
20
-36.0506
10
427.9693
20
8.9146
10
470.8819
20
-9.4765
10
506.0113
20
-69.6983
10
551.6825
20
-93.0000
10
618.3175
20
-93.0000
10
663.9887
20
-69.6983
10
699.1181
20
-9.4765
10
742.0307
20
8.9146
10
767.2112
20
-36.0506
10
752.7354
20
-162.7135
10
708.5799
20
-220.5363
10
635.6525
20
-257.0000
10
534.3475
20
-257.0000
10
461.4201
20
-220.5363
10
417.2646
20
-162.7135
0
LWPOLYLINE
100
AcDbEntity
8
CUCITURA
100
AcDbPolyline
90
4
70
1
10
0.0000
20
-310.0000
10
1120.5844
20
-310.0000
10
1120.5844
20
-360.0000
10
0.0000
20
-360.0000
0
LWPOLYLINE
100
AcDbEntity
8
TAGLIO_STUDIO
100
AcDbPolyline
90
4
70
1
10
-7.0000
20
-303.0000
10
1127.5844
20
-303.0000
10
1127.5844
20
-367.0000
10
-7.0000
20
-367.0000
0
ENDSEC
0
EOF
