0
SECTION
2
HEADER
9
$INSUNITS
70
4
0
ENDSEC
0
SECTION
2
ENTITIES
0
LWPOLYLINE
100
AcDbEntity
8
CUCITURA
100
AcDbPolyline
90
16
70
1
10
0.0000
20
-34.5000
10
16.8000
20
0.0000
10
44.8000
20
-13.8000
10
72.8000
20
-69.0000
10
112.0000
20
-92.0000
10
168.0000
20
-92.0000
10
207.2000
20
-69.0000
10
235.2000
20
-13.8000
10
263.2000
20
0.0000
10
280.0000
20
-34.5000
10
268.8000
20
-147.2000
10
235.2000
20
-197.8000
10
179.2000
20
-230.0000
10
100.8000
20
-230.0000
10
44.8000
20
-197.8000
10
11.2000
20
-147.2000
0
LWPOLYLINE
100
AcDbEntity
8
TAGLIO_STUDIO
100
AcDbPolyline
90
16
70
1
10
-7.1618
20
-33.2186
10
13.5858
20
9.3882
10
49.9873
20
-8.5526
10
78.1137
20
-64.0018
10
113.9020
20
-85.0000
10
166.0980
20
-85.0000
10
201.8863
20
-64.0018
10
230.0127
20
-8.5526
10
266.4142
20
9.3882
10
287.1618
20
-33.2186
10
275.5937
20
-149.6232
10
240.1191
20
-203.0462
10
181.0690
20
-237.0000
10
98.9310
20
-237.0000
10
39.8809
20
-203.0462
10
4.4063
20
-149.6232
0
LWPOLYLINE
100
AcDbEntity
8
CUCITURA
100
AcDbPolyline
90
16
70
1
10
340.0000
20
-34.5000
10
356.8000
20
0.0000
10
384.8000
20
-13.8000
10
412.8000
20
-69.0000
10
452.0000
20
-92.0000
10
508.0000
20
-92.0000
10
547.2000
20
-69.0000
10
575.2000
20
-13.8000
10
603.2000
20
0.0000
10
620.0000
20
-34.5000
10
608.8000
20
-147.2000
10
575.2000
20
-197.8000
10
519.2000
20
-230.0000
10
440.8000
20
-230.0000
10
384.8000
20
-197.8000
10
351.2000
20
-147.2000
0
LWPOLYLINE
100
AcDbEntity
8
TAGLIO_STUDIO
100
AcDbPolyline
90
16
70
1
10
332.8382
20
-33.2186
10
353.5858
20
9.3882
10
389.9873
20
-8.5526
10
418.1137
20
-64.0018
10
453.9020
20
-85.0000
10
506.0980
20
-85.0000
10
541.8863
20
-64.0018
10
570.0127
20
-8.5526
10
606.4142
20
9.3882
10
627.1618
20
-33.2186
10
615.5937
20
-149.6232
10
580.1191
20
-203.0462
10
521.0690
20
-237.0000
10
438.9310
20
-237.0000
10
379.8809
20
-203.0462
10
344.4063
20
-149.6232
0
LWPOLYLINE
100
AcDbEntity
8
CUCITURA
100
AcDbPolyline
90
4
70
1
10
0.0000
20
-290.0000
10
965.4524
20
-290.0000
10
965.4524
20
-370.0000
10
0.0000
20
-370.0000
0
LWPOLYLINE
100
AcDbEntity
8
TAGLIO_STUDIO
100
AcDbPolyline
90
4
70
1
10
-7.0000
20
-283.0000
10
972.4524
20
-283.0000
10
972.4524
20
-377.0000
10
-7.0000
20
-377.0000
0
ENDSEC
0
EOF
