0
SECTION
2
HEADER
9
$INSUNITS
70
4
0
ENDSEC
0
SECTION
2
ENTITIES
0
LWPOLYLINE
100
AcDbEntity
8
CUCITURA
100
AcDbPolyline
90
4
70
1
10
0.0000
20
0.0000
10
180.0000
20
0.0000
10
180.0000
20
-150.0000
10
0.0000
20
-150.0000
0
LWPOLYLINE
100
AcDbEntity
8
TAGLIO_STUDIO
100
AcDbPolyline
90
4
70
1
10
-7.0000
20
7.0000
10
187.0000
20
7.0000
10
187.0000
20
-157.0000
10
-7.0000
20
-157.0000
0
LWPOLYLINE
100
AcDbEntity
8
CUCITURA
100
AcDbPolyline
90
4
70
1
10
240.0000
20
0.0000
10
420.0000
20
0.0000
10
420.0000
20
-150.0000
10
240.0000
20
-150.0000
0
LWPOLYLINE
100
AcDbEntity
8
TAGLIO_STUDIO
100
AcDbPolyline
90
4
70
1
10
233.0000
20
7.0000
10
427.0000
20
7.0000
10
427.0000
20
-157.0000
10
233.0000
20
-157.0000
0
LWPOLYLINE
100
AcDbEntity
8
CUCITURA
100
AcDbPolyline
90
4
70
1
10
0.0000
20
-210.0000
10
660.0000
20
-210.0000
10
660.0000
20
-290.0000
10
0.0000
20
-290.0000
0
LWPOLYLINE
100
AcDbEntity
8
TAGLIO_STUDIO
100
AcDbPolyline
90
4
70
1
10
-7.0000
20
-203.0000
10
667.0000
20
-203.0000
10
667.0000
20
-297.0000
10
-7.0000
20
-297.0000
0
ENDSEC
0
EOF
