0
SECTION
2
HEADER
9
$INSUNITS
70
4
0
ENDSEC
0
SECTION
2
ENTITIES
0
LWPOLYLINE
100
AcDbEntity
8
CUCITURA
100
AcDbPolyline
90
4
70
1
10
0.0000
20
0.0000
10
210.0000
20
0.0000
10
210.0000
20
-160.0000
10
0.0000
20
-160.0000
0
LWPOLYLINE
100
AcDbEntity
8
TAGLIO_STUDIO
100
AcDbPolyline
90
4
70
1
10
-7.0000
20
7.0000
10
217.0000
20
7.0000
10
217.0000
20
-167.0000
10
-7.0000
20
-167.0000
0
LWPOLYLINE
100
AcDbEntity
8
CUCITURA
100
AcDbPolyline
90
4
70
1
10
270.0000
20
0.0000
10
480.0000
20
0.0000
10
480.0000
20
-160.0000
10
270.0000
20
-160.0000
0
LWPOLYLINE
100
AcDbEntity
8
TAGLIO_STUDIO
100
AcDbPolyline
90
4
70
1
10
263.0000
20
7.0000
10
487.0000
20
7.0000
10
487.0000
20
-167.0000
10
263.0000
20
-167.0000
0
LWPOLYLINE
100
AcDbEntity
8
CUCITURA
100
AcDbPolyline
90
4
70
1
10
0.0000
20
-220.0000
10
740.0000
20
-220.0000
10
740.0000
20
-280.0000
10
0.0000
20
-280.0000
0
LWPOLYLINE
100
AcDbEntity
8
TAGLIO_STUDIO
100
AcDbPolyline
90
4
70
1
10
-7.0000
20
-213.0000
10
747.0000
20
-213.0000
10
747.0000
20
-287.0000
10
-7.0000
20
-287.0000
0
ENDSEC
0
EOF
