0
SECTION
2
HEADER
9
$INSUNITS
70
4
0
ENDSEC
0
SECTION
2
ENTITIES
0
LWPOLYLINE
100
AcDbEntity
8
CUCITURA
100
AcDbPolyline
90
4
70
1
10
0.0000
20
0.0000
10
220.0000
20
0.0000
10
220.0000
20
-150.0000
10
0.0000
20
-150.0000
0
LWPOLYLINE
100
AcDbEntity
8
TAGLIO_STUDIO
100
AcDbPolyline
90
4
70
1
10
-7.0000
20
7.0000
10
227.0000
20
7.0000
10
227.0000
20
-157.0000
10
-7.0000
20
-157.0000
0
LWPOLYLINE
100
AcDbEntity
8
CUCITURA
100
AcDbPolyline
90
4
70
1
10
280.0000
20
0.0000
10
500.0000
20
0.0000
10
500.0000
20
-150.0000
10
280.0000
20
-150.0000
0
LWPOLYLINE
100
AcDbEntity
8
TAGLIO_STUDIO
100
AcDbPolyline
90
4
70
1
10
273.0000
20
7.0000
10
507.0000
20
7.0000
10
507.0000
20
-157.0000
10
273.0000
20
-157.0000
0
LWPOLYLINE
100
AcDbEntity
8
CUCITURA
100
AcDbPolyline
90
4
70
1
10
0.0000
20
-210.0000
10
740.0000
20
-210.0000
10
740.0000
20
-250.0000
10
0.0000
20
-250.0000
0
LWPOLYLINE
100
AcDbEntity
8
TAGLIO_STUDIO
100
AcDbPolyline
90
4
70
1
10
-7.0000
20
-203.0000
10
747.0000
20
-203.0000
10
747.0000
20
-257.0000
10
-7.0000
20
-257.0000
0
ENDSEC
0
EOF
