0
SECTION
2
HEADER
9
$INSUNITS
70
4
0
ENDSEC
0
SECTION
2
ENTITIES
0
LWPOLYLINE
100
AcDbEntity
8
CUCITURA
100
AcDbPolyline
90
8
70
1
10
66.0000
20
0.0000
10
234.0000
20
0.0000
10
300.0000
20
-72.0000
10
264.0000
20
-225.6000
10
225.0000
20
-240.0000
10
75.0000
20
-240.0000
10
36.0000
20
-225.6000
10
0.0000
20
-72.0000
0
LWPOLYLINE
100
AcDbEntity
8
TAGLIO_STUDIO
100
AcDbPolyline
90
8
70
1
10
62.9207
20
7.0000
10
237.0793
20
7.0000
10
307.6593
20
-69.9963
10
269.9562
20
-230.8627
10
226.2510
20
-247.0000
10
73.7490
20
-247.0000
10
30.0438
20
-230.8627
10
-7.6593
20
-69.9963
0
LWPOLYLINE
100
AcDbEntity
8
CUCITURA
100
AcDbPolyline
90
8
70
1
10
426.0000
20
0.0000
10
594.0000
20
0.0000
10
660.0000
20
-72.0000
10
624.0000
20
-225.6000
10
585.0000
20
-240.0000
10
435.0000
20
-240.0000
10
396.0000
20
-225.6000
10
360.0000
20
-72.0000
0
LWPOLYLINE
100
AcDbEntity
8
TAGLIO_STUDIO
100
AcDbPolyline
90
8
70
1
10
422.9207
20
7.0000
10
597.0793
20
7.0000
10
667.6593
20
-69.9963
10
629.9562
20
-230.8627
10
586.2510
20
-247.0000
10
433.7490
20
-247.0000
10
390.0438
20
-230.8627
10
352.3407
20
-69.9963
0
LWPOLYLINE
100
AcDbEntity
8
CUCITURA
100
AcDbPolyline
90
4
70
1
10
0.0000
20
-300.0000
10
912.0177
20
-300.0000
10
912.0177
20
-480.0000
10
0.0000
20
-480.0000
0
LWPOLYLINE
100
AcDbEntity
8
TAGLIO_STUDIO
100
AcDbPolyline
90
4
70
1
10
-7.0000
20
-293.0000
10
919.0177
20
-293.0000
10
919.0177
20
-487.0000
10
-7.0000
20
-487.0000
0
ENDSEC
0
EOF
