0
SECTION
2
HEADER
9
$INSUNITS
70
4
0
ENDSEC
0
SECTION
2
ENTITIES
0
LWPOLYLINE
100
AcDbEntity
8
CUCITURA
100
AcDbPolyline
90
4
70
1
10
41.6000
20
0.0000
10
278.4000
20
0.0000
10
320.0000
20
-230.0000
10
0.0000
20
-230.0000
0
LWPOLYLINE
100
AcDbEntity
8
TAGLIO_STUDIO
100
AcDbPolyline
90
4
70
1
10
35.7525
20
7.0000
10
284.2475
20
7.0000
10
328.3797
20
-237.0000
10
-8.3797
20
-237.0000
0
LWPOLYLINE
100
AcDbEntity
8
CUCITURA
100
AcDbPolyline
90
4
70
1
10
421.6000
20
0.0000
10
658.4000
20
0.0000
10
700.0000
20
-230.0000
10
380.0000
20
-230.0000
0
LWPOLYLINE
100
AcDbEntity
8
TAGLIO_STUDIO
100
AcDbPolyline
90
4
70
1
10
415.7525
20
7.0000
10
664.2475
20
7.0000
10
708.3797
20
-237.0000
10
371.6203
20
-237.0000
0
LWPOLYLINE
100
AcDbEntity
8
CUCITURA
100
AcDbPolyline
90
4
70
1
10
0.0000
20
-290.0000
10
1024.2636
20
-290.0000
10
1024.2636
20
-420.0000
10
0.0000
20
-420.0000
0
LWPOLYLINE
100
AcDbEntity
8
TAGLIO_STUDIO
100
AcDbPolyline
90
4
70
1
10
-7.0000
20
-283.0000
10
1031.2636
20
-283.0000
10
1031.2636
20
-427.0000
10
-7.0000
20
-427.0000
0
ENDSEC
0
EOF
