0
SECTION
2
HEADER
9
$INSUNITS
70
4
0
ENDSEC
0
SECTION
2
ENTITIES
0
LWPOLYLINE
100
AcDbEntity
8
CUCITURA
100
AcDbPolyline
90
10
70
1
10
54.0000
20
0.0000
10
246.0000
20
0.0000
10
258.0000
20
-69.0000
10
300.0000
20
-90.0000
10
285.0000
20
-264.0000
10
240.0000
20
-300.0000
10
60.0000
20
-300.0000
10
15.0000
20
-264.0000
10
0.0000
20
-90.0000
10
42.0000
20
-69.0000
0
LWPOLYLINE
100
AcDbEntity
8
TAGLIO_STUDIO
100
AcDbPolyline
90
10
70
1
10
48.1123
20
7.0000
10
251.8877
20
7.0000
10
264.2910
20
-64.3193
10
307.3824
20
-85.8650
10
291.7164
20
-267.5913
10
242.4555
20
-307.0000
10
57.5445
20
-307.0000
10
8.2836
20
-267.5913
10
-7.3824
20
-85.8650
10
35.7090
20
-64.3193
0
LWPOLYLINE
100
AcDbEntity
8
CUCITURA
100
AcDbPolyline
90
10
70
1
10
414.0000
20
0.0000
10
606.0000
20
0.0000
10
618.0000
20
-69.0000
10
660.0000
20
-90.0000
10
645.0000
20
-264.0000
10
600.0000
20
-300.0000
10
420.0000
20
-300.0000
10
375.0000
20
-264.0000
10
360.0000
20
-90.0000
10
402.0000
20
-69.0000
0
LWPOLYLINE
100
AcDbEntity
8
TAGLIO_STUDIO
100
AcDbPolyline
90
10
70
1
10
408.1123
20
7.0000
10
611.8877
20
7.0000
10
624.2910
20
-64.3193
10
667.3824
20
-85.8650
10
651.7164
20
-267.5913
10
602.4555
20
-307.0000
10
417.5445
20
-307.0000
10
368.2836
20
-267.5913
10
352.6176
20
-85.8650
10
395.7090
20
-64.3193
0
LWPOLYLINE
100
AcDbEntity
8
CUCITURA
100
AcDbPolyline
90
4
70
1
10
0.0000
20
-360.0000
10
1070.5332
20
-360.0000
10
1070.5332
20
-530.0000
10
0.0000
20
-530.0000
0
LWPOLYLINE
100
AcDbEntity
8
TAGLIO_STUDIO
100
AcDbPolyline
90
4
70
1
10
-7.0000
20
-353.0000
10
1077.5332
20
-353.0000
10
1077.5332
20
-537.0000
10
-7.0000
20
-537.0000
0
ENDSEC
0
EOF
