0
SECTION
2
HEADER
9
$INSUNITS
70
4
0
ENDSEC
0
SECTION
2
ENTITIES
0
LWPOLYLINE
100
AcDbEntity
8
CUCITURA
100
AcDbPolyline
90
4
70
1
10
0.0000
20
0.0000
10
390.0000
20
0.0000
10
390.0000
20
-420.0000
10
0.0000
20
-420.0000
0
LWPOLYLINE
100
AcDbEntity
8
TAGLIO_STUDIO
100
AcDbPolyline
90
4
70
1
10
-7.0000
20
7.0000
10
397.0000
20
7.0000
10
397.0000
20
-427.0000
10
-7.0000
20
-427.0000
0
LWPOLYLINE
100
AcDbEntity
8
CUCITURA
100
AcDbPolyline
90
4
70
1
10
450.0000
20
0.0000
10
840.0000
20
0.0000
10
840.0000
20
-420.0000
10
450.0000
20
-420.0000
0
LWPOLYLINE
100
AcDbEntity
8
TAGLIO_STUDIO
100
AcDbPolyline
90
4
70
1
10
443.0000
20
7.0000
10
847.0000
20
7.0000
10
847.0000
20
-427.0000
10
443.0000
20
-427.0000
0
LWPOLYLINE
100
AcDbEntity
8
CUCITURA
100
AcDbPolyline
90
4
70
1
10
0.0000
20
-480.0000
10
1620.0000
20
-480.0000
10
1620.0000
20
-560.0000
10
0.0000
20
-560.0000
0
LWPOLYLINE
100
AcDbEntity
8
TAGLIO_STUDIO
100
AcDbPolyline
90
4
70
1
10
-7.0000
20
-473.0000
10
1627.0000
20
-473.0000
10
1627.0000
20
-567.0000
10
-7.0000
20
-567.0000
0
ENDSEC
0
EOF
