0
SECTION
2
HEADER
9
$INSUNITS
70
4
0
ENDSEC
0
SECTION
2
ENTITIES
0
LWPOLYLINE
100
AcDbEntity
8
CUCITURA
100
AcDbPolyline
90
32
70
1
10
0.0000
20
0.0000
10
200.0000
20
0.0000
10
200.0000
20
-81.0000
10
199.4138
20
-91.7038
10
197.6621
20
-102.2821
10
194.7653
20
-112.6109
10
190.7575
20
-122.5690
10
185.6857
20
-132.0398
10
179.6093
20
-140.9122
10
172.5995
20
-149.0822
10
164.7386
20
-156.4540
10
156.1187
20
-162.9412
10
146.8408
20
-168.4677
10
137.0138
20
-172.9687
10
126.7528
20
-176.3914
10
116.1782
20
-178.6958
10
105.4139
20
-179.8548
10
94.5861
20
-179.8548
10
83.8218
20
-178.6958
10
73.2472
20
-176.3914
10
62.9862
20
-172.9687
10
53.1592
20
-168.4677
10
43.8813
20
-162.9412
10
35.2614
20
-156.4540
10
27.4005
20
-149.0822
10
20.3907
20
-140.9122
10
14.3143
20
-132.0398
10
9.2425
20
-122.5690
10
5.2347
20
-112.6109
10
2.3379
20
-102.2821
10
0.5862
20
-91.7038
10
0.0000
20
-81.0000
0
LWPOLYLINE
100
AcDbEntity
8
TAGLIO_STUDIO
100
AcDbPolyline
90
32
70
1
10
-7.0000
20
7.0000
10
207.0000
20
7.0000
10
207.0000
20
-81.1915
10
206.3824
20
-92.4693
10
204.5054
20
-103.8035
10
201.4020
20
-114.8695
10
197.1087
20
-125.5369
10
191.6766
20
-135.6806
10
185.1697
20
-145.1816
10
177.6649
20
-153.9286
10
169.2506
20
-161.8193
10
160.0258
20
-168.7616
10
150.0989
20
-174.6747
10
139.5862
20
-179.4898
10
128.6109
20
-183.1508
10
117.3013
20
-185.6154
10
105.7896
20
-186.8548
10
94.2104
20
-186.8548
10
82.6987
20
-185.6154
10
71.3891
20
-183.1508
10
60.4138
20
-179.4898
10
49.9011
20
-174.6747
10
39.9742
20
-168.7616
10
30.7494
20
-161.8193
10
22.3351
20
-153.9286
10
14.8303
20
-145.1816
10
8.3234
20
-135.6806
10
2.8913
20
-125.5369
10
-1.4020
20
-114.8695
10
-4.5054
20
-103.8035
10
-6.3824
20
-92.4693
10
-7.0000
20
-81.1915
0
LWPOLYLINE
100
AcDbEntity
8
CUCITURA
100
AcDbPolyline
90
32
70
1
10
260.0000
20
0.0000
10
460.0000
20
0.0000
10
460.0000
20
-81.0000
10
459.4138
20
-91.7038
10
457.6621
20
-102.2821
10
454.7653
20
-112.6109
10
450.7575
20
-122.5690
10
445.6857
20
-132.0398
10
439.6093
20
-140.9122
10
432.5995
20
-149.0822
10
424.7386
20
-156.4540
10
416.1187
20
-162.9412
10
406.8408
20
-168.4677
10
397.0138
20
-172.9687
10
386.7528
20
-176.3914
10
376.1782
20
-178.6958
10
365.4139
20
-179.8548
10
354.5861
20
-179.8548
10
343.8218
20
-178.6958
10
333.2472
20
-176.3914
10
322.9862
20
-172.9687
10
313.1592
20
-168.4677
10
303.8813
20
-162.9412
10
295.2614
20
-156.4540
10
287.4005
20
-149.0822
10
280.3907
20
-140.9122
10
274.3143
20
-132.0398
10
269.2425
20
-122.5690
10
265.2347
20
-112.6109
10
262.3379
20
-102.2821
10
260.5862
20
-91.7038
10
260.0000
20
-81.0000
0
LWPOLYLINE
100
AcDbEntity
8
TAGLIO_STUDIO
100
AcDbPolyline
90
32
70
1
10
253.0000
20
7.0000
10
467.0000
20
7.0000
10
467.0000
20
-81.1915
10
466.3824
20
-92.4693
10
464.5054
20
-103.8035
10
461.4020
20
-114.8695
10
457.1087
20
-125.5369
10
451.6766
20
-135.6806
10
445.1697
20
-145.1816
10
437.6649
20
-153.9286
10
429.2506
20
-161.8193
10
420.0258
20
-168.7616
10
410.0989
20
-174.6747
10
399.5862
20
-179.4898
10
388.6109
20
-183.1508
10
377.3013
20
-185.6154
10
365.7896
20
-186.8548
10
354.2104
20
-186.8548
10
342.6987
20
-185.6154
10
331.3891
20
-183.1508
10
320.4138
20
-179.4898
10
309.9011
20
-174.6747
10
299.9742
20
-168.7616
10
290.7494
20
-161.8193
10
282.3351
20
-153.9286
10
274.8303
20
-145.1816
10
268.3234
20
-135.6806
10
262.8913
20
-125.5369
10
258.5980
20
-114.8695
10
255.4946
20
-103.8035
10
253.6176
20
-92.4693
10
253.0000
20
-81.1915
0
LWPOLYLINE
100
AcDbEntity
8
CUCITURA
100
AcDbPolyline
90
4
70
1
10
0.0000
20
-240.0000
10
674.4376
20
-240.0000
10
674.4376
20
-310.0000
10
0.0000
20
-310.0000
0
LWPOLYLINE
100
AcDbEntity
8
TAGLIO_STUDIO
100
AcDbPolyline
90
4
70
1
10
-7.0000
20
-233.0000
10
681.4376
20
-233.0000
10
681.4376
20
-317.0000
10
-7.0000
20
-317.0000
0
ENDSEC
0
EOF
