0
SECTION
2
HEADER
9
$INSUNITS
70
4
0
ENDSEC
0
SECTION
2
ENTITIES
0
LWPOLYLINE
100
AcDbEntity
8
CUCITURA
100
AcDbPolyline
90
4
70
1
10
0.0000
20
0.0000
10
370.0000
20
0.0000
10
370.0000
20
-260.0000
10
0.0000
20
-260.0000
0
LWPOLYLINE
100
AcDbEntity
8
TAGLIO_STUDIO
100
AcDbPolyline
90
4
70
1
10
-7.0000
20
7.0000
10
377.0000
20
7.0000
10
377.0000
20
-267.0000
10
-7.0000
20
-267.0000
0
LWPOLYLINE
100
AcDbEntity
8
CUCITURA
100
AcDbPolyline
90
4
70
1
10
430.0000
20
0.0000
10
800.0000
20
0.0000
10
800.0000
20
-260.0000
10
430.0000
20
-260.0000
0
LWPOLYLINE
100
AcDbEntity
8
TAGLIO_STUDIO
100
AcDbPolyline
90
4
70
1
10
423.0000
20
7.0000
10
807.0000
20
7.0000
10
807.0000
20
-267.0000
10
423.0000
20
-267.0000
0
LWPOLYLINE
100
AcDbEntity
8
CUCITURA
100
AcDbPolyline
90
4
70
1
10
0.0000
20
-320.0000
10
1260.0000
20
-320.0000
10
1260.0000
20
-440.0000
10
0.0000
20
-440.0000
0
LWPOLYLINE
100
AcDbEntity
8
TAGLIO_STUDIO
100
AcDbPolyline
90
4
70
1
10
-7.0000
20
-313.0000
10
1267.0000
20
-313.0000
10
1267.0000
20
-447.0000
10
-7.0000
20
-447.0000
0
ENDSEC
0
EOF
