0
SECTION
2
HEADER
9
$INSUNITS
70
4
0
ENDSEC
0
SECTION
2
ENTITIES
0
LWPOLYLINE
100
AcDbEntity
8
CUCITURA
100
AcDbPolyline
90
30
70
1
10
0.0000
20
-200.0000
10
0.0000
20
-70.0000
10
1.2171
20
-61.8735
10
4.8519
20
-53.8569
10
10.8553
20
-46.0586
10
19.1461
20
-38.5841
10
29.6122
20
-31.5344
10
42.1120
20
-25.0049
10
56.4765
20
-19.0838
10
72.5115
20
-13.8514
10
90.0000
20
-9.3782
10
108.7056
20
-5.7249
10
128.3754
20
-2.9407
10
148.7433
20
-1.0635
10
169.5339
20
-0.1184
10
190.4661
20
-0.1184
10
211.2567
20
-1.0635
10
231.6246
20
-2.9407
10
251.2944
20
-5.7249
10
270.0000
20
-9.3782
10
287.4885
20
-13.8514
10
303.5235
20
-19.0838
10
317.8880
20
-25.0049
10
330.3878
20
-31.5344
10
340.8539
20
-38.5841
10
349.1447
20
-46.0586
10
355.1481
20
-53.8569
10
358.7829
20
-61.8735
10
360.0000
20
-70.0000
10
360.0000
20
-200.0000
0
LWPOLYLINE
100
AcDbEntity
8
TAGLIO_STUDIO
100
AcDbPolyline
90
30
70
1
10
-7.0000
20
-207.0000
10
-7.0000
20
-69.4787
10
-5.5612
20
-59.8716
10
-1.1889
20
-50.2286
10
5.6962
20
-41.2850
10
14.8258
20
-33.0542
10
26.0253
20
-25.5106
10
39.1516
20
-18.6538
10
54.0535
20
-12.5113
10
70.5563
20
-7.1261
10
88.4605
20
-2.5466
10
107.5434
20
1.1804
10
127.5632
20
4.0141
10
148.2629
20
5.9219
10
169.3749
20
6.8816
10
190.6251
20
6.8816
10
211.7371
20
5.9219
10
232.4368
20
4.0141
10
252.4566
20
1.1804
10
271.5395
20
-2.5466
10
289.4437
20
-7.1261
10
305.9465
20
-12.5113
10
320.8484
20
-18.6538
10
333.9747
20
-25.5106
10
345.1742
20
-33.0542
10
354.3038
20
-41.2850
10
361.1889
20
-50.2286
10
365.5612
20
-59.8716
10
367.0000
20
-69.4787
10
367.0000
20
-207.0000
0
LWPOLYLINE
100
AcDbEntity
8
CUCITURA
100
AcDbPolyline
90
30
70
1
10
420.0000
20
-200.0000
10
420.0000
20
-70.0000
10
421.2171
20
-61.8735
10
424.8519
20
-53.8569
10
430.8553
20
-46.0586
10
439.1461
20
-38.5841
10
449.6122
20
-31.5344
10
462.1120
20
-25.0049
10
476.4765
20
-19.0838
10
492.5115
20
-13.8514
10
510.0000
20
-9.3782
10
528.7056
20
-5.7249
10
548.3754
20
-2.9407
10
568.7433
20
-1.0635
10
589.5339
20
-0.1184
10
610.4661
20
-0.1184
10
631.2567
20
-1.0635
10
651.6246
20
-2.9407
10
671.2944
20
-5.7249
10
690.0000
20
-9.3782
10
707.4885
20
-13.8514
10
723.5235
20
-19.0838
10
737.8880
20
-25.0049
10
750.3878
20
-31.5344
10
760.8539
20
-38.5841
10
769.1447
20
-46.0586
10
775.1481
20
-53.8569
10
778.7829
20
-61.8735
10
780.0000
20
-70.0000
10
780.0000
20
-200.0000
0
LWPOLYLINE
100
AcDbEntity
8
TAGLIO_STUDIO
100
AcDbPolyline
90
30
70
1
10
413.0000
20
-207.0000
10
413.0000
20
-69.4787
10
414.4388
20
-59.8716
10
418.8111
20
-50.2286
10
425.6962
20
-41.2850
10
434.8258
20
-33.0542
10
446.0253
20
-25.5106
10
459.1516
20
-18.6538
10
474.0535
20
-12.5113
10
490.5563
20
-7.1261
10
508.4605
20
-2.5466
10
527.5434
20
1.1804
10
547.5632
20
4.0141
10
568.2629
20
5.9219
10
589.3749
20
6.8816
10
610.6251
20
6.8816
10
631.7371
20
5.9219
10
652.4368
20
4.0141
10
672.4566
20
1.1804
10
691.5395
20
-2.5466
10
709.4437
20
-7.1261
10
725.9465
20
-12.5113
10
740.8484
20
-18.6538
10
753.9747
20
-25.5106
10
765.1742
20
-33.0542
10
774.3038
20
-41.2850
10
781.1889
20
-50.2286
10
785.5612
20
-59.8716
10
787.0000
20
-69.4787
10
787.0000
20
-207.0000
0
LWPOLYLINE
100
AcDbEntity
8
CUCITURA
100
AcDbPolyline
90
4
70
1
10
0.0000
20
-260.0000
10
1031.7154
20
-260.0000
10
1031.7154
20
-440.0000
10
0.0000
20
-440.0000
0
LWPOLYLINE
100
AcDbEntity
8
TAGLIO_STUDIO
100
AcDbPolyline
90
4
70
1
10
-7.0000
20
-253.0000
10
1038.7154
20
-253.0000
10
1038.7154
20
-447.0000
10
-7.0000
20
-447.0000
0
ENDSEC
0
EOF
