0
SECTION
2
HEADER
9
$INSUNITS
70
4
0
ENDSEC
0
SECTION
2
ENTITIES
0
LWPOLYLINE
100
AcDbEntity
8
CUCITURA
100
AcDbPolyline
90
32
70
1
10
0.0000
20
0.0000
10
230.0000
20
0.0000
10
230.0000
20
-94.5000
10
229.3259
20
-106.9877
10
227.3114
20
-119.3291
10
223.9801
20
-131.3793
10
219.3712
20
-142.9972
10
213.5386
20
-154.0465
10
206.5507
20
-164.3976
10
198.4895
20
-173.9293
10
189.4494
20
-182.5297
10
179.5365
20
-190.0981
10
168.8670
20
-196.5456
10
157.5659
20
-201.7968
10
145.7658
20
-205.7900
10
133.6049
20
-208.4785
10
121.2260
20
-209.8306
10
108.7740
20
-209.8306
10
96.3951
20
-208.4785
10
84.2342
20
-205.7900
10
72.4341
20
-201.7968
10
61.1330
20
-196.5456
10
50.4635
20
-190.0981
10
40.5506
20
-182.5297
10
31.5105
20
-173.9293
10
23.4493
20
-164.3976
10
16.4614
20
-154.0465
10
10.6288
20
-142.9972
10
6.0199
20
-131.3793
10
2.6886
20
-119.3291
10
0.6741
20
-106.9877
10
0.0000
20
-94.5000
0
LWPOLYLINE
100
AcDbEntity
8
TAGLIO_STUDIO
100
AcDbPolyline
90
32
70
1
10
-7.0000
20
7.0000
10
237.0000
20
7.0000
10
237.0000
20
-94.6888
10
236.2953
20
-107.7425
10
234.1590
20
-120.8299
10
230.6263
20
-133.6090
10
225.7383
20
-145.9303
10
219.5522
20
-157.6492
10
212.1403
20
-168.6284
10
203.5893
20
-178.7393
10
193.9992
20
-187.8630
10
183.4822
20
-195.8925
10
172.1617
20
-202.7335
10
160.1704
20
-208.3054
10
147.6488
20
-212.5428
10
134.7439
20
-215.3957
10
121.6071
20
-216.8306
10
108.3929
20
-216.8306
10
95.2561
20
-215.3957
10
82.3512
20
-212.5428
10
69.8296
20
-208.3054
10
57.8383
20
-202.7335
10
46.5178
20
-195.8925
10
36.0008
20
-187.8630
10
26.4107
20
-178.7393
10
17.8597
20
-168.6284
10
10.4478
20
-157.6492
10
4.2617
20
-145.9303
10
-0.6263
20
-133.6090
10
-4.1590
20
-120.8299
10
-6.2953
20
-107.7425
10
-7.0000
20
-94.6888
0
LWPOLYLINE
100
AcDbEntity
8
CUCITURA
100
AcDbPolyline
90
32
70
1
10
290.0000
20
0.0000
10
520.0000
20
0.0000
10
520.0000
20
-94.5000
10
519.3259
20
-106.9877
10
517.3114
20
-119.3291
10
513.9801
20
-131.3793
10
509.3712
20
-142.9972
10
503.5386
20
-154.0465
10
496.5507
20
-164.3976
10
488.4895
20
-173.9293
10
479.4494
20
-182.5297
10
469.5365
20
-190.0981
10
458.8670
20
-196.5456
10
447.5659
20
-201.7968
10
435.7658
20
-205.7900
10
423.6049
20
-208.4785
10
411.2260
20
-209.8306
10
398.7740
20
-209.8306
10
386.3951
20
-208.4785
10
374.2342
20
-205.7900
10
362.4341
20
-201.7968
10
351.1330
20
-196.5456
10
340.4635
20
-190.0981
10
330.5506
20
-182.5297
10
321.5105
20
-173.9293
10
313.4493
20
-164.3976
10
306.4614
20
-154.0465
10
300.6288
20
-142.9972
10
296.0199
20
-131.3793
10
292.6886
20
-119.3291
10
290.6741
20
-106.9877
10
290.0000
20
-94.5000
0
LWPOLYLINE
100
AcDbEntity
8
TAGLIO_STUDIO
100
AcDbPolyline
90
32
70
1
10
283.0000
20
7.0000
10
527.0000
20
7.0000
10
527.0000
20
-94.6888
10
526.2953
20
-107.7425
10
524.1590
20
-120.8299
10
520.6263
20
-133.6090
10
515.7383
20
-145.9303
10
509.5522
20
-157.6492
10
502.1403
20
-168.6284
10
493.5893
20
-178.7393
10
483.9992
20
-187.8630
10
473.4822
20
-195.8925
10
462.1617
20
-202.7335
10
450.1704
20
-208.3054
10
437.6488
20
-212.5428
10
424.7439
20
-215.3957
10
411.6071
20
-216.8306
10
398.3929
20
-216.8306
10
385.2561
20
-215.3957
10
372.3512
20
-212.5428
10
359.8296
20
-208.3054
10
347.8383
20
-202.7335
10
336.5178
20
-195.8925
10
326.0008
20
-187.8630
10
316.4107
20
-178.7393
10
307.8597
20
-168.6284
10
300.4478
20
-157.6492
10
294.2617
20
-145.9303
10
289.3737
20
-133.6090
10
285.8410
20
-120.8299
10
283.7047
20
-107.7425
10
283.0000
20
-94.6888
0
LWPOLYLINE
100
AcDbEntity
8
CUCITURA
100
AcDbPolyline
90
4
70
1
10
0.0000
20
-270.0000
10
780.8920
20
-270.0000
10
780.8920
20
-350.0000
10
0.0000
20
-350.0000
0
LWPOLYLINE
100
AcDbEntity
8
TAGLIO_STUDIO
100
AcDbPolyline
90
4
70
1
10
-7.0000
20
-263.0000
10
787.8920
20
-263.0000
10
787.8920
20
-357.0000
10
-7.0000
20
-357.0000
0
ENDSEC
0
EOF
