0
SECTION
2
HEADER
9
$INSUNITS
70
4
0
ENDSEC
0
SECTION
2
ENTITIES
0
LWPOLYLINE
100
AcDbEntity
8
CUCITURA
100
AcDbPolyline
90
4
70
1
10
46.8000
20
0.0000
10
313.2000
20
0.0000
10
360.0000
20
-250.0000
10
0.0000
20
-250.0000
0
LWPOLYLINE
100
AcDbEntity
8
TAGLIO_STUDIO
100
AcDbPolyline
90
4
70
1
10
40.9888
20
7.0000
10
319.0112
20
7.0000
10
368.4320
20
-257.0000
10
-8.4320
20
-257.0000
0
LWPOLYLINE
100
AcDbEntity
8
CUCITURA
100
AcDbPolyline
90
4
70
1
10
466.8000
20
0.0000
10
733.2000
20
0.0000
10
780.0000
20
-250.0000
10
420.0000
20
-250.0000
0
LWPOLYLINE
100
AcDbEntity
8
TAGLIO_STUDIO
100
AcDbPolyline
90
4
70
1
10
460.9888
20
7.0000
10
739.0112
20
7.0000
10
788.4320
20
-257.0000
10
411.5680
20
-257.0000
0
LWPOLYLINE
100
AcDbEntity
8
CUCITURA
100
AcDbPolyline
90
4
70
1
10
0.0000
20
-310.0000
10
1135.0855
20
-310.0000
10
1135.0855
20
-460.0000
10
0.0000
20
-460.0000
0
LWPOLYLINE
100
AcDbEntity
8
TAGLIO_STUDIO
100
AcDbPolyline
90
4
70
1
10
-7.0000
20
-303.0000
10
1142.0855
20
-303.0000
10
1142.0855
20
-467.0000
10
-7.0000
20
-467.0000
0
ENDSEC
0
EOF
