0
SECTION
2
HEADER
9
$INSUNITS
70
4
0
ENDSEC
0
SECTION
2
ENTITIES
0
LWPOLYLINE
100
AcDbEntity
8
CUCITURA
100
AcDbPolyline
90
32
70
1
10
0.0000
20
0.0000
10
360.0000
20
0.0000
10
360.0000
20
-126.0000
10
358.9448
20
-142.6503
10
355.7917
20
-159.1054
10
350.5776
20
-175.1724
10
343.3636
20
-190.6629
10
334.2343
20
-205.3953
10
323.2968
20
-219.1968
10
310.6792
20
-231.9057
10
296.5295
20
-243.3730
10
281.0137
20
-253.4641
10
264.3135
20
-262.0609
10
246.6249
20
-269.0624
10
228.1551
20
-274.3867
10
209.1208
20
-277.9713
10
189.7450
20
-279.7741
10
170.2550
20
-279.7741
10
150.8792
20
-277.9713
10
131.8449
20
-274.3867
10
113.3751
20
-269.0624
10
95.6865
20
-262.0609
10
78.9863
20
-253.4641
10
63.4705
20
-243.3730
10
49.3208
20
-231.9057
10
36.7032
20
-219.1968
10
25.7657
20
-205.3953
10
16.6364
20
-190.6629
10
9.4224
20
-175.1724
10
4.2083
20
-159.1054
10
1.0552
20
-142.6503
10
0.0000
20
-126.0000
0
LWPOLYLINE
100
AcDbEntity
8
TAGLIO_STUDIO
100
AcDbPolyline
90
32
70
1
10
-7.0000
20
7.0000
10
367.0000
20
7.0000
10
367.0000
20
-126.2216
10
365.9029
20
-143.5339
10
362.5845
20
-160.8513
10
357.1037
20
-177.7399
10
349.5333
20
-193.9959
10
339.9715
20
-209.4261
10
328.5399
20
-223.8511
10
315.3803
20
-237.1059
10
300.6527
20
-249.0416
10
284.5328
20
-259.5256
10
267.2106
20
-268.4425
10
248.8877
20
-275.6952
10
229.7759
20
-281.2045
10
210.0949
20
-284.9109
10
190.0700
20
-286.7741
10
169.9300
20
-286.7741
10
149.9051
20
-284.9109
10
130.2241
20
-281.2045
10
111.1123
20
-275.6952
10
92.7894
20
-268.4425
10
75.4672
20
-259.5256
10
59.3473
20
-249.0416
10
44.6197
20
-237.1059
10
31.4601
20
-223.8511
10
20.0285
20
-209.4261
10
10.4667
20
-193.9959
10
2.8963
20
-177.7399
10
-2.5845
20
-160.8513
10
-5.9029
20
-143.5339
10
-7.0000
20
-126.2216
0
LWPOLYLINE
100
AcDbEntity
8
CUCITURA
100
AcDbPolyline
90
32
70
1
10
420.0000
20
0.0000
10
780.0000
20
0.0000
10
780.0000
20
-126.0000
10
778.9448
20
-142.6503
10
775.7917
20
-159.1054
10
770.5776
20
-175.1724
10
763.3636
20
-190.6629
10
754.2343
20
-205.3953
10
743.2968
20
-219.1968
10
730.6792
20
-231.9057
10
716.5295
20
-243.3730
10
701.0137
20
-253.4641
10
684.3135
20
-262.0609
10
666.6249
20
-269.0624
10
648.1551
20
-274.3867
10
629.1208
20
-277.9713
10
609.7450
20
-279.7741
10
590.2550
20
-279.7741
10
570.8792
20
-277.9713
10
551.8449
20
-274.3867
10
533.3751
20
-269.0624
10
515.6865
20
-262.0609
10
498.9863
20
-253.4641
10
483.4705
20
-243.3730
10
469.3208
20
-231.9057
10
456.7032
20
-219.1968
10
445.7657
20
-205.3953
10
436.6364
20
-190.6629
10
429.4224
20
-175.1724
10
424.2083
20
-159.1054
10
421.0552
20
-142.6503
10
420.0000
20
-126.0000
0
LWPOLYLINE
100
AcDbEntity
8
TAGLIO_STUDIO
100
AcDbPolyline
90
32
70
1
10
413.0000
20
7.0000
10
787.0000
20
7.0000
10
787.0000
20
-126.2216
10
785.9029
20
-143.5339
10
782.5845
20
-160.8513
10
777.1037
20
-177.7399
10
769.5333
20
-193.9959
10
759.9715
20
-209.4261
10
748.5399
20
-223.8511
10
735.3803
20
-237.1059
10
720.6527
20
-249.0416
10
704.5328
20
-259.5256
10
687.2106
20
-268.4425
10
668.8877
20
-275.6952
10
649.7759
20
-281.2045
10
630.0949
20
-284.9109
10
610.0700
20
-286.7741
10
589.9300
20
-286.7741
10
569.9051
20
-284.9109
10
550.2241
20
-281.2045
10
531.1123
20
-275.6952
10
512.7894
20
-268.4425
10
495.4672
20
-259.5256
10
479.3473
20
-249.0416
10
464.6197
20
-237.1059
10
451.4601
20
-223.8511
10
440.0285
20
-209.4261
10
430.4667
20
-193.9959
10
422.8963
20
-177.7399
10
417.4155
20
-160.8513
10
414.0971
20
-143.5339
10
413.0000
20
-126.2216
0
LWPOLYLINE
100
AcDbEntity
8
CUCITURA
100
AcDbPolyline
90
4
70
1
10
0.0000
20
-340.0000
10
1137.1842
20
-340.0000
10
1137.1842
20
-460.0000
10
0.0000
20
-460.0000
0
LWPOLYLINE
100
AcDbEntity
8
TAGLIO_STUDIO
100
AcDbPolyline
90
4
70
1
10
-7.0000
20
-333.0000
10
1144.1842
20
-333.0000
10
1144.1842
20
-467.0000
10
-7.0000
20
-467.0000
0
ENDSEC
0
EOF
