0
SECTION
2
HEADER
9
$INSUNITS
70
4
0
ENDSEC
0
SECTION
2
ENTITIES
0
LWPOLYLINE
100
AcDbEntity
8
CUCITURA
100
AcDbPolyline
90
4
70
1
10
32.5000
20
0.0000
10
217.5000
20
0.0000
10
250.0000
20
-200.0000
10
0.0000
20
-200.0000
0
LWPOLYLINE
100
AcDbEntity
8
TAGLIO_STUDIO
100
AcDbPolyline
90
4
70
1
10
26.5457
20
7.0000
10
223.4543
20
7.0000
10
258.2293
20
-207.0000
10
-8.2293
20
-207.0000
0
LWPOLYLINE
100
AcDbEntity
8
CUCITURA
100
AcDbPolyline
90
4
70
1
10
342.5000
20
0.0000
10
527.5000
20
0.0000
10
560.0000
20
-200.0000
10
310.0000
20
-200.0000
0
LWPOLYLINE
100
AcDbEntity
8
TAGLIO_STUDIO
100
AcDbPolyline
90
4
70
1
10
336.5457
20
7.0000
10
533.4543
20
7.0000
10
568.2293
20
-207.0000
10
301.7707
20
-207.0000
0
LWPOLYLINE
100
AcDbEntity
8
CUCITURA
100
AcDbPolyline
90
4
70
1
10
0.0000
20
-260.0000
10
840.2468
20
-260.0000
10
840.2468
20
-400.0000
10
0.0000
20
-400.0000
0
LWPOLYLINE
100
AcDbEntity
8
TAGLIO_STUDIO
100
AcDbPolyline
90
4
70
1
10
-7.0000
20
-253.0000
10
847.2468
20
-253.0000
10
847.2468
20
-407.0000
10
-7.0000
20
-407.0000
0
ENDSEC
0
EOF
