0
SECTION
2
HEADER
9
$INSUNITS
70
4
0
ENDSEC
0
SECTION
2
ENTITIES
0
LWPOLYLINE
100
AcDbEntity
8
CUCITURA
100
AcDbPolyline
90
32
70
1
10
0.0000
20
0.0000
10
230.0000
20
0.0000
10
230.0000
20
-90.0000
10
229.3259
20
-101.8931
10
227.3114
20
-113.6467
10
223.9801
20
-125.1232
10
219.3712
20
-136.1878
10
213.5386
20
-146.7109
10
206.5507
20
-156.5692
10
198.4895
20
-165.6469
10
189.4494
20
-173.8378
10
179.5365
20
-181.0458
10
168.8670
20
-187.1863
10
157.5659
20
-192.1874
10
145.7658
20
-195.9905
10
133.6049
20
-198.5509
10
121.2260
20
-199.8387
10
108.7740
20
-199.8387
10
96.3951
20
-198.5509
10
84.2342
20
-195.9905
10
72.4341
20
-192.1874
10
61.1330
20
-187.1863
10
50.4635
20
-181.0458
10
40.5506
20
-173.8378
10
31.5105
20
-165.6469
10
23.4493
20
-156.5692
10
16.4614
20
-146.7109
10
10.6288
20
-136.1878
10
6.0199
20
-125.1232
10
2.6886
20
-113.6467
10
0.6741
20
-101.8931
10
0.0000
20
-90.0000
0
LWPOLYLINE
100
AcDbEntity
8
TAGLIO_STUDIO
100
AcDbPolyline
90
32
70
1
10
-7.0000
20
7.0000
10
237.0000
20
7.0000
10
237.0000
20
-90.1982
10
236.2922
20
-102.6850
10
234.1440
20
-115.2187
10
230.5931
20
-127.4520
10
225.6829
20
-139.2398
10
219.4733
20
-150.4431
10
212.0396
20
-160.9302
10
203.4712
20
-170.5791
10
193.8706
20
-179.2780
10
183.3515
20
-186.9267
10
172.0380
20
-193.4378
10
160.0628
20
-198.7373
10
147.5654
20
-202.7651
10
134.6911
20
-205.4757
10
121.5891
20
-206.8387
10
108.4109
20
-206.8387
10
95.3089
20
-205.4757
10
82.4346
20
-202.7651
10
69.9372
20
-198.7373
10
57.9620
20
-193.4378
10
46.6485
20
-186.9267
10
36.1294
20
-179.2780
10
26.5288
20
-170.5791
10
17.9604
20
-160.9302
10
10.5267
20
-150.4431
10
4.3171
20
-139.2398
10
-0.5931
20
-127.4520
10
-4.1440
20
-115.2187
10
-6.2922
20
-102.6850
10
-7.0000
20
-90.1982
0
LWPOLYLINE
100
AcDbEntity
8
CUCITURA
100
AcDbPolyline
90
32
70
1
10
290.0000
20
0.0000
10
520.0000
20
0.0000
10
520.0000
20
-90.0000
10
519.3259
20
-101.8931
10
517.3114
20
-113.6467
10
513.9801
20
-125.1232
10
509.3712
20
-136.1878
10
503.5386
20
-146.7109
10
496.5507
20
-156.5692
10
488.4895
20
-165.6469
10
479.4494
20
-173.8378
10
469.5365
20
-181.0458
10
458.8670
20
-187.1863
10
447.5659
20
-192.1874
10
435.7658
20
-195.9905
10
423.6049
20
-198.5509
10
411.2260
20
-199.8387
10
398.7740
20
-199.8387
10
386.3951
20
-198.5509
10
374.2342
20
-195.9905
10
362.4341
20
-192.1874
10
351.1330
20
-187.1863
10
340.4635
20
-181.0458
10
330.5506
20
-173.8378
10
321.5105
20
-165.6469
10
313.4493
20
-156.5692
10
306.4614
20
-146.7109
10
300.6288
20
-136.1878
10
296.0199
20
-125.1232
10
292.6886
20
-113.6467
10
290.6741
20
-101.8931
10
290.0000
20
-90.0000
0
LWPOLYLINE
100
AcDbEntity
8
TAGLIO_STUDIO
100
AcDbPolyline
90
32
70
1
10
283.0000
20
7.0000
10
527.0000
20
7.0000
10
527.0000
20
-90.1982
10
526.2922
20
-102.6850
10
524.1440
20
-115.2187
10
520.5931
20
-127.4520
10
515.6829
20
-139.2398
10
509.4733
20
-150.4431
10
502.0396
20
-160.9302
10
493.4712
20
-170.5791
10
483.8706
20
-179.2780
10
473.3515
20
-186.9267
10
462.0380
20
-193.4378
10
450.0628
20
-198.7373
10
437.5654
20
-202.7651
10
424.6911
20
-205.4757
10
411.5891
20
-206.8387
10
398.4109
20
-206.8387
10
385.3089
20
-205.4757
10
372.4346
20
-202.7651
10
359.9372
20
-198.7373
10
347.9620
20
-193.4378
10
336.6485
20
-186.9267
10
326.1294
20
-179.2780
10
316.5288
20
-170.5791
10
307.9604
20
-160.9302
10
300.5267
20
-150.4431
10
294.3171
20
-139.2398
10
289.4069
20
-127.4520
10
285.8560
20
-115.2187
10
283.7078
20
-102.6850
10
283.0000
20
-90.1982
0
LWPOLYLINE
100
AcDbEntity
8
CUCITURA
100
AcDbPolyline
90
4
70
1
10
0.0000
20
-260.0000
10
763.3000
20
-260.0000
10
763.3000
20
-340.0000
10
0.0000
20
-340.0000
0
LWPOLYLINE
100
AcDbEntity
8
TAGLIO_STUDIO
100
AcDbPolyline
90
4
70
1
10
-7.0000
20
-253.0000
10
770.3000
20
-253.0000
10
770.3000
20
-347.0000
10
-7.0000
20
-347.0000
0
ENDSEC
0
EOF
