0
SECTION
2
HEADER
9
$INSUNITS
70
4
0
ENDSEC
0
SECTION
2
ENTITIES
0
LWPOLYLINE
100
AcDbEntity
8
CUCITURA
100
AcDbPolyline
90
64
70
1
10
270.0000
20
-80.0000
10
269.3499
20
-87.8414
10
267.4060
20
-95.6072
10
264.1869
20
-103.2228
10
259.7237
20
-110.6147
10
254.0594
20
-117.7117
10
247.2484
20
-124.4456
10
239.3564
20
-130.7515
10
230.4594
20
-136.5685
10
220.6431
20
-141.8408
10
210.0020
20
-146.5176
10
198.6386
20
-150.5537
10
186.6623
20
-153.9104
10
174.1884
20
-156.5552
10
161.3372
20
-158.4628
10
148.2323
20
-159.6148
10
135.0000
20
-160.0000
10
121.7677
20
-159.6148
10
108.6628
20
-158.4628
10
95.8116
20
-156.5552
10
83.3377
20
-153.9104
10
71.3614
20
-150.5537
10
59.9980
20
-146.5176
10
49.3569
20
-141.8408
10
39.5406
20
-136.5685
10
30.6436
20
-130.7515
10
22.7516
20
-124.4456
10
15.9406
20
-117.7117
10
10.2763
20
-110.6147
10
5.8131
20
-103.2228
10
2.5940
20
-95.6072
10
0.6501
20
-87.8414
10
0.0000
20
-80.0000
10
0.6501
20
-72.1586
10
2.5940
20
-64.3928
10
5.8131
20
-56.7772
10
10.2763
20
-49.3853
10
15.9406
20
-42.2883
10
22.7516
20
-35.5544
10
30.6436
20
-29.2485
10
39.5406
20
-23.4315
10
49.3569
20
-18.1592
10
59.9980
20
-13.4824
10
71.3614
20
-9.4463
10
83.3377
20
-6.0896
10
95.8116
20
-3.4448
10
108.6628
20
-1.5372
10
121.7677
20
-0.3852
10
135.0000
20
0.0000
10
148.2323
20
-0.3852
10
161.3372
20
-1.5372
10
174.1884
20
-3.4448
10
186.6623
20
-6.0896
10
198.6386
20
-9.4463
10
210.0020
20
-13.4824
10
220.6431
20
-18.1592
10
230.4594
20
-23.4315
10
239.3564
20
-29.2485
10
247.2484
20
-35.5544
10
254.0594
20
-42.2883
10
259.7237
20
-49.3853
10
264.1869
20
-56.7772
10
267.4060
20
-64.3928
10
269.3499
20
-72.1586
0
LWPOLYLINE
100
AcDbEntity
8
TAGLIO_STUDIO
100
AcDbPolyline
90
64
70
1
10
277.0240
20
-80.0000
10
276.2789
20
-88.9880
10
274.0648
20
-97.8331
10
270.4390
20
-106.4109
10
265.4799
20
-114.6241
10
259.2736
20
-122.4001
10
251.9069
20
-129.6835
10
243.4658
20
-136.4281
10
234.0375
20
-142.5925
10
223.7122
20
-148.1382
10
212.5851
20
-153.0285
10
200.7570
20
-157.2297
10
188.3345
20
-160.7114
10
175.4295
20
-163.4477
10
162.1583
20
-165.4176
10
148.6410
20
-166.6058
10
135.0000
20
-167.0030
10
121.3590
20
-166.6058
10
107.8417
20
-165.4176
10
94.5705
20
-163.4477
10
81.6655
20
-160.7114
10
69.2430
20
-157.2297
10
57.4149
20
-153.0285
10
46.2878
20
-148.1382
10
35.9625
20
-142.5925
10
26.5342
20
-136.4281
10
18.0931
20
-129.6835
10
10.7264
20
-122.4001
10
4.5201
20
-114.6241
10
-0.4390
20
-106.4109
10
-4.0648
20
-97.8331
10
-6.2789
20
-88.9880
10
-7.0240
20
-80.0000
10
-6.2789
20
-71.0120
10
-4.0648
20
-62.1669
10
-0.4390
20
-53.5891
10
4.5201
20
-45.3759
10
10.7264
20
-37.5999
10
18.0931
20
-30.3165
10
26.5342
20
-23.5719
10
35.9625
20
-17.4075
10
46.2878
20
-11.8618
10
57.4149
20
-6.9715
10
69.2430
20
-2.7703
10
81.6655
20
0.7114
10
94.5705
20
3.4477
10
107.8417
20
5.4176
10
121.3590
20
6.6058
10
135.0000
20
7.0030
10
148.6410
20
6.6058
10
162.1583
20
5.4176
10
175.4295
20
3.4477
10
188.3345
20
0.7114
10
200.7570
20
-2.7703
10
212.5851
20
-6.9715
10
223.7122
20
-11.8618
10
234.0375
20
-17.4075
10
243.4658
20
-23.5719
10
251.9069
20
-30.3165
10
259.2736
20
-37.5999
10
265.4799
20
-45.3759
10
270.4390
20
-53.5891
10
274.0648
20
-62.1669
10
276.2789
20
-71.0120
0
LWPOLYLINE
100
AcDbEntity
8
CUCITURA
100
AcDbPolyline
90
64
70
1
10
600.0000
20
-80.0000
10
599.3499
20
-87.8414
10
597.4060
20
-95.6072
10
594.1869
20
-103.2228
10
589.7237
20
-110.6147
10
584.0594
20
-117.7117
10
577.2484
20
-124.4456
10
569.3564
20
-130.7515
10
560.4594
20
-136.5685
10
550.6431
20
-141.8408
10
540.0020
20
-146.5176
10
528.6386
20
-150.5537
10
516.6623
20
-153.9104
10
504.1884
20
-156.5552
10
491.3372
20
-158.4628
10
478.2323
20
-159.6148
10
465.0000
20
-160.0000
10
451.7677
20
-159.6148
10
438.6628
20
-158.4628
10
425.8116
20
-156.5552
10
413.3377
20
-153.9104
10
401.3614
20
-150.5537
10
389.9980
20
-146.5176
10
379.3569
20
-141.8408
10
369.5406
20
-136.5685
10
360.6436
20
-130.7515
10
352.7516
20
-124.4456
10
345.9406
20
-117.7117
10
340.2763
20
-110.6147
10
335.8131
20
-103.2228
10
332.5940
20
-95.6072
10
330.6501
20
-87.8414
10
330.0000
20
-80.0000
10
330.6501
20
-72.1586
10
332.5940
20
-64.3928
10
335.8131
20
-56.7772
10
340.2763
20
-49.3853
10
345.9406
20
-42.2883
10
352.7516
20
-35.5544
10
360.6436
20
-29.2485
10
369.5406
20
-23.4315
10
379.3569
20
-18.1592
10
389.9980
20
-13.4824
10
401.3614
20
-9.4463
10
413.3377
20
-6.0896
10
425.8116
20
-3.4448
10
438.6628
20
-1.5372
10
451.7677
20
-0.3852
10
465.0000
20
0.0000
10
478.2323
20
-0.3852
10
491.3372
20
-1.5372
10
504.1884
20
-3.4448
10
516.6623
20
-6.0896
10
528.6386
20
-9.4463
10
540.0020
20
-13.4824
10
550.6431
20
-18.1592
10
560.4594
20
-23.4315
10
569.3564
20
-29.2485
10
577.2484
20
-35.5544
10
584.0594
20
-42.2883
10
589.7237
20
-49.3853
10
594.1869
20
-56.7772
10
597.4060
20
-64.3928
10
599.3499
20
-72.1586
0
LWPOLYLINE
100
AcDbEntity
8
TAGLIO_STUDIO
100
AcDbPolyline
90
64
70
1
10
607.0240
20
-80.0000
10
606.2789
20
-88.9880
10
604.0648
20
-97.8331
10
600.4390
20
-106.4109
10
595.4799
20
-114.6241
10
589.2736
20
-122.4001
10
581.9069
20
-129.6835
10
573.4658
20
-136.4281
10
564.0375
20
-142.5925
10
553.7122
20
-148.1382
10
542.5851
20
-153.0285
10
530.7570
20
-157.2297
10
518.3345
20
-160.7114
10
505.4295
20
-163.4477
10
492.1583
20
-165.4176
10
478.6410
20
-166.6058
10
465.0000
20
-167.0030
10
451.3590
20
-166.6058
10
437.8417
20
-165.4176
10
424.5705
20
-163.4477
10
411.6655
20
-160.7114
10
399.2430
20
-157.2297
10
387.4149
20
-153.0285
10
376.2878
20
-148.1382
10
365.9625
20
-142.5925
10
356.5342
20
-136.4281
10
348.0931
20
-129.6835
10
340.7264
20
-122.4001
10
334.5201
20
-114.6241
10
329.5610
20
-106.4109
10
325.9352
20
-97.8331
10
323.7211
20
-88.9880
10
322.9760
20
-80.0000
10
323.7211
20
-71.0120
10
325.9352
20
-62.1669
10
329.5610
20
-53.5891
10
334.5201
20
-45.3759
10
340.7264
20
-37.5999
10
348.0931
20
-30.3165
10
356.5342
20
-23.5719
10
365.9625
20
-17.4075
10
376.2878
20
-11.8618
10
387.4149
20
-6.9715
10
399.2430
20
-2.7703
10
411.6655
20
0.7114
10
424.5705
20
3.4477
10
437.8417
20
5.4176
10
451.3590
20
6.6058
10
465.0000
20
7.0030
10
478.6410
20
6.6058
10
492.1583
20
5.4176
10
505.4295
20
3.4477
10
518.3345
20
0.7114
10
530.7570
20
-2.7703
10
542.5851
20
-6.9715
10
553.7122
20
-11.8618
10
564.0375
20
-17.4075
10
573.4658
20
-23.5719
10
581.9069
20
-30.3165
10
589.2736
20
-37.5999
10
595.4799
20
-45.3759
10
600.4390
20
-53.5891
10
604.0648
20
-62.1669
10
606.2789
20
-71.0120
0
LWPOLYLINE
100
AcDbEntity
8
CUCITURA
100
AcDbPolyline
90
4
70
1
10
0.0000
20
-220.0000
10
686.2631
20
-220.0000
10
686.2631
20
-280.0000
10
0.0000
20
-280.0000
0
LWPOLYLINE
100
AcDbEntity
8
TAGLIO_STUDIO
100
AcDbPolyline
90
4
70
1
10
-7.0000
20
-213.0000
10
693.2631
20
-213.0000
10
693.2631
20
-287.0000
10
-7.0000
20
-287.0000
0
ENDSEC
0
EOF
