0
SECTION
2
HEADER
9
$INSUNITS
70
4
0
ENDSEC
0
SECTION
2
ENTITIES
0
LWPOLYLINE
100
AcDbEntity
8
CUCITURA
100
AcDbPolyline
90
40
70
1
10
0.0000
20
0.0000
10
290.0000
20
0.0000
10
289.5298
20
-19.3120
10
288.1223
20
-38.4987
10
285.7866
20
-57.4358
10
282.5378
20
-76.0003
10
278.3970
20
-94.0720
10
273.3911
20
-111.5336
10
267.5526
20
-128.2718
10
260.9192
20
-144.1781
10
253.5341
20
-159.1494
10
245.4450
20
-173.0886
10
236.7046
20
-185.9052
10
227.3694
20
-197.5161
10
217.5000
20
-207.8461
10
207.1604
20
-216.8281
10
196.4177
20
-224.4039
10
185.3415
20
-230.5243
10
174.0037
20
-235.1498
10
162.4778
20
-238.2501
10
150.8386
20
-239.8054
10
139.1614
20
-239.8054
10
127.5222
20
-238.2501
10
115.9963
20
-235.1498
10
104.6585
20
-230.5243
10
93.5823
20
-224.4039
10
82.8396
20
-216.8281
10
72.5000
20
-207.8461
10
62.6306
20
-197.5161
10
53.2954
20
-185.9052
10
44.5550
20
-173.0886
10
36.4659
20
-159.1494
10
29.0808
20
-144.1781
10
22.4474
20
-128.2718
10
16.6089
20
-111.5336
10
11.6030
20
-94.0720
10
7.4622
20
-76.0003
10
4.2134
20
-57.4358
10
1.8777
20
-38.4987
10
0.4702
20
-19.3120
0
LWPOLYLINE
100
AcDbEntity
8
TAGLIO_STUDIO
100
AcDbPolyline
90
40
70
1
10
-7.1725
20
7.0000
10
297.1725
20
7.0000
10
296.5236
20
-19.6534
10
295.0909
20
-39.1836
10
292.7123
20
-58.4682
10
289.4016
20
-77.3863
10
285.1780
20
-95.8195
10
280.0656
20
-113.6525
10
274.0934
20
-130.7739
10
267.2948
20
-147.0765
10
259.7072
20
-162.4583
10
251.3717
20
-176.8222
10
242.3326
20
-190.0767
10
232.6374
20
-202.1354
10
222.3364
20
-212.9171
10
211.4839
20
-222.3447
10
200.1387
20
-230.3454
10
188.3668
20
-236.8503
10
176.2436
20
-241.7961
10
163.8563
20
-245.1281
10
151.3042
20
-246.8054
10
138.6958
20
-246.8054
10
126.1437
20
-245.1281
10
113.7564
20
-241.7961
10
101.6332
20
-236.8503
10
89.8613
20
-230.3454
10
78.5161
20
-222.3447
10
67.6636
20
-212.9171
10
57.3626
20
-202.1354
10
47.6674
20
-190.0767
10
38.6283
20
-176.8222
10
30.2928
20
-162.4583
10
22.7052
20
-147.0765
10
15.9066
20
-130.7739
10
9.9344
20
-113.6525
10
4.8220
20
-95.8195
10
0.5984
20
-77.3863
10
-2.7123
20
-58.4682
10
-5.0909
20
-39.1836
10
-6.5236
20
-19.6534
0
LWPOLYLINE
100
AcDbEntity
8
CUCITURA
100
AcDbPolyline
90
40
70
1
10
350.0000
20
0.0000
10
640.0000
20
0.0000
10
639.5298
20
-19.3120
10
638.1223
20
-38.4987
10
635.7866
20
-57.4358
10
632.5378
20
-76.0003
10
628.3970
20
-94.0720
10
623.3911
20
-111.5336
10
617.5526
20
-128.2718
10
610.9192
20
-144.1781
10
603.5341
20
-159.1494
10
595.4450
20
-173.0886
10
586.7046
20
-185.9052
10
577.3694
20
-197.5161
10
567.5000
20
-207.8461
10
557.1604
20
-216.8281
10
546.4177
20
-224.4039
10
535.3415
20
-230.5243
10
524.0037
20
-235.1498
10
512.4778
20
-238.2501
10
500.8386
20
-239.8054
10
489.1614
20
-239.8054
10
477.5222
20
-238.2501
10
465.9963
20
-235.1498
10
454.6585
20
-230.5243
10
443.5823
20
-224.4039
10
432.8396
20
-216.8281
10
422.5000
20
-207.8461
10
412.6306
20
-197.5161
10
403.2954
20
-185.9052
10
394.5550
20
-173.0886
10
386.4659
20
-159.1494
10
379.0808
20
-144.1781
10
372.4474
20
-128.2718
10
366.6089
20
-111.5336
10
361.6030
20
-94.0720
10
357.4622
20
-76.0003
10
354.2134
20
-57.4358
10
351.8777
20
-38.4987
10
350.4702
20
-19.3120
0
LWPOLYLINE
100
AcDbEntity
8
TAGLIO_STUDIO
100
AcDbPolyline
90
40
70
1
10
342.8275
20
7.0000
10
647.1725
20
7.0000
10
646.5236
20
-19.6534
10
645.0909
20
-39.1836
10
642.7123
20
-58.4682
10
639.4016
20
-77.3863
10
635.1780
20
-95.8195
10
630.0656
20
-113.6525
10
624.0934
20
-130.7739
10
617.2948
20
-147.0765
10
609.7072
20
-162.4583
10
601.3717
20
-176.8222
10
592.3326
20
-190.0767
10
582.6374
20
-202.1354
10
572.3364
20
-212.9171
10
561.4839
20
-222.3447
10
550.1387
20
-230.3454
10
538.3668
20
-236.8503
10
526.2436
20
-241.7961
10
513.8563
20
-245.1281
10
501.3042
20
-246.8054
10
488.6958
20
-246.8054
10
476.1437
20
-245.1281
10
463.7564
20
-241.7961
10
451.6332
20
-236.8503
10
439.8613
20
-230.3454
10
428.5161
20
-222.3447
10
417.6636
20
-212.9171
10
407.3626
20
-202.1354
10
397.6674
20
-190.0767
10
388.6283
20
-176.8222
10
380.2928
20
-162.4583
10
372.7052
20
-147.0765
10
365.9066
20
-130.7739
10
359.9344
20
-113.6525
10
354.8220
20
-95.8195
10
350.5984
20
-77.3863
10
347.2877
20
-58.4682
10
344.9091
20
-39.1836
10
343.4764
20
-19.6534
0
LWPOLYLINE
100
AcDbEntity
8
CUCITURA
100
AcDbPolyline
90
4
70
1
10
0.0000
20
-300.0000
10
903.8316
20
-300.0000
10
903.8316
20
-390.0000
10
0.0000
20
-390.0000
0
LWPOLYLINE
100
AcDbEntity
8
TAGLIO_STUDIO
100
AcDbPolyline
90
4
70
1
10
-7.0000
20
-293.0000
10
910.8316
20
-293.0000
10
910.8316
20
-397.0000
10
-7.0000
20
-397.0000
0
ENDSEC
0
EOF
