0
SECTION
2
HEADER
9
$INSUNITS
70
4
0
ENDSEC
0
SECTION
2
ENTITIES
0
LWPOLYLINE
100
AcDbEntity
8
CUCITURA
100
AcDbPolyline
90
4
70
1
10
35.1000
20
0.0000
10
234.9000
20
0.0000
10
270.0000
20
-210.0000
10
0.0000
20
-210.0000
0
LWPOLYLINE
100
AcDbEntity
8
TAGLIO_STUDIO
100
AcDbPolyline
90
4
70
1
10
29.1729
20
7.0000
10
240.8271
20
7.0000
10
278.2671
20
-217.0000
10
-8.2671
20
-217.0000
0
LWPOLYLINE
100
AcDbEntity
8
CUCITURA
100
AcDbPolyline
90
4
70
1
10
365.1000
20
0.0000
10
564.9000
20
0.0000
10
600.0000
20
-210.0000
10
330.0000
20
-210.0000
0
LWPOLYLINE
100
AcDbEntity
8
TAGLIO_STUDIO
100
AcDbPolyline
90
4
70
1
10
359.1729
20
7.0000
10
570.8271
20
7.0000
10
608.2671
20
-217.0000
10
321.7329
20
-217.0000
0
LWPOLYLINE
100
AcDbEntity
8
CUCITURA
100
AcDbPolyline
90
4
70
1
10
0.0000
20
-270.0000
10
895.6263
20
-270.0000
10
895.6263
20
-370.0000
10
0.0000
20
-370.0000
0
LWPOLYLINE
100
AcDbEntity
8
TAGLIO_STUDIO
100
AcDbPolyline
90
4
70
1
10
-7.0000
20
-263.0000
10
902.6263
20
-263.0000
10
902.6263
20
-377.0000
10
-7.0000
20
-377.0000
0
ENDSEC
0
EOF
