0
SECTION
2
HEADER
9
$INSUNITS
70
4
0
ENDSEC
0
SECTION
2
ENTITIES
0
LWPOLYLINE
100
AcDbEntity
8
CUCITURA
100
AcDbPolyline
90
4
70
1
10
37.7000
20
0.0000
10
252.3000
20
0.0000
10
290.0000
20
-200.0000
10
0.0000
20
-200.0000
0
LWPOLYLINE
100
AcDbEntity
8
TAGLIO_STUDIO
100
AcDbPolyline
90
4
70
1
10
31.8962
20
7.0000
10
258.1038
20
7.0000
10
298.4428
20
-207.0000
10
-8.4428
20
-207.0000
0
LWPOLYLINE
100
AcDbEntity
8
CUCITURA
100
AcDbPolyline
90
4
70
1
10
387.7000
20
0.0000
10
602.3000
20
0.0000
10
640.0000
20
-200.0000
10
350.0000
20
-200.0000
0
LWPOLYLINE
100
AcDbEntity
8
TAGLIO_STUDIO
100
AcDbPolyline
90
4
70
1
10
381.8962
20
7.0000
10
608.1038
20
7.0000
10
648.4428
20
-207.0000
10
341.5572
20
-207.0000
0
LWPOLYLINE
100
AcDbEntity
8
CUCITURA
100
AcDbPolyline
90
4
70
1
10
0.0000
20
-260.0000
10
911.6444
20
-260.0000
10
911.6444
20
-390.0000
10
0.0000
20
-390.0000
0
LWPOLYLINE
100
AcDbEntity
8
TAGLIO_STUDIO
100
AcDbPolyline
90
4
70
1
10
-7.0000
20
-253.0000
10
918.6444
20
-253.0000
10
918.6444
20
-397.0000
10
-7.0000
20
-397.0000
0
ENDSEC
0
EOF
