0
SECTION
2
HEADER
9
$INSUNITS
70
4
0
ENDSEC
0
SECTION
2
ENTITIES
0
LWPOLYLINE
100
AcDbEntity
8
CUCITURA
100
AcDbPolyline
90
4
70
1
10
0.0000
20
0.0000
10
240.0000
20
0.0000
10
240.0000
20
-270.0000
10
0.0000
20
-270.0000
0
LWPOLYLINE
100
AcDbEntity
8
TAGLIO_STUDIO
100
AcDbPolyline
90
4
70
1
10
-7.0000
20
7.0000
10
247.0000
20
7.0000
10
247.0000
20
-277.0000
10
-7.0000
20
-277.0000
0
LWPOLYLINE
100
AcDbEntity
8
CUCITURA
100
AcDbPolyline
90
4
70
1
10
300.0000
20
0.0000
10
540.0000
20
0.0000
10
540.0000
20
-270.0000
10
300.0000
20
-270.0000
0
LWPOLYLINE
100
AcDbEntity
8
TAGLIO_STUDIO
100
AcDbPolyline
90
4
70
1
10
293.0000
20
7.0000
10
547.0000
20
7.0000
10
547.0000
20
-277.0000
10
293.0000
20
-277.0000
0
LWPOLYLINE
100
AcDbEntity
8
CUCITURA
100
AcDbPolyline
90
4
70
1
10
0.0000
20
-330.0000
10
1020.0000
20
-330.0000
10
1020.0000
20
-460.0000
10
0.0000
20
-460.0000
0
LWPOLYLINE
100
AcDbEntity
8
TAGLIO_STUDIO
100
AcDbPolyline
90
4
70
1
10
-7.0000
20
-323.0000
10
1027.0000
20
-323.0000
10
1027.0000
20
-467.0000
10
-7.0000
20
-467.0000
0
ENDSEC
0
EOF
