0
SECTION
2
HEADER
9
$INSUNITS
70
4
0
ENDSEC
0
SECTION
2
ENTITIES
0
LWPOLYLINE
100
AcDbEntity
8
CUCITURA
100
AcDbPolyline
90
4
70
1
10
0.0000
20
0.0000
10
200.0000
20
0.0000
10
200.0000
20
-140.0000
10
0.0000
20
-140.0000
0
LWPOLYLINE
100
AcDbEntity
8
TAGLIO_STUDIO
100
AcDbPolyline
90
4
70
1
10
-7.0000
20
7.0000
10
207.0000
20
7.0000
10
207.0000
20
-147.0000
10
-7.0000
20
-147.0000
0
LWPOLYLINE
100
AcDbEntity
8
CUCITURA
100
AcDbPolyline
90
4
70
1
10
260.0000
20
0.0000
10
460.0000
20
0.0000
10
460.0000
20
-140.0000
10
260.0000
20
-140.0000
0
LWPOLYLINE
100
AcDbEntity
8
TAGLIO_STUDIO
100
AcDbPolyline
90
4
70
1
10
253.0000
20
7.0000
10
467.0000
20
7.0000
10
467.0000
20
-147.0000
10
253.0000
20
-147.0000
0
LWPOLYLINE
100
AcDbEntity
8
CUCITURA
100
AcDbPolyline
90
4
70
1
10
0.0000
20
-200.0000
10
680.0000
20
-200.0000
10
680.0000
20
-270.0000
10
0.0000
20
-270.0000
0
LWPOLYLINE
100
AcDbEntity
8
TAGLIO_STUDIO
100
AcDbPolyline
90
4
70
1
10
-7.0000
20
-193.0000
10
687.0000
20
-193.0000
10
687.0000
20
-277.0000
10
-7.0000
20
-277.0000
0
ENDSEC
0
EOF
