0
SECTION
2
HEADER
9
$INSUNITS
70
4
0
ENDSEC
0
SECTION
2
ENTITIES
0
LWPOLYLINE
100
AcDbEntity
8
CUCITURA
100
AcDbPolyline
90
32
70
1
10
0.0000
20
0.0000
10
220.0000
20
0.0000
10
220.0000
20
-76.5000
10
219.3552
20
-86.6091
10
217.4283
20
-96.5997
10
214.2418
20
-106.3547
10
209.8333
20
-115.7596
10
204.2543
20
-124.7043
10
197.5702
20
-133.0838
10
189.8595
20
-140.7999
10
181.2125
20
-147.7622
10
171.7306
20
-153.8889
10
161.5249
20
-159.1084
10
150.7152
20
-163.3593
10
139.4281
20
-166.5919
10
127.7960
20
-168.7683
10
115.9553
20
-169.8629
10
104.0447
20
-169.8629
10
92.2040
20
-168.7683
10
80.5719
20
-166.5919
10
69.2848
20
-163.3593
10
58.4751
20
-159.1084
10
48.2694
20
-153.8889
10
38.7875
20
-147.7622
10
30.1405
20
-140.7999
10
22.4298
20
-133.0838
10
15.7457
20
-124.7043
10
10.1667
20
-115.7596
10
5.7582
20
-106.3547
10
2.5717
20
-96.5997
10
0.6448
20
-86.6091
10
0.0000
20
-76.5000
0
LWPOLYLINE
100
AcDbEntity
8
TAGLIO_STUDIO
100
AcDbPolyline
90
32
70
1
10
-7.0000
20
7.0000
10
227.0000
20
7.0000
10
227.0000
20
-76.7230
10
226.3127
20
-87.4983
10
224.2185
20
-98.3562
10
220.7624
20
-108.9367
10
215.9940
20
-119.1093
10
209.9793
20
-128.7526
10
202.7984
20
-137.7549
10
194.5439
20
-146.0152
10
185.3181
20
-153.4434
10
175.2327
20
-159.9602
10
164.4064
20
-165.4970
10
152.9649
20
-169.9964
10
141.0390
20
-173.4120
10
128.7640
20
-175.7086
10
116.2781
20
-176.8629
10
103.7219
20
-176.8629
10
91.2360
20
-175.7086
10
78.9610
20
-173.4120
10
67.0351
20
-169.9964
10
55.5936
20
-165.4970
10
44.7673
20
-159.9602
10
34.6819
20
-153.4434
10
25.4561
20
-146.0152
10
17.2016
20
-137.7549
10
10.0207
20
-128.7526
10
4.0060
20
-119.1093
10
-0.7624
20
-108.9367
10
-4.2185
20
-98.3562
10
-6.3127
20
-87.4983
10
-7.0000
20
-76.7230
0
LWPOLYLINE
100
AcDbEntity
8
CUCITURA
100
AcDbPolyline
90
32
70
1
10
280.0000
20
0.0000
10
500.0000
20
0.0000
10
500.0000
20
-76.5000
10
499.3552
20
-86.6091
10
497.4283
20
-96.5997
10
494.2418
20
-106.3547
10
489.8333
20
-115.7596
10
484.2543
20
-124.7043
10
477.5702
20
-133.0838
10
469.8595
20
-140.7999
10
461.2125
20
-147.7622
10
451.7306
20
-153.8889
10
441.5249
20
-159.1084
10
430.7152
20
-163.3593
10
419.4281
20
-166.5919
10
407.7960
20
-168.7683
10
395.9553
20
-169.8629
10
384.0447
20
-169.8629
10
372.2040
20
-168.7683
10
360.5719
20
-166.5919
10
349.2848
20
-163.3593
10
338.4751
20
-159.1084
10
328.2694
20
-153.8889
10
318.7875
20
-147.7622
10
310.1405
20
-140.7999
10
302.4298
20
-133.0838
10
295.7457
20
-124.7043
10
290.1667
20
-115.7596
10
285.7582
20
-106.3547
10
282.5717
20
-96.5997
10
280.6448
20
-86.6091
10
280.0000
20
-76.5000
0
LWPOLYLINE
100
AcDbEntity
8
TAGLIO_STUDIO
100
AcDbPolyline
90
32
70
1
10
273.0000
20
7.0000
10
507.0000
20
7.0000
10
507.0000
20
-76.7230
10
506.3127
20
-87.4983
10
504.2185
20
-98.3562
10
500.7624
20
-108.9367
10
495.9940
20
-119.1093
10
489.9793
20
-128.7526
10
482.7984
20
-137.7549
10
474.5439
20
-146.0152
10
465.3181
20
-153.4434
10
455.2327
20
-159.9602
10
444.4064
20
-165.4970
10
432.9649
20
-169.9964
10
421.0390
20
-173.4120
10
408.7640
20
-175.7086
10
396.2781
20
-176.8629
10
383.7219
20
-176.8629
10
371.2360
20
-175.7086
10
358.9610
20
-173.4120
10
347.0351
20
-169.9964
10
335.5936
20
-165.4970
10
324.7673
20
-159.9602
10
314.6819
20
-153.4434
10
305.4561
20
-146.0152
10
297.2016
20
-137.7549
10
290.0207
20
-128.7526
10
284.0060
20
-119.1093
10
279.2376
20
-108.9367
10
275.7815
20
-98.3562
10
273.6873
20
-87.4983
10
273.0000
20
-76.7230
0
LWPOLYLINE
100
AcDbEntity
8
CUCITURA
100
AcDbPolyline
90
4
70
1
10
0.0000
20
-230.0000
10
693.0261
20
-230.0000
10
693.0261
20
-290.0000
10
0.0000
20
-290.0000
0
LWPOLYLINE
100
AcDbEntity
8
TAGLIO_STUDIO
100
AcDbPolyline
90
4
70
1
10
-7.0000
20
-223.0000
10
700.0261
20
-223.0000
10
700.0261
20
-297.0000
10
-7.0000
20
-297.0000
0
ENDSEC
0
EOF
