0
SECTION
2
HEADER
9
$INSUNITS
70
4
0
ENDSEC
0
SECTION
2
ENTITIES
0
LWPOLYLINE
100
AcDbEntity
8
CUCITURA
100
AcDbPolyline
90
6
70
1
10
7.2000
20
0.0000
10
232.8000
20
0.0000
10
240.0000
20
-205.8000
10
235.2000
20
-210.0000
10
4.8000
20
-210.0000
10
0.0000
20
-205.8000
0
LWPOLYLINE
100
AcDbEntity
8
TAGLIO_STUDIO
100
AcDbPolyline
90
6
70
1
10
0.4406
20
7.0000
10
239.5594
20
7.0000
10
247.1120
20
-208.8784
10
237.8301
20
-217.0000
10
2.1699
20
-217.0000
10
-7.1120
20
-208.8784
0
LWPOLYLINE
100
AcDbEntity
8
CUCITURA
100
AcDbPolyline
90
6
70
1
10
307.2000
20
0.0000
10
532.8000
20
0.0000
10
540.0000
20
-205.8000
10
535.2000
20
-210.0000
10
304.8000
20
-210.0000
10
300.0000
20
-205.8000
0
LWPOLYLINE
100
AcDbEntity
8
TAGLIO_STUDIO
100
AcDbPolyline
90
6
70
1
10
300.4406
20
7.0000
10
539.5594
20
7.0000
10
547.1120
20
-208.8784
10
537.8301
20
-217.0000
10
302.1699
20
-217.0000
10
292.8880
20
-208.8784
0
LWPOLYLINE
100
AcDbEntity
8
CUCITURA
100
AcDbPolyline
90
4
70
1
10
0.0000
20
-270.0000
10
880.6080
20
-270.0000
10
880.6080
20
-390.0000
10
0.0000
20
-390.0000
0
LWPOLYLINE
100
AcDbEntity
8
TAGLIO_STUDIO
100
AcDbPolyline
90
4
70
1
10
-7.0000
20
-263.0000
10
887.6080
20
-263.0000
10
887.6080
20
-397.0000
10
-7.0000
20
-397.0000
0
ENDSEC
0
EOF
