<svg xmlns="http://www.w3.org/2000/svg" width="1280.00mm" height="625.00mm" viewBox="0 0 1280 625"><defs><marker id="arrow" markerWidth="6" markerHeight="6" refX="3" refY="3" orient="auto"><path d="M0,0L6,3 0,6Z" fill="#4b7976"/></marker></defs><rect width="100%" height="100%" fill="white"/><g font-family="Arial,sans-serif"><text x="40" y="20" font-size="11" fill="#263a3c">FORME / Dior · Bobby</text><text x="40" y="33" font-size="7" fill="#263a3c">RICOSTRUZIONE GEOMETRICA DIDATTICA — non cartamodello originale né replica di produzione.</text><text x="40" y="45" font-size="6" fill="#263a3c">Ingombro L × H × P: 22 × 17 × 6 cm · dati: ipotesi di studio · margine nominale 7 mm.</text><text x="40" y="56" font-size="5.5" fill="#263a3c">Contorno scuro: taglio approssimato; arancio: cucitura; verde: riferimenti. Provare prima in tela. Verificare margini nelle concavità.</text><text x="40" y="67" font-size="5.5" fill="#263a3c">La fascia misura il perimetro campionato dei pannelli. Rinforzi, fodera, spessori e chiusure di marca non sono ricostruiti.</text><rect x="1205" y="20" width="50" height="50" fill="none" stroke="#263a3c" stroke-width=".5"/><text x="1206" y="78" font-size="4" fill="#263a3c">CONTROLLO 50 × 50 mm</text><polygon points="40.00,100.00 274.00,100.00 274.00,183.72 273.31,194.50 271.22,205.36 267.76,215.94 262.99,226.11 256.98,235.75 249.80,244.75 241.54,253.02 232.32,260.44 222.23,266.96 211.41,272.50 199.96,277.00 188.04,280.41 175.76,282.71 163.28,283.86 150.72,283.86 138.24,282.71 125.96,280.41 114.04,277.00 102.59,272.50 91.77,266.96 81.68,260.44 72.46,253.02 64.20,244.75 57.02,235.75 51.01,226.11 46.24,215.94 42.78,205.36 40.69,194.50 40.00,183.72" fill="#f6efe2" stroke="#253a3c" stroke-width=".55"/><polygon points="47.00,107.00 267.00,107.00 267.00,183.50 266.36,193.61 264.43,203.60 261.24,213.35 256.83,222.76 251.25,231.70 244.57,240.08 236.86,247.80 228.21,254.76 218.73,260.89 208.52,266.11 197.72,270.36 186.43,273.59 174.80,275.77 162.96,276.86 151.04,276.86 139.20,275.77 127.57,273.59 116.28,270.36 105.48,266.11 95.27,260.89 85.79,254.76 77.14,247.80 69.43,240.08 62.75,231.70 57.17,222.76 52.76,213.35 49.57,203.60 47.64,193.61 47.00,183.50" fill="none" stroke="#b4603e" stroke-width=".5" stroke-dasharray="3 2"/><text x="47" y="295" font-size="6" fill="#263a3c">A · FRONTE — tagliare 1 + eventuale fodera</text><path d="M157,158v64.6" stroke="#4b7976" stroke-width=".6" marker-end="url(#arrow)"/><text x="162" y="192" font-size="4" fill="#263a3c">direzione materiale</text><circle cx="47" cy="107" r="1.2" fill="#b4603e"/><text x="49" y="105" font-size="3.6" fill="#263a3c">R0</text><circle cx="264.4282611281095" cy="203.59973615973075" r="1.2" fill="#b4603e"/><text x="266.4282611281095" y="201.59973615973075" font-size="3.6" fill="#263a3c">R4</text><circle cx="244.57023722762082" cy="240.08378912061704" r="1.2" fill="#b4603e"/><text x="246.57023722762082" y="238.08378912061704" font-size="3.6" fill="#263a3c">R8</text><circle cx="208.52492847697692" cy="266.1083761557031" r="1.2" fill="#b4603e"/><text x="210.52492847697692" y="264.1083761557031" font-size="3.6" fill="#263a3c">R12</text><circle cx="162.95527994439595" cy="276.86287419508005" r="1.2" fill="#b4603e"/><text x="164.95527994439595" y="274.86287419508005" font-size="3.6" fill="#263a3c">R16</text><circle cx="116.28480291260941" cy="270.35932330287005" r="1.2" fill="#b4603e"/><text x="118.28480291260941" y="268.35932330287005" font-size="3.6" fill="#263a3c">R20</text><circle cx="77.1404958884556" cy="247.79989940279506" r="1.2" fill="#b4603e"/><text x="79.1404958884556" y="245.79989940279506" font-size="3.6" fill="#263a3c">R24</text><circle cx="52.75815116989173" cy="213.3546930677141" r="1.2" fill="#b4603e"/><text x="54.75815116989173" y="211.3546930677141" font-size="3.6" fill="#263a3c">R28</text><polygon points="314.00,100.00 548.00,100.00 548.00,183.72 547.31,194.50 545.22,205.36 541.76,215.94 536.99,226.11 530.98,235.75 523.80,244.75 515.54,253.02 506.32,260.44 496.23,266.96 485.41,272.50 473.96,277.00 462.04,280.41 449.76,282.71 437.28,283.86 424.72,283.86 412.24,282.71 399.96,280.41 388.04,277.00 376.59,272.50 365.77,266.96 355.68,260.44 346.46,253.02 338.20,244.75 331.02,235.75 325.01,226.11 320.24,215.94 316.78,205.36 314.69,194.50 314.00,183.72" fill="#f6efe2" stroke="#253a3c" stroke-width=".55"/><polygon points="321.00,107.00 541.00,107.00 541.00,183.50 540.36,193.61 538.43,203.60 535.24,213.35 530.83,222.76 525.25,231.70 518.57,240.08 510.86,247.80 502.21,254.76 492.73,260.89 482.52,266.11 471.72,270.36 460.43,273.59 448.80,275.77 436.96,276.86 425.04,276.86 413.20,275.77 401.57,273.59 390.28,270.36 379.48,266.11 369.27,260.89 359.79,254.76 351.14,247.80 343.43,240.08 336.75,231.70 331.17,222.76 326.76,213.35 323.57,203.60 321.64,193.61 321.00,183.50" fill="none" stroke="#b4603e" stroke-width=".5" stroke-dasharray="3 2"/><text x="321" y="295" font-size="6" fill="#263a3c">B · RETRO — tagliare 1 + eventuale fodera</text><path d="M431,158v64.6" stroke="#4b7976" stroke-width=".6" marker-end="url(#arrow)"/><text x="436" y="192" font-size="4" fill="#263a3c">direzione materiale</text><circle cx="321" cy="107" r="1.2" fill="#b4603e"/><text x="323" y="105" font-size="3.6" fill="#263a3c">R0</text><circle cx="538.4282611281095" cy="203.59973615973075" r="1.2" fill="#b4603e"/><text x="540.4282611281095" y="201.59973615973075" font-size="3.6" fill="#263a3c">R4</text><circle cx="518.5702372276209" cy="240.08378912061704" r="1.2" fill="#b4603e"/><text x="520.5702372276209" y="238.08378912061704" font-size="3.6" fill="#263a3c">R8</text><circle cx="482.5249284769769" cy="266.1083761557031" r="1.2" fill="#b4603e"/><text x="484.5249284769769" y="264.1083761557031" font-size="3.6" fill="#263a3c">R12</text><circle cx="436.95527994439595" cy="276.86287419508005" r="1.2" fill="#b4603e"/><text x="438.95527994439595" y="274.86287419508005" font-size="3.6" fill="#263a3c">R16</text><circle cx="390.2848029126094" cy="270.35932330287005" r="1.2" fill="#b4603e"/><text x="392.2848029126094" y="268.35932330287005" font-size="3.6" fill="#263a3c">R20</text><circle cx="351.14049588845563" cy="247.79989940279506" r="1.2" fill="#b4603e"/><text x="353.14049588845563" y="245.79989940279506" font-size="3.6" fill="#263a3c">R24</text><circle cx="326.75815116989173" cy="213.3546930677141" r="1.2" fill="#b4603e"/><text x="328.75815116989173" y="211.3546930677141" font-size="3.6" fill="#263a3c">R28</text><rect x="40" y="327" width="707.0260959648629" height="74" fill="#edf3ee" stroke="#253a3c" stroke-width=".55"/><rect x="47" y="334" width="693.0260959648629" height="60" fill="none" stroke="#b4603e" stroke-width=".5" stroke-dasharray="3 2"/><path d="M47,334v60" stroke="#668c87" stroke-width=".3" stroke-dasharray="2 2"/><text x="49" y="339" font-size="3.5" fill="#263a3c">R0</text><path d="M363.80440849343813,334v60" stroke="#668c87" stroke-width=".3" stroke-dasharray="2 2"/><text x="365.80440849343813" y="339" font-size="3.5" fill="#263a3c">R4</text><path d="M405.714238193803,334v60" stroke="#668c87" stroke-width=".3" stroke-dasharray="2 2"/><text x="407.714238193803" y="339" font-size="3.5" fill="#263a3c">R8</text><path d="M450.4761917367338,334v60" stroke="#668c87" stroke-width=".3" stroke-dasharray="2 2"/><text x="452.4761917367338" y="339" font-size="3.5" fill="#263a3c">R12</text><path d="M497.55776803803553,334v60" stroke="#668c87" stroke-width=".3" stroke-dasharray="2 2"/><text x="499.55776803803553" y="339" font-size="3.5" fill="#263a3c">R16</text><path d="M544.934361005231,334v60" stroke="#668c87" stroke-width=".3" stroke-dasharray="2 2"/><text x="546.934361005231" y="339" font-size="3.5" fill="#263a3c">R20</text><path d="M590.4034315292004,334v60" stroke="#668c87" stroke-width=".3" stroke-dasharray="2 2"/><text x="592.4034315292004" y="339" font-size="3.5" fill="#263a3c">R24</text><path d="M632.9595040970416,334v60" stroke="#668c87" stroke-width=".3" stroke-dasharray="2 2"/><text x="634.9595040970416" y="339" font-size="3.5" fill="#263a3c">R28</text><path d="M67.79078287894589,364h158.4" stroke="#5f5b93" stroke-width="1.5"/><text x="40" y="414" font-size="6" fill="#263a3c">C · FASCIA CONTINUA — linea cucitura 693.0 × 60.0 mm; unire estremità corte. Tratto viola: apertura zip di studio.</text><rect x="40" y="433" width="1200" height="39" fill="#f7f2e7" stroke="#253a3c" stroke-width=".55"/><path d="M40,452.5h1200" stroke="#668c87" stroke-width=".4" stroke-dasharray="3 3"/><text x="40" y="484" font-size="6" fill="#263a3c">D · TRACOLLA OPZIONALE — lunghezza 1200 mm, larghezza finita 25 mm; adattare attacchi e rinforzi al prototipo.</text></g></svg>