0
SECTION
2
HEADER
9
$INSUNITS
70
4
0
ENDSEC
0
SECTION
2
ENTITIES
0
LWPOLYLINE
100
AcDbEntity
8
CUCITURA
100
AcDbPolyline
90
11
70
1
10
5.2000
20
0.0000
10
239.2000
20
0.0000
10
260.0000
20
-20.0000
10
249.6000
20
-110.0000
10
213.2000
20
-130.0000
10
197.6000
20
-188.0000
10
163.8000
20
-200.0000
10
109.2000
20
-198.0000
10
52.0000
20
-182.0000
10
18.2000
20
-156.0000
10
0.0000
20
-102.0000
0
LWPOLYLINE
100
AcDbEntity
8
TAGLIO_STUDIO
100
AcDbPolyline
90
11
70
1
10
-1.4522
20
7.0000
10
242.0194
20
7.0000
10
267.3519
20
-17.3581
10
256.1388
20
-114.3943
10
219.1850
20
-134.6986
10
203.4052
20
-193.3670
10
164.8810
20
-207.0443
10
108.1140
20
-204.9649
10
48.8076
20
-188.3757
10
12.2460
20
-160.2514
10
-7.0587
20
-102.9737
0
LWPOLYLINE
100
AcDbEntity
8
CUCITURA
100
AcDbPolyline
90
11
70
1
10
325.2000
20
0.0000
10
559.2000
20
0.0000
10
580.0000
20
-20.0000
10
569.6000
20
-110.0000
10
533.2000
20
-130.0000
10
517.6000
20
-188.0000
10
483.8000
20
-200.0000
10
429.2000
20
-198.0000
10
372.0000
20
-182.0000
10
338.2000
20
-156.0000
10
320.0000
20
-102.0000
0
LWPOLYLINE
100
AcDbEntity
8
TAGLIO_STUDIO
100
AcDbPolyline
90
11
70
1
10
318.5478
20
7.0000
10
562.0194
20
7.0000
10
587.3519
20
-17.3581
10
576.1388
20
-114.3943
10
539.1850
20
-134.6986
10
523.4052
20
-193.3670
10
484.8810
20
-207.0443
10
428.1140
20
-204.9649
10
368.8076
20
-188.3757
10
332.2460
20
-160.2514
10
312.9413
20
-102.9737
0
LWPOLYLINE
100
AcDbEntity
8
CUCITURA
100
AcDbPolyline
90
4
70
1
10
0.0000
20
-260.0000
10
806.7077
20
-260.0000
10
806.7077
20
-330.0000
10
0.0000
20
-330.0000
0
LWPOLYLINE
100
AcDbEntity
8
TAGLIO_STUDIO
100
AcDbPolyline
90
4
70
1
10
-7.0000
20
-253.0000
10
813.7077
20
-253.0000
10
813.7077
20
-337.0000
10
-7.0000
20
-337.0000
0
ENDSEC
0
EOF
