0
SECTION
2
HEADER
9
$INSUNITS
70
4
0
ENDSEC
0
SECTION
2
ENTITIES
0
LWPOLYLINE
100
AcDbEntity
8
CUCITURA
100
AcDbPolyline
90
30
70
1
10
0.0000
20
-400.0000
10
0.0000
20
-140.0000
10
1.0142
20
-123.7470
10
4.0433
20
-107.7138
10
9.0461
20
-92.1172
10
15.9551
20
-77.1681
10
24.6768
20
-63.0687
10
35.0933
20
-50.0097
10
47.0638
20
-38.1677
10
60.4262
20
-27.7028
10
75.0000
20
-18.7564
10
90.5880
20
-11.4497
10
106.9795
20
-5.8815
10
123.9528
20
-2.1269
10
141.2783
20
-0.2369
10
158.7217
20
-0.2369
10
176.0472
20
-2.1269
10
193.0205
20
-5.8815
10
209.4120
20
-11.4497
10
225.0000
20
-18.7564
10
239.5738
20
-27.7028
10
252.9362
20
-38.1677
10
264.9067
20
-50.0097
10
275.3232
20
-63.0687
10
284.0449
20
-77.1681
10
290.9539
20
-92.1172
10
295.9567
20
-107.7138
10
298.9858
20
-123.7470
10
300.0000
20
-140.0000
10
300.0000
20
-400.0000
0
LWPOLYLINE
100
AcDbEntity
8
TAGLIO_STUDIO
100
AcDbPolyline
90
30
70
1
10
-7.0000
20
-407.0000
10
-7.0000
20
-139.7818
10
-5.9450
20
-122.8759
10
-2.7546
20
-105.9884
10
2.5118
20
-89.5703
10
9.7789
20
-73.8464
10
18.9437
20
-59.0306
10
29.8777
20
-45.3229
10
42.4288
20
-32.9064
10
56.4242
20
-21.9458
10
71.6730
20
-12.5851
10
87.9687
20
-4.9467
10
105.0921
20
0.8702
10
122.8139
20
4.7904
10
140.8976
20
6.7631
10
159.1024
20
6.7631
10
177.1861
20
4.7904
10
194.9079
20
0.8702
10
212.0313
20
-4.9467
10
228.3270
20
-12.5851
10
243.5758
20
-21.9458
10
257.5712
20
-32.9064
10
270.1223
20
-45.3229
10
281.0563
20
-59.0306
10
290.2211
20
-73.8464
10
297.4882
20
-89.5703
10
302.7546
20
-105.9884
10
305.9450
20
-122.8759
10
307.0000
20
-139.7818
10
307.0000
20
-407.0000
0
LWPOLYLINE
100
AcDbEntity
8
CUCITURA
100
AcDbPolyline
90
30
70
1
10
360.0000
20
-400.0000
10
360.0000
20
-140.0000
10
361.0142
20
-123.7470
10
364.0433
20
-107.7138
10
369.0461
20
-92.1172
10
375.9551
20
-77.1681
10
384.6768
20
-63.0687
10
395.0933
20
-50.0097
10
407.0638
20
-38.1677
10
420.4262
20
-27.7028
10
435.0000
20
-18.7564
10
450.5880
20
-11.4497
10
466.9795
20
-5.8815
10
483.9528
20
-2.1269
10
501.2783
20
-0.2369
10
518.7217
20
-0.2369
10
536.0472
20
-2.1269
10
553.0205
20
-5.8815
10
569.4120
20
-11.4497
10
585.0000
20
-18.7564
10
599.5738
20
-27.7028
10
612.9362
20
-38.1677
10
624.9067
20
-50.0097
10
635.3232
20
-63.0687
10
644.0449
20
-77.1681
10
650.9539
20
-92.1172
10
655.9567
20
-107.7138
10
658.9858
20
-123.7470
10
660.0000
20
-140.0000
10
660.0000
20
-400.0000
0
LWPOLYLINE
100
AcDbEntity
8
TAGLIO_STUDIO
100
AcDbPolyline
90
30
70
1
10
353.0000
20
-407.0000
10
353.0000
20
-139.7818
10
354.0550
20
-122.8759
10
357.2454
20
-105.9884
10
362.5118
20
-89.5703
10
369.7789
20
-73.8464
10
378.9437
20
-59.0306
10
389.8777
20
-45.3229
10
402.4288
20
-32.9064
10
416.4242
20
-21.9458
10
431.6730
20
-12.5851
10
447.9687
20
-4.9467
10
465.0921
20
0.8702
10
482.8139
20
4.7904
10
500.8976
20
6.7631
10
519.1024
20
6.7631
10
537.1861
20
4.7904
10
554.9079
20
0.8702
10
572.0313
20
-4.9467
10
588.3270
20
-12.5851
10
603.5758
20
-21.9458
10
617.5712
20
-32.9064
10
630.1223
20
-45.3229
10
641.0563
20
-59.0306
10
650.2211
20
-73.8464
10
657.4882
20
-89.5703
10
662.7546
20
-105.9884
10
665.9450
20
-122.8759
10
667.0000
20
-139.7818
10
667.0000
20
-407.0000
0
LWPOLYLINE
100
AcDbEntity
8
CUCITURA
100
AcDbPolyline
90
4
70
1
10
0.0000
20
-460.0000
10
1275.4094
20
-460.0000
10
1275.4094
20
-640.0000
10
0.0000
20
-640.0000
0
LWPOLYLINE
100
AcDbEntity
8
TAGLIO_STUDIO
100
AcDbPolyline
90
4
70
1
10
-7.0000
20
-453.0000
10
1282.4094
20
-453.0000
10
1282.4094
20
-647.0000
10
-7.0000
20
-647.0000
0
ENDSEC
0
EOF
