0
SECTION
2
HEADER
9
$INSUNITS
70
4
0
ENDSEC
0
SECTION
2
ENTITIES
0
LWPOLYLINE
100
AcDbEntity
8
CUCITURA
100
AcDbPolyline
90
4
70
1
10
42.9000
20
0.0000
10
287.1000
20
0.0000
10
330.0000
20
-250.0000
10
0.0000
20
-250.0000
0
LWPOLYLINE
100
AcDbEntity
8
TAGLIO_STUDIO
100
AcDbPolyline
90
4
70
1
10
36.9989
20
7.0000
10
293.0011
20
7.0000
10
338.3035
20
-257.0000
10
-8.3035
20
-257.0000
0
LWPOLYLINE
100
AcDbEntity
8
CUCITURA
100
AcDbPolyline
90
4
70
1
10
432.9000
20
0.0000
10
677.1000
20
0.0000
10
720.0000
20
-250.0000
10
390.0000
20
-250.0000
0
LWPOLYLINE
100
AcDbEntity
8
TAGLIO_STUDIO
100
AcDbPolyline
90
4
70
1
10
426.9989
20
7.0000
10
683.0011
20
7.0000
10
728.3035
20
-257.0000
10
381.6965
20
-257.0000
0
LWPOLYLINE
100
AcDbEntity
8
CUCITURA
100
AcDbPolyline
90
4
70
1
10
0.0000
20
-310.0000
10
1081.5082
20
-310.0000
10
1081.5082
20
-430.0000
10
0.0000
20
-430.0000
0
LWPOLYLINE
100
AcDbEntity
8
TAGLIO_STUDIO
100
AcDbPolyline
90
4
70
1
10
-7.0000
20
-303.0000
10
1088.5082
20
-303.0000
10
1088.5082
20
-437.0000
10
-7.0000
20
-437.0000
0
ENDSEC
0
EOF
