0
SECTION
2
HEADER
9
$INSUNITS
70
4
0
ENDSEC
0
SECTION
2
ENTITIES
0
LWPOLYLINE
100
AcDbEntity
8
CUCITURA
100
AcDbPolyline
90
4
70
1
10
0.0000
20
0.0000
10
260.0000
20
0.0000
10
260.0000
20
-180.0000
10
0.0000
20
-180.0000
0
LWPOLYLINE
100
AcDbEntity
8
TAGLIO_STUDIO
100
AcDbPolyline
90
4
70
1
10
-7.0000
20
7.0000
10
267.0000
20
7.0000
10
267.0000
20
-187.0000
10
-7.0000
20
-187.0000
0
LWPOLYLINE
100
AcDbEntity
8
CUCITURA
100
AcDbPolyline
90
4
70
1
10
320.0000
20
0.0000
10
580.0000
20
0.0000
10
580.0000
20
-180.0000
10
320.0000
20
-180.0000
0
LWPOLYLINE
100
AcDbEntity
8
TAGLIO_STUDIO
100
AcDbPolyline
90
4
70
1
10
313.0000
20
7.0000
10
587.0000
20
7.0000
10
587.0000
20
-187.0000
10
313.0000
20
-187.0000
0
LWPOLYLINE
100
AcDbEntity
8
CUCITURA
100
AcDbPolyline
90
4
70
1
10
0.0000
20
-240.0000
10
880.0000
20
-240.0000
10
880.0000
20
-340.0000
10
0.0000
20
-340.0000
0
LWPOLYLINE
100
AcDbEntity
8
TAGLIO_STUDIO
100
AcDbPolyline
90
4
70
1
10
-7.0000
20
-233.0000
10
887.0000
20
-233.0000
10
887.0000
20
-347.0000
10
-7.0000
20
-347.0000
0
ENDSEC
0
EOF
