0
SECTION
2
HEADER
9
$INSUNITS
70
4
0
ENDSEC
0
SECTION
2
ENTITIES
0
LWPOLYLINE
100
AcDbEntity
8
CUCITURA
100
AcDbPolyline
90
4
70
1
10
0.0000
20
0.0000
10
350.0000
20
0.0000
10
350.0000
20
-310.0000
10
0.0000
20
-310.0000
0
LWPOLYLINE
100
AcDbEntity
8
TAGLIO_STUDIO
100
AcDbPolyline
90
4
70
1
10
-7.0000
20
7.0000
10
357.0000
20
7.0000
10
357.0000
20
-317.0000
10
-7.0000
20
-317.0000
0
LWPOLYLINE
100
AcDbEntity
8
CUCITURA
100
AcDbPolyline
90
4
70
1
10
410.0000
20
0.0000
10
760.0000
20
0.0000
10
760.0000
20
-310.0000
10
410.0000
20
-310.0000
0
LWPOLYLINE
100
AcDbEntity
8
TAGLIO_STUDIO
100
AcDbPolyline
90
4
70
1
10
403.0000
20
7.0000
10
767.0000
20
7.0000
10
767.0000
20
-317.0000
10
403.0000
20
-317.0000
0
LWPOLYLINE
100
AcDbEntity
8
CUCITURA
100
AcDbPolyline
90
4
70
1
10
0.0000
20
-370.0000
10
1320.0000
20
-370.0000
10
1320.0000
20
-540.0000
10
0.0000
20
-540.0000
0
LWPOLYLINE
100
AcDbEntity
8
TAGLIO_STUDIO
100
AcDbPolyline
90
4
70
1
10
-7.0000
20
-363.0000
10
1327.0000
20
-363.0000
10
1327.0000
20
-547.0000
10
-7.0000
20
-547.0000
0
ENDSEC
0
EOF
