0
SECTION
2
HEADER
9
$INSUNITS
70
4
0
ENDSEC
0
SECTION
2
ENTITIES
0
LWPOLYLINE
100
AcDbEntity
8
CUCITURA
100
AcDbPolyline
90
16
70
1
10
0.0000
20
-37.5000
10
24.0000
20
0.0000
10
64.0000
20
-15.0000
10
104.0000
20
-75.0000
10
160.0000
20
-100.0000
10
240.0000
20
-100.0000
10
296.0000
20
-75.0000
10
336.0000
20
-15.0000
10
376.0000
20
0.0000
10
400.0000
20
-37.5000
10
384.0000
20
-160.0000
10
336.0000
20
-215.0000
10
256.0000
20
-250.0000
10
144.0000
20
-250.0000
10
64.0000
20
-215.0000
10
16.0000
20
-160.0000
0
LWPOLYLINE
100
AcDbEntity
8
TAGLIO_STUDIO
100
AcDbPolyline
90
16
70
1
10
-7.2716
20
-35.8761
10
21.1563
20
8.5424
10
68.5719
20
-9.2385
10
108.7017
20
-69.4331
10
161.4916
20
-93.0000
10
238.5084
20
-93.0000
10
291.2983
20
-69.4331
10
331.4281
20
-9.2385
10
378.8437
20
8.5424
10
407.2716
20
-35.8761
10
390.6667
20
-163.0069
10
340.2427
20
-220.7844
10
257.4642
20
-257.0000
10
142.5358
20
-257.0000
10
59.7573
20
-220.7844
10
9.3333
20
-163.0069
0
LWPOLYLINE
100
AcDbEntity
8
CUCITURA
100
AcDbPolyline
90
16
70
1
10
460.0000
20
-37.5000
10
484.0000
20
0.0000
10
524.0000
20
-15.0000
10
564.0000
20
-75.0000
10
620.0000
20
-100.0000
10
700.0000
20
-100.0000
10
756.0000
20
-75.0000
10
796.0000
20
-15.0000
10
836.0000
20
0.0000
10
860.0000
20
-37.5000
10
844.0000
20
-160.0000
10
796.0000
20
-215.0000
10
716.0000
20
-250.0000
10
604.0000
20
-250.0000
10
524.0000
20
-215.0000
10
476.0000
20
-160.0000
0
LWPOLYLINE
100
AcDbEntity
8
TAGLIO_STUDIO
100
AcDbPolyline
90
16
70
1
10
452.7284
20
-35.8761
10
481.1563
20
8.5424
10
528.5719
20
-9.2385
10
568.7017
20
-69.4331
10
621.4916
20
-93.0000
10
698.5084
20
-93.0000
10
751.2983
20
-69.4331
10
791.4281
20
-9.2385
10
838.8437
20
8.5424
10
867.2716
20
-35.8761
10
850.6667
20
-163.0069
10
800.2427
20
-220.7844
10
717.4642
20
-257.0000
10
602.5358
20
-257.0000
10
519.7573
20
-220.7844
10
469.3333
20
-163.0069
0
LWPOLYLINE
100
AcDbEntity
8
CUCITURA
100
AcDbPolyline
90
4
70
1
10
0.0000
20
-310.0000
10
1201.0845
20
-310.0000
10
1201.0845
20
-480.0000
10
0.0000
20
-480.0000
0
LWPOLYLINE
100
AcDbEntity
8
TAGLIO_STUDIO
100
AcDbPolyline
90
4
70
1
10
-7.0000
20
-303.0000
10
1208.0845
20
-303.0000
10
1208.0845
20
-487.0000
10
-7.0000
20
-487.0000
0
ENDSEC
0
EOF
