0
SECTION
2
HEADER
9
$INSUNITS
70
4
0
ENDSEC
0
SECTION
2
ENTITIES
0
LWPOLYLINE
100
AcDbEntity
8
CUCITURA
100
AcDbPolyline
90
4
70
1
10
37.7000
20
0.0000
10
252.3000
20
0.0000
10
290.0000
20
-250.0000
10
0.0000
20
-250.0000
0
LWPOLYLINE
100
AcDbEntity
8
TAGLIO_STUDIO
100
AcDbPolyline
90
4
70
1
10
31.6765
20
7.0000
10
258.3235
20
7.0000
10
298.1347
20
-257.0000
10
-8.1347
20
-257.0000
0
LWPOLYLINE
100
AcDbEntity
8
CUCITURA
100
AcDbPolyline
90
4
70
1
10
387.7000
20
0.0000
10
602.3000
20
0.0000
10
640.0000
20
-250.0000
10
350.0000
20
-250.0000
0
LWPOLYLINE
100
AcDbEntity
8
TAGLIO_STUDIO
100
AcDbPolyline
90
4
70
1
10
381.6765
20
7.0000
10
608.3235
20
7.0000
10
648.1347
20
-257.0000
10
341.8653
20
-257.0000
0
LWPOLYLINE
100
AcDbEntity
8
CUCITURA
100
AcDbPolyline
90
4
70
1
10
0.0000
20
-310.0000
10
1010.2532
20
-310.0000
10
1010.2532
20
-450.0000
10
0.0000
20
-450.0000
0
LWPOLYLINE
100
AcDbEntity
8
TAGLIO_STUDIO
100
AcDbPolyline
90
4
70
1
10
-7.0000
20
-303.0000
10
1017.2532
20
-303.0000
10
1017.2532
20
-457.0000
10
-7.0000
20
-457.0000
0
ENDSEC
0
EOF
