0
SECTION
2
HEADER
9
$INSUNITS
70
4
0
ENDSEC
0
SECTION
2
ENTITIES
0
LWPOLYLINE
100
AcDbEntity
8
CUCITURA
100
AcDbPolyline
90
4
70
1
10
41.6000
20
0.0000
10
278.4000
20
0.0000
10
320.0000
20
-220.0000
10
0.0000
20
-220.0000
0
LWPOLYLINE
100
AcDbEntity
8
TAGLIO_STUDIO
100
AcDbPolyline
90
4
70
1
10
35.7996
20
7.0000
10
284.2004
20
7.0000
10
328.4477
20
-227.0000
10
-8.4477
20
-227.0000
0
LWPOLYLINE
100
AcDbEntity
8
CUCITURA
100
AcDbPolyline
90
4
70
1
10
421.6000
20
0.0000
10
658.4000
20
0.0000
10
700.0000
20
-220.0000
10
380.0000
20
-220.0000
0
LWPOLYLINE
100
AcDbEntity
8
TAGLIO_STUDIO
100
AcDbPolyline
90
4
70
1
10
415.7996
20
7.0000
10
664.2004
20
7.0000
10
708.4477
20
-227.0000
10
371.5523
20
-227.0000
0
LWPOLYLINE
100
AcDbEntity
8
CUCITURA
100
AcDbPolyline
90
4
70
1
10
0.0000
20
-280.0000
10
1004.5971
20
-280.0000
10
1004.5971
20
-460.0000
10
0.0000
20
-460.0000
0
LWPOLYLINE
100
AcDbEntity
8
TAGLIO_STUDIO
100
AcDbPolyline
90
4
70
1
10
-7.0000
20
-273.0000
10
1011.5971
20
-273.0000
10
1011.5971
20
-467.0000
10
-7.0000
20
-467.0000
0
ENDSEC
0
EOF
