0
SECTION
2
HEADER
9
$INSUNITS
70
4
0
ENDSEC
0
SECTION
2
ENTITIES
0
LWPOLYLINE
100
AcDbEntity
8
CUCITURA
100
AcDbPolyline
90
4
70
1
10
31.2000
20
0.0000
10
208.8000
20
0.0000
10
240.0000
20
-180.0000
10
0.0000
20
-180.0000
0
LWPOLYLINE
100
AcDbEntity
8
TAGLIO_STUDIO
100
AcDbPolyline
90
4
70
1
10
25.3090
20
7.0000
10
214.6910
20
7.0000
10
248.3177
20
-187.0000
10
-8.3177
20
-187.0000
0
LWPOLYLINE
100
AcDbEntity
8
CUCITURA
100
AcDbPolyline
90
4
70
1
10
331.2000
20
0.0000
10
508.8000
20
0.0000
10
540.0000
20
-180.0000
10
300.0000
20
-180.0000
0
LWPOLYLINE
100
AcDbEntity
8
TAGLIO_STUDIO
100
AcDbPolyline
90
4
70
1
10
325.3090
20
7.0000
10
514.6910
20
7.0000
10
548.3177
20
-187.0000
10
291.6823
20
-187.0000
0
LWPOLYLINE
100
AcDbEntity
8
CUCITURA
100
AcDbPolyline
90
4
70
1
10
0.0000
20
-240.0000
10
782.9680
20
-240.0000
10
782.9680
20
-320.0000
10
0.0000
20
-320.0000
0
LWPOLYLINE
100
AcDbEntity
8
TAGLIO_STUDIO
100
AcDbPolyline
90
4
70
1
10
-7.0000
20
-233.0000
10
789.9680
20
-233.0000
10
789.9680
20
-327.0000
10
-7.0000
20
-327.0000
0
ENDSEC
0
EOF
