0
SECTION
2
HEADER
9
$INSUNITS
70
4
0
ENDSEC
0
SECTION
2
ENTITIES
0
LWPOLYLINE
100
AcDbEntity
8
CUCITURA
100
AcDbPolyline
90
4
70
1
10
0.0000
20
0.0000
10
410.0000
20
0.0000
10
410.0000
20
-320.0000
10
0.0000
20
-320.0000
0
LWPOLYLINE
100
AcDbEntity
8
TAGLIO_STUDIO
100
AcDbPolyline
90
4
70
1
10
-7.0000
20
7.0000
10
417.0000
20
7.0000
10
417.0000
20
-327.0000
10
-7.0000
20
-327.0000
0
LWPOLYLINE
100
AcDbEntity
8
CUCITURA
100
AcDbPolyline
90
4
70
1
10
470.0000
20
0.0000
10
880.0000
20
0.0000
10
880.0000
20
-320.0000
10
470.0000
20
-320.0000
0
LWPOLYLINE
100
AcDbEntity
8
TAGLIO_STUDIO
100
AcDbPolyline
90
4
70
1
10
463.0000
20
7.0000
10
887.0000
20
7.0000
10
887.0000
20
-327.0000
10
463.0000
20
-327.0000
0
LWPOLYLINE
100
AcDbEntity
8
CUCITURA
100
AcDbPolyline
90
4
70
1
10
0.0000
20
-380.0000
10
1460.0000
20
-380.0000
10
1460.0000
20
-480.0000
10
0.0000
20
-480.0000
0
LWPOLYLINE
100
AcDbEntity
8
TAGLIO_STUDIO
100
AcDbPolyline
90
4
70
1
10
-7.0000
20
-373.0000
10
1467.0000
20
-373.0000
10
1467.0000
20
-487.0000
10
-7.0000
20
-487.0000
0
ENDSEC
0
EOF
