0
SECTION
2
HEADER
9
$INSUNITS
70
4
0
ENDSEC
0
SECTION
2
ENTITIES
0
LWPOLYLINE
100
AcDbEntity
8
CUCITURA
100
AcDbPolyline
90
30
70
1
10
0.0000
20
-360.0000
10
0.0000
20
-126.0000
10
0.9297
20
-111.3723
10
3.7063
20
-96.9424
10
8.2923
20
-82.9055
10
14.6255
20
-69.4513
10
22.6204
20
-56.7619
10
32.1689
20
-45.0088
10
43.1418
20
-34.3509
10
55.3907
20
-24.9325
10
68.7500
20
-16.8808
10
83.0390
20
-10.3048
10
98.0646
20
-5.2933
10
113.6234
20
-1.9142
10
129.5051
20
-0.2132
10
145.4949
20
-0.2132
10
161.3766
20
-1.9142
10
176.9354
20
-5.2933
10
191.9610
20
-10.3048
10
206.2500
20
-16.8808
10
219.6093
20
-24.9325
10
231.8582
20
-34.3509
10
242.8311
20
-45.0088
10
252.3796
20
-56.7619
10
260.3745
20
-69.4513
10
266.7077
20
-82.9055
10
271.2937
20
-96.9424
10
274.0703
20
-111.3723
10
275.0000
20
-126.0000
10
275.0000
20
-360.0000
0
LWPOLYLINE
100
AcDbEntity
8
TAGLIO_STUDIO
100
AcDbPolyline
90
30
70
1
10
-7.0000
20
-367.0000
10
-7.0000
20
-125.7778
10
-6.0280
20
-110.4854
10
-3.0843
20
-95.1872
10
1.7735
20
-80.3179
10
8.4746
20
-66.0824
10
16.9222
20
-52.6745
10
26.9959
20
-40.2748
10
38.5545
20
-29.0481
10
51.4379
20
-19.1417
10
65.4700
20
-10.6846
10
80.4607
20
-3.7856
10
96.2089
20
1.4669
10
112.5046
20
5.0060
10
129.1313
20
6.7868
10
145.8687
20
6.7868
10
162.4954
20
5.0060
10
178.7911
20
1.4669
10
194.5393
20
-3.7856
10
209.5300
20
-10.6846
10
223.5621
20
-19.1417
10
236.4455
20
-29.0481
10
248.0041
20
-40.2748
10
258.0778
20
-52.6745
10
266.5254
20
-66.0824
10
273.2265
20
-80.3179
10
278.0843
20
-95.1872
10
281.0280
20
-110.4854
10
282.0000
20
-125.7778
10
282.0000
20
-367.0000
0
LWPOLYLINE
100
AcDbEntity
8
CUCITURA
100
AcDbPolyline
90
30
70
1
10
335.0000
20
-360.0000
10
335.0000
20
-126.0000
10
335.9297
20
-111.3723
10
338.7063
20
-96.9424
10
343.2923
20
-82.9055
10
349.6255
20
-69.4513
10
357.6204
20
-56.7619
10
367.1689
20
-45.0088
10
378.1418
20
-34.3509
10
390.3907
20
-24.9325
10
403.7500
20
-16.8808
10
418.0390
20
-10.3048
10
433.0646
20
-5.2933
10
448.6234
20
-1.9142
10
464.5051
20
-0.2132
10
480.4949
20
-0.2132
10
496.3766
20
-1.9142
10
511.9354
20
-5.2933
10
526.9610
20
-10.3048
10
541.2500
20
-16.8808
10
554.6093
20
-24.9325
10
566.8582
20
-34.3509
10
577.8311
20
-45.0088
10
587.3796
20
-56.7619
10
595.3745
20
-69.4513
10
601.7077
20
-82.9055
10
606.2937
20
-96.9424
10
609.0703
20
-111.3723
10
610.0000
20
-126.0000
10
610.0000
20
-360.0000
0
LWPOLYLINE
100
AcDbEntity
8
TAGLIO_STUDIO
100
AcDbPolyline
90
30
70
1
10
328.0000
20
-367.0000
10
328.0000
20
-125.7778
10
328.9720
20
-110.4854
10
331.9157
20
-95.1872
10
336.7735
20
-80.3179
10
343.4746
20
-66.0824
10
351.9222
20
-52.6745
10
361.9959
20
-40.2748
10
373.5545
20
-29.0481
10
386.4379
20
-19.1417
10
400.4700
20
-10.6846
10
415.4607
20
-3.7856
10
431.2089
20
1.4669
10
447.5046
20
5.0060
10
464.1313
20
6.7868
10
480.8687
20
6.7868
10
497.4954
20
5.0060
10
513.7911
20
1.4669
10
529.5393
20
-3.7856
10
544.5300
20
-10.6846
10
558.5621
20
-19.1417
10
571.4455
20
-29.0481
10
583.0041
20
-40.2748
10
593.0778
20
-52.6745
10
601.5254
20
-66.0824
10
608.2265
20
-80.3179
10
613.0843
20
-95.1872
10
616.0280
20
-110.4854
10
617.0000
20
-125.7778
10
617.0000
20
-367.0000
0
LWPOLYLINE
100
AcDbEntity
8
CUCITURA
100
AcDbPolyline
90
4
70
1
10
0.0000
20
-420.0000
10
1156.8684
20
-420.0000
10
1156.8684
20
-540.0000
10
0.0000
20
-540.0000
0
LWPOLYLINE
100
AcDbEntity
8
TAGLIO_STUDIO
100
AcDbPolyline
90
4
70
1
10
-7.0000
20
-413.0000
10
1163.8684
20
-413.0000
10
1163.8684
20
-547.0000
10
-7.0000
20
-547.0000
0
ENDSEC
0
EOF
