0
SECTION
2
HEADER
9
$INSUNITS
70
4
0
ENDSEC
0
SECTION
2
ENTITIES
0
LWPOLYLINE
100
AcDbEntity
8
CUCITURA
100
AcDbPolyline
90
4
70
1
10
0.0000
20
0.0000
10
430.0000
20
0.0000
10
430.0000
20
-360.0000
10
0.0000
20
-360.0000
0
LWPOLYLINE
100
AcDbEntity
8
TAGLIO_STUDIO
100
AcDbPolyline
90
4
70
1
10
-7.0000
20
7.0000
10
437.0000
20
7.0000
10
437.0000
20
-367.0000
10
-7.0000
20
-367.0000
0
LWPOLYLINE
100
AcDbEntity
8
CUCITURA
100
AcDbPolyline
90
4
70
1
10
490.0000
20
0.0000
10
920.0000
20
0.0000
10
920.0000
20
-360.0000
10
490.0000
20
-360.0000
0
LWPOLYLINE
100
AcDbEntity
8
TAGLIO_STUDIO
100
AcDbPolyline
90
4
70
1
10
483.0000
20
7.0000
10
927.0000
20
7.0000
10
927.0000
20
-367.0000
10
483.0000
20
-367.0000
0
LWPOLYLINE
100
AcDbEntity
8
CUCITURA
100
AcDbPolyline
90
4
70
1
10
0.0000
20
-420.0000
10
1580.0000
20
-420.0000
10
1580.0000
20
-540.0000
10
0.0000
20
-540.0000
0
LWPOLYLINE
100
AcDbEntity
8
TAGLIO_STUDIO
100
AcDbPolyline
90
4
70
1
10
-7.0000
20
-413.0000
10
1587.0000
20
-413.0000
10
1587.0000
20
-547.0000
10
-7.0000
20
-547.0000
0
ENDSEC
0
EOF
