0
SECTION
2
HEADER
9
$INSUNITS
70
4
0
ENDSEC
0
SECTION
2
ENTITIES
0
LWPOLYLINE
100
AcDbEntity
8
CUCITURA
100
AcDbPolyline
90
32
70
1
10
0.0000
20
0.0000
10
270.0000
20
0.0000
10
270.0000
20
-90.0000
10
269.2086
20
-101.8931
10
266.8438
20
-113.6467
10
262.9332
20
-125.1232
10
257.5227
20
-136.1878
10
250.6757
20
-146.7109
10
242.4726
20
-156.5692
10
233.0094
20
-165.6469
10
222.3971
20
-173.8378
10
210.7603
20
-181.0458
10
198.2351
20
-187.1863
10
184.9687
20
-192.1874
10
171.1163
20
-195.9905
10
156.8406
20
-198.5509
10
142.3088
20
-199.8387
10
127.6912
20
-199.8387
10
113.1594
20
-198.5509
10
98.8837
20
-195.9905
10
85.0313
20
-192.1874
10
71.7649
20
-187.1863
10
59.2397
20
-181.0458
10
47.6029
20
-173.8378
10
36.9906
20
-165.6469
10
27.5274
20
-156.5692
10
19.3243
20
-146.7109
10
12.4773
20
-136.1878
10
7.0668
20
-125.1232
10
3.1562
20
-113.6467
10
0.7914
20
-101.8931
10
0.0000
20
-90.0000
0
LWPOLYLINE
100
AcDbEntity
8
TAGLIO_STUDIO
100
AcDbPolyline
90
32
70
1
10
-7.0000
20
7.0000
10
277.0000
20
7.0000
10
277.0000
20
-90.2326
10
276.1624
20
-102.8199
10
273.6165
20
-115.4737
10
269.4162
20
-127.8002
10
263.6233
20
-139.6470
10
256.3191
20
-150.8727
10
247.6020
20
-161.3487
10
237.5840
20
-170.9587
10
226.3892
20
-179.5992
10
214.1522
20
-187.1788
10
201.0168
20
-193.6186
10
187.1345
20
-198.8518
10
172.6640
20
-202.8246
10
157.7692
20
-205.4961
10
142.6183
20
-206.8387
10
127.3817
20
-206.8387
10
112.2308
20
-205.4961
10
97.3360
20
-202.8246
10
82.8655
20
-198.8518
10
68.9832
20
-193.6186
10
55.8478
20
-187.1788
10
43.6108
20
-179.5992
10
32.4160
20
-170.9587
10
22.3980
20
-161.3487
10
13.6809
20
-150.8727
10
6.3767
20
-139.6470
10
0.5838
20
-127.8002
10
-3.6165
20
-115.4737
10
-6.1624
20
-102.8199
10
-7.0000
20
-90.2326
0
LWPOLYLINE
100
AcDbEntity
8
CUCITURA
100
AcDbPolyline
90
32
70
1
10
330.0000
20
0.0000
10
600.0000
20
0.0000
10
600.0000
20
-90.0000
10
599.2086
20
-101.8931
10
596.8438
20
-113.6467
10
592.9332
20
-125.1232
10
587.5227
20
-136.1878
10
580.6757
20
-146.7109
10
572.4726
20
-156.5692
10
563.0094
20
-165.6469
10
552.3971
20
-173.8378
10
540.7603
20
-181.0458
10
528.2351
20
-187.1863
10
514.9687
20
-192.1874
10
501.1163
20
-195.9905
10
486.8406
20
-198.5509
10
472.3088
20
-199.8387
10
457.6912
20
-199.8387
10
443.1594
20
-198.5509
10
428.8837
20
-195.9905
10
415.0313
20
-192.1874
10
401.7649
20
-187.1863
10
389.2397
20
-181.0458
10
377.6029
20
-173.8378
10
366.9906
20
-165.6469
10
357.5274
20
-156.5692
10
349.3243
20
-146.7109
10
342.4773
20
-136.1878
10
337.0668
20
-125.1232
10
333.1562
20
-113.6467
10
330.7914
20
-101.8931
10
330.0000
20
-90.0000
0
LWPOLYLINE
100
AcDbEntity
8
TAGLIO_STUDIO
100
AcDbPolyline
90
32
70
1
10
323.0000
20
7.0000
10
607.0000
20
7.0000
10
607.0000
20
-90.2326
10
606.1624
20
-102.8199
10
603.6165
20
-115.4737
10
599.4162
20
-127.8002
10
593.6233
20
-139.6470
10
586.3191
20
-150.8727
10
577.6020
20
-161.3487
10
567.5840
20
-170.9587
10
556.3892
20
-179.5992
10
544.1522
20
-187.1788
10
531.0168
20
-193.6186
10
517.1345
20
-198.8518
10
502.6640
20
-202.8246
10
487.7692
20
-205.4961
10
472.6183
20
-206.8387
10
457.3817
20
-206.8387
10
442.2308
20
-205.4961
10
427.3360
20
-202.8246
10
412.8655
20
-198.8518
10
398.9832
20
-193.6186
10
385.8478
20
-187.1788
10
373.6108
20
-179.5992
10
362.4160
20
-170.9587
10
352.3980
20
-161.3487
10
343.6809
20
-150.8727
10
336.3767
20
-139.6470
10
330.5838
20
-127.8002
10
326.3835
20
-115.4737
10
323.8376
20
-102.8199
10
323.0000
20
-90.2326
0
LWPOLYLINE
100
AcDbEntity
8
CUCITURA
100
AcDbPolyline
90
4
70
1
10
0.0000
20
-260.0000
10
835.6589
20
-260.0000
10
835.6589
20
-370.0000
10
0.0000
20
-370.0000
0
LWPOLYLINE
100
AcDbEntity
8
TAGLIO_STUDIO
100
AcDbPolyline
90
4
70
1
10
-7.0000
20
-253.0000
10
842.6589
20
-253.0000
10
842.6589
20
-377.0000
10
-7.0000
20
-377.0000
0
ENDSEC
0
EOF
