0
SECTION
2
HEADER
9
$INSUNITS
70
4
0
ENDSEC
0
SECTION
2
ENTITIES
0
LWPOLYLINE
100
AcDbEntity
8
CUCITURA
100
AcDbPolyline
90
4
70
1
10
36.4000
20
0.0000
10
243.6000
20
0.0000
10
280.0000
20
-240.0000
10
0.0000
20
-240.0000
0
LWPOLYLINE
100
AcDbEntity
8
TAGLIO_STUDIO
100
AcDbPolyline
90
4
70
1
10
30.3816
20
7.0000
10
249.6184
20
7.0000
10
288.1417
20
-247.0000
10
-8.1417
20
-247.0000
0
LWPOLYLINE
100
AcDbEntity
8
CUCITURA
100
AcDbPolyline
90
4
70
1
10
376.4000
20
0.0000
10
583.6000
20
0.0000
10
620.0000
20
-240.0000
10
340.0000
20
-240.0000
0
LWPOLYLINE
100
AcDbEntity
8
TAGLIO_STUDIO
100
AcDbPolyline
90
4
70
1
10
370.3816
20
7.0000
10
589.6184
20
7.0000
10
628.1417
20
-247.0000
10
331.8583
20
-247.0000
0
LWPOLYLINE
100
AcDbEntity
8
CUCITURA
100
AcDbPolyline
90
4
70
1
10
0.0000
20
-300.0000
10
972.6893
20
-300.0000
10
972.6893
20
-460.0000
10
0.0000
20
-460.0000
0
LWPOLYLINE
100
AcDbEntity
8
TAGLIO_STUDIO
100
AcDbPolyline
90
4
70
1
10
-7.0000
20
-293.0000
10
979.6893
20
-293.0000
10
979.6893
20
-467.0000
10
-7.0000
20
-467.0000
0
ENDSEC
0
EOF
