0
SECTION
2
HEADER
9
$INSUNITS
70
4
0
ENDSEC
0
SECTION
2
ENTITIES
0
LWPOLYLINE
100
AcDbEntity
8
CUCITURA
100
AcDbPolyline
90
30
70
1
10
0.0000
20
-320.0000
10
0.0000
20
-112.0000
10
1.2171
20
-98.9976
10
4.8519
20
-86.1710
10
10.8553
20
-73.6937
10
19.1461
20
-61.7345
10
29.6122
20
-50.4550
10
42.1120
20
-40.0078
10
56.4765
20
-30.5342
10
72.5115
20
-22.1622
10
90.0000
20
-15.0052
10
108.7056
20
-9.1598
10
128.3754
20
-4.7052
10
148.7433
20
-1.7015
10
169.5339
20
-0.1895
10
190.4661
20
-0.1895
10
211.2567
20
-1.7015
10
231.6246
20
-4.7052
10
251.2944
20
-9.1598
10
270.0000
20
-15.0052
10
287.4885
20
-22.1622
10
303.5235
20
-30.5342
10
317.8880
20
-40.0078
10
330.3878
20
-50.4550
10
340.8539
20
-61.7345
10
349.1447
20
-73.6937
10
355.1481
20
-86.1710
10
358.7829
20
-98.9976
10
360.0000
20
-112.0000
10
360.0000
20
-320.0000
0
LWPOLYLINE
100
AcDbEntity
8
TAGLIO_STUDIO
100
AcDbPolyline
90
30
70
1
10
-7.0000
20
-327.0000
10
-7.0000
20
-111.6731
10
-5.6926
20
-97.7064
10
-1.7180
20
-83.6808
10
4.7873
20
-70.1602
10
13.6766
20
-57.3377
10
24.7827
20
-45.3685
10
37.9271
20
-34.3825
10
52.9204
20
-24.4941
10
69.5596
20
-15.8067
10
87.6261
20
-8.4132
10
106.8857
20
-2.3947
10
127.0899
20
2.1810
10
147.9778
20
5.2613
10
169.2797
20
6.8105
10
190.7203
20
6.8105
10
212.0222
20
5.2613
10
232.9101
20
2.1810
10
253.1143
20
-2.3947
10
272.3739
20
-8.4132
10
290.4404
20
-15.8067
10
307.0796
20
-24.4941
10
322.0729
20
-34.3825
10
335.2173
20
-45.3685
10
346.3234
20
-57.3377
10
355.2127
20
-70.1602
10
361.7180
20
-83.6808
10
365.6926
20
-97.7064
10
367.0000
20
-111.6731
10
367.0000
20
-327.0000
0
LWPOLYLINE
100
AcDbEntity
8
CUCITURA
100
AcDbPolyline
90
30
70
1
10
420.0000
20
-320.0000
10
420.0000
20
-112.0000
10
421.2171
20
-98.9976
10
424.8519
20
-86.1710
10
430.8553
20
-73.6937
10
439.1461
20
-61.7345
10
449.6122
20
-50.4550
10
462.1120
20
-40.0078
10
476.4765
20
-30.5342
10
492.5115
20
-22.1622
10
510.0000
20
-15.0052
10
528.7056
20
-9.1598
10
548.3754
20
-4.7052
10
568.7433
20
-1.7015
10
589.5339
20
-0.1895
10
610.4661
20
-0.1895
10
631.2567
20
-1.7015
10
651.6246
20
-4.7052
10
671.2944
20
-9.1598
10
690.0000
20
-15.0052
10
707.4885
20
-22.1622
10
723.5235
20
-30.5342
10
737.8880
20
-40.0078
10
750.3878
20
-50.4550
10
760.8539
20
-61.7345
10
769.1447
20
-73.6937
10
775.1481
20
-86.1710
10
778.7829
20
-98.9976
10
780.0000
20
-112.0000
10
780.0000
20
-320.0000
0
LWPOLYLINE
100
AcDbEntity
8
TAGLIO_STUDIO
100
AcDbPolyline
90
30
70
1
10
413.0000
20
-327.0000
10
413.0000
20
-111.6731
10
414.3074
20
-97.7064
10
418.2820
20
-83.6808
10
424.7873
20
-70.1602
10
433.6766
20
-57.3377
10
444.7827
20
-45.3685
10
457.9271
20
-34.3825
10
472.9204
20
-24.4941
10
489.5596
20
-15.8067
10
507.6261
20
-8.4132
10
526.8857
20
-2.3947
10
547.0899
20
2.1810
10
567.9778
20
5.2613
10
589.2797
20
6.8105
10
610.7203
20
6.8105
10
632.0222
20
5.2613
10
652.9101
20
2.1810
10
673.1143
20
-2.3947
10
692.3739
20
-8.4132
10
710.4404
20
-15.8067
10
727.0796
20
-24.4941
10
742.0729
20
-34.3825
10
755.2173
20
-45.3685
10
766.3234
20
-57.3377
10
775.2127
20
-70.1602
10
781.7180
20
-83.6808
10
785.6926
20
-97.7064
10
787.0000
20
-111.6731
10
787.0000
20
-327.0000
0
LWPOLYLINE
100
AcDbEntity
8
CUCITURA
100
AcDbPolyline
90
4
70
1
10
0.0000
20
-380.0000
10
1240.6503
20
-380.0000
10
1240.6503
20
-540.0000
10
0.0000
20
-540.0000
0
LWPOLYLINE
100
AcDbEntity
8
TAGLIO_STUDIO
100
AcDbPolyline
90
4
70
1
10
-7.0000
20
-373.0000
10
1247.6503
20
-373.0000
10
1247.6503
20
-547.0000
10
-7.0000
20
-547.0000
0
ENDSEC
0
EOF
