0
SECTION
2
HEADER
9
$INSUNITS
70
4
0
ENDSEC
0
SECTION
2
ENTITIES
0
LWPOLYLINE
100
AcDbEntity
8
CUCITURA
100
AcDbPolyline
90
4
70
1
10
0.0000
20
0.0000
10
280.0000
20
0.0000
10
280.0000
20
-160.0000
10
0.0000
20
-160.0000
0
LWPOLYLINE
100
AcDbEntity
8
TAGLIO_STUDIO
100
AcDbPolyline
90
4
70
1
10
-7.0000
20
7.0000
10
287.0000
20
7.0000
10
287.0000
20
-167.0000
10
-7.0000
20
-167.0000
0
LWPOLYLINE
100
AcDbEntity
8
CUCITURA
100
AcDbPolyline
90
4
70
1
10
340.0000
20
0.0000
10
620.0000
20
0.0000
10
620.0000
20
-160.0000
10
340.0000
20
-160.0000
0
LWPOLYLINE
100
AcDbEntity
8
TAGLIO_STUDIO
100
AcDbPolyline
90
4
70
1
10
333.0000
20
7.0000
10
627.0000
20
7.0000
10
627.0000
20
-167.0000
10
333.0000
20
-167.0000
0
LWPOLYLINE
100
AcDbEntity
8
CUCITURA
100
AcDbPolyline
90
4
70
1
10
0.0000
20
-220.0000
10
880.0000
20
-220.0000
10
880.0000
20
-260.0000
10
0.0000
20
-260.0000
0
LWPOLYLINE
100
AcDbEntity
8
TAGLIO_STUDIO
100
AcDbPolyline
90
4
70
1
10
-7.0000
20
-213.0000
10
887.0000
20
-213.0000
10
887.0000
20
-267.0000
10
-7.0000
20
-267.0000
0
ENDSEC
0
EOF
