0
SECTION
2
HEADER
9
$INSUNITS
70
4
0
ENDSEC
0
SECTION
2
ENTITIES
0
LWPOLYLINE
100
AcDbEntity
8
CUCITURA
100
AcDbPolyline
90
16
70
1
10
0.0000
20
-28.5000
10
16.8000
20
0.0000
10
44.8000
20
-11.4000
10
72.8000
20
-57.0000
10
112.0000
20
-76.0000
10
168.0000
20
-76.0000
10
207.2000
20
-57.0000
10
235.2000
20
-11.4000
10
263.2000
20
0.0000
10
280.0000
20
-28.5000
10
268.8000
20
-121.6000
10
235.2000
20
-163.4000
10
179.2000
20
-190.0000
10
100.8000
20
-190.0000
10
44.8000
20
-163.4000
10
11.2000
20
-121.6000
0
LWPOLYLINE
100
AcDbEntity
8
TAGLIO_STUDIO
100
AcDbPolyline
90
16
70
1
10
-7.2327
20
-26.9852
10
13.8400
20
8.7631
10
49.5646
20
-5.7819
10
77.6945
20
-51.5934
10
113.6070
20
-69.0000
10
166.3930
20
-69.0000
10
202.3055
20
-51.5934
10
230.4354
20
-5.7819
10
266.1600
20
8.7631
10
287.2327
20
-26.9852
10
275.5107
20
-124.4246
10
239.6515
20
-169.0351
10
180.7780
20
-197.0000
10
99.2220
20
-197.0000
10
40.3485
20
-169.0351
10
4.4893
20
-124.4246
0
LWPOLYLINE
100
AcDbEntity
8
CUCITURA
100
AcDbPolyline
90
16
70
1
10
340.0000
20
-28.5000
10
356.8000
20
0.0000
10
384.8000
20
-11.4000
10
412.8000
20
-57.0000
10
452.0000
20
-76.0000
10
508.0000
20
-76.0000
10
547.2000
20
-57.0000
10
575.2000
20
-11.4000
10
603.2000
20
0.0000
10
620.0000
20
-28.5000
10
608.8000
20
-121.6000
10
575.2000
20
-163.4000
10
519.2000
20
-190.0000
10
440.8000
20
-190.0000
10
384.8000
20
-163.4000
10
351.2000
20
-121.6000
0
LWPOLYLINE
100
AcDbEntity
8
TAGLIO_STUDIO
100
AcDbPolyline
90
16
70
1
10
332.7673
20
-26.9852
10
353.8400
20
8.7631
10
389.5646
20
-5.7819
10
417.6945
20
-51.5934
10
453.6070
20
-69.0000
10
506.3930
20
-69.0000
10
542.3055
20
-51.5934
10
570.4354
20
-5.7819
10
606.1600
20
8.7631
10
627.2327
20
-26.9852
10
615.5107
20
-124.4246
10
579.6515
20
-169.0351
10
520.7780
20
-197.0000
10
439.2220
20
-197.0000
10
380.3485
20
-169.0351
10
344.4893
20
-124.4246
0
LWPOLYLINE
100
AcDbEntity
8
CUCITURA
100
AcDbPolyline
90
4
70
1
10
0.0000
20
-250.0000
10
873.9701
20
-250.0000
10
873.9701
20
-290.0000
10
0.0000
20
-290.0000
0
LWPOLYLINE
100
AcDbEntity
8
TAGLIO_STUDIO
100
AcDbPolyline
90
4
70
1
10
-7.0000
20
-243.0000
10
880.9701
20
-243.0000
10
880.9701
20
-297.0000
10
-7.0000
20
-297.0000
0
ENDSEC
0
EOF
