0
SECTION
2
HEADER
9
$INSUNITS
70
4
0
ENDSEC
0
SECTION
2
ENTITIES
0
LWPOLYLINE
100
AcDbEntity
8
CUCITURA
100
AcDbPolyline
90
4
70
1
10
35.1000
20
0.0000
10
234.9000
20
0.0000
10
270.0000
20
-240.0000
10
0.0000
20
-240.0000
0
LWPOLYLINE
100
AcDbEntity
8
TAGLIO_STUDIO
100
AcDbPolyline
90
4
70
1
10
29.0493
20
7.0000
10
240.9507
20
7.0000
10
278.0982
20
-247.0000
10
-8.0982
20
-247.0000
0
LWPOLYLINE
100
AcDbEntity
8
CUCITURA
100
AcDbPolyline
90
4
70
1
10
365.1000
20
0.0000
10
564.9000
20
0.0000
10
600.0000
20
-240.0000
10
330.0000
20
-240.0000
0
LWPOLYLINE
100
AcDbEntity
8
TAGLIO_STUDIO
100
AcDbPolyline
90
4
70
1
10
359.0493
20
7.0000
10
570.9507
20
7.0000
10
608.0982
20
-247.0000
10
321.9018
20
-247.0000
0
LWPOLYLINE
100
AcDbEntity
8
CUCITURA
100
AcDbPolyline
90
4
70
1
10
0.0000
20
-300.0000
10
954.9062
20
-300.0000
10
954.9062
20
-410.0000
10
0.0000
20
-410.0000
0
LWPOLYLINE
100
AcDbEntity
8
TAGLIO_STUDIO
100
AcDbPolyline
90
4
70
1
10
-7.0000
20
-293.0000
10
961.9062
20
-293.0000
10
961.9062
20
-417.0000
10
-7.0000
20
-417.0000
0
ENDSEC
0
EOF
