0
SECTION
2
HEADER
9
$INSUNITS
70
4
0
ENDSEC
0
SECTION
2
ENTITIES
0
LWPOLYLINE
100
AcDbEntity
8
CUCITURA
100
AcDbPolyline
90
32
70
1
10
0.0000
20
0.0000
10
290.0000
20
0.0000
10
290.0000
20
-135.0000
10
289.1500
20
-152.8396
10
286.6100
20
-170.4701
10
282.4097
20
-187.6848
10
276.5984
20
-204.2817
10
269.2443
20
-220.0664
10
260.4335
20
-234.8537
10
250.2693
20
-248.4704
10
238.8710
20
-260.7567
10
226.3721
20
-271.5687
10
212.9192
20
-280.7795
10
198.6700
20
-288.2812
10
183.7916
20
-293.9857
10
168.4584
20
-297.8264
10
152.8501
20
-299.7580
10
137.1499
20
-299.7580
10
121.5416
20
-297.8264
10
106.2084
20
-293.9857
10
91.3300
20
-288.2812
10
77.0808
20
-280.7795
10
63.6279
20
-271.5687
10
51.1290
20
-260.7567
10
39.7307
20
-248.4704
10
29.5665
20
-234.8537
10
20.7557
20
-220.0664
10
13.4016
20
-204.2817
10
7.5903
20
-187.6848
10
3.3900
20
-170.4701
10
0.8500
20
-152.8396
10
0.0000
20
-135.0000
0
LWPOLYLINE
100
AcDbEntity
8
TAGLIO_STUDIO
100
AcDbPolyline
90
32
70
1
10
-7.0000
20
7.0000
10
297.0000
20
7.0000
10
297.0000
20
-135.1667
10
296.1262
20
-153.5068
10
293.4904
20
-171.8019
10
289.1293
20
-189.6758
10
283.0903
20
-206.9229
10
275.4395
20
-223.3444
10
266.2607
20
-238.7494
10
255.6553
20
-252.9572
10
243.7413
20
-265.7994
10
230.6528
20
-277.1213
10
216.5391
20
-286.7846
10
201.5636
20
-294.6686
10
185.9027
20
-300.6732
10
169.7435
20
-304.7207
10
153.2816
20
-306.7580
10
136.7184
20
-306.7580
10
120.2565
20
-304.7207
10
104.0973
20
-300.6732
10
88.4364
20
-294.6686
10
73.4609
20
-286.7846
10
59.3472
20
-277.1213
10
46.2587
20
-265.7994
10
34.3447
20
-252.9572
10
23.7393
20
-238.7494
10
14.5605
20
-223.3444
10
6.9097
20
-206.9229
10
0.8707
20
-189.6758
10
-3.4904
20
-171.8019
10
-6.1262
20
-153.5068
10
-7.0000
20
-135.1667
0
LWPOLYLINE
100
AcDbEntity
8
CUCITURA
100
AcDbPolyline
90
32
70
1
10
350.0000
20
0.0000
10
640.0000
20
0.0000
10
640.0000
20
-135.0000
10
639.1500
20
-152.8396
10
636.6100
20
-170.4701
10
632.4097
20
-187.6848
10
626.5984
20
-204.2817
10
619.2443
20
-220.0664
10
610.4335
20
-234.8537
10
600.2693
20
-248.4704
10
588.8710
20
-260.7567
10
576.3721
20
-271.5687
10
562.9192
20
-280.7795
10
548.6700
20
-288.2812
10
533.7916
20
-293.9857
10
518.4584
20
-297.8264
10
502.8501
20
-299.7580
10
487.1499
20
-299.7580
10
471.5416
20
-297.8264
10
456.2084
20
-293.9857
10
441.3300
20
-288.2812
10
427.0808
20
-280.7795
10
413.6279
20
-271.5687
10
401.1290
20
-260.7567
10
389.7307
20
-248.4704
10
379.5665
20
-234.8537
10
370.7557
20
-220.0664
10
363.4016
20
-204.2817
10
357.5903
20
-187.6848
10
353.3900
20
-170.4701
10
350.8500
20
-152.8396
10
350.0000
20
-135.0000
0
LWPOLYLINE
100
AcDbEntity
8
TAGLIO_STUDIO
100
AcDbPolyline
90
32
70
1
10
343.0000
20
7.0000
10
647.0000
20
7.0000
10
647.0000
20
-135.1667
10
646.1262
20
-153.5068
10
643.4904
20
-171.8019
10
639.1293
20
-189.6758
10
633.0903
20
-206.9229
10
625.4395
20
-223.3444
10
616.2607
20
-238.7494
10
605.6553
20
-252.9572
10
593.7413
20
-265.7994
10
580.6528
20
-277.1213
10
566.5391
20
-286.7846
10
551.5636
20
-294.6686
10
535.9027
20
-300.6732
10
519.7435
20
-304.7207
10
503.2816
20
-306.7580
10
486.7184
20
-306.7580
10
470.2565
20
-304.7207
10
454.0973
20
-300.6732
10
438.4364
20
-294.6686
10
423.4609
20
-286.7846
10
409.3472
20
-277.1213
10
396.2587
20
-265.7994
10
384.3447
20
-252.9572
10
373.7393
20
-238.7494
10
364.5605
20
-223.3444
10
356.9097
20
-206.9229
10
350.8707
20
-189.6758
10
346.5096
20
-171.8019
10
343.8738
20
-153.5068
10
343.0000
20
-135.1667
0
LWPOLYLINE
100
AcDbEntity
8
CUCITURA
100
AcDbPolyline
90
4
70
1
10
0.0000
20
-360.0000
10
1047.2154
20
-360.0000
10
1047.2154
20
-440.0000
10
0.0000
20
-440.0000
0
LWPOLYLINE
100
AcDbEntity
8
TAGLIO_STUDIO
100
AcDbPolyline
90
4
70
1
10
-7.0000
20
-353.0000
10
1054.2154
20
-353.0000
10
1054.2154
20
-447.0000
10
-7.0000
20
-447.0000
0
ENDSEC
0
EOF
