0
SECTION
2
HEADER
9
$INSUNITS
70
4
0
ENDSEC
0
SECTION
2
ENTITIES
0
LWPOLYLINE
100
AcDbEntity
8
CUCITURA
100
AcDbPolyline
90
4
70
1
10
40.3000
20
0.0000
10
269.7000
20
0.0000
10
310.0000
20
-250.0000
10
0.0000
20
-250.0000
0
LWPOLYLINE
100
AcDbEntity
8
TAGLIO_STUDIO
100
AcDbPolyline
90
4
70
1
10
34.3380
20
7.0000
10
275.6620
20
7.0000
10
318.2188
20
-257.0000
10
-8.2188
20
-257.0000
0
LWPOLYLINE
100
AcDbEntity
8
CUCITURA
100
AcDbPolyline
90
4
70
1
10
410.3000
20
0.0000
10
639.7000
20
0.0000
10
680.0000
20
-250.0000
10
370.0000
20
-250.0000
0
LWPOLYLINE
100
AcDbEntity
8
TAGLIO_STUDIO
100
AcDbPolyline
90
4
70
1
10
404.3380
20
7.0000
10
645.6620
20
7.0000
10
688.2188
20
-257.0000
10
361.7812
20
-257.0000
0
LWPOLYLINE
100
AcDbEntity
8
CUCITURA
100
AcDbPolyline
90
4
70
1
10
0.0000
20
-310.0000
10
1045.8547
20
-310.0000
10
1045.8547
20
-410.0000
10
0.0000
20
-410.0000
0
LWPOLYLINE
100
AcDbEntity
8
TAGLIO_STUDIO
100
AcDbPolyline
90
4
70
1
10
-7.0000
20
-303.0000
10
1052.8547
20
-303.0000
10
1052.8547
20
-417.0000
10
-7.0000
20
-417.0000
0
ENDSEC
0
EOF
