0
SECTION
2
HEADER
9
$INSUNITS
70
4
0
ENDSEC
0
SECTION
2
ENTITIES
0
LWPOLYLINE
100
AcDbEntity
8
CUCITURA
100
AcDbPolyline
90
4
70
1
10
0.0000
20
0.0000
10
360.0000
20
0.0000
10
360.0000
20
-260.0000
10
0.0000
20
-260.0000
0
LWPOLYLINE
100
AcDbEntity
8
TAGLIO_STUDIO
100
AcDbPolyline
90
4
70
1
10
-7.0000
20
7.0000
10
367.0000
20
7.0000
10
367.0000
20
-267.0000
10
-7.0000
20
-267.0000
0
LWPOLYLINE
100
AcDbEntity
8
CUCITURA
100
AcDbPolyline
90
4
70
1
10
420.0000
20
0.0000
10
780.0000
20
0.0000
10
780.0000
20
-260.0000
10
420.0000
20
-260.0000
0
LWPOLYLINE
100
AcDbEntity
8
TAGLIO_STUDIO
100
AcDbPolyline
90
4
70
1
10
413.0000
20
7.0000
10
787.0000
20
7.0000
10
787.0000
20
-267.0000
10
413.0000
20
-267.0000
0
LWPOLYLINE
100
AcDbEntity
8
CUCITURA
100
AcDbPolyline
90
4
70
1
10
0.0000
20
-320.0000
10
1240.0000
20
-320.0000
10
1240.0000
20
-490.0000
10
0.0000
20
-490.0000
0
LWPOLYLINE
100
AcDbEntity
8
TAGLIO_STUDIO
100
AcDbPolyline
90
4
70
1
10
-7.0000
20
-313.0000
10
1247.0000
20
-313.0000
10
1247.0000
20
-497.0000
10
-7.0000
20
-497.0000
0
ENDSEC
0
EOF
