0
SECTION
2
HEADER
9
$INSUNITS
70
4
0
ENDSEC
0
SECTION
2
ENTITIES
0
LWPOLYLINE
100
AcDbEntity
8
CUCITURA
100
AcDbPolyline
90
4
70
1
10
52.0000
20
0.0000
10
348.0000
20
0.0000
10
400.0000
20
-400.0000
10
0.0000
20
-400.0000
0
LWPOLYLINE
100
AcDbEntity
8
TAGLIO_STUDIO
100
AcDbPolyline
90
4
70
1
10
45.8511
20
7.0000
10
354.1489
20
7.0000
10
407.9689
20
-407.0000
10
-7.9689
20
-407.0000
0
LWPOLYLINE
100
AcDbEntity
8
CUCITURA
100
AcDbPolyline
90
4
70
1
10
512.0000
20
0.0000
10
808.0000
20
0.0000
10
860.0000
20
-400.0000
10
460.0000
20
-400.0000
0
LWPOLYLINE
100
AcDbEntity
8
TAGLIO_STUDIO
100
AcDbPolyline
90
4
70
1
10
505.8511
20
7.0000
10
814.1489
20
7.0000
10
867.9689
20
-407.0000
10
452.0311
20
-407.0000
0
LWPOLYLINE
100
AcDbEntity
8
CUCITURA
100
AcDbPolyline
90
4
70
1
10
0.0000
20
-460.0000
10
1502.7317
20
-460.0000
10
1502.7317
20
-700.0000
10
0.0000
20
-700.0000
0
LWPOLYLINE
100
AcDbEntity
8
TAGLIO_STUDIO
100
AcDbPolyline
90
4
70
1
10
-7.0000
20
-453.0000
10
1509.7317
20
-453.0000
10
1509.7317
20
-707.0000
10
-7.0000
20
-707.0000
0
ENDSEC
0
EOF
