0
SECTION
2
HEADER
9
$INSUNITS
70
4
0
ENDSEC
0
SECTION
2
ENTITIES
0
LWPOLYLINE
100
AcDbEntity
8
CUCITURA
100
AcDbPolyline
90
6
70
1
10
21.0000
20
0.0000
10
279.0000
20
0.0000
10
300.0000
20
-213.4000
10
291.0000
20
-220.0000
10
9.0000
20
-220.0000
10
0.0000
20
-213.4000
0
LWPOLYLINE
100
AcDbEntity
8
TAGLIO_STUDIO
100
AcDbPolyline
90
6
70
1
10
14.6550
20
7.0000
10
285.3450
20
7.0000
10
307.3571
20
-216.6853
10
293.2916
20
-227.0000
10
6.7084
20
-227.0000
10
-7.3571
20
-216.6853
0
LWPOLYLINE
100
AcDbEntity
8
CUCITURA
100
AcDbPolyline
90
6
70
1
10
381.0000
20
0.0000
10
639.0000
20
0.0000
10
660.0000
20
-213.4000
10
651.0000
20
-220.0000
10
369.0000
20
-220.0000
10
360.0000
20
-213.4000
0
LWPOLYLINE
100
AcDbEntity
8
TAGLIO_STUDIO
100
AcDbPolyline
90
6
70
1
10
374.6550
20
7.0000
10
645.3450
20
7.0000
10
667.3571
20
-216.6853
10
653.2916
20
-227.0000
10
366.7084
20
-227.0000
10
352.6429
20
-216.6853
0
LWPOLYLINE
100
AcDbEntity
8
CUCITURA
100
AcDbPolyline
90
4
70
1
10
0.0000
20
-280.0000
10
991.1829
20
-280.0000
10
991.1829
20
-440.0000
10
0.0000
20
-440.0000
0
LWPOLYLINE
100
AcDbEntity
8
TAGLIO_STUDIO
100
AcDbPolyline
90
4
70
1
10
-7.0000
20
-273.0000
10
998.1829
20
-273.0000
10
998.1829
20
-447.0000
10
-7.0000
20
-447.0000
0
ENDSEC
0
EOF
