0
SECTION
2
HEADER
9
$INSUNITS
70
4
0
ENDSEC
0
SECTION
2
ENTITIES
0
LWPOLYLINE
100
AcDbEntity
8
CUCITURA
100
AcDbPolyline
90
30
70
1
10
0.0000
20
-240.0000
10
0.0000
20
-84.0000
10
1.0481
20
-74.2482
10
4.1780
20
-64.6283
10
9.3476
20
-55.2703
10
16.4869
20
-46.3009
10
25.4994
20
-37.8412
10
36.2631
20
-30.0058
10
48.6325
20
-22.9006
10
62.4404
20
-16.6217
10
77.5000
20
-11.2539
10
93.6076
20
-6.8698
10
110.5455
20
-3.5289
10
128.0845
20
-1.2761
10
145.9876
20
-0.1421
10
164.0124
20
-0.1421
10
181.9155
20
-1.2761
10
199.4545
20
-3.5289
10
216.3924
20
-6.8698
10
232.5000
20
-11.2539
10
247.5596
20
-16.6217
10
261.3675
20
-22.9006
10
273.7369
20
-30.0058
10
284.5006
20
-37.8412
10
293.5131
20
-46.3009
10
300.6524
20
-55.2703
10
305.8220
20
-64.6283
10
308.9519
20
-74.2482
10
310.0000
20
-84.0000
10
310.0000
20
-240.0000
0
LWPOLYLINE
100
AcDbEntity
8
TAGLIO_STUDIO
100
AcDbPolyline
90
30
70
1
10
-7.0000
20
-247.0000
10
-7.0000
20
-83.6249
10
-5.8340
20
-72.7755
10
-2.2719
20
-61.8277
10
3.5047
20
-51.3709
10
11.3262
20
-41.5444
10
21.0269
20
-32.4388
10
32.4489
20
-24.1242
10
45.4333
20
-16.6657
10
59.8118
20
-10.1272
10
75.4026
20
-4.5701
10
92.0091
20
-0.0503
10
109.4210
20
3.3842
10
127.4167
20
5.6956
10
145.7661
20
6.8579
10
164.2339
20
6.8579
10
182.5833
20
5.6956
10
200.5790
20
3.3842
10
217.9909
20
-0.0503
10
234.5974
20
-4.5701
10
250.1882
20
-10.1272
10
264.5667
20
-16.6657
10
277.5511
20
-24.1242
10
288.9731
20
-32.4388
10
298.6738
20
-41.5444
10
306.4953
20
-51.3709
10
312.2719
20
-61.8277
10
315.8340
20
-72.7755
10
317.0000
20
-83.6249
10
317.0000
20
-247.0000
0
LWPOLYLINE
100
AcDbEntity
8
CUCITURA
100
AcDbPolyline
90
30
70
1
10
370.0000
20
-240.0000
10
370.0000
20
-84.0000
10
371.0481
20
-74.2482
10
374.1780
20
-64.6283
10
379.3476
20
-55.2703
10
386.4869
20
-46.3009
10
395.4994
20
-37.8412
10
406.2631
20
-30.0058
10
418.6325
20
-22.9006
10
432.4404
20
-16.6217
10
447.5000
20
-11.2539
10
463.6076
20
-6.8698
10
480.5455
20
-3.5289
10
498.0845
20
-1.2761
10
515.9876
20
-0.1421
10
534.0124
20
-0.1421
10
551.9155
20
-1.2761
10
569.4545
20
-3.5289
10
586.3924
20
-6.8698
10
602.5000
20
-11.2539
10
617.5596
20
-16.6217
10
631.3675
20
-22.9006
10
643.7369
20
-30.0058
10
654.5006
20
-37.8412
10
663.5131
20
-46.3009
10
670.6524
20
-55.2703
10
675.8220
20
-64.6283
10
678.9519
20
-74.2482
10
680.0000
20
-84.0000
10
680.0000
20
-240.0000
0
LWPOLYLINE
100
AcDbEntity
8
TAGLIO_STUDIO
100
AcDbPolyline
90
30
70
1
10
363.0000
20
-247.0000
10
363.0000
20
-83.6249
10
364.1660
20
-72.7755
10
367.7281
20
-61.8277
10
373.5047
20
-51.3709
10
381.3262
20
-41.5444
10
391.0269
20
-32.4388
10
402.4489
20
-24.1242
10
415.4333
20
-16.6657
10
429.8118
20
-10.1272
10
445.4026
20
-4.5701
10
462.0091
20
-0.0503
10
479.4210
20
3.3842
10
497.4167
20
5.6956
10
515.7661
20
6.8579
10
534.2339
20
6.8579
10
552.5833
20
5.6956
10
570.5790
20
3.3842
10
587.9909
20
-0.0503
10
604.5974
20
-4.5701
10
620.1882
20
-10.1272
10
634.5667
20
-16.6657
10
647.5511
20
-24.1242
10
658.9731
20
-32.4388
10
668.6738
20
-41.5444
10
676.4953
20
-51.3709
10
682.2719
20
-61.8277
10
685.8340
20
-72.7755
10
687.0000
20
-83.6249
10
687.0000
20
-247.0000
0
LWPOLYLINE
100
AcDbEntity
8
CUCITURA
100
AcDbPolyline
90
4
70
1
10
0.0000
20
-300.0000
10
1005.5334
20
-300.0000
10
1005.5334
20
-420.0000
10
0.0000
20
-420.0000
0
LWPOLYLINE
100
AcDbEntity
8
TAGLIO_STUDIO
100
AcDbPolyline
90
4
70
1
10
-7.0000
20
-293.0000
10
1012.5334
20
-293.0000
10
1012.5334
20
-427.0000
10
-7.0000
20
-427.0000
0
ENDSEC
0
EOF
