0
SECTION
2
HEADER
9
$INSUNITS
70
4
0
ENDSEC
0
SECTION
2
ENTITIES
0
LWPOLYLINE
100
AcDbEntity
8
CUCITURA
100
AcDbPolyline
90
16
70
1
10
0.0000
20
-25.5000
10
12.0000
20
0.0000
10
32.0000
20
-10.2000
10
52.0000
20
-51.0000
10
80.0000
20
-68.0000
10
120.0000
20
-68.0000
10
148.0000
20
-51.0000
10
168.0000
20
-10.2000
10
188.0000
20
0.0000
10
200.0000
20
-25.5000
10
192.0000
20
-108.8000
10
168.0000
20
-146.2000
10
128.0000
20
-170.0000
10
72.0000
20
-170.0000
10
32.0000
20
-146.2000
10
8.0000
20
-108.8000
0
LWPOLYLINE
100
AcDbEntity
8
TAGLIO_STUDIO
100
AcDbPolyline
90
16
70
1
10
-7.1516
20
-24.2573
10
8.7431
20
9.5188
10
37.2586
20
-5.0241
10
57.3838
20
-46.0796
10
81.9586
20
-61.0000
10
118.0414
20
-61.0000
10
142.6162
20
-46.0796
10
162.7414
20
-5.0241
10
191.2569
20
9.5188
10
207.1516
20
-24.2573
10
198.8060
20
-111.1551
10
172.9991
20
-151.3709
10
129.9250
20
-177.0000
10
70.0750
20
-177.0000
10
27.0009
20
-151.3709
10
1.1940
20
-111.1551
0
LWPOLYLINE
100
AcDbEntity
8
CUCITURA
100
AcDbPolyline
90
16
70
1
10
260.0000
20
-25.5000
10
272.0000
20
0.0000
10
292.0000
20
-10.2000
10
312.0000
20
-51.0000
10
340.0000
20
-68.0000
10
380.0000
20
-68.0000
10
408.0000
20
-51.0000
10
428.0000
20
-10.2000
10
448.0000
20
0.0000
10
460.0000
20
-25.5000
10
452.0000
20
-108.8000
10
428.0000
20
-146.2000
10
388.0000
20
-170.0000
10
332.0000
20
-170.0000
10
292.0000
20
-146.2000
10
268.0000
20
-108.8000
0
LWPOLYLINE
100
AcDbEntity
8
TAGLIO_STUDIO
100
AcDbPolyline
90
16
70
1
10
252.8484
20
-24.2573
10
268.7431
20
9.5188
10
297.2586
20
-5.0241
10
317.3838
20
-46.0796
10
341.9586
20
-61.0000
10
378.0414
20
-61.0000
10
402.6162
20
-46.0796
10
422.7414
20
-5.0241
10
451.2569
20
9.5188
10
467.1516
20
-24.2573
10
458.8060
20
-111.1551
10
432.9991
20
-151.3709
10
389.9250
20
-177.0000
10
330.0750
20
-177.0000
10
287.0009
20
-151.3709
10
261.1940
20
-111.1551
0
LWPOLYLINE
100
AcDbEntity
8
CUCITURA
100
AcDbPolyline
90
4
70
1
10
0.0000
20
-230.0000
10
702.9897
20
-230.0000
10
702.9897
20
-290.0000
10
0.0000
20
-290.0000
0
LWPOLYLINE
100
AcDbEntity
8
TAGLIO_STUDIO
100
AcDbPolyline
90
4
70
1
10
-7.0000
20
-223.0000
10
709.9897
20
-223.0000
10
709.9897
20
-297.0000
10
-7.0000
20
-297.0000
0
ENDSEC
0
EOF
