0
SECTION
2
HEADER
9
$INSUNITS
70
4
0
ENDSEC
0
SECTION
2
ENTITIES
0
LWPOLYLINE
100
AcDbEntity
8
CUCITURA
100
AcDbPolyline
90
30
70
1
10
0.0000
20
-120.0000
10
0.0000
20
-42.0000
10
0.9128
20
-37.1241
10
3.6389
20
-32.3141
10
8.1415
20
-27.6352
10
14.3596
20
-23.1504
10
22.2091
20
-18.9206
10
31.5840
20
-15.0029
10
42.3574
20
-11.4503
10
54.3836
20
-8.3108
10
67.5000
20
-5.6269
10
81.5292
20
-3.4349
10
96.2816
20
-1.7644
10
111.5575
20
-0.6381
10
127.1504
20
-0.0711
10
142.8496
20
-0.0711
10
158.4425
20
-0.6381
10
173.7184
20
-1.7644
10
188.4708
20
-3.4349
10
202.5000
20
-5.6269
10
215.6164
20
-8.3108
10
227.6426
20
-11.4503
10
238.4160
20
-15.0029
10
247.7909
20
-18.9206
10
255.6404
20
-23.1504
10
261.8585
20
-27.6352
10
266.3611
20
-32.3141
10
269.0872
20
-37.1241
10
270.0000
20
-42.0000
10
270.0000
20
-120.0000
0
LWPOLYLINE
100
AcDbEntity
8
TAGLIO_STUDIO
100
AcDbPolyline
90
30
70
1
10
-7.0000
20
-127.0000
10
-7.0000
20
-41.3504
10
-5.7528
20
-34.6883
10
-2.0163
20
-28.0956
10
3.5350
20
-22.3268
10
10.6361
20
-17.2053
10
19.1920
20
-12.5948
10
29.1347
20
-8.4398
10
40.3752
20
-4.7332
10
52.7968
20
-1.4905
10
66.2574
20
1.2638
10
80.5947
20
3.5040
10
95.6301
20
5.2065
10
111.1728
20
6.3526
10
127.0232
20
6.9289
10
142.9768
20
6.9289
10
158.8272
20
6.3526
10
174.3699
20
5.2065
10
189.4053
20
3.5040
10
203.7426
20
1.2638
10
217.2032
20
-1.4905
10
229.6248
20
-4.7332
10
240.8653
20
-8.4398
10
250.8080
20
-12.5948
10
259.3639
20
-17.2053
10
266.4650
20
-22.3268
10
272.0163
20
-28.0956
10
275.7528
20
-34.6883
10
277.0000
20
-41.3504
10
277.0000
20
-127.0000
0
LWPOLYLINE
100
AcDbEntity
8
CUCITURA
100
AcDbPolyline
90
30
70
1
10
330.0000
20
-120.0000
10
330.0000
20
-42.0000
10
330.9128
20
-37.1241
10
333.6389
20
-32.3141
10
338.1415
20
-27.6352
10
344.3596
20
-23.1504
10
352.2091
20
-18.9206
10
361.5840
20
-15.0029
10
372.3574
20
-11.4503
10
384.3836
20
-8.3108
10
397.5000
20
-5.6269
10
411.5292
20
-3.4349
10
426.2816
20
-1.7644
10
441.5575
20
-0.6381
10
457.1504
20
-0.0711
10
472.8496
20
-0.0711
10
488.4425
20
-0.6381
10
503.7184
20
-1.7644
10
518.4708
20
-3.4349
10
532.5000
20
-5.6269
10
545.6164
20
-8.3108
10
557.6426
20
-11.4503
10
568.4160
20
-15.0029
10
577.7909
20
-18.9206
10
585.6404
20
-23.1504
10
591.8585
20
-27.6352
10
596.3611
20
-32.3141
10
599.0872
20
-37.1241
10
600.0000
20
-42.0000
10
600.0000
20
-120.0000
0
LWPOLYLINE
100
AcDbEntity
8
TAGLIO_STUDIO
100
AcDbPolyline
90
30
70
1
10
323.0000
20
-127.0000
10
323.0000
20
-41.3504
10
324.2472
20
-34.6883
10
327.9837
20
-28.0956
10
333.5350
20
-22.3268
10
340.6361
20
-17.2053
10
349.1920
20
-12.5948
10
359.1347
20
-8.4398
10
370.3752
20
-4.7332
10
382.7968
20
-1.4905
10
396.2574
20
1.2638
10
410.5947
20
3.5040
10
425.6301
20
5.2065
10
441.1728
20
6.3526
10
457.0232
20
6.9289
10
472.9768
20
6.9289
10
488.8272
20
6.3526
10
504.3699
20
5.2065
10
519.4053
20
3.5040
10
533.7426
20
1.2638
10
547.2032
20
-1.4905
10
559.6248
20
-4.7332
10
570.8653
20
-8.4398
10
580.8080
20
-12.5948
10
589.3639
20
-17.2053
10
596.4650
20
-22.3268
10
602.0163
20
-28.0956
10
605.7528
20
-34.6883
10
607.0000
20
-41.3504
10
607.0000
20
-127.0000
0
LWPOLYLINE
100
AcDbEntity
8
CUCITURA
100
AcDbPolyline
90
4
70
1
10
0.0000
20
-180.0000
10
723.4089
20
-180.0000
10
723.4089
20
-270.0000
10
0.0000
20
-270.0000
0
LWPOLYLINE
100
AcDbEntity
8
TAGLIO_STUDIO
100
AcDbPolyline
90
4
70
1
10
-7.0000
20
-173.0000
10
730.4089
20
-173.0000
10
730.4089
20
-277.0000
10
-7.0000
20
-277.0000
0
ENDSEC
0
EOF
