0
SECTION
2
HEADER
9
$INSUNITS
70
4
0
ENDSEC
0
SECTION
2
ENTITIES
0
LWPOLYLINE
100
AcDbEntity
8
CUCITURA
100
AcDbPolyline
90
16
70
1
10
0.0000
20
-42.0000
10
22.8000
20
0.0000
10
60.8000
20
-16.8000
10
98.8000
20
-84.0000
10
152.0000
20
-112.0000
10
228.0000
20
-112.0000
10
281.2000
20
-84.0000
10
319.2000
20
-16.8000
10
357.2000
20
0.0000
10
380.0000
20
-42.0000
10
364.8000
20
-179.2000
10
319.2000
20
-240.8000
10
243.2000
20
-280.0000
10
136.8000
20
-280.0000
10
60.8000
20
-240.8000
10
15.2000
20
-179.2000
0
LWPOLYLINE
100
AcDbEntity
8
TAGLIO_STUDIO
100
AcDbPolyline
90
16
70
1
10
-7.1991
20
-40.5893
10
19.7273
20
9.0120
10
65.7517
20
-11.3356
10
103.8807
20
-78.7637
10
153.7296
20
-105.0000
10
226.2704
20
-105.0000
10
276.1193
20
-78.7637
10
314.2483
20
-11.3356
10
360.2727
20
9.0120
10
387.1991
20
-40.5893
10
371.5495
20
-181.8474
10
323.8568
20
-246.2743
10
244.8989
20
-287.0000
10
135.1011
20
-287.0000
10
56.1432
20
-246.2743
10
8.4505
20
-181.8474
0
LWPOLYLINE
100
AcDbEntity
8
CUCITURA
100
AcDbPolyline
90
16
70
1
10
440.0000
20
-42.0000
10
462.8000
20
0.0000
10
500.8000
20
-16.8000
10
538.8000
20
-84.0000
10
592.0000
20
-112.0000
10
668.0000
20
-112.0000
10
721.2000
20
-84.0000
10
759.2000
20
-16.8000
10
797.2000
20
0.0000
10
820.0000
20
-42.0000
10
804.8000
20
-179.2000
10
759.2000
20
-240.8000
10
683.2000
20
-280.0000
10
576.8000
20
-280.0000
10
500.8000
20
-240.8000
10
455.2000
20
-179.2000
0
LWPOLYLINE
100
AcDbEntity
8
TAGLIO_STUDIO
100
AcDbPolyline
90
16
70
1
10
432.8009
20
-40.5893
10
459.7273
20
9.0120
10
505.7517
20
-11.3356
10
543.8807
20
-78.7637
10
593.7296
20
-105.0000
10
666.2704
20
-105.0000
10
716.1193
20
-78.7637
10
754.2483
20
-11.3356
10
800.2727
20
9.0120
10
827.1991
20
-40.5893
10
811.5495
20
-181.8474
10
763.8568
20
-246.2743
10
684.8989
20
-287.0000
10
575.1011
20
-287.0000
10
496.1432
20
-246.2743
10
448.4505
20
-181.8474
0
LWPOLYLINE
100
AcDbEntity
8
CUCITURA
100
AcDbPolyline
90
4
70
1
10
0.0000
20
-340.0000
10
1236.1021
20
-340.0000
10
1236.1021
20
-490.0000
10
0.0000
20
-490.0000
0
LWPOLYLINE
100
AcDbEntity
8
TAGLIO_STUDIO
100
AcDbPolyline
90
4
70
1
10
-7.0000
20
-333.0000
10
1243.1021
20
-333.0000
10
1243.1021
20
-497.0000
10
-7.0000
20
-497.0000
0
ENDSEC
0
EOF
