0
SECTION
2
HEADER
9
$INSUNITS
70
4
0
ENDSEC
0
SECTION
2
ENTITIES
0
LWPOLYLINE
100
AcDbEntity
8
CUCITURA
100
AcDbPolyline
90
4
70
1
10
33.8000
20
0.0000
10
226.2000
20
0.0000
10
260.0000
20
-200.0000
10
0.0000
20
-200.0000
0
LWPOLYLINE
100
AcDbEntity
8
TAGLIO_STUDIO
100
AcDbPolyline
90
4
70
1
10
27.8837
20
7.0000
10
232.1163
20
7.0000
10
268.2823
20
-207.0000
10
-8.2823
20
-207.0000
0
LWPOLYLINE
100
AcDbEntity
8
CUCITURA
100
AcDbPolyline
90
4
70
1
10
353.8000
20
0.0000
10
546.2000
20
0.0000
10
580.0000
20
-200.0000
10
320.0000
20
-200.0000
0
LWPOLYLINE
100
AcDbEntity
8
TAGLIO_STUDIO
100
AcDbPolyline
90
4
70
1
10
347.8837
20
7.0000
10
552.1163
20
7.0000
10
588.2823
20
-207.0000
10
311.7177
20
-207.0000
0
LWPOLYLINE
100
AcDbEntity
8
CUCITURA
100
AcDbPolyline
90
4
70
1
10
0.0000
20
-260.0000
10
858.0720
20
-260.0000
10
858.0720
20
-380.0000
10
0.0000
20
-380.0000
0
LWPOLYLINE
100
AcDbEntity
8
TAGLIO_STUDIO
100
AcDbPolyline
90
4
70
1
10
-7.0000
20
-253.0000
10
865.0720
20
-253.0000
10
865.0720
20
-387.0000
10
-7.0000
20
-387.0000
0
ENDSEC
0
EOF
