0
SECTION
2
HEADER
9
$INSUNITS
70
4
0
ENDSEC
0
SECTION
2
ENTITIES
0
LWPOLYLINE
100
AcDbEntity
8
CUCITURA
100
AcDbPolyline
90
32
70
1
10
0.0000
20
0.0000
10
250.0000
20
0.0000
10
250.0000
20
-94.5000
10
249.2672
20
-106.9877
10
247.0776
20
-119.3291
10
243.4566
20
-131.3793
10
238.4469
20
-142.9972
10
232.1071
20
-154.0465
10
224.5116
20
-164.3976
10
215.7494
20
-173.9293
10
205.9233
20
-182.5297
10
195.1484
20
-190.0981
10
183.5511
20
-196.5456
10
171.2673
20
-201.7968
10
158.4410
20
-205.7900
10
145.2227
20
-208.4785
10
131.7674
20
-209.8306
10
118.2326
20
-209.8306
10
104.7773
20
-208.4785
10
91.5590
20
-205.7900
10
78.7327
20
-201.7968
10
66.4489
20
-196.5456
10
54.8516
20
-190.0981
10
44.0767
20
-182.5297
10
34.2506
20
-173.9293
10
25.4884
20
-164.3976
10
17.8929
20
-154.0465
10
11.5531
20
-142.9972
10
6.5434
20
-131.3793
10
2.9224
20
-119.3291
10
0.7328
20
-106.9877
10
0.0000
20
-94.5000
0
LWPOLYLINE
100
AcDbEntity
8
TAGLIO_STUDIO
100
AcDbPolyline
90
32
70
1
10
-7.0000
20
7.0000
10
257.0000
20
7.0000
10
257.0000
20
-94.7052
10
256.2312
20
-107.8070
10
253.8987
20
-120.9532
10
250.0444
20
-133.7804
10
244.7169
20
-146.1351
10
237.9832
20
-157.8709
10
229.9266
20
-168.8504
10
220.6457
20
-178.9464
10
210.2525
20
-188.0431
10
198.8710
20
-196.0375
10
186.6357
20
-202.8398
10
173.6898
20
-208.3740
10
160.1835
20
-212.5790
10
146.2729
20
-215.4082
10
132.1182
20
-216.8306
10
117.8818
20
-216.8306
10
103.7271
20
-215.4082
10
89.8165
20
-212.5790
10
76.3102
20
-208.3740
10
63.3643
20
-202.8398
10
51.1290
20
-196.0375
10
39.7475
20
-188.0431
10
29.3543
20
-178.9464
10
20.0734
20
-168.8504
10
12.0168
20
-157.8709
10
5.2831
20
-146.1351
10
-0.0444
20
-133.7804
10
-3.8987
20
-120.9532
10
-6.2312
20
-107.8070
10
-7.0000
20
-94.7052
0
LWPOLYLINE
100
AcDbEntity
8
CUCITURA
100
AcDbPolyline
90
32
70
1
10
310.0000
20
0.0000
10
560.0000
20
0.0000
10
560.0000
20
-94.5000
10
559.2672
20
-106.9877
10
557.0776
20
-119.3291
10
553.4566
20
-131.3793
10
548.4469
20
-142.9972
10
542.1071
20
-154.0465
10
534.5116
20
-164.3976
10
525.7494
20
-173.9293
10
515.9233
20
-182.5297
10
505.1484
20
-190.0981
10
493.5511
20
-196.5456
10
481.2673
20
-201.7968
10
468.4410
20
-205.7900
10
455.2227
20
-208.4785
10
441.7674
20
-209.8306
10
428.2326
20
-209.8306
10
414.7773
20
-208.4785
10
401.5590
20
-205.7900
10
388.7327
20
-201.7968
10
376.4489
20
-196.5456
10
364.8516
20
-190.0981
10
354.0767
20
-182.5297
10
344.2506
20
-173.9293
10
335.4884
20
-164.3976
10
327.8929
20
-154.0465
10
321.5531
20
-142.9972
10
316.5434
20
-131.3793
10
312.9224
20
-119.3291
10
310.7328
20
-106.9877
10
310.0000
20
-94.5000
0
LWPOLYLINE
100
AcDbEntity
8
TAGLIO_STUDIO
100
AcDbPolyline
90
32
70
1
10
303.0000
20
7.0000
10
567.0000
20
7.0000
10
567.0000
20
-94.7052
10
566.2312
20
-107.8070
10
563.8987
20
-120.9532
10
560.0444
20
-133.7804
10
554.7169
20
-146.1351
10
547.9832
20
-157.8709
10
539.9266
20
-168.8504
10
530.6457
20
-178.9464
10
520.2525
20
-188.0431
10
508.8710
20
-196.0375
10
496.6357
20
-202.8398
10
483.6898
20
-208.3740
10
470.1835
20
-212.5790
10
456.2729
20
-215.4082
10
442.1182
20
-216.8306
10
427.8818
20
-216.8306
10
413.7271
20
-215.4082
10
399.8165
20
-212.5790
10
386.3102
20
-208.3740
10
373.3643
20
-202.8398
10
361.1290
20
-196.0375
10
349.7475
20
-188.0431
10
339.3543
20
-178.9464
10
330.0734
20
-168.8504
10
322.0168
20
-157.8709
10
315.2831
20
-146.1351
10
309.9556
20
-133.7804
10
306.1013
20
-120.9532
10
303.7688
20
-107.8070
10
303.0000
20
-94.7052
0
LWPOLYLINE
100
AcDbEntity
8
CUCITURA
100
AcDbPolyline
90
4
70
1
10
0.0000
20
-270.0000
10
816.7391
20
-270.0000
10
816.7391
20
-370.0000
10
0.0000
20
-370.0000
0
LWPOLYLINE
100
AcDbEntity
8
TAGLIO_STUDIO
100
AcDbPolyline
90
4
70
1
10
-7.0000
20
-263.0000
10
823.7391
20
-263.0000
10
823.7391
20
-377.0000
10
-7.0000
20
-377.0000
0
ENDSEC
0
EOF
