0
SECTION
2
HEADER
9
$INSUNITS
70
4
0
ENDSEC
0
SECTION
2
ENTITIES
0
LWPOLYLINE
100
AcDbEntity
8
CUCITURA
100
AcDbPolyline
90
30
70
1
10
0.0000
20
-210.0000
10
0.0000
20
-73.5000
10
1.1833
20
-64.9672
10
4.7171
20
-56.5497
10
10.5538
20
-48.3615
10
18.6143
20
-40.5133
10
28.7896
20
-33.1111
10
40.9422
20
-26.2551
10
54.9077
20
-20.0380
10
70.4972
20
-14.5439
10
87.5000
20
-9.8471
10
105.6860
20
-6.0111
10
124.8094
20
-3.0878
10
144.6116
20
-1.1166
10
164.8247
20
-0.1244
10
185.1753
20
-0.1244
10
205.3884
20
-1.1166
10
225.1906
20
-3.0878
10
244.3140
20
-6.0111
10
262.5000
20
-9.8471
10
279.5028
20
-14.5439
10
295.0923
20
-20.0380
10
309.0578
20
-26.2551
10
321.2104
20
-33.1111
10
331.3857
20
-40.5133
10
339.4462
20
-48.3615
10
345.2829
20
-56.5497
10
348.8167
20
-64.9672
10
350.0000
20
-73.5000
10
350.0000
20
-210.0000
0
LWPOLYLINE
100
AcDbEntity
8
TAGLIO_STUDIO
100
AcDbPolyline
90
30
70
1
10
-7.0000
20
-217.0000
10
-7.0000
20
-73.0169
10
-5.6248
20
-63.1003
10
-1.4354
20
-53.1214
10
5.2193
20
-43.7856
10
14.0906
20
-35.1478
10
24.9984
20
-27.2128
10
37.7920
20
-19.9952
10
52.3168
20
-13.5292
10
68.3995
20
-7.8613
10
85.8441
20
-3.0424
10
104.4338
20
0.8788
10
123.9333
20
3.8596
10
144.0929
20
5.8663
10
164.6529
20
6.8756
10
185.3471
20
6.8756
10
205.9071
20
5.8663
10
226.0667
20
3.8596
10
245.5662
20
0.8788
10
264.1559
20
-3.0424
10
281.6005
20
-7.8613
10
297.6832
20
-13.5292
10
312.2080
20
-19.9952
10
325.0016
20
-27.2128
10
335.9094
20
-35.1478
10
344.7807
20
-43.7856
10
351.4354
20
-53.1214
10
355.6248
20
-63.1003
10
357.0000
20
-73.0169
10
357.0000
20
-217.0000
0
LWPOLYLINE
100
AcDbEntity
8
CUCITURA
100
AcDbPolyline
90
30
70
1
10
410.0000
20
-210.0000
10
410.0000
20
-73.5000
10
411.1833
20
-64.9672
10
414.7171
20
-56.5497
10
420.5538
20
-48.3615
10
428.6143
20
-40.5133
10
438.7896
20
-33.1111
10
450.9422
20
-26.2551
10
464.9077
20
-20.0380
10
480.4972
20
-14.5439
10
497.5000
20
-9.8471
10
515.6860
20
-6.0111
10
534.8094
20
-3.0878
10
554.6116
20
-1.1166
10
574.8247
20
-0.1244
10
595.1753
20
-0.1244
10
615.3884
20
-1.1166
10
635.1906
20
-3.0878
10
654.3140
20
-6.0111
10
672.5000
20
-9.8471
10
689.5028
20
-14.5439
10
705.0923
20
-20.0380
10
719.0578
20
-26.2551
10
731.2104
20
-33.1111
10
741.3857
20
-40.5133
10
749.4462
20
-48.3615
10
755.2829
20
-56.5497
10
758.8167
20
-64.9672
10
760.0000
20
-73.5000
10
760.0000
20
-210.0000
0
LWPOLYLINE
100
AcDbEntity
8
TAGLIO_STUDIO
100
AcDbPolyline
90
30
70
1
10
403.0000
20
-217.0000
10
403.0000
20
-73.0169
10
404.3752
20
-63.1003
10
408.5646
20
-53.1214
10
415.2193
20
-43.7856
10
424.0906
20
-35.1478
10
434.9984
20
-27.2128
10
447.7920
20
-19.9952
10
462.3168
20
-13.5292
10
478.3995
20
-7.8613
10
495.8441
20
-3.0424
10
514.4338
20
0.8788
10
533.9333
20
3.8596
10
554.0929
20
5.8663
10
574.6529
20
6.8756
10
595.3471
20
6.8756
10
615.9071
20
5.8663
10
636.0667
20
3.8596
10
655.5662
20
0.8788
10
674.1559
20
-3.0424
10
691.6005
20
-7.8613
10
707.6832
20
-13.5292
10
722.2080
20
-19.9952
10
735.0016
20
-27.2128
10
745.9094
20
-35.1478
10
754.7807
20
-43.7856
10
761.4354
20
-53.1214
10
765.6248
20
-63.1003
10
767.0000
20
-73.0169
10
767.0000
20
-217.0000
0
LWPOLYLINE
100
AcDbEntity
8
CUCITURA
100
AcDbPolyline
90
4
70
1
10
0.0000
20
-270.0000
10
1029.5712
20
-270.0000
10
1029.5712
20
-450.0000
10
0.0000
20
-450.0000
0
LWPOLYLINE
100
AcDbEntity
8
TAGLIO_STUDIO
100
AcDbPolyline
90
4
70
1
10
-7.0000
20
-263.0000
10
1036.5712
20
-263.0000
10
1036.5712
20
-457.0000
10
-7.0000
20
-457.0000
0
ENDSEC
0
EOF
