0
SECTION
2
HEADER
9
$INSUNITS
70
4
0
ENDSEC
0
SECTION
2
ENTITIES
0
LWPOLYLINE
100
AcDbEntity
8
CUCITURA
100
AcDbPolyline
90
4
70
1
10
0.0000
20
0.0000
10
330.0000
20
0.0000
10
330.0000
20
-230.0000
10
0.0000
20
-230.0000
0
LWPOLYLINE
100
AcDbEntity
8
TAGLIO_STUDIO
100
AcDbPolyline
90
4
70
1
10
-7.0000
20
7.0000
10
337.0000
20
7.0000
10
337.0000
20
-237.0000
10
-7.0000
20
-237.0000
0
LWPOLYLINE
100
AcDbEntity
8
CUCITURA
100
AcDbPolyline
90
4
70
1
10
390.0000
20
0.0000
10
720.0000
20
0.0000
10
720.0000
20
-230.0000
10
390.0000
20
-230.0000
0
LWPOLYLINE
100
AcDbEntity
8
TAGLIO_STUDIO
100
AcDbPolyline
90
4
70
1
10
383.0000
20
7.0000
10
727.0000
20
7.0000
10
727.0000
20
-237.0000
10
383.0000
20
-237.0000
0
LWPOLYLINE
100
AcDbEntity
8
CUCITURA
100
AcDbPolyline
90
4
70
1
10
0.0000
20
-290.0000
10
1120.0000
20
-290.0000
10
1120.0000
20
-460.0000
10
0.0000
20
-460.0000
0
LWPOLYLINE
100
AcDbEntity
8
TAGLIO_STUDIO
100
AcDbPolyline
90
4
70
1
10
-7.0000
20
-283.0000
10
1127.0000
20
-283.0000
10
1127.0000
20
-467.0000
10
-7.0000
20
-467.0000
0
ENDSEC
0
EOF
