0
SECTION
2
HEADER
9
$INSUNITS
70
4
0
ENDSEC
0
SECTION
2
ENTITIES
0
LWPOLYLINE
100
AcDbEntity
8
CUCITURA
100
AcDbPolyline
90
4
70
1
10
46.8000
20
0.0000
10
313.2000
20
0.0000
10
360.0000
20
-265.0000
10
0.0000
20
-265.0000
0
LWPOLYLINE
100
AcDbEntity
8
TAGLIO_STUDIO
100
AcDbPolyline
90
4
70
1
10
40.9279
20
7.0000
10
319.0721
20
7.0000
10
368.3445
20
-272.0000
10
-8.3445
20
-272.0000
0
LWPOLYLINE
100
AcDbEntity
8
CUCITURA
100
AcDbPolyline
90
4
70
1
10
466.8000
20
0.0000
10
733.2000
20
0.0000
10
780.0000
20
-265.0000
10
420.0000
20
-265.0000
0
LWPOLYLINE
100
AcDbEntity
8
TAGLIO_STUDIO
100
AcDbPolyline
90
4
70
1
10
460.9279
20
7.0000
10
739.0721
20
7.0000
10
788.3445
20
-272.0000
10
411.6555
20
-272.0000
0
LWPOLYLINE
100
AcDbEntity
8
CUCITURA
100
AcDbPolyline
90
4
70
1
10
0.0000
20
-325.0000
10
1164.6016
20
-325.0000
10
1164.6016
20
-490.0000
10
0.0000
20
-490.0000
0
LWPOLYLINE
100
AcDbEntity
8
TAGLIO_STUDIO
100
AcDbPolyline
90
4
70
1
10
-7.0000
20
-318.0000
10
1171.6016
20
-318.0000
10
1171.6016
20
-497.0000
10
-7.0000
20
-497.0000
0
ENDSEC
0
EOF
