0
SECTION
2
HEADER
9
$INSUNITS
70
4
0
ENDSEC
0
SECTION
2
ENTITIES
0
LWPOLYLINE
100
AcDbEntity
8
CUCITURA
100
AcDbPolyline
90
10
70
1
10
96.0000
20
0.0000
10
224.0000
20
0.0000
10
268.8000
20
-36.8000
10
320.0000
20
-98.9000
10
291.2000
20
-211.6000
10
240.0000
20
-230.0000
10
80.0000
20
-230.0000
10
28.8000
20
-211.6000
10
0.0000
20
-98.9000
10
51.2000
20
-36.8000
0
LWPOLYLINE
100
AcDbEntity
8
TAGLIO_STUDIO
100
AcDbPolyline
90
10
70
1
10
93.4936
20
7.0000
10
226.5064
20
7.0000
10
273.7685
20
-31.8224
10
327.6621
20
-97.1894
10
297.0625
20
-216.9315
10
241.2196
20
-237.0000
10
78.7804
20
-237.0000
10
22.9375
20
-216.9315
10
-7.6621
20
-97.1894
10
46.2315
20
-31.8224
0
LWPOLYLINE
100
AcDbEntity
8
CUCITURA
100
AcDbPolyline
90
10
70
1
10
476.0000
20
0.0000
10
604.0000
20
0.0000
10
648.8000
20
-36.8000
10
700.0000
20
-98.9000
10
671.2000
20
-211.6000
10
620.0000
20
-230.0000
10
460.0000
20
-230.0000
10
408.8000
20
-211.6000
10
380.0000
20
-98.9000
10
431.2000
20
-36.8000
0
LWPOLYLINE
100
AcDbEntity
8
TAGLIO_STUDIO
100
AcDbPolyline
90
10
70
1
10
473.4936
20
7.0000
10
606.5064
20
7.0000
10
653.7685
20
-31.8224
10
707.6621
20
-97.1894
10
677.0625
20
-216.9315
10
621.2196
20
-237.0000
10
458.7804
20
-237.0000
10
402.9375
20
-216.9315
10
372.3379
20
-97.1894
10
426.2315
20
-31.8224
0
LWPOLYLINE
100
AcDbEntity
8
CUCITURA
100
AcDbPolyline
90
4
70
1
10
0.0000
20
-290.0000
10
906.3784
20
-290.0000
10
906.3784
20
-450.0000
10
0.0000
20
-450.0000
0
LWPOLYLINE
100
AcDbEntity
8
TAGLIO_STUDIO
100
AcDbPolyline
90
4
70
1
10
-7.0000
20
-283.0000
10
913.3784
20
-283.0000
10
913.3784
20
-457.0000
10
-7.0000
20
-457.0000
0
ENDSEC
0
EOF
