0
SECTION
2
HEADER
9
$INSUNITS
70
4
0
ENDSEC
0
SECTION
2
ENTITIES
0
LWPOLYLINE
100
AcDbEntity
8
CUCITURA
100
AcDbPolyline
90
30
70
1
10
0.0000
20
-350.0000
10
0.0000
20
-122.5000
10
1.0142
20
-108.2786
10
4.0433
20
-94.2496
10
9.0461
20
-80.6025
10
15.9551
20
-67.5221
10
24.6768
20
-55.1852
10
35.0933
20
-43.7585
10
47.0638
20
-33.3967
10
60.4262
20
-24.2399
10
75.0000
20
-16.4119
10
90.5880
20
-10.0185
10
106.9795
20
-5.1463
10
123.9528
20
-1.8611
10
141.2783
20
-0.2073
10
158.7217
20
-0.2073
10
176.0472
20
-1.8611
10
193.0205
20
-5.1463
10
209.4120
20
-10.0185
10
225.0000
20
-16.4119
10
239.5738
20
-24.2399
10
252.9362
20
-33.3967
10
264.9067
20
-43.7585
10
275.3232
20
-55.1852
10
284.0449
20
-67.5221
10
290.9539
20
-80.6025
10
295.9567
20
-94.2496
10
298.9858
20
-108.2786
10
300.0000
20
-122.5000
10
300.0000
20
-350.0000
0
LWPOLYLINE
100
AcDbEntity
8
TAGLIO_STUDIO
100
AcDbPolyline
90
30
70
1
10
-7.0000
20
-357.0000
10
-7.0000
20
-122.2507
10
-5.9327
20
-107.2860
10
-2.6964
20
-92.2968
10
2.6362
20
-77.7503
10
9.9774
20
-63.8516
10
19.2114
20
-50.7900
10
30.1991
20
-38.7368
10
42.7810
20
-27.8457
10
56.7810
20
-18.2520
10
72.0077
20
-10.0733
10
88.2568
20
-3.4088
10
105.3132
20
1.6611
10
122.9528
20
5.0753
10
140.9449
20
6.7927
10
159.0551
20
6.7927
10
177.0472
20
5.0753
10
194.6868
20
1.6611
10
211.7432
20
-3.4088
10
227.9923
20
-10.0733
10
243.2190
20
-18.2520
10
257.2190
20
-27.8457
10
269.8009
20
-38.7368
10
280.7886
20
-50.7900
10
290.0226
20
-63.8516
10
297.3638
20
-77.7503
10
302.6964
20
-92.2968
10
305.9327
20
-107.2860
10
307.0000
20
-122.2507
10
307.0000
20
-357.0000
0
LWPOLYLINE
100
AcDbEntity
8
CUCITURA
100
AcDbPolyline
90
30
70
1
10
360.0000
20
-350.0000
10
360.0000
20
-122.5000
10
361.0142
20
-108.2786
10
364.0433
20
-94.2496
10
369.0461
20
-80.6025
10
375.9551
20
-67.5221
10
384.6768
20
-55.1852
10
395.0933
20
-43.7585
10
407.0638
20
-33.3967
10
420.4262
20
-24.2399
10
435.0000
20
-16.4119
10
450.5880
20
-10.0185
10
466.9795
20
-5.1463
10
483.9528
20
-1.8611
10
501.2783
20
-0.2073
10
518.7217
20
-0.2073
10
536.0472
20
-1.8611
10
553.0205
20
-5.1463
10
569.4120
20
-10.0185
10
585.0000
20
-16.4119
10
599.5738
20
-24.2399
10
612.9362
20
-33.3967
10
624.9067
20
-43.7585
10
635.3232
20
-55.1852
10
644.0449
20
-67.5221
10
650.9539
20
-80.6025
10
655.9567
20
-94.2496
10
658.9858
20
-108.2786
10
660.0000
20
-122.5000
10
660.0000
20
-350.0000
0
LWPOLYLINE
100
AcDbEntity
8
TAGLIO_STUDIO
100
AcDbPolyline
90
30
70
1
10
353.0000
20
-357.0000
10
353.0000
20
-122.2507
10
354.0673
20
-107.2860
10
357.3036
20
-92.2968
10
362.6362
20
-77.7503
10
369.9774
20
-63.8516
10
379.2114
20
-50.7900
10
390.1991
20
-38.7368
10
402.7810
20
-27.8457
10
416.7810
20
-18.2520
10
432.0077
20
-10.0733
10
448.2568
20
-3.4088
10
465.3132
20
1.6611
10
482.9528
20
5.0753
10
500.9449
20
6.7927
10
519.0551
20
6.7927
10
537.0472
20
5.0753
10
554.6868
20
1.6611
10
571.7432
20
-3.4088
10
587.9923
20
-10.0733
10
603.2190
20
-18.2520
10
617.2190
20
-27.8457
10
629.8009
20
-38.7368
10
640.7886
20
-50.7900
10
650.0226
20
-63.8516
10
657.3638
20
-77.7503
10
662.6964
20
-92.2968
10
665.9327
20
-107.2860
10
667.0000
20
-122.2507
10
667.0000
20
-357.0000
0
LWPOLYLINE
100
AcDbEntity
8
CUCITURA
100
AcDbPolyline
90
4
70
1
10
0.0000
20
-410.0000
10
1183.8905
20
-410.0000
10
1183.8905
20
-560.0000
10
0.0000
20
-560.0000
0
LWPOLYLINE
100
AcDbEntity
8
TAGLIO_STUDIO
100
AcDbPolyline
90
4
70
1
10
-7.0000
20
-403.0000
10
1190.8905
20
-403.0000
10
1190.8905
20
-567.0000
10
-7.0000
20
-567.0000
0
ENDSEC
0
EOF
