0
SECTION
2
HEADER
9
$INSUNITS
70
4
0
ENDSEC
0
SECTION
2
ENTITIES
0
LWPOLYLINE
100
AcDbEntity
8
CUCITURA
100
AcDbPolyline
90
4
70
1
10
36.4000
20
0.0000
10
243.6000
20
0.0000
10
280.0000
20
-200.0000
10
0.0000
20
-200.0000
0
LWPOLYLINE
100
AcDbEntity
8
TAGLIO_STUDIO
100
AcDbPolyline
90
4
70
1
10
30.5590
20
7.0000
10
249.4410
20
7.0000
10
288.3890
20
-207.0000
10
-8.3890
20
-207.0000
0
LWPOLYLINE
100
AcDbEntity
8
CUCITURA
100
AcDbPolyline
90
4
70
1
10
376.4000
20
0.0000
10
583.6000
20
0.0000
10
620.0000
20
-200.0000
10
340.0000
20
-200.0000
0
LWPOLYLINE
100
AcDbEntity
8
TAGLIO_STUDIO
100
AcDbPolyline
90
4
70
1
10
370.5590
20
7.0000
10
589.4410
20
7.0000
10
628.3890
20
-207.0000
10
331.6110
20
-207.0000
0
LWPOLYLINE
100
AcDbEntity
8
CUCITURA
100
AcDbPolyline
90
4
70
1
10
0.0000
20
-260.0000
10
893.7708
20
-260.0000
10
893.7708
20
-380.0000
10
0.0000
20
-380.0000
0
LWPOLYLINE
100
AcDbEntity
8
TAGLIO_STUDIO
100
AcDbPolyline
90
4
70
1
10
-7.0000
20
-253.0000
10
900.7708
20
-253.0000
10
900.7708
20
-387.0000
10
-7.0000
20
-387.0000
0
ENDSEC
0
EOF
