0
SECTION
2
HEADER
9
$INSUNITS
70
4
0
ENDSEC
0
SECTION
2
ENTITIES
0
LWPOLYLINE
100
AcDbEntity
8
CUCITURA
100
AcDbPolyline
90
16
70
1
10
0.0000
20
-33.0000
10
16.8000
20
0.0000
10
44.8000
20
-13.2000
10
72.8000
20
-66.0000
10
112.0000
20
-88.0000
10
168.0000
20
-88.0000
10
207.2000
20
-66.0000
10
235.2000
20
-13.2000
10
263.2000
20
0.0000
10
280.0000
20
-33.0000
10
268.8000
20
-140.8000
10
235.2000
20
-189.2000
10
179.2000
20
-220.0000
10
100.8000
20
-220.0000
10
44.8000
20
-189.2000
10
11.2000
20
-140.8000
0
LWPOLYLINE
100
AcDbEntity
8
TAGLIO_STUDIO
100
AcDbPolyline
90
16
70
1
10
-7.1762
20
-31.6668
10
13.6426
20
9.2273
10
49.8926
20
-7.8619
10
78.0202
20
-60.9027
10
113.8300
20
-81.0000
10
166.1700
20
-81.0000
10
201.9798
20
-60.9027
10
230.1074
20
-7.8619
10
266.3574
20
9.2273
10
287.1762
20
-31.6668
10
275.5765
20
-143.3135
10
240.0132
20
-194.5417
10
180.9980
20
-227.0000
10
99.0020
20
-227.0000
10
39.9868
20
-194.5417
10
4.4235
20
-143.3135
0
LWPOLYLINE
100
AcDbEntity
8
CUCITURA
100
AcDbPolyline
90
16
70
1
10
340.0000
20
-33.0000
10
356.8000
20
0.0000
10
384.8000
20
-13.2000
10
412.8000
20
-66.0000
10
452.0000
20
-88.0000
10
508.0000
20
-88.0000
10
547.2000
20
-66.0000
10
575.2000
20
-13.2000
10
603.2000
20
0.0000
10
620.0000
20
-33.0000
10
608.8000
20
-140.8000
10
575.2000
20
-189.2000
10
519.2000
20
-220.0000
10
440.8000
20
-220.0000
10
384.8000
20
-189.2000
10
351.2000
20
-140.8000
0
LWPOLYLINE
100
AcDbEntity
8
TAGLIO_STUDIO
100
AcDbPolyline
90
16
70
1
10
332.8238
20
-31.6668
10
353.6426
20
9.2273
10
389.8926
20
-7.8619
10
418.0202
20
-60.9027
10
453.8300
20
-81.0000
10
506.1700
20
-81.0000
10
541.9798
20
-60.9027
10
570.1074
20
-7.8619
10
606.3574
20
9.2273
10
627.1762
20
-31.6668
10
615.5765
20
-143.3135
10
580.0132
20
-194.5417
10
520.9980
20
-227.0000
10
439.0020
20
-227.0000
10
379.9868
20
-194.5417
10
344.4235
20
-143.3135
0
LWPOLYLINE
100
AcDbEntity
8
CUCITURA
100
AcDbPolyline
90
4
70
1
10
0.0000
20
-280.0000
10
942.2263
20
-280.0000
10
942.2263
20
-340.0000
10
0.0000
20
-340.0000
0
LWPOLYLINE
100
AcDbEntity
8
TAGLIO_STUDIO
100
AcDbPolyline
90
4
70
1
10
-7.0000
20
-273.0000
10
949.2263
20
-273.0000
10
949.2263
20
-347.0000
10
-7.0000
20
-347.0000
0
ENDSEC
0
EOF
