0
SECTION
2
HEADER
9
$INSUNITS
70
4
0
ENDSEC
0
SECTION
2
ENTITIES
0
LWPOLYLINE
100
AcDbEntity
8
CUCITURA
100
AcDbPolyline
90
16
70
1
10
0.0000
20
-25.5000
10
13.2000
20
0.0000
10
35.2000
20
-10.2000
10
57.2000
20
-51.0000
10
88.0000
20
-68.0000
10
132.0000
20
-68.0000
10
162.8000
20
-51.0000
10
184.8000
20
-10.2000
10
206.8000
20
0.0000
10
220.0000
20
-25.5000
10
211.2000
20
-108.8000
10
184.8000
20
-146.2000
10
140.8000
20
-170.0000
10
79.2000
20
-170.0000
10
35.2000
20
-146.2000
10
8.8000
20
-108.8000
0
LWPOLYLINE
100
AcDbEntity
8
TAGLIO_STUDIO
100
AcDbPolyline
90
16
70
1
10
-7.1819
20
-24.1470
10
10.0643
20
9.1696
10
40.2564
20
-4.8286
10
62.3845
20
-45.8661
10
89.8036
20
-61.0000
10
130.1964
20
-61.0000
10
157.6155
20
-45.8661
10
179.7436
20
-4.8286
10
209.9357
20
9.1696
10
227.1819
20
-24.1470
10
217.9698
20
-111.3478
10
189.5730
20
-151.5767
10
142.5719
20
-177.0000
10
77.4281
20
-177.0000
10
30.4270
20
-151.5767
10
2.0302
20
-111.3478
0
LWPOLYLINE
100
AcDbEntity
8
CUCITURA
100
AcDbPolyline
90
16
70
1
10
280.0000
20
-25.5000
10
293.2000
20
0.0000
10
315.2000
20
-10.2000
10
337.2000
20
-51.0000
10
368.0000
20
-68.0000
10
412.0000
20
-68.0000
10
442.8000
20
-51.0000
10
464.8000
20
-10.2000
10
486.8000
20
0.0000
10
500.0000
20
-25.5000
10
491.2000
20
-108.8000
10
464.8000
20
-146.2000
10
420.8000
20
-170.0000
10
359.2000
20
-170.0000
10
315.2000
20
-146.2000
10
288.8000
20
-108.8000
0
LWPOLYLINE
100
AcDbEntity
8
TAGLIO_STUDIO
100
AcDbPolyline
90
16
70
1
10
272.8181
20
-24.1470
10
290.0643
20
9.1696
10
320.2564
20
-4.8286
10
342.3845
20
-45.8661
10
369.8036
20
-61.0000
10
410.1964
20
-61.0000
10
437.6155
20
-45.8661
10
459.7436
20
-4.8286
10
489.9357
20
9.1696
10
507.1819
20
-24.1470
10
497.9698
20
-111.3478
10
469.5730
20
-151.5767
10
422.5719
20
-177.0000
10
357.4281
20
-177.0000
10
310.4270
20
-151.5767
10
282.0302
20
-111.3478
0
LWPOLYLINE
100
AcDbEntity
8
CUCITURA
100
AcDbPolyline
90
4
70
1
10
0.0000
20
-230.0000
10
733.7279
20
-230.0000
10
733.7279
20
-290.0000
10
0.0000
20
-290.0000
0
LWPOLYLINE
100
AcDbEntity
8
TAGLIO_STUDIO
100
AcDbPolyline
90
4
70
1
10
-7.0000
20
-223.0000
10
740.7279
20
-223.0000
10
740.7279
20
-297.0000
10
-7.0000
20
-297.0000
0
ENDSEC
0
EOF
