0
SECTION
2
HEADER
9
$INSUNITS
70
4
0
ENDSEC
0
SECTION
2
ENTITIES
0
LWPOLYLINE
100
AcDbEntity
8
CUCITURA
100
AcDbPolyline
90
4
70
1
10
0.0000
20
0.0000
10
310.0000
20
0.0000
10
310.0000
20
-270.0000
10
0.0000
20
-270.0000
0
LWPOLYLINE
100
AcDbEntity
8
TAGLIO_STUDIO
100
AcDbPolyline
90
4
70
1
10
-7.0000
20
7.0000
10
317.0000
20
7.0000
10
317.0000
20
-277.0000
10
-7.0000
20
-277.0000
0
LWPOLYLINE
100
AcDbEntity
8
CUCITURA
100
AcDbPolyline
90
4
70
1
10
370.0000
20
0.0000
10
680.0000
20
0.0000
10
680.0000
20
-270.0000
10
370.0000
20
-270.0000
0
LWPOLYLINE
100
AcDbEntity
8
TAGLIO_STUDIO
100
AcDbPolyline
90
4
70
1
10
363.0000
20
7.0000
10
687.0000
20
7.0000
10
687.0000
20
-277.0000
10
363.0000
20
-277.0000
0
LWPOLYLINE
100
AcDbEntity
8
CUCITURA
100
AcDbPolyline
90
4
70
1
10
0.0000
20
-330.0000
10
1160.0000
20
-330.0000
10
1160.0000
20
-490.0000
10
0.0000
20
-490.0000
0
LWPOLYLINE
100
AcDbEntity
8
TAGLIO_STUDIO
100
AcDbPolyline
90
4
70
1
10
-7.0000
20
-323.0000
10
1167.0000
20
-323.0000
10
1167.0000
20
-497.0000
10
-7.0000
20
-497.0000
0
ENDSEC
0
EOF
