0
SECTION
2
HEADER
9
$INSUNITS
70
4
0
ENDSEC
0
SECTION
2
ENTITIES
0
LWPOLYLINE
100
AcDbEntity
8
CUCITURA
100
AcDbPolyline
90
16
70
1
10
0.0000
20
-27.0000
10
13.2000
20
0.0000
10
35.2000
20
-10.8000
10
57.2000
20
-54.0000
10
88.0000
20
-72.0000
10
132.0000
20
-72.0000
10
162.8000
20
-54.0000
10
184.8000
20
-10.8000
10
206.8000
20
0.0000
10
220.0000
20
-27.0000
10
211.2000
20
-115.2000
10
184.8000
20
-154.8000
10
140.8000
20
-180.0000
10
79.2000
20
-180.0000
10
35.2000
20
-154.8000
10
8.8000
20
-115.2000
0
LWPOLYLINE
100
AcDbEntity
8
TAGLIO_STUDIO
100
AcDbPolyline
90
16
70
1
10
-7.1631
20
-25.7140
10
9.9908
20
9.3734
10
40.3790
20
-5.5444
10
62.5055
20
-48.9929
10
89.8955
20
-65.0000
10
130.1045
20
-65.0000
10
157.4945
20
-48.9929
10
179.6210
20
-5.5444
10
210.0092
20
9.3734
10
227.1631
20
-25.7140
10
217.9922
20
-117.6311
10
189.7097
20
-160.0548
10
142.6626
20
-187.0000
10
77.3374
20
-187.0000
10
30.2903
20
-160.0548
10
2.0078
20
-117.6311
0
LWPOLYLINE
100
AcDbEntity
8
CUCITURA
100
AcDbPolyline
90
16
70
1
10
280.0000
20
-27.0000
10
293.2000
20
0.0000
10
315.2000
20
-10.8000
10
337.2000
20
-54.0000
10
368.0000
20
-72.0000
10
412.0000
20
-72.0000
10
442.8000
20
-54.0000
10
464.8000
20
-10.8000
10
486.8000
20
0.0000
10
500.0000
20
-27.0000
10
491.2000
20
-115.2000
10
464.8000
20
-154.8000
10
420.8000
20
-180.0000
10
359.2000
20
-180.0000
10
315.2000
20
-154.8000
10
288.8000
20
-115.2000
0
LWPOLYLINE
100
AcDbEntity
8
TAGLIO_STUDIO
100
AcDbPolyline
90
16
70
1
10
272.8369
20
-25.7140
10
289.9908
20
9.3734
10
320.3790
20
-5.5444
10
342.5055
20
-48.9929
10
369.8955
20
-65.0000
10
410.1045
20
-65.0000
10
437.4945
20
-48.9929
10
459.6210
20
-5.5444
10
490.0092
20
9.3734
10
507.1631
20
-25.7140
10
497.9922
20
-117.6311
10
469.7097
20
-160.0548
10
422.6626
20
-187.0000
10
357.3374
20
-187.0000
10
310.2903
20
-160.0548
10
282.0078
20
-117.6311
0
LWPOLYLINE
100
AcDbEntity
8
CUCITURA
100
AcDbPolyline
90
4
70
1
10
0.0000
20
-240.0000
10
756.9038
20
-240.0000
10
756.9038
20
-300.0000
10
0.0000
20
-300.0000
0
LWPOLYLINE
100
AcDbEntity
8
TAGLIO_STUDIO
100
AcDbPolyline
90
4
70
1
10
-7.0000
20
-233.0000
10
763.9038
20
-233.0000
10
763.9038
20
-307.0000
10
-7.0000
20
-307.0000
0
ENDSEC
0
EOF
