0
SECTION
2
HEADER
9
$INSUNITS
70
4
0
ENDSEC
0
SECTION
2
ENTITIES
0
LWPOLYLINE
100
AcDbEntity
8
CUCITURA
100
AcDbPolyline
90
4
70
1
10
0.0000
20
0.0000
10
320.0000
20
0.0000
10
320.0000
20
-220.0000
10
0.0000
20
-220.0000
0
LWPOLYLINE
100
AcDbEntity
8
TAGLIO_STUDIO
100
AcDbPolyline
90
4
70
1
10
-7.0000
20
7.0000
10
327.0000
20
7.0000
10
327.0000
20
-227.0000
10
-7.0000
20
-227.0000
0
LWPOLYLINE
100
AcDbEntity
8
CUCITURA
100
AcDbPolyline
90
4
70
1
10
380.0000
20
0.0000
10
700.0000
20
0.0000
10
700.0000
20
-220.0000
10
380.0000
20
-220.0000
0
LWPOLYLINE
100
AcDbEntity
8
TAGLIO_STUDIO
100
AcDbPolyline
90
4
70
1
10
373.0000
20
7.0000
10
707.0000
20
7.0000
10
707.0000
20
-227.0000
10
373.0000
20
-227.0000
0
LWPOLYLINE
100
AcDbEntity
8
CUCITURA
100
AcDbPolyline
90
4
70
1
10
0.0000
20
-280.0000
10
1080.0000
20
-280.0000
10
1080.0000
20
-410.0000
10
0.0000
20
-410.0000
0
LWPOLYLINE
100
AcDbEntity
8
TAGLIO_STUDIO
100
AcDbPolyline
90
4
70
1
10
-7.0000
20
-273.0000
10
1087.0000
20
-273.0000
10
1087.0000
20
-417.0000
10
-7.0000
20
-417.0000
0
ENDSEC
0
EOF
