0
SECTION
2
HEADER
9
$INSUNITS
70
4
0
ENDSEC
0
SECTION
2
ENTITIES
0
LWPOLYLINE
100
AcDbEntity
8
CUCITURA
100
AcDbPolyline
90
4
70
1
10
0.0000
20
0.0000
10
580.0000
20
0.0000
10
580.0000
20
-430.0000
10
0.0000
20
-430.0000
0
LWPOLYLINE
100
AcDbEntity
8
TAGLIO_STUDIO
100
AcDbPolyline
90
4
70
1
10
-7.0000
20
7.0000
10
587.0000
20
7.0000
10
587.0000
20
-437.0000
10
-7.0000
20
-437.0000
0
LWPOLYLINE
100
AcDbEntity
8
CUCITURA
100
AcDbPolyline
90
4
70
1
10
640.0000
20
0.0000
10
1220.0000
20
0.0000
10
1220.0000
20
-430.0000
10
640.0000
20
-430.0000
0
LWPOLYLINE
100
AcDbEntity
8
TAGLIO_STUDIO
100
AcDbPolyline
90
4
70
1
10
633.0000
20
7.0000
10
1227.0000
20
7.0000
10
1227.0000
20
-437.0000
10
633.0000
20
-437.0000
0
LWPOLYLINE
100
AcDbEntity
8
CUCITURA
100
AcDbPolyline
90
4
70
1
10
0.0000
20
-490.0000
10
2020.0000
20
-490.0000
10
2020.0000
20
-570.0000
10
0.0000
20
-570.0000
0
LWPOLYLINE
100
AcDbEntity
8
TAGLIO_STUDIO
100
AcDbPolyline
90
4
70
1
10
-7.0000
20
-483.0000
10
2027.0000
20
-483.0000
10
2027.0000
20
-577.0000
10
-7.0000
20
-577.0000
0
ENDSEC
0
EOF
