0
SECTION
2
HEADER
9
$INSUNITS
70
4
0
ENDSEC
0
SECTION
2
ENTITIES
0
LWPOLYLINE
100
AcDbEntity
8
CUCITURA
100
AcDbPolyline
90
4
70
1
10
41.6000
20
0.0000
10
278.4000
20
0.0000
10
320.0000
20
-250.0000
10
0.0000
20
-250.0000
0
LWPOLYLINE
100
AcDbEntity
8
TAGLIO_STUDIO
100
AcDbPolyline
90
4
70
1
10
35.6686
20
7.0000
10
284.3314
20
7.0000
10
328.2610
20
-257.0000
10
-8.2610
20
-257.0000
0
LWPOLYLINE
100
AcDbEntity
8
CUCITURA
100
AcDbPolyline
90
4
70
1
10
421.6000
20
0.0000
10
658.4000
20
0.0000
10
700.0000
20
-250.0000
10
380.0000
20
-250.0000
0
LWPOLYLINE
100
AcDbEntity
8
TAGLIO_STUDIO
100
AcDbPolyline
90
4
70
1
10
415.6686
20
7.0000
10
664.3314
20
7.0000
10
708.2610
20
-257.0000
10
371.7390
20
-257.0000
0
LWPOLYLINE
100
AcDbEntity
8
CUCITURA
100
AcDbPolyline
90
4
70
1
10
0.0000
20
-310.0000
10
1063.6750
20
-310.0000
10
1063.6750
20
-460.0000
10
0.0000
20
-460.0000
0
LWPOLYLINE
100
AcDbEntity
8
TAGLIO_STUDIO
100
AcDbPolyline
90
4
70
1
10
-7.0000
20
-303.0000
10
1070.6750
20
-303.0000
10
1070.6750
20
-467.0000
10
-7.0000
20
-467.0000
0
ENDSEC
0
EOF
