0
SECTION
2
HEADER
9
$INSUNITS
70
4
0
ENDSEC
0
SECTION
2
ENTITIES
0
LWPOLYLINE
100
AcDbEntity
8
CUCITURA
100
AcDbPolyline
90
16
70
1
10
0.0000
20
-42.0000
10
21.6000
20
0.0000
10
57.6000
20
-16.8000
10
93.6000
20
-84.0000
10
144.0000
20
-112.0000
10
216.0000
20
-112.0000
10
266.4000
20
-84.0000
10
302.4000
20
-16.8000
10
338.4000
20
0.0000
10
360.0000
20
-42.0000
10
345.6000
20
-179.2000
10
302.4000
20
-240.8000
10
230.4000
20
-280.0000
10
129.6000
20
-280.0000
10
57.6000
20
-240.8000
10
14.4000
20
-179.2000
0
LWPOLYLINE
100
AcDbEntity
8
TAGLIO_STUDIO
100
AcDbPolyline
90
16
70
1
10
-7.1796
20
-40.6548
10
18.4558
20
9.1920
10
62.6706
20
-11.4416
10
98.7985
20
-78.8804
10
145.8139
20
-105.0000
10
214.1861
20
-105.0000
10
261.2015
20
-78.8804
10
297.3294
20
-11.4416
10
341.5442
20
9.1920
10
367.1796
20
-40.6548
10
352.3725
20
-181.7344
10
307.1887
20
-246.1630
10
232.1821
20
-287.0000
10
127.8179
20
-287.0000
10
52.8113
20
-246.1630
10
7.6275
20
-181.7344
0
LWPOLYLINE
100
AcDbEntity
8
CUCITURA
100
AcDbPolyline
90
16
70
1
10
420.0000
20
-42.0000
10
441.6000
20
0.0000
10
477.6000
20
-16.8000
10
513.6000
20
-84.0000
10
564.0000
20
-112.0000
10
636.0000
20
-112.0000
10
686.4000
20
-84.0000
10
722.4000
20
-16.8000
10
758.4000
20
0.0000
10
780.0000
20
-42.0000
10
765.6000
20
-179.2000
10
722.4000
20
-240.8000
10
650.4000
20
-280.0000
10
549.6000
20
-280.0000
10
477.6000
20
-240.8000
10
434.4000
20
-179.2000
0
LWPOLYLINE
100
AcDbEntity
8
TAGLIO_STUDIO
100
AcDbPolyline
90
16
70
1
10
412.8204
20
-40.6548
10
438.4558
20
9.1920
10
482.6706
20
-11.4416
10
518.7985
20
-78.8804
10
565.8139
20
-105.0000
10
634.1861
20
-105.0000
10
681.2015
20
-78.8804
10
717.3294
20
-11.4416
10
761.5442
20
9.1920
10
787.1796
20
-40.6548
10
772.3725
20
-181.7344
10
727.1887
20
-246.1630
10
652.1821
20
-287.0000
10
547.8179
20
-287.0000
10
472.8113
20
-246.1630
10
427.6275
20
-181.7344
0
LWPOLYLINE
100
AcDbEntity
8
CUCITURA
100
AcDbPolyline
90
4
70
1
10
0.0000
20
-340.0000
10
1204.8365
20
-340.0000
10
1204.8365
20
-440.0000
10
0.0000
20
-440.0000
0
LWPOLYLINE
100
AcDbEntity
8
TAGLIO_STUDIO
100
AcDbPolyline
90
4
70
1
10
-7.0000
20
-333.0000
10
1211.8365
20
-333.0000
10
1211.8365
20
-447.0000
10
-7.0000
20
-447.0000
0
ENDSEC
0
EOF
