0
SECTION
2
HEADER
9
$INSUNITS
70
4
0
ENDSEC
0
SECTION
2
ENTITIES
0
LWPOLYLINE
100
AcDbEntity
8
CUCITURA
100
AcDbPolyline
90
16
70
1
10
0.0000
20
-24.0000
10
13.8000
20
0.0000
10
36.8000
20
-9.6000
10
59.8000
20
-48.0000
10
92.0000
20
-64.0000
10
138.0000
20
-64.0000
10
170.2000
20
-48.0000
10
193.2000
20
-9.6000
10
216.2000
20
0.0000
10
230.0000
20
-24.0000
10
220.8000
20
-102.4000
10
193.2000
20
-137.6000
10
147.2000
20
-160.0000
10
82.8000
20
-160.0000
10
36.8000
20
-137.6000
10
9.2000
20
-102.4000
0
LWPOLYLINE
100
AcDbEntity
8
TAGLIO_STUDIO
100
AcDbPolyline
90
16
70
1
10
-7.2220
20
-22.5171
10
10.8055
20
8.8352
10
41.6218
20
-4.0273
10
64.7514
20
-42.6438
10
93.6433
20
-57.0000
10
136.3567
20
-57.0000
10
165.2486
20
-42.6438
10
188.3782
20
-4.0273
10
219.1945
20
8.8352
10
237.2220
20
-22.5171
10
227.5229
20
-105.1705
10
197.7139
20
-143.1877
10
148.8138
20
-167.0000
10
81.1862
20
-167.0000
10
32.2861
20
-143.1877
10
2.4771
20
-105.1705
0
LWPOLYLINE
100
AcDbEntity
8
CUCITURA
100
AcDbPolyline
90
16
70
1
10
290.0000
20
-24.0000
10
303.8000
20
0.0000
10
326.8000
20
-9.6000
10
349.8000
20
-48.0000
10
382.0000
20
-64.0000
10
428.0000
20
-64.0000
10
460.2000
20
-48.0000
10
483.2000
20
-9.6000
10
506.2000
20
0.0000
10
520.0000
20
-24.0000
10
510.8000
20
-102.4000
10
483.2000
20
-137.6000
10
437.2000
20
-160.0000
10
372.8000
20
-160.0000
10
326.8000
20
-137.6000
10
299.2000
20
-102.4000
0
LWPOLYLINE
100
AcDbEntity
8
TAGLIO_STUDIO
100
AcDbPolyline
90
16
70
1
10
282.7780
20
-22.5171
10
300.8055
20
8.8352
10
331.6218
20
-4.0273
10
354.7514
20
-42.6438
10
383.6433
20
-57.0000
10
426.3567
20
-57.0000
10
455.2486
20
-42.6438
10
478.3782
20
-4.0273
10
509.1945
20
8.8352
10
527.2220
20
-22.5171
10
517.5229
20
-105.1705
10
487.7139
20
-143.1877
10
438.8138
20
-167.0000
10
371.1862
20
-167.0000
10
322.2861
20
-143.1877
10
292.4771
20
-105.1705
0
LWPOLYLINE
100
AcDbEntity
8
CUCITURA
100
AcDbPolyline
90
4
70
1
10
0.0000
20
-220.0000
10
726.7145
20
-220.0000
10
726.7145
20
-290.0000
10
0.0000
20
-290.0000
0
LWPOLYLINE
100
AcDbEntity
8
TAGLIO_STUDIO
100
AcDbPolyline
90
4
70
1
10
-7.0000
20
-213.0000
10
733.7145
20
-213.0000
10
733.7145
20
-297.0000
10
-7.0000
20
-297.0000
0
ENDSEC
0
EOF
