0
SECTION
2
HEADER
9
$INSUNITS
70
4
0
ENDSEC
0
SECTION
2
ENTITIES
0
LWPOLYLINE
100
AcDbEntity
8
CUCITURA
100
AcDbPolyline
90
4
70
1
10
0.0000
20
0.0000
10
260.0000
20
0.0000
10
260.0000
20
-280.0000
10
0.0000
20
-280.0000
0
LWPOLYLINE
100
AcDbEntity
8
TAGLIO_STUDIO
100
AcDbPolyline
90
4
70
1
10
-7.0000
20
7.0000
10
267.0000
20
7.0000
10
267.0000
20
-287.0000
10
-7.0000
20
-287.0000
0
LWPOLYLINE
100
AcDbEntity
8
CUCITURA
100
AcDbPolyline
90
4
70
1
10
320.0000
20
0.0000
10
580.0000
20
0.0000
10
580.0000
20
-280.0000
10
320.0000
20
-280.0000
0
LWPOLYLINE
100
AcDbEntity
8
TAGLIO_STUDIO
100
AcDbPolyline
90
4
70
1
10
313.0000
20
7.0000
10
587.0000
20
7.0000
10
587.0000
20
-287.0000
10
313.0000
20
-287.0000
0
LWPOLYLINE
100
AcDbEntity
8
CUCITURA
100
AcDbPolyline
90
4
70
1
10
0.0000
20
-340.0000
10
1080.0000
20
-340.0000
10
1080.0000
20
-470.0000
10
0.0000
20
-470.0000
0
LWPOLYLINE
100
AcDbEntity
8
TAGLIO_STUDIO
100
AcDbPolyline
90
4
70
1
10
-7.0000
20
-333.0000
10
1087.0000
20
-333.0000
10
1087.0000
20
-477.0000
10
-7.0000
20
-477.0000
0
ENDSEC
0
EOF
