0
SECTION
2
HEADER
9
$INSUNITS
70
4
0
ENDSEC
0
SECTION
2
ENTITIES
0
LWPOLYLINE
100
AcDbEntity
8
CUCITURA
100
AcDbPolyline
90
16
70
1
10
0.0000
20
-36.0000
10
16.2000
20
0.0000
10
43.2000
20
-14.4000
10
70.2000
20
-72.0000
10
108.0000
20
-96.0000
10
162.0000
20
-96.0000
10
199.8000
20
-72.0000
10
226.8000
20
-14.4000
10
253.8000
20
0.0000
10
270.0000
20
-36.0000
10
259.2000
20
-153.6000
10
226.8000
20
-206.4000
10
172.8000
20
-240.0000
10
97.2000
20
-240.0000
10
43.2000
20
-206.4000
10
10.8000
20
-153.6000
0
LWPOLYLINE
100
AcDbEntity
8
TAGLIO_STUDIO
100
AcDbPolyline
90
16
70
1
10
-7.1391
20
-34.8066
10
12.8886
20
9.6994
10
48.5495
20
-9.3197
10
75.6730
20
-67.1832
10
110.0345
20
-89.0000
10
159.9655
20
-89.0000
10
194.3270
20
-67.1832
10
221.4505
20
-9.3197
10
257.1114
20
9.6994
10
277.1391
20
-34.8066
10
266.0212
20
-155.8679
10
231.9017
20
-211.4701
10
174.8000
20
-247.0000
10
95.2000
20
-247.0000
10
38.0983
20
-211.4701
10
3.9788
20
-155.8679
0
LWPOLYLINE
100
AcDbEntity
8
CUCITURA
100
AcDbPolyline
90
16
70
1
10
330.0000
20
-36.0000
10
346.2000
20
0.0000
10
373.2000
20
-14.4000
10
400.2000
20
-72.0000
10
438.0000
20
-96.0000
10
492.0000
20
-96.0000
10
529.8000
20
-72.0000
10
556.8000
20
-14.4000
10
583.8000
20
0.0000
10
600.0000
20
-36.0000
10
589.2000
20
-153.6000
10
556.8000
20
-206.4000
10
502.8000
20
-240.0000
10
427.2000
20
-240.0000
10
373.2000
20
-206.4000
10
340.8000
20
-153.6000
0
LWPOLYLINE
100
AcDbEntity
8
TAGLIO_STUDIO
100
AcDbPolyline
90
16
70
1
10
322.8609
20
-34.8066
10
342.8886
20
9.6994
10
378.5495
20
-9.3197
10
405.6730
20
-67.1832
10
440.0345
20
-89.0000
10
489.9655
20
-89.0000
10
524.3270
20
-67.1832
10
551.4505
20
-9.3197
10
587.1114
20
9.6994
10
607.1391
20
-34.8066
10
596.0212
20
-155.8679
10
561.9017
20
-211.4701
10
504.8000
20
-247.0000
10
425.2000
20
-247.0000
10
368.0983
20
-211.4701
10
333.9788
20
-155.8679
0
LWPOLYLINE
100
AcDbEntity
8
CUCITURA
100
AcDbPolyline
90
4
70
1
10
0.0000
20
-300.0000
10
973.8198
20
-300.0000
10
973.8198
20
-400.0000
10
0.0000
20
-400.0000
0
LWPOLYLINE
100
AcDbEntity
8
TAGLIO_STUDIO
100
AcDbPolyline
90
4
70
1
10
-7.0000
20
-293.0000
10
980.8198
20
-293.0000
10
980.8198
20
-407.0000
10
-7.0000
20
-407.0000
0
ENDSEC
0
EOF
