0
SECTION
2
HEADER
9
$INSUNITS
70
4
0
ENDSEC
0
SECTION
2
ENTITIES
0
LWPOLYLINE
100
AcDbEntity
8
CUCITURA
100
AcDbPolyline
90
4
70
1
10
0.0000
20
0.0000
10
370.0000
20
0.0000
10
370.0000
20
-350.0000
10
0.0000
20
-350.0000
0
LWPOLYLINE
100
AcDbEntity
8
TAGLIO_STUDIO
100
AcDbPolyline
90
4
70
1
10
-7.0000
20
7.0000
10
377.0000
20
7.0000
10
377.0000
20
-357.0000
10
-7.0000
20
-357.0000
0
LWPOLYLINE
100
AcDbEntity
8
CUCITURA
100
AcDbPolyline
90
4
70
1
10
430.0000
20
0.0000
10
800.0000
20
0.0000
10
800.0000
20
-350.0000
10
430.0000
20
-350.0000
0
LWPOLYLINE
100
AcDbEntity
8
TAGLIO_STUDIO
100
AcDbPolyline
90
4
70
1
10
423.0000
20
7.0000
10
807.0000
20
7.0000
10
807.0000
20
-357.0000
10
423.0000
20
-357.0000
0
LWPOLYLINE
100
AcDbEntity
8
CUCITURA
100
AcDbPolyline
90
4
70
1
10
0.0000
20
-410.0000
10
1440.0000
20
-410.0000
10
1440.0000
20
-500.0000
10
0.0000
20
-500.0000
0
LWPOLYLINE
100
AcDbEntity
8
TAGLIO_STUDIO
100
AcDbPolyline
90
4
70
1
10
-7.0000
20
-403.0000
10
1447.0000
20
-403.0000
10
1447.0000
20
-507.0000
10
-7.0000
20
-507.0000
0
ENDSEC
0
EOF
