0
SECTION
2
HEADER
9
$INSUNITS
70
4
0
ENDSEC
0
SECTION
2
ENTITIES
0
LWPOLYLINE
100
AcDbEntity
8
CUCITURA
100
AcDbPolyline
90
16
70
1
10
0.0000
20
-24.0000
10
12.0000
20
0.0000
10
32.0000
20
-9.6000
10
52.0000
20
-48.0000
10
80.0000
20
-64.0000
10
120.0000
20
-64.0000
10
148.0000
20
-48.0000
10
168.0000
20
-9.6000
10
188.0000
20
0.0000
10
200.0000
20
-24.0000
10
192.0000
20
-102.4000
10
168.0000
20
-137.6000
10
128.0000
20
-160.0000
10
72.0000
20
-160.0000
10
32.0000
20
-137.6000
10
8.0000
20
-102.4000
0
LWPOLYLINE
100
AcDbEntity
8
TAGLIO_STUDIO
100
AcDbPolyline
90
16
70
1
10
-7.1702
20
-22.6880
10
8.8194
20
9.2913
10
37.1313
20
-4.2984
10
57.2585
20
-42.9426
10
81.8590
20
-57.0000
10
118.1410
20
-57.0000
10
142.7415
20
-42.9426
10
162.8687
20
-4.2984
10
191.1806
20
9.2913
10
207.1702
20
-22.6880
10
198.7836
20
-104.8766
10
172.8564
20
-142.9033
10
129.8265
20
-167.0000
10
70.1735
20
-167.0000
10
27.1436
20
-142.9033
10
1.2164
20
-104.8766
0
LWPOLYLINE
100
AcDbEntity
8
CUCITURA
100
AcDbPolyline
90
16
70
1
10
260.0000
20
-24.0000
10
272.0000
20
0.0000
10
292.0000
20
-9.6000
10
312.0000
20
-48.0000
10
340.0000
20
-64.0000
10
380.0000
20
-64.0000
10
408.0000
20
-48.0000
10
428.0000
20
-9.6000
10
448.0000
20
0.0000
10
460.0000
20
-24.0000
10
452.0000
20
-102.4000
10
428.0000
20
-137.6000
10
388.0000
20
-160.0000
10
332.0000
20
-160.0000
10
292.0000
20
-137.6000
10
268.0000
20
-102.4000
0
LWPOLYLINE
100
AcDbEntity
8
TAGLIO_STUDIO
100
AcDbPolyline
90
16
70
1
10
252.8298
20
-22.6880
10
268.8194
20
9.2913
10
297.1313
20
-4.2984
10
317.2585
20
-42.9426
10
341.8590
20
-57.0000
10
378.1410
20
-57.0000
10
402.7415
20
-42.9426
10
422.8687
20
-4.2984
10
451.1806
20
9.2913
10
467.1702
20
-22.6880
10
458.7836
20
-104.8766
10
432.8564
20
-142.9033
10
389.8265
20
-167.0000
10
330.1735
20
-167.0000
10
287.1436
20
-142.9033
10
261.2164
20
-104.8766
0
LWPOLYLINE
100
AcDbEntity
8
CUCITURA
100
AcDbPolyline
90
4
70
1
10
0.0000
20
-220.0000
10
679.6361
20
-220.0000
10
679.6361
20
-280.0000
10
0.0000
20
-280.0000
0
LWPOLYLINE
100
AcDbEntity
8
TAGLIO_STUDIO
100
AcDbPolyline
90
4
70
1
10
-7.0000
20
-213.0000
10
686.6361
20
-213.0000
10
686.6361
20
-287.0000
10
-7.0000
20
-287.0000
0
ENDSEC
0
EOF
