0
SECTION
2
HEADER
9
$INSUNITS
70
4
0
ENDSEC
0
SECTION
2
ENTITIES
0
LWPOLYLINE
100
AcDbEntity
8
CUCITURA
100
AcDbPolyline
90
4
70
1
10
49.4000
20
0.0000
10
330.6000
20
0.0000
10
380.0000
20
-280.0000
10
0.0000
20
-280.0000
0
LWPOLYLINE
100
AcDbEntity
8
TAGLIO_STUDIO
100
AcDbPolyline
90
4
70
1
10
43.5269
20
7.0000
10
336.4731
20
7.0000
10
388.3431
20
-287.0000
10
-8.3431
20
-287.0000
0
LWPOLYLINE
100
AcDbEntity
8
CUCITURA
100
AcDbPolyline
90
4
70
1
10
489.4000
20
0.0000
10
770.6000
20
0.0000
10
820.0000
20
-280.0000
10
440.0000
20
-280.0000
0
LWPOLYLINE
100
AcDbEntity
8
TAGLIO_STUDIO
100
AcDbPolyline
90
4
70
1
10
483.5269
20
7.0000
10
776.4731
20
7.0000
10
828.3431
20
-287.0000
10
431.6569
20
-287.0000
0
LWPOLYLINE
100
AcDbEntity
8
CUCITURA
100
AcDbPolyline
90
4
70
1
10
0.0000
20
-340.0000
10
1229.8488
20
-340.0000
10
1229.8488
20
-570.0000
10
0.0000
20
-570.0000
0
LWPOLYLINE
100
AcDbEntity
8
TAGLIO_STUDIO
100
AcDbPolyline
90
4
70
1
10
-7.0000
20
-333.0000
10
1236.8488
20
-333.0000
10
1236.8488
20
-577.0000
10
-7.0000
20
-577.0000
0
ENDSEC
0
EOF
