0
SECTION
2
HEADER
9
$INSUNITS
70
4
0
ENDSEC
0
SECTION
2
ENTITIES
0
LWPOLYLINE
100
AcDbEntity
8
CUCITURA
100
AcDbPolyline
90
4
70
1
10
0.0000
20
0.0000
10
380.0000
20
0.0000
10
380.0000
20
-430.0000
10
0.0000
20
-430.0000
0
LWPOLYLINE
100
AcDbEntity
8
TAGLIO_STUDIO
100
AcDbPolyline
90
4
70
1
10
-7.0000
20
7.0000
10
387.0000
20
7.0000
10
387.0000
20
-437.0000
10
-7.0000
20
-437.0000
0
LWPOLYLINE
100
AcDbEntity
8
CUCITURA
100
AcDbPolyline
90
4
70
1
10
440.0000
20
0.0000
10
820.0000
20
0.0000
10
820.0000
20
-430.0000
10
440.0000
20
-430.0000
0
LWPOLYLINE
100
AcDbEntity
8
TAGLIO_STUDIO
100
AcDbPolyline
90
4
70
1
10
433.0000
20
7.0000
10
827.0000
20
7.0000
10
827.0000
20
-437.0000
10
433.0000
20
-437.0000
0
LWPOLYLINE
100
AcDbEntity
8
CUCITURA
100
AcDbPolyline
90
4
70
1
10
0.0000
20
-490.0000
10
1620.0000
20
-490.0000
10
1620.0000
20
-710.0000
10
0.0000
20
-710.0000
0
LWPOLYLINE
100
AcDbEntity
8
TAGLIO_STUDIO
100
AcDbPolyline
90
4
70
1
10
-7.0000
20
-483.0000
10
1627.0000
20
-483.0000
10
1627.0000
20
-717.0000
10
-7.0000
20
-717.0000
0
ENDSEC
0
EOF
