0
SECTION
2
HEADER
9
$INSUNITS
70
4
0
ENDSEC
0
SECTION
2
ENTITIES
0
LWPOLYLINE
100
AcDbEntity
8
CUCITURA
100
AcDbPolyline
90
30
70
1
10
0.0000
20
-250.0000
10
0.0000
20
-87.5000
10
1.1833
20
-77.3419
10
4.7171
20
-67.3211
10
10.5538
20
-57.5732
10
18.6143
20
-48.2301
10
28.7896
20
-39.4180
10
40.9422
20
-31.2561
10
54.9077
20
-23.8548
10
70.4972
20
-17.3142
10
87.5000
20
-11.7228
10
105.6860
20
-7.1561
10
124.8094
20
-3.6759
10
144.6116
20
-1.3293
10
164.8247
20
-0.1480
10
185.1753
20
-0.1480
10
205.3884
20
-1.3293
10
225.1906
20
-3.6759
10
244.3140
20
-7.1561
10
262.5000
20
-11.7228
10
279.5028
20
-17.3142
10
295.0923
20
-23.8548
10
309.0578
20
-31.2561
10
321.2104
20
-39.4180
10
331.3857
20
-48.2301
10
339.4462
20
-57.5732
10
345.2829
20
-67.3211
10
348.8167
20
-77.3419
10
350.0000
20
-87.5000
10
350.0000
20
-250.0000
0
LWPOLYLINE
100
AcDbEntity
8
TAGLIO_STUDIO
100
AcDbPolyline
90
30
70
1
10
-7.0000
20
-257.0000
10
-7.0000
20
-87.0937
10
-5.6790
20
-75.7532
10
-1.6502
20
-64.3291
10
4.8587
20
-53.4585
10
13.6468
20
-43.2719
10
24.5310
20
-33.8459
10
37.3421
20
-25.2417
10
51.9086
20
-17.5220
10
68.0459
20
-10.7516
10
85.5517
20
-4.9947
10
104.2054
20
-0.3106
10
123.7699
20
3.2499
10
143.9949
20
5.6466
10
164.6203
20
6.8520
10
185.3797
20
6.8520
10
206.0051
20
5.6466
10
226.2301
20
3.2499
10
245.7946
20
-0.3106
10
264.4483
20
-4.9947
10
281.9541
20
-10.7516
10
298.0914
20
-17.5220
10
312.6579
20
-25.2417
10
325.4690
20
-33.8459
10
336.3532
20
-43.2719
10
345.1413
20
-53.4585
10
351.6502
20
-64.3291
10
355.6790
20
-75.7532
10
357.0000
20
-87.0937
10
357.0000
20
-257.0000
0
LWPOLYLINE
100
AcDbEntity
8
CUCITURA
100
AcDbPolyline
90
30
70
1
10
410.0000
20
-250.0000
10
410.0000
20
-87.5000
10
411.1833
20
-77.3419
10
414.7171
20
-67.3211
10
420.5538
20
-57.5732
10
428.6143
20
-48.2301
10
438.7896
20
-39.4180
10
450.9422
20
-31.2561
10
464.9077
20
-23.8548
10
480.4972
20
-17.3142
10
497.5000
20
-11.7228
10
515.6860
20
-7.1561
10
534.8094
20
-3.6759
10
554.6116
20
-1.3293
10
574.8247
20
-0.1480
10
595.1753
20
-0.1480
10
615.3884
20
-1.3293
10
635.1906
20
-3.6759
10
654.3140
20
-7.1561
10
672.5000
20
-11.7228
10
689.5028
20
-17.3142
10
705.0923
20
-23.8548
10
719.0578
20
-31.2561
10
731.2104
20
-39.4180
10
741.3857
20
-48.2301
10
749.4462
20
-57.5732
10
755.2829
20
-67.3211
10
758.8167
20
-77.3419
10
760.0000
20
-87.5000
10
760.0000
20
-250.0000
0
LWPOLYLINE
100
AcDbEntity
8
TAGLIO_STUDIO
100
AcDbPolyline
90
30
70
1
10
403.0000
20
-257.0000
10
403.0000
20
-87.0937
10
404.3210
20
-75.7532
10
408.3498
20
-64.3291
10
414.8587
20
-53.4585
10
423.6468
20
-43.2719
10
434.5310
20
-33.8459
10
447.3421
20
-25.2417
10
461.9086
20
-17.5220
10
478.0459
20
-10.7516
10
495.5517
20
-4.9947
10
514.2054
20
-0.3106
10
533.7699
20
3.2499
10
553.9949
20
5.6466
10
574.6203
20
6.8520
10
595.3797
20
6.8520
10
616.0051
20
5.6466
10
636.2301
20
3.2499
10
655.7946
20
-0.3106
10
674.4483
20
-4.9947
10
691.9541
20
-10.7516
10
708.0914
20
-17.5220
10
722.6579
20
-25.2417
10
735.4690
20
-33.8459
10
746.3532
20
-43.2719
10
755.1413
20
-53.4585
10
761.6502
20
-64.3291
10
765.6790
20
-75.7532
10
767.0000
20
-87.0937
10
767.0000
20
-257.0000
0
LWPOLYLINE
100
AcDbEntity
8
CUCITURA
100
AcDbPolyline
90
4
70
1
10
0.0000
20
-310.0000
10
1098.6305
20
-310.0000
10
1098.6305
20
-460.0000
10
0.0000
20
-460.0000
0
LWPOLYLINE
100
AcDbEntity
8
TAGLIO_STUDIO
100
AcDbPolyline
90
4
70
1
10
-7.0000
20
-303.0000
10
1105.6305
20
-303.0000
10
1105.6305
20
-467.0000
10
-7.0000
20
-467.0000
0
ENDSEC
0
EOF
