0
SECTION
2
HEADER
9
$INSUNITS
70
4
0
ENDSEC
0
SECTION
2
ENTITIES
0
LWPOLYLINE
100
AcDbEntity
8
CUCITURA
100
AcDbPolyline
90
4
70
1
10
35.1000
20
0.0000
10
234.9000
20
0.0000
10
270.0000
20
-250.0000
10
0.0000
20
-250.0000
0
LWPOLYLINE
100
AcDbEntity
8
TAGLIO_STUDIO
100
AcDbPolyline
90
4
70
1
10
29.0141
20
7.0000
10
240.9859
20
7.0000
10
278.0515
20
-257.0000
10
-8.0515
20
-257.0000
0
LWPOLYLINE
100
AcDbEntity
8
CUCITURA
100
AcDbPolyline
90
4
70
1
10
365.1000
20
0.0000
10
564.9000
20
0.0000
10
600.0000
20
-250.0000
10
330.0000
20
-250.0000
0
LWPOLYLINE
100
AcDbEntity
8
TAGLIO_STUDIO
100
AcDbPolyline
90
4
70
1
10
359.0141
20
7.0000
10
570.9859
20
7.0000
10
608.0515
20
-257.0000
10
321.9485
20
-257.0000
0
LWPOLYLINE
100
AcDbEntity
8
CUCITURA
100
AcDbPolyline
90
4
70
1
10
0.0000
20
-310.0000
10
974.7040
20
-310.0000
10
974.7040
20
-430.0000
10
0.0000
20
-430.0000
0
LWPOLYLINE
100
AcDbEntity
8
TAGLIO_STUDIO
100
AcDbPolyline
90
4
70
1
10
-7.0000
20
-303.0000
10
981.7040
20
-303.0000
10
981.7040
20
-437.0000
10
-7.0000
20
-437.0000
0
ENDSEC
0
EOF
