0
SECTION
2
HEADER
9
$INSUNITS
70
4
0
ENDSEC
0
SECTION
2
ENTITIES
0
LWPOLYLINE
100
AcDbEntity
8
CUCITURA
100
AcDbPolyline
90
4
70
1
10
0.0000
20
0.0000
10
380.0000
20
0.0000
10
380.0000
20
-370.0000
10
0.0000
20
-370.0000
0
LWPOLYLINE
100
AcDbEntity
8
TAGLIO_STUDIO
100
AcDbPolyline
90
4
70
1
10
-7.0000
20
7.0000
10
387.0000
20
7.0000
10
387.0000
20
-377.0000
10
-7.0000
20
-377.0000
0
LWPOLYLINE
100
AcDbEntity
8
CUCITURA
100
AcDbPolyline
90
4
70
1
10
440.0000
20
0.0000
10
820.0000
20
0.0000
10
820.0000
20
-370.0000
10
440.0000
20
-370.0000
0
LWPOLYLINE
100
AcDbEntity
8
TAGLIO_STUDIO
100
AcDbPolyline
90
4
70
1
10
433.0000
20
7.0000
10
827.0000
20
7.0000
10
827.0000
20
-377.0000
10
433.0000
20
-377.0000
0
LWPOLYLINE
100
AcDbEntity
8
CUCITURA
100
AcDbPolyline
90
4
70
1
10
0.0000
20
-430.0000
10
1500.0000
20
-430.0000
10
1500.0000
20
-580.0000
10
0.0000
20
-580.0000
0
LWPOLYLINE
100
AcDbEntity
8
TAGLIO_STUDIO
100
AcDbPolyline
90
4
70
1
10
-7.0000
20
-423.0000
10
1507.0000
20
-423.0000
10
1507.0000
20
-587.0000
10
-7.0000
20
-587.0000
0
ENDSEC
0
EOF
