0
SECTION
2
HEADER
9
$INSUNITS
70
4
0
ENDSEC
0
SECTION
2
ENTITIES
0
LWPOLYLINE
100
AcDbEntity
8
CUCITURA
100
AcDbPolyline
90
4
70
1
10
32.5000
20
0.0000
10
217.5000
20
0.0000
10
250.0000
20
-220.0000
10
0.0000
20
-220.0000
0
LWPOLYLINE
100
AcDbEntity
8
TAGLIO_STUDIO
100
AcDbPolyline
90
4
70
1
10
26.4581
20
7.0000
10
223.5419
20
7.0000
10
258.1101
20
-227.0000
10
-8.1101
20
-227.0000
0
LWPOLYLINE
100
AcDbEntity
8
CUCITURA
100
AcDbPolyline
90
4
70
1
10
342.5000
20
0.0000
10
527.5000
20
0.0000
10
560.0000
20
-220.0000
10
310.0000
20
-220.0000
0
LWPOLYLINE
100
AcDbEntity
8
TAGLIO_STUDIO
100
AcDbPolyline
90
4
70
1
10
336.4581
20
7.0000
10
533.5419
20
7.0000
10
568.1101
20
-227.0000
10
301.8899
20
-227.0000
0
LWPOLYLINE
100
AcDbEntity
8
CUCITURA
100
AcDbPolyline
90
4
70
1
10
0.0000
20
-280.0000
10
879.7752
20
-280.0000
10
879.7752
20
-400.0000
10
0.0000
20
-400.0000
0
LWPOLYLINE
100
AcDbEntity
8
TAGLIO_STUDIO
100
AcDbPolyline
90
4
70
1
10
-7.0000
20
-273.0000
10
886.7752
20
-273.0000
10
886.7752
20
-407.0000
10
-7.0000
20
-407.0000
0
ENDSEC
0
EOF
