0
SECTION
2
HEADER
9
$INSUNITS
70
4
0
ENDSEC
0
SECTION
2
ENTITIES
0
LWPOLYLINE
100
AcDbEntity
8
CUCITURA
100
AcDbPolyline
90
4
70
1
10
39.0000
20
0.0000
10
261.0000
20
0.0000
10
300.0000
20
-250.0000
10
0.0000
20
-250.0000
0
LWPOLYLINE
100
AcDbEntity
8
TAGLIO_STUDIO
100
AcDbPolyline
90
4
70
1
10
33.0073
20
7.0000
10
266.9927
20
7.0000
10
308.1767
20
-257.0000
10
-8.1767
20
-257.0000
0
LWPOLYLINE
100
AcDbEntity
8
CUCITURA
100
AcDbPolyline
90
4
70
1
10
399.0000
20
0.0000
10
621.0000
20
0.0000
10
660.0000
20
-250.0000
10
360.0000
20
-250.0000
0
LWPOLYLINE
100
AcDbEntity
8
TAGLIO_STUDIO
100
AcDbPolyline
90
4
70
1
10
393.0073
20
7.0000
10
626.9927
20
7.0000
10
668.1767
20
-257.0000
10
351.8233
20
-257.0000
0
LWPOLYLINE
100
AcDbEntity
8
CUCITURA
100
AcDbPolyline
90
4
70
1
10
0.0000
20
-310.0000
10
1028.0474
20
-310.0000
10
1028.0474
20
-460.0000
10
0.0000
20
-460.0000
0
LWPOLYLINE
100
AcDbEntity
8
TAGLIO_STUDIO
100
AcDbPolyline
90
4
70
1
10
-7.0000
20
-303.0000
10
1035.0474
20
-303.0000
10
1035.0474
20
-467.0000
10
-7.0000
20
-467.0000
0
ENDSEC
0
EOF
