0
SECTION
2
HEADER
9
$INSUNITS
70
4
0
ENDSEC
0
SECTION
2
ENTITIES
0
LWPOLYLINE
100
AcDbEntity
8
CUCITURA
100
AcDbPolyline
90
9
70
1
10
77.7000
20
0.0000
10
292.3000
20
0.0000
10
370.0000
20
-112.8000
10
355.2000
20
-168.0000
10
296.0000
20
-218.4000
10
185.0000
20
-240.0000
10
74.0000
20
-218.4000
10
14.8000
20
-168.0000
10
0.0000
20
-112.8000
0
LWPOLYLINE
100
AcDbEntity
8
TAGLIO_STUDIO
100
AcDbPolyline
90
9
70
1
10
74.0218
20
7.0000
10
295.9782
20
7.0000
10
377.5982
20
-111.4909
10
361.3969
20
-171.9175
10
299.1395
20
-224.9204
10
185.0000
20
-247.1313
10
70.8605
20
-224.9204
10
8.6031
20
-171.9175
10
-7.5982
20
-111.4909
0
LWPOLYLINE
100
AcDbEntity
8
CUCITURA
100
AcDbPolyline
90
9
70
1
10
507.7000
20
0.0000
10
722.3000
20
0.0000
10
800.0000
20
-112.8000
10
785.2000
20
-168.0000
10
726.0000
20
-218.4000
10
615.0000
20
-240.0000
10
504.0000
20
-218.4000
10
444.8000
20
-168.0000
10
430.0000
20
-112.8000
0
LWPOLYLINE
100
AcDbEntity
8
TAGLIO_STUDIO
100
AcDbPolyline
90
9
70
1
10
504.0218
20
7.0000
10
725.9782
20
7.0000
10
807.5982
20
-111.4909
10
791.3969
20
-171.9175
10
729.1395
20
-224.9204
10
615.0000
20
-247.1313
10
500.8605
20
-224.9204
10
438.6031
20
-171.9175
10
422.4018
20
-111.4909
0
LWPOLYLINE
100
AcDbEntity
8
CUCITURA
100
AcDbPolyline
90
4
70
1
10
0.0000
20
-300.0000
10
984.5026
20
-300.0000
10
984.5026
20
-370.0000
10
0.0000
20
-370.0000
0
LWPOLYLINE
100
AcDbEntity
8
TAGLIO_STUDIO
100
AcDbPolyline
90
4
70
1
10
-7.0000
20
-293.0000
10
991.5026
20
-293.0000
10
991.5026
20
-377.0000
10
-7.0000
20
-377.0000
0
ENDSEC
0
EOF
