# MATERIA - 699 Superleggera
# Geometria originale di studio. Unita mm. Non CAD del produttore.
v -288.0380 -216.7880 -296.2378
v -268.8500 216.3470 -275.1778
v -286.0068 -216.6121 -301.7065
v -268.8500 216.3470 -275.1778
v -266.8188 216.5229 -280.6465
v -286.0068 -216.6121 -301.7065
v -286.0068 -216.6121 -301.7065
v -266.8188 216.5229 -280.6465
v -281.5150 -216.6298 -305.4329
v -266.8188 216.5229 -280.6465
v -262.3270 216.5052 -284.3729
v -281.5150 -216.6298 -305.4329
v -281.5150 -216.6298 -305.4329
v -262.3270 216.5052 -284.3729
v -275.7662 -216.8366 -306.4187
v -262.3270 216.5052 -284.3729
v -256.5782 216.2984 -285.3587
v -275.7662 -216.8366 -306.4187
v -275.7662 -216.8366 -306.4187
v -256.5782 216.2984 -285.3587
v -270.3008 -217.1769 -304.3997
v -256.5782 216.2984 -285.3587
v -251.1128 215.9581 -283.3397
v -270.3008 -217.1769 -304.3997
v -270.3008 -217.1769 -304.3997
v -251.1128 215.9581 -283.3397
v -266.5832 -217.5595 -299.9168
v -251.1128 215.9581 -283.3397
v -247.3952 215.5755 -278.8568
v -266.5832 -217.5595 -299.9168
v -266.5832 -217.5595 -299.9168
v -247.3952 215.5755 -278.8568
v -265.6096 -217.8820 -294.1712
v -247.3952 215.5755 -278.8568
v -246.4216 215.2530 -273.1112
v -265.6096 -217.8820 -294.1712
v -265.6096 -217.8820 -294.1712
v -246.4216 215.2530 -273.1112
v -267.6408 -218.0579 -288.7025
v -246.4216 215.2530 -273.1112
v -248.4528 215.0771 -267.6425
v -267.6408 -218.0579 -288.7025
v -267.6408 -218.0579 -288.7025
v -248.4528 215.0771 -267.6425
v -272.1326 -218.0402 -284.9761
v -248.4528 215.0771 -267.6425
v -252.9446 215.0948 -263.9161
v -272.1326 -218.0402 -284.9761
v -272.1326 -218.0402 -284.9761
v -252.9446 215.0948 -263.9161
v -277.8814 -217.8334 -283.9903
v -252.9446 215.0948 -263.9161
v -258.6934 215.3016 -262.9303
v -277.8814 -217.8334 -283.9903
v -277.8814 -217.8334 -283.9903
v -258.6934 215.3016 -262.9303
v -283.3468 -217.4931 -286.0093
v -258.6934 215.3016 -262.9303
v -264.1588 215.6419 -264.9493
v -283.3468 -217.4931 -286.0093
v -283.3468 -217.4931 -286.0093
v -264.1588 215.6419 -264.9493
v -287.0644 -217.1105 -290.4922
v -264.1588 215.6419 -264.9493
v -267.8764 216.0245 -269.4322
v -287.0644 -217.1105 -290.4922
v -287.0644 -217.1105 -290.4922
v -267.8764 216.0245 -269.4322
v -288.0380 -216.7880 -296.2378
v -267.8764 216.0245 -269.4322
v -268.8500 216.3470 -275.1778
v -288.0380 -216.7880 -296.2378
v -288.0380 -216.7880 -296.2378
v -286.0068 -216.6121 -301.7065
v -276.8238 -217.3350 -295.2045
v -286.0068 -216.6121 -301.7065
v -281.5150 -216.6298 -305.4329
v -276.8238 -217.3350 -295.2045
v -281.5150 -216.6298 -305.4329
v -275.7662 -216.8366 -306.4187
v -276.8238 -217.3350 -295.2045
v -275.7662 -216.8366 -306.4187
v -270.3008 -217.1769 -304.3997
v -276.8238 -217.3350 -295.2045
v -270.3008 -217.1769 -304.3997
v -266.5832 -217.5595 -299.9168
v -276.8238 -217.3350 -295.2045
v -266.5832 -217.5595 -299.9168
v -265.6096 -217.8820 -294.1712
v -276.8238 -217.3350 -295.2045
v -265.6096 -217.8820 -294.1712
v -267.6408 -218.0579 -288.7025
v -276.8238 -217.3350 -295.2045
v -267.6408 -218.0579 -288.7025
v -272.1326 -218.0402 -284.9761
v -276.8238 -217.3350 -295.2045
v -272.1326 -218.0402 -284.9761
v -277.8814 -217.8334 -283.9903
v -276.8238 -217.3350 -295.2045
v -277.8814 -217.8334 -283.9903
v -283.3468 -217.4931 -286.0093
v -276.8238 -217.3350 -295.2045
v -283.3468 -217.4931 -286.0093
v -287.0644 -217.1105 -290.4922
v -276.8238 -217.3350 -295.2045
v -287.0644 -217.1105 -290.4922
v -288.0380 -216.7880 -296.2378
v -276.8238 -217.3350 -295.2045
v -266.8188 216.5229 -280.6465
v -268.8500 216.3470 -275.1778
v -257.6358 215.8000 -274.1445
v -262.3270 216.5052 -284.3729
v -266.8188 216.5229 -280.6465
v -257.6358 215.8000 -274.1445
v -256.5782 216.2984 -285.3587
v -262.3270 216.5052 -284.3729
v -257.6358 215.8000 -274.1445
v -251.1128 215.9581 -283.3397
v -256.5782 216.2984 -285.3587
v -257.6358 215.8000 -274.1445
v -247.3952 215.5755 -278.8568
v -251.1128 215.9581 -283.3397
v -257.6358 215.8000 -274.1445
v -246.4216 215.2530 -273.1112
v -247.3952 215.5755 -278.8568
v -257.6358 215.8000 -274.1445
v -248.4528 215.0771 -267.6425
v -246.4216 215.2530 -273.1112
v -257.6358 215.8000 -274.1445
v -252.9446 215.0948 -263.9161
v -248.4528 215.0771 -267.6425
v -257.6358 215.8000 -274.1445
v -258.6934 215.3016 -262.9303
v -252.9446 215.0948 -263.9161
v -257.6358 215.8000 -274.1445
v -264.1588 215.6419 -264.9493
v -258.6934 215.3016 -262.9303
v -257.6358 215.8000 -274.1445
v -267.8764 216.0245 -269.4322
v -264.1588 215.6419 -264.9493
v -257.6358 215.8000 -274.1445
v -268.8500 216.3470 -275.1778
v -267.8764 216.0245 -269.4322
v -257.6358 215.8000 -274.1445
v 288.0380 -67.3880 -296.2378
v 268.8500 365.7470 -275.1778
v 287.0644 -67.7105 -290.4922
v 268.8500 365.7470 -275.1778
v 267.8764 365.4245 -269.4322
v 287.0644 -67.7105 -290.4922
v 287.0644 -67.7105 -290.4922
v 267.8764 365.4245 -269.4322
v 283.3468 -68.0931 -286.0093
v 267.8764 365.4245 -269.4322
v 264.1588 365.0419 -264.9493
v 283.3468 -68.0931 -286.0093
v 283.3468 -68.0931 -286.0093
v 264.1588 365.0419 -264.9493
v 277.8814 -68.4334 -283.9903
v 264.1588 365.0419 -264.9493
v 258.6934 364.7016 -262.9303
v 277.8814 -68.4334 -283.9903
v 277.8814 -68.4334 -283.9903
v 258.6934 364.7016 -262.9303
v 272.1326 -68.6402 -284.9761
v 258.6934 364.7016 -262.9303
v 252.9446 364.4948 -263.9161
v 272.1326 -68.6402 -284.9761
v 272.1326 -68.6402 -284.9761
v 252.9446 364.4948 -263.9161
v 267.6408 -68.6579 -288.7025
v 252.9446 364.4948 -263.9161
v 248.4528 364.4771 -267.6425
v 267.6408 -68.6579 -288.7025
v 267.6408 -68.6579 -288.7025
v 248.4528 364.4771 -267.6425
v 265.6096 -68.4820 -294.1712
v 248.4528 364.4771 -267.6425
v 246.4216 364.6530 -273.1112
v 265.6096 -68.4820 -294.1712
v 265.6096 -68.4820 -294.1712
v 246.4216 364.6530 -273.1112
v 266.5832 -68.1595 -299.9168
v 246.4216 364.6530 -273.1112
v 247.3952 364.9755 -278.8568
v 266.5832 -68.1595 -299.9168
v 266.5832 -68.1595 -299.9168
v 247.3952 364.9755 -278.8568
v 270.3008 -67.7769 -304.3997
v 247.3952 364.9755 -278.8568
v 251.1128 365.3581 -283.3397
v 270.3008 -67.7769 -304.3997
v 270.3008 -67.7769 -304.3997
v 251.1128 365.3581 -283.3397
v 275.7662 -67.4366 -306.4187
v 251.1128 365.3581 -283.3397
v 256.5782 365.6984 -285.3587
v 275.7662 -67.4366 -306.4187
v 275.7662 -67.4366 -306.4187
v 256.5782 365.6984 -285.3587
v 281.5150 -67.2298 -305.4329
v 256.5782 365.6984 -285.3587
v 262.3270 365.9052 -284.3729
v 281.5150 -67.2298 -305.4329
v 281.5150 -67.2298 -305.4329
v 262.3270 365.9052 -284.3729
v 286.0068 -67.2121 -301.7065
v 262.3270 365.9052 -284.3729
v 266.8188 365.9229 -280.6465
v 286.0068 -67.2121 -301.7065
v 286.0068 -67.2121 -301.7065
v 266.8188 365.9229 -280.6465
v 288.0380 -67.3880 -296.2378
v 266.8188 365.9229 -280.6465
v 268.8500 365.7470 -275.1778
v 288.0380 -67.3880 -296.2378
v 288.0380 -67.3880 -296.2378
v 287.0644 -67.7105 -290.4922
v 276.8238 -67.9350 -295.2045
v 287.0644 -67.7105 -290.4922
v 283.3468 -68.0931 -286.0093
v 276.8238 -67.9350 -295.2045
v 283.3468 -68.0931 -286.0093
v 277.8814 -68.4334 -283.9903
v 276.8238 -67.9350 -295.2045
v 277.8814 -68.4334 -283.9903
v 272.1326 -68.6402 -284.9761
v 276.8238 -67.9350 -295.2045
v 272.1326 -68.6402 -284.9761
v 267.6408 -68.6579 -288.7025
v 276.8238 -67.9350 -295.2045
v 267.6408 -68.6579 -288.7025
v 265.6096 -68.4820 -294.1712
v 276.8238 -67.9350 -295.2045
v 265.6096 -68.4820 -294.1712
v 266.5832 -68.1595 -299.9168
v 276.8238 -67.9350 -295.2045
v 266.5832 -68.1595 -299.9168
v 270.3008 -67.7769 -304.3997
v 276.8238 -67.9350 -295.2045
v 270.3008 -67.7769 -304.3997
v 275.7662 -67.4366 -306.4187
v 276.8238 -67.9350 -295.2045
v 275.7662 -67.4366 -306.4187
v 281.5150 -67.2298 -305.4329
v 276.8238 -67.9350 -295.2045
v 281.5150 -67.2298 -305.4329
v 286.0068 -67.2121 -301.7065
v 276.8238 -67.9350 -295.2045
v 286.0068 -67.2121 -301.7065
v 288.0380 -67.3880 -296.2378
v 276.8238 -67.9350 -295.2045
v 267.8764 365.4245 -269.4322
v 268.8500 365.7470 -275.1778
v 257.6358 365.2000 -274.1445
v 264.1588 365.0419 -264.9493
v 267.8764 365.4245 -269.4322
v 257.6358 365.2000 -274.1445
v 258.6934 364.7016 -262.9303
v 264.1588 365.0419 -264.9493
v 257.6358 365.2000 -274.1445
v 252.9446 364.4948 -263.9161
v 258.6934 364.7016 -262.9303
v 257.6358 365.2000 -274.1445
v 248.4528 364.4771 -267.6425
v 252.9446 364.4948 -263.9161
v 257.6358 365.2000 -274.1445
v 246.4216 364.6530 -273.1112
v 248.4528 364.4771 -267.6425
v 257.6358 365.2000 -274.1445
v 247.3952 364.9755 -278.8568
v 246.4216 364.6530 -273.1112
v 257.6358 365.2000 -274.1445
v 251.1128 365.3581 -283.3397
v 247.3952 364.9755 -278.8568
v 257.6358 365.2000 -274.1445
v 256.5782 365.6984 -285.3587
v 251.1128 365.3581 -283.3397
v 257.6358 365.2000 -274.1445
v 262.3270 365.9052 -284.3729
v 256.5782 365.6984 -285.3587
v 257.6358 365.2000 -274.1445
v 266.8188 365.9229 -280.6465
v 262.3270 365.9052 -284.3729
v 257.6358 365.2000 -274.1445
v 268.8500 365.7470 -275.1778
v 266.8188 365.9229 -280.6465
v 257.6358 365.2000 -274.1445
v -265.6096 80.9180 294.1712
v -246.4216 514.0530 273.1112
v -266.5832 81.2405 299.9168
v -246.4216 514.0530 273.1112
v -247.3952 514.3755 278.8568
v -266.5832 81.2405 299.9168
v -266.5832 81.2405 299.9168
v -247.3952 514.3755 278.8568
v -270.3008 81.6231 304.3997
v -247.3952 514.3755 278.8568
v -251.1128 514.7581 283.3397
v -270.3008 81.6231 304.3997
v -270.3008 81.6231 304.3997
v -251.1128 514.7581 283.3397
v -275.7662 81.9634 306.4187
v -251.1128 514.7581 283.3397
v -256.5782 515.0984 285.3587
v -275.7662 81.9634 306.4187
v -275.7662 81.9634 306.4187
v -256.5782 515.0984 285.3587
v -281.5150 82.1702 305.4329
v -256.5782 515.0984 285.3587
v -262.3270 515.3052 284.3729
v -281.5150 82.1702 305.4329
v -281.5150 82.1702 305.4329
v -262.3270 515.3052 284.3729
v -286.0068 82.1879 301.7065
v -262.3270 515.3052 284.3729
v -266.8188 515.3229 280.6465
v -286.0068 82.1879 301.7065
v -286.0068 82.1879 301.7065
v -266.8188 515.3229 280.6465
v -288.0380 82.0120 296.2378
v -266.8188 515.3229 280.6465
v -268.8500 515.1470 275.1778
v -288.0380 82.0120 296.2378
v -288.0380 82.0120 296.2378
v -268.8500 515.1470 275.1778
v -287.0644 81.6895 290.4922
v -268.8500 515.1470 275.1778
v -267.8764 514.8245 269.4322
v -287.0644 81.6895 290.4922
v -287.0644 81.6895 290.4922
v -267.8764 514.8245 269.4322
v -283.3468 81.3069 286.0093
v -267.8764 514.8245 269.4322
v -264.1588 514.4419 264.9493
v -283.3468 81.3069 286.0093
v -283.3468 81.3069 286.0093
v -264.1588 514.4419 264.9493
v -277.8814 80.9666 283.9903
v -264.1588 514.4419 264.9493
v -258.6934 514.1016 262.9303
v -277.8814 80.9666 283.9903
v -277.8814 80.9666 283.9903
v -258.6934 514.1016 262.9303
v -272.1326 80.7598 284.9761
v -258.6934 514.1016 262.9303
v -252.9446 513.8948 263.9161
v -272.1326 80.7598 284.9761
v -272.1326 80.7598 284.9761
v -252.9446 513.8948 263.9161
v -267.6408 80.7421 288.7025
v -252.9446 513.8948 263.9161
v -248.4528 513.8771 267.6425
v -267.6408 80.7421 288.7025
v -267.6408 80.7421 288.7025
v -248.4528 513.8771 267.6425
v -265.6096 80.9180 294.1712
v -248.4528 513.8771 267.6425
v -246.4216 514.0530 273.1112
v -265.6096 80.9180 294.1712
v -265.6096 80.9180 294.1712
v -266.5832 81.2405 299.9168
v -276.8238 81.4650 295.2045
v -266.5832 81.2405 299.9168
v -270.3008 81.6231 304.3997
v -276.8238 81.4650 295.2045
v -270.3008 81.6231 304.3997
v -275.7662 81.9634 306.4187
v -276.8238 81.4650 295.2045
v -275.7662 81.9634 306.4187
v -281.5150 82.1702 305.4329
v -276.8238 81.4650 295.2045
v -281.5150 82.1702 305.4329
v -286.0068 82.1879 301.7065
v -276.8238 81.4650 295.2045
v -286.0068 82.1879 301.7065
v -288.0380 82.0120 296.2378
v -276.8238 81.4650 295.2045
v -288.0380 82.0120 296.2378
v -287.0644 81.6895 290.4922
v -276.8238 81.4650 295.2045
v -287.0644 81.6895 290.4922
v -283.3468 81.3069 286.0093
v -276.8238 81.4650 295.2045
v -283.3468 81.3069 286.0093
v -277.8814 80.9666 283.9903
v -276.8238 81.4650 295.2045
v -277.8814 80.9666 283.9903
v -272.1326 80.7598 284.9761
v -276.8238 81.4650 295.2045
v -272.1326 80.7598 284.9761
v -267.6408 80.7421 288.7025
v -276.8238 81.4650 295.2045
v -267.6408 80.7421 288.7025
v -265.6096 80.9180 294.1712
v -276.8238 81.4650 295.2045
v -247.3952 514.3755 278.8568
v -246.4216 514.0530 273.1112
v -257.6358 514.6000 274.1445
v -251.1128 514.7581 283.3397
v -247.3952 514.3755 278.8568
v -257.6358 514.6000 274.1445
v -256.5782 515.0984 285.3587
v -251.1128 514.7581 283.3397
v -257.6358 514.6000 274.1445
v -262.3270 515.3052 284.3729
v -256.5782 515.0984 285.3587
v -257.6358 514.6000 274.1445
v -266.8188 515.3229 280.6465
v -262.3270 515.3052 284.3729
v -257.6358 514.6000 274.1445
v -268.8500 515.1470 275.1778
v -266.8188 515.3229 280.6465
v -257.6358 514.6000 274.1445
v -267.8764 514.8245 269.4322
v -268.8500 515.1470 275.1778
v -257.6358 514.6000 274.1445
v -264.1588 514.4419 264.9493
v -267.8764 514.8245 269.4322
v -257.6358 514.6000 274.1445
v -258.6934 514.1016 262.9303
v -264.1588 514.4419 264.9493
v -257.6358 514.6000 274.1445
v -252.9446 513.8948 263.9161
v -258.6934 514.1016 262.9303
v -257.6358 514.6000 274.1445
v -248.4528 513.8771 267.6425
v -252.9446 513.8948 263.9161
v -257.6358 514.6000 274.1445
v -246.4216 514.0530 273.1112
v -248.4528 513.8771 267.6425
v -257.6358 514.6000 274.1445
v 265.6096 230.3180 294.1712
v 246.4216 663.4530 273.1112
v 267.6408 230.1421 288.7025
v 246.4216 663.4530 273.1112
v 248.4528 663.2771 267.6425
v 267.6408 230.1421 288.7025
v 267.6408 230.1421 288.7025
v 248.4528 663.2771 267.6425
v 272.1326 230.1598 284.9761
v 248.4528 663.2771 267.6425
v 252.9446 663.2948 263.9161
v 272.1326 230.1598 284.9761
v 272.1326 230.1598 284.9761
v 252.9446 663.2948 263.9161
v 277.8814 230.3666 283.9903
v 252.9446 663.2948 263.9161
v 258.6934 663.5016 262.9303
v 277.8814 230.3666 283.9903
v 277.8814 230.3666 283.9903
v 258.6934 663.5016 262.9303
v 283.3468 230.7069 286.0093
v 258.6934 663.5016 262.9303
v 264.1588 663.8419 264.9493
v 283.3468 230.7069 286.0093
v 283.3468 230.7069 286.0093
v 264.1588 663.8419 264.9493
v 287.0644 231.0895 290.4922
v 264.1588 663.8419 264.9493
v 267.8764 664.2245 269.4322
v 287.0644 231.0895 290.4922
v 287.0644 231.0895 290.4922
v 267.8764 664.2245 269.4322
v 288.0380 231.4120 296.2378
v 267.8764 664.2245 269.4322
v 268.8500 664.5470 275.1778
v 288.0380 231.4120 296.2378
v 288.0380 231.4120 296.2378
v 268.8500 664.5470 275.1778
v 286.0068 231.5879 301.7065
v 268.8500 664.5470 275.1778
v 266.8188 664.7229 280.6465
v 286.0068 231.5879 301.7065
v 286.0068 231.5879 301.7065
v 266.8188 664.7229 280.6465
v 281.5150 231.5702 305.4329
v 266.8188 664.7229 280.6465
v 262.3270 664.7052 284.3729
v 281.5150 231.5702 305.4329
v 281.5150 231.5702 305.4329
v 262.3270 664.7052 284.3729
v 275.7662 231.3634 306.4187
v 262.3270 664.7052 284.3729
v 256.5782 664.4984 285.3587
v 275.7662 231.3634 306.4187
v 275.7662 231.3634 306.4187
v 256.5782 664.4984 285.3587
v 270.3008 231.0231 304.3997
v 256.5782 664.4984 285.3587
v 251.1128 664.1581 283.3397
v 270.3008 231.0231 304.3997
v 270.3008 231.0231 304.3997
v 251.1128 664.1581 283.3397
v 266.5832 230.6405 299.9168
v 251.1128 664.1581 283.3397
v 247.3952 663.7755 278.8568
v 266.5832 230.6405 299.9168
v 266.5832 230.6405 299.9168
v 247.3952 663.7755 278.8568
v 265.6096 230.3180 294.1712
v 247.3952 663.7755 278.8568
v 246.4216 663.4530 273.1112
v 265.6096 230.3180 294.1712
v 265.6096 230.3180 294.1712
v 267.6408 230.1421 288.7025
v 276.8238 230.8650 295.2045
v 267.6408 230.1421 288.7025
v 272.1326 230.1598 284.9761
v 276.8238 230.8650 295.2045
v 272.1326 230.1598 284.9761
v 277.8814 230.3666 283.9903
v 276.8238 230.8650 295.2045
v 277.8814 230.3666 283.9903
v 283.3468 230.7069 286.0093
v 276.8238 230.8650 295.2045
v 283.3468 230.7069 286.0093
v 287.0644 231.0895 290.4922
v 276.8238 230.8650 295.2045
v 287.0644 231.0895 290.4922
v 288.0380 231.4120 296.2378
v 276.8238 230.8650 295.2045
v 288.0380 231.4120 296.2378
v 286.0068 231.5879 301.7065
v 276.8238 230.8650 295.2045
v 286.0068 231.5879 301.7065
v 281.5150 231.5702 305.4329
v 276.8238 230.8650 295.2045
v 281.5150 231.5702 305.4329
v 275.7662 231.3634 306.4187
v 276.8238 230.8650 295.2045
v 275.7662 231.3634 306.4187
v 270.3008 231.0231 304.3997
v 276.8238 230.8650 295.2045
v 270.3008 231.0231 304.3997
v 266.5832 230.6405 299.9168
v 276.8238 230.8650 295.2045
v 266.5832 230.6405 299.9168
v 265.6096 230.3180 294.1712
v 276.8238 230.8650 295.2045
v 248.4528 663.2771 267.6425
v 246.4216 663.4530 273.1112
v 257.6358 664.0000 274.1445
v 252.9446 663.2948 263.9161
v 248.4528 663.2771 267.6425
v 257.6358 664.0000 274.1445
v 258.6934 663.5016 262.9303
v 252.9446 663.2948 263.9161
v 257.6358 664.0000 274.1445
v 264.1588 663.8419 264.9493
v 258.6934 663.5016 262.9303
v 257.6358 664.0000 274.1445
v 267.8764 664.2245 269.4322
v 264.1588 663.8419 264.9493
v 257.6358 664.0000 274.1445
v 268.8500 664.5470 275.1778
v 267.8764 664.2245 269.4322
v 257.6358 664.0000 274.1445
v 266.8188 664.7229 280.6465
v 268.8500 664.5470 275.1778
v 257.6358 664.0000 274.1445
v 262.3270 664.7052 284.3729
v 266.8188 664.7229 280.6465
v 257.6358 664.0000 274.1445
v 256.5782 664.4984 285.3587
v 262.3270 664.7052 284.3729
v 257.6358 664.0000 274.1445
v 251.1128 664.1581 283.3397
v 256.5782 664.4984 285.3587
v 257.6358 664.0000 274.1445
v 247.3952 663.7755 278.8568
v 251.1128 664.1581 283.3397
v 257.6358 664.0000 274.1445
v 246.4216 663.4530 273.1112
v 247.3952 663.7755 278.8568
v 257.6358 664.0000 274.1445
v 188.6000 222.5650 193.5000
v 188.6000 209.0350 193.5000
v 188.6000 222.5650 -193.5000
v 188.6000 209.0350 193.5000
v 188.6000 209.0350 -193.5000
v 188.6000 222.5650 -193.5000
v -188.6000 222.5650 -193.5000
v -188.6000 209.0350 -193.5000
v -188.6000 222.5650 193.5000
v -188.6000 209.0350 -193.5000
v -188.6000 209.0350 193.5000
v -188.6000 222.5650 193.5000
v -188.6000 222.5650 -193.5000
v -188.6000 222.5650 193.5000
v 188.6000 222.5650 -193.5000
v -188.6000 222.5650 193.5000
v 188.6000 222.5650 193.5000
v 188.6000 222.5650 -193.5000
v -188.6000 209.0350 193.5000
v -188.6000 209.0350 -193.5000
v 188.6000 209.0350 193.5000
v -188.6000 209.0350 -193.5000
v 188.6000 209.0350 -193.5000
v 188.6000 209.0350 193.5000
v -188.6000 222.5650 193.5000
v -188.6000 209.0350 193.5000
v 188.6000 222.5650 193.5000
v -188.6000 209.0350 193.5000
v 188.6000 209.0350 193.5000
v 188.6000 222.5650 193.5000
v 188.6000 222.5650 -193.5000
v 188.6000 209.0350 -193.5000
v -188.6000 222.5650 -193.5000
v 188.6000 209.0350 -193.5000
v -188.6000 209.0350 -193.5000
v -188.6000 222.5650 -193.5000
v 147.6000 342.6500 -257.1525
v -147.6000 342.6500 -257.1525
v 147.6000 337.5763 -258.5120
v -147.6000 342.6500 -257.1525
v -147.6000 337.5763 -258.5120
v 147.6000 337.5763 -258.5120
v 147.6000 337.5763 -258.5120
v -147.6000 337.5763 -258.5120
v 147.6000 333.8620 -262.2262
v -147.6000 337.5763 -258.5120
v -147.6000 333.8620 -262.2262
v 147.6000 333.8620 -262.2262
v 147.6000 333.8620 -262.2262
v -147.6000 333.8620 -262.2262
v 147.6000 332.5025 -267.3000
v -147.6000 333.8620 -262.2262
v -147.6000 332.5025 -267.3000
v 147.6000 332.5025 -267.3000
v 147.6000 332.5025 -267.3000
v -147.6000 332.5025 -267.3000
v 147.6000 333.8620 -272.3737
v -147.6000 332.5025 -267.3000
v -147.6000 333.8620 -272.3737
v 147.6000 333.8620 -272.3737
v 147.6000 333.8620 -272.3737
v -147.6000 333.8620 -272.3737
v 147.6000 337.5763 -276.0880
v -147.6000 333.8620 -272.3737
v -147.6000 337.5763 -276.0880
v 147.6000 337.5763 -276.0880
v 147.6000 337.5763 -276.0880
v -147.6000 337.5763 -276.0880
v 147.6000 342.6500 -277.4475
v -147.6000 337.5763 -276.0880
v -147.6000 342.6500 -277.4475
v 147.6000 342.6500 -277.4475
v 147.6000 342.6500 -277.4475
v -147.6000 342.6500 -277.4475
v 147.6000 347.7238 -276.0880
v -147.6000 342.6500 -277.4475
v -147.6000 347.7237 -276.0880
v 147.6000 347.7238 -276.0880
v 147.6000 347.7238 -276.0880
v -147.6000 347.7237 -276.0880
v 147.6000 351.4380 -272.3737
v -147.6000 347.7237 -276.0880
v -147.6000 351.4380 -272.3737
v 147.6000 351.4380 -272.3737
v 147.6000 351.4380 -272.3737
v -147.6000 351.4380 -272.3737
v 147.6000 352.7975 -267.3000
v -147.6000 351.4380 -272.3737
v -147.6000 352.7975 -267.3000
v 147.6000 352.7975 -267.3000
v 147.6000 352.7975 -267.3000
v -147.6000 352.7975 -267.3000
v 147.6000 351.4380 -262.2262
v -147.6000 352.7975 -267.3000
v -147.6000 351.4380 -262.2262
v 147.6000 351.4380 -262.2262
v 147.6000 351.4380 -262.2262
v -147.6000 351.4380 -262.2262
v 147.6000 347.7238 -258.5120
v -147.6000 351.4380 -262.2262
v -147.6000 347.7237 -258.5120
v 147.6000 347.7238 -258.5120
v 147.6000 347.7238 -258.5120
v -147.6000 347.7237 -258.5120
v 147.6000 342.6500 -257.1525
v -147.6000 347.7237 -258.5120
v -147.6000 342.6500 -257.1525
v 147.6000 342.6500 -257.1525
v 147.6000 342.6500 -257.1525
v 147.6000 337.5763 -258.5120
v 147.6000 342.6500 -267.3000
v 147.6000 337.5763 -258.5120
v 147.6000 333.8620 -262.2262
v 147.6000 342.6500 -267.3000
v 147.6000 333.8620 -262.2262
v 147.6000 332.5025 -267.3000
v 147.6000 342.6500 -267.3000
v 147.6000 332.5025 -267.3000
v 147.6000 333.8620 -272.3737
v 147.6000 342.6500 -267.3000
v 147.6000 333.8620 -272.3737
v 147.6000 337.5763 -276.0880
v 147.6000 342.6500 -267.3000
v 147.6000 337.5763 -276.0880
v 147.6000 342.6500 -277.4475
v 147.6000 342.6500 -267.3000
v 147.6000 342.6500 -277.4475
v 147.6000 347.7238 -276.0880
v 147.6000 342.6500 -267.3000
v 147.6000 347.7238 -276.0880
v 147.6000 351.4380 -272.3737
v 147.6000 342.6500 -267.3000
v 147.6000 351.4380 -272.3737
v 147.6000 352.7975 -267.3000
v 147.6000 342.6500 -267.3000
v 147.6000 352.7975 -267.3000
v 147.6000 351.4380 -262.2262
v 147.6000 342.6500 -267.3000
v 147.6000 351.4380 -262.2262
v 147.6000 347.7238 -258.5120
v 147.6000 342.6500 -267.3000
v 147.6000 347.7238 -258.5120
v 147.6000 342.6500 -257.1525
v 147.6000 342.6500 -267.3000
v -147.6000 337.5763 -258.5120
v -147.6000 342.6500 -257.1525
v -147.6000 342.6500 -267.3000
v -147.6000 333.8620 -262.2262
v -147.6000 337.5763 -258.5120
v -147.6000 342.6500 -267.3000
v -147.6000 332.5025 -267.3000
v -147.6000 333.8620 -262.2262
v -147.6000 342.6500 -267.3000
v -147.6000 333.8620 -272.3737
v -147.6000 332.5025 -267.3000
v -147.6000 342.6500 -267.3000
v -147.6000 337.5763 -276.0880
v -147.6000 333.8620 -272.3737
v -147.6000 342.6500 -267.3000
v -147.6000 342.6500 -277.4475
v -147.6000 337.5763 -276.0880
v -147.6000 342.6500 -267.3000
v -147.6000 347.7237 -276.0880
v -147.6000 342.6500 -277.4475
v -147.6000 342.6500 -267.3000
v -147.6000 351.4380 -272.3737
v -147.6000 347.7237 -276.0880
v -147.6000 342.6500 -267.3000
v -147.6000 352.7975 -267.3000
v -147.6000 351.4380 -272.3737
v -147.6000 342.6500 -267.3000
v -147.6000 351.4380 -262.2262
v -147.6000 352.7975 -267.3000
v -147.6000 342.6500 -267.3000
v -147.6000 347.7237 -258.5120
v -147.6000 351.4380 -262.2262
v -147.6000 342.6500 -267.3000
v -147.6000 342.6500 -257.1525
v -147.6000 347.7237 -258.5120
v -147.6000 342.6500 -267.3000
v -256.4531 881.8024 294.6521
v -252.3531 514.2524 281.1521
v -251.7181 881.9017 293.3851
v -252.3531 514.2524 281.1521
v -247.6181 514.3517 279.8851
v -251.7181 881.9017 293.3851
v -251.7181 881.9017 293.3851
v -247.6181 514.3517 279.8851
v -248.2524 882.0676 289.9215
v -247.6181 514.3517 279.8851
v -244.1524 514.5176 276.4215
v -248.2524 882.0676 289.9215
v -248.2524 882.0676 289.9215
v -244.1524 514.5176 276.4215
v -246.9846 882.2556 285.1894
v -244.1524 514.5176 276.4215
v -242.8846 514.7056 271.6894
v -246.9846 882.2556 285.1894
v -246.9846 882.2556 285.1894
v -242.8846 514.7056 271.6894
v -248.2544 882.4152 280.4569
v -242.8846 514.7056 271.6894
v -244.1544 514.8652 266.9569
v -248.2544 882.4152 280.4569
v -248.2544 882.4152 280.4569
v -244.1544 514.8652 266.9569
v -251.7215 882.5038 276.9919
v -244.1544 514.8652 266.9569
v -247.6215 514.9538 263.4919
v -251.7215 882.5038 276.9919
v -251.7215 882.5038 276.9919
v -247.6215 514.9538 263.4919
v -256.4569 882.4976 275.7229
v -247.6215 514.9538 263.4919
v -252.3569 514.9476 262.2229
v -256.4569 882.4976 275.7229
v -256.4569 882.4976 275.7229
v -252.3569 514.9476 262.2229
v -261.1919 882.3983 276.9899
v -252.3569 514.9476 262.2229
v -257.0919 514.8483 263.4899
v -261.1919 882.3983 276.9899
v -261.1919 882.3983 276.9899
v -257.0919 514.8483 263.4899
v -264.6576 882.2324 280.4535
v -257.0919 514.8483 263.4899
v -260.5576 514.6824 266.9535
v -264.6576 882.2324 280.4535
v -264.6576 882.2324 280.4535
v -260.5576 514.6824 266.9535
v -265.9254 882.0444 285.1856
v -260.5576 514.6824 266.9535
v -261.8254 514.4944 271.6856
v -265.9254 882.0444 285.1856
v -265.9254 882.0444 285.1856
v -261.8254 514.4944 271.6856
v -264.6556 881.8848 289.9181
v -261.8254 514.4944 271.6856
v -260.5556 514.3348 276.4181
v -264.6556 881.8848 289.9181
v -264.6556 881.8848 289.9181
v -260.5556 514.3348 276.4181
v -261.1885 881.7962 293.3831
v -260.5556 514.3348 276.4181
v -257.0885 514.2462 279.8831
v -261.1885 881.7962 293.3831
v -261.1885 881.7962 293.3831
v -257.0885 514.2462 279.8831
v -256.4531 881.8024 294.6521
v -257.0885 514.2462 279.8831
v -252.3531 514.2524 281.1521
v -256.4531 881.8024 294.6521
v -256.4531 881.8024 294.6521
v -251.7181 881.9017 293.3851
v -256.4550 882.1500 285.1875
v -251.7181 881.9017 293.3851
v -248.2524 882.0676 289.9215
v -256.4550 882.1500 285.1875
v -248.2524 882.0676 289.9215
v -246.9846 882.2556 285.1894
v -256.4550 882.1500 285.1875
v -246.9846 882.2556 285.1894
v -248.2544 882.4152 280.4569
v -256.4550 882.1500 285.1875
v -248.2544 882.4152 280.4569
v -251.7215 882.5038 276.9919
v -256.4550 882.1500 285.1875
v -251.7215 882.5038 276.9919
v -256.4569 882.4976 275.7229
v -256.4550 882.1500 285.1875
v -256.4569 882.4976 275.7229
v -261.1919 882.3983 276.9899
v -256.4550 882.1500 285.1875
v -261.1919 882.3983 276.9899
v -264.6576 882.2324 280.4535
v -256.4550 882.1500 285.1875
v -264.6576 882.2324 280.4535
v -265.9254 882.0444 285.1856
v -256.4550 882.1500 285.1875
v -265.9254 882.0444 285.1856
v -264.6556 881.8848 289.9181
v -256.4550 882.1500 285.1875
v -264.6556 881.8848 289.9181
v -261.1885 881.7962 293.3831
v -256.4550 882.1500 285.1875
v -261.1885 881.7962 293.3831
v -256.4531 881.8024 294.6521
v -256.4550 882.1500 285.1875
v -247.6181 514.3517 279.8851
v -252.3531 514.2524 281.1521
v -252.3550 514.6000 271.6875
v -244.1524 514.5176 276.4215
v -247.6181 514.3517 279.8851
v -252.3550 514.6000 271.6875
v -242.8846 514.7056 271.6894
v -244.1524 514.5176 276.4215
v -252.3550 514.6000 271.6875
v -244.1544 514.8652 266.9569
v -242.8846 514.7056 271.6894
v -252.3550 514.6000 271.6875
v -247.6215 514.9538 263.4919
v -244.1544 514.8652 266.9569
v -252.3550 514.6000 271.6875
v -252.3569 514.9476 262.2229
v -247.6215 514.9538 263.4919
v -252.3550 514.6000 271.6875
v -257.0919 514.8483 263.4899
v -252.3569 514.9476 262.2229
v -252.3550 514.6000 271.6875
v -260.5576 514.6824 266.9535
v -257.0919 514.8483 263.4899
v -252.3550 514.6000 271.6875
v -261.8254 514.4944 271.6856
v -260.5576 514.6824 266.9535
v -252.3550 514.6000 271.6875
v -260.5556 514.3348 276.4181
v -261.8254 514.4944 271.6856
v -252.3550 514.6000 271.6875
v -257.0885 514.2462 279.8831
v -260.5556 514.3348 276.4181
v -252.3550 514.6000 271.6875
v -252.3531 514.2524 281.1521
v -257.0885 514.2462 279.8831
v -252.3550 514.6000 271.6875
v 256.4531 1031.2024 294.6521
v 252.3531 663.6524 281.1521
v 261.1885 1031.1962 293.3831
v 252.3531 663.6524 281.1521
v 257.0885 663.6462 279.8831
v 261.1885 1031.1962 293.3831
v 261.1885 1031.1962 293.3831
v 257.0885 663.6462 279.8831
v 264.6556 1031.2848 289.9181
v 257.0885 663.6462 279.8831
v 260.5556 663.7348 276.4181
v 264.6556 1031.2848 289.9181
v 264.6556 1031.2848 289.9181
v 260.5556 663.7348 276.4181
v 265.9254 1031.4444 285.1856
v 260.5556 663.7348 276.4181
v 261.8254 663.8944 271.6856
v 265.9254 1031.4444 285.1856
v 265.9254 1031.4444 285.1856
v 261.8254 663.8944 271.6856
v 264.6576 1031.6324 280.4535
v 261.8254 663.8944 271.6856
v 260.5576 664.0824 266.9535
v 264.6576 1031.6324 280.4535
v 264.6576 1031.6324 280.4535
v 260.5576 664.0824 266.9535
v 261.1919 1031.7983 276.9899
v 260.5576 664.0824 266.9535
v 257.0919 664.2483 263.4899
v 261.1919 1031.7983 276.9899
v 261.1919 1031.7983 276.9899
v 257.0919 664.2483 263.4899
v 256.4569 1031.8976 275.7229
v 257.0919 664.2483 263.4899
v 252.3569 664.3476 262.2229
v 256.4569 1031.8976 275.7229
v 256.4569 1031.8976 275.7229
v 252.3569 664.3476 262.2229
v 251.7215 1031.9038 276.9919
v 252.3569 664.3476 262.2229
v 247.6215 664.3538 263.4919
v 251.7215 1031.9038 276.9919
v 251.7215 1031.9038 276.9919
v 247.6215 664.3538 263.4919
v 248.2544 1031.8152 280.4569
v 247.6215 664.3538 263.4919
v 244.1544 664.2652 266.9569
v 248.2544 1031.8152 280.4569
v 248.2544 1031.8152 280.4569
v 244.1544 664.2652 266.9569
v 246.9846 1031.6556 285.1894
v 244.1544 664.2652 266.9569
v 242.8846 664.1056 271.6894
v 246.9846 1031.6556 285.1894
v 246.9846 1031.6556 285.1894
v 242.8846 664.1056 271.6894
v 248.2524 1031.4676 289.9215
v 242.8846 664.1056 271.6894
v 244.1524 663.9176 276.4215
v 248.2524 1031.4676 289.9215
v 248.2524 1031.4676 289.9215
v 244.1524 663.9176 276.4215
v 251.7181 1031.3017 293.3851
v 244.1524 663.9176 276.4215
v 247.6181 663.7517 279.8851
v 251.7181 1031.3017 293.3851
v 251.7181 1031.3017 293.3851
v 247.6181 663.7517 279.8851
v 256.4531 1031.2024 294.6521
v 247.6181 663.7517 279.8851
v 252.3531 663.6524 281.1521
v 256.4531 1031.2024 294.6521
v 256.4531 1031.2024 294.6521
v 261.1885 1031.1962 293.3831
v 256.4550 1031.5500 285.1875
v 261.1885 1031.1962 293.3831
v 264.6556 1031.2848 289.9181
v 256.4550 1031.5500 285.1875
v 264.6556 1031.2848 289.9181
v 265.9254 1031.4444 285.1856
v 256.4550 1031.5500 285.1875
v 265.9254 1031.4444 285.1856
v 264.6576 1031.6324 280.4535
v 256.4550 1031.5500 285.1875
v 264.6576 1031.6324 280.4535
v 261.1919 1031.7983 276.9899
v 256.4550 1031.5500 285.1875
v 261.1919 1031.7983 276.9899
v 256.4569 1031.8976 275.7229
v 256.4550 1031.5500 285.1875
v 256.4569 1031.8976 275.7229
v 251.7215 1031.9038 276.9919
v 256.4550 1031.5500 285.1875
v 251.7215 1031.9038 276.9919
v 248.2544 1031.8152 280.4569
v 256.4550 1031.5500 285.1875
v 248.2544 1031.8152 280.4569
v 246.9846 1031.6556 285.1894
v 256.4550 1031.5500 285.1875
v 246.9846 1031.6556 285.1894
v 248.2524 1031.4676 289.9215
v 256.4550 1031.5500 285.1875
v 248.2524 1031.4676 289.9215
v 251.7181 1031.3017 293.3851
v 256.4550 1031.5500 285.1875
v 251.7181 1031.3017 293.3851
v 256.4531 1031.2024 294.6521
v 256.4550 1031.5500 285.1875
v 257.0885 663.6462 279.8831
v 252.3531 663.6524 281.1521
v 252.3550 664.0000 271.6875
v 260.5556 663.7348 276.4181
v 257.0885 663.6462 279.8831
v 252.3550 664.0000 271.6875
v 261.8254 663.8944 271.6856
v 260.5556 663.7348 276.4181
v 252.3550 664.0000 271.6875
v 260.5576 664.0824 266.9535
v 261.8254 663.8944 271.6856
v 252.3550 664.0000 271.6875
v 257.0919 664.2483 263.4899
v 260.5576 664.0824 266.9535
v 252.3550 664.0000 271.6875
v 252.3569 664.3476 262.2229
v 257.0919 664.2483 263.4899
v 252.3550 664.0000 271.6875
v 247.6215 664.3538 263.4919
v 252.3569 664.3476 262.2229
v 252.3550 664.0000 271.6875
v 244.1544 664.2652 266.9569
v 247.6215 664.3538 263.4919
v 252.3550 664.0000 271.6875
v 242.8846 664.1056 271.6894
v 244.1544 664.2652 266.9569
v 252.3550 664.0000 271.6875
v 244.1524 663.9176 276.4215
v 242.8846 664.1056 271.6894
v 252.3550 664.0000 271.6875
v 247.6181 663.7517 279.8851
v 244.1524 663.9176 276.4215
v 252.3550 664.0000 271.6875
v 252.3531 663.6524 281.1521
v 247.6181 663.7517 279.8851
v 252.3550 664.0000 271.6875
v 180.4000 568.7853 281.2655
v 180.4000 378.4959 296.5212
v 180.4000 567.7041 267.7788
v 180.4000 378.4959 296.5212
v 180.4000 377.4147 283.0345
v 180.4000 567.7041 267.7788
v -180.4000 567.7041 267.7788
v -180.4000 377.4147 283.0345
v -180.4000 568.7853 281.2655
v -180.4000 377.4147 283.0345
v -180.4000 378.4959 296.5212
v -180.4000 568.7853 281.2655
v -180.4000 567.7041 267.7788
v -180.4000 568.7853 281.2655
v 180.4000 567.7041 267.7788
v -180.4000 568.7853 281.2655
v 180.4000 568.7853 281.2655
v 180.4000 567.7041 267.7788
v -180.4000 378.4959 296.5212
v -180.4000 377.4147 283.0345
v 180.4000 378.4959 296.5212
v -180.4000 377.4147 283.0345
v 180.4000 377.4147 283.0345
v 180.4000 378.4959 296.5212
v -180.4000 568.7853 281.2655
v -180.4000 378.4959 296.5212
v 180.4000 568.7853 281.2655
v -180.4000 378.4959 296.5212
v 180.4000 378.4959 296.5212
v 180.4000 568.7853 281.2655
v 180.4000 567.7041 267.7788
v 180.4000 377.4147 283.0345
v -180.4000 567.7041 267.7788
v 180.4000 377.4147 283.0345
v -180.4000 377.4147 283.0345
v -180.4000 567.7041 267.7788
f 1 2 3
f 4 5 6
f 7 8 9
f 10 11 12
f 13 14 15
f 16 17 18
f 19 20 21
f 22 23 24
f 25 26 27
f 28 29 30
f 31 32 33
f 34 35 36
f 37 38 39
f 40 41 42
f 43 44 45
f 46 47 48
f 49 50 51
f 52 53 54
f 55 56 57
f 58 59 60
f 61 62 63
f 64 65 66
f 67 68 69
f 70 71 72
f 73 74 75
f 76 77 78
f 79 80 81
f 82 83 84
f 85 86 87
f 88 89 90
f 91 92 93
f 94 95 96
f 97 98 99
f 100 101 102
f 103 104 105
f 106 107 108
f 109 110 111
f 112 113 114
f 115 116 117
f 118 119 120
f 121 122 123
f 124 125 126
f 127 128 129
f 130 131 132
f 133 134 135
f 136 137 138
f 139 140 141
f 142 143 144
f 145 146 147
f 148 149 150
f 151 152 153
f 154 155 156
f 157 158 159
f 160 161 162
f 163 164 165
f 166 167 168
f 169 170 171
f 172 173 174
f 175 176 177
f 178 179 180
f 181 182 183
f 184 185 186
f 187 188 189
f 190 191 192
f 193 194 195
f 196 197 198
f 199 200 201
f 202 203 204
f 205 206 207
f 208 209 210
f 211 212 213
f 214 215 216
f 217 218 219
f 220 221 222
f 223 224 225
f 226 227 228
f 229 230 231
f 232 233 234
f 235 236 237
f 238 239 240
f 241 242 243
f 244 245 246
f 247 248 249
f 250 251 252
f 253 254 255
f 256 257 258
f 259 260 261
f 262 263 264
f 265 266 267
f 268 269 270
f 271 272 273
f 274 275 276
f 277 278 279
f 280 281 282
f 283 284 285
f 286 287 288
f 289 290 291
f 292 293 294
f 295 296 297
f 298 299 300
f 301 302 303
f 304 305 306
f 307 308 309
f 310 311 312
f 313 314 315
f 316 317 318
f 319 320 321
f 322 323 324
f 325 326 327
f 328 329 330
f 331 332 333
f 334 335 336
f 337 338 339
f 340 341 342
f 343 344 345
f 346 347 348
f 349 350 351
f 352 353 354
f 355 356 357
f 358 359 360
f 361 362 363
f 364 365 366
f 367 368 369
f 370 371 372
f 373 374 375
f 376 377 378
f 379 380 381
f 382 383 384
f 385 386 387
f 388 389 390
f 391 392 393
f 394 395 396
f 397 398 399
f 400 401 402
f 403 404 405
f 406 407 408
f 409 410 411
f 412 413 414
f 415 416 417
f 418 419 420
f 421 422 423
f 424 425 426
f 427 428 429
f 430 431 432
f 433 434 435
f 436 437 438
f 439 440 441
f 442 443 444
f 445 446 447
f 448 449 450
f 451 452 453
f 454 455 456
f 457 458 459
f 460 461 462
f 463 464 465
f 466 467 468
f 469 470 471
f 472 473 474
f 475 476 477
f 478 479 480
f 481 482 483
f 484 485 486
f 487 488 489
f 490 491 492
f 493 494 495
f 496 497 498
f 499 500 501
f 502 503 504
f 505 506 507
f 508 509 510
f 511 512 513
f 514 515 516
f 517 518 519
f 520 521 522
f 523 524 525
f 526 527 528
f 529 530 531
f 532 533 534
f 535 536 537
f 538 539 540
f 541 542 543
f 544 545 546
f 547 548 549
f 550 551 552
f 553 554 555
f 556 557 558
f 559 560 561
f 562 563 564
f 565 566 567
f 568 569 570
f 571 572 573
f 574 575 576
f 577 578 579
f 580 581 582
f 583 584 585
f 586 587 588
f 589 590 591
f 592 593 594
f 595 596 597
f 598 599 600
f 601 602 603
f 604 605 606
f 607 608 609
f 610 611 612
f 613 614 615
f 616 617 618
f 619 620 621
f 622 623 624
f 625 626 627
f 628 629 630
f 631 632 633
f 634 635 636
f 637 638 639
f 640 641 642
f 643 644 645
f 646 647 648
f 649 650 651
f 652 653 654
f 655 656 657
f 658 659 660
f 661 662 663
f 664 665 666
f 667 668 669
f 670 671 672
f 673 674 675
f 676 677 678
f 679 680 681
f 682 683 684
f 685 686 687
f 688 689 690
f 691 692 693
f 694 695 696
f 697 698 699
f 700 701 702
f 703 704 705
f 706 707 708
f 709 710 711
f 712 713 714
f 715 716 717
f 718 719 720
f 721 722 723
f 724 725 726
f 727 728 729
f 730 731 732
f 733 734 735
f 736 737 738
f 739 740 741
f 742 743 744
f 745 746 747
f 748 749 750
f 751 752 753
f 754 755 756
f 757 758 759
f 760 761 762
f 763 764 765
f 766 767 768
f 769 770 771
f 772 773 774
f 775 776 777
f 778 779 780
f 781 782 783
f 784 785 786
f 787 788 789
f 790 791 792
f 793 794 795
f 796 797 798
f 799 800 801
f 802 803 804
f 805 806 807
f 808 809 810
f 811 812 813
f 814 815 816
f 817 818 819
f 820 821 822
f 823 824 825
f 826 827 828
f 829 830 831
f 832 833 834
f 835 836 837
f 838 839 840
f 841 842 843
f 844 845 846
f 847 848 849
f 850 851 852
f 853 854 855
f 856 857 858
f 859 860 861
f 862 863 864
f 865 866 867
f 868 869 870
f 871 872 873
f 874 875 876
f 877 878 879
f 880 881 882
f 883 884 885
f 886 887 888
f 889 890 891
f 892 893 894
f 895 896 897
f 898 899 900
f 901 902 903
f 904 905 906
f 907 908 909
f 910 911 912
f 913 914 915
f 916 917 918
f 919 920 921
f 922 923 924
f 925 926 927
f 928 929 930
f 931 932 933
f 934 935 936
f 937 938 939
f 940 941 942
f 943 944 945
f 946 947 948
f 949 950 951
f 952 953 954
f 955 956 957
f 958 959 960
f 961 962 963
f 964 965 966
f 967 968 969
f 970 971 972
f 973 974 975
f 976 977 978
f 979 980 981
f 982 983 984
f 985 986 987
f 988 989 990
f 991 992 993
f 994 995 996
f 997 998 999
f 1000 1001 1002
f 1003 1004 1005
f 1006 1007 1008
f 1009 1010 1011
f 1012 1013 1014
f 1015 1016 1017
f 1018 1019 1020
f 1021 1022 1023
f 1024 1025 1026
f 1027 1028 1029
f 1030 1031 1032
f 1033 1034 1035
f 1036 1037 1038
f 1039 1040 1041
f 1042 1043 1044
f 1045 1046 1047
f 1048 1049 1050
f 1051 1052 1053
f 1054 1055 1056
f 1057 1058 1059
f 1060 1061 1062
f 1063 1064 1065
f 1066 1067 1068
f 1069 1070 1071
f 1072 1073 1074
f 1075 1076 1077
f 1078 1079 1080
