# MATERIA - 646 Leggera
# Geometria originale di studio. Unita mm. Non CAD del produttore.
v -316.1798 -221.4621 -308.8473
v -295.1198 221.6129 -286.8513
v -314.2495 -221.2508 -314.9517
v -295.1198 221.6129 -286.8513
v -293.1895 221.8242 -292.9557
v -314.2495 -221.2508 -314.9517
v -314.2495 -221.2508 -314.9517
v -293.1895 221.8242 -292.9557
v -309.5276 -221.2604 -319.2803
v -293.1895 221.8242 -292.9557
v -288.4676 221.8146 -297.2843
v -309.5276 -221.2604 -319.2803
v -309.5276 -221.2604 -319.2803
v -288.4676 221.8146 -297.2843
v -303.2793 -221.4882 -320.6735
v -288.4676 221.8146 -297.2843
v -282.2193 221.5868 -298.6775
v -303.2793 -221.4882 -320.6735
v -303.2793 -221.4882 -320.6735
v -282.2193 221.5868 -298.6775
v -297.1788 -221.8733 -318.7577
v -282.2193 221.5868 -298.6775
v -276.1188 221.2017 -296.7617
v -297.1788 -221.8733 -318.7577
v -297.1788 -221.8733 -318.7577
v -276.1188 221.2017 -296.7617
v -292.8608 -222.3124 -314.0465
v -276.1188 221.2017 -296.7617
v -271.8008 220.7626 -292.0505
v -292.8608 -222.3124 -314.0465
v -292.8608 -222.3124 -314.0465
v -271.8008 220.7626 -292.0505
v -291.4822 -222.6879 -307.8021
v -271.8008 220.7626 -292.0505
v -270.4222 220.3871 -285.8061
v -291.4822 -222.6879 -307.8021
v -291.4822 -222.6879 -307.8021
v -270.4222 220.3871 -285.8061
v -293.4125 -222.8992 -301.6977
v -270.4222 220.3871 -285.8061
v -272.3525 220.1758 -279.7017
v -293.4125 -222.8992 -301.6977
v -293.4125 -222.8992 -301.6977
v -272.3525 220.1758 -279.7017
v -298.1344 -222.8896 -297.3691
v -272.3525 220.1758 -279.7017
v -277.0744 220.1854 -275.3731
v -298.1344 -222.8896 -297.3691
v -298.1344 -222.8896 -297.3691
v -277.0744 220.1854 -275.3731
v -304.3827 -222.6618 -295.9759
v -277.0744 220.1854 -275.3731
v -283.3227 220.4132 -273.9799
v -304.3827 -222.6618 -295.9759
v -304.3827 -222.6618 -295.9759
v -283.3227 220.4132 -273.9799
v -310.4832 -222.2767 -297.8917
v -283.3227 220.4132 -273.9799
v -289.4232 220.7983 -275.8957
v -310.4832 -222.2767 -297.8917
v -310.4832 -222.2767 -297.8917
v -289.4232 220.7983 -275.8957
v -314.8012 -221.8376 -302.6029
v -289.4232 220.7983 -275.8957
v -293.7412 221.2374 -280.6069
v -314.8012 -221.8376 -302.6029
v -314.8012 -221.8376 -302.6029
v -293.7412 221.2374 -280.6069
v -316.1798 -221.4621 -308.8473
v -293.7412 221.2374 -280.6069
v -295.1198 221.6129 -286.8513
v -316.1798 -221.4621 -308.8473
v -316.1798 -221.4621 -308.8473
v -314.2495 -221.2508 -314.9517
v -303.8310 -222.0750 -308.3247
v -314.2495 -221.2508 -314.9517
v -309.5276 -221.2604 -319.2803
v -303.8310 -222.0750 -308.3247
v -309.5276 -221.2604 -319.2803
v -303.2793 -221.4882 -320.6735
v -303.8310 -222.0750 -308.3247
v -303.2793 -221.4882 -320.6735
v -297.1788 -221.8733 -318.7577
v -303.8310 -222.0750 -308.3247
v -297.1788 -221.8733 -318.7577
v -292.8608 -222.3124 -314.0465
v -303.8310 -222.0750 -308.3247
v -292.8608 -222.3124 -314.0465
v -291.4822 -222.6879 -307.8021
v -303.8310 -222.0750 -308.3247
v -291.4822 -222.6879 -307.8021
v -293.4125 -222.8992 -301.6977
v -303.8310 -222.0750 -308.3247
v -293.4125 -222.8992 -301.6977
v -298.1344 -222.8896 -297.3691
v -303.8310 -222.0750 -308.3247
v -298.1344 -222.8896 -297.3691
v -304.3827 -222.6618 -295.9759
v -303.8310 -222.0750 -308.3247
v -304.3827 -222.6618 -295.9759
v -310.4832 -222.2767 -297.8917
v -303.8310 -222.0750 -308.3247
v -310.4832 -222.2767 -297.8917
v -314.8012 -221.8376 -302.6029
v -303.8310 -222.0750 -308.3247
v -314.8012 -221.8376 -302.6029
v -316.1798 -221.4621 -308.8473
v -303.8310 -222.0750 -308.3247
v -293.1895 221.8242 -292.9557
v -295.1198 221.6129 -286.8513
v -282.7710 221.0000 -286.3287
v -288.4676 221.8146 -297.2843
v -293.1895 221.8242 -292.9557
v -282.7710 221.0000 -286.3287
v -282.2193 221.5868 -298.6775
v -288.4676 221.8146 -297.2843
v -282.7710 221.0000 -286.3287
v -276.1188 221.2017 -296.7617
v -282.2193 221.5868 -298.6775
v -282.7710 221.0000 -286.3287
v -271.8008 220.7626 -292.0505
v -276.1188 221.2017 -296.7617
v -282.7710 221.0000 -286.3287
v -270.4222 220.3871 -285.8061
v -271.8008 220.7626 -292.0505
v -282.7710 221.0000 -286.3287
v -272.3525 220.1758 -279.7017
v -270.4222 220.3871 -285.8061
v -282.7710 221.0000 -286.3287
v -277.0744 220.1854 -275.3731
v -272.3525 220.1758 -279.7017
v -282.7710 221.0000 -286.3287
v -283.3227 220.4132 -273.9799
v -277.0744 220.1854 -275.3731
v -282.7710 221.0000 -286.3287
v -289.4232 220.7983 -275.8957
v -283.3227 220.4132 -273.9799
v -282.7710 221.0000 -286.3287
v -293.7412 221.2374 -280.6069
v -289.4232 220.7983 -275.8957
v -282.7710 221.0000 -286.3287
v -295.1198 221.6129 -286.8513
v -293.7412 221.2374 -280.6069
v -282.7710 221.0000 -286.3287
v 316.1798 -68.4621 -308.8473
v 295.1198 374.6129 -286.8513
v 314.8012 -68.8376 -302.6029
v 295.1198 374.6129 -286.8513
v 293.7412 374.2374 -280.6069
v 314.8012 -68.8376 -302.6029
v 314.8012 -68.8376 -302.6029
v 293.7412 374.2374 -280.6069
v 310.4832 -69.2767 -297.8917
v 293.7412 374.2374 -280.6069
v 289.4232 373.7983 -275.8957
v 310.4832 -69.2767 -297.8917
v 310.4832 -69.2767 -297.8917
v 289.4232 373.7983 -275.8957
v 304.3827 -69.6618 -295.9759
v 289.4232 373.7983 -275.8957
v 283.3227 373.4132 -273.9799
v 304.3827 -69.6618 -295.9759
v 304.3827 -69.6618 -295.9759
v 283.3227 373.4132 -273.9799
v 298.1344 -69.8896 -297.3691
v 283.3227 373.4132 -273.9799
v 277.0744 373.1854 -275.3731
v 298.1344 -69.8896 -297.3691
v 298.1344 -69.8896 -297.3691
v 277.0744 373.1854 -275.3731
v 293.4125 -69.8992 -301.6977
v 277.0744 373.1854 -275.3731
v 272.3525 373.1758 -279.7017
v 293.4125 -69.8992 -301.6977
v 293.4125 -69.8992 -301.6977
v 272.3525 373.1758 -279.7017
v 291.4822 -69.6879 -307.8021
v 272.3525 373.1758 -279.7017
v 270.4222 373.3871 -285.8061
v 291.4822 -69.6879 -307.8021
v 291.4822 -69.6879 -307.8021
v 270.4222 373.3871 -285.8061
v 292.8608 -69.3124 -314.0465
v 270.4222 373.3871 -285.8061
v 271.8008 373.7626 -292.0505
v 292.8608 -69.3124 -314.0465
v 292.8608 -69.3124 -314.0465
v 271.8008 373.7626 -292.0505
v 297.1788 -68.8733 -318.7577
v 271.8008 373.7626 -292.0505
v 276.1188 374.2017 -296.7617
v 297.1788 -68.8733 -318.7577
v 297.1788 -68.8733 -318.7577
v 276.1188 374.2017 -296.7617
v 303.2793 -68.4882 -320.6735
v 276.1188 374.2017 -296.7617
v 282.2193 374.5868 -298.6775
v 303.2793 -68.4882 -320.6735
v 303.2793 -68.4882 -320.6735
v 282.2193 374.5868 -298.6775
v 309.5276 -68.2604 -319.2803
v 282.2193 374.5868 -298.6775
v 288.4676 374.8146 -297.2843
v 309.5276 -68.2604 -319.2803
v 309.5276 -68.2604 -319.2803
v 288.4676 374.8146 -297.2843
v 314.2495 -68.2508 -314.9517
v 288.4676 374.8146 -297.2843
v 293.1895 374.8242 -292.9557
v 314.2495 -68.2508 -314.9517
v 314.2495 -68.2508 -314.9517
v 293.1895 374.8242 -292.9557
v 316.1798 -68.4621 -308.8473
v 293.1895 374.8242 -292.9557
v 295.1198 374.6129 -286.8513
v 316.1798 -68.4621 -308.8473
v 316.1798 -68.4621 -308.8473
v 314.8012 -68.8376 -302.6029
v 303.8310 -69.0750 -308.3247
v 314.8012 -68.8376 -302.6029
v 310.4832 -69.2767 -297.8917
v 303.8310 -69.0750 -308.3247
v 310.4832 -69.2767 -297.8917
v 304.3827 -69.6618 -295.9759
v 303.8310 -69.0750 -308.3247
v 304.3827 -69.6618 -295.9759
v 298.1344 -69.8896 -297.3691
v 303.8310 -69.0750 -308.3247
v 298.1344 -69.8896 -297.3691
v 293.4125 -69.8992 -301.6977
v 303.8310 -69.0750 -308.3247
v 293.4125 -69.8992 -301.6977
v 291.4822 -69.6879 -307.8021
v 303.8310 -69.0750 -308.3247
v 291.4822 -69.6879 -307.8021
v 292.8608 -69.3124 -314.0465
v 303.8310 -69.0750 -308.3247
v 292.8608 -69.3124 -314.0465
v 297.1788 -68.8733 -318.7577
v 303.8310 -69.0750 -308.3247
v 297.1788 -68.8733 -318.7577
v 303.2793 -68.4882 -320.6735
v 303.8310 -69.0750 -308.3247
v 303.2793 -68.4882 -320.6735
v 309.5276 -68.2604 -319.2803
v 303.8310 -69.0750 -308.3247
v 309.5276 -68.2604 -319.2803
v 314.2495 -68.2508 -314.9517
v 303.8310 -69.0750 -308.3247
v 314.2495 -68.2508 -314.9517
v 316.1798 -68.4621 -308.8473
v 303.8310 -69.0750 -308.3247
v 293.7412 374.2374 -280.6069
v 295.1198 374.6129 -286.8513
v 282.7710 374.0000 -286.3287
v 289.4232 373.7983 -275.8957
v 293.7412 374.2374 -280.6069
v 282.7710 374.0000 -286.3287
v 283.3227 373.4132 -273.9799
v 289.4232 373.7983 -275.8957
v 282.7710 374.0000 -286.3287
v 277.0744 373.1854 -275.3731
v 283.3227 373.4132 -273.9799
v 282.7710 374.0000 -286.3287
v 272.3525 373.1758 -279.7017
v 277.0744 373.1854 -275.3731
v 282.7710 374.0000 -286.3287
v 270.4222 373.3871 -285.8061
v 272.3525 373.1758 -279.7017
v 282.7710 374.0000 -286.3287
v 271.8008 373.7626 -292.0505
v 270.4222 373.3871 -285.8061
v 282.7710 374.0000 -286.3287
v 276.1188 374.2017 -296.7617
v 271.8008 373.7626 -292.0505
v 282.7710 374.0000 -286.3287
v 282.2193 374.5868 -298.6775
v 276.1188 374.2017 -296.7617
v 282.7710 374.0000 -286.3287
v 288.4676 374.8146 -297.2843
v 282.2193 374.5868 -298.6775
v 282.7710 374.0000 -286.3287
v 293.1895 374.8242 -292.9557
v 288.4676 374.8146 -297.2843
v 282.7710 374.0000 -286.3287
v 295.1198 374.6129 -286.8513
v 293.1895 374.8242 -292.9557
v 282.7710 374.0000 -286.3287
v -291.4822 83.3121 307.8021
v -270.4222 526.3871 285.8061
v -292.8608 83.6876 314.0465
v -270.4222 526.3871 285.8061
v -271.8008 526.7626 292.0505
v -292.8608 83.6876 314.0465
v -292.8608 83.6876 314.0465
v -271.8008 526.7626 292.0505
v -297.1788 84.1267 318.7577
v -271.8008 526.7626 292.0505
v -276.1188 527.2017 296.7617
v -297.1788 84.1267 318.7577
v -297.1788 84.1267 318.7577
v -276.1188 527.2017 296.7617
v -303.2793 84.5118 320.6735
v -276.1188 527.2017 296.7617
v -282.2193 527.5868 298.6775
v -303.2793 84.5118 320.6735
v -303.2793 84.5118 320.6735
v -282.2193 527.5868 298.6775
v -309.5276 84.7396 319.2803
v -282.2193 527.5868 298.6775
v -288.4676 527.8146 297.2843
v -309.5276 84.7396 319.2803
v -309.5276 84.7396 319.2803
v -288.4676 527.8146 297.2843
v -314.2495 84.7492 314.9517
v -288.4676 527.8146 297.2843
v -293.1895 527.8242 292.9557
v -314.2495 84.7492 314.9517
v -314.2495 84.7492 314.9517
v -293.1895 527.8242 292.9557
v -316.1798 84.5379 308.8473
v -293.1895 527.8242 292.9557
v -295.1198 527.6129 286.8513
v -316.1798 84.5379 308.8473
v -316.1798 84.5379 308.8473
v -295.1198 527.6129 286.8513
v -314.8012 84.1624 302.6029
v -295.1198 527.6129 286.8513
v -293.7412 527.2374 280.6069
v -314.8012 84.1624 302.6029
v -314.8012 84.1624 302.6029
v -293.7412 527.2374 280.6069
v -310.4832 83.7233 297.8917
v -293.7412 527.2374 280.6069
v -289.4232 526.7983 275.8957
v -310.4832 83.7233 297.8917
v -310.4832 83.7233 297.8917
v -289.4232 526.7983 275.8957
v -304.3827 83.3382 295.9759
v -289.4232 526.7983 275.8957
v -283.3227 526.4132 273.9799
v -304.3827 83.3382 295.9759
v -304.3827 83.3382 295.9759
v -283.3227 526.4132 273.9799
v -298.1344 83.1104 297.3691
v -283.3227 526.4132 273.9799
v -277.0744 526.1854 275.3731
v -298.1344 83.1104 297.3691
v -298.1344 83.1104 297.3691
v -277.0744 526.1854 275.3731
v -293.4125 83.1008 301.6977
v -277.0744 526.1854 275.3731
v -272.3525 526.1758 279.7017
v -293.4125 83.1008 301.6977
v -293.4125 83.1008 301.6977
v -272.3525 526.1758 279.7017
v -291.4822 83.3121 307.8021
v -272.3525 526.1758 279.7017
v -270.4222 526.3871 285.8061
v -291.4822 83.3121 307.8021
v -291.4822 83.3121 307.8021
v -292.8608 83.6876 314.0465
v -303.8310 83.9250 308.3247
v -292.8608 83.6876 314.0465
v -297.1788 84.1267 318.7577
v -303.8310 83.9250 308.3247
v -297.1788 84.1267 318.7577
v -303.2793 84.5118 320.6735
v -303.8310 83.9250 308.3247
v -303.2793 84.5118 320.6735
v -309.5276 84.7396 319.2803
v -303.8310 83.9250 308.3247
v -309.5276 84.7396 319.2803
v -314.2495 84.7492 314.9517
v -303.8310 83.9250 308.3247
v -314.2495 84.7492 314.9517
v -316.1798 84.5379 308.8473
v -303.8310 83.9250 308.3247
v -316.1798 84.5379 308.8473
v -314.8012 84.1624 302.6029
v -303.8310 83.9250 308.3247
v -314.8012 84.1624 302.6029
v -310.4832 83.7233 297.8917
v -303.8310 83.9250 308.3247
v -310.4832 83.7233 297.8917
v -304.3827 83.3382 295.9759
v -303.8310 83.9250 308.3247
v -304.3827 83.3382 295.9759
v -298.1344 83.1104 297.3691
v -303.8310 83.9250 308.3247
v -298.1344 83.1104 297.3691
v -293.4125 83.1008 301.6977
v -303.8310 83.9250 308.3247
v -293.4125 83.1008 301.6977
v -291.4822 83.3121 307.8021
v -303.8310 83.9250 308.3247
v -271.8008 526.7626 292.0505
v -270.4222 526.3871 285.8061
v -282.7710 527.0000 286.3287
v -276.1188 527.2017 296.7617
v -271.8008 526.7626 292.0505
v -282.7710 527.0000 286.3287
v -282.2193 527.5868 298.6775
v -276.1188 527.2017 296.7617
v -282.7710 527.0000 286.3287
v -288.4676 527.8146 297.2843
v -282.2193 527.5868 298.6775
v -282.7710 527.0000 286.3287
v -293.1895 527.8242 292.9557
v -288.4676 527.8146 297.2843
v -282.7710 527.0000 286.3287
v -295.1198 527.6129 286.8513
v -293.1895 527.8242 292.9557
v -282.7710 527.0000 286.3287
v -293.7412 527.2374 280.6069
v -295.1198 527.6129 286.8513
v -282.7710 527.0000 286.3287
v -289.4232 526.7983 275.8957
v -293.7412 527.2374 280.6069
v -282.7710 527.0000 286.3287
v -283.3227 526.4132 273.9799
v -289.4232 526.7983 275.8957
v -282.7710 527.0000 286.3287
v -277.0744 526.1854 275.3731
v -283.3227 526.4132 273.9799
v -282.7710 527.0000 286.3287
v -272.3525 526.1758 279.7017
v -277.0744 526.1854 275.3731
v -282.7710 527.0000 286.3287
v -270.4222 526.3871 285.8061
v -272.3525 526.1758 279.7017
v -282.7710 527.0000 286.3287
v 291.4822 236.3121 307.8021
v 270.4222 679.3871 285.8061
v 293.4125 236.1008 301.6977
v 270.4222 679.3871 285.8061
v 272.3525 679.1758 279.7017
v 293.4125 236.1008 301.6977
v 293.4125 236.1008 301.6977
v 272.3525 679.1758 279.7017
v 298.1344 236.1104 297.3691
v 272.3525 679.1758 279.7017
v 277.0744 679.1854 275.3731
v 298.1344 236.1104 297.3691
v 298.1344 236.1104 297.3691
v 277.0744 679.1854 275.3731
v 304.3827 236.3382 295.9759
v 277.0744 679.1854 275.3731
v 283.3227 679.4132 273.9799
v 304.3827 236.3382 295.9759
v 304.3827 236.3382 295.9759
v 283.3227 679.4132 273.9799
v 310.4832 236.7233 297.8917
v 283.3227 679.4132 273.9799
v 289.4232 679.7983 275.8957
v 310.4832 236.7233 297.8917
v 310.4832 236.7233 297.8917
v 289.4232 679.7983 275.8957
v 314.8012 237.1624 302.6029
v 289.4232 679.7983 275.8957
v 293.7412 680.2374 280.6069
v 314.8012 237.1624 302.6029
v 314.8012 237.1624 302.6029
v 293.7412 680.2374 280.6069
v 316.1798 237.5379 308.8473
v 293.7412 680.2374 280.6069
v 295.1198 680.6129 286.8513
v 316.1798 237.5379 308.8473
v 316.1798 237.5379 308.8473
v 295.1198 680.6129 286.8513
v 314.2495 237.7492 314.9517
v 295.1198 680.6129 286.8513
v 293.1895 680.8242 292.9557
v 314.2495 237.7492 314.9517
v 314.2495 237.7492 314.9517
v 293.1895 680.8242 292.9557
v 309.5276 237.7396 319.2803
v 293.1895 680.8242 292.9557
v 288.4676 680.8146 297.2843
v 309.5276 237.7396 319.2803
v 309.5276 237.7396 319.2803
v 288.4676 680.8146 297.2843
v 303.2793 237.5118 320.6735
v 288.4676 680.8146 297.2843
v 282.2193 680.5868 298.6775
v 303.2793 237.5118 320.6735
v 303.2793 237.5118 320.6735
v 282.2193 680.5868 298.6775
v 297.1788 237.1267 318.7577
v 282.2193 680.5868 298.6775
v 276.1188 680.2017 296.7617
v 297.1788 237.1267 318.7577
v 297.1788 237.1267 318.7577
v 276.1188 680.2017 296.7617
v 292.8608 236.6876 314.0465
v 276.1188 680.2017 296.7617
v 271.8008 679.7626 292.0505
v 292.8608 236.6876 314.0465
v 292.8608 236.6876 314.0465
v 271.8008 679.7626 292.0505
v 291.4822 236.3121 307.8021
v 271.8008 679.7626 292.0505
v 270.4222 679.3871 285.8061
v 291.4822 236.3121 307.8021
v 291.4822 236.3121 307.8021
v 293.4125 236.1008 301.6977
v 303.8310 236.9250 308.3247
v 293.4125 236.1008 301.6977
v 298.1344 236.1104 297.3691
v 303.8310 236.9250 308.3247
v 298.1344 236.1104 297.3691
v 304.3827 236.3382 295.9759
v 303.8310 236.9250 308.3247
v 304.3827 236.3382 295.9759
v 310.4832 236.7233 297.8917
v 303.8310 236.9250 308.3247
v 310.4832 236.7233 297.8917
v 314.8012 237.1624 302.6029
v 303.8310 236.9250 308.3247
v 314.8012 237.1624 302.6029
v 316.1798 237.5379 308.8473
v 303.8310 236.9250 308.3247
v 316.1798 237.5379 308.8473
v 314.2495 237.7492 314.9517
v 303.8310 236.9250 308.3247
v 314.2495 237.7492 314.9517
v 309.5276 237.7396 319.2803
v 303.8310 236.9250 308.3247
v 309.5276 237.7396 319.2803
v 303.2793 237.5118 320.6735
v 303.8310 236.9250 308.3247
v 303.2793 237.5118 320.6735
v 297.1788 237.1267 318.7577
v 303.8310 236.9250 308.3247
v 297.1788 237.1267 318.7577
v 292.8608 236.6876 314.0465
v 303.8310 236.9250 308.3247
v 292.8608 236.6876 314.0465
v 291.4822 236.3121 307.8021
v 303.8310 236.9250 308.3247
v 272.3525 679.1758 279.7017
v 270.4222 679.3871 285.8061
v 282.7710 680.0000 286.3287
v 277.0744 679.1854 275.3731
v 272.3525 679.1758 279.7017
v 282.7710 680.0000 286.3287
v 283.3227 679.4132 273.9799
v 277.0744 679.1854 275.3731
v 282.7710 680.0000 286.3287
v 289.4232 679.7983 275.8957
v 283.3227 679.4132 273.9799
v 282.7710 680.0000 286.3287
v 293.7412 680.2374 280.6069
v 289.4232 679.7983 275.8957
v 282.7710 680.0000 286.3287
v 295.1198 680.6129 286.8513
v 293.7412 680.2374 280.6069
v 282.7710 680.0000 286.3287
v 293.1895 680.8242 292.9557
v 295.1198 680.6129 286.8513
v 282.7710 680.0000 286.3287
v 288.4676 680.8146 297.2843
v 293.1895 680.8242 292.9557
v 282.7710 680.0000 286.3287
v 282.2193 680.5868 298.6775
v 288.4676 680.8146 297.2843
v 282.7710 680.0000 286.3287
v 276.1188 680.2017 296.7617
v 282.2193 680.5868 298.6775
v 282.7710 680.0000 286.3287
v 271.8008 679.7626 292.0505
v 276.1188 680.2017 296.7617
v 282.7710 680.0000 286.3287
v 270.4222 679.3871 285.8061
v 271.8008 679.7626 292.0505
v 282.7710 680.0000 286.3287
v 207.0000 240.8000 202.1000
v 207.0000 201.2000 202.1000
v 207.0000 240.8000 -202.1000
v 207.0000 201.2000 202.1000
v 207.0000 201.2000 -202.1000
v 207.0000 240.8000 -202.1000
v -207.0000 240.8000 -202.1000
v -207.0000 201.2000 -202.1000
v -207.0000 240.8000 202.1000
v -207.0000 201.2000 -202.1000
v -207.0000 201.2000 202.1000
v -207.0000 240.8000 202.1000
v -207.0000 240.8000 -202.1000
v -207.0000 240.8000 202.1000
v 207.0000 240.8000 -202.1000
v -207.0000 240.8000 202.1000
v 207.0000 240.8000 202.1000
v 207.0000 240.8000 -202.1000
v -207.0000 201.2000 202.1000
v -207.0000 201.2000 -202.1000
v 207.0000 201.2000 202.1000
v -207.0000 201.2000 -202.1000
v 207.0000 201.2000 -202.1000
v 207.0000 201.2000 202.1000
v -207.0000 240.8000 202.1000
v -207.0000 201.2000 202.1000
v 207.0000 240.8000 202.1000
v -207.0000 201.2000 202.1000
v 207.0000 201.2000 202.1000
v 207.0000 240.8000 202.1000
v 207.0000 240.8000 -202.1000
v 207.0000 201.2000 -202.1000
v -207.0000 240.8000 -202.1000
v 207.0000 201.2000 -202.1000
v -207.0000 201.2000 -202.1000
v -207.0000 240.8000 -202.1000
v 162.0000 349.2500 -268.0425
v -162.0000 349.2500 -268.0425
v 162.0000 343.6813 -269.5346
v -162.0000 349.2500 -268.0425
v -162.0000 343.6812 -269.5346
v 162.0000 343.6813 -269.5346
v 162.0000 343.6813 -269.5346
v -162.0000 343.6812 -269.5346
v 162.0000 339.6046 -273.6112
v -162.0000 343.6812 -269.5346
v -162.0000 339.6046 -273.6112
v 162.0000 339.6046 -273.6112
v 162.0000 339.6046 -273.6112
v -162.0000 339.6046 -273.6112
v 162.0000 338.1125 -279.1800
v -162.0000 339.6046 -273.6112
v -162.0000 338.1125 -279.1800
v 162.0000 338.1125 -279.1800
v 162.0000 338.1125 -279.1800
v -162.0000 338.1125 -279.1800
v 162.0000 339.6046 -284.7487
v -162.0000 338.1125 -279.1800
v -162.0000 339.6046 -284.7487
v 162.0000 339.6046 -284.7487
v 162.0000 339.6046 -284.7487
v -162.0000 339.6046 -284.7487
v 162.0000 343.6813 -288.8254
v -162.0000 339.6046 -284.7487
v -162.0000 343.6812 -288.8254
v 162.0000 343.6813 -288.8254
v 162.0000 343.6813 -288.8254
v -162.0000 343.6812 -288.8254
v 162.0000 349.2500 -290.3175
v -162.0000 343.6812 -288.8254
v -162.0000 349.2500 -290.3175
v 162.0000 349.2500 -290.3175
v 162.0000 349.2500 -290.3175
v -162.0000 349.2500 -290.3175
v 162.0000 354.8188 -288.8254
v -162.0000 349.2500 -290.3175
v -162.0000 354.8187 -288.8254
v 162.0000 354.8188 -288.8254
v 162.0000 354.8188 -288.8254
v -162.0000 354.8187 -288.8254
v 162.0000 358.8954 -284.7487
v -162.0000 354.8187 -288.8254
v -162.0000 358.8954 -284.7487
v 162.0000 358.8954 -284.7487
v 162.0000 358.8954 -284.7487
v -162.0000 358.8954 -284.7487
v 162.0000 360.3875 -279.1800
v -162.0000 358.8954 -284.7487
v -162.0000 360.3875 -279.1800
v 162.0000 360.3875 -279.1800
v 162.0000 360.3875 -279.1800
v -162.0000 360.3875 -279.1800
v 162.0000 358.8954 -273.6112
v -162.0000 360.3875 -279.1800
v -162.0000 358.8954 -273.6112
v 162.0000 358.8954 -273.6112
v 162.0000 358.8954 -273.6112
v -162.0000 358.8954 -273.6112
v 162.0000 354.8188 -269.5346
v -162.0000 358.8954 -273.6112
v -162.0000 354.8187 -269.5346
v 162.0000 354.8188 -269.5346
v 162.0000 354.8188 -269.5346
v -162.0000 354.8187 -269.5346
v 162.0000 349.2500 -268.0425
v -162.0000 354.8187 -269.5346
v -162.0000 349.2500 -268.0425
v 162.0000 349.2500 -268.0425
v 162.0000 349.2500 -268.0425
v 162.0000 343.6813 -269.5346
v 162.0000 349.2500 -279.1800
v 162.0000 343.6813 -269.5346
v 162.0000 339.6046 -273.6112
v 162.0000 349.2500 -279.1800
v 162.0000 339.6046 -273.6112
v 162.0000 338.1125 -279.1800
v 162.0000 349.2500 -279.1800
v 162.0000 338.1125 -279.1800
v 162.0000 339.6046 -284.7487
v 162.0000 349.2500 -279.1800
v 162.0000 339.6046 -284.7487
v 162.0000 343.6813 -288.8254
v 162.0000 349.2500 -279.1800
v 162.0000 343.6813 -288.8254
v 162.0000 349.2500 -290.3175
v 162.0000 349.2500 -279.1800
v 162.0000 349.2500 -290.3175
v 162.0000 354.8188 -288.8254
v 162.0000 349.2500 -279.1800
v 162.0000 354.8188 -288.8254
v 162.0000 358.8954 -284.7487
v 162.0000 349.2500 -279.1800
v 162.0000 358.8954 -284.7487
v 162.0000 360.3875 -279.1800
v 162.0000 349.2500 -279.1800
v 162.0000 360.3875 -279.1800
v 162.0000 358.8954 -273.6112
v 162.0000 349.2500 -279.1800
v 162.0000 358.8954 -273.6112
v 162.0000 354.8188 -269.5346
v 162.0000 349.2500 -279.1800
v 162.0000 354.8188 -269.5346
v 162.0000 349.2500 -268.0425
v 162.0000 349.2500 -279.1800
v -162.0000 343.6812 -269.5346
v -162.0000 349.2500 -268.0425
v -162.0000 349.2500 -279.1800
v -162.0000 339.6046 -273.6112
v -162.0000 343.6812 -269.5346
v -162.0000 349.2500 -279.1800
v -162.0000 338.1125 -279.1800
v -162.0000 339.6046 -273.6112
v -162.0000 349.2500 -279.1800
v -162.0000 339.6046 -284.7487
v -162.0000 338.1125 -279.1800
v -162.0000 349.2500 -279.1800
v -162.0000 343.6812 -288.8254
v -162.0000 339.6046 -284.7487
v -162.0000 349.2500 -279.1800
v -162.0000 349.2500 -290.3175
v -162.0000 343.6812 -288.8254
v -162.0000 349.2500 -279.1800
v -162.0000 354.8187 -288.8254
v -162.0000 349.2500 -290.3175
v -162.0000 349.2500 -279.1800
v -162.0000 358.8954 -284.7487
v -162.0000 354.8187 -288.8254
v -162.0000 349.2500 -279.1800
v -162.0000 360.3875 -279.1800
v -162.0000 358.8954 -284.7487
v -162.0000 349.2500 -279.1800
v -162.0000 358.8954 -273.6112
v -162.0000 360.3875 -279.1800
v -162.0000 349.2500 -279.1800
v -162.0000 354.8187 -269.5346
v -162.0000 358.8954 -273.6112
v -162.0000 349.2500 -279.1800
v -162.0000 349.2500 -268.0425
v -162.0000 354.8187 -269.5346
v -162.0000 349.2500 -279.1800
v -281.4727 901.3592 308.2502
v -276.9727 526.6092 294.1502
v -276.2758 901.4739 306.8596
v -276.9727 526.6092 294.1502
v -271.7758 526.7239 292.7596
v -276.2758 901.4739 306.8596
v -276.2758 901.4739 306.8596
v -271.7758 526.7239 292.7596
v -272.4721 901.6626 303.0584
v -271.7758 526.7239 292.7596
v -267.9721 526.9126 288.9584
v -272.4721 901.6626 303.0584
v -272.4721 901.6626 303.0584
v -267.9721 526.9126 288.9584
v -271.0807 901.8747 297.8648
v -267.9721 526.9126 288.9584
v -266.5807 527.1247 283.7648
v -271.0807 901.8747 297.8648
v -271.0807 901.8747 297.8648
v -266.5807 527.1247 283.7648
v -272.4745 902.0534 292.6707
v -266.5807 527.1247 283.7648
v -267.9745 527.3034 278.5707
v -272.4745 902.0534 292.6707
v -272.4745 902.0534 292.6707
v -267.9745 527.3034 278.5707
v -276.2799 902.1508 288.8677
v -267.9745 527.3034 278.5707
v -271.7799 527.4008 274.7677
v -276.2799 902.1508 288.8677
v -276.2799 902.1508 288.8677
v -271.7799 527.4008 274.7677
v -281.4773 902.1408 287.4748
v -271.7799 527.4008 274.7677
v -276.9773 527.3908 273.3748
v -281.4773 902.1408 287.4748
v -281.4773 902.1408 287.4748
v -276.9773 527.3908 273.3748
v -286.6742 902.0261 288.8654
v -276.9773 527.3908 273.3748
v -282.1742 527.2761 274.7654
v -286.6742 902.0261 288.8654
v -286.6742 902.0261 288.8654
v -282.1742 527.2761 274.7654
v -290.4779 901.8374 292.6666
v -282.1742 527.2761 274.7654
v -285.9779 527.0874 278.5666
v -290.4779 901.8374 292.6666
v -290.4779 901.8374 292.6666
v -285.9779 527.0874 278.5666
v -291.8693 901.6253 297.8602
v -285.9779 527.0874 278.5666
v -287.3693 526.8753 283.7602
v -291.8693 901.6253 297.8602
v -291.8693 901.6253 297.8602
v -287.3693 526.8753 283.7602
v -290.4755 901.4466 303.0543
v -287.3693 526.8753 283.7602
v -285.9755 526.6966 288.9543
v -290.4755 901.4466 303.0543
v -290.4755 901.4466 303.0543
v -285.9755 526.6966 288.9543
v -286.6701 901.3492 306.8573
v -285.9755 526.6966 288.9543
v -282.1701 526.5992 292.7573
v -286.6701 901.3492 306.8573
v -286.6701 901.3492 306.8573
v -282.1701 526.5992 292.7573
v -281.4727 901.3592 308.2502
v -282.1701 526.5992 292.7573
v -276.9727 526.6092 294.1502
v -281.4727 901.3592 308.2502
v -281.4727 901.3592 308.2502
v -276.2758 901.4739 306.8596
v -281.4750 901.7500 297.8625
v -276.2758 901.4739 306.8596
v -272.4721 901.6626 303.0584
v -281.4750 901.7500 297.8625
v -272.4721 901.6626 303.0584
v -271.0807 901.8747 297.8648
v -281.4750 901.7500 297.8625
v -271.0807 901.8747 297.8648
v -272.4745 902.0534 292.6707
v -281.4750 901.7500 297.8625
v -272.4745 902.0534 292.6707
v -276.2799 902.1508 288.8677
v -281.4750 901.7500 297.8625
v -276.2799 902.1508 288.8677
v -281.4773 902.1408 287.4748
v -281.4750 901.7500 297.8625
v -281.4773 902.1408 287.4748
v -286.6742 902.0261 288.8654
v -281.4750 901.7500 297.8625
v -286.6742 902.0261 288.8654
v -290.4779 901.8374 292.6666
v -281.4750 901.7500 297.8625
v -290.4779 901.8374 292.6666
v -291.8693 901.6253 297.8602
v -281.4750 901.7500 297.8625
v -291.8693 901.6253 297.8602
v -290.4755 901.4466 303.0543
v -281.4750 901.7500 297.8625
v -290.4755 901.4466 303.0543
v -286.6701 901.3492 306.8573
v -281.4750 901.7500 297.8625
v -286.6701 901.3492 306.8573
v -281.4727 901.3592 308.2502
v -281.4750 901.7500 297.8625
v -271.7758 526.7239 292.7596
v -276.9727 526.6092 294.1502
v -276.9750 527.0000 283.7625
v -267.9721 526.9126 288.9584
v -271.7758 526.7239 292.7596
v -276.9750 527.0000 283.7625
v -266.5807 527.1247 283.7648
v -267.9721 526.9126 288.9584
v -276.9750 527.0000 283.7625
v -267.9745 527.3034 278.5707
v -266.5807 527.1247 283.7648
v -276.9750 527.0000 283.7625
v -271.7799 527.4008 274.7677
v -267.9745 527.3034 278.5707
v -276.9750 527.0000 283.7625
v -276.9773 527.3908 273.3748
v -271.7799 527.4008 274.7677
v -276.9750 527.0000 283.7625
v -282.1742 527.2761 274.7654
v -276.9773 527.3908 273.3748
v -276.9750 527.0000 283.7625
v -285.9779 527.0874 278.5666
v -282.1742 527.2761 274.7654
v -276.9750 527.0000 283.7625
v -287.3693 526.8753 283.7602
v -285.9779 527.0874 278.5666
v -276.9750 527.0000 283.7625
v -285.9755 526.6966 288.9543
v -287.3693 526.8753 283.7602
v -276.9750 527.0000 283.7625
v -282.1701 526.5992 292.7573
v -285.9755 526.6966 288.9543
v -276.9750 527.0000 283.7625
v -276.9727 526.6092 294.1502
v -282.1701 526.5992 292.7573
v -276.9750 527.0000 283.7625
v 281.4727 1054.3592 308.2502
v 276.9727 679.6092 294.1502
v 286.6701 1054.3492 306.8573
v 276.9727 679.6092 294.1502
v 282.1701 679.5992 292.7573
v 286.6701 1054.3492 306.8573
v 286.6701 1054.3492 306.8573
v 282.1701 679.5992 292.7573
v 290.4755 1054.4466 303.0543
v 282.1701 679.5992 292.7573
v 285.9755 679.6966 288.9543
v 290.4755 1054.4466 303.0543
v 290.4755 1054.4466 303.0543
v 285.9755 679.6966 288.9543
v 291.8693 1054.6253 297.8602
v 285.9755 679.6966 288.9543
v 287.3693 679.8753 283.7602
v 291.8693 1054.6253 297.8602
v 291.8693 1054.6253 297.8602
v 287.3693 679.8753 283.7602
v 290.4779 1054.8374 292.6666
v 287.3693 679.8753 283.7602
v 285.9779 680.0874 278.5666
v 290.4779 1054.8374 292.6666
v 290.4779 1054.8374 292.6666
v 285.9779 680.0874 278.5666
v 286.6742 1055.0261 288.8654
v 285.9779 680.0874 278.5666
v 282.1742 680.2761 274.7654
v 286.6742 1055.0261 288.8654
v 286.6742 1055.0261 288.8654
v 282.1742 680.2761 274.7654
v 281.4773 1055.1408 287.4748
v 282.1742 680.2761 274.7654
v 276.9773 680.3908 273.3748
v 281.4773 1055.1408 287.4748
v 281.4773 1055.1408 287.4748
v 276.9773 680.3908 273.3748
v 276.2799 1055.1508 288.8677
v 276.9773 680.3908 273.3748
v 271.7799 680.4008 274.7677
v 276.2799 1055.1508 288.8677
v 276.2799 1055.1508 288.8677
v 271.7799 680.4008 274.7677
v 272.4745 1055.0534 292.6707
v 271.7799 680.4008 274.7677
v 267.9745 680.3034 278.5707
v 272.4745 1055.0534 292.6707
v 272.4745 1055.0534 292.6707
v 267.9745 680.3034 278.5707
v 271.0807 1054.8747 297.8648
v 267.9745 680.3034 278.5707
v 266.5807 680.1247 283.7648
v 271.0807 1054.8747 297.8648
v 271.0807 1054.8747 297.8648
v 266.5807 680.1247 283.7648
v 272.4721 1054.6626 303.0584
v 266.5807 680.1247 283.7648
v 267.9721 679.9126 288.9584
v 272.4721 1054.6626 303.0584
v 272.4721 1054.6626 303.0584
v 267.9721 679.9126 288.9584
v 276.2758 1054.4739 306.8596
v 267.9721 679.9126 288.9584
v 271.7758 679.7239 292.7596
v 276.2758 1054.4739 306.8596
v 276.2758 1054.4739 306.8596
v 271.7758 679.7239 292.7596
v 281.4727 1054.3592 308.2502
v 271.7758 679.7239 292.7596
v 276.9727 679.6092 294.1502
v 281.4727 1054.3592 308.2502
v 281.4727 1054.3592 308.2502
v 286.6701 1054.3492 306.8573
v 281.4750 1054.7500 297.8625
v 286.6701 1054.3492 306.8573
v 290.4755 1054.4466 303.0543
v 281.4750 1054.7500 297.8625
v 290.4755 1054.4466 303.0543
v 291.8693 1054.6253 297.8602
v 281.4750 1054.7500 297.8625
v 291.8693 1054.6253 297.8602
v 290.4779 1054.8374 292.6666
v 281.4750 1054.7500 297.8625
v 290.4779 1054.8374 292.6666
v 286.6742 1055.0261 288.8654
v 281.4750 1054.7500 297.8625
v 286.6742 1055.0261 288.8654
v 281.4773 1055.1408 287.4748
v 281.4750 1054.7500 297.8625
v 281.4773 1055.1408 287.4748
v 276.2799 1055.1508 288.8677
v 281.4750 1054.7500 297.8625
v 276.2799 1055.1508 288.8677
v 272.4745 1055.0534 292.6707
v 281.4750 1054.7500 297.8625
v 272.4745 1055.0534 292.6707
v 271.0807 1054.8747 297.8648
v 281.4750 1054.7500 297.8625
v 271.0807 1054.8747 297.8648
v 272.4721 1054.6626 303.0584
v 281.4750 1054.7500 297.8625
v 272.4721 1054.6626 303.0584
v 276.2758 1054.4739 306.8596
v 281.4750 1054.7500 297.8625
v 276.2758 1054.4739 306.8596
v 281.4727 1054.3592 308.2502
v 281.4750 1054.7500 297.8625
v 282.1701 679.5992 292.7573
v 276.9727 679.6092 294.1502
v 276.9750 680.0000 283.7625
v 285.9755 679.6966 288.9543
v 282.1701 679.5992 292.7573
v 276.9750 680.0000 283.7625
v 287.3693 679.8753 283.7602
v 285.9755 679.6966 288.9543
v 276.9750 680.0000 283.7625
v 285.9779 680.0874 278.5666
v 287.3693 679.8753 283.7602
v 276.9750 680.0000 283.7625
v 282.1742 680.2761 274.7654
v 285.9779 680.0874 278.5666
v 276.9750 680.0000 283.7625
v 276.9773 680.3908 273.3748
v 282.1742 680.2761 274.7654
v 276.9750 680.0000 283.7625
v 271.7799 680.4008 274.7677
v 276.9773 680.3908 273.3748
v 276.9750 680.0000 283.7625
v 267.9745 680.3034 278.5707
v 271.7799 680.4008 274.7677
v 276.9750 680.0000 283.7625
v 266.5807 680.1247 283.7648
v 267.9745 680.3034 278.5707
v 276.9750 680.0000 283.7625
v 267.9721 679.9126 288.9584
v 266.5807 680.1247 283.7648
v 276.9750 680.0000 283.7625
v 271.7758 679.7239 292.7596
v 267.9721 679.9126 288.9584
v 276.9750 680.0000 283.7625
v 276.9727 679.6092 294.1502
v 271.7758 679.7239 292.7596
v 276.9750 680.0000 283.7625
v 198.0000 583.5197 306.6150
v 198.0000 388.6449 322.2383
v 198.0000 580.3551 267.1417
v 198.0000 388.6449 322.2383
v 198.0000 385.4803 282.7650
v 198.0000 580.3551 267.1417
v -198.0000 580.3551 267.1417
v -198.0000 385.4803 282.7650
v -198.0000 583.5197 306.6150
v -198.0000 385.4803 282.7650
v -198.0000 388.6449 322.2383
v -198.0000 583.5197 306.6150
v -198.0000 580.3551 267.1417
v -198.0000 583.5197 306.6150
v 198.0000 580.3551 267.1417
v -198.0000 583.5197 306.6150
v 198.0000 583.5197 306.6150
v 198.0000 580.3551 267.1417
v -198.0000 388.6449 322.2383
v -198.0000 385.4803 282.7650
v 198.0000 388.6449 322.2383
v -198.0000 385.4803 282.7650
v 198.0000 385.4803 282.7650
v 198.0000 388.6449 322.2383
v -198.0000 583.5197 306.6150
v -198.0000 388.6449 322.2383
v 198.0000 583.5197 306.6150
v -198.0000 388.6449 322.2383
v 198.0000 388.6449 322.2383
v 198.0000 583.5197 306.6150
v 198.0000 580.3551 267.1417
v 198.0000 385.4803 282.7650
v -198.0000 580.3551 267.1417
v 198.0000 385.4803 282.7650
v -198.0000 385.4803 282.7650
v -198.0000 580.3551 267.1417
f 1 2 3
f 4 5 6
f 7 8 9
f 10 11 12
f 13 14 15
f 16 17 18
f 19 20 21
f 22 23 24
f 25 26 27
f 28 29 30
f 31 32 33
f 34 35 36
f 37 38 39
f 40 41 42
f 43 44 45
f 46 47 48
f 49 50 51
f 52 53 54
f 55 56 57
f 58 59 60
f 61 62 63
f 64 65 66
f 67 68 69
f 70 71 72
f 73 74 75
f 76 77 78
f 79 80 81
f 82 83 84
f 85 86 87
f 88 89 90
f 91 92 93
f 94 95 96
f 97 98 99
f 100 101 102
f 103 104 105
f 106 107 108
f 109 110 111
f 112 113 114
f 115 116 117
f 118 119 120
f 121 122 123
f 124 125 126
f 127 128 129
f 130 131 132
f 133 134 135
f 136 137 138
f 139 140 141
f 142 143 144
f 145 146 147
f 148 149 150
f 151 152 153
f 154 155 156
f 157 158 159
f 160 161 162
f 163 164 165
f 166 167 168
f 169 170 171
f 172 173 174
f 175 176 177
f 178 179 180
f 181 182 183
f 184 185 186
f 187 188 189
f 190 191 192
f 193 194 195
f 196 197 198
f 199 200 201
f 202 203 204
f 205 206 207
f 208 209 210
f 211 212 213
f 214 215 216
f 217 218 219
f 220 221 222
f 223 224 225
f 226 227 228
f 229 230 231
f 232 233 234
f 235 236 237
f 238 239 240
f 241 242 243
f 244 245 246
f 247 248 249
f 250 251 252
f 253 254 255
f 256 257 258
f 259 260 261
f 262 263 264
f 265 266 267
f 268 269 270
f 271 272 273
f 274 275 276
f 277 278 279
f 280 281 282
f 283 284 285
f 286 287 288
f 289 290 291
f 292 293 294
f 295 296 297
f 298 299 300
f 301 302 303
f 304 305 306
f 307 308 309
f 310 311 312
f 313 314 315
f 316 317 318
f 319 320 321
f 322 323 324
f 325 326 327
f 328 329 330
f 331 332 333
f 334 335 336
f 337 338 339
f 340 341 342
f 343 344 345
f 346 347 348
f 349 350 351
f 352 353 354
f 355 356 357
f 358 359 360
f 361 362 363
f 364 365 366
f 367 368 369
f 370 371 372
f 373 374 375
f 376 377 378
f 379 380 381
f 382 383 384
f 385 386 387
f 388 389 390
f 391 392 393
f 394 395 396
f 397 398 399
f 400 401 402
f 403 404 405
f 406 407 408
f 409 410 411
f 412 413 414
f 415 416 417
f 418 419 420
f 421 422 423
f 424 425 426
f 427 428 429
f 430 431 432
f 433 434 435
f 436 437 438
f 439 440 441
f 442 443 444
f 445 446 447
f 448 449 450
f 451 452 453
f 454 455 456
f 457 458 459
f 460 461 462
f 463 464 465
f 466 467 468
f 469 470 471
f 472 473 474
f 475 476 477
f 478 479 480
f 481 482 483
f 484 485 486
f 487 488 489
f 490 491 492
f 493 494 495
f 496 497 498
f 499 500 501
f 502 503 504
f 505 506 507
f 508 509 510
f 511 512 513
f 514 515 516
f 517 518 519
f 520 521 522
f 523 524 525
f 526 527 528
f 529 530 531
f 532 533 534
f 535 536 537
f 538 539 540
f 541 542 543
f 544 545 546
f 547 548 549
f 550 551 552
f 553 554 555
f 556 557 558
f 559 560 561
f 562 563 564
f 565 566 567
f 568 569 570
f 571 572 573
f 574 575 576
f 577 578 579
f 580 581 582
f 583 584 585
f 586 587 588
f 589 590 591
f 592 593 594
f 595 596 597
f 598 599 600
f 601 602 603
f 604 605 606
f 607 608 609
f 610 611 612
f 613 614 615
f 616 617 618
f 619 620 621
f 622 623 624
f 625 626 627
f 628 629 630
f 631 632 633
f 634 635 636
f 637 638 639
f 640 641 642
f 643 644 645
f 646 647 648
f 649 650 651
f 652 653 654
f 655 656 657
f 658 659 660
f 661 662 663
f 664 665 666
f 667 668 669
f 670 671 672
f 673 674 675
f 676 677 678
f 679 680 681
f 682 683 684
f 685 686 687
f 688 689 690
f 691 692 693
f 694 695 696
f 697 698 699
f 700 701 702
f 703 704 705
f 706 707 708
f 709 710 711
f 712 713 714
f 715 716 717
f 718 719 720
f 721 722 723
f 724 725 726
f 727 728 729
f 730 731 732
f 733 734 735
f 736 737 738
f 739 740 741
f 742 743 744
f 745 746 747
f 748 749 750
f 751 752 753
f 754 755 756
f 757 758 759
f 760 761 762
f 763 764 765
f 766 767 768
f 769 770 771
f 772 773 774
f 775 776 777
f 778 779 780
f 781 782 783
f 784 785 786
f 787 788 789
f 790 791 792
f 793 794 795
f 796 797 798
f 799 800 801
f 802 803 804
f 805 806 807
f 808 809 810
f 811 812 813
f 814 815 816
f 817 818 819
f 820 821 822
f 823 824 825
f 826 827 828
f 829 830 831
f 832 833 834
f 835 836 837
f 838 839 840
f 841 842 843
f 844 845 846
f 847 848 849
f 850 851 852
f 853 854 855
f 856 857 858
f 859 860 861
f 862 863 864
f 865 866 867
f 868 869 870
f 871 872 873
f 874 875 876
f 877 878 879
f 880 881 882
f 883 884 885
f 886 887 888
f 889 890 891
f 892 893 894
f 895 896 897
f 898 899 900
f 901 902 903
f 904 905 906
f 907 908 909
f 910 911 912
f 913 914 915
f 916 917 918
f 919 920 921
f 922 923 924
f 925 926 927
f 928 929 930
f 931 932 933
f 934 935 936
f 937 938 939
f 940 941 942
f 943 944 945
f 946 947 948
f 949 950 951
f 952 953 954
f 955 956 957
f 958 959 960
f 961 962 963
f 964 965 966
f 967 968 969
f 970 971 972
f 973 974 975
f 976 977 978
f 979 980 981
f 982 983 984
f 985 986 987
f 988 989 990
f 991 992 993
f 994 995 996
f 997 998 999
f 1000 1001 1002
f 1003 1004 1005
f 1006 1007 1008
f 1009 1010 1011
f 1012 1013 1014
f 1015 1016 1017
f 1018 1019 1020
f 1021 1022 1023
f 1024 1025 1026
f 1027 1028 1029
f 1030 1031 1032
f 1033 1034 1035
f 1036 1037 1038
f 1039 1040 1041
f 1042 1043 1044
f 1045 1046 1047
f 1048 1049 1050
f 1051 1052 1053
f 1054 1055 1056
f 1057 1058 1059
f 1060 1061 1062
f 1063 1064 1065
f 1066 1067 1068
f 1069 1070 1071
f 1072 1073 1074
f 1075 1076 1077
f 1078 1079 1080
