# MATERIA - 637 Utrecht
# Geometria originale di studio. Unita mm. Non CAD del produttore.
v 293.2500 426.8981 303.5465
v 293.2500 251.7773 321.1171
v 293.2500 364.2227 -321.1171
v 293.2500 251.7773 321.1171
v 293.2500 189.1019 -303.5465
v 293.2500 364.2227 -321.1171
v -293.2500 364.2227 -321.1171
v -293.2500 189.1019 -303.5465
v -293.2500 426.8981 303.5465
v -293.2500 189.1019 -303.5465
v -293.2500 251.7773 321.1171
v -293.2500 426.8981 303.5465
v -293.2500 364.2227 -321.1171
v -293.2500 426.8981 303.5465
v 293.2500 364.2227 -321.1171
v -293.2500 426.8981 303.5465
v 293.2500 426.8981 303.5465
v 293.2500 364.2227 -321.1171
v -293.2500 251.7773 321.1171
v -293.2500 189.1019 -303.5465
v 293.2500 251.7773 321.1171
v -293.2500 189.1019 -303.5465
v 293.2500 189.1019 -303.5465
v 293.2500 251.7773 321.1171
v -293.2500 426.8981 303.5465
v -293.2500 251.7773 321.1171
v 293.2500 426.8981 303.5465
v -293.2500 251.7773 321.1171
v 293.2500 251.7773 321.1171
v 293.2500 426.8981 303.5465
v 293.2500 364.2227 -321.1171
v 293.2500 189.1019 -303.5465
v -293.2500 364.2227 -321.1171
v 293.2500 189.1019 -303.5465
v -293.2500 189.1019 -303.5465
v -293.2500 364.2227 -321.1171
v 276.2500 863.1347 228.7447
v 276.2500 263.3562 369.1789
v 276.2500 827.8438 78.0211
v 276.2500 263.3562 369.1789
v 276.2500 228.0653 218.4553
v 276.2500 827.8438 78.0211
v -276.2500 827.8438 78.0211
v -276.2500 228.0653 218.4553
v -276.2500 863.1347 228.7447
v -276.2500 228.0653 218.4553
v -276.2500 263.3562 369.1789
v -276.2500 863.1347 228.7447
v -276.2500 827.8438 78.0211
v -276.2500 863.1347 228.7447
v 276.2500 827.8438 78.0211
v -276.2500 863.1347 228.7447
v 276.2500 863.1347 228.7447
v 276.2500 827.8438 78.0211
v -276.2500 263.3562 369.1789
v -276.2500 228.0653 218.4553
v 276.2500 263.3562 369.1789
v -276.2500 228.0653 218.4553
v 276.2500 228.0653 218.4553
v 276.2500 263.3562 369.1789
v -276.2500 863.1347 228.7447
v -276.2500 263.3562 369.1789
v 276.2500 863.1347 228.7447
v -276.2500 263.3562 369.1789
v 276.2500 263.3562 369.1789
v 276.2500 863.1347 228.7447
v 276.2500 827.8438 78.0211
v 276.2500 228.0653 218.4553
v -276.2500 827.8438 78.0211
v 276.2500 228.0653 218.4553
v -276.2500 228.0653 218.4553
v -276.2500 827.8438 78.0211
v -276.2500 651.2000 331.1000
v -276.2500 0.0000 331.1000
v -276.2500 651.2000 -331.1000
v -276.2500 0.0000 331.1000
v -276.2500 0.0000 -331.1000
v -276.2500 651.2000 -331.1000
v -420.7500 651.2000 -331.1000
v -420.7500 0.0000 -331.1000
v -420.7500 651.2000 331.1000
v -420.7500 0.0000 -331.1000
v -420.7500 0.0000 331.1000
v -420.7500 651.2000 331.1000
v -420.7500 651.2000 -331.1000
v -420.7500 651.2000 331.1000
v -276.2500 651.2000 -331.1000
v -420.7500 651.2000 331.1000
v -276.2500 651.2000 331.1000
v -276.2500 651.2000 -331.1000
v -420.7500 0.0000 331.1000
v -420.7500 0.0000 -331.1000
v -276.2500 0.0000 331.1000
v -420.7500 0.0000 -331.1000
v -276.2500 0.0000 -331.1000
v -276.2500 0.0000 331.1000
v -420.7500 651.2000 331.1000
v -420.7500 0.0000 331.1000
v -276.2500 651.2000 331.1000
v -420.7500 0.0000 331.1000
v -276.2500 0.0000 331.1000
v -276.2500 651.2000 331.1000
v -276.2500 651.2000 -331.1000
v -276.2500 0.0000 -331.1000
v -420.7500 651.2000 -331.1000
v -276.2500 0.0000 -331.1000
v -420.7500 0.0000 -331.1000
v -420.7500 651.2000 -331.1000
v 420.7500 651.2000 331.1000
v 420.7500 0.0000 331.1000
v 420.7500 651.2000 -331.1000
v 420.7500 0.0000 331.1000
v 420.7500 0.0000 -331.1000
v 420.7500 651.2000 -331.1000
v 276.2500 651.2000 -331.1000
v 276.2500 0.0000 -331.1000
v 276.2500 651.2000 331.1000
v 276.2500 0.0000 -331.1000
v 276.2500 0.0000 331.1000
v 276.2500 651.2000 331.1000
v 276.2500 651.2000 -331.1000
v 276.2500 651.2000 331.1000
v 420.7500 651.2000 -331.1000
v 276.2500 651.2000 331.1000
v 420.7500 651.2000 331.1000
v 420.7500 651.2000 -331.1000
v 276.2500 0.0000 331.1000
v 276.2500 0.0000 -331.1000
v 420.7500 0.0000 331.1000
v 276.2500 0.0000 -331.1000
v 420.7500 0.0000 -331.1000
v 420.7500 0.0000 331.1000
v 276.2500 651.2000 331.1000
v 276.2500 0.0000 331.1000
v 420.7500 651.2000 331.1000
v 276.2500 0.0000 331.1000
v 420.7500 0.0000 331.1000
v 420.7500 651.2000 331.1000
v 420.7500 651.2000 -331.1000
v 420.7500 0.0000 -331.1000
v 276.2500 651.2000 -331.1000
v 420.7500 0.0000 -331.1000
v 276.2500 0.0000 -331.1000
v 276.2500 651.2000 -331.1000
f 1 2 3
f 4 5 6
f 7 8 9
f 10 11 12
f 13 14 15
f 16 17 18
f 19 20 21
f 22 23 24
f 25 26 27
f 28 29 30
f 31 32 33
f 34 35 36
f 37 38 39
f 40 41 42
f 43 44 45
f 46 47 48
f 49 50 51
f 52 53 54
f 55 56 57
f 58 59 60
f 61 62 63
f 64 65 66
f 67 68 69
f 70 71 72
f 73 74 75
f 76 77 78
f 79 80 81
f 82 83 84
f 85 86 87
f 88 89 90
f 91 92 93
f 94 95 96
f 97 98 99
f 100 101 102
f 103 104 105
f 106 107 108
f 109 110 111
f 112 113 114
f 115 116 117
f 118 119 120
f 121 122 123
f 124 125 126
f 127 128 129
f 130 131 132
f 133 134 135
f 136 137 138
f 139 140 141
f 142 143 144
