# MATERIA - 637 Utrecht
# Geometria originale di studio. Unita mm. Non CAD del produttore.
v 293.2500 189.2981 303.5465
v 293.2500 14.1773 321.1171
v 293.2500 126.6227 -321.1171
v 293.2500 14.1773 321.1171
v 293.2500 -48.4981 -303.5465
v 293.2500 126.6227 -321.1171
v -293.2500 126.6227 -321.1171
v -293.2500 -48.4981 -303.5465
v -293.2500 189.2981 303.5465
v -293.2500 -48.4981 -303.5465
v -293.2500 14.1773 321.1171
v -293.2500 189.2981 303.5465
v -293.2500 126.6227 -321.1171
v -293.2500 189.2981 303.5465
v 293.2500 126.6227 -321.1171
v -293.2500 189.2981 303.5465
v 293.2500 189.2981 303.5465
v 293.2500 126.6227 -321.1171
v -293.2500 14.1773 321.1171
v -293.2500 -48.4981 -303.5465
v 293.2500 14.1773 321.1171
v -293.2500 -48.4981 -303.5465
v 293.2500 -48.4981 -303.5465
v 293.2500 14.1773 321.1171
v -293.2500 189.2981 303.5465
v -293.2500 14.1773 321.1171
v 293.2500 189.2981 303.5465
v -293.2500 14.1773 321.1171
v 293.2500 14.1773 321.1171
v 293.2500 189.2981 303.5465
v 293.2500 126.6227 -321.1171
v 293.2500 -48.4981 -303.5465
v -293.2500 126.6227 -321.1171
v 293.2500 -48.4981 -303.5465
v -293.2500 -48.4981 -303.5465
v -293.2500 126.6227 -321.1171
v 276.2500 783.9347 374.0847
v 276.2500 184.1562 514.5189
v 276.2500 748.6438 223.3611
v 276.2500 184.1562 514.5189
v 276.2500 148.8653 363.7953
v 276.2500 748.6438 223.3611
v -276.2500 748.6438 223.3611
v -276.2500 148.8653 363.7953
v -276.2500 783.9347 374.0847
v -276.2500 148.8653 363.7953
v -276.2500 184.1562 514.5189
v -276.2500 783.9347 374.0847
v -276.2500 748.6438 223.3611
v -276.2500 783.9347 374.0847
v 276.2500 748.6438 223.3611
v -276.2500 783.9347 374.0847
v 276.2500 783.9347 374.0847
v 276.2500 748.6438 223.3611
v -276.2500 184.1562 514.5189
v -276.2500 148.8653 363.7953
v 276.2500 184.1562 514.5189
v -276.2500 148.8653 363.7953
v 276.2500 148.8653 363.7953
v 276.2500 184.1562 514.5189
v -276.2500 783.9347 374.0847
v -276.2500 184.1562 514.5189
v 276.2500 783.9347 374.0847
v -276.2500 184.1562 514.5189
v 276.2500 184.1562 514.5189
v 276.2500 783.9347 374.0847
v 276.2500 748.6438 223.3611
v 276.2500 148.8653 363.7953
v -276.2500 748.6438 223.3611
v 276.2500 148.8653 363.7953
v -276.2500 148.8653 363.7953
v -276.2500 748.6438 223.3611
v -520.2000 730.4000 331.1000
v -520.2000 79.2000 331.1000
v -520.2000 730.4000 -331.1000
v -520.2000 79.2000 331.1000
v -520.2000 79.2000 -331.1000
v -520.2000 730.4000 -331.1000
v -664.7000 730.4000 -331.1000
v -664.7000 79.2000 -331.1000
v -664.7000 730.4000 331.1000
v -664.7000 79.2000 -331.1000
v -664.7000 79.2000 331.1000
v -664.7000 730.4000 331.1000
v -664.7000 730.4000 -331.1000
v -664.7000 730.4000 331.1000
v -520.2000 730.4000 -331.1000
v -664.7000 730.4000 331.1000
v -520.2000 730.4000 331.1000
v -520.2000 730.4000 -331.1000
v -664.7000 79.2000 331.1000
v -664.7000 79.2000 -331.1000
v -520.2000 79.2000 331.1000
v -664.7000 79.2000 -331.1000
v -520.2000 79.2000 -331.1000
v -520.2000 79.2000 331.1000
v -664.7000 730.4000 331.1000
v -664.7000 79.2000 331.1000
v -520.2000 730.4000 331.1000
v -664.7000 79.2000 331.1000
v -520.2000 79.2000 331.1000
v -520.2000 730.4000 331.1000
v -520.2000 730.4000 -331.1000
v -520.2000 79.2000 -331.1000
v -664.7000 730.4000 -331.1000
v -520.2000 79.2000 -331.1000
v -664.7000 79.2000 -331.1000
v -664.7000 730.4000 -331.1000
v 664.7000 888.8000 331.1000
v 664.7000 237.6000 331.1000
v 664.7000 888.8000 -331.1000
v 664.7000 237.6000 331.1000
v 664.7000 237.6000 -331.1000
v 664.7000 888.8000 -331.1000
v 520.2000 888.8000 -331.1000
v 520.2000 237.6000 -331.1000
v 520.2000 888.8000 331.1000
v 520.2000 237.6000 -331.1000
v 520.2000 237.6000 331.1000
v 520.2000 888.8000 331.1000
v 520.2000 888.8000 -331.1000
v 520.2000 888.8000 331.1000
v 664.7000 888.8000 -331.1000
v 520.2000 888.8000 331.1000
v 664.7000 888.8000 331.1000
v 664.7000 888.8000 -331.1000
v 520.2000 237.6000 331.1000
v 520.2000 237.6000 -331.1000
v 664.7000 237.6000 331.1000
v 520.2000 237.6000 -331.1000
v 664.7000 237.6000 -331.1000
v 664.7000 237.6000 331.1000
v 520.2000 888.8000 331.1000
v 520.2000 237.6000 331.1000
v 664.7000 888.8000 331.1000
v 520.2000 237.6000 331.1000
v 664.7000 237.6000 331.1000
v 664.7000 888.8000 331.1000
v 664.7000 888.8000 -331.1000
v 664.7000 237.6000 -331.1000
v 520.2000 888.8000 -331.1000
v 664.7000 237.6000 -331.1000
v 520.2000 237.6000 -331.1000
v 520.2000 888.8000 -331.1000
f 1 2 3
f 4 5 6
f 7 8 9
f 10 11 12
f 13 14 15
f 16 17 18
f 19 20 21
f 22 23 24
f 25 26 27
f 28 29 30
f 31 32 33
f 34 35 36
f 37 38 39
f 40 41 42
f 43 44 45
f 46 47 48
f 49 50 51
f 52 53 54
f 55 56 57
f 58 59 60
f 61 62 63
f 64 65 66
f 67 68 69
f 70 71 72
f 73 74 75
f 76 77 78
f 79 80 81
f 82 83 84
f 85 86 87
f 88 89 90
f 91 92 93
f 94 95 96
f 97 98 99
f 100 101 102
f 103 104 105
f 106 107 108
f 109 110 111
f 112 113 114
f 115 116 117
f 118 119 120
f 121 122 123
f 124 125 126
f 127 128 129
f 130 131 132
f 133 134 135
f 136 137 138
f 139 140 141
f 142 143 144
