# MATERIA - 280 Zig Zag
# Geometria originale di studio. Unita mm. Non CAD del produttore.
v 185.0000 20.3500 172.0000
v 185.0000 0.0000 172.0000
v 185.0000 20.3500 -172.0000
v 185.0000 0.0000 172.0000
v 185.0000 0.0000 -172.0000
v 185.0000 20.3500 -172.0000
v -185.0000 20.3500 -172.0000
v -185.0000 0.0000 -172.0000
v -185.0000 20.3500 172.0000
v -185.0000 0.0000 -172.0000
v -185.0000 0.0000 172.0000
v -185.0000 20.3500 172.0000
v -185.0000 20.3500 -172.0000
v -185.0000 20.3500 172.0000
v 185.0000 20.3500 -172.0000
v -185.0000 20.3500 172.0000
v 185.0000 20.3500 172.0000
v 185.0000 20.3500 -172.0000
v -185.0000 0.0000 172.0000
v -185.0000 0.0000 -172.0000
v 185.0000 0.0000 172.0000
v -185.0000 0.0000 -172.0000
v 185.0000 0.0000 -172.0000
v 185.0000 0.0000 172.0000
v -185.0000 20.3500 172.0000
v -185.0000 0.0000 172.0000
v 185.0000 20.3500 172.0000
v -185.0000 0.0000 172.0000
v 185.0000 0.0000 172.0000
v 185.0000 20.3500 172.0000
v 185.0000 20.3500 -172.0000
v 185.0000 0.0000 -172.0000
v -185.0000 20.3500 -172.0000
v 185.0000 0.0000 -172.0000
v -185.0000 0.0000 -172.0000
v -185.0000 20.3500 -172.0000
v 0.0000 369.8856 156.4670
v 0.0000 5.4356 -131.6330
v 12.0250 371.8837 153.9393
v 0.0000 5.4356 -131.6330
v 12.0250 7.4337 -134.1607
v 12.0250 371.8837 153.9393
v 12.0250 371.8837 153.9393
v 12.0250 7.4337 -134.1607
v 20.8279 377.3428 147.0335
v 12.0250 7.4337 -134.1607
v 20.8279 12.8928 -141.0665
v 20.8279 377.3428 147.0335
v 20.8279 377.3428 147.0335
v 20.8279 12.8928 -141.0665
v 24.0500 384.8000 137.6000
v 20.8279 12.8928 -141.0665
v 24.0500 20.3500 -150.5000
v 24.0500 384.8000 137.6000
v 24.0500 384.8000 137.6000
v 24.0500 20.3500 -150.5000
v 20.8279 392.2572 128.1665
v 24.0500 20.3500 -150.5000
v 20.8279 27.8072 -159.9335
v 20.8279 392.2572 128.1665
v 20.8279 392.2572 128.1665
v 20.8279 27.8072 -159.9335
v 12.0250 397.7163 121.2607
v 20.8279 27.8072 -159.9335
v 12.0250 33.2663 -166.8393
v 12.0250 397.7163 121.2607
v 12.0250 397.7163 121.2607
v 12.0250 33.2663 -166.8393
v 0.0000 399.7144 118.7330
v 12.0250 33.2663 -166.8393
v 0.0000 35.2644 -169.3670
v 0.0000 399.7144 118.7330
v 0.0000 399.7144 118.7330
v 0.0000 35.2644 -169.3670
v -12.0250 397.7163 121.2607
v 0.0000 35.2644 -169.3670
v -12.0250 33.2663 -166.8393
v -12.0250 397.7163 121.2607
v -12.0250 397.7163 121.2607
v -12.0250 33.2663 -166.8393
v -20.8279 392.2572 128.1665
v -12.0250 33.2663 -166.8393
v -20.8279 27.8072 -159.9335
v -20.8279 392.2572 128.1665
v -20.8279 392.2572 128.1665
v -20.8279 27.8072 -159.9335
v -24.0500 384.8000 137.6000
v -20.8279 27.8072 -159.9335
v -24.0500 20.3500 -150.5000
v -24.0500 384.8000 137.6000
v -24.0500 384.8000 137.6000
v -24.0500 20.3500 -150.5000
v -20.8279 377.3428 147.0335
v -24.0500 20.3500 -150.5000
v -20.8279 12.8928 -141.0665
v -20.8279 377.3428 147.0335
v -20.8279 377.3428 147.0335
v -20.8279 12.8928 -141.0665
v -12.0250 371.8837 153.9393
v -20.8279 12.8928 -141.0665
v -12.0250 7.4337 -134.1607
v -12.0250 371.8837 153.9393
v -12.0250 371.8837 153.9393
v -12.0250 7.4337 -134.1607
v -0.0000 369.8856 156.4670
v -12.0250 7.4337 -134.1607
v -0.0000 5.4356 -131.6330
v -0.0000 369.8856 156.4670
v 0.0000 369.8856 156.4670
v 12.0250 371.8837 153.9393
v 0.0000 384.8000 137.6000
v 12.0250 371.8837 153.9393
v 20.8279 377.3428 147.0335
v 0.0000 384.8000 137.6000
v 20.8279 377.3428 147.0335
v 24.0500 384.8000 137.6000
v 0.0000 384.8000 137.6000
v 24.0500 384.8000 137.6000
v 20.8279 392.2572 128.1665
v 0.0000 384.8000 137.6000
v 20.8279 392.2572 128.1665
v 12.0250 397.7163 121.2607
v 0.0000 384.8000 137.6000
v 12.0250 397.7163 121.2607
v 0.0000 399.7144 118.7330
v 0.0000 384.8000 137.6000
v 0.0000 399.7144 118.7330
v -12.0250 397.7163 121.2607
v 0.0000 384.8000 137.6000
v -12.0250 397.7163 121.2607
v -20.8279 392.2572 128.1665
v 0.0000 384.8000 137.6000
v -20.8279 392.2572 128.1665
v -24.0500 384.8000 137.6000
v 0.0000 384.8000 137.6000
v -24.0500 384.8000 137.6000
v -20.8279 377.3428 147.0335
v 0.0000 384.8000 137.6000
v -20.8279 377.3428 147.0335
v -12.0250 371.8837 153.9393
v 0.0000 384.8000 137.6000
v -12.0250 371.8837 153.9393
v -0.0000 369.8856 156.4670
v 0.0000 384.8000 137.6000
v 12.0250 7.4337 -134.1607
v 0.0000 5.4356 -131.6330
v 0.0000 20.3500 -150.5000
v 20.8279 12.8928 -141.0665
v 12.0250 7.4337 -134.1607
v 0.0000 20.3500 -150.5000
v 24.0500 20.3500 -150.5000
v 20.8279 12.8928 -141.0665
v 0.0000 20.3500 -150.5000
v 20.8279 27.8072 -159.9335
v 24.0500 20.3500 -150.5000
v 0.0000 20.3500 -150.5000
v 12.0250 33.2663 -166.8393
v 20.8279 27.8072 -159.9335
v 0.0000 20.3500 -150.5000
v 0.0000 35.2644 -169.3670
v 12.0250 33.2663 -166.8393
v 0.0000 20.3500 -150.5000
v -12.0250 33.2663 -166.8393
v 0.0000 35.2644 -169.3670
v 0.0000 20.3500 -150.5000
v -20.8279 27.8072 -159.9335
v -12.0250 33.2663 -166.8393
v 0.0000 20.3500 -150.5000
v -24.0500 20.3500 -150.5000
v -20.8279 27.8072 -159.9335
v 0.0000 20.3500 -150.5000
v -20.8279 12.8928 -141.0665
v -24.0500 20.3500 -150.5000
v 0.0000 20.3500 -150.5000
v -12.0250 7.4337 -134.1607
v -20.8279 12.8928 -141.0665
v 0.0000 20.3500 -150.5000
v -0.0000 5.4356 -131.6330
v -12.0250 7.4337 -134.1607
v 0.0000 20.3500 -150.5000
v 166.5000 364.4779 -146.4009
v 166.5000 34.1935 161.2908
v 166.5000 350.6065 -161.2908
v 166.5000 34.1935 161.2908
v 166.5000 20.3221 146.4009
v 166.5000 350.6065 -161.2908
v -166.5000 350.6065 -161.2908
v -166.5000 20.3221 146.4009
v -166.5000 364.4779 -146.4009
v -166.5000 20.3221 146.4009
v -166.5000 34.1935 161.2908
v -166.5000 364.4779 -146.4009
v -166.5000 350.6065 -161.2908
v -166.5000 364.4779 -146.4009
v 166.5000 350.6065 -161.2908
v -166.5000 364.4779 -146.4009
v 166.5000 364.4779 -146.4009
v 166.5000 350.6065 -161.2908
v -166.5000 34.1935 161.2908
v -166.5000 20.3221 146.4009
v 166.5000 34.1935 161.2908
v -166.5000 20.3221 146.4009
v 166.5000 20.3221 146.4009
v 166.5000 34.1935 161.2908
v -166.5000 364.4779 -146.4009
v -166.5000 34.1935 161.2908
v 166.5000 364.4779 -146.4009
v -166.5000 34.1935 161.2908
v 166.5000 34.1935 161.2908
v 166.5000 364.4779 -146.4009
v 166.5000 350.6065 -161.2908
v 166.5000 20.3221 146.4009
v -166.5000 350.6065 -161.2908
v 166.5000 20.3221 146.4009
v -166.5000 20.3221 146.4009
v -166.5000 350.6065 -161.2908
v 185.0000 394.9750 178.4500
v 185.0000 374.6250 178.4500
v 185.0000 394.9750 -178.4500
v 185.0000 374.6250 178.4500
v 185.0000 374.6250 -178.4500
v 185.0000 394.9750 -178.4500
v -185.0000 394.9750 -178.4500
v -185.0000 374.6250 -178.4500
v -185.0000 394.9750 178.4500
v -185.0000 374.6250 -178.4500
v -185.0000 374.6250 178.4500
v -185.0000 394.9750 178.4500
v -185.0000 394.9750 -178.4500
v -185.0000 394.9750 178.4500
v 185.0000 394.9750 -178.4500
v -185.0000 394.9750 178.4500
v 185.0000 394.9750 178.4500
v 185.0000 394.9750 -178.4500
v -185.0000 374.6250 178.4500
v -185.0000 374.6250 -178.4500
v 185.0000 374.6250 178.4500
v -185.0000 374.6250 -178.4500
v 185.0000 374.6250 -178.4500
v 185.0000 374.6250 178.4500
v -185.0000 394.9750 178.4500
v -185.0000 374.6250 178.4500
v 185.0000 394.9750 178.4500
v -185.0000 374.6250 178.4500
v 185.0000 374.6250 178.4500
v 185.0000 394.9750 178.4500
v 185.0000 394.9750 -178.4500
v 185.0000 374.6250 -178.4500
v -185.0000 394.9750 -178.4500
v 185.0000 374.6250 -178.4500
v -185.0000 374.6250 -178.4500
v -185.0000 394.9750 -178.4500
v 185.0000 743.7000 177.8750
v 185.0000 410.7000 177.8750
v 185.0000 743.7000 157.5250
v 185.0000 410.7000 177.8750
v 185.0000 410.7000 157.5250
v 185.0000 743.7000 157.5250
v -185.0000 743.7000 157.5250
v -185.0000 410.7000 157.5250
v -185.0000 743.7000 177.8750
v -185.0000 410.7000 157.5250
v -185.0000 410.7000 177.8750
v -185.0000 743.7000 177.8750
v -185.0000 743.7000 157.5250
v -185.0000 743.7000 177.8750
v 185.0000 743.7000 157.5250
v -185.0000 743.7000 177.8750
v 185.0000 743.7000 177.8750
v 185.0000 743.7000 157.5250
v -185.0000 410.7000 177.8750
v -185.0000 410.7000 157.5250
v 185.0000 410.7000 177.8750
v -185.0000 410.7000 157.5250
v 185.0000 410.7000 157.5250
v 185.0000 410.7000 177.8750
v -185.0000 743.7000 177.8750
v -185.0000 410.7000 177.8750
v 185.0000 743.7000 177.8750
v -185.0000 410.7000 177.8750
v 185.0000 410.7000 177.8750
v 185.0000 743.7000 177.8750
v 185.0000 743.7000 157.5250
v 185.0000 410.7000 157.5250
v -185.0000 743.7000 157.5250
v 185.0000 410.7000 157.5250
v -185.0000 410.7000 157.5250
v -185.0000 743.7000 157.5250
f 1 2 3
f 4 5 6
f 7 8 9
f 10 11 12
f 13 14 15
f 16 17 18
f 19 20 21
f 22 23 24
f 25 26 27
f 28 29 30
f 31 32 33
f 34 35 36
f 37 38 39
f 40 41 42
f 43 44 45
f 46 47 48
f 49 50 51
f 52 53 54
f 55 56 57
f 58 59 60
f 61 62 63
f 64 65 66
f 67 68 69
f 70 71 72
f 73 74 75
f 76 77 78
f 79 80 81
f 82 83 84
f 85 86 87
f 88 89 90
f 91 92 93
f 94 95 96
f 97 98 99
f 100 101 102
f 103 104 105
f 106 107 108
f 109 110 111
f 112 113 114
f 115 116 117
f 118 119 120
f 121 122 123
f 124 125 126
f 127 128 129
f 130 131 132
f 133 134 135
f 136 137 138
f 139 140 141
f 142 143 144
f 145 146 147
f 148 149 150
f 151 152 153
f 154 155 156
f 157 158 159
f 160 161 162
f 163 164 165
f 166 167 168
f 169 170 171
f 172 173 174
f 175 176 177
f 178 179 180
f 181 182 183
f 184 185 186
f 187 188 189
f 190 191 192
f 193 194 195
f 196 197 198
f 199 200 201
f 202 203 204
f 205 206 207
f 208 209 210
f 211 212 213
f 214 215 216
f 217 218 219
f 220 221 222
f 223 224 225
f 226 227 228
f 229 230 231
f 232 233 234
f 235 236 237
f 238 239 240
f 241 242 243
f 244 245 246
f 247 248 249
f 250 251 252
f 253 254 255
f 256 257 258
f 259 260 261
f 262 263 264
f 265 266 267
f 268 269 270
f 271 272 273
f 274 275 276
f 277 278 279
f 280 281 282
f 283 284 285
f 286 287 288
