# MATERIA - 412 Cab
# Geometria originale di studio. Unita mm. Non CAD del produttore.
v -363.9339 -212.9809 -307.0054
v -339.5979 213.8641 -285.0094
v -362.8543 -212.7025 -313.6023
v -339.5979 213.8641 -285.0094
v -338.5183 214.1425 -291.6063
v -362.8543 -212.7025 -313.6023
v -362.8543 -212.7025 -313.6023
v -338.5183 214.1425 -291.6063
v -358.6234 -212.6767 -318.7851
v -338.5183 214.1425 -291.6063
v -334.2874 214.1683 -296.7891
v -358.6234 -212.6767 -318.7851
v -358.6234 -212.6767 -318.7851
v -334.2874 214.1683 -296.7891
v -352.3749 -212.9103 -321.1650
v -334.2874 214.1683 -296.7891
v -328.0389 213.9347 -299.1690
v -352.3749 -212.9103 -321.1650
v -352.3749 -212.9103 -321.1650
v -328.0389 213.9347 -299.1690
v -345.7831 -213.3407 -320.1044
v -328.0389 213.9347 -299.1690
v -321.4471 213.5043 -298.1084
v -345.7831 -213.3407 -320.1044
v -345.7831 -213.3407 -320.1044
v -321.4471 213.5043 -298.1084
v -340.6142 -213.8527 -315.8874
v -321.4471 213.5043 -298.1084
v -316.2782 212.9923 -293.8914
v -340.6142 -213.8527 -315.8874
v -340.6142 -213.8527 -315.8874
v -316.2782 212.9923 -293.8914
v -338.2533 -214.3091 -309.6440
v -316.2782 212.9923 -293.8914
v -313.9173 212.5359 -287.6480
v -338.2533 -214.3091 -309.6440
v -338.2533 -214.3091 -309.6440
v -313.9173 212.5359 -287.6480
v -339.3329 -214.5875 -303.0471
v -313.9173 212.5359 -287.6480
v -314.9969 212.2575 -281.0511
v -339.3329 -214.5875 -303.0471
v -339.3329 -214.5875 -303.0471
v -314.9969 212.2575 -281.0511
v -343.5638 -214.6133 -297.8643
v -314.9969 212.2575 -281.0511
v -319.2278 212.2317 -275.8683
v -343.5638 -214.6133 -297.8643
v -343.5638 -214.6133 -297.8643
v -319.2278 212.2317 -275.8683
v -349.8123 -214.3797 -295.4844
v -319.2278 212.2317 -275.8683
v -325.4763 212.4653 -273.4884
v -349.8123 -214.3797 -295.4844
v -349.8123 -214.3797 -295.4844
v -325.4763 212.4653 -273.4884
v -356.4041 -213.9493 -296.5450
v -325.4763 212.4653 -273.4884
v -332.0681 212.8957 -274.5490
v -356.4041 -213.9493 -296.5450
v -356.4041 -213.9493 -296.5450
v -332.0681 212.8957 -274.5490
v -361.5730 -213.4373 -300.7620
v -332.0681 212.8957 -274.5490
v -337.2370 213.4077 -278.7660
v -361.5730 -213.4373 -300.7620
v -361.5730 -213.4373 -300.7620
v -337.2370 213.4077 -278.7660
v -363.9339 -212.9809 -307.0054
v -337.2370 213.4077 -278.7660
v -339.5979 213.8641 -285.0094
v -363.9339 -212.9809 -307.0054
v -363.9339 -212.9809 -307.0054
v -362.8543 -212.7025 -313.6023
v -351.0936 -213.6450 -308.3247
v -362.8543 -212.7025 -313.6023
v -358.6234 -212.6767 -318.7851
v -351.0936 -213.6450 -308.3247
v -358.6234 -212.6767 -318.7851
v -352.3749 -212.9103 -321.1650
v -351.0936 -213.6450 -308.3247
v -352.3749 -212.9103 -321.1650
v -345.7831 -213.3407 -320.1044
v -351.0936 -213.6450 -308.3247
v -345.7831 -213.3407 -320.1044
v -340.6142 -213.8527 -315.8874
v -351.0936 -213.6450 -308.3247
v -340.6142 -213.8527 -315.8874
v -338.2533 -214.3091 -309.6440
v -351.0936 -213.6450 -308.3247
v -338.2533 -214.3091 -309.6440
v -339.3329 -214.5875 -303.0471
v -351.0936 -213.6450 -308.3247
v -339.3329 -214.5875 -303.0471
v -343.5638 -214.6133 -297.8643
v -351.0936 -213.6450 -308.3247
v -343.5638 -214.6133 -297.8643
v -349.8123 -214.3797 -295.4844
v -351.0936 -213.6450 -308.3247
v -349.8123 -214.3797 -295.4844
v -356.4041 -213.9493 -296.5450
v -351.0936 -213.6450 -308.3247
v -356.4041 -213.9493 -296.5450
v -361.5730 -213.4373 -300.7620
v -351.0936 -213.6450 -308.3247
v -361.5730 -213.4373 -300.7620
v -363.9339 -212.9809 -307.0054
v -351.0936 -213.6450 -308.3247
v -338.5183 214.1425 -291.6063
v -339.5979 213.8641 -285.0094
v -326.7576 213.2000 -286.3287
v -334.2874 214.1683 -296.7891
v -338.5183 214.1425 -291.6063
v -326.7576 213.2000 -286.3287
v -328.0389 213.9347 -299.1690
v -334.2874 214.1683 -296.7891
v -326.7576 213.2000 -286.3287
v -321.4471 213.5043 -298.1084
v -328.0389 213.9347 -299.1690
v -326.7576 213.2000 -286.3287
v -316.2782 212.9923 -293.8914
v -321.4471 213.5043 -298.1084
v -326.7576 213.2000 -286.3287
v -313.9173 212.5359 -287.6480
v -316.2782 212.9923 -293.8914
v -326.7576 213.2000 -286.3287
v -314.9969 212.2575 -281.0511
v -313.9173 212.5359 -287.6480
v -326.7576 213.2000 -286.3287
v -319.2278 212.2317 -275.8683
v -314.9969 212.2575 -281.0511
v -326.7576 213.2000 -286.3287
v -325.4763 212.4653 -273.4884
v -319.2278 212.2317 -275.8683
v -326.7576 213.2000 -286.3287
v -332.0681 212.8957 -274.5490
v -325.4763 212.4653 -273.4884
v -326.7576 213.2000 -286.3287
v -337.2370 213.4077 -278.7660
v -332.0681 212.8957 -274.5490
v -326.7576 213.2000 -286.3287
v -339.5979 213.8641 -285.0094
v -337.2370 213.4077 -278.7660
v -326.7576 213.2000 -286.3287
v 363.9339 -65.3809 -307.0054
v 339.5979 361.4641 -285.0094
v 361.5730 -65.8373 -300.7620
v 339.5979 361.4641 -285.0094
v 337.2370 361.0077 -278.7660
v 361.5730 -65.8373 -300.7620
v 361.5730 -65.8373 -300.7620
v 337.2370 361.0077 -278.7660
v 356.4041 -66.3493 -296.5450
v 337.2370 361.0077 -278.7660
v 332.0681 360.4957 -274.5490
v 356.4041 -66.3493 -296.5450
v 356.4041 -66.3493 -296.5450
v 332.0681 360.4957 -274.5490
v 349.8123 -66.7797 -295.4844
v 332.0681 360.4957 -274.5490
v 325.4763 360.0653 -273.4884
v 349.8123 -66.7797 -295.4844
v 349.8123 -66.7797 -295.4844
v 325.4763 360.0653 -273.4884
v 343.5638 -67.0133 -297.8643
v 325.4763 360.0653 -273.4884
v 319.2278 359.8317 -275.8683
v 343.5638 -67.0133 -297.8643
v 343.5638 -67.0133 -297.8643
v 319.2278 359.8317 -275.8683
v 339.3329 -66.9875 -303.0471
v 319.2278 359.8317 -275.8683
v 314.9969 359.8575 -281.0511
v 339.3329 -66.9875 -303.0471
v 339.3329 -66.9875 -303.0471
v 314.9969 359.8575 -281.0511
v 338.2533 -66.7091 -309.6440
v 314.9969 359.8575 -281.0511
v 313.9173 360.1359 -287.6480
v 338.2533 -66.7091 -309.6440
v 338.2533 -66.7091 -309.6440
v 313.9173 360.1359 -287.6480
v 340.6142 -66.2527 -315.8874
v 313.9173 360.1359 -287.6480
v 316.2782 360.5923 -293.8914
v 340.6142 -66.2527 -315.8874
v 340.6142 -66.2527 -315.8874
v 316.2782 360.5923 -293.8914
v 345.7831 -65.7407 -320.1044
v 316.2782 360.5923 -293.8914
v 321.4471 361.1043 -298.1084
v 345.7831 -65.7407 -320.1044
v 345.7831 -65.7407 -320.1044
v 321.4471 361.1043 -298.1084
v 352.3749 -65.3103 -321.1650
v 321.4471 361.1043 -298.1084
v 328.0389 361.5347 -299.1690
v 352.3749 -65.3103 -321.1650
v 352.3749 -65.3103 -321.1650
v 328.0389 361.5347 -299.1690
v 358.6234 -65.0767 -318.7851
v 328.0389 361.5347 -299.1690
v 334.2874 361.7683 -296.7891
v 358.6234 -65.0767 -318.7851
v 358.6234 -65.0767 -318.7851
v 334.2874 361.7683 -296.7891
v 362.8543 -65.1025 -313.6023
v 334.2874 361.7683 -296.7891
v 338.5183 361.7425 -291.6063
v 362.8543 -65.1025 -313.6023
v 362.8543 -65.1025 -313.6023
v 338.5183 361.7425 -291.6063
v 363.9339 -65.3809 -307.0054
v 338.5183 361.7425 -291.6063
v 339.5979 361.4641 -285.0094
v 363.9339 -65.3809 -307.0054
v 363.9339 -65.3809 -307.0054
v 361.5730 -65.8373 -300.7620
v 351.0936 -66.0450 -308.3247
v 361.5730 -65.8373 -300.7620
v 356.4041 -66.3493 -296.5450
v 351.0936 -66.0450 -308.3247
v 356.4041 -66.3493 -296.5450
v 349.8123 -66.7797 -295.4844
v 351.0936 -66.0450 -308.3247
v 349.8123 -66.7797 -295.4844
v 343.5638 -67.0133 -297.8643
v 351.0936 -66.0450 -308.3247
v 343.5638 -67.0133 -297.8643
v 339.3329 -66.9875 -303.0471
v 351.0936 -66.0450 -308.3247
v 339.3329 -66.9875 -303.0471
v 338.2533 -66.7091 -309.6440
v 351.0936 -66.0450 -308.3247
v 338.2533 -66.7091 -309.6440
v 340.6142 -66.2527 -315.8874
v 351.0936 -66.0450 -308.3247
v 340.6142 -66.2527 -315.8874
v 345.7831 -65.7407 -320.1044
v 351.0936 -66.0450 -308.3247
v 345.7831 -65.7407 -320.1044
v 352.3749 -65.3103 -321.1650
v 351.0936 -66.0450 -308.3247
v 352.3749 -65.3103 -321.1650
v 358.6234 -65.0767 -318.7851
v 351.0936 -66.0450 -308.3247
v 358.6234 -65.0767 -318.7851
v 362.8543 -65.1025 -313.6023
v 351.0936 -66.0450 -308.3247
v 362.8543 -65.1025 -313.6023
v 363.9339 -65.3809 -307.0054
v 351.0936 -66.0450 -308.3247
v 337.2370 361.0077 -278.7660
v 339.5979 361.4641 -285.0094
v 326.7576 360.8000 -286.3287
v 332.0681 360.4957 -274.5490
v 337.2370 361.0077 -278.7660
v 326.7576 360.8000 -286.3287
v 325.4763 360.0653 -273.4884
v 332.0681 360.4957 -274.5490
v 326.7576 360.8000 -286.3287
v 319.2278 359.8317 -275.8683
v 325.4763 360.0653 -273.4884
v 326.7576 360.8000 -286.3287
v 314.9969 359.8575 -281.0511
v 319.2278 359.8317 -275.8683
v 326.7576 360.8000 -286.3287
v 313.9173 360.1359 -287.6480
v 314.9969 359.8575 -281.0511
v 326.7576 360.8000 -286.3287
v 316.2782 360.5923 -293.8914
v 313.9173 360.1359 -287.6480
v 326.7576 360.8000 -286.3287
v 321.4471 361.1043 -298.1084
v 316.2782 360.5923 -293.8914
v 326.7576 360.8000 -286.3287
v 328.0389 361.5347 -299.1690
v 321.4471 361.1043 -298.1084
v 326.7576 360.8000 -286.3287
v 334.2874 361.7683 -296.7891
v 328.0389 361.5347 -299.1690
v 326.7576 360.8000 -286.3287
v 338.5183 361.7425 -291.6063
v 334.2874 361.7683 -296.7891
v 326.7576 360.8000 -286.3287
v 339.5979 361.4641 -285.0094
v 338.5183 361.7425 -291.6063
v 326.7576 360.8000 -286.3287
v -338.2533 80.8909 309.6440
v -313.9173 507.7359 287.6480
v -340.6142 81.3473 315.8874
v -313.9173 507.7359 287.6480
v -316.2782 508.1923 293.8914
v -340.6142 81.3473 315.8874
v -340.6142 81.3473 315.8874
v -316.2782 508.1923 293.8914
v -345.7831 81.8593 320.1044
v -316.2782 508.1923 293.8914
v -321.4471 508.7043 298.1084
v -345.7831 81.8593 320.1044
v -345.7831 81.8593 320.1044
v -321.4471 508.7043 298.1084
v -352.3749 82.2897 321.1650
v -321.4471 508.7043 298.1084
v -328.0389 509.1347 299.1690
v -352.3749 82.2897 321.1650
v -352.3749 82.2897 321.1650
v -328.0389 509.1347 299.1690
v -358.6234 82.5233 318.7851
v -328.0389 509.1347 299.1690
v -334.2874 509.3683 296.7891
v -358.6234 82.5233 318.7851
v -358.6234 82.5233 318.7851
v -334.2874 509.3683 296.7891
v -362.8543 82.4975 313.6023
v -334.2874 509.3683 296.7891
v -338.5183 509.3425 291.6063
v -362.8543 82.4975 313.6023
v -362.8543 82.4975 313.6023
v -338.5183 509.3425 291.6063
v -363.9339 82.2191 307.0054
v -338.5183 509.3425 291.6063
v -339.5979 509.0641 285.0094
v -363.9339 82.2191 307.0054
v -363.9339 82.2191 307.0054
v -339.5979 509.0641 285.0094
v -361.5730 81.7627 300.7620
v -339.5979 509.0641 285.0094
v -337.2370 508.6077 278.7660
v -361.5730 81.7627 300.7620
v -361.5730 81.7627 300.7620
v -337.2370 508.6077 278.7660
v -356.4041 81.2507 296.5450
v -337.2370 508.6077 278.7660
v -332.0681 508.0957 274.5490
v -356.4041 81.2507 296.5450
v -356.4041 81.2507 296.5450
v -332.0681 508.0957 274.5490
v -349.8123 80.8203 295.4844
v -332.0681 508.0957 274.5490
v -325.4763 507.6653 273.4884
v -349.8123 80.8203 295.4844
v -349.8123 80.8203 295.4844
v -325.4763 507.6653 273.4884
v -343.5638 80.5867 297.8643
v -325.4763 507.6653 273.4884
v -319.2278 507.4317 275.8683
v -343.5638 80.5867 297.8643
v -343.5638 80.5867 297.8643
v -319.2278 507.4317 275.8683
v -339.3329 80.6125 303.0471
v -319.2278 507.4317 275.8683
v -314.9969 507.4575 281.0511
v -339.3329 80.6125 303.0471
v -339.3329 80.6125 303.0471
v -314.9969 507.4575 281.0511
v -338.2533 80.8909 309.6440
v -314.9969 507.4575 281.0511
v -313.9173 507.7359 287.6480
v -338.2533 80.8909 309.6440
v -338.2533 80.8909 309.6440
v -340.6142 81.3473 315.8874
v -351.0936 81.5550 308.3247
v -340.6142 81.3473 315.8874
v -345.7831 81.8593 320.1044
v -351.0936 81.5550 308.3247
v -345.7831 81.8593 320.1044
v -352.3749 82.2897 321.1650
v -351.0936 81.5550 308.3247
v -352.3749 82.2897 321.1650
v -358.6234 82.5233 318.7851
v -351.0936 81.5550 308.3247
v -358.6234 82.5233 318.7851
v -362.8543 82.4975 313.6023
v -351.0936 81.5550 308.3247
v -362.8543 82.4975 313.6023
v -363.9339 82.2191 307.0054
v -351.0936 81.5550 308.3247
v -363.9339 82.2191 307.0054
v -361.5730 81.7627 300.7620
v -351.0936 81.5550 308.3247
v -361.5730 81.7627 300.7620
v -356.4041 81.2507 296.5450
v -351.0936 81.5550 308.3247
v -356.4041 81.2507 296.5450
v -349.8123 80.8203 295.4844
v -351.0936 81.5550 308.3247
v -349.8123 80.8203 295.4844
v -343.5638 80.5867 297.8643
v -351.0936 81.5550 308.3247
v -343.5638 80.5867 297.8643
v -339.3329 80.6125 303.0471
v -351.0936 81.5550 308.3247
v -339.3329 80.6125 303.0471
v -338.2533 80.8909 309.6440
v -351.0936 81.5550 308.3247
v -316.2782 508.1923 293.8914
v -313.9173 507.7359 287.6480
v -326.7576 508.4000 286.3287
v -321.4471 508.7043 298.1084
v -316.2782 508.1923 293.8914
v -326.7576 508.4000 286.3287
v -328.0389 509.1347 299.1690
v -321.4471 508.7043 298.1084
v -326.7576 508.4000 286.3287
v -334.2874 509.3683 296.7891
v -328.0389 509.1347 299.1690
v -326.7576 508.4000 286.3287
v -338.5183 509.3425 291.6063
v -334.2874 509.3683 296.7891
v -326.7576 508.4000 286.3287
v -339.5979 509.0641 285.0094
v -338.5183 509.3425 291.6063
v -326.7576 508.4000 286.3287
v -337.2370 508.6077 278.7660
v -339.5979 509.0641 285.0094
v -326.7576 508.4000 286.3287
v -332.0681 508.0957 274.5490
v -337.2370 508.6077 278.7660
v -326.7576 508.4000 286.3287
v -325.4763 507.6653 273.4884
v -332.0681 508.0957 274.5490
v -326.7576 508.4000 286.3287
v -319.2278 507.4317 275.8683
v -325.4763 507.6653 273.4884
v -326.7576 508.4000 286.3287
v -314.9969 507.4575 281.0511
v -319.2278 507.4317 275.8683
v -326.7576 508.4000 286.3287
v -313.9173 507.7359 287.6480
v -314.9969 507.4575 281.0511
v -326.7576 508.4000 286.3287
v 338.2533 228.4909 309.6440
v 313.9173 655.3359 287.6480
v 339.3329 228.2125 303.0471
v 313.9173 655.3359 287.6480
v 314.9969 655.0575 281.0511
v 339.3329 228.2125 303.0471
v 339.3329 228.2125 303.0471
v 314.9969 655.0575 281.0511
v 343.5638 228.1867 297.8643
v 314.9969 655.0575 281.0511
v 319.2278 655.0317 275.8683
v 343.5638 228.1867 297.8643
v 343.5638 228.1867 297.8643
v 319.2278 655.0317 275.8683
v 349.8123 228.4203 295.4844
v 319.2278 655.0317 275.8683
v 325.4763 655.2653 273.4884
v 349.8123 228.4203 295.4844
v 349.8123 228.4203 295.4844
v 325.4763 655.2653 273.4884
v 356.4041 228.8507 296.5450
v 325.4763 655.2653 273.4884
v 332.0681 655.6957 274.5490
v 356.4041 228.8507 296.5450
v 356.4041 228.8507 296.5450
v 332.0681 655.6957 274.5490
v 361.5730 229.3627 300.7620
v 332.0681 655.6957 274.5490
v 337.2370 656.2077 278.7660
v 361.5730 229.3627 300.7620
v 361.5730 229.3627 300.7620
v 337.2370 656.2077 278.7660
v 363.9339 229.8191 307.0054
v 337.2370 656.2077 278.7660
v 339.5979 656.6641 285.0094
v 363.9339 229.8191 307.0054
v 363.9339 229.8191 307.0054
v 339.5979 656.6641 285.0094
v 362.8543 230.0975 313.6023
v 339.5979 656.6641 285.0094
v 338.5183 656.9425 291.6063
v 362.8543 230.0975 313.6023
v 362.8543 230.0975 313.6023
v 338.5183 656.9425 291.6063
v 358.6234 230.1233 318.7851
v 338.5183 656.9425 291.6063
v 334.2874 656.9683 296.7891
v 358.6234 230.1233 318.7851
v 358.6234 230.1233 318.7851
v 334.2874 656.9683 296.7891
v 352.3749 229.8897 321.1650
v 334.2874 656.9683 296.7891
v 328.0389 656.7347 299.1690
v 352.3749 229.8897 321.1650
v 352.3749 229.8897 321.1650
v 328.0389 656.7347 299.1690
v 345.7831 229.4593 320.1044
v 328.0389 656.7347 299.1690
v 321.4471 656.3043 298.1084
v 345.7831 229.4593 320.1044
v 345.7831 229.4593 320.1044
v 321.4471 656.3043 298.1084
v 340.6142 228.9473 315.8874
v 321.4471 656.3043 298.1084
v 316.2782 655.7923 293.8914
v 340.6142 228.9473 315.8874
v 340.6142 228.9473 315.8874
v 316.2782 655.7923 293.8914
v 338.2533 228.4909 309.6440
v 316.2782 655.7923 293.8914
v 313.9173 655.3359 287.6480
v 338.2533 228.4909 309.6440
v 338.2533 228.4909 309.6440
v 339.3329 228.2125 303.0471
v 351.0936 229.1550 308.3247
v 339.3329 228.2125 303.0471
v 343.5638 228.1867 297.8643
v 351.0936 229.1550 308.3247
v 343.5638 228.1867 297.8643
v 349.8123 228.4203 295.4844
v 351.0936 229.1550 308.3247
v 349.8123 228.4203 295.4844
v 356.4041 228.8507 296.5450
v 351.0936 229.1550 308.3247
v 356.4041 228.8507 296.5450
v 361.5730 229.3627 300.7620
v 351.0936 229.1550 308.3247
v 361.5730 229.3627 300.7620
v 363.9339 229.8191 307.0054
v 351.0936 229.1550 308.3247
v 363.9339 229.8191 307.0054
v 362.8543 230.0975 313.6023
v 351.0936 229.1550 308.3247
v 362.8543 230.0975 313.6023
v 358.6234 230.1233 318.7851
v 351.0936 229.1550 308.3247
v 358.6234 230.1233 318.7851
v 352.3749 229.8897 321.1650
v 351.0936 229.1550 308.3247
v 352.3749 229.8897 321.1650
v 345.7831 229.4593 320.1044
v 351.0936 229.1550 308.3247
v 345.7831 229.4593 320.1044
v 340.6142 228.9473 315.8874
v 351.0936 229.1550 308.3247
v 340.6142 228.9473 315.8874
v 338.2533 228.4909 309.6440
v 351.0936 229.1550 308.3247
v 314.9969 655.0575 281.0511
v 313.9173 655.3359 287.6480
v 326.7576 656.0000 286.3287
v 319.2278 655.0317 275.8683
v 314.9969 655.0575 281.0511
v 326.7576 656.0000 286.3287
v 325.4763 655.2653 273.4884
v 319.2278 655.0317 275.8683
v 326.7576 656.0000 286.3287
v 332.0681 655.6957 274.5490
v 325.4763 655.2653 273.4884
v 326.7576 656.0000 286.3287
v 337.2370 656.2077 278.7660
v 332.0681 655.6957 274.5490
v 326.7576 656.0000 286.3287
v 339.5979 656.6641 285.0094
v 337.2370 656.2077 278.7660
v 326.7576 656.0000 286.3287
v 338.5183 656.9425 291.6063
v 339.5979 656.6641 285.0094
v 326.7576 656.0000 286.3287
v 334.2874 656.9683 296.7891
v 338.5183 656.9425 291.6063
v 326.7576 656.0000 286.3287
v 328.0389 656.7347 299.1690
v 334.2874 656.9683 296.7891
v 326.7576 656.0000 286.3287
v 321.4471 656.3043 298.1084
v 328.0389 656.7347 299.1690
v 326.7576 656.0000 286.3287
v 316.2782 655.7923 293.8914
v 321.4471 656.3043 298.1084
v 326.7576 656.0000 286.3287
v 313.9173 655.3359 287.6480
v 316.2782 655.7923 293.8914
v 326.7576 656.0000 286.3287
v 239.2000 233.8800 202.1000
v 239.2000 192.5200 202.1000
v 239.2000 233.8800 -202.1000
v 239.2000 192.5200 202.1000
v 239.2000 192.5200 -202.1000
v 239.2000 233.8800 -202.1000
v -239.2000 233.8800 -202.1000
v -239.2000 192.5200 -202.1000
v -239.2000 233.8800 202.1000
v -239.2000 192.5200 -202.1000
v -239.2000 192.5200 202.1000
v -239.2000 233.8800 202.1000
v -239.2000 233.8800 -202.1000
v -239.2000 233.8800 202.1000
v 239.2000 233.8800 -202.1000
v -239.2000 233.8800 202.1000
v 239.2000 233.8800 202.1000
v 239.2000 233.8800 -202.1000
v -239.2000 192.5200 202.1000
v -239.2000 192.5200 -202.1000
v 239.2000 192.5200 202.1000
v -239.2000 192.5200 -202.1000
v 239.2000 192.5200 -202.1000
v 239.2000 192.5200 202.1000
v -239.2000 233.8800 202.1000
v -239.2000 192.5200 202.1000
v 239.2000 233.8800 202.1000
v -239.2000 192.5200 202.1000
v 239.2000 192.5200 202.1000
v 239.2000 233.8800 202.1000
v 239.2000 233.8800 -202.1000
v 239.2000 192.5200 -202.1000
v -239.2000 233.8800 -202.1000
v 239.2000 192.5200 -202.1000
v -239.2000 192.5200 -202.1000
v -239.2000 233.8800 -202.1000
v 187.2000 334.9500 -267.5475
v -187.2000 334.9500 -267.5475
v 187.2000 329.1338 -269.1060
v -187.2000 334.9500 -267.5475
v -187.2000 329.1337 -269.1060
v 187.2000 329.1338 -269.1060
v 187.2000 329.1338 -269.1060
v -187.2000 329.1337 -269.1060
v 187.2000 324.8760 -273.3637
v -187.2000 329.1337 -269.1060
v -187.2000 324.8760 -273.3637
v 187.2000 324.8760 -273.3637
v 187.2000 324.8760 -273.3637
v -187.2000 324.8760 -273.3637
v 187.2000 323.3175 -279.1800
v -187.2000 324.8760 -273.3637
v -187.2000 323.3175 -279.1800
v 187.2000 323.3175 -279.1800
v 187.2000 323.3175 -279.1800
v -187.2000 323.3175 -279.1800
v 187.2000 324.8760 -284.9962
v -187.2000 323.3175 -279.1800
v -187.2000 324.8760 -284.9962
v 187.2000 324.8760 -284.9962
v 187.2000 324.8760 -284.9962
v -187.2000 324.8760 -284.9962
v 187.2000 329.1338 -289.2540
v -187.2000 324.8760 -284.9962
v -187.2000 329.1337 -289.2540
v 187.2000 329.1338 -289.2540
v 187.2000 329.1338 -289.2540
v -187.2000 329.1337 -289.2540
v 187.2000 334.9500 -290.8125
v -187.2000 329.1337 -289.2540
v -187.2000 334.9500 -290.8125
v 187.2000 334.9500 -290.8125
v 187.2000 334.9500 -290.8125
v -187.2000 334.9500 -290.8125
v 187.2000 340.7663 -289.2540
v -187.2000 334.9500 -290.8125
v -187.2000 340.7662 -289.2540
v 187.2000 340.7663 -289.2540
v 187.2000 340.7663 -289.2540
v -187.2000 340.7662 -289.2540
v 187.2000 345.0240 -284.9962
v -187.2000 340.7662 -289.2540
v -187.2000 345.0240 -284.9962
v 187.2000 345.0240 -284.9962
v 187.2000 345.0240 -284.9962
v -187.2000 345.0240 -284.9962
v 187.2000 346.5825 -279.1800
v -187.2000 345.0240 -284.9962
v -187.2000 346.5825 -279.1800
v 187.2000 346.5825 -279.1800
v 187.2000 346.5825 -279.1800
v -187.2000 346.5825 -279.1800
v 187.2000 345.0240 -273.3637
v -187.2000 346.5825 -279.1800
v -187.2000 345.0240 -273.3637
v 187.2000 345.0240 -273.3637
v 187.2000 345.0240 -273.3637
v -187.2000 345.0240 -273.3637
v 187.2000 340.7663 -269.1060
v -187.2000 345.0240 -273.3637
v -187.2000 340.7662 -269.1060
v 187.2000 340.7663 -269.1060
v 187.2000 340.7663 -269.1060
v -187.2000 340.7662 -269.1060
v 187.2000 334.9500 -267.5475
v -187.2000 340.7662 -269.1060
v -187.2000 334.9500 -267.5475
v 187.2000 334.9500 -267.5475
v 187.2000 334.9500 -267.5475
v 187.2000 329.1338 -269.1060
v 187.2000 334.9500 -279.1800
v 187.2000 329.1338 -269.1060
v 187.2000 324.8760 -273.3637
v 187.2000 334.9500 -279.1800
v 187.2000 324.8760 -273.3637
v 187.2000 323.3175 -279.1800
v 187.2000 334.9500 -279.1800
v 187.2000 323.3175 -279.1800
v 187.2000 324.8760 -284.9962
v 187.2000 334.9500 -279.1800
v 187.2000 324.8760 -284.9962
v 187.2000 329.1338 -289.2540
v 187.2000 334.9500 -279.1800
v 187.2000 329.1338 -289.2540
v 187.2000 334.9500 -290.8125
v 187.2000 334.9500 -279.1800
v 187.2000 334.9500 -290.8125
v 187.2000 340.7663 -289.2540
v 187.2000 334.9500 -279.1800
v 187.2000 340.7663 -289.2540
v 187.2000 345.0240 -284.9962
v 187.2000 334.9500 -279.1800
v 187.2000 345.0240 -284.9962
v 187.2000 346.5825 -279.1800
v 187.2000 334.9500 -279.1800
v 187.2000 346.5825 -279.1800
v 187.2000 345.0240 -273.3637
v 187.2000 334.9500 -279.1800
v 187.2000 345.0240 -273.3637
v 187.2000 340.7663 -269.1060
v 187.2000 334.9500 -279.1800
v 187.2000 340.7663 -269.1060
v 187.2000 334.9500 -267.5475
v 187.2000 334.9500 -279.1800
v -187.2000 329.1337 -269.1060
v -187.2000 334.9500 -267.5475
v -187.2000 334.9500 -279.1800
v -187.2000 324.8760 -273.3637
v -187.2000 329.1337 -269.1060
v -187.2000 334.9500 -279.1800
v -187.2000 323.3175 -279.1800
v -187.2000 324.8760 -273.3637
v -187.2000 334.9500 -279.1800
v -187.2000 324.8760 -284.9962
v -187.2000 323.3175 -279.1800
v -187.2000 334.9500 -279.1800
v -187.2000 329.1337 -289.2540
v -187.2000 324.8760 -284.9962
v -187.2000 334.9500 -279.1800
v -187.2000 334.9500 -290.8125
v -187.2000 329.1337 -289.2540
v -187.2000 334.9500 -279.1800
v -187.2000 340.7662 -289.2540
v -187.2000 334.9500 -290.8125
v -187.2000 334.9500 -279.1800
v -187.2000 345.0240 -284.9962
v -187.2000 340.7662 -289.2540
v -187.2000 334.9500 -279.1800
v -187.2000 346.5825 -279.1800
v -187.2000 345.0240 -284.9962
v -187.2000 334.9500 -279.1800
v -187.2000 345.0240 -273.3637
v -187.2000 346.5825 -279.1800
v -187.2000 334.9500 -279.1800
v -187.2000 340.7662 -269.1060
v -187.2000 345.0240 -273.3637
v -187.2000 334.9500 -279.1800
v -187.2000 334.9500 -267.5475
v -187.2000 340.7662 -269.1060
v -187.2000 334.9500 -279.1800
v -325.2569 867.5246 308.7112
v -320.0569 507.9746 294.6112
v -319.8294 867.6600 307.2593
v -320.0569 507.9746 294.6112
v -314.6294 508.1100 293.1593
v -319.8294 867.6600 307.2593
v -319.8294 867.6600 307.2593
v -314.6294 508.1100 293.1593
v -315.8570 867.8732 303.2895
v -314.6294 508.1100 293.1593
v -310.6570 508.3232 289.1895
v -315.8570 867.8732 303.2895
v -315.8570 867.8732 303.2895
v -310.6570 508.3232 289.1895
v -314.4041 868.1069 297.8656
v -310.6570 508.3232 289.1895
v -309.2041 508.5569 283.7656
v -314.4041 868.1069 297.8656
v -314.4041 868.1069 297.8656
v -309.2041 508.5569 283.7656
v -315.8601 868.2986 292.4408
v -309.2041 508.5569 283.7656
v -310.6601 508.7486 278.3408
v -315.8601 868.2986 292.4408
v -315.8601 868.2986 292.4408
v -310.6601 508.7486 278.3408
v -319.8347 868.3968 288.4688
v -310.6601 508.7486 278.3408
v -314.6347 508.8468 274.3688
v -319.8347 868.3968 288.4688
v -319.8347 868.3968 288.4688
v -314.6347 508.8468 274.3688
v -325.2631 868.3754 287.0138
v -314.6347 508.8468 274.3688
v -320.0631 508.8254 272.9138
v -325.2631 868.3754 287.0138
v -325.2631 868.3754 287.0138
v -320.0631 508.8254 272.9138
v -330.6906 868.2400 288.4657
v -320.0631 508.8254 272.9138
v -325.4906 508.6900 274.3657
v -330.6906 868.2400 288.4657
v -330.6906 868.2400 288.4657
v -325.4906 508.6900 274.3657
v -334.6630 868.0268 292.4355
v -325.4906 508.6900 274.3657
v -329.4630 508.4768 278.3355
v -334.6630 868.0268 292.4355
v -334.6630 868.0268 292.4355
v -329.4630 508.4768 278.3355
v -336.1159 867.7931 297.8594
v -329.4630 508.4768 278.3355
v -330.9159 508.2431 283.7594
v -336.1159 867.7931 297.8594
v -336.1159 867.7931 297.8594
v -330.9159 508.2431 283.7594
v -334.6599 867.6014 303.2842
v -330.9159 508.2431 283.7594
v -329.4599 508.0514 289.1842
v -334.6599 867.6014 303.2842
v -334.6599 867.6014 303.2842
v -329.4599 508.0514 289.1842
v -330.6853 867.5032 307.2562
v -329.4599 508.0514 289.1842
v -325.4853 507.9532 293.1562
v -330.6853 867.5032 307.2562
v -330.6853 867.5032 307.2562
v -325.4853 507.9532 293.1562
v -325.2569 867.5246 308.7112
v -325.4853 507.9532 293.1562
v -320.0569 507.9746 294.6112
v -325.2569 867.5246 308.7112
v -325.2569 867.5246 308.7112
v -319.8294 867.6600 307.2593
v -325.2600 867.9500 297.8625
v -319.8294 867.6600 307.2593
v -315.8570 867.8732 303.2895
v -325.2600 867.9500 297.8625
v -315.8570 867.8732 303.2895
v -314.4041 868.1069 297.8656
v -325.2600 867.9500 297.8625
v -314.4041 868.1069 297.8656
v -315.8601 868.2986 292.4408
v -325.2600 867.9500 297.8625
v -315.8601 868.2986 292.4408
v -319.8347 868.3968 288.4688
v -325.2600 867.9500 297.8625
v -319.8347 868.3968 288.4688
v -325.2631 868.3754 287.0138
v -325.2600 867.9500 297.8625
v -325.2631 868.3754 287.0138
v -330.6906 868.2400 288.4657
v -325.2600 867.9500 297.8625
v -330.6906 868.2400 288.4657
v -334.6630 868.0268 292.4355
v -325.2600 867.9500 297.8625
v -334.6630 868.0268 292.4355
v -336.1159 867.7931 297.8594
v -325.2600 867.9500 297.8625
v -336.1159 867.7931 297.8594
v -334.6599 867.6014 303.2842
v -325.2600 867.9500 297.8625
v -334.6599 867.6014 303.2842
v -330.6853 867.5032 307.2562
v -325.2600 867.9500 297.8625
v -330.6853 867.5032 307.2562
v -325.2569 867.5246 308.7112
v -325.2600 867.9500 297.8625
v -314.6294 508.1100 293.1593
v -320.0569 507.9746 294.6112
v -320.0600 508.4000 283.7625
v -310.6570 508.3232 289.1895
v -314.6294 508.1100 293.1593
v -320.0600 508.4000 283.7625
v -309.2041 508.5569 283.7656
v -310.6570 508.3232 289.1895
v -320.0600 508.4000 283.7625
v -310.6601 508.7486 278.3408
v -309.2041 508.5569 283.7656
v -320.0600 508.4000 283.7625
v -314.6347 508.8468 274.3688
v -310.6601 508.7486 278.3408
v -320.0600 508.4000 283.7625
v -320.0631 508.8254 272.9138
v -314.6347 508.8468 274.3688
v -320.0600 508.4000 283.7625
v -325.4906 508.6900 274.3657
v -320.0631 508.8254 272.9138
v -320.0600 508.4000 283.7625
v -329.4630 508.4768 278.3355
v -325.4906 508.6900 274.3657
v -320.0600 508.4000 283.7625
v -330.9159 508.2431 283.7594
v -329.4630 508.4768 278.3355
v -320.0600 508.4000 283.7625
v -329.4599 508.0514 289.1842
v -330.9159 508.2431 283.7594
v -320.0600 508.4000 283.7625
v -325.4853 507.9532 293.1562
v -329.4599 508.0514 289.1842
v -320.0600 508.4000 283.7625
v -320.0569 507.9746 294.6112
v -325.4853 507.9532 293.1562
v -320.0600 508.4000 283.7625
v 325.2569 1015.1246 308.7112
v 320.0569 655.5746 294.6112
v 330.6853 1015.1032 307.2562
v 320.0569 655.5746 294.6112
v 325.4853 655.5532 293.1562
v 330.6853 1015.1032 307.2562
v 330.6853 1015.1032 307.2562
v 325.4853 655.5532 293.1562
v 334.6599 1015.2014 303.2842
v 325.4853 655.5532 293.1562
v 329.4599 655.6514 289.1842
v 334.6599 1015.2014 303.2842
v 334.6599 1015.2014 303.2842
v 329.4599 655.6514 289.1842
v 336.1159 1015.3931 297.8594
v 329.4599 655.6514 289.1842
v 330.9159 655.8431 283.7594
v 336.1159 1015.3931 297.8594
v 336.1159 1015.3931 297.8594
v 330.9159 655.8431 283.7594
v 334.6630 1015.6268 292.4355
v 330.9159 655.8431 283.7594
v 329.4630 656.0768 278.3355
v 334.6630 1015.6268 292.4355
v 334.6630 1015.6268 292.4355
v 329.4630 656.0768 278.3355
v 330.6906 1015.8400 288.4657
v 329.4630 656.0768 278.3355
v 325.4906 656.2900 274.3657
v 330.6906 1015.8400 288.4657
v 330.6906 1015.8400 288.4657
v 325.4906 656.2900 274.3657
v 325.2631 1015.9754 287.0138
v 325.4906 656.2900 274.3657
v 320.0631 656.4254 272.9138
v 325.2631 1015.9754 287.0138
v 325.2631 1015.9754 287.0138
v 320.0631 656.4254 272.9138
v 319.8347 1015.9968 288.4688
v 320.0631 656.4254 272.9138
v 314.6347 656.4468 274.3688
v 319.8347 1015.9968 288.4688
v 319.8347 1015.9968 288.4688
v 314.6347 656.4468 274.3688
v 315.8601 1015.8986 292.4408
v 314.6347 656.4468 274.3688
v 310.6601 656.3486 278.3408
v 315.8601 1015.8986 292.4408
v 315.8601 1015.8986 292.4408
v 310.6601 656.3486 278.3408
v 314.4041 1015.7069 297.8656
v 310.6601 656.3486 278.3408
v 309.2041 656.1569 283.7656
v 314.4041 1015.7069 297.8656
v 314.4041 1015.7069 297.8656
v 309.2041 656.1569 283.7656
v 315.8570 1015.4732 303.2895
v 309.2041 656.1569 283.7656
v 310.6570 655.9232 289.1895
v 315.8570 1015.4732 303.2895
v 315.8570 1015.4732 303.2895
v 310.6570 655.9232 289.1895
v 319.8294 1015.2600 307.2593
v 310.6570 655.9232 289.1895
v 314.6294 655.7100 293.1593
v 319.8294 1015.2600 307.2593
v 319.8294 1015.2600 307.2593
v 314.6294 655.7100 293.1593
v 325.2569 1015.1246 308.7112
v 314.6294 655.7100 293.1593
v 320.0569 655.5746 294.6112
v 325.2569 1015.1246 308.7112
v 325.2569 1015.1246 308.7112
v 330.6853 1015.1032 307.2562
v 325.2600 1015.5500 297.8625
v 330.6853 1015.1032 307.2562
v 334.6599 1015.2014 303.2842
v 325.2600 1015.5500 297.8625
v 334.6599 1015.2014 303.2842
v 336.1159 1015.3931 297.8594
v 325.2600 1015.5500 297.8625
v 336.1159 1015.3931 297.8594
v 334.6630 1015.6268 292.4355
v 325.2600 1015.5500 297.8625
v 334.6630 1015.6268 292.4355
v 330.6906 1015.8400 288.4657
v 325.2600 1015.5500 297.8625
v 330.6906 1015.8400 288.4657
v 325.2631 1015.9754 287.0138
v 325.2600 1015.5500 297.8625
v 325.2631 1015.9754 287.0138
v 319.8347 1015.9968 288.4688
v 325.2600 1015.5500 297.8625
v 319.8347 1015.9968 288.4688
v 315.8601 1015.8986 292.4408
v 325.2600 1015.5500 297.8625
v 315.8601 1015.8986 292.4408
v 314.4041 1015.7069 297.8656
v 325.2600 1015.5500 297.8625
v 314.4041 1015.7069 297.8656
v 315.8570 1015.4732 303.2895
v 325.2600 1015.5500 297.8625
v 315.8570 1015.4732 303.2895
v 319.8294 1015.2600 307.2593
v 325.2600 1015.5500 297.8625
v 319.8294 1015.2600 307.2593
v 325.2569 1015.1246 308.7112
v 325.2600 1015.5500 297.8625
v 325.4853 655.5532 293.1562
v 320.0569 655.5746 294.6112
v 320.0600 656.0000 283.7625
v 329.4599 655.6514 289.1842
v 325.4853 655.5532 293.1562
v 320.0600 656.0000 283.7625
v 330.9159 655.8431 283.7594
v 329.4599 655.6514 289.1842
v 320.0600 656.0000 283.7625
v 329.4630 656.0768 278.3355
v 330.9159 655.8431 283.7594
v 320.0600 656.0000 283.7625
v 325.4906 656.2900 274.3657
v 329.4630 656.0768 278.3355
v 320.0600 656.0000 283.7625
v 320.0631 656.4254 272.9138
v 325.4906 656.2900 274.3657
v 320.0600 656.0000 283.7625
v 314.6347 656.4468 274.3688
v 320.0631 656.4254 272.9138
v 320.0600 656.0000 283.7625
v 310.6601 656.3486 278.3408
v 314.6347 656.4468 274.3688
v 320.0600 656.0000 283.7625
v 309.2041 656.1569 283.7656
v 310.6601 656.3486 278.3408
v 320.0600 656.0000 283.7625
v 310.6570 655.9232 289.1895
v 309.2041 656.1569 283.7656
v 320.0600 656.0000 283.7625
v 314.6294 655.7100 293.1593
v 310.6570 655.9232 289.1895
v 320.0600 656.0000 283.7625
v 320.0569 655.5746 294.6112
v 314.6294 655.7100 293.1593
v 320.0600 656.0000 283.7625
v 228.8000 563.0510 307.7679
v 228.8000 375.0542 322.8398
v 228.8000 559.7458 266.5402
v 228.8000 375.0542 322.8398
v 228.8000 371.7490 281.6121
v 228.8000 559.7458 266.5402
v -228.8000 559.7458 266.5402
v -228.8000 371.7490 281.6121
v -228.8000 563.0510 307.7679
v -228.8000 371.7490 281.6121
v -228.8000 375.0542 322.8398
v -228.8000 563.0510 307.7679
v -228.8000 559.7458 266.5402
v -228.8000 563.0510 307.7679
v 228.8000 559.7458 266.5402
v -228.8000 563.0510 307.7679
v 228.8000 563.0510 307.7679
v 228.8000 559.7458 266.5402
v -228.8000 375.0542 322.8398
v -228.8000 371.7490 281.6121
v 228.8000 375.0542 322.8398
v -228.8000 371.7490 281.6121
v 228.8000 371.7490 281.6121
v 228.8000 375.0542 322.8398
v -228.8000 563.0510 307.7679
v -228.8000 375.0542 322.8398
v 228.8000 563.0510 307.7679
v -228.8000 375.0542 322.8398
v 228.8000 375.0542 322.8398
v 228.8000 563.0510 307.7679
v 228.8000 559.7458 266.5402
v 228.8000 371.7490 281.6121
v -228.8000 559.7458 266.5402
v 228.8000 371.7490 281.6121
v -228.8000 371.7490 281.6121
v -228.8000 559.7458 266.5402
f 1 2 3
f 4 5 6
f 7 8 9
f 10 11 12
f 13 14 15
f 16 17 18
f 19 20 21
f 22 23 24
f 25 26 27
f 28 29 30
f 31 32 33
f 34 35 36
f 37 38 39
f 40 41 42
f 43 44 45
f 46 47 48
f 49 50 51
f 52 53 54
f 55 56 57
f 58 59 60
f 61 62 63
f 64 65 66
f 67 68 69
f 70 71 72
f 73 74 75
f 76 77 78
f 79 80 81
f 82 83 84
f 85 86 87
f 88 89 90
f 91 92 93
f 94 95 96
f 97 98 99
f 100 101 102
f 103 104 105
f 106 107 108
f 109 110 111
f 112 113 114
f 115 116 117
f 118 119 120
f 121 122 123
f 124 125 126
f 127 128 129
f 130 131 132
f 133 134 135
f 136 137 138
f 139 140 141
f 142 143 144
f 145 146 147
f 148 149 150
f 151 152 153
f 154 155 156
f 157 158 159
f 160 161 162
f 163 164 165
f 166 167 168
f 169 170 171
f 172 173 174
f 175 176 177
f 178 179 180
f 181 182 183
f 184 185 186
f 187 188 189
f 190 191 192
f 193 194 195
f 196 197 198
f 199 200 201
f 202 203 204
f 205 206 207
f 208 209 210
f 211 212 213
f 214 215 216
f 217 218 219
f 220 221 222
f 223 224 225
f 226 227 228
f 229 230 231
f 232 233 234
f 235 236 237
f 238 239 240
f 241 242 243
f 244 245 246
f 247 248 249
f 250 251 252
f 253 254 255
f 256 257 258
f 259 260 261
f 262 263 264
f 265 266 267
f 268 269 270
f 271 272 273
f 274 275 276
f 277 278 279
f 280 281 282
f 283 284 285
f 286 287 288
f 289 290 291
f 292 293 294
f 295 296 297
f 298 299 300
f 301 302 303
f 304 305 306
f 307 308 309
f 310 311 312
f 313 314 315
f 316 317 318
f 319 320 321
f 322 323 324
f 325 326 327
f 328 329 330
f 331 332 333
f 334 335 336
f 337 338 339
f 340 341 342
f 343 344 345
f 346 347 348
f 349 350 351
f 352 353 354
f 355 356 357
f 358 359 360
f 361 362 363
f 364 365 366
f 367 368 369
f 370 371 372
f 373 374 375
f 376 377 378
f 379 380 381
f 382 383 384
f 385 386 387
f 388 389 390
f 391 392 393
f 394 395 396
f 397 398 399
f 400 401 402
f 403 404 405
f 406 407 408
f 409 410 411
f 412 413 414
f 415 416 417
f 418 419 420
f 421 422 423
f 424 425 426
f 427 428 429
f 430 431 432
f 433 434 435
f 436 437 438
f 439 440 441
f 442 443 444
f 445 446 447
f 448 449 450
f 451 452 453
f 454 455 456
f 457 458 459
f 460 461 462
f 463 464 465
f 466 467 468
f 469 470 471
f 472 473 474
f 475 476 477
f 478 479 480
f 481 482 483
f 484 485 486
f 487 488 489
f 490 491 492
f 493 494 495
f 496 497 498
f 499 500 501
f 502 503 504
f 505 506 507
f 508 509 510
f 511 512 513
f 514 515 516
f 517 518 519
f 520 521 522
f 523 524 525
f 526 527 528
f 529 530 531
f 532 533 534
f 535 536 537
f 538 539 540
f 541 542 543
f 544 545 546
f 547 548 549
f 550 551 552
f 553 554 555
f 556 557 558
f 559 560 561
f 562 563 564
f 565 566 567
f 568 569 570
f 571 572 573
f 574 575 576
f 577 578 579
f 580 581 582
f 583 584 585
f 586 587 588
f 589 590 591
f 592 593 594
f 595 596 597
f 598 599 600
f 601 602 603
f 604 605 606
f 607 608 609
f 610 611 612
f 613 614 615
f 616 617 618
f 619 620 621
f 622 623 624
f 625 626 627
f 628 629 630
f 631 632 633
f 634 635 636
f 637 638 639
f 640 641 642
f 643 644 645
f 646 647 648
f 649 650 651
f 652 653 654
f 655 656 657
f 658 659 660
f 661 662 663
f 664 665 666
f 667 668 669
f 670 671 672
f 673 674 675
f 676 677 678
f 679 680 681
f 682 683 684
f 685 686 687
f 688 689 690
f 691 692 693
f 694 695 696
f 697 698 699
f 700 701 702
f 703 704 705
f 706 707 708
f 709 710 711
f 712 713 714
f 715 716 717
f 718 719 720
f 721 722 723
f 724 725 726
f 727 728 729
f 730 731 732
f 733 734 735
f 736 737 738
f 739 740 741
f 742 743 744
f 745 746 747
f 748 749 750
f 751 752 753
f 754 755 756
f 757 758 759
f 760 761 762
f 763 764 765
f 766 767 768
f 769 770 771
f 772 773 774
f 775 776 777
f 778 779 780
f 781 782 783
f 784 785 786
f 787 788 789
f 790 791 792
f 793 794 795
f 796 797 798
f 799 800 801
f 802 803 804
f 805 806 807
f 808 809 810
f 811 812 813
f 814 815 816
f 817 818 819
f 820 821 822
f 823 824 825
f 826 827 828
f 829 830 831
f 832 833 834
f 835 836 837
f 838 839 840
f 841 842 843
f 844 845 846
f 847 848 849
f 850 851 852
f 853 854 855
f 856 857 858
f 859 860 861
f 862 863 864
f 865 866 867
f 868 869 870
f 871 872 873
f 874 875 876
f 877 878 879
f 880 881 882
f 883 884 885
f 886 887 888
f 889 890 891
f 892 893 894
f 895 896 897
f 898 899 900
f 901 902 903
f 904 905 906
f 907 908 909
f 910 911 912
f 913 914 915
f 916 917 918
f 919 920 921
f 922 923 924
f 925 926 927
f 928 929 930
f 931 932 933
f 934 935 936
f 937 938 939
f 940 941 942
f 943 944 945
f 946 947 948
f 949 950 951
f 952 953 954
f 955 956 957
f 958 959 960
f 961 962 963
f 964 965 966
f 967 968 969
f 970 971 972
f 973 974 975
f 976 977 978
f 979 980 981
f 982 983 984
f 985 986 987
f 988 989 990
f 991 992 993
f 994 995 996
f 997 998 999
f 1000 1001 1002
f 1003 1004 1005
f 1006 1007 1008
f 1009 1010 1011
f 1012 1013 1014
f 1015 1016 1017
f 1018 1019 1020
f 1021 1022 1023
f 1024 1025 1026
f 1027 1028 1029
f 1030 1031 1032
f 1033 1034 1035
f 1036 1037 1038
f 1039 1040 1041
f 1042 1043 1044
f 1045 1046 1047
f 1048 1049 1050
f 1051 1052 1053
f 1054 1055 1056
f 1057 1058 1059
f 1060 1061 1062
f 1063 1064 1065
f 1066 1067 1068
f 1069 1070 1071
f 1072 1073 1074
f 1075 1076 1077
f 1078 1079 1080
