# MATERIA - 523 Tabouret Méribel
# Geometria originale di studio. Unita mm. Non CAD del produttore.
v -219.4274 -96.7964 -179.2657
v -204.8414 228.3586 -166.3957
v -218.7826 -96.6413 -183.9162
v -204.8414 228.3586 -166.3957
v -204.1966 228.5137 -171.0462
v -218.7826 -96.6413 -183.9162
v -218.7826 -96.6413 -183.9162
v -204.1966 228.5137 -171.0462
v -215.9000 -96.6238 -187.6253
v -204.1966 228.5137 -171.0462
v -201.3140 228.5312 -174.7553
v -215.9000 -96.6238 -187.6253
v -215.9000 -96.6238 -187.6253
v -201.3140 228.5312 -174.7553
v -211.5520 -96.7486 -189.3991
v -201.3140 228.5312 -174.7553
v -196.9660 228.4064 -176.5291
v -211.5520 -96.7486 -189.3991
v -211.5520 -96.7486 -189.3991
v -196.9660 228.4064 -176.5291
v -206.9036 -96.9824 -188.7623
v -196.9660 228.4064 -176.5291
v -192.3176 228.1726 -175.8923
v -206.9036 -96.9824 -188.7623
v -206.9036 -96.9824 -188.7623
v -192.3176 228.1726 -175.8923
v -203.2005 -97.2623 -185.8856
v -192.3176 228.1726 -175.8923
v -188.6145 227.8927 -173.0156
v -203.2005 -97.2623 -185.8856
v -203.2005 -97.2623 -185.8856
v -188.6145 227.8927 -173.0156
v -201.4348 -97.5136 -181.5398
v -188.6145 227.8927 -173.0156
v -186.8488 227.6414 -168.6698
v -201.4348 -97.5136 -181.5398
v -201.4348 -97.5136 -181.5398
v -186.8488 227.6414 -168.6698
v -202.0796 -97.6687 -176.8893
v -186.8488 227.6414 -168.6698
v -187.4936 227.4863 -164.0193
v -202.0796 -97.6687 -176.8893
v -202.0796 -97.6687 -176.8893
v -187.4936 227.4863 -164.0193
v -204.9622 -97.6862 -173.1802
v -187.4936 227.4863 -164.0193
v -190.3762 227.4688 -160.3102
v -204.9622 -97.6862 -173.1802
v -204.9622 -97.6862 -173.1802
v -190.3762 227.4688 -160.3102
v -209.3102 -97.5614 -171.4064
v -190.3762 227.4688 -160.3102
v -194.7242 227.5936 -158.5364
v -209.3102 -97.5614 -171.4064
v -209.3102 -97.5614 -171.4064
v -194.7242 227.5936 -158.5364
v -213.9586 -97.3276 -172.0432
v -194.7242 227.5936 -158.5364
v -199.3726 227.8274 -159.1732
v -213.9586 -97.3276 -172.0432
v -213.9586 -97.3276 -172.0432
v -199.3726 227.8274 -159.1732
v -217.6617 -97.0477 -174.9199
v -199.3726 227.8274 -159.1732
v -203.0757 228.1073 -162.0499
v -217.6617 -97.0477 -174.9199
v -217.6617 -97.0477 -174.9199
v -203.0757 228.1073 -162.0499
v -219.4274 -96.7964 -179.2657
v -203.0757 228.1073 -162.0499
v -204.8414 228.3586 -166.3957
v -219.4274 -96.7964 -179.2657
v -219.4274 -96.7964 -179.2657
v -218.7826 -96.6413 -183.9162
v -210.4311 -97.1550 -180.4027
v -218.7826 -96.6413 -183.9162
v -215.9000 -96.6238 -187.6253
v -210.4311 -97.1550 -180.4027
v -215.9000 -96.6238 -187.6253
v -211.5520 -96.7486 -189.3991
v -210.4311 -97.1550 -180.4027
v -211.5520 -96.7486 -189.3991
v -206.9036 -96.9824 -188.7623
v -210.4311 -97.1550 -180.4027
v -206.9036 -96.9824 -188.7623
v -203.2005 -97.2623 -185.8856
v -210.4311 -97.1550 -180.4027
v -203.2005 -97.2623 -185.8856
v -201.4348 -97.5136 -181.5398
v -210.4311 -97.1550 -180.4027
v -201.4348 -97.5136 -181.5398
v -202.0796 -97.6687 -176.8893
v -210.4311 -97.1550 -180.4027
v -202.0796 -97.6687 -176.8893
v -204.9622 -97.6862 -173.1802
v -210.4311 -97.1550 -180.4027
v -204.9622 -97.6862 -173.1802
v -209.3102 -97.5614 -171.4064
v -210.4311 -97.1550 -180.4027
v -209.3102 -97.5614 -171.4064
v -213.9586 -97.3276 -172.0432
v -210.4311 -97.1550 -180.4027
v -213.9586 -97.3276 -172.0432
v -217.6617 -97.0477 -174.9199
v -210.4311 -97.1550 -180.4027
v -217.6617 -97.0477 -174.9199
v -219.4274 -96.7964 -179.2657
v -210.4311 -97.1550 -180.4027
v -204.1966 228.5137 -171.0462
v -204.8414 228.3586 -166.3957
v -195.8451 228.0000 -167.5328
v -201.3140 228.5312 -174.7553
v -204.1966 228.5137 -171.0462
v -195.8451 228.0000 -167.5328
v -196.9660 228.4064 -176.5291
v -201.3140 228.5312 -174.7553
v -195.8451 228.0000 -167.5328
v -192.3176 228.1726 -175.8923
v -196.9660 228.4064 -176.5291
v -195.8451 228.0000 -167.5328
v -188.6145 227.8927 -173.0156
v -192.3176 228.1726 -175.8923
v -195.8451 228.0000 -167.5328
v -186.8488 227.6414 -168.6698
v -188.6145 227.8927 -173.0156
v -195.8451 228.0000 -167.5328
v -187.4936 227.4863 -164.0193
v -186.8488 227.6414 -168.6698
v -195.8451 228.0000 -167.5328
v -190.3762 227.4688 -160.3102
v -187.4936 227.4863 -164.0193
v -195.8451 228.0000 -167.5328
v -194.7242 227.5936 -158.5364
v -190.3762 227.4688 -160.3102
v -195.8451 228.0000 -167.5328
v -199.3726 227.8274 -159.1732
v -194.7242 227.5936 -158.5364
v -195.8451 228.0000 -167.5328
v -203.0757 228.1073 -162.0499
v -199.3726 227.8274 -159.1732
v -195.8451 228.0000 -167.5328
v -204.8414 228.3586 -166.3957
v -203.0757 228.1073 -162.0499
v -195.8451 228.0000 -167.5328
v 219.4274 -28.3964 -179.2657
v 204.8414 296.7586 -166.3957
v 217.6617 -28.6477 -174.9199
v 204.8414 296.7586 -166.3957
v 203.0757 296.5073 -162.0499
v 217.6617 -28.6477 -174.9199
v 217.6617 -28.6477 -174.9199
v 203.0757 296.5073 -162.0499
v 213.9586 -28.9276 -172.0432
v 203.0757 296.5073 -162.0499
v 199.3726 296.2274 -159.1732
v 213.9586 -28.9276 -172.0432
v 213.9586 -28.9276 -172.0432
v 199.3726 296.2274 -159.1732
v 209.3102 -29.1614 -171.4064
v 199.3726 296.2274 -159.1732
v 194.7242 295.9936 -158.5364
v 209.3102 -29.1614 -171.4064
v 209.3102 -29.1614 -171.4064
v 194.7242 295.9936 -158.5364
v 204.9622 -29.2862 -173.1802
v 194.7242 295.9936 -158.5364
v 190.3762 295.8688 -160.3102
v 204.9622 -29.2862 -173.1802
v 204.9622 -29.2862 -173.1802
v 190.3762 295.8688 -160.3102
v 202.0796 -29.2687 -176.8893
v 190.3762 295.8688 -160.3102
v 187.4936 295.8863 -164.0193
v 202.0796 -29.2687 -176.8893
v 202.0796 -29.2687 -176.8893
v 187.4936 295.8863 -164.0193
v 201.4348 -29.1136 -181.5398
v 187.4936 295.8863 -164.0193
v 186.8488 296.0414 -168.6698
v 201.4348 -29.1136 -181.5398
v 201.4348 -29.1136 -181.5398
v 186.8488 296.0414 -168.6698
v 203.2005 -28.8623 -185.8856
v 186.8488 296.0414 -168.6698
v 188.6145 296.2927 -173.0156
v 203.2005 -28.8623 -185.8856
v 203.2005 -28.8623 -185.8856
v 188.6145 296.2927 -173.0156
v 206.9036 -28.5824 -188.7623
v 188.6145 296.2927 -173.0156
v 192.3176 296.5726 -175.8923
v 206.9036 -28.5824 -188.7623
v 206.9036 -28.5824 -188.7623
v 192.3176 296.5726 -175.8923
v 211.5520 -28.3486 -189.3991
v 192.3176 296.5726 -175.8923
v 196.9660 296.8064 -176.5291
v 211.5520 -28.3486 -189.3991
v 211.5520 -28.3486 -189.3991
v 196.9660 296.8064 -176.5291
v 215.9000 -28.2238 -187.6253
v 196.9660 296.8064 -176.5291
v 201.3140 296.9312 -174.7553
v 215.9000 -28.2238 -187.6253
v 215.9000 -28.2238 -187.6253
v 201.3140 296.9312 -174.7553
v 218.7826 -28.2413 -183.9162
v 201.3140 296.9312 -174.7553
v 204.1966 296.9137 -171.0462
v 218.7826 -28.2413 -183.9162
v 218.7826 -28.2413 -183.9162
v 204.1966 296.9137 -171.0462
v 219.4274 -28.3964 -179.2657
v 204.1966 296.9137 -171.0462
v 204.8414 296.7586 -166.3957
v 219.4274 -28.3964 -179.2657
v 219.4274 -28.3964 -179.2657
v 217.6617 -28.6477 -174.9199
v 210.4311 -28.7550 -180.4027
v 217.6617 -28.6477 -174.9199
v 213.9586 -28.9276 -172.0432
v 210.4311 -28.7550 -180.4027
v 213.9586 -28.9276 -172.0432
v 209.3102 -29.1614 -171.4064
v 210.4311 -28.7550 -180.4027
v 209.3102 -29.1614 -171.4064
v 204.9622 -29.2862 -173.1802
v 210.4311 -28.7550 -180.4027
v 204.9622 -29.2862 -173.1802
v 202.0796 -29.2687 -176.8893
v 210.4311 -28.7550 -180.4027
v 202.0796 -29.2687 -176.8893
v 201.4348 -29.1136 -181.5398
v 210.4311 -28.7550 -180.4027
v 201.4348 -29.1136 -181.5398
v 203.2005 -28.8623 -185.8856
v 210.4311 -28.7550 -180.4027
v 203.2005 -28.8623 -185.8856
v 206.9036 -28.5824 -188.7623
v 210.4311 -28.7550 -180.4027
v 206.9036 -28.5824 -188.7623
v 211.5520 -28.3486 -189.3991
v 210.4311 -28.7550 -180.4027
v 211.5520 -28.3486 -189.3991
v 215.9000 -28.2238 -187.6253
v 210.4311 -28.7550 -180.4027
v 215.9000 -28.2238 -187.6253
v 218.7826 -28.2413 -183.9162
v 210.4311 -28.7550 -180.4027
v 218.7826 -28.2413 -183.9162
v 219.4274 -28.3964 -179.2657
v 210.4311 -28.7550 -180.4027
v 203.0757 296.5073 -162.0499
v 204.8414 296.7586 -166.3957
v 195.8451 296.4000 -167.5328
v 199.3726 296.2274 -159.1732
v 203.0757 296.5073 -162.0499
v 195.8451 296.4000 -167.5328
v 194.7242 295.9936 -158.5364
v 199.3726 296.2274 -159.1732
v 195.8451 296.4000 -167.5328
v 190.3762 295.8688 -160.3102
v 194.7242 295.9936 -158.5364
v 195.8451 296.4000 -167.5328
v 187.4936 295.8863 -164.0193
v 190.3762 295.8688 -160.3102
v 195.8451 296.4000 -167.5328
v 186.8488 296.0414 -168.6698
v 187.4936 295.8863 -164.0193
v 195.8451 296.4000 -167.5328
v 188.6145 296.2927 -173.0156
v 186.8488 296.0414 -168.6698
v 195.8451 296.4000 -167.5328
v 192.3176 296.5726 -175.8923
v 188.6145 296.2927 -173.0156
v 195.8451 296.4000 -167.5328
v 196.9660 296.8064 -176.5291
v 192.3176 296.5726 -175.8923
v 195.8451 296.4000 -167.5328
v 201.3140 296.9312 -174.7553
v 196.9660 296.8064 -176.5291
v 195.8451 296.4000 -167.5328
v 204.1966 296.9137 -171.0462
v 201.3140 296.9312 -174.7553
v 195.8451 296.4000 -167.5328
v 204.8414 296.7586 -166.3957
v 204.1966 296.9137 -171.0462
v 195.8451 296.4000 -167.5328
v 0.0000 39.2503 189.3766
v 0.0000 364.4053 175.2196
v 4.5375 39.3031 190.5913
v 0.0000 364.4053 175.2196
v 4.5375 364.4581 176.4343
v 4.5375 39.3031 190.5913
v 4.5375 39.3031 190.5913
v 4.5375 364.4581 176.4343
v 7.8592 39.4476 193.9098
v 4.5375 364.4581 176.4343
v 7.8592 364.6026 179.7528
v 7.8592 39.4476 193.9098
v 7.8592 39.4476 193.9098
v 7.8592 364.6026 179.7528
v 9.0750 39.6450 198.4430
v 7.8592 364.6026 179.7528
v 9.0750 364.8000 184.2860
v 9.0750 39.6450 198.4430
v 9.0750 39.6450 198.4430
v 9.0750 364.8000 184.2860
v 7.8592 39.8424 202.9762
v 9.0750 364.8000 184.2860
v 7.8592 364.9974 188.8192
v 7.8592 39.8424 202.9762
v 7.8592 39.8424 202.9762
v 7.8592 364.9974 188.8192
v 4.5375 39.9869 206.2948
v 7.8592 364.9974 188.8192
v 4.5375 365.1419 192.1378
v 4.5375 39.9869 206.2948
v 4.5375 39.9869 206.2948
v 4.5375 365.1419 192.1378
v 0.0000 40.0397 207.5094
v 4.5375 365.1419 192.1378
v 0.0000 365.1947 193.3524
v 0.0000 40.0397 207.5094
v 0.0000 40.0397 207.5094
v 0.0000 365.1947 193.3524
v -4.5375 39.9869 206.2948
v 0.0000 365.1947 193.3524
v -4.5375 365.1419 192.1378
v -4.5375 39.9869 206.2948
v -4.5375 39.9869 206.2948
v -4.5375 365.1419 192.1378
v -7.8592 39.8424 202.9762
v -4.5375 365.1419 192.1378
v -7.8592 364.9974 188.8192
v -7.8592 39.8424 202.9762
v -7.8592 39.8424 202.9762
v -7.8592 364.9974 188.8192
v -9.0750 39.6450 198.4430
v -7.8592 364.9974 188.8192
v -9.0750 364.8000 184.2860
v -9.0750 39.6450 198.4430
v -9.0750 39.6450 198.4430
v -9.0750 364.8000 184.2860
v -7.8592 39.4476 193.9098
v -9.0750 364.8000 184.2860
v -7.8592 364.6026 179.7528
v -7.8592 39.4476 193.9098
v -7.8592 39.4476 193.9098
v -7.8592 364.6026 179.7528
v -4.5375 39.3031 190.5913
v -7.8592 364.6026 179.7528
v -4.5375 364.4581 176.4343
v -4.5375 39.3031 190.5913
v -4.5375 39.3031 190.5913
v -4.5375 364.4581 176.4343
v -0.0000 39.2503 189.3766
v -4.5375 364.4581 176.4343
v -0.0000 364.4053 175.2196
v -0.0000 39.2503 189.3766
v 0.0000 39.2503 189.3766
v 4.5375 39.3031 190.5913
v 0.0000 39.6450 198.4430
v 4.5375 39.3031 190.5913
v 7.8592 39.4476 193.9098
v 0.0000 39.6450 198.4430
v 7.8592 39.4476 193.9098
v 9.0750 39.6450 198.4430
v 0.0000 39.6450 198.4430
v 9.0750 39.6450 198.4430
v 7.8592 39.8424 202.9762
v 0.0000 39.6450 198.4430
v 7.8592 39.8424 202.9762
v 4.5375 39.9869 206.2948
v 0.0000 39.6450 198.4430
v 4.5375 39.9869 206.2948
v 0.0000 40.0397 207.5094
v 0.0000 39.6450 198.4430
v 0.0000 40.0397 207.5094
v -4.5375 39.9869 206.2948
v 0.0000 39.6450 198.4430
v -4.5375 39.9869 206.2948
v -7.8592 39.8424 202.9762
v 0.0000 39.6450 198.4430
v -7.8592 39.8424 202.9762
v -9.0750 39.6450 198.4430
v 0.0000 39.6450 198.4430
v -9.0750 39.6450 198.4430
v -7.8592 39.4476 193.9098
v 0.0000 39.6450 198.4430
v -7.8592 39.4476 193.9098
v -4.5375 39.3031 190.5913
v 0.0000 39.6450 198.4430
v -4.5375 39.3031 190.5913
v -0.0000 39.2503 189.3766
v 0.0000 39.6450 198.4430
v 4.5375 364.4581 176.4343
v 0.0000 364.4053 175.2196
v 0.0000 364.8000 184.2860
v 7.8592 364.6026 179.7528
v 4.5375 364.4581 176.4343
v 0.0000 364.8000 184.2860
v 9.0750 364.8000 184.2860
v 7.8592 364.6026 179.7528
v 0.0000 364.8000 184.2860
v 7.8592 364.9974 188.8192
v 9.0750 364.8000 184.2860
v 0.0000 364.8000 184.2860
v 4.5375 365.1419 192.1378
v 7.8592 364.9974 188.8192
v 0.0000 364.8000 184.2860
v 0.0000 365.1947 193.3524
v 4.5375 365.1419 192.1378
v 0.0000 364.8000 184.2860
v -4.5375 365.1419 192.1378
v 0.0000 365.1947 193.3524
v 0.0000 364.8000 184.2860
v -7.8592 364.9974 188.8192
v -4.5375 365.1419 192.1378
v 0.0000 364.8000 184.2860
v -9.0750 364.8000 184.2860
v -7.8592 364.9974 188.8192
v 0.0000 364.8000 184.2860
v -7.8592 364.6026 179.7528
v -9.0750 364.8000 184.2860
v 0.0000 364.8000 184.2860
v -4.5375 364.4581 176.4343
v -7.8592 364.6026 179.7528
v 0.0000 364.8000 184.2860
v -0.0000 364.4053 175.2196
v -4.5375 364.4581 176.4343
v 0.0000 364.8000 184.2860
v 0.0000 482.6000 165.0000
v 0.0000 446.3000 165.0000
v 82.5000 482.6000 142.8942
v 0.0000 446.3000 165.0000
v 82.5000 446.3000 142.8942
v 82.5000 482.6000 142.8942
v 82.5000 482.6000 142.8942
v 82.5000 446.3000 142.8942
v 142.8942 482.6000 82.5000
v 82.5000 446.3000 142.8942
v 142.8942 446.3000 82.5000
v 142.8942 482.6000 82.5000
v 142.8942 482.6000 82.5000
v 142.8942 446.3000 82.5000
v 165.0000 482.6000 0.0000
v 142.8942 446.3000 82.5000
v 165.0000 446.3000 0.0000
v 165.0000 482.6000 0.0000
v 165.0000 482.6000 0.0000
v 165.0000 446.3000 0.0000
v 142.8942 482.6000 -82.5000
v 165.0000 446.3000 0.0000
v 142.8942 446.3000 -82.5000
v 142.8942 482.6000 -82.5000
v 142.8942 482.6000 -82.5000
v 142.8942 446.3000 -82.5000
v 82.5000 482.6000 -142.8942
v 142.8942 446.3000 -82.5000
v 82.5000 446.3000 -142.8942
v 82.5000 482.6000 -142.8942
v 82.5000 482.6000 -142.8942
v 82.5000 446.3000 -142.8942
v 0.0000 482.6000 -165.0000
v 82.5000 446.3000 -142.8942
v 0.0000 446.3000 -165.0000
v 0.0000 482.6000 -165.0000
v 0.0000 482.6000 -165.0000
v 0.0000 446.3000 -165.0000
v -82.5000 482.6000 -142.8942
v 0.0000 446.3000 -165.0000
v -82.5000 446.3000 -142.8942
v -82.5000 482.6000 -142.8942
v -82.5000 482.6000 -142.8942
v -82.5000 446.3000 -142.8942
v -142.8942 482.6000 -82.5000
v -82.5000 446.3000 -142.8942
v -142.8942 446.3000 -82.5000
v -142.8942 482.6000 -82.5000
v -142.8942 482.6000 -82.5000
v -142.8942 446.3000 -82.5000
v -165.0000 482.6000 -0.0000
v -142.8942 446.3000 -82.5000
v -165.0000 446.3000 -0.0000
v -165.0000 482.6000 -0.0000
v -165.0000 482.6000 -0.0000
v -165.0000 446.3000 -0.0000
v -142.8942 482.6000 82.5000
v -165.0000 446.3000 -0.0000
v -142.8942 446.3000 82.5000
v -142.8942 482.6000 82.5000
v -142.8942 482.6000 82.5000
v -142.8942 446.3000 82.5000
v -82.5000 482.6000 142.8942
v -142.8942 446.3000 82.5000
v -82.5000 446.3000 142.8942
v -82.5000 482.6000 142.8942
v -82.5000 482.6000 142.8942
v -82.5000 446.3000 142.8942
v -0.0000 482.6000 165.0000
v -82.5000 446.3000 142.8942
v -0.0000 446.3000 165.0000
v -0.0000 482.6000 165.0000
v 0.0000 482.6000 165.0000
v 82.5000 482.6000 142.8942
v 0.0000 482.6000 0.0000
v 82.5000 482.6000 142.8942
v 142.8942 482.6000 82.5000
v 0.0000 482.6000 0.0000
v 142.8942 482.6000 82.5000
v 165.0000 482.6000 0.0000
v 0.0000 482.6000 0.0000
v 165.0000 482.6000 0.0000
v 142.8942 482.6000 -82.5000
v 0.0000 482.6000 0.0000
v 142.8942 482.6000 -82.5000
v 82.5000 482.6000 -142.8942
v 0.0000 482.6000 0.0000
v 82.5000 482.6000 -142.8942
v 0.0000 482.6000 -165.0000
v 0.0000 482.6000 0.0000
v 0.0000 482.6000 -165.0000
v -82.5000 482.6000 -142.8942
v 0.0000 482.6000 0.0000
v -82.5000 482.6000 -142.8942
v -142.8942 482.6000 -82.5000
v 0.0000 482.6000 0.0000
v -142.8942 482.6000 -82.5000
v -165.0000 482.6000 -0.0000
v 0.0000 482.6000 0.0000
v -165.0000 482.6000 -0.0000
v -142.8942 482.6000 82.5000
v 0.0000 482.6000 0.0000
v -142.8942 482.6000 82.5000
v -82.5000 482.6000 142.8942
v 0.0000 482.6000 0.0000
v -82.5000 482.6000 142.8942
v -0.0000 482.6000 165.0000
v 0.0000 482.6000 0.0000
v 82.5000 446.3000 142.8942
v 0.0000 446.3000 165.0000
v 0.0000 446.3000 0.0000
v 142.8942 446.3000 82.5000
v 82.5000 446.3000 142.8942
v 0.0000 446.3000 0.0000
v 165.0000 446.3000 0.0000
v 142.8942 446.3000 82.5000
v 0.0000 446.3000 0.0000
v 142.8942 446.3000 -82.5000
v 165.0000 446.3000 0.0000
v 0.0000 446.3000 0.0000
v 82.5000 446.3000 -142.8942
v 142.8942 446.3000 -82.5000
v 0.0000 446.3000 0.0000
v 0.0000 446.3000 -165.0000
v 82.5000 446.3000 -142.8942
v 0.0000 446.3000 0.0000
v -82.5000 446.3000 -142.8942
v 0.0000 446.3000 -165.0000
v 0.0000 446.3000 0.0000
v -142.8942 446.3000 -82.5000
v -82.5000 446.3000 -142.8942
v 0.0000 446.3000 0.0000
v -165.0000 446.3000 -0.0000
v -142.8942 446.3000 -82.5000
v 0.0000 446.3000 0.0000
v -142.8942 446.3000 82.5000
v -165.0000 446.3000 -0.0000
v 0.0000 446.3000 0.0000
v -82.5000 446.3000 142.8942
v -142.8942 446.3000 82.5000
v 0.0000 446.3000 0.0000
v -0.0000 446.3000 165.0000
v -82.5000 446.3000 142.8942
v 0.0000 446.3000 0.0000
f 1 2 3
f 4 5 6
f 7 8 9
f 10 11 12
f 13 14 15
f 16 17 18
f 19 20 21
f 22 23 24
f 25 26 27
f 28 29 30
f 31 32 33
f 34 35 36
f 37 38 39
f 40 41 42
f 43 44 45
f 46 47 48
f 49 50 51
f 52 53 54
f 55 56 57
f 58 59 60
f 61 62 63
f 64 65 66
f 67 68 69
f 70 71 72
f 73 74 75
f 76 77 78
f 79 80 81
f 82 83 84
f 85 86 87
f 88 89 90
f 91 92 93
f 94 95 96
f 97 98 99
f 100 101 102
f 103 104 105
f 106 107 108
f 109 110 111
f 112 113 114
f 115 116 117
f 118 119 120
f 121 122 123
f 124 125 126
f 127 128 129
f 130 131 132
f 133 134 135
f 136 137 138
f 139 140 141
f 142 143 144
f 145 146 147
f 148 149 150
f 151 152 153
f 154 155 156
f 157 158 159
f 160 161 162
f 163 164 165
f 166 167 168
f 169 170 171
f 172 173 174
f 175 176 177
f 178 179 180
f 181 182 183
f 184 185 186
f 187 188 189
f 190 191 192
f 193 194 195
f 196 197 198
f 199 200 201
f 202 203 204
f 205 206 207
f 208 209 210
f 211 212 213
f 214 215 216
f 217 218 219
f 220 221 222
f 223 224 225
f 226 227 228
f 229 230 231
f 232 233 234
f 235 236 237
f 238 239 240
f 241 242 243
f 244 245 246
f 247 248 249
f 250 251 252
f 253 254 255
f 256 257 258
f 259 260 261
f 262 263 264
f 265 266 267
f 268 269 270
f 271 272 273
f 274 275 276
f 277 278 279
f 280 281 282
f 283 284 285
f 286 287 288
f 289 290 291
f 292 293 294
f 295 296 297
f 298 299 300
f 301 302 303
f 304 305 306
f 307 308 309
f 310 311 312
f 313 314 315
f 316 317 318
f 319 320 321
f 322 323 324
f 325 326 327
f 328 329 330
f 331 332 333
f 334 335 336
f 337 338 339
f 340 341 342
f 343 344 345
f 346 347 348
f 349 350 351
f 352 353 354
f 355 356 357
f 358 359 360
f 361 362 363
f 364 365 366
f 367 368 369
f 370 371 372
f 373 374 375
f 376 377 378
f 379 380 381
f 382 383 384
f 385 386 387
f 388 389 390
f 391 392 393
f 394 395 396
f 397 398 399
f 400 401 402
f 403 404 405
f 406 407 408
f 409 410 411
f 412 413 414
f 415 416 417
f 418 419 420
f 421 422 423
f 424 425 426
f 427 428 429
f 430 431 432
f 433 434 435
f 436 437 438
f 439 440 441
f 442 443 444
f 445 446 447
f 448 449 450
f 451 452 453
f 454 455 456
f 457 458 459
f 460 461 462
f 463 464 465
f 466 467 468
f 469 470 471
f 472 473 474
f 475 476 477
f 478 479 480
f 481 482 483
f 484 485 486
f 487 488 489
f 490 491 492
f 493 494 495
f 496 497 498
f 499 500 501
f 502 503 504
f 505 506 507
f 508 509 510
f 511 512 513
f 514 515 516
f 517 518 519
f 520 521 522
f 523 524 525
f 526 527 528
f 529 530 531
f 532 533 534
f 535 536 537
f 538 539 540
f 541 542 543
f 544 545 546
f 547 548 549
f 550 551 552
f 553 554 555
f 556 557 558
f 559 560 561
f 562 563 564
f 565 566 567
f 568 569 570
f 571 572 573
f 574 575 576
