# MATERIA - 523 Tabouret Méribel
# Geometria originale di studio. Unita mm. Non CAD del produttore.
v -135.7823 5.8036 -110.7329
v -121.1963 330.9586 -97.8629
v -135.1375 5.9587 -115.3835
v -121.1963 330.9586 -97.8629
v -120.5515 331.1137 -102.5135
v -135.1375 5.9587 -115.3835
v -135.1375 5.9587 -115.3835
v -120.5515 331.1137 -102.5135
v -132.2549 5.9762 -119.0925
v -120.5515 331.1137 -102.5135
v -117.6689 331.1312 -106.2225
v -132.2549 5.9762 -119.0925
v -132.2549 5.9762 -119.0925
v -117.6689 331.1312 -106.2225
v -127.9069 5.8514 -120.8663
v -117.6689 331.1312 -106.2225
v -113.3209 331.0064 -107.9963
v -127.9069 5.8514 -120.8663
v -127.9069 5.8514 -120.8663
v -113.3209 331.0064 -107.9963
v -123.2585 5.6176 -120.2296
v -113.3209 331.0064 -107.9963
v -108.6725 330.7726 -107.3596
v -123.2585 5.6176 -120.2296
v -123.2585 5.6176 -120.2296
v -108.6725 330.7726 -107.3596
v -119.5554 5.3377 -117.3529
v -108.6725 330.7726 -107.3596
v -104.9694 330.4927 -104.4829
v -119.5554 5.3377 -117.3529
v -119.5554 5.3377 -117.3529
v -104.9694 330.4927 -104.4829
v -117.7897 5.0864 -113.0071
v -104.9694 330.4927 -104.4829
v -103.2037 330.2414 -100.1371
v -117.7897 5.0864 -113.0071
v -117.7897 5.0864 -113.0071
v -103.2037 330.2414 -100.1371
v -118.4345 4.9313 -108.3565
v -103.2037 330.2414 -100.1371
v -103.8485 330.0863 -95.4865
v -118.4345 4.9313 -108.3565
v -118.4345 4.9313 -108.3565
v -103.8485 330.0863 -95.4865
v -121.3171 4.9138 -104.6475
v -103.8485 330.0863 -95.4865
v -106.7311 330.0688 -91.7775
v -121.3171 4.9138 -104.6475
v -121.3171 4.9138 -104.6475
v -106.7311 330.0688 -91.7775
v -125.6651 5.0386 -102.8737
v -106.7311 330.0688 -91.7775
v -111.0791 330.1936 -90.0037
v -125.6651 5.0386 -102.8737
v -125.6651 5.0386 -102.8737
v -111.0791 330.1936 -90.0037
v -130.3135 5.2724 -103.5104
v -111.0791 330.1936 -90.0037
v -115.7275 330.4274 -90.6404
v -130.3135 5.2724 -103.5104
v -130.3135 5.2724 -103.5104
v -115.7275 330.4274 -90.6404
v -134.0166 5.5523 -106.3871
v -115.7275 330.4274 -90.6404
v -119.4306 330.7073 -93.5171
v -134.0166 5.5523 -106.3871
v -134.0166 5.5523 -106.3871
v -119.4306 330.7073 -93.5171
v -135.7823 5.8036 -110.7329
v -119.4306 330.7073 -93.5171
v -121.1963 330.9586 -97.8629
v -135.7823 5.8036 -110.7329
v -135.7823 5.8036 -110.7329
v -135.1375 5.9587 -115.3835
v -126.7860 5.4450 -111.8700
v -135.1375 5.9587 -115.3835
v -132.2549 5.9762 -119.0925
v -126.7860 5.4450 -111.8700
v -132.2549 5.9762 -119.0925
v -127.9069 5.8514 -120.8663
v -126.7860 5.4450 -111.8700
v -127.9069 5.8514 -120.8663
v -123.2585 5.6176 -120.2296
v -126.7860 5.4450 -111.8700
v -123.2585 5.6176 -120.2296
v -119.5554 5.3377 -117.3529
v -126.7860 5.4450 -111.8700
v -119.5554 5.3377 -117.3529
v -117.7897 5.0864 -113.0071
v -126.7860 5.4450 -111.8700
v -117.7897 5.0864 -113.0071
v -118.4345 4.9313 -108.3565
v -126.7860 5.4450 -111.8700
v -118.4345 4.9313 -108.3565
v -121.3171 4.9138 -104.6475
v -126.7860 5.4450 -111.8700
v -121.3171 4.9138 -104.6475
v -125.6651 5.0386 -102.8737
v -126.7860 5.4450 -111.8700
v -125.6651 5.0386 -102.8737
v -130.3135 5.2724 -103.5104
v -126.7860 5.4450 -111.8700
v -130.3135 5.2724 -103.5104
v -134.0166 5.5523 -106.3871
v -126.7860 5.4450 -111.8700
v -134.0166 5.5523 -106.3871
v -135.7823 5.8036 -110.7329
v -126.7860 5.4450 -111.8700
v -120.5515 331.1137 -102.5135
v -121.1963 330.9586 -97.8629
v -112.2000 330.6000 -99.0000
v -117.6689 331.1312 -106.2225
v -120.5515 331.1137 -102.5135
v -112.2000 330.6000 -99.0000
v -113.3209 331.0064 -107.9963
v -117.6689 331.1312 -106.2225
v -112.2000 330.6000 -99.0000
v -108.6725 330.7726 -107.3596
v -113.3209 331.0064 -107.9963
v -112.2000 330.6000 -99.0000
v -104.9694 330.4927 -104.4829
v -108.6725 330.7726 -107.3596
v -112.2000 330.6000 -99.0000
v -103.2037 330.2414 -100.1371
v -104.9694 330.4927 -104.4829
v -112.2000 330.6000 -99.0000
v -103.8485 330.0863 -95.4865
v -103.2037 330.2414 -100.1371
v -112.2000 330.6000 -99.0000
v -106.7311 330.0688 -91.7775
v -103.8485 330.0863 -95.4865
v -112.2000 330.6000 -99.0000
v -111.0791 330.1936 -90.0037
v -106.7311 330.0688 -91.7775
v -112.2000 330.6000 -99.0000
v -115.7275 330.4274 -90.6404
v -111.0791 330.1936 -90.0037
v -112.2000 330.6000 -99.0000
v -119.4306 330.7073 -93.5171
v -115.7275 330.4274 -90.6404
v -112.2000 330.6000 -99.0000
v -121.1963 330.9586 -97.8629
v -119.4306 330.7073 -93.5171
v -112.2000 330.6000 -99.0000
v 135.7823 5.8036 -110.7329
v 121.1963 330.9586 -97.8629
v 134.0166 5.5523 -106.3871
v 121.1963 330.9586 -97.8629
v 119.4306 330.7073 -93.5171
v 134.0166 5.5523 -106.3871
v 134.0166 5.5523 -106.3871
v 119.4306 330.7073 -93.5171
v 130.3135 5.2724 -103.5104
v 119.4306 330.7073 -93.5171
v 115.7275 330.4274 -90.6404
v 130.3135 5.2724 -103.5104
v 130.3135 5.2724 -103.5104
v 115.7275 330.4274 -90.6404
v 125.6651 5.0386 -102.8737
v 115.7275 330.4274 -90.6404
v 111.0791 330.1936 -90.0037
v 125.6651 5.0386 -102.8737
v 125.6651 5.0386 -102.8737
v 111.0791 330.1936 -90.0037
v 121.3171 4.9138 -104.6475
v 111.0791 330.1936 -90.0037
v 106.7311 330.0688 -91.7775
v 121.3171 4.9138 -104.6475
v 121.3171 4.9138 -104.6475
v 106.7311 330.0688 -91.7775
v 118.4345 4.9313 -108.3565
v 106.7311 330.0688 -91.7775
v 103.8485 330.0863 -95.4865
v 118.4345 4.9313 -108.3565
v 118.4345 4.9313 -108.3565
v 103.8485 330.0863 -95.4865
v 117.7897 5.0864 -113.0071
v 103.8485 330.0863 -95.4865
v 103.2037 330.2414 -100.1371
v 117.7897 5.0864 -113.0071
v 117.7897 5.0864 -113.0071
v 103.2037 330.2414 -100.1371
v 119.5554 5.3377 -117.3529
v 103.2037 330.2414 -100.1371
v 104.9694 330.4927 -104.4829
v 119.5554 5.3377 -117.3529
v 119.5554 5.3377 -117.3529
v 104.9694 330.4927 -104.4829
v 123.2585 5.6176 -120.2296
v 104.9694 330.4927 -104.4829
v 108.6725 330.7726 -107.3596
v 123.2585 5.6176 -120.2296
v 123.2585 5.6176 -120.2296
v 108.6725 330.7726 -107.3596
v 127.9069 5.8514 -120.8663
v 108.6725 330.7726 -107.3596
v 113.3209 331.0064 -107.9963
v 127.9069 5.8514 -120.8663
v 127.9069 5.8514 -120.8663
v 113.3209 331.0064 -107.9963
v 132.2549 5.9762 -119.0925
v 113.3209 331.0064 -107.9963
v 117.6689 331.1312 -106.2225
v 132.2549 5.9762 -119.0925
v 132.2549 5.9762 -119.0925
v 117.6689 331.1312 -106.2225
v 135.1375 5.9587 -115.3835
v 117.6689 331.1312 -106.2225
v 120.5515 331.1137 -102.5135
v 135.1375 5.9587 -115.3835
v 135.1375 5.9587 -115.3835
v 120.5515 331.1137 -102.5135
v 135.7823 5.8036 -110.7329
v 120.5515 331.1137 -102.5135
v 121.1963 330.9586 -97.8629
v 135.7823 5.8036 -110.7329
v 135.7823 5.8036 -110.7329
v 134.0166 5.5523 -106.3871
v 126.7860 5.4450 -111.8700
v 134.0166 5.5523 -106.3871
v 130.3135 5.2724 -103.5104
v 126.7860 5.4450 -111.8700
v 130.3135 5.2724 -103.5104
v 125.6651 5.0386 -102.8737
v 126.7860 5.4450 -111.8700
v 125.6651 5.0386 -102.8737
v 121.3171 4.9138 -104.6475
v 126.7860 5.4450 -111.8700
v 121.3171 4.9138 -104.6475
v 118.4345 4.9313 -108.3565
v 126.7860 5.4450 -111.8700
v 118.4345 4.9313 -108.3565
v 117.7897 5.0864 -113.0071
v 126.7860 5.4450 -111.8700
v 117.7897 5.0864 -113.0071
v 119.5554 5.3377 -117.3529
v 126.7860 5.4450 -111.8700
v 119.5554 5.3377 -117.3529
v 123.2585 5.6176 -120.2296
v 126.7860 5.4450 -111.8700
v 123.2585 5.6176 -120.2296
v 127.9069 5.8514 -120.8663
v 126.7860 5.4450 -111.8700
v 127.9069 5.8514 -120.8663
v 132.2549 5.9762 -119.0925
v 126.7860 5.4450 -111.8700
v 132.2549 5.9762 -119.0925
v 135.1375 5.9587 -115.3835
v 126.7860 5.4450 -111.8700
v 135.1375 5.9587 -115.3835
v 135.7823 5.8036 -110.7329
v 126.7860 5.4450 -111.8700
v 119.4306 330.7073 -93.5171
v 121.1963 330.9586 -97.8629
v 112.2000 330.6000 -99.0000
v 115.7275 330.4274 -90.6404
v 119.4306 330.7073 -93.5171
v 112.2000 330.6000 -99.0000
v 111.0791 330.1936 -90.0037
v 115.7275 330.4274 -90.6404
v 112.2000 330.6000 -99.0000
v 106.7311 330.0688 -91.7775
v 111.0791 330.1936 -90.0037
v 112.2000 330.6000 -99.0000
v 103.8485 330.0863 -95.4865
v 106.7311 330.0688 -91.7775
v 112.2000 330.6000 -99.0000
v 103.2037 330.2414 -100.1371
v 103.8485 330.0863 -95.4865
v 112.2000 330.6000 -99.0000
v 104.9694 330.4927 -104.4829
v 103.2037 330.2414 -100.1371
v 112.2000 330.6000 -99.0000
v 108.6725 330.7726 -107.3596
v 104.9694 330.4927 -104.4829
v 112.2000 330.6000 -99.0000
v 113.3209 331.0064 -107.9963
v 108.6725 330.7726 -107.3596
v 112.2000 330.6000 -99.0000
v 117.6689 331.1312 -106.2225
v 113.3209 331.0064 -107.9963
v 112.2000 330.6000 -99.0000
v 120.5515 331.1137 -102.5135
v 117.6689 331.1312 -106.2225
v 112.2000 330.6000 -99.0000
v 121.1963 330.9586 -97.8629
v 120.5515 331.1137 -102.5135
v 112.2000 330.6000 -99.0000
v 0.0000 5.0503 113.9906
v 0.0000 330.2053 99.8336
v 4.5375 5.1031 115.2053
v 0.0000 330.2053 99.8336
v 4.5375 330.2581 101.0483
v 4.5375 5.1031 115.2053
v 4.5375 5.1031 115.2053
v 4.5375 330.2581 101.0483
v 7.8592 5.2476 118.5238
v 4.5375 330.2581 101.0483
v 7.8592 330.4026 104.3668
v 7.8592 5.2476 118.5238
v 7.8592 5.2476 118.5238
v 7.8592 330.4026 104.3668
v 9.0750 5.4450 123.0570
v 7.8592 330.4026 104.3668
v 9.0750 330.6000 108.9000
v 9.0750 5.4450 123.0570
v 9.0750 5.4450 123.0570
v 9.0750 330.6000 108.9000
v 7.8592 5.6424 127.5902
v 9.0750 330.6000 108.9000
v 7.8592 330.7974 113.4332
v 7.8592 5.6424 127.5902
v 7.8592 5.6424 127.5902
v 7.8592 330.7974 113.4332
v 4.5375 5.7869 130.9087
v 7.8592 330.7974 113.4332
v 4.5375 330.9419 116.7517
v 4.5375 5.7869 130.9087
v 4.5375 5.7869 130.9087
v 4.5375 330.9419 116.7517
v 0.0000 5.8397 132.1234
v 4.5375 330.9419 116.7517
v 0.0000 330.9947 117.9664
v 0.0000 5.8397 132.1234
v 0.0000 5.8397 132.1234
v 0.0000 330.9947 117.9664
v -4.5375 5.7869 130.9087
v 0.0000 330.9947 117.9664
v -4.5375 330.9419 116.7517
v -4.5375 5.7869 130.9087
v -4.5375 5.7869 130.9087
v -4.5375 330.9419 116.7517
v -7.8592 5.6424 127.5902
v -4.5375 330.9419 116.7517
v -7.8592 330.7974 113.4332
v -7.8592 5.6424 127.5902
v -7.8592 5.6424 127.5902
v -7.8592 330.7974 113.4332
v -9.0750 5.4450 123.0570
v -7.8592 330.7974 113.4332
v -9.0750 330.6000 108.9000
v -9.0750 5.4450 123.0570
v -9.0750 5.4450 123.0570
v -9.0750 330.6000 108.9000
v -7.8592 5.2476 118.5238
v -9.0750 330.6000 108.9000
v -7.8592 330.4026 104.3668
v -7.8592 5.2476 118.5238
v -7.8592 5.2476 118.5238
v -7.8592 330.4026 104.3668
v -4.5375 5.1031 115.2053
v -7.8592 330.4026 104.3668
v -4.5375 330.2581 101.0483
v -4.5375 5.1031 115.2053
v -4.5375 5.1031 115.2053
v -4.5375 330.2581 101.0483
v -0.0000 5.0503 113.9906
v -4.5375 330.2581 101.0483
v -0.0000 330.2053 99.8336
v -0.0000 5.0503 113.9906
v 0.0000 5.0503 113.9906
v 4.5375 5.1031 115.2053
v 0.0000 5.4450 123.0570
v 4.5375 5.1031 115.2053
v 7.8592 5.2476 118.5238
v 0.0000 5.4450 123.0570
v 7.8592 5.2476 118.5238
v 9.0750 5.4450 123.0570
v 0.0000 5.4450 123.0570
v 9.0750 5.4450 123.0570
v 7.8592 5.6424 127.5902
v 0.0000 5.4450 123.0570
v 7.8592 5.6424 127.5902
v 4.5375 5.7869 130.9087
v 0.0000 5.4450 123.0570
v 4.5375 5.7869 130.9087
v 0.0000 5.8397 132.1234
v 0.0000 5.4450 123.0570
v 0.0000 5.8397 132.1234
v -4.5375 5.7869 130.9087
v 0.0000 5.4450 123.0570
v -4.5375 5.7869 130.9087
v -7.8592 5.6424 127.5902
v 0.0000 5.4450 123.0570
v -7.8592 5.6424 127.5902
v -9.0750 5.4450 123.0570
v 0.0000 5.4450 123.0570
v -9.0750 5.4450 123.0570
v -7.8592 5.2476 118.5238
v 0.0000 5.4450 123.0570
v -7.8592 5.2476 118.5238
v -4.5375 5.1031 115.2053
v 0.0000 5.4450 123.0570
v -4.5375 5.1031 115.2053
v -0.0000 5.0503 113.9906
v 0.0000 5.4450 123.0570
v 4.5375 330.2581 101.0483
v 0.0000 330.2053 99.8336
v 0.0000 330.6000 108.9000
v 7.8592 330.4026 104.3668
v 4.5375 330.2581 101.0483
v 0.0000 330.6000 108.9000
v 9.0750 330.6000 108.9000
v 7.8592 330.4026 104.3668
v 0.0000 330.6000 108.9000
v 7.8592 330.7974 113.4332
v 9.0750 330.6000 108.9000
v 0.0000 330.6000 108.9000
v 4.5375 330.9419 116.7517
v 7.8592 330.7974 113.4332
v 0.0000 330.6000 108.9000
v 0.0000 330.9947 117.9664
v 4.5375 330.9419 116.7517
v 0.0000 330.6000 108.9000
v -4.5375 330.9419 116.7517
v 0.0000 330.9947 117.9664
v 0.0000 330.6000 108.9000
v -7.8592 330.7974 113.4332
v -4.5375 330.9419 116.7517
v 0.0000 330.6000 108.9000
v -9.0750 330.6000 108.9000
v -7.8592 330.7974 113.4332
v 0.0000 330.6000 108.9000
v -7.8592 330.4026 104.3668
v -9.0750 330.6000 108.9000
v 0.0000 330.6000 108.9000
v -4.5375 330.2581 101.0483
v -7.8592 330.4026 104.3668
v 0.0000 330.6000 108.9000
v -0.0000 330.2053 99.8336
v -4.5375 330.2581 101.0483
v 0.0000 330.6000 108.9000
v 0.0000 380.0000 165.0000
v 0.0000 343.7000 165.0000
v 82.5000 380.0000 142.8942
v 0.0000 343.7000 165.0000
v 82.5000 343.7000 142.8942
v 82.5000 380.0000 142.8942
v 82.5000 380.0000 142.8942
v 82.5000 343.7000 142.8942
v 142.8942 380.0000 82.5000
v 82.5000 343.7000 142.8942
v 142.8942 343.7000 82.5000
v 142.8942 380.0000 82.5000
v 142.8942 380.0000 82.5000
v 142.8942 343.7000 82.5000
v 165.0000 380.0000 0.0000
v 142.8942 343.7000 82.5000
v 165.0000 343.7000 0.0000
v 165.0000 380.0000 0.0000
v 165.0000 380.0000 0.0000
v 165.0000 343.7000 0.0000
v 142.8942 380.0000 -82.5000
v 165.0000 343.7000 0.0000
v 142.8942 343.7000 -82.5000
v 142.8942 380.0000 -82.5000
v 142.8942 380.0000 -82.5000
v 142.8942 343.7000 -82.5000
v 82.5000 380.0000 -142.8942
v 142.8942 343.7000 -82.5000
v 82.5000 343.7000 -142.8942
v 82.5000 380.0000 -142.8942
v 82.5000 380.0000 -142.8942
v 82.5000 343.7000 -142.8942
v 0.0000 380.0000 -165.0000
v 82.5000 343.7000 -142.8942
v 0.0000 343.7000 -165.0000
v 0.0000 380.0000 -165.0000
v 0.0000 380.0000 -165.0000
v 0.0000 343.7000 -165.0000
v -82.5000 380.0000 -142.8942
v 0.0000 343.7000 -165.0000
v -82.5000 343.7000 -142.8942
v -82.5000 380.0000 -142.8942
v -82.5000 380.0000 -142.8942
v -82.5000 343.7000 -142.8942
v -142.8942 380.0000 -82.5000
v -82.5000 343.7000 -142.8942
v -142.8942 343.7000 -82.5000
v -142.8942 380.0000 -82.5000
v -142.8942 380.0000 -82.5000
v -142.8942 343.7000 -82.5000
v -165.0000 380.0000 -0.0000
v -142.8942 343.7000 -82.5000
v -165.0000 343.7000 -0.0000
v -165.0000 380.0000 -0.0000
v -165.0000 380.0000 -0.0000
v -165.0000 343.7000 -0.0000
v -142.8942 380.0000 82.5000
v -165.0000 343.7000 -0.0000
v -142.8942 343.7000 82.5000
v -142.8942 380.0000 82.5000
v -142.8942 380.0000 82.5000
v -142.8942 343.7000 82.5000
v -82.5000 380.0000 142.8942
v -142.8942 343.7000 82.5000
v -82.5000 343.7000 142.8942
v -82.5000 380.0000 142.8942
v -82.5000 380.0000 142.8942
v -82.5000 343.7000 142.8942
v -0.0000 380.0000 165.0000
v -82.5000 343.7000 142.8942
v -0.0000 343.7000 165.0000
v -0.0000 380.0000 165.0000
v 0.0000 380.0000 165.0000
v 82.5000 380.0000 142.8942
v 0.0000 380.0000 0.0000
v 82.5000 380.0000 142.8942
v 142.8942 380.0000 82.5000
v 0.0000 380.0000 0.0000
v 142.8942 380.0000 82.5000
v 165.0000 380.0000 0.0000
v 0.0000 380.0000 0.0000
v 165.0000 380.0000 0.0000
v 142.8942 380.0000 -82.5000
v 0.0000 380.0000 0.0000
v 142.8942 380.0000 -82.5000
v 82.5000 380.0000 -142.8942
v 0.0000 380.0000 0.0000
v 82.5000 380.0000 -142.8942
v 0.0000 380.0000 -165.0000
v 0.0000 380.0000 0.0000
v 0.0000 380.0000 -165.0000
v -82.5000 380.0000 -142.8942
v 0.0000 380.0000 0.0000
v -82.5000 380.0000 -142.8942
v -142.8942 380.0000 -82.5000
v 0.0000 380.0000 0.0000
v -142.8942 380.0000 -82.5000
v -165.0000 380.0000 -0.0000
v 0.0000 380.0000 0.0000
v -165.0000 380.0000 -0.0000
v -142.8942 380.0000 82.5000
v 0.0000 380.0000 0.0000
v -142.8942 380.0000 82.5000
v -82.5000 380.0000 142.8942
v 0.0000 380.0000 0.0000
v -82.5000 380.0000 142.8942
v -0.0000 380.0000 165.0000
v 0.0000 380.0000 0.0000
v 82.5000 343.7000 142.8942
v 0.0000 343.7000 165.0000
v 0.0000 343.7000 0.0000
v 142.8942 343.7000 82.5000
v 82.5000 343.7000 142.8942
v 0.0000 343.7000 0.0000
v 165.0000 343.7000 0.0000
v 142.8942 343.7000 82.5000
v 0.0000 343.7000 0.0000
v 142.8942 343.7000 -82.5000
v 165.0000 343.7000 0.0000
v 0.0000 343.7000 0.0000
v 82.5000 343.7000 -142.8942
v 142.8942 343.7000 -82.5000
v 0.0000 343.7000 0.0000
v 0.0000 343.7000 -165.0000
v 82.5000 343.7000 -142.8942
v 0.0000 343.7000 0.0000
v -82.5000 343.7000 -142.8942
v 0.0000 343.7000 -165.0000
v 0.0000 343.7000 0.0000
v -142.8942 343.7000 -82.5000
v -82.5000 343.7000 -142.8942
v 0.0000 343.7000 0.0000
v -165.0000 343.7000 -0.0000
v -142.8942 343.7000 -82.5000
v 0.0000 343.7000 0.0000
v -142.8942 343.7000 82.5000
v -165.0000 343.7000 -0.0000
v 0.0000 343.7000 0.0000
v -82.5000 343.7000 142.8942
v -142.8942 343.7000 82.5000
v 0.0000 343.7000 0.0000
v -0.0000 343.7000 165.0000
v -82.5000 343.7000 142.8942
v 0.0000 343.7000 0.0000
f 1 2 3
f 4 5 6
f 7 8 9
f 10 11 12
f 13 14 15
f 16 17 18
f 19 20 21
f 22 23 24
f 25 26 27
f 28 29 30
f 31 32 33
f 34 35 36
f 37 38 39
f 40 41 42
f 43 44 45
f 46 47 48
f 49 50 51
f 52 53 54
f 55 56 57
f 58 59 60
f 61 62 63
f 64 65 66
f 67 68 69
f 70 71 72
f 73 74 75
f 76 77 78
f 79 80 81
f 82 83 84
f 85 86 87
f 88 89 90
f 91 92 93
f 94 95 96
f 97 98 99
f 100 101 102
f 103 104 105
f 106 107 108
f 109 110 111
f 112 113 114
f 115 116 117
f 118 119 120
f 121 122 123
f 124 125 126
f 127 128 129
f 130 131 132
f 133 134 135
f 136 137 138
f 139 140 141
f 142 143 144
f 145 146 147
f 148 149 150
f 151 152 153
f 154 155 156
f 157 158 159
f 160 161 162
f 163 164 165
f 166 167 168
f 169 170 171
f 172 173 174
f 175 176 177
f 178 179 180
f 181 182 183
f 184 185 186
f 187 188 189
f 190 191 192
f 193 194 195
f 196 197 198
f 199 200 201
f 202 203 204
f 205 206 207
f 208 209 210
f 211 212 213
f 214 215 216
f 217 218 219
f 220 221 222
f 223 224 225
f 226 227 228
f 229 230 231
f 232 233 234
f 235 236 237
f 238 239 240
f 241 242 243
f 244 245 246
f 247 248 249
f 250 251 252
f 253 254 255
f 256 257 258
f 259 260 261
f 262 263 264
f 265 266 267
f 268 269 270
f 271 272 273
f 274 275 276
f 277 278 279
f 280 281 282
f 283 284 285
f 286 287 288
f 289 290 291
f 292 293 294
f 295 296 297
f 298 299 300
f 301 302 303
f 304 305 306
f 307 308 309
f 310 311 312
f 313 314 315
f 316 317 318
f 319 320 321
f 322 323 324
f 325 326 327
f 328 329 330
f 331 332 333
f 334 335 336
f 337 338 339
f 340 341 342
f 343 344 345
f 346 347 348
f 349 350 351
f 352 353 354
f 355 356 357
f 358 359 360
f 361 362 363
f 364 365 366
f 367 368 369
f 370 371 372
f 373 374 375
f 376 377 378
f 379 380 381
f 382 383 384
f 385 386 387
f 388 389 390
f 391 392 393
f 394 395 396
f 397 398 399
f 400 401 402
f 403 404 405
f 406 407 408
f 409 410 411
f 412 413 414
f 415 416 417
f 418 419 420
f 421 422 423
f 424 425 426
f 427 428 429
f 430 431 432
f 433 434 435
f 436 437 438
f 439 440 441
f 442 443 444
f 445 446 447
f 448 449 450
f 451 452 453
f 454 455 456
f 457 458 459
f 460 461 462
f 463 464 465
f 466 467 468
f 469 470 471
f 472 473 474
f 475 476 477
f 478 479 480
f 481 482 483
f 484 485 486
f 487 488 489
f 490 491 492
f 493 494 495
f 496 497 498
f 499 500 501
f 502 503 504
f 505 506 507
f 508 509 510
f 511 512 513
f 514 515 516
f 517 518 519
f 520 521 522
f 523 524 525
f 526 527 528
f 529 530 531
f 532 533 534
f 535 536 537
f 538 539 540
f 541 542 543
f 544 545 546
f 547 548 549
f 550 551 552
f 553 554 555
f 556 557 558
f 559 560 561
f 562 563 564
f 565 566 567
f 568 569 570
f 571 572 573
f 574 575 576
