# MATERIA - 529 Rio
# Geometria originale di studio. Unita mm. Non CAD del produttore.
v 0.0000 279.4000 700.0000
v 0.0000 202.4000 700.0000
v 350.0000 279.4000 606.2178
v 0.0000 202.4000 700.0000
v 350.0000 202.4000 606.2178
v 350.0000 279.4000 606.2178
v 350.0000 279.4000 606.2178
v 350.0000 202.4000 606.2178
v 606.2178 279.4000 350.0000
v 350.0000 202.4000 606.2178
v 606.2178 202.4000 350.0000
v 606.2178 279.4000 350.0000
v 606.2178 279.4000 350.0000
v 606.2178 202.4000 350.0000
v 700.0000 279.4000 0.0000
v 606.2178 202.4000 350.0000
v 700.0000 202.4000 0.0000
v 700.0000 279.4000 0.0000
v 700.0000 279.4000 0.0000
v 700.0000 202.4000 0.0000
v 606.2178 279.4000 -350.0000
v 700.0000 202.4000 0.0000
v 606.2178 202.4000 -350.0000
v 606.2178 279.4000 -350.0000
v 606.2178 279.4000 -350.0000
v 606.2178 202.4000 -350.0000
v 350.0000 279.4000 -606.2178
v 606.2178 202.4000 -350.0000
v 350.0000 202.4000 -606.2178
v 350.0000 279.4000 -606.2178
v 350.0000 279.4000 -606.2178
v 350.0000 202.4000 -606.2178
v 0.0000 279.4000 -700.0000
v 350.0000 202.4000 -606.2178
v 0.0000 202.4000 -700.0000
v 0.0000 279.4000 -700.0000
v 0.0000 279.4000 -700.0000
v 0.0000 202.4000 -700.0000
v -350.0000 279.4000 -606.2178
v 0.0000 202.4000 -700.0000
v -350.0000 202.4000 -606.2178
v -350.0000 279.4000 -606.2178
v -350.0000 279.4000 -606.2178
v -350.0000 202.4000 -606.2178
v -606.2178 279.4000 -350.0000
v -350.0000 202.4000 -606.2178
v -606.2178 202.4000 -350.0000
v -606.2178 279.4000 -350.0000
v -606.2178 279.4000 -350.0000
v -606.2178 202.4000 -350.0000
v -700.0000 279.4000 -0.0000
v -606.2178 202.4000 -350.0000
v -700.0000 202.4000 -0.0000
v -700.0000 279.4000 -0.0000
v -700.0000 279.4000 -0.0000
v -700.0000 202.4000 -0.0000
v -606.2178 279.4000 350.0000
v -700.0000 202.4000 -0.0000
v -606.2178 202.4000 350.0000
v -606.2178 279.4000 350.0000
v -606.2178 279.4000 350.0000
v -606.2178 202.4000 350.0000
v -350.0000 279.4000 606.2178
v -606.2178 202.4000 350.0000
v -350.0000 202.4000 606.2178
v -350.0000 279.4000 606.2178
v -350.0000 279.4000 606.2178
v -350.0000 202.4000 606.2178
v -0.0000 279.4000 700.0000
v -350.0000 202.4000 606.2178
v -0.0000 202.4000 700.0000
v -0.0000 279.4000 700.0000
v 0.0000 279.4000 700.0000
v 350.0000 279.4000 606.2178
v 0.0000 279.4000 0.0000
v 350.0000 279.4000 606.2178
v 606.2178 279.4000 350.0000
v 0.0000 279.4000 0.0000
v 606.2178 279.4000 350.0000
v 700.0000 279.4000 0.0000
v 0.0000 279.4000 0.0000
v 700.0000 279.4000 0.0000
v 606.2178 279.4000 -350.0000
v 0.0000 279.4000 0.0000
v 606.2178 279.4000 -350.0000
v 350.0000 279.4000 -606.2178
v 0.0000 279.4000 0.0000
v 350.0000 279.4000 -606.2178
v 0.0000 279.4000 -700.0000
v 0.0000 279.4000 0.0000
v 0.0000 279.4000 -700.0000
v -350.0000 279.4000 -606.2178
v 0.0000 279.4000 0.0000
v -350.0000 279.4000 -606.2178
v -606.2178 279.4000 -350.0000
v 0.0000 279.4000 0.0000
v -606.2178 279.4000 -350.0000
v -700.0000 279.4000 -0.0000
v 0.0000 279.4000 0.0000
v -700.0000 279.4000 -0.0000
v -606.2178 279.4000 350.0000
v 0.0000 279.4000 0.0000
v -606.2178 279.4000 350.0000
v -350.0000 279.4000 606.2178
v 0.0000 279.4000 0.0000
v -350.0000 279.4000 606.2178
v -0.0000 279.4000 700.0000
v 0.0000 279.4000 0.0000
v 350.0000 202.4000 606.2178
v 0.0000 202.4000 700.0000
v 0.0000 202.4000 0.0000
v 606.2178 202.4000 350.0000
v 350.0000 202.4000 606.2178
v 0.0000 202.4000 0.0000
v 700.0000 202.4000 0.0000
v 606.2178 202.4000 350.0000
v 0.0000 202.4000 0.0000
v 606.2178 202.4000 -350.0000
v 700.0000 202.4000 0.0000
v 0.0000 202.4000 0.0000
v 350.0000 202.4000 -606.2178
v 606.2178 202.4000 -350.0000
v 0.0000 202.4000 0.0000
v 0.0000 202.4000 -700.0000
v 350.0000 202.4000 -606.2178
v 0.0000 202.4000 0.0000
v -350.0000 202.4000 -606.2178
v 0.0000 202.4000 -700.0000
v 0.0000 202.4000 0.0000
v -606.2178 202.4000 -350.0000
v -350.0000 202.4000 -606.2178
v 0.0000 202.4000 0.0000
v -700.0000 202.4000 -0.0000
v -606.2178 202.4000 -350.0000
v 0.0000 202.4000 0.0000
v -606.2178 202.4000 350.0000
v -700.0000 202.4000 -0.0000
v 0.0000 202.4000 0.0000
v -350.0000 202.4000 606.2178
v -606.2178 202.4000 350.0000
v 0.0000 202.4000 0.0000
v -0.0000 202.4000 700.0000
v -350.0000 202.4000 606.2178
v 0.0000 202.4000 0.0000
v -982.6982 2.2839 -917.3602
v -917.1782 270.6839 -851.8402
v -977.1544 5.5356 -936.2245
v -917.1782 270.6839 -851.8402
v -911.6344 273.9356 -870.7045
v -977.1544 5.5356 -936.2245
v -977.1544 5.5356 -936.2245
v -911.6344 273.9356 -870.7045
v -963.0625 5.5356 -950.3164
v -911.6344 273.9356 -870.7045
v -897.5425 273.9356 -884.7964
v -963.0625 5.5356 -950.3164
v -963.0625 5.5356 -950.3164
v -897.5425 273.9356 -884.7964
v -944.1982 2.2839 -955.8602
v -897.5425 273.9356 -884.7964
v -878.6782 270.6839 -890.3402
v -944.1982 2.2839 -955.8602
v -944.1982 2.2839 -955.8602
v -878.6782 270.6839 -890.3402
v -925.6163 -3.3483 -951.3703
v -878.6782 270.6839 -890.3402
v -860.0963 265.0517 -885.8503
v -925.6163 -3.3483 -951.3703
v -925.6163 -3.3483 -951.3703
v -860.0963 265.0517 -885.8503
v -912.2957 -9.8517 -938.0497
v -860.0963 265.0517 -885.8503
v -846.7757 258.5483 -872.5297
v -912.2957 -9.8517 -938.0497
v -912.2957 -9.8517 -938.0497
v -846.7757 258.5483 -872.5297
v -907.8058 -15.4839 -919.4678
v -846.7757 258.5483 -872.5297
v -842.2858 252.9161 -853.9478
v -907.8058 -15.4839 -919.4678
v -907.8058 -15.4839 -919.4678
v -842.2858 252.9161 -853.9478
v -913.3496 -18.7356 -900.6035
v -842.2858 252.9161 -853.9478
v -847.8296 249.6644 -835.0835
v -913.3496 -18.7356 -900.6035
v -913.3496 -18.7356 -900.6035
v -847.8296 249.6644 -835.0835
v -927.4415 -18.7356 -886.5116
v -847.8296 249.6644 -835.0835
v -861.9215 249.6644 -820.9916
v -927.4415 -18.7356 -886.5116
v -927.4415 -18.7356 -886.5116
v -861.9215 249.6644 -820.9916
v -946.3058 -15.4839 -880.9678
v -861.9215 249.6644 -820.9916
v -880.7858 252.9161 -815.4478
v -946.3058 -15.4839 -880.9678
v -946.3058 -15.4839 -880.9678
v -880.7858 252.9161 -815.4478
v -964.8877 -9.8517 -885.4577
v -880.7858 252.9161 -815.4478
v -899.3677 258.5483 -819.9377
v -964.8877 -9.8517 -885.4577
v -964.8877 -9.8517 -885.4577
v -899.3677 258.5483 -819.9377
v -978.2083 -3.3483 -898.7783
v -899.3677 258.5483 -819.9377
v -912.6883 265.0517 -833.2583
v -978.2083 -3.3483 -898.7783
v -978.2083 -3.3483 -898.7783
v -912.6883 265.0517 -833.2583
v -982.6982 2.2839 -917.3602
v -912.6883 265.0517 -833.2583
v -917.1782 270.6839 -851.8402
v -982.6982 2.2839 -917.3602
v -982.6982 2.2839 -917.3602
v -977.1544 5.5356 -936.2245
v -945.2520 -6.6000 -918.4140
v -977.1544 5.5356 -936.2245
v -963.0625 5.5356 -950.3164
v -945.2520 -6.6000 -918.4140
v -963.0625 5.5356 -950.3164
v -944.1982 2.2839 -955.8602
v -945.2520 -6.6000 -918.4140
v -944.1982 2.2839 -955.8602
v -925.6163 -3.3483 -951.3703
v -945.2520 -6.6000 -918.4140
v -925.6163 -3.3483 -951.3703
v -912.2957 -9.8517 -938.0497
v -945.2520 -6.6000 -918.4140
v -912.2957 -9.8517 -938.0497
v -907.8058 -15.4839 -919.4678
v -945.2520 -6.6000 -918.4140
v -907.8058 -15.4839 -919.4678
v -913.3496 -18.7356 -900.6035
v -945.2520 -6.6000 -918.4140
v -913.3496 -18.7356 -900.6035
v -927.4415 -18.7356 -886.5116
v -945.2520 -6.6000 -918.4140
v -927.4415 -18.7356 -886.5116
v -946.3058 -15.4839 -880.9678
v -945.2520 -6.6000 -918.4140
v -946.3058 -15.4839 -880.9678
v -964.8877 -9.8517 -885.4577
v -945.2520 -6.6000 -918.4140
v -964.8877 -9.8517 -885.4577
v -978.2083 -3.3483 -898.7783
v -945.2520 -6.6000 -918.4140
v -978.2083 -3.3483 -898.7783
v -982.6982 2.2839 -917.3602
v -945.2520 -6.6000 -918.4140
v -911.6344 273.9356 -870.7045
v -917.1782 270.6839 -851.8402
v -879.7320 261.8000 -852.8940
v -897.5425 273.9356 -884.7964
v -911.6344 273.9356 -870.7045
v -879.7320 261.8000 -852.8940
v -878.6782 270.6839 -890.3402
v -897.5425 273.9356 -884.7964
v -879.7320 261.8000 -852.8940
v -860.0963 265.0517 -885.8503
v -878.6782 270.6839 -890.3402
v -879.7320 261.8000 -852.8940
v -846.7757 258.5483 -872.5297
v -860.0963 265.0517 -885.8503
v -879.7320 261.8000 -852.8940
v -842.2858 252.9161 -853.9478
v -846.7757 258.5483 -872.5297
v -879.7320 261.8000 -852.8940
v -847.8296 249.6644 -835.0835
v -842.2858 252.9161 -853.9478
v -879.7320 261.8000 -852.8940
v -861.9215 249.6644 -820.9916
v -847.8296 249.6644 -835.0835
v -879.7320 261.8000 -852.8940
v -880.7858 252.9161 -815.4478
v -861.9215 249.6644 -820.9916
v -879.7320 261.8000 -852.8940
v -899.3677 258.5483 -819.9377
v -880.7858 252.9161 -815.4478
v -879.7320 261.8000 -852.8940
v -912.6883 265.0517 -833.2583
v -899.3677 258.5483 -819.9377
v -879.7320 261.8000 -852.8940
v -917.1782 270.6839 -851.8402
v -912.6883 265.0517 -833.2583
v -879.7320 261.8000 -852.8940
v 982.6982 61.6839 -917.3602
v 917.1782 330.0839 -851.8402
v 978.2083 56.0517 -898.7783
v 917.1782 330.0839 -851.8402
v 912.6883 324.4517 -833.2583
v 978.2083 56.0517 -898.7783
v 978.2083 56.0517 -898.7783
v 912.6883 324.4517 -833.2583
v 964.8877 49.5483 -885.4577
v 912.6883 324.4517 -833.2583
v 899.3677 317.9483 -819.9377
v 964.8877 49.5483 -885.4577
v 964.8877 49.5483 -885.4577
v 899.3677 317.9483 -819.9377
v 946.3058 43.9161 -880.9678
v 899.3677 317.9483 -819.9377
v 880.7858 312.3161 -815.4478
v 946.3058 43.9161 -880.9678
v 946.3058 43.9161 -880.9678
v 880.7858 312.3161 -815.4478
v 927.4415 40.6644 -886.5116
v 880.7858 312.3161 -815.4478
v 861.9215 309.0644 -820.9916
v 927.4415 40.6644 -886.5116
v 927.4415 40.6644 -886.5116
v 861.9215 309.0644 -820.9916
v 913.3496 40.6644 -900.6035
v 861.9215 309.0644 -820.9916
v 847.8296 309.0644 -835.0835
v 913.3496 40.6644 -900.6035
v 913.3496 40.6644 -900.6035
v 847.8296 309.0644 -835.0835
v 907.8058 43.9161 -919.4678
v 847.8296 309.0644 -835.0835
v 842.2858 312.3161 -853.9478
v 907.8058 43.9161 -919.4678
v 907.8058 43.9161 -919.4678
v 842.2858 312.3161 -853.9478
v 912.2957 49.5483 -938.0497
v 842.2858 312.3161 -853.9478
v 846.7757 317.9483 -872.5297
v 912.2957 49.5483 -938.0497
v 912.2957 49.5483 -938.0497
v 846.7757 317.9483 -872.5297
v 925.6163 56.0517 -951.3703
v 846.7757 317.9483 -872.5297
v 860.0963 324.4517 -885.8503
v 925.6163 56.0517 -951.3703
v 925.6163 56.0517 -951.3703
v 860.0963 324.4517 -885.8503
v 944.1982 61.6839 -955.8602
v 860.0963 324.4517 -885.8503
v 878.6782 330.0839 -890.3402
v 944.1982 61.6839 -955.8602
v 944.1982 61.6839 -955.8602
v 878.6782 330.0839 -890.3402
v 963.0625 64.9356 -950.3164
v 878.6782 330.0839 -890.3402
v 897.5425 333.3356 -884.7964
v 963.0625 64.9356 -950.3164
v 963.0625 64.9356 -950.3164
v 897.5425 333.3356 -884.7964
v 977.1544 64.9356 -936.2245
v 897.5425 333.3356 -884.7964
v 911.6344 333.3356 -870.7045
v 977.1544 64.9356 -936.2245
v 977.1544 64.9356 -936.2245
v 911.6344 333.3356 -870.7045
v 982.6982 61.6839 -917.3602
v 911.6344 333.3356 -870.7045
v 917.1782 330.0839 -851.8402
v 982.6982 61.6839 -917.3602
v 982.6982 61.6839 -917.3602
v 978.2083 56.0517 -898.7783
v 945.2520 52.8000 -918.4140
v 978.2083 56.0517 -898.7783
v 964.8877 49.5483 -885.4577
v 945.2520 52.8000 -918.4140
v 964.8877 49.5483 -885.4577
v 946.3058 43.9161 -880.9678
v 945.2520 52.8000 -918.4140
v 946.3058 43.9161 -880.9678
v 927.4415 40.6644 -886.5116
v 945.2520 52.8000 -918.4140
v 927.4415 40.6644 -886.5116
v 913.3496 40.6644 -900.6035
v 945.2520 52.8000 -918.4140
v 913.3496 40.6644 -900.6035
v 907.8058 43.9161 -919.4678
v 945.2520 52.8000 -918.4140
v 907.8058 43.9161 -919.4678
v 912.2957 49.5483 -938.0497
v 945.2520 52.8000 -918.4140
v 912.2957 49.5483 -938.0497
v 925.6163 56.0517 -951.3703
v 945.2520 52.8000 -918.4140
v 925.6163 56.0517 -951.3703
v 944.1982 61.6839 -955.8602
v 945.2520 52.8000 -918.4140
v 944.1982 61.6839 -955.8602
v 963.0625 64.9356 -950.3164
v 945.2520 52.8000 -918.4140
v 963.0625 64.9356 -950.3164
v 977.1544 64.9356 -936.2245
v 945.2520 52.8000 -918.4140
v 977.1544 64.9356 -936.2245
v 982.6982 61.6839 -917.3602
v 945.2520 52.8000 -918.4140
v 912.6883 324.4517 -833.2583
v 917.1782 330.0839 -851.8402
v 879.7320 321.2000 -852.8940
v 899.3677 317.9483 -819.9377
v 912.6883 324.4517 -833.2583
v 879.7320 321.2000 -852.8940
v 880.7858 312.3161 -815.4478
v 899.3677 317.9483 -819.9377
v 879.7320 321.2000 -852.8940
v 861.9215 309.0644 -820.9916
v 880.7858 312.3161 -815.4478
v 879.7320 321.2000 -852.8940
v 847.8296 309.0644 -835.0835
v 861.9215 309.0644 -820.9916
v 879.7320 321.2000 -852.8940
v 842.2858 312.3161 -853.9478
v 847.8296 309.0644 -835.0835
v 879.7320 321.2000 -852.8940
v 846.7757 317.9483 -872.5297
v 842.2858 312.3161 -853.9478
v 879.7320 321.2000 -852.8940
v 860.0963 324.4517 -885.8503
v 846.7757 317.9483 -872.5297
v 879.7320 321.2000 -852.8940
v 878.6782 330.0839 -890.3402
v 860.0963 324.4517 -885.8503
v 879.7320 321.2000 -852.8940
v 897.5425 333.3356 -884.7964
v 878.6782 330.0839 -890.3402
v 879.7320 321.2000 -852.8940
v 911.6344 333.3356 -870.7045
v 897.5425 333.3356 -884.7964
v 879.7320 321.2000 -852.8940
v 917.1782 330.0839 -851.8402
v 911.6344 333.3356 -870.7045
v 879.7320 321.2000 -852.8940
v -907.8058 103.3161 919.4678
v -842.2858 371.7161 853.9478
v -912.2957 108.9483 938.0497
v -842.2858 371.7161 853.9478
v -846.7757 377.3483 872.5297
v -912.2957 108.9483 938.0497
v -912.2957 108.9483 938.0497
v -846.7757 377.3483 872.5297
v -925.6163 115.4517 951.3703
v -846.7757 377.3483 872.5297
v -860.0963 383.8517 885.8503
v -925.6163 115.4517 951.3703
v -925.6163 115.4517 951.3703
v -860.0963 383.8517 885.8503
v -944.1982 121.0839 955.8602
v -860.0963 383.8517 885.8503
v -878.6782 389.4839 890.3402
v -944.1982 121.0839 955.8602
v -944.1982 121.0839 955.8602
v -878.6782 389.4839 890.3402
v -963.0625 124.3356 950.3164
v -878.6782 389.4839 890.3402
v -897.5425 392.7356 884.7964
v -963.0625 124.3356 950.3164
v -963.0625 124.3356 950.3164
v -897.5425 392.7356 884.7964
v -977.1544 124.3356 936.2245
v -897.5425 392.7356 884.7964
v -911.6344 392.7356 870.7045
v -977.1544 124.3356 936.2245
v -977.1544 124.3356 936.2245
v -911.6344 392.7356 870.7045
v -982.6982 121.0839 917.3602
v -911.6344 392.7356 870.7045
v -917.1782 389.4839 851.8402
v -982.6982 121.0839 917.3602
v -982.6982 121.0839 917.3602
v -917.1782 389.4839 851.8402
v -978.2083 115.4517 898.7783
v -917.1782 389.4839 851.8402
v -912.6883 383.8517 833.2583
v -978.2083 115.4517 898.7783
v -978.2083 115.4517 898.7783
v -912.6883 383.8517 833.2583
v -964.8877 108.9483 885.4577
v -912.6883 383.8517 833.2583
v -899.3677 377.3483 819.9377
v -964.8877 108.9483 885.4577
v -964.8877 108.9483 885.4577
v -899.3677 377.3483 819.9377
v -946.3058 103.3161 880.9678
v -899.3677 377.3483 819.9377
v -880.7858 371.7161 815.4478
v -946.3058 103.3161 880.9678
v -946.3058 103.3161 880.9678
v -880.7858 371.7161 815.4478
v -927.4415 100.0644 886.5116
v -880.7858 371.7161 815.4478
v -861.9215 368.4644 820.9916
v -927.4415 100.0644 886.5116
v -927.4415 100.0644 886.5116
v -861.9215 368.4644 820.9916
v -913.3496 100.0644 900.6035
v -861.9215 368.4644 820.9916
v -847.8296 368.4644 835.0835
v -913.3496 100.0644 900.6035
v -913.3496 100.0644 900.6035
v -847.8296 368.4644 835.0835
v -907.8058 103.3161 919.4678
v -847.8296 368.4644 835.0835
v -842.2858 371.7161 853.9478
v -907.8058 103.3161 919.4678
v -907.8058 103.3161 919.4678
v -912.2957 108.9483 938.0497
v -945.2520 112.2000 918.4140
v -912.2957 108.9483 938.0497
v -925.6163 115.4517 951.3703
v -945.2520 112.2000 918.4140
v -925.6163 115.4517 951.3703
v -944.1982 121.0839 955.8602
v -945.2520 112.2000 918.4140
v -944.1982 121.0839 955.8602
v -963.0625 124.3356 950.3164
v -945.2520 112.2000 918.4140
v -963.0625 124.3356 950.3164
v -977.1544 124.3356 936.2245
v -945.2520 112.2000 918.4140
v -977.1544 124.3356 936.2245
v -982.6982 121.0839 917.3602
v -945.2520 112.2000 918.4140
v -982.6982 121.0839 917.3602
v -978.2083 115.4517 898.7783
v -945.2520 112.2000 918.4140
v -978.2083 115.4517 898.7783
v -964.8877 108.9483 885.4577
v -945.2520 112.2000 918.4140
v -964.8877 108.9483 885.4577
v -946.3058 103.3161 880.9678
v -945.2520 112.2000 918.4140
v -946.3058 103.3161 880.9678
v -927.4415 100.0644 886.5116
v -945.2520 112.2000 918.4140
v -927.4415 100.0644 886.5116
v -913.3496 100.0644 900.6035
v -945.2520 112.2000 918.4140
v -913.3496 100.0644 900.6035
v -907.8058 103.3161 919.4678
v -945.2520 112.2000 918.4140
v -846.7757 377.3483 872.5297
v -842.2858 371.7161 853.9478
v -879.7320 380.6000 852.8940
v -860.0963 383.8517 885.8503
v -846.7757 377.3483 872.5297
v -879.7320 380.6000 852.8940
v -878.6782 389.4839 890.3402
v -860.0963 383.8517 885.8503
v -879.7320 380.6000 852.8940
v -897.5425 392.7356 884.7964
v -878.6782 389.4839 890.3402
v -879.7320 380.6000 852.8940
v -911.6344 392.7356 870.7045
v -897.5425 392.7356 884.7964
v -879.7320 380.6000 852.8940
v -917.1782 389.4839 851.8402
v -911.6344 392.7356 870.7045
v -879.7320 380.6000 852.8940
v -912.6883 383.8517 833.2583
v -917.1782 389.4839 851.8402
v -879.7320 380.6000 852.8940
v -899.3677 377.3483 819.9377
v -912.6883 383.8517 833.2583
v -879.7320 380.6000 852.8940
v -880.7858 371.7161 815.4478
v -899.3677 377.3483 819.9377
v -879.7320 380.6000 852.8940
v -861.9215 368.4644 820.9916
v -880.7858 371.7161 815.4478
v -879.7320 380.6000 852.8940
v -847.8296 368.4644 835.0835
v -861.9215 368.4644 820.9916
v -879.7320 380.6000 852.8940
v -842.2858 371.7161 853.9478
v -847.8296 368.4644 835.0835
v -879.7320 380.6000 852.8940
v 907.8058 -74.8839 919.4678
v 842.2858 193.5161 853.9478
v 913.3496 -78.1356 900.6035
v 842.2858 193.5161 853.9478
v 847.8296 190.2644 835.0835
v 913.3496 -78.1356 900.6035
v 913.3496 -78.1356 900.6035
v 847.8296 190.2644 835.0835
v 927.4415 -78.1356 886.5116
v 847.8296 190.2644 835.0835
v 861.9215 190.2644 820.9916
v 927.4415 -78.1356 886.5116
v 927.4415 -78.1356 886.5116
v 861.9215 190.2644 820.9916
v 946.3058 -74.8839 880.9678
v 861.9215 190.2644 820.9916
v 880.7858 193.5161 815.4478
v 946.3058 -74.8839 880.9678
v 946.3058 -74.8839 880.9678
v 880.7858 193.5161 815.4478
v 964.8877 -69.2517 885.4577
v 880.7858 193.5161 815.4478
v 899.3677 199.1483 819.9377
v 964.8877 -69.2517 885.4577
v 964.8877 -69.2517 885.4577
v 899.3677 199.1483 819.9377
v 978.2083 -62.7483 898.7783
v 899.3677 199.1483 819.9377
v 912.6883 205.6517 833.2583
v 978.2083 -62.7483 898.7783
v 978.2083 -62.7483 898.7783
v 912.6883 205.6517 833.2583
v 982.6982 -57.1161 917.3602
v 912.6883 205.6517 833.2583
v 917.1782 211.2839 851.8402
v 982.6982 -57.1161 917.3602
v 982.6982 -57.1161 917.3602
v 917.1782 211.2839 851.8402
v 977.1544 -53.8644 936.2245
v 917.1782 211.2839 851.8402
v 911.6344 214.5356 870.7045
v 977.1544 -53.8644 936.2245
v 977.1544 -53.8644 936.2245
v 911.6344 214.5356 870.7045
v 963.0625 -53.8644 950.3164
v 911.6344 214.5356 870.7045
v 897.5425 214.5356 884.7964
v 963.0625 -53.8644 950.3164
v 963.0625 -53.8644 950.3164
v 897.5425 214.5356 884.7964
v 944.1982 -57.1161 955.8602
v 897.5425 214.5356 884.7964
v 878.6782 211.2839 890.3402
v 944.1982 -57.1161 955.8602
v 944.1982 -57.1161 955.8602
v 878.6782 211.2839 890.3402
v 925.6163 -62.7483 951.3703
v 878.6782 211.2839 890.3402
v 860.0963 205.6517 885.8503
v 925.6163 -62.7483 951.3703
v 925.6163 -62.7483 951.3703
v 860.0963 205.6517 885.8503
v 912.2957 -69.2517 938.0497
v 860.0963 205.6517 885.8503
v 846.7757 199.1483 872.5297
v 912.2957 -69.2517 938.0497
v 912.2957 -69.2517 938.0497
v 846.7757 199.1483 872.5297
v 907.8058 -74.8839 919.4678
v 846.7757 199.1483 872.5297
v 842.2858 193.5161 853.9478
v 907.8058 -74.8839 919.4678
v 907.8058 -74.8839 919.4678
v 913.3496 -78.1356 900.6035
v 945.2520 -66.0000 918.4140
v 913.3496 -78.1356 900.6035
v 927.4415 -78.1356 886.5116
v 945.2520 -66.0000 918.4140
v 927.4415 -78.1356 886.5116
v 946.3058 -74.8839 880.9678
v 945.2520 -66.0000 918.4140
v 946.3058 -74.8839 880.9678
v 964.8877 -69.2517 885.4577
v 945.2520 -66.0000 918.4140
v 964.8877 -69.2517 885.4577
v 978.2083 -62.7483 898.7783
v 945.2520 -66.0000 918.4140
v 978.2083 -62.7483 898.7783
v 982.6982 -57.1161 917.3602
v 945.2520 -66.0000 918.4140
v 982.6982 -57.1161 917.3602
v 977.1544 -53.8644 936.2245
v 945.2520 -66.0000 918.4140
v 977.1544 -53.8644 936.2245
v 963.0625 -53.8644 950.3164
v 945.2520 -66.0000 918.4140
v 963.0625 -53.8644 950.3164
v 944.1982 -57.1161 955.8602
v 945.2520 -66.0000 918.4140
v 944.1982 -57.1161 955.8602
v 925.6163 -62.7483 951.3703
v 945.2520 -66.0000 918.4140
v 925.6163 -62.7483 951.3703
v 912.2957 -69.2517 938.0497
v 945.2520 -66.0000 918.4140
v 912.2957 -69.2517 938.0497
v 907.8058 -74.8839 919.4678
v 945.2520 -66.0000 918.4140
v 847.8296 190.2644 835.0835
v 842.2858 193.5161 853.9478
v 879.7320 202.4000 852.8940
v 861.9215 190.2644 820.9916
v 847.8296 190.2644 835.0835
v 879.7320 202.4000 852.8940
v 880.7858 193.5161 815.4478
v 861.9215 190.2644 820.9916
v 879.7320 202.4000 852.8940
v 899.3677 199.1483 819.9377
v 880.7858 193.5161 815.4478
v 879.7320 202.4000 852.8940
v 912.6883 205.6517 833.2583
v 899.3677 199.1483 819.9377
v 879.7320 202.4000 852.8940
v 917.1782 211.2839 851.8402
v 912.6883 205.6517 833.2583
v 879.7320 202.4000 852.8940
v 911.6344 214.5356 870.7045
v 917.1782 211.2839 851.8402
v 879.7320 202.4000 852.8940
v 897.5425 214.5356 884.7964
v 911.6344 214.5356 870.7045
v 879.7320 202.4000 852.8940
v 878.6782 211.2839 890.3402
v 897.5425 214.5356 884.7964
v 879.7320 202.4000 852.8940
v 860.0963 205.6517 885.8503
v 878.6782 211.2839 890.3402
v 879.7320 202.4000 852.8940
v 846.7757 199.1483 872.5297
v 860.0963 205.6517 885.8503
v 879.7320 202.4000 852.8940
v 842.2858 193.5161 853.9478
v 846.7757 199.1483 872.5297
v 879.7320 202.4000 852.8940
f 1 2 3
f 4 5 6
f 7 8 9
f 10 11 12
f 13 14 15
f 16 17 18
f 19 20 21
f 22 23 24
f 25 26 27
f 28 29 30
f 31 32 33
f 34 35 36
f 37 38 39
f 40 41 42
f 43 44 45
f 46 47 48
f 49 50 51
f 52 53 54
f 55 56 57
f 58 59 60
f 61 62 63
f 64 65 66
f 67 68 69
f 70 71 72
f 73 74 75
f 76 77 78
f 79 80 81
f 82 83 84
f 85 86 87
f 88 89 90
f 91 92 93
f 94 95 96
f 97 98 99
f 100 101 102
f 103 104 105
f 106 107 108
f 109 110 111
f 112 113 114
f 115 116 117
f 118 119 120
f 121 122 123
f 124 125 126
f 127 128 129
f 130 131 132
f 133 134 135
f 136 137 138
f 139 140 141
f 142 143 144
f 145 146 147
f 148 149 150
f 151 152 153
f 154 155 156
f 157 158 159
f 160 161 162
f 163 164 165
f 166 167 168
f 169 170 171
f 172 173 174
f 175 176 177
f 178 179 180
f 181 182 183
f 184 185 186
f 187 188 189
f 190 191 192
f 193 194 195
f 196 197 198
f 199 200 201
f 202 203 204
f 205 206 207
f 208 209 210
f 211 212 213
f 214 215 216
f 217 218 219
f 220 221 222
f 223 224 225
f 226 227 228
f 229 230 231
f 232 233 234
f 235 236 237
f 238 239 240
f 241 242 243
f 244 245 246
f 247 248 249
f 250 251 252
f 253 254 255
f 256 257 258
f 259 260 261
f 262 263 264
f 265 266 267
f 268 269 270
f 271 272 273
f 274 275 276
f 277 278 279
f 280 281 282
f 283 284 285
f 286 287 288
f 289 290 291
f 292 293 294
f 295 296 297
f 298 299 300
f 301 302 303
f 304 305 306
f 307 308 309
f 310 311 312
f 313 314 315
f 316 317 318
f 319 320 321
f 322 323 324
f 325 326 327
f 328 329 330
f 331 332 333
f 334 335 336
f 337 338 339
f 340 341 342
f 343 344 345
f 346 347 348
f 349 350 351
f 352 353 354
f 355 356 357
f 358 359 360
f 361 362 363
f 364 365 366
f 367 368 369
f 370 371 372
f 373 374 375
f 376 377 378
f 379 380 381
f 382 383 384
f 385 386 387
f 388 389 390
f 391 392 393
f 394 395 396
f 397 398 399
f 400 401 402
f 403 404 405
f 406 407 408
f 409 410 411
f 412 413 414
f 415 416 417
f 418 419 420
f 421 422 423
f 424 425 426
f 427 428 429
f 430 431 432
f 433 434 435
f 436 437 438
f 439 440 441
f 442 443 444
f 445 446 447
f 448 449 450
f 451 452 453
f 454 455 456
f 457 458 459
f 460 461 462
f 463 464 465
f 466 467 468
f 469 470 471
f 472 473 474
f 475 476 477
f 478 479 480
f 481 482 483
f 484 485 486
f 487 488 489
f 490 491 492
f 493 494 495
f 496 497 498
f 499 500 501
f 502 503 504
f 505 506 507
f 508 509 510
f 511 512 513
f 514 515 516
f 517 518 519
f 520 521 522
f 523 524 525
f 526 527 528
f 529 530 531
f 532 533 534
f 535 536 537
f 538 539 540
f 541 542 543
f 544 545 546
f 547 548 549
f 550 551 552
f 553 554 555
f 556 557 558
f 559 560 561
f 562 563 564
f 565 566 567
f 568 569 570
f 571 572 573
f 574 575 576
f 577 578 579
f 580 581 582
f 583 584 585
f 586 587 588
f 589 590 591
f 592 593 594
f 595 596 597
f 598 599 600
f 601 602 603
f 604 605 606
f 607 608 609
f 610 611 612
f 613 614 615
f 616 617 618
f 619 620 621
f 622 623 624
f 625 626 627
f 628 629 630
f 631 632 633
f 634 635 636
f 637 638 639
f 640 641 642
f 643 644 645
f 646 647 648
f 649 650 651
f 652 653 654
f 655 656 657
f 658 659 660
f 661 662 663
f 664 665 666
f 667 668 669
f 670 671 672
f 673 674 675
f 676 677 678
f 679 680 681
f 682 683 684
f 685 686 687
f 688 689 690
f 691 692 693
f 694 695 696
f 697 698 699
f 700 701 702
f 703 704 705
f 706 707 708
f 709 710 711
f 712 713 714
f 715 716 717
f 718 719 720
