# MATERIA - 381 Torei
# Geometria originale di studio. Unita mm. Non CAD del produttore.
v 475.0000 294.1500 330.0000
v 475.0000 257.8500 330.0000
v 475.0000 294.1500 -330.0000
v 475.0000 257.8500 330.0000
v 475.0000 257.8500 -330.0000
v 475.0000 294.1500 -330.0000
v -475.0000 294.1500 -330.0000
v -475.0000 257.8500 -330.0000
v -475.0000 294.1500 330.0000
v -475.0000 257.8500 -330.0000
v -475.0000 257.8500 330.0000
v -475.0000 294.1500 330.0000
v -475.0000 294.1500 -330.0000
v -475.0000 294.1500 330.0000
v 475.0000 294.1500 -330.0000
v -475.0000 294.1500 330.0000
v 475.0000 294.1500 330.0000
v 475.0000 294.1500 -330.0000
v -475.0000 257.8500 330.0000
v -475.0000 257.8500 -330.0000
v 475.0000 257.8500 330.0000
v -475.0000 257.8500 -330.0000
v 475.0000 257.8500 -330.0000
v 475.0000 257.8500 330.0000
v -475.0000 294.1500 330.0000
v -475.0000 257.8500 330.0000
v 475.0000 294.1500 330.0000
v -475.0000 257.8500 330.0000
v 475.0000 257.8500 330.0000
v 475.0000 294.1500 330.0000
v 475.0000 294.1500 -330.0000
v 475.0000 257.8500 -330.0000
v -475.0000 294.1500 -330.0000
v 475.0000 257.8500 -330.0000
v -475.0000 257.8500 -330.0000
v -475.0000 294.1500 -330.0000
v -658.3330 -23.5487 -426.5660
v -613.8730 331.4113 -395.6780
v -659.1638 -22.6342 -435.8796
v -613.8730 331.4113 -395.6780
v -614.7038 332.3258 -404.9916
v -659.1638 -22.6342 -435.8796
v -659.1638 -22.6342 -435.8796
v -614.7038 332.3258 -404.9916
v -655.2404 -22.3831 -444.4126
v -614.7038 332.3258 -404.9916
v -610.7804 332.5769 -413.5246
v -655.2404 -22.3831 -444.4126
v -655.2404 -22.3831 -444.4126
v -610.7804 332.5769 -413.5246
v -647.6141 -22.8626 -449.8786
v -610.7804 332.5769 -413.5246
v -603.1541 332.0974 -418.9906
v -647.6141 -22.8626 -449.8786
v -647.6141 -22.8626 -449.8786
v -603.1541 332.0974 -418.9906
v -638.3284 -23.9444 -450.8132
v -603.1541 332.0974 -418.9906
v -593.8684 331.0156 -419.9252
v -638.3284 -23.9444 -450.8132
v -638.3284 -23.9444 -450.8132
v -593.8684 331.0156 -419.9252
v -629.8713 -25.3385 -446.9657
v -593.8684 331.0156 -419.9252
v -585.4113 329.6215 -416.0777
v -629.8713 -25.3385 -446.9657
v -629.8713 -25.3385 -446.9657
v -585.4113 329.6215 -416.0777
v -624.5090 -26.6713 -439.3672
v -585.4113 329.6215 -416.0777
v -580.0490 328.2887 -408.4792
v -624.5090 -26.6713 -439.3672
v -624.5090 -26.6713 -439.3672
v -580.0490 328.2887 -408.4792
v -623.6782 -27.5858 -430.0536
v -580.0490 328.2887 -408.4792
v -579.2182 327.3742 -399.1656
v -623.6782 -27.5858 -430.0536
v -623.6782 -27.5858 -430.0536
v -579.2182 327.3742 -399.1656
v -627.6016 -27.8369 -421.5206
v -579.2182 327.3742 -399.1656
v -583.1416 327.1231 -390.6326
v -627.6016 -27.8369 -421.5206
v -627.6016 -27.8369 -421.5206
v -583.1416 327.1231 -390.6326
v -635.2279 -27.3574 -416.0546
v -583.1416 327.1231 -390.6326
v -590.7679 327.6026 -385.1666
v -635.2279 -27.3574 -416.0546
v -635.2279 -27.3574 -416.0546
v -590.7679 327.6026 -385.1666
v -644.5136 -26.2756 -415.1200
v -590.7679 327.6026 -385.1666
v -600.0536 328.6844 -384.2320
v -644.5136 -26.2756 -415.1200
v -644.5136 -26.2756 -415.1200
v -600.0536 328.6844 -384.2320
v -652.9707 -24.8815 -418.9675
v -600.0536 328.6844 -384.2320
v -608.5107 330.0785 -388.0795
v -652.9707 -24.8815 -418.9675
v -652.9707 -24.8815 -418.9675
v -608.5107 330.0785 -388.0795
v -658.3330 -23.5487 -426.5660
v -608.5107 330.0785 -388.0795
v -613.8730 331.4113 -395.6780
v -658.3330 -23.5487 -426.5660
v -658.3330 -23.5487 -426.5660
v -659.1638 -22.6342 -435.8796
v -641.4210 -25.1100 -432.9666
v -659.1638 -22.6342 -435.8796
v -655.2404 -22.3831 -444.4126
v -641.4210 -25.1100 -432.9666
v -655.2404 -22.3831 -444.4126
v -647.6141 -22.8626 -449.8786
v -641.4210 -25.1100 -432.9666
v -647.6141 -22.8626 -449.8786
v -638.3284 -23.9444 -450.8132
v -641.4210 -25.1100 -432.9666
v -638.3284 -23.9444 -450.8132
v -629.8713 -25.3385 -446.9657
v -641.4210 -25.1100 -432.9666
v -629.8713 -25.3385 -446.9657
v -624.5090 -26.6713 -439.3672
v -641.4210 -25.1100 -432.9666
v -624.5090 -26.6713 -439.3672
v -623.6782 -27.5858 -430.0536
v -641.4210 -25.1100 -432.9666
v -623.6782 -27.5858 -430.0536
v -627.6016 -27.8369 -421.5206
v -641.4210 -25.1100 -432.9666
v -627.6016 -27.8369 -421.5206
v -635.2279 -27.3574 -416.0546
v -641.4210 -25.1100 -432.9666
v -635.2279 -27.3574 -416.0546
v -644.5136 -26.2756 -415.1200
v -641.4210 -25.1100 -432.9666
v -644.5136 -26.2756 -415.1200
v -652.9707 -24.8815 -418.9675
v -641.4210 -25.1100 -432.9666
v -652.9707 -24.8815 -418.9675
v -658.3330 -23.5487 -426.5660
v -641.4210 -25.1100 -432.9666
v -614.7038 332.3258 -404.9916
v -613.8730 331.4113 -395.6780
v -596.9610 329.8500 -402.0786
v -610.7804 332.5769 -413.5246
v -614.7038 332.3258 -404.9916
v -596.9610 329.8500 -402.0786
v -603.1541 332.0974 -418.9906
v -610.7804 332.5769 -413.5246
v -596.9610 329.8500 -402.0786
v -593.8684 331.0156 -419.9252
v -603.1541 332.0974 -418.9906
v -596.9610 329.8500 -402.0786
v -585.4113 329.6215 -416.0777
v -593.8684 331.0156 -419.9252
v -596.9610 329.8500 -402.0786
v -580.0490 328.2887 -408.4792
v -585.4113 329.6215 -416.0777
v -596.9610 329.8500 -402.0786
v -579.2182 327.3742 -399.1656
v -580.0490 328.2887 -408.4792
v -596.9610 329.8500 -402.0786
v -583.1416 327.1231 -390.6326
v -579.2182 327.3742 -399.1656
v -596.9610 329.8500 -402.0786
v -590.7679 327.6026 -385.1666
v -583.1416 327.1231 -390.6326
v -596.9610 329.8500 -402.0786
v -600.0536 328.6844 -384.2320
v -590.7679 327.6026 -385.1666
v -596.9610 329.8500 -402.0786
v -608.5107 330.0785 -388.0795
v -600.0536 328.6844 -384.2320
v -596.9610 329.8500 -402.0786
v -613.8730 331.4113 -395.6780
v -608.5107 330.0785 -388.0795
v -596.9610 329.8500 -402.0786
v 658.3330 48.4513 -426.5660
v 613.8730 403.4113 -395.6780
v 652.9707 47.1185 -418.9675
v 613.8730 403.4113 -395.6780
v 608.5107 402.0785 -388.0795
v 652.9707 47.1185 -418.9675
v 652.9707 47.1185 -418.9675
v 608.5107 402.0785 -388.0795
v 644.5136 45.7244 -415.1200
v 608.5107 402.0785 -388.0795
v 600.0536 400.6844 -384.2320
v 644.5136 45.7244 -415.1200
v 644.5136 45.7244 -415.1200
v 600.0536 400.6844 -384.2320
v 635.2279 44.6426 -416.0546
v 600.0536 400.6844 -384.2320
v 590.7679 399.6026 -385.1666
v 635.2279 44.6426 -416.0546
v 635.2279 44.6426 -416.0546
v 590.7679 399.6026 -385.1666
v 627.6016 44.1631 -421.5206
v 590.7679 399.6026 -385.1666
v 583.1416 399.1231 -390.6326
v 627.6016 44.1631 -421.5206
v 627.6016 44.1631 -421.5206
v 583.1416 399.1231 -390.6326
v 623.6782 44.4142 -430.0536
v 583.1416 399.1231 -390.6326
v 579.2182 399.3742 -399.1656
v 623.6782 44.4142 -430.0536
v 623.6782 44.4142 -430.0536
v 579.2182 399.3742 -399.1656
v 624.5090 45.3287 -439.3672
v 579.2182 399.3742 -399.1656
v 580.0490 400.2887 -408.4792
v 624.5090 45.3287 -439.3672
v 624.5090 45.3287 -439.3672
v 580.0490 400.2887 -408.4792
v 629.8713 46.6615 -446.9657
v 580.0490 400.2887 -408.4792
v 585.4113 401.6215 -416.0777
v 629.8713 46.6615 -446.9657
v 629.8713 46.6615 -446.9657
v 585.4113 401.6215 -416.0777
v 638.3284 48.0556 -450.8132
v 585.4113 401.6215 -416.0777
v 593.8684 403.0156 -419.9252
v 638.3284 48.0556 -450.8132
v 638.3284 48.0556 -450.8132
v 593.8684 403.0156 -419.9252
v 647.6141 49.1374 -449.8786
v 593.8684 403.0156 -419.9252
v 603.1541 404.0974 -418.9906
v 647.6141 49.1374 -449.8786
v 647.6141 49.1374 -449.8786
v 603.1541 404.0974 -418.9906
v 655.2404 49.6169 -444.4126
v 603.1541 404.0974 -418.9906
v 610.7804 404.5769 -413.5246
v 655.2404 49.6169 -444.4126
v 655.2404 49.6169 -444.4126
v 610.7804 404.5769 -413.5246
v 659.1638 49.3658 -435.8796
v 610.7804 404.5769 -413.5246
v 614.7038 404.3258 -404.9916
v 659.1638 49.3658 -435.8796
v 659.1638 49.3658 -435.8796
v 614.7038 404.3258 -404.9916
v 658.3330 48.4513 -426.5660
v 614.7038 404.3258 -404.9916
v 613.8730 403.4113 -395.6780
v 658.3330 48.4513 -426.5660
v 658.3330 48.4513 -426.5660
v 652.9707 47.1185 -418.9675
v 641.4210 46.8900 -432.9666
v 652.9707 47.1185 -418.9675
v 644.5136 45.7244 -415.1200
v 641.4210 46.8900 -432.9666
v 644.5136 45.7244 -415.1200
v 635.2279 44.6426 -416.0546
v 641.4210 46.8900 -432.9666
v 635.2279 44.6426 -416.0546
v 627.6016 44.1631 -421.5206
v 641.4210 46.8900 -432.9666
v 627.6016 44.1631 -421.5206
v 623.6782 44.4142 -430.0536
v 641.4210 46.8900 -432.9666
v 623.6782 44.4142 -430.0536
v 624.5090 45.3287 -439.3672
v 641.4210 46.8900 -432.9666
v 624.5090 45.3287 -439.3672
v 629.8713 46.6615 -446.9657
v 641.4210 46.8900 -432.9666
v 629.8713 46.6615 -446.9657
v 638.3284 48.0556 -450.8132
v 641.4210 46.8900 -432.9666
v 638.3284 48.0556 -450.8132
v 647.6141 49.1374 -449.8786
v 641.4210 46.8900 -432.9666
v 647.6141 49.1374 -449.8786
v 655.2404 49.6169 -444.4126
v 641.4210 46.8900 -432.9666
v 655.2404 49.6169 -444.4126
v 659.1638 49.3658 -435.8796
v 641.4210 46.8900 -432.9666
v 659.1638 49.3658 -435.8796
v 658.3330 48.4513 -426.5660
v 641.4210 46.8900 -432.9666
v 608.5107 402.0785 -388.0795
v 613.8730 403.4113 -395.6780
v 596.9610 401.8500 -402.0786
v 600.0536 400.6844 -384.2320
v 608.5107 402.0785 -388.0795
v 596.9610 401.8500 -402.0786
v 590.7679 399.6026 -385.1666
v 600.0536 400.6844 -384.2320
v 596.9610 401.8500 -402.0786
v 583.1416 399.1231 -390.6326
v 590.7679 399.6026 -385.1666
v 596.9610 401.8500 -402.0786
v 579.2182 399.3742 -399.1656
v 583.1416 399.1231 -390.6326
v 596.9610 401.8500 -402.0786
v 580.0490 400.2887 -408.4792
v 579.2182 399.3742 -399.1656
v 596.9610 401.8500 -402.0786
v 585.4113 401.6215 -416.0777
v 580.0490 400.2887 -408.4792
v 596.9610 401.8500 -402.0786
v 593.8684 403.0156 -419.9252
v 585.4113 401.6215 -416.0777
v 596.9610 401.8500 -402.0786
v 603.1541 404.0974 -418.9906
v 593.8684 403.0156 -419.9252
v 596.9610 401.8500 -402.0786
v 610.7804 404.5769 -413.5246
v 603.1541 404.0974 -418.9906
v 596.9610 401.8500 -402.0786
v 614.7038 404.3258 -404.9916
v 610.7804 404.5769 -413.5246
v 596.9610 401.8500 -402.0786
v 613.8730 403.4113 -395.6780
v 614.7038 404.3258 -404.9916
v 596.9610 401.8500 -402.0786
v -624.5090 117.3287 439.3672
v -580.0490 472.2887 408.4792
v -629.8713 118.6615 446.9657
v -580.0490 472.2887 408.4792
v -585.4113 473.6215 416.0777
v -629.8713 118.6615 446.9657
v -629.8713 118.6615 446.9657
v -585.4113 473.6215 416.0777
v -638.3284 120.0556 450.8132
v -585.4113 473.6215 416.0777
v -593.8684 475.0156 419.9252
v -638.3284 120.0556 450.8132
v -638.3284 120.0556 450.8132
v -593.8684 475.0156 419.9252
v -647.6141 121.1374 449.8786
v -593.8684 475.0156 419.9252
v -603.1541 476.0974 418.9906
v -647.6141 121.1374 449.8786
v -647.6141 121.1374 449.8786
v -603.1541 476.0974 418.9906
v -655.2404 121.6169 444.4126
v -603.1541 476.0974 418.9906
v -610.7804 476.5769 413.5246
v -655.2404 121.6169 444.4126
v -655.2404 121.6169 444.4126
v -610.7804 476.5769 413.5246
v -659.1638 121.3658 435.8796
v -610.7804 476.5769 413.5246
v -614.7038 476.3258 404.9916
v -659.1638 121.3658 435.8796
v -659.1638 121.3658 435.8796
v -614.7038 476.3258 404.9916
v -658.3330 120.4513 426.5660
v -614.7038 476.3258 404.9916
v -613.8730 475.4113 395.6780
v -658.3330 120.4513 426.5660
v -658.3330 120.4513 426.5660
v -613.8730 475.4113 395.6780
v -652.9707 119.1185 418.9675
v -613.8730 475.4113 395.6780
v -608.5107 474.0785 388.0795
v -652.9707 119.1185 418.9675
v -652.9707 119.1185 418.9675
v -608.5107 474.0785 388.0795
v -644.5136 117.7244 415.1200
v -608.5107 474.0785 388.0795
v -600.0536 472.6844 384.2320
v -644.5136 117.7244 415.1200
v -644.5136 117.7244 415.1200
v -600.0536 472.6844 384.2320
v -635.2279 116.6426 416.0546
v -600.0536 472.6844 384.2320
v -590.7679 471.6026 385.1666
v -635.2279 116.6426 416.0546
v -635.2279 116.6426 416.0546
v -590.7679 471.6026 385.1666
v -627.6016 116.1631 421.5206
v -590.7679 471.6026 385.1666
v -583.1416 471.1231 390.6326
v -627.6016 116.1631 421.5206
v -627.6016 116.1631 421.5206
v -583.1416 471.1231 390.6326
v -623.6782 116.4142 430.0536
v -583.1416 471.1231 390.6326
v -579.2182 471.3742 399.1656
v -623.6782 116.4142 430.0536
v -623.6782 116.4142 430.0536
v -579.2182 471.3742 399.1656
v -624.5090 117.3287 439.3672
v -579.2182 471.3742 399.1656
v -580.0490 472.2887 408.4792
v -624.5090 117.3287 439.3672
v -624.5090 117.3287 439.3672
v -629.8713 118.6615 446.9657
v -641.4210 118.8900 432.9666
v -629.8713 118.6615 446.9657
v -638.3284 120.0556 450.8132
v -641.4210 118.8900 432.9666
v -638.3284 120.0556 450.8132
v -647.6141 121.1374 449.8786
v -641.4210 118.8900 432.9666
v -647.6141 121.1374 449.8786
v -655.2404 121.6169 444.4126
v -641.4210 118.8900 432.9666
v -655.2404 121.6169 444.4126
v -659.1638 121.3658 435.8796
v -641.4210 118.8900 432.9666
v -659.1638 121.3658 435.8796
v -658.3330 120.4513 426.5660
v -641.4210 118.8900 432.9666
v -658.3330 120.4513 426.5660
v -652.9707 119.1185 418.9675
v -641.4210 118.8900 432.9666
v -652.9707 119.1185 418.9675
v -644.5136 117.7244 415.1200
v -641.4210 118.8900 432.9666
v -644.5136 117.7244 415.1200
v -635.2279 116.6426 416.0546
v -641.4210 118.8900 432.9666
v -635.2279 116.6426 416.0546
v -627.6016 116.1631 421.5206
v -641.4210 118.8900 432.9666
v -627.6016 116.1631 421.5206
v -623.6782 116.4142 430.0536
v -641.4210 118.8900 432.9666
v -623.6782 116.4142 430.0536
v -624.5090 117.3287 439.3672
v -641.4210 118.8900 432.9666
v -585.4113 473.6215 416.0777
v -580.0490 472.2887 408.4792
v -596.9610 473.8500 402.0786
v -593.8684 475.0156 419.9252
v -585.4113 473.6215 416.0777
v -596.9610 473.8500 402.0786
v -603.1541 476.0974 418.9906
v -593.8684 475.0156 419.9252
v -596.9610 473.8500 402.0786
v -610.7804 476.5769 413.5246
v -603.1541 476.0974 418.9906
v -596.9610 473.8500 402.0786
v -614.7038 476.3258 404.9916
v -610.7804 476.5769 413.5246
v -596.9610 473.8500 402.0786
v -613.8730 475.4113 395.6780
v -614.7038 476.3258 404.9916
v -596.9610 473.8500 402.0786
v -608.5107 474.0785 388.0795
v -613.8730 475.4113 395.6780
v -596.9610 473.8500 402.0786
v -600.0536 472.6844 384.2320
v -608.5107 474.0785 388.0795
v -596.9610 473.8500 402.0786
v -590.7679 471.6026 385.1666
v -600.0536 472.6844 384.2320
v -596.9610 473.8500 402.0786
v -583.1416 471.1231 390.6326
v -590.7679 471.6026 385.1666
v -596.9610 473.8500 402.0786
v -579.2182 471.3742 399.1656
v -583.1416 471.1231 390.6326
v -596.9610 473.8500 402.0786
v -580.0490 472.2887 408.4792
v -579.2182 471.3742 399.1656
v -596.9610 473.8500 402.0786
v 624.5090 -98.6713 439.3672
v 580.0490 256.2887 408.4792
v 623.6782 -99.5858 430.0536
v 580.0490 256.2887 408.4792
v 579.2182 255.3742 399.1656
v 623.6782 -99.5858 430.0536
v 623.6782 -99.5858 430.0536
v 579.2182 255.3742 399.1656
v 627.6016 -99.8369 421.5206
v 579.2182 255.3742 399.1656
v 583.1416 255.1231 390.6326
v 627.6016 -99.8369 421.5206
v 627.6016 -99.8369 421.5206
v 583.1416 255.1231 390.6326
v 635.2279 -99.3574 416.0546
v 583.1416 255.1231 390.6326
v 590.7679 255.6026 385.1666
v 635.2279 -99.3574 416.0546
v 635.2279 -99.3574 416.0546
v 590.7679 255.6026 385.1666
v 644.5136 -98.2756 415.1200
v 590.7679 255.6026 385.1666
v 600.0536 256.6844 384.2320
v 644.5136 -98.2756 415.1200
v 644.5136 -98.2756 415.1200
v 600.0536 256.6844 384.2320
v 652.9707 -96.8815 418.9675
v 600.0536 256.6844 384.2320
v 608.5107 258.0785 388.0795
v 652.9707 -96.8815 418.9675
v 652.9707 -96.8815 418.9675
v 608.5107 258.0785 388.0795
v 658.3330 -95.5487 426.5660
v 608.5107 258.0785 388.0795
v 613.8730 259.4113 395.6780
v 658.3330 -95.5487 426.5660
v 658.3330 -95.5487 426.5660
v 613.8730 259.4113 395.6780
v 659.1638 -94.6342 435.8796
v 613.8730 259.4113 395.6780
v 614.7038 260.3258 404.9916
v 659.1638 -94.6342 435.8796
v 659.1638 -94.6342 435.8796
v 614.7038 260.3258 404.9916
v 655.2404 -94.3831 444.4126
v 614.7038 260.3258 404.9916
v 610.7804 260.5769 413.5246
v 655.2404 -94.3831 444.4126
v 655.2404 -94.3831 444.4126
v 610.7804 260.5769 413.5246
v 647.6141 -94.8626 449.8786
v 610.7804 260.5769 413.5246
v 603.1541 260.0974 418.9906
v 647.6141 -94.8626 449.8786
v 647.6141 -94.8626 449.8786
v 603.1541 260.0974 418.9906
v 638.3284 -95.9444 450.8132
v 603.1541 260.0974 418.9906
v 593.8684 259.0156 419.9252
v 638.3284 -95.9444 450.8132
v 638.3284 -95.9444 450.8132
v 593.8684 259.0156 419.9252
v 629.8713 -97.3385 446.9657
v 593.8684 259.0156 419.9252
v 585.4113 257.6215 416.0777
v 629.8713 -97.3385 446.9657
v 629.8713 -97.3385 446.9657
v 585.4113 257.6215 416.0777
v 624.5090 -98.6713 439.3672
v 585.4113 257.6215 416.0777
v 580.0490 256.2887 408.4792
v 624.5090 -98.6713 439.3672
v 624.5090 -98.6713 439.3672
v 623.6782 -99.5858 430.0536
v 641.4210 -97.1100 432.9666
v 623.6782 -99.5858 430.0536
v 627.6016 -99.8369 421.5206
v 641.4210 -97.1100 432.9666
v 627.6016 -99.8369 421.5206
v 635.2279 -99.3574 416.0546
v 641.4210 -97.1100 432.9666
v 635.2279 -99.3574 416.0546
v 644.5136 -98.2756 415.1200
v 641.4210 -97.1100 432.9666
v 644.5136 -98.2756 415.1200
v 652.9707 -96.8815 418.9675
v 641.4210 -97.1100 432.9666
v 652.9707 -96.8815 418.9675
v 658.3330 -95.5487 426.5660
v 641.4210 -97.1100 432.9666
v 658.3330 -95.5487 426.5660
v 659.1638 -94.6342 435.8796
v 641.4210 -97.1100 432.9666
v 659.1638 -94.6342 435.8796
v 655.2404 -94.3831 444.4126
v 641.4210 -97.1100 432.9666
v 655.2404 -94.3831 444.4126
v 647.6141 -94.8626 449.8786
v 641.4210 -97.1100 432.9666
v 647.6141 -94.8626 449.8786
v 638.3284 -95.9444 450.8132
v 641.4210 -97.1100 432.9666
v 638.3284 -95.9444 450.8132
v 629.8713 -97.3385 446.9657
v 641.4210 -97.1100 432.9666
v 629.8713 -97.3385 446.9657
v 624.5090 -98.6713 439.3672
v 641.4210 -97.1100 432.9666
v 579.2182 255.3742 399.1656
v 580.0490 256.2887 408.4792
v 596.9610 257.8500 402.0786
v 583.1416 255.1231 390.6326
v 579.2182 255.3742 399.1656
v 596.9610 257.8500 402.0786
v 590.7679 255.6026 385.1666
v 583.1416 255.1231 390.6326
v 596.9610 257.8500 402.0786
v 600.0536 256.6844 384.2320
v 590.7679 255.6026 385.1666
v 596.9610 257.8500 402.0786
v 608.5107 258.0785 388.0795
v 600.0536 256.6844 384.2320
v 596.9610 257.8500 402.0786
v 613.8730 259.4113 395.6780
v 608.5107 258.0785 388.0795
v 596.9610 257.8500 402.0786
v 614.7038 260.3258 404.9916
v 613.8730 259.4113 395.6780
v 596.9610 257.8500 402.0786
v 610.7804 260.5769 413.5246
v 614.7038 260.3258 404.9916
v 596.9610 257.8500 402.0786
v 603.1541 260.0974 418.9906
v 610.7804 260.5769 413.5246
v 596.9610 257.8500 402.0786
v 593.8684 259.0156 419.9252
v 603.1541 260.0974 418.9906
v 596.9610 257.8500 402.0786
v 585.4113 257.6215 416.0777
v 593.8684 259.0156 419.9252
v 596.9610 257.8500 402.0786
v 580.0490 256.2887 408.4792
v 585.4113 257.6215 416.0777
v 596.9610 257.8500 402.0786
f 1 2 3
f 4 5 6
f 7 8 9
f 10 11 12
f 13 14 15
f 16 17 18
f 19 20 21
f 22 23 24
f 25 26 27
f 28 29 30
f 31 32 33
f 34 35 36
f 37 38 39
f 40 41 42
f 43 44 45
f 46 47 48
f 49 50 51
f 52 53 54
f 55 56 57
f 58 59 60
f 61 62 63
f 64 65 66
f 67 68 69
f 70 71 72
f 73 74 75
f 76 77 78
f 79 80 81
f 82 83 84
f 85 86 87
f 88 89 90
f 91 92 93
f 94 95 96
f 97 98 99
f 100 101 102
f 103 104 105
f 106 107 108
f 109 110 111
f 112 113 114
f 115 116 117
f 118 119 120
f 121 122 123
f 124 125 126
f 127 128 129
f 130 131 132
f 133 134 135
f 136 137 138
f 139 140 141
f 142 143 144
f 145 146 147
f 148 149 150
f 151 152 153
f 154 155 156
f 157 158 159
f 160 161 162
f 163 164 165
f 166 167 168
f 169 170 171
f 172 173 174
f 175 176 177
f 178 179 180
f 181 182 183
f 184 185 186
f 187 188 189
f 190 191 192
f 193 194 195
f 196 197 198
f 199 200 201
f 202 203 204
f 205 206 207
f 208 209 210
f 211 212 213
f 214 215 216
f 217 218 219
f 220 221 222
f 223 224 225
f 226 227 228
f 229 230 231
f 232 233 234
f 235 236 237
f 238 239 240
f 241 242 243
f 244 245 246
f 247 248 249
f 250 251 252
f 253 254 255
f 256 257 258
f 259 260 261
f 262 263 264
f 265 266 267
f 268 269 270
f 271 272 273
f 274 275 276
f 277 278 279
f 280 281 282
f 283 284 285
f 286 287 288
f 289 290 291
f 292 293 294
f 295 296 297
f 298 299 300
f 301 302 303
f 304 305 306
f 307 308 309
f 310 311 312
f 313 314 315
f 316 317 318
f 319 320 321
f 322 323 324
f 325 326 327
f 328 329 330
f 331 332 333
f 334 335 336
f 337 338 339
f 340 341 342
f 343 344 345
f 346 347 348
f 349 350 351
f 352 353 354
f 355 356 357
f 358 359 360
f 361 362 363
f 364 365 366
f 367 368 369
f 370 371 372
f 373 374 375
f 376 377 378
f 379 380 381
f 382 383 384
f 385 386 387
f 388 389 390
f 391 392 393
f 394 395 396
f 397 398 399
f 400 401 402
f 403 404 405
f 406 407 408
f 409 410 411
f 412 413 414
f 415 416 417
f 418 419 420
f 421 422 423
f 424 425 426
f 427 428 429
f 430 431 432
f 433 434 435
f 436 437 438
f 439 440 441
f 442 443 444
f 445 446 447
f 448 449 450
f 451 452 453
f 454 455 456
f 457 458 459
f 460 461 462
f 463 464 465
f 466 467 468
f 469 470 471
f 472 473 474
f 475 476 477
f 478 479 480
f 481 482 483
f 484 485 486
f 487 488 489
f 490 491 492
f 493 494 495
f 496 497 498
f 499 500 501
f 502 503 504
f 505 506 507
f 508 509 510
f 511 512 513
f 514 515 516
f 517 518 519
f 520 521 522
f 523 524 525
f 526 527 528
f 529 530 531
f 532 533 534
f 535 536 537
f 538 539 540
f 541 542 543
f 544 545 546
f 547 548 549
f 550 551 552
f 553 554 555
f 556 557 558
f 559 560 561
f 562 563 564
f 565 566 567
f 568 569 570
f 571 572 573
f 574 575 576
f 577 578 579
f 580 581 582
f 583 584 585
f 586 587 588
f 589 590 591
f 592 593 594
f 595 596 597
f 598 599 600
f 601 602 603
f 604 605 606
f 607 608 609
f 610 611 612
