# MATERIA - 413 Cab
# Geometria originale di studio. Unita mm. Non CAD del produttore.
v -419.2361 -212.0062 -339.0695
v -391.1561 214.0138 -314.7335
v -418.3441 -211.6458 -346.4090
v -391.1561 214.0138 -314.7335
v -390.2641 214.3742 -322.0730
v -418.3441 -211.6458 -346.4090
v -418.3441 -211.6458 -346.4090
v -390.2641 214.3742 -322.0730
v -413.9055 -211.5999 -352.3326
v -390.2641 214.3742 -322.0730
v -385.8255 214.4201 -327.9966
v -413.9055 -211.5999 -352.3326
v -413.9055 -211.5999 -352.3326
v -385.8255 214.4201 -327.9966
v -407.1096 -211.8810 -355.2533
v -385.8255 214.4201 -327.9966
v -379.0296 214.1390 -330.9173
v -407.1096 -211.8810 -355.2533
v -407.1096 -211.8810 -355.2533
v -379.0296 214.1390 -330.9173
v -399.7774 -212.4137 -354.3883
v -379.0296 214.1390 -330.9173
v -371.6974 213.6063 -330.0523
v -399.7774 -212.4137 -354.3883
v -399.7774 -212.4137 -354.3883
v -371.6974 213.6063 -330.0523
v -393.8735 -213.0553 -349.9695
v -371.6974 213.6063 -330.0523
v -365.7935 212.9647 -325.6335
v -393.8735 -213.0553 -349.9695
v -393.8735 -213.0553 -349.9695
v -365.7935 212.9647 -325.6335
v -390.9799 -213.6338 -343.1809
v -365.7935 212.9647 -325.6335
v -362.8999 212.3862 -318.8449
v -390.9799 -213.6338 -343.1809
v -390.9799 -213.6338 -343.1809
v -362.8999 212.3862 -318.8449
v -391.8719 -213.9942 -335.8414
v -362.8999 212.3862 -318.8449
v -363.7919 212.0258 -311.5054
v -391.8719 -213.9942 -335.8414
v -391.8719 -213.9942 -335.8414
v -363.7919 212.0258 -311.5054
v -396.3105 -214.0401 -329.9178
v -363.7919 212.0258 -311.5054
v -368.2305 211.9799 -305.5818
v -396.3105 -214.0401 -329.9178
v -396.3105 -214.0401 -329.9178
v -368.2305 211.9799 -305.5818
v -403.1064 -213.7590 -326.9971
v -368.2305 211.9799 -305.5818
v -375.0264 212.2610 -302.6611
v -403.1064 -213.7590 -326.9971
v -403.1064 -213.7590 -326.9971
v -375.0264 212.2610 -302.6611
v -410.4386 -213.2263 -327.8621
v -375.0264 212.2610 -302.6611
v -382.3586 212.7937 -303.5261
v -410.4386 -213.2263 -327.8621
v -410.4386 -213.2263 -327.8621
v -382.3586 212.7937 -303.5261
v -416.3425 -212.5847 -332.2809
v -382.3586 212.7937 -303.5261
v -388.2625 213.4353 -307.9449
v -416.3425 -212.5847 -332.2809
v -416.3425 -212.5847 -332.2809
v -388.2625 213.4353 -307.9449
v -419.2361 -212.0062 -339.0695
v -388.2625 213.4353 -307.9449
v -391.1561 214.0138 -314.7335
v -419.2361 -212.0062 -339.0695
v -419.2361 -212.0062 -339.0695
v -418.3441 -211.6458 -346.4090
v -405.1080 -212.8200 -341.1252
v -418.3441 -211.6458 -346.4090
v -413.9055 -211.5999 -352.3326
v -405.1080 -212.8200 -341.1252
v -413.9055 -211.5999 -352.3326
v -407.1096 -211.8810 -355.2533
v -405.1080 -212.8200 -341.1252
v -407.1096 -211.8810 -355.2533
v -399.7774 -212.4137 -354.3883
v -405.1080 -212.8200 -341.1252
v -399.7774 -212.4137 -354.3883
v -393.8735 -213.0553 -349.9695
v -405.1080 -212.8200 -341.1252
v -393.8735 -213.0553 -349.9695
v -390.9799 -213.6338 -343.1809
v -405.1080 -212.8200 -341.1252
v -390.9799 -213.6338 -343.1809
v -391.8719 -213.9942 -335.8414
v -405.1080 -212.8200 -341.1252
v -391.8719 -213.9942 -335.8414
v -396.3105 -214.0401 -329.9178
v -405.1080 -212.8200 -341.1252
v -396.3105 -214.0401 -329.9178
v -403.1064 -213.7590 -326.9971
v -405.1080 -212.8200 -341.1252
v -403.1064 -213.7590 -326.9971
v -410.4386 -213.2263 -327.8621
v -405.1080 -212.8200 -341.1252
v -410.4386 -213.2263 -327.8621
v -416.3425 -212.5847 -332.2809
v -405.1080 -212.8200 -341.1252
v -416.3425 -212.5847 -332.2809
v -419.2361 -212.0062 -339.0695
v -405.1080 -212.8200 -341.1252
v -390.2641 214.3742 -322.0730
v -391.1561 214.0138 -314.7335
v -377.0280 213.2000 -316.7892
v -385.8255 214.4201 -327.9966
v -390.2641 214.3742 -322.0730
v -377.0280 213.2000 -316.7892
v -379.0296 214.1390 -330.9173
v -385.8255 214.4201 -327.9966
v -377.0280 213.2000 -316.7892
v -371.6974 213.6063 -330.0523
v -379.0296 214.1390 -330.9173
v -377.0280 213.2000 -316.7892
v -365.7935 212.9647 -325.6335
v -371.6974 213.6063 -330.0523
v -377.0280 213.2000 -316.7892
v -362.8999 212.3862 -318.8449
v -365.7935 212.9647 -325.6335
v -377.0280 213.2000 -316.7892
v -363.7919 212.0258 -311.5054
v -362.8999 212.3862 -318.8449
v -377.0280 213.2000 -316.7892
v -368.2305 211.9799 -305.5818
v -363.7919 212.0258 -311.5054
v -377.0280 213.2000 -316.7892
v -375.0264 212.2610 -302.6611
v -368.2305 211.9799 -305.5818
v -377.0280 213.2000 -316.7892
v -382.3586 212.7937 -303.5261
v -375.0264 212.2610 -302.6611
v -377.0280 213.2000 -316.7892
v -388.2625 213.4353 -307.9449
v -382.3586 212.7937 -303.5261
v -377.0280 213.2000 -316.7892
v -391.1561 214.0138 -314.7335
v -388.2625 213.4353 -307.9449
v -377.0280 213.2000 -316.7892
v 419.2361 -64.4062 -339.0695
v 391.1561 361.6138 -314.7335
v 416.3425 -64.9847 -332.2809
v 391.1561 361.6138 -314.7335
v 388.2625 361.0353 -307.9449
v 416.3425 -64.9847 -332.2809
v 416.3425 -64.9847 -332.2809
v 388.2625 361.0353 -307.9449
v 410.4386 -65.6263 -327.8621
v 388.2625 361.0353 -307.9449
v 382.3586 360.3937 -303.5261
v 410.4386 -65.6263 -327.8621
v 410.4386 -65.6263 -327.8621
v 382.3586 360.3937 -303.5261
v 403.1064 -66.1590 -326.9971
v 382.3586 360.3937 -303.5261
v 375.0264 359.8610 -302.6611
v 403.1064 -66.1590 -326.9971
v 403.1064 -66.1590 -326.9971
v 375.0264 359.8610 -302.6611
v 396.3105 -66.4401 -329.9178
v 375.0264 359.8610 -302.6611
v 368.2305 359.5799 -305.5818
v 396.3105 -66.4401 -329.9178
v 396.3105 -66.4401 -329.9178
v 368.2305 359.5799 -305.5818
v 391.8719 -66.3942 -335.8414
v 368.2305 359.5799 -305.5818
v 363.7919 359.6258 -311.5054
v 391.8719 -66.3942 -335.8414
v 391.8719 -66.3942 -335.8414
v 363.7919 359.6258 -311.5054
v 390.9799 -66.0338 -343.1809
v 363.7919 359.6258 -311.5054
v 362.8999 359.9862 -318.8449
v 390.9799 -66.0338 -343.1809
v 390.9799 -66.0338 -343.1809
v 362.8999 359.9862 -318.8449
v 393.8735 -65.4553 -349.9695
v 362.8999 359.9862 -318.8449
v 365.7935 360.5647 -325.6335
v 393.8735 -65.4553 -349.9695
v 393.8735 -65.4553 -349.9695
v 365.7935 360.5647 -325.6335
v 399.7774 -64.8137 -354.3883
v 365.7935 360.5647 -325.6335
v 371.6974 361.2063 -330.0523
v 399.7774 -64.8137 -354.3883
v 399.7774 -64.8137 -354.3883
v 371.6974 361.2063 -330.0523
v 407.1096 -64.2810 -355.2533
v 371.6974 361.2063 -330.0523
v 379.0296 361.7390 -330.9173
v 407.1096 -64.2810 -355.2533
v 407.1096 -64.2810 -355.2533
v 379.0296 361.7390 -330.9173
v 413.9055 -63.9999 -352.3326
v 379.0296 361.7390 -330.9173
v 385.8255 362.0201 -327.9966
v 413.9055 -63.9999 -352.3326
v 413.9055 -63.9999 -352.3326
v 385.8255 362.0201 -327.9966
v 418.3441 -64.0458 -346.4090
v 385.8255 362.0201 -327.9966
v 390.2641 361.9742 -322.0730
v 418.3441 -64.0458 -346.4090
v 418.3441 -64.0458 -346.4090
v 390.2641 361.9742 -322.0730
v 419.2361 -64.4062 -339.0695
v 390.2641 361.9742 -322.0730
v 391.1561 361.6138 -314.7335
v 419.2361 -64.4062 -339.0695
v 419.2361 -64.4062 -339.0695
v 416.3425 -64.9847 -332.2809
v 405.1080 -65.2200 -341.1252
v 416.3425 -64.9847 -332.2809
v 410.4386 -65.6263 -327.8621
v 405.1080 -65.2200 -341.1252
v 410.4386 -65.6263 -327.8621
v 403.1064 -66.1590 -326.9971
v 405.1080 -65.2200 -341.1252
v 403.1064 -66.1590 -326.9971
v 396.3105 -66.4401 -329.9178
v 405.1080 -65.2200 -341.1252
v 396.3105 -66.4401 -329.9178
v 391.8719 -66.3942 -335.8414
v 405.1080 -65.2200 -341.1252
v 391.8719 -66.3942 -335.8414
v 390.9799 -66.0338 -343.1809
v 405.1080 -65.2200 -341.1252
v 390.9799 -66.0338 -343.1809
v 393.8735 -65.4553 -349.9695
v 405.1080 -65.2200 -341.1252
v 393.8735 -65.4553 -349.9695
v 399.7774 -64.8137 -354.3883
v 405.1080 -65.2200 -341.1252
v 399.7774 -64.8137 -354.3883
v 407.1096 -64.2810 -355.2533
v 405.1080 -65.2200 -341.1252
v 407.1096 -64.2810 -355.2533
v 413.9055 -63.9999 -352.3326
v 405.1080 -65.2200 -341.1252
v 413.9055 -63.9999 -352.3326
v 418.3441 -64.0458 -346.4090
v 405.1080 -65.2200 -341.1252
v 418.3441 -64.0458 -346.4090
v 419.2361 -64.4062 -339.0695
v 405.1080 -65.2200 -341.1252
v 388.2625 361.0353 -307.9449
v 391.1561 361.6138 -314.7335
v 377.0280 360.8000 -316.7892
v 382.3586 360.3937 -303.5261
v 388.2625 361.0353 -307.9449
v 377.0280 360.8000 -316.7892
v 375.0264 359.8610 -302.6611
v 382.3586 360.3937 -303.5261
v 377.0280 360.8000 -316.7892
v 368.2305 359.5799 -305.5818
v 375.0264 359.8610 -302.6611
v 377.0280 360.8000 -316.7892
v 363.7919 359.6258 -311.5054
v 368.2305 359.5799 -305.5818
v 377.0280 360.8000 -316.7892
v 362.8999 359.9862 -318.8449
v 363.7919 359.6258 -311.5054
v 377.0280 360.8000 -316.7892
v 365.7935 360.5647 -325.6335
v 362.8999 359.9862 -318.8449
v 377.0280 360.8000 -316.7892
v 371.6974 361.2063 -330.0523
v 365.7935 360.5647 -325.6335
v 377.0280 360.8000 -316.7892
v 379.0296 361.7390 -330.9173
v 371.6974 361.2063 -330.0523
v 377.0280 360.8000 -316.7892
v 385.8255 362.0201 -327.9966
v 379.0296 361.7390 -330.9173
v 377.0280 360.8000 -316.7892
v 390.2641 361.9742 -322.0730
v 385.8255 362.0201 -327.9966
v 377.0280 360.8000 -316.7892
v 391.1561 361.6138 -314.7335
v 390.2641 361.9742 -322.0730
v 377.0280 360.8000 -316.7892
v -390.9799 81.5662 343.1809
v -362.8999 507.5862 318.8449
v -393.8735 82.1447 349.9695
v -362.8999 507.5862 318.8449
v -365.7935 508.1647 325.6335
v -393.8735 82.1447 349.9695
v -393.8735 82.1447 349.9695
v -365.7935 508.1647 325.6335
v -399.7774 82.7863 354.3883
v -365.7935 508.1647 325.6335
v -371.6974 508.8063 330.0523
v -399.7774 82.7863 354.3883
v -399.7774 82.7863 354.3883
v -371.6974 508.8063 330.0523
v -407.1096 83.3190 355.2533
v -371.6974 508.8063 330.0523
v -379.0296 509.3390 330.9173
v -407.1096 83.3190 355.2533
v -407.1096 83.3190 355.2533
v -379.0296 509.3390 330.9173
v -413.9055 83.6001 352.3326
v -379.0296 509.3390 330.9173
v -385.8255 509.6201 327.9966
v -413.9055 83.6001 352.3326
v -413.9055 83.6001 352.3326
v -385.8255 509.6201 327.9966
v -418.3441 83.5542 346.4090
v -385.8255 509.6201 327.9966
v -390.2641 509.5742 322.0730
v -418.3441 83.5542 346.4090
v -418.3441 83.5542 346.4090
v -390.2641 509.5742 322.0730
v -419.2361 83.1938 339.0695
v -390.2641 509.5742 322.0730
v -391.1561 509.2138 314.7335
v -419.2361 83.1938 339.0695
v -419.2361 83.1938 339.0695
v -391.1561 509.2138 314.7335
v -416.3425 82.6153 332.2809
v -391.1561 509.2138 314.7335
v -388.2625 508.6353 307.9449
v -416.3425 82.6153 332.2809
v -416.3425 82.6153 332.2809
v -388.2625 508.6353 307.9449
v -410.4386 81.9737 327.8621
v -388.2625 508.6353 307.9449
v -382.3586 507.9937 303.5261
v -410.4386 81.9737 327.8621
v -410.4386 81.9737 327.8621
v -382.3586 507.9937 303.5261
v -403.1064 81.4410 326.9971
v -382.3586 507.9937 303.5261
v -375.0264 507.4610 302.6611
v -403.1064 81.4410 326.9971
v -403.1064 81.4410 326.9971
v -375.0264 507.4610 302.6611
v -396.3105 81.1599 329.9178
v -375.0264 507.4610 302.6611
v -368.2305 507.1799 305.5818
v -396.3105 81.1599 329.9178
v -396.3105 81.1599 329.9178
v -368.2305 507.1799 305.5818
v -391.8719 81.2058 335.8414
v -368.2305 507.1799 305.5818
v -363.7919 507.2258 311.5054
v -391.8719 81.2058 335.8414
v -391.8719 81.2058 335.8414
v -363.7919 507.2258 311.5054
v -390.9799 81.5662 343.1809
v -363.7919 507.2258 311.5054
v -362.8999 507.5862 318.8449
v -390.9799 81.5662 343.1809
v -390.9799 81.5662 343.1809
v -393.8735 82.1447 349.9695
v -405.1080 82.3800 341.1252
v -393.8735 82.1447 349.9695
v -399.7774 82.7863 354.3883
v -405.1080 82.3800 341.1252
v -399.7774 82.7863 354.3883
v -407.1096 83.3190 355.2533
v -405.1080 82.3800 341.1252
v -407.1096 83.3190 355.2533
v -413.9055 83.6001 352.3326
v -405.1080 82.3800 341.1252
v -413.9055 83.6001 352.3326
v -418.3441 83.5542 346.4090
v -405.1080 82.3800 341.1252
v -418.3441 83.5542 346.4090
v -419.2361 83.1938 339.0695
v -405.1080 82.3800 341.1252
v -419.2361 83.1938 339.0695
v -416.3425 82.6153 332.2809
v -405.1080 82.3800 341.1252
v -416.3425 82.6153 332.2809
v -410.4386 81.9737 327.8621
v -405.1080 82.3800 341.1252
v -410.4386 81.9737 327.8621
v -403.1064 81.4410 326.9971
v -405.1080 82.3800 341.1252
v -403.1064 81.4410 326.9971
v -396.3105 81.1599 329.9178
v -405.1080 82.3800 341.1252
v -396.3105 81.1599 329.9178
v -391.8719 81.2058 335.8414
v -405.1080 82.3800 341.1252
v -391.8719 81.2058 335.8414
v -390.9799 81.5662 343.1809
v -405.1080 82.3800 341.1252
v -365.7935 508.1647 325.6335
v -362.8999 507.5862 318.8449
v -377.0280 508.4000 316.7892
v -371.6974 508.8063 330.0523
v -365.7935 508.1647 325.6335
v -377.0280 508.4000 316.7892
v -379.0296 509.3390 330.9173
v -371.6974 508.8063 330.0523
v -377.0280 508.4000 316.7892
v -385.8255 509.6201 327.9966
v -379.0296 509.3390 330.9173
v -377.0280 508.4000 316.7892
v -390.2641 509.5742 322.0730
v -385.8255 509.6201 327.9966
v -377.0280 508.4000 316.7892
v -391.1561 509.2138 314.7335
v -390.2641 509.5742 322.0730
v -377.0280 508.4000 316.7892
v -388.2625 508.6353 307.9449
v -391.1561 509.2138 314.7335
v -377.0280 508.4000 316.7892
v -382.3586 507.9937 303.5261
v -388.2625 508.6353 307.9449
v -377.0280 508.4000 316.7892
v -375.0264 507.4610 302.6611
v -382.3586 507.9937 303.5261
v -377.0280 508.4000 316.7892
v -368.2305 507.1799 305.5818
v -375.0264 507.4610 302.6611
v -377.0280 508.4000 316.7892
v -363.7919 507.2258 311.5054
v -368.2305 507.1799 305.5818
v -377.0280 508.4000 316.7892
v -362.8999 507.5862 318.8449
v -363.7919 507.2258 311.5054
v -377.0280 508.4000 316.7892
v 390.9799 229.1662 343.1809
v 362.8999 655.1862 318.8449
v 391.8719 228.8058 335.8414
v 362.8999 655.1862 318.8449
v 363.7919 654.8258 311.5054
v 391.8719 228.8058 335.8414
v 391.8719 228.8058 335.8414
v 363.7919 654.8258 311.5054
v 396.3105 228.7599 329.9178
v 363.7919 654.8258 311.5054
v 368.2305 654.7799 305.5818
v 396.3105 228.7599 329.9178
v 396.3105 228.7599 329.9178
v 368.2305 654.7799 305.5818
v 403.1064 229.0410 326.9971
v 368.2305 654.7799 305.5818
v 375.0264 655.0610 302.6611
v 403.1064 229.0410 326.9971
v 403.1064 229.0410 326.9971
v 375.0264 655.0610 302.6611
v 410.4386 229.5737 327.8621
v 375.0264 655.0610 302.6611
v 382.3586 655.5937 303.5261
v 410.4386 229.5737 327.8621
v 410.4386 229.5737 327.8621
v 382.3586 655.5937 303.5261
v 416.3425 230.2153 332.2809
v 382.3586 655.5937 303.5261
v 388.2625 656.2353 307.9449
v 416.3425 230.2153 332.2809
v 416.3425 230.2153 332.2809
v 388.2625 656.2353 307.9449
v 419.2361 230.7938 339.0695
v 388.2625 656.2353 307.9449
v 391.1561 656.8138 314.7335
v 419.2361 230.7938 339.0695
v 419.2361 230.7938 339.0695
v 391.1561 656.8138 314.7335
v 418.3441 231.1542 346.4090
v 391.1561 656.8138 314.7335
v 390.2641 657.1742 322.0730
v 418.3441 231.1542 346.4090
v 418.3441 231.1542 346.4090
v 390.2641 657.1742 322.0730
v 413.9055 231.2001 352.3326
v 390.2641 657.1742 322.0730
v 385.8255 657.2201 327.9966
v 413.9055 231.2001 352.3326
v 413.9055 231.2001 352.3326
v 385.8255 657.2201 327.9966
v 407.1096 230.9190 355.2533
v 385.8255 657.2201 327.9966
v 379.0296 656.9390 330.9173
v 407.1096 230.9190 355.2533
v 407.1096 230.9190 355.2533
v 379.0296 656.9390 330.9173
v 399.7774 230.3863 354.3883
v 379.0296 656.9390 330.9173
v 371.6974 656.4063 330.0523
v 399.7774 230.3863 354.3883
v 399.7774 230.3863 354.3883
v 371.6974 656.4063 330.0523
v 393.8735 229.7447 349.9695
v 371.6974 656.4063 330.0523
v 365.7935 655.7647 325.6335
v 393.8735 229.7447 349.9695
v 393.8735 229.7447 349.9695
v 365.7935 655.7647 325.6335
v 390.9799 229.1662 343.1809
v 365.7935 655.7647 325.6335
v 362.8999 655.1862 318.8449
v 390.9799 229.1662 343.1809
v 390.9799 229.1662 343.1809
v 391.8719 228.8058 335.8414
v 405.1080 229.9800 341.1252
v 391.8719 228.8058 335.8414
v 396.3105 228.7599 329.9178
v 405.1080 229.9800 341.1252
v 396.3105 228.7599 329.9178
v 403.1064 229.0410 326.9971
v 405.1080 229.9800 341.1252
v 403.1064 229.0410 326.9971
v 410.4386 229.5737 327.8621
v 405.1080 229.9800 341.1252
v 410.4386 229.5737 327.8621
v 416.3425 230.2153 332.2809
v 405.1080 229.9800 341.1252
v 416.3425 230.2153 332.2809
v 419.2361 230.7938 339.0695
v 405.1080 229.9800 341.1252
v 419.2361 230.7938 339.0695
v 418.3441 231.1542 346.4090
v 405.1080 229.9800 341.1252
v 418.3441 231.1542 346.4090
v 413.9055 231.2001 352.3326
v 405.1080 229.9800 341.1252
v 413.9055 231.2001 352.3326
v 407.1096 230.9190 355.2533
v 405.1080 229.9800 341.1252
v 407.1096 230.9190 355.2533
v 399.7774 230.3863 354.3883
v 405.1080 229.9800 341.1252
v 399.7774 230.3863 354.3883
v 393.8735 229.7447 349.9695
v 405.1080 229.9800 341.1252
v 393.8735 229.7447 349.9695
v 390.9799 229.1662 343.1809
v 405.1080 229.9800 341.1252
v 363.7919 654.8258 311.5054
v 362.8999 655.1862 318.8449
v 377.0280 656.0000 316.7892
v 368.2305 654.7799 305.5818
v 363.7919 654.8258 311.5054
v 377.0280 656.0000 316.7892
v 375.0264 655.0610 302.6611
v 368.2305 654.7799 305.5818
v 377.0280 656.0000 316.7892
v 382.3586 655.5937 303.5261
v 375.0264 655.0610 302.6611
v 377.0280 656.0000 316.7892
v 388.2625 656.2353 307.9449
v 382.3586 655.5937 303.5261
v 377.0280 656.0000 316.7892
v 391.1561 656.8138 314.7335
v 388.2625 656.2353 307.9449
v 377.0280 656.0000 316.7892
v 390.2641 657.1742 322.0730
v 391.1561 656.8138 314.7335
v 377.0280 656.0000 316.7892
v 385.8255 657.2201 327.9966
v 390.2641 657.1742 322.0730
v 377.0280 656.0000 316.7892
v 379.0296 656.9390 330.9173
v 385.8255 657.2201 327.9966
v 377.0280 656.0000 316.7892
v 371.6974 656.4063 330.0523
v 379.0296 656.9390 330.9173
v 377.0280 656.0000 316.7892
v 365.7935 655.7647 325.6335
v 371.6974 656.4063 330.0523
v 377.0280 656.0000 316.7892
v 362.8999 655.1862 318.8449
v 365.7935 655.7647 325.6335
v 377.0280 656.0000 316.7892
v 276.0000 236.0800 223.6000
v 276.0000 190.3200 223.6000
v 276.0000 236.0800 -223.6000
v 276.0000 190.3200 223.6000
v 276.0000 190.3200 -223.6000
v 276.0000 236.0800 -223.6000
v -276.0000 236.0800 -223.6000
v -276.0000 190.3200 -223.6000
v -276.0000 236.0800 223.6000
v -276.0000 190.3200 -223.6000
v -276.0000 190.3200 223.6000
v -276.0000 236.0800 223.6000
v -276.0000 236.0800 -223.6000
v -276.0000 236.0800 223.6000
v 276.0000 236.0800 -223.6000
v -276.0000 236.0800 223.6000
v 276.0000 236.0800 223.6000
v 276.0000 236.0800 -223.6000
v -276.0000 190.3200 223.6000
v -276.0000 190.3200 -223.6000
v 276.0000 190.3200 223.6000
v -276.0000 190.3200 -223.6000
v 276.0000 190.3200 -223.6000
v 276.0000 190.3200 223.6000
v -276.0000 236.0800 223.6000
v -276.0000 190.3200 223.6000
v 276.0000 236.0800 223.6000
v -276.0000 190.3200 223.6000
v 276.0000 190.3200 223.6000
v 276.0000 236.0800 223.6000
v 276.0000 236.0800 -223.6000
v 276.0000 190.3200 -223.6000
v -276.0000 236.0800 -223.6000
v 276.0000 190.3200 -223.6000
v -276.0000 190.3200 -223.6000
v -276.0000 236.0800 -223.6000
v 216.0000 332.2000 -296.0100
v -216.0000 332.2000 -296.0100
v 216.0000 325.7650 -297.7343
v -216.0000 332.2000 -296.0100
v -216.0000 325.7650 -297.7343
v 216.0000 325.7650 -297.7343
v 216.0000 325.7650 -297.7343
v -216.0000 325.7650 -297.7343
v 216.0000 321.0543 -302.4450
v -216.0000 325.7650 -297.7343
v -216.0000 321.0543 -302.4450
v 216.0000 321.0543 -302.4450
v 216.0000 321.0543 -302.4450
v -216.0000 321.0543 -302.4450
v 216.0000 319.3300 -308.8800
v -216.0000 321.0543 -302.4450
v -216.0000 319.3300 -308.8800
v 216.0000 319.3300 -308.8800
v 216.0000 319.3300 -308.8800
v -216.0000 319.3300 -308.8800
v 216.0000 321.0543 -315.3150
v -216.0000 319.3300 -308.8800
v -216.0000 321.0543 -315.3150
v 216.0000 321.0543 -315.3150
v 216.0000 321.0543 -315.3150
v -216.0000 321.0543 -315.3150
v 216.0000 325.7650 -320.0257
v -216.0000 321.0543 -315.3150
v -216.0000 325.7650 -320.0257
v 216.0000 325.7650 -320.0257
v 216.0000 325.7650 -320.0257
v -216.0000 325.7650 -320.0257
v 216.0000 332.2000 -321.7500
v -216.0000 325.7650 -320.0257
v -216.0000 332.2000 -321.7500
v 216.0000 332.2000 -321.7500
v 216.0000 332.2000 -321.7500
v -216.0000 332.2000 -321.7500
v 216.0000 338.6350 -320.0257
v -216.0000 332.2000 -321.7500
v -216.0000 338.6350 -320.0257
v 216.0000 338.6350 -320.0257
v 216.0000 338.6350 -320.0257
v -216.0000 338.6350 -320.0257
v 216.0000 343.3457 -315.3150
v -216.0000 338.6350 -320.0257
v -216.0000 343.3457 -315.3150
v 216.0000 343.3457 -315.3150
v 216.0000 343.3457 -315.3150
v -216.0000 343.3457 -315.3150
v 216.0000 345.0700 -308.8800
v -216.0000 343.3457 -315.3150
v -216.0000 345.0700 -308.8800
v 216.0000 345.0700 -308.8800
v 216.0000 345.0700 -308.8800
v -216.0000 345.0700 -308.8800
v 216.0000 343.3457 -302.4450
v -216.0000 345.0700 -308.8800
v -216.0000 343.3457 -302.4450
v 216.0000 343.3457 -302.4450
v 216.0000 343.3457 -302.4450
v -216.0000 343.3457 -302.4450
v 216.0000 338.6350 -297.7343
v -216.0000 343.3457 -302.4450
v -216.0000 338.6350 -297.7343
v 216.0000 338.6350 -297.7343
v 216.0000 338.6350 -297.7343
v -216.0000 338.6350 -297.7343
v 216.0000 332.2000 -296.0100
v -216.0000 338.6350 -297.7343
v -216.0000 332.2000 -296.0100
v 216.0000 332.2000 -296.0100
v 216.0000 332.2000 -296.0100
v 216.0000 325.7650 -297.7343
v 216.0000 332.2000 -308.8800
v 216.0000 325.7650 -297.7343
v 216.0000 321.0543 -302.4450
v 216.0000 332.2000 -308.8800
v 216.0000 321.0543 -302.4450
v 216.0000 319.3300 -308.8800
v 216.0000 332.2000 -308.8800
v 216.0000 319.3300 -308.8800
v 216.0000 321.0543 -315.3150
v 216.0000 332.2000 -308.8800
v 216.0000 321.0543 -315.3150
v 216.0000 325.7650 -320.0257
v 216.0000 332.2000 -308.8800
v 216.0000 325.7650 -320.0257
v 216.0000 332.2000 -321.7500
v 216.0000 332.2000 -308.8800
v 216.0000 332.2000 -321.7500
v 216.0000 338.6350 -320.0257
v 216.0000 332.2000 -308.8800
v 216.0000 338.6350 -320.0257
v 216.0000 343.3457 -315.3150
v 216.0000 332.2000 -308.8800
v 216.0000 343.3457 -315.3150
v 216.0000 345.0700 -308.8800
v 216.0000 332.2000 -308.8800
v 216.0000 345.0700 -308.8800
v 216.0000 343.3457 -302.4450
v 216.0000 332.2000 -308.8800
v 216.0000 343.3457 -302.4450
v 216.0000 338.6350 -297.7343
v 216.0000 332.2000 -308.8800
v 216.0000 338.6350 -297.7343
v 216.0000 332.2000 -296.0100
v 216.0000 332.2000 -308.8800
v -216.0000 325.7650 -297.7343
v -216.0000 332.2000 -296.0100
v -216.0000 332.2000 -308.8800
v -216.0000 321.0543 -302.4450
v -216.0000 325.7650 -297.7343
v -216.0000 332.2000 -308.8800
v -216.0000 319.3300 -308.8800
v -216.0000 321.0543 -302.4450
v -216.0000 332.2000 -308.8800
v -216.0000 321.0543 -315.3150
v -216.0000 319.3300 -308.8800
v -216.0000 332.2000 -308.8800
v -216.0000 325.7650 -320.0257
v -216.0000 321.0543 -315.3150
v -216.0000 332.2000 -308.8800
v -216.0000 332.2000 -321.7500
v -216.0000 325.7650 -320.0257
v -216.0000 332.2000 -308.8800
v -216.0000 338.6350 -320.0257
v -216.0000 332.2000 -321.7500
v -216.0000 332.2000 -308.8800
v -216.0000 343.3457 -315.3150
v -216.0000 338.6350 -320.0257
v -216.0000 332.2000 -308.8800
v -216.0000 345.0700 -308.8800
v -216.0000 343.3457 -315.3150
v -216.0000 332.2000 -308.8800
v -216.0000 343.3457 -302.4450
v -216.0000 345.0700 -308.8800
v -216.0000 332.2000 -308.8800
v -216.0000 338.6350 -297.7343
v -216.0000 343.3457 -302.4450
v -216.0000 332.2000 -308.8800
v -216.0000 332.2000 -296.0100
v -216.0000 338.6350 -297.7343
v -216.0000 332.2000 -308.8800
v -375.2956 864.6754 341.5505
v -369.2956 507.8754 325.9505
v -369.2910 864.8466 339.9450
v -369.2956 507.8754 325.9505
v -363.2910 508.0466 324.3450
v -369.2910 864.8466 339.9450
v -369.2910 864.8466 339.9450
v -363.2910 508.0466 324.3450
v -364.8966 865.1124 335.5541
v -363.2910 508.0466 324.3450
v -358.8966 508.3124 319.9541
v -364.8966 865.1124 335.5541
v -364.8966 865.1124 335.5541
v -358.8966 508.3124 319.9541
v -363.2897 865.4018 329.5544
v -358.8966 508.3124 319.9541
v -357.2897 508.6018 313.9544
v -363.2897 865.4018 329.5544
v -363.2897 865.4018 329.5544
v -357.2897 508.6018 313.9544
v -364.9010 865.6370 323.5535
v -357.2897 508.6018 313.9544
v -358.9010 508.8370 307.9535
v -364.9010 865.6370 323.5535
v -364.9010 865.6370 323.5535
v -358.9010 508.8370 307.9535
v -369.2987 865.7552 319.1594
v -358.9010 508.8370 307.9535
v -363.2987 508.9552 303.5594
v -369.2987 865.7552 319.1594
v -369.2987 865.7552 319.1594
v -363.2987 508.9552 303.5594
v -375.3044 865.7246 317.5495
v -363.2987 508.9552 303.5594
v -369.3044 508.9246 301.9495
v -375.3044 865.7246 317.5495
v -375.3044 865.7246 317.5495
v -369.3044 508.9246 301.9495
v -381.3090 865.5534 319.1550
v -369.3044 508.9246 301.9495
v -375.3090 508.7534 303.5550
v -381.3090 865.5534 319.1550
v -381.3090 865.5534 319.1550
v -375.3090 508.7534 303.5550
v -385.7034 865.2876 323.5459
v -375.3090 508.7534 303.5550
v -379.7034 508.4876 307.9459
v -385.7034 865.2876 323.5459
v -385.7034 865.2876 323.5459
v -379.7034 508.4876 307.9459
v -387.3103 864.9982 329.5456
v -379.7034 508.4876 307.9459
v -381.3103 508.1982 313.9456
v -387.3103 864.9982 329.5456
v -387.3103 864.9982 329.5456
v -381.3103 508.1982 313.9456
v -385.6990 864.7630 335.5465
v -381.3103 508.1982 313.9456
v -379.6990 507.9630 319.9465
v -385.6990 864.7630 335.5465
v -385.6990 864.7630 335.5465
v -379.6990 507.9630 319.9465
v -381.3013 864.6448 339.9406
v -379.6990 507.9630 319.9465
v -375.3013 507.8448 324.3406
v -381.3013 864.6448 339.9406
v -381.3013 864.6448 339.9406
v -375.3013 507.8448 324.3406
v -375.2956 864.6754 341.5505
v -375.3013 507.8448 324.3406
v -369.2956 507.8754 325.9505
v -375.2956 864.6754 341.5505
v -375.2956 864.6754 341.5505
v -369.2910 864.8466 339.9450
v -375.3000 865.2000 329.5500
v -369.2910 864.8466 339.9450
v -364.8966 865.1124 335.5541
v -375.3000 865.2000 329.5500
v -364.8966 865.1124 335.5541
v -363.2897 865.4018 329.5544
v -375.3000 865.2000 329.5500
v -363.2897 865.4018 329.5544
v -364.9010 865.6370 323.5535
v -375.3000 865.2000 329.5500
v -364.9010 865.6370 323.5535
v -369.2987 865.7552 319.1594
v -375.3000 865.2000 329.5500
v -369.2987 865.7552 319.1594
v -375.3044 865.7246 317.5495
v -375.3000 865.2000 329.5500
v -375.3044 865.7246 317.5495
v -381.3090 865.5534 319.1550
v -375.3000 865.2000 329.5500
v -381.3090 865.5534 319.1550
v -385.7034 865.2876 323.5459
v -375.3000 865.2000 329.5500
v -385.7034 865.2876 323.5459
v -387.3103 864.9982 329.5456
v -375.3000 865.2000 329.5500
v -387.3103 864.9982 329.5456
v -385.6990 864.7630 335.5465
v -375.3000 865.2000 329.5500
v -385.6990 864.7630 335.5465
v -381.3013 864.6448 339.9406
v -375.3000 865.2000 329.5500
v -381.3013 864.6448 339.9406
v -375.2956 864.6754 341.5505
v -375.3000 865.2000 329.5500
v -363.2910 508.0466 324.3450
v -369.2956 507.8754 325.9505
v -369.3000 508.4000 313.9500
v -358.8966 508.3124 319.9541
v -363.2910 508.0466 324.3450
v -369.3000 508.4000 313.9500
v -357.2897 508.6018 313.9544
v -358.8966 508.3124 319.9541
v -369.3000 508.4000 313.9500
v -358.9010 508.8370 307.9535
v -357.2897 508.6018 313.9544
v -369.3000 508.4000 313.9500
v -363.2987 508.9552 303.5594
v -358.9010 508.8370 307.9535
v -369.3000 508.4000 313.9500
v -369.3044 508.9246 301.9495
v -363.2987 508.9552 303.5594
v -369.3000 508.4000 313.9500
v -375.3090 508.7534 303.5550
v -369.3044 508.9246 301.9495
v -369.3000 508.4000 313.9500
v -379.7034 508.4876 307.9459
v -375.3090 508.7534 303.5550
v -369.3000 508.4000 313.9500
v -381.3103 508.1982 313.9456
v -379.7034 508.4876 307.9459
v -369.3000 508.4000 313.9500
v -379.6990 507.9630 319.9465
v -381.3103 508.1982 313.9456
v -369.3000 508.4000 313.9500
v -375.3013 507.8448 324.3406
v -379.6990 507.9630 319.9465
v -369.3000 508.4000 313.9500
v -369.2956 507.8754 325.9505
v -375.3013 507.8448 324.3406
v -369.3000 508.4000 313.9500
v 375.2956 1012.2754 341.5505
v 369.2956 655.4754 325.9505
v 381.3013 1012.2448 339.9406
v 369.2956 655.4754 325.9505
v 375.3013 655.4448 324.3406
v 381.3013 1012.2448 339.9406
v 381.3013 1012.2448 339.9406
v 375.3013 655.4448 324.3406
v 385.6990 1012.3630 335.5465
v 375.3013 655.4448 324.3406
v 379.6990 655.5630 319.9465
v 385.6990 1012.3630 335.5465
v 385.6990 1012.3630 335.5465
v 379.6990 655.5630 319.9465
v 387.3103 1012.5982 329.5456
v 379.6990 655.5630 319.9465
v 381.3103 655.7982 313.9456
v 387.3103 1012.5982 329.5456
v 387.3103 1012.5982 329.5456
v 381.3103 655.7982 313.9456
v 385.7034 1012.8876 323.5459
v 381.3103 655.7982 313.9456
v 379.7034 656.0876 307.9459
v 385.7034 1012.8876 323.5459
v 385.7034 1012.8876 323.5459
v 379.7034 656.0876 307.9459
v 381.3090 1013.1534 319.1550
v 379.7034 656.0876 307.9459
v 375.3090 656.3534 303.5550
v 381.3090 1013.1534 319.1550
v 381.3090 1013.1534 319.1550
v 375.3090 656.3534 303.5550
v 375.3044 1013.3246 317.5495
v 375.3090 656.3534 303.5550
v 369.3044 656.5246 301.9495
v 375.3044 1013.3246 317.5495
v 375.3044 1013.3246 317.5495
v 369.3044 656.5246 301.9495
v 369.2987 1013.3552 319.1594
v 369.3044 656.5246 301.9495
v 363.2987 656.5552 303.5594
v 369.2987 1013.3552 319.1594
v 369.2987 1013.3552 319.1594
v 363.2987 656.5552 303.5594
v 364.9010 1013.2370 323.5535
v 363.2987 656.5552 303.5594
v 358.9010 656.4370 307.9535
v 364.9010 1013.2370 323.5535
v 364.9010 1013.2370 323.5535
v 358.9010 656.4370 307.9535
v 363.2897 1013.0018 329.5544
v 358.9010 656.4370 307.9535
v 357.2897 656.2018 313.9544
v 363.2897 1013.0018 329.5544
v 363.2897 1013.0018 329.5544
v 357.2897 656.2018 313.9544
v 364.8966 1012.7124 335.5541
v 357.2897 656.2018 313.9544
v 358.8966 655.9124 319.9541
v 364.8966 1012.7124 335.5541
v 364.8966 1012.7124 335.5541
v 358.8966 655.9124 319.9541
v 369.2910 1012.4466 339.9450
v 358.8966 655.9124 319.9541
v 363.2910 655.6466 324.3450
v 369.2910 1012.4466 339.9450
v 369.2910 1012.4466 339.9450
v 363.2910 655.6466 324.3450
v 375.2956 1012.2754 341.5505
v 363.2910 655.6466 324.3450
v 369.2956 655.4754 325.9505
v 375.2956 1012.2754 341.5505
v 375.2956 1012.2754 341.5505
v 381.3013 1012.2448 339.9406
v 375.3000 1012.8000 329.5500
v 381.3013 1012.2448 339.9406
v 385.6990 1012.3630 335.5465
v 375.3000 1012.8000 329.5500
v 385.6990 1012.3630 335.5465
v 387.3103 1012.5982 329.5456
v 375.3000 1012.8000 329.5500
v 387.3103 1012.5982 329.5456
v 385.7034 1012.8876 323.5459
v 375.3000 1012.8000 329.5500
v 385.7034 1012.8876 323.5459
v 381.3090 1013.1534 319.1550
v 375.3000 1012.8000 329.5500
v 381.3090 1013.1534 319.1550
v 375.3044 1013.3246 317.5495
v 375.3000 1012.8000 329.5500
v 375.3044 1013.3246 317.5495
v 369.2987 1013.3552 319.1594
v 375.3000 1012.8000 329.5500
v 369.2987 1013.3552 319.1594
v 364.9010 1013.2370 323.5535
v 375.3000 1012.8000 329.5500
v 364.9010 1013.2370 323.5535
v 363.2897 1013.0018 329.5544
v 375.3000 1012.8000 329.5500
v 363.2897 1013.0018 329.5544
v 364.8966 1012.7124 335.5541
v 375.3000 1012.8000 329.5500
v 364.8966 1012.7124 335.5541
v 369.2910 1012.4466 339.9450
v 375.3000 1012.8000 329.5500
v 369.2910 1012.4466 339.9450
v 375.2956 1012.2754 341.5505
v 375.3000 1012.8000 329.5500
v 375.3013 655.4448 324.3406
v 369.2956 655.4754 325.9505
v 369.3000 656.0000 313.9500
v 379.6990 655.5630 319.9465
v 375.3013 655.4448 324.3406
v 369.3000 656.0000 313.9500
v 381.3103 655.7982 313.9456
v 379.6990 655.5630 319.9465
v 369.3000 656.0000 313.9500
v 379.7034 656.0876 307.9459
v 381.3103 655.7982 313.9456
v 369.3000 656.0000 313.9500
v 375.3090 656.3534 303.5550
v 379.7034 656.0876 307.9459
v 369.3000 656.0000 313.9500
v 369.3044 656.5246 301.9495
v 375.3090 656.3534 303.5550
v 369.3000 656.0000 313.9500
v 363.2987 656.5552 303.5594
v 369.3044 656.5246 301.9495
v 369.3000 656.0000 313.9500
v 358.9010 656.4370 307.9535
v 363.2987 656.5552 303.5594
v 369.3000 656.0000 313.9500
v 357.2897 656.2018 313.9544
v 358.9010 656.4370 307.9535
v 369.3000 656.0000 313.9500
v 358.8966 655.9124 319.9541
v 357.2897 656.2018 313.9544
v 369.3000 656.0000 313.9500
v 363.2910 655.6466 324.3450
v 358.8966 655.9124 319.9541
v 369.3000 656.0000 313.9500
v 369.2956 655.4754 325.9505
v 363.2910 655.6466 324.3450
v 369.3000 656.0000 313.9500
v 264.0000 563.2268 341.3109
v 264.0000 375.2300 356.3828
v 264.0000 559.5700 295.6972
v 264.0000 375.2300 356.3828
v 264.0000 371.5732 310.7691
v 264.0000 559.5700 295.6972
v -264.0000 559.5700 295.6972
v -264.0000 371.5732 310.7691
v -264.0000 563.2268 341.3109
v -264.0000 371.5732 310.7691
v -264.0000 375.2300 356.3828
v -264.0000 563.2268 341.3109
v -264.0000 559.5700 295.6972
v -264.0000 563.2268 341.3109
v 264.0000 559.5700 295.6972
v -264.0000 563.2268 341.3109
v 264.0000 563.2268 341.3109
v 264.0000 559.5700 295.6972
v -264.0000 375.2300 356.3828
v -264.0000 371.5732 310.7691
v 264.0000 375.2300 356.3828
v -264.0000 371.5732 310.7691
v 264.0000 371.5732 310.7691
v 264.0000 375.2300 356.3828
v -264.0000 563.2268 341.3109
v -264.0000 375.2300 356.3828
v 264.0000 563.2268 341.3109
v -264.0000 375.2300 356.3828
v 264.0000 375.2300 356.3828
v 264.0000 563.2268 341.3109
v 264.0000 559.5700 295.6972
v 264.0000 371.5732 310.7691
v -264.0000 559.5700 295.6972
v 264.0000 371.5732 310.7691
v -264.0000 371.5732 310.7691
v -264.0000 559.5700 295.6972
v -479.4000 509.0700 164.4500
v -479.4000 509.0700 -121.5500
v -471.5350 511.1774 164.4500
v -479.4000 509.0700 -121.5500
v -471.5350 511.1774 -121.5500
v -471.5350 511.1774 164.4500
v -471.5350 511.1774 164.4500
v -471.5350 511.1774 -121.5500
v -465.7774 516.9350 164.4500
v -471.5350 511.1774 -121.5500
v -465.7774 516.9350 -121.5500
v -465.7774 516.9350 164.4500
v -465.7774 516.9350 164.4500
v -465.7774 516.9350 -121.5500
v -463.6700 524.8000 164.4500
v -465.7774 516.9350 -121.5500
v -463.6700 524.8000 -121.5500
v -463.6700 524.8000 164.4500
v -463.6700 524.8000 164.4500
v -463.6700 524.8000 -121.5500
v -465.7774 532.6650 164.4500
v -463.6700 524.8000 -121.5500
v -465.7774 532.6650 -121.5500
v -465.7774 532.6650 164.4500
v -465.7774 532.6650 164.4500
v -465.7774 532.6650 -121.5500
v -471.5350 538.4226 164.4500
v -465.7774 532.6650 -121.5500
v -471.5350 538.4226 -121.5500
v -471.5350 538.4226 164.4500
v -471.5350 538.4226 164.4500
v -471.5350 538.4226 -121.5500
v -479.4000 540.5300 164.4500
v -471.5350 538.4226 -121.5500
v -479.4000 540.5300 -121.5500
v -479.4000 540.5300 164.4500
v -479.4000 540.5300 164.4500
v -479.4000 540.5300 -121.5500
v -487.2650 538.4226 164.4500
v -479.4000 540.5300 -121.5500
v -487.2650 538.4226 -121.5500
v -487.2650 538.4226 164.4500
v -487.2650 538.4226 164.4500
v -487.2650 538.4226 -121.5500
v -493.0226 532.6650 164.4500
v -487.2650 538.4226 -121.5500
v -493.0226 532.6650 -121.5500
v -493.0226 532.6650 164.4500
v -493.0226 532.6650 164.4500
v -493.0226 532.6650 -121.5500
v -495.1300 524.8000 164.4500
v -493.0226 532.6650 -121.5500
v -495.1300 524.8000 -121.5500
v -495.1300 524.8000 164.4500
v -495.1300 524.8000 164.4500
v -495.1300 524.8000 -121.5500
v -493.0226 516.9350 164.4500
v -495.1300 524.8000 -121.5500
v -493.0226 516.9350 -121.5500
v -493.0226 516.9350 164.4500
v -493.0226 516.9350 164.4500
v -493.0226 516.9350 -121.5500
v -487.2650 511.1774 164.4500
v -493.0226 516.9350 -121.5500
v -487.2650 511.1774 -121.5500
v -487.2650 511.1774 164.4500
v -487.2650 511.1774 164.4500
v -487.2650 511.1774 -121.5500
v -479.4000 509.0700 164.4500
v -487.2650 511.1774 -121.5500
v -479.4000 509.0700 -121.5500
v -479.4000 509.0700 164.4500
v -479.4000 509.0700 164.4500
v -471.5350 511.1774 164.4500
v -479.4000 524.8000 164.4500
v -471.5350 511.1774 164.4500
v -465.7774 516.9350 164.4500
v -479.4000 524.8000 164.4500
v -465.7774 516.9350 164.4500
v -463.6700 524.8000 164.4500
v -479.4000 524.8000 164.4500
v -463.6700 524.8000 164.4500
v -465.7774 532.6650 164.4500
v -479.4000 524.8000 164.4500
v -465.7774 532.6650 164.4500
v -471.5350 538.4226 164.4500
v -479.4000 524.8000 164.4500
v -471.5350 538.4226 164.4500
v -479.4000 540.5300 164.4500
v -479.4000 524.8000 164.4500
v -479.4000 540.5300 164.4500
v -487.2650 538.4226 164.4500
v -479.4000 524.8000 164.4500
v -487.2650 538.4226 164.4500
v -493.0226 532.6650 164.4500
v -479.4000 524.8000 164.4500
v -493.0226 532.6650 164.4500
v -495.1300 524.8000 164.4500
v -479.4000 524.8000 164.4500
v -495.1300 524.8000 164.4500
v -493.0226 516.9350 164.4500
v -479.4000 524.8000 164.4500
v -493.0226 516.9350 164.4500
v -487.2650 511.1774 164.4500
v -479.4000 524.8000 164.4500
v -487.2650 511.1774 164.4500
v -479.4000 509.0700 164.4500
v -479.4000 524.8000 164.4500
v -471.5350 511.1774 -121.5500
v -479.4000 509.0700 -121.5500
v -479.4000 524.8000 -121.5500
v -465.7774 516.9350 -121.5500
v -471.5350 511.1774 -121.5500
v -479.4000 524.8000 -121.5500
v -463.6700 524.8000 -121.5500
v -465.7774 516.9350 -121.5500
v -479.4000 524.8000 -121.5500
v -465.7774 532.6650 -121.5500
v -463.6700 524.8000 -121.5500
v -479.4000 524.8000 -121.5500
v -471.5350 538.4226 -121.5500
v -465.7774 532.6650 -121.5500
v -479.4000 524.8000 -121.5500
v -479.4000 540.5300 -121.5500
v -471.5350 538.4226 -121.5500
v -479.4000 524.8000 -121.5500
v -487.2650 538.4226 -121.5500
v -479.4000 540.5300 -121.5500
v -479.4000 524.8000 -121.5500
v -493.0226 532.6650 -121.5500
v -487.2650 538.4226 -121.5500
v -479.4000 524.8000 -121.5500
v -495.1300 524.8000 -121.5500
v -493.0226 532.6650 -121.5500
v -479.4000 524.8000 -121.5500
v -493.0226 516.9350 -121.5500
v -495.1300 524.8000 -121.5500
v -479.4000 524.8000 -121.5500
v -487.2650 511.1774 -121.5500
v -493.0226 516.9350 -121.5500
v -479.4000 524.8000 -121.5500
v -479.4000 509.0700 -121.5500
v -487.2650 511.1774 -121.5500
v -479.4000 524.8000 -121.5500
v -479.4000 672.4000 -201.6300
v -479.4000 508.4000 -201.6300
v -472.9650 672.4000 -203.3543
v -479.4000 508.4000 -201.6300
v -472.9650 508.4000 -203.3543
v -472.9650 672.4000 -203.3543
v -472.9650 672.4000 -203.3543
v -472.9650 508.4000 -203.3543
v -468.2543 672.4000 -208.0650
v -472.9650 508.4000 -203.3543
v -468.2543 508.4000 -208.0650
v -468.2543 672.4000 -208.0650
v -468.2543 672.4000 -208.0650
v -468.2543 508.4000 -208.0650
v -466.5300 672.4000 -214.5000
v -468.2543 508.4000 -208.0650
v -466.5300 508.4000 -214.5000
v -466.5300 672.4000 -214.5000
v -466.5300 672.4000 -214.5000
v -466.5300 508.4000 -214.5000
v -468.2543 672.4000 -220.9350
v -466.5300 508.4000 -214.5000
v -468.2543 508.4000 -220.9350
v -468.2543 672.4000 -220.9350
v -468.2543 672.4000 -220.9350
v -468.2543 508.4000 -220.9350
v -472.9650 672.4000 -225.6457
v -468.2543 508.4000 -220.9350
v -472.9650 508.4000 -225.6457
v -472.9650 672.4000 -225.6457
v -472.9650 672.4000 -225.6457
v -472.9650 508.4000 -225.6457
v -479.4000 672.4000 -227.3700
v -472.9650 508.4000 -225.6457
v -479.4000 508.4000 -227.3700
v -479.4000 672.4000 -227.3700
v -479.4000 672.4000 -227.3700
v -479.4000 508.4000 -227.3700
v -485.8350 672.4000 -225.6457
v -479.4000 508.4000 -227.3700
v -485.8350 508.4000 -225.6457
v -485.8350 672.4000 -225.6457
v -485.8350 672.4000 -225.6457
v -485.8350 508.4000 -225.6457
v -490.5457 672.4000 -220.9350
v -485.8350 508.4000 -225.6457
v -490.5457 508.4000 -220.9350
v -490.5457 672.4000 -220.9350
v -490.5457 672.4000 -220.9350
v -490.5457 508.4000 -220.9350
v -492.2700 672.4000 -214.5000
v -490.5457 508.4000 -220.9350
v -492.2700 508.4000 -214.5000
v -492.2700 672.4000 -214.5000
v -492.2700 672.4000 -214.5000
v -492.2700 508.4000 -214.5000
v -490.5457 672.4000 -208.0650
v -492.2700 508.4000 -214.5000
v -490.5457 508.4000 -208.0650
v -490.5457 672.4000 -208.0650
v -490.5457 672.4000 -208.0650
v -490.5457 508.4000 -208.0650
v -485.8350 672.4000 -203.3543
v -490.5457 508.4000 -208.0650
v -485.8350 508.4000 -203.3543
v -485.8350 672.4000 -203.3543
v -485.8350 672.4000 -203.3543
v -485.8350 508.4000 -203.3543
v -479.4000 672.4000 -201.6300
v -485.8350 508.4000 -203.3543
v -479.4000 508.4000 -201.6300
v -479.4000 672.4000 -201.6300
v -479.4000 672.4000 -201.6300
v -472.9650 672.4000 -203.3543
v -479.4000 672.4000 -214.5000
v -472.9650 672.4000 -203.3543
v -468.2543 672.4000 -208.0650
v -479.4000 672.4000 -214.5000
v -468.2543 672.4000 -208.0650
v -466.5300 672.4000 -214.5000
v -479.4000 672.4000 -214.5000
v -466.5300 672.4000 -214.5000
v -468.2543 672.4000 -220.9350
v -479.4000 672.4000 -214.5000
v -468.2543 672.4000 -220.9350
v -472.9650 672.4000 -225.6457
v -479.4000 672.4000 -214.5000
v -472.9650 672.4000 -225.6457
v -479.4000 672.4000 -227.3700
v -479.4000 672.4000 -214.5000
v -479.4000 672.4000 -227.3700
v -485.8350 672.4000 -225.6457
v -479.4000 672.4000 -214.5000
v -485.8350 672.4000 -225.6457
v -490.5457 672.4000 -220.9350
v -479.4000 672.4000 -214.5000
v -490.5457 672.4000 -220.9350
v -492.2700 672.4000 -214.5000
v -479.4000 672.4000 -214.5000
v -492.2700 672.4000 -214.5000
v -490.5457 672.4000 -208.0650
v -479.4000 672.4000 -214.5000
v -490.5457 672.4000 -208.0650
v -485.8350 672.4000 -203.3543
v -479.4000 672.4000 -214.5000
v -485.8350 672.4000 -203.3543
v -479.4000 672.4000 -201.6300
v -479.4000 672.4000 -214.5000
v -472.9650 508.4000 -203.3543
v -479.4000 508.4000 -201.6300
v -479.4000 508.4000 -214.5000
v -468.2543 508.4000 -208.0650
v -472.9650 508.4000 -203.3543
v -479.4000 508.4000 -214.5000
v -466.5300 508.4000 -214.5000
v -468.2543 508.4000 -208.0650
v -479.4000 508.4000 -214.5000
v -468.2543 508.4000 -220.9350
v -466.5300 508.4000 -214.5000
v -479.4000 508.4000 -214.5000
v -472.9650 508.4000 -225.6457
v -468.2543 508.4000 -220.9350
v -479.4000 508.4000 -214.5000
v -479.4000 508.4000 -227.3700
v -472.9650 508.4000 -225.6457
v -479.4000 508.4000 -214.5000
v -485.8350 508.4000 -225.6457
v -479.4000 508.4000 -227.3700
v -479.4000 508.4000 -214.5000
v -490.5457 508.4000 -220.9350
v -485.8350 508.4000 -225.6457
v -479.4000 508.4000 -214.5000
v -492.2700 508.4000 -214.5000
v -490.5457 508.4000 -220.9350
v -479.4000 508.4000 -214.5000
v -490.5457 508.4000 -208.0650
v -492.2700 508.4000 -214.5000
v -479.4000 508.4000 -214.5000
v -485.8350 508.4000 -203.3543
v -490.5457 508.4000 -208.0650
v -479.4000 508.4000 -214.5000
v -479.4000 508.4000 -201.6300
v -485.8350 508.4000 -203.3543
v -479.4000 508.4000 -214.5000
v 479.4000 804.2700 164.4500
v 479.4000 804.2700 -121.5500
v 487.2650 806.3774 164.4500
v 479.4000 804.2700 -121.5500
v 487.2650 806.3774 -121.5500
v 487.2650 806.3774 164.4500
v 487.2650 806.3774 164.4500
v 487.2650 806.3774 -121.5500
v 493.0226 812.1350 164.4500
v 487.2650 806.3774 -121.5500
v 493.0226 812.1350 -121.5500
v 493.0226 812.1350 164.4500
v 493.0226 812.1350 164.4500
v 493.0226 812.1350 -121.5500
v 495.1300 820.0000 164.4500
v 493.0226 812.1350 -121.5500
v 495.1300 820.0000 -121.5500
v 495.1300 820.0000 164.4500
v 495.1300 820.0000 164.4500
v 495.1300 820.0000 -121.5500
v 493.0226 827.8650 164.4500
v 495.1300 820.0000 -121.5500
v 493.0226 827.8650 -121.5500
v 493.0226 827.8650 164.4500
v 493.0226 827.8650 164.4500
v 493.0226 827.8650 -121.5500
v 487.2650 833.6226 164.4500
v 493.0226 827.8650 -121.5500
v 487.2650 833.6226 -121.5500
v 487.2650 833.6226 164.4500
v 487.2650 833.6226 164.4500
v 487.2650 833.6226 -121.5500
v 479.4000 835.7300 164.4500
v 487.2650 833.6226 -121.5500
v 479.4000 835.7300 -121.5500
v 479.4000 835.7300 164.4500
v 479.4000 835.7300 164.4500
v 479.4000 835.7300 -121.5500
v 471.5350 833.6226 164.4500
v 479.4000 835.7300 -121.5500
v 471.5350 833.6226 -121.5500
v 471.5350 833.6226 164.4500
v 471.5350 833.6226 164.4500
v 471.5350 833.6226 -121.5500
v 465.7774 827.8650 164.4500
v 471.5350 833.6226 -121.5500
v 465.7774 827.8650 -121.5500
v 465.7774 827.8650 164.4500
v 465.7774 827.8650 164.4500
v 465.7774 827.8650 -121.5500
v 463.6700 820.0000 164.4500
v 465.7774 827.8650 -121.5500
v 463.6700 820.0000 -121.5500
v 463.6700 820.0000 164.4500
v 463.6700 820.0000 164.4500
v 463.6700 820.0000 -121.5500
v 465.7774 812.1350 164.4500
v 463.6700 820.0000 -121.5500
v 465.7774 812.1350 -121.5500
v 465.7774 812.1350 164.4500
v 465.7774 812.1350 164.4500
v 465.7774 812.1350 -121.5500
v 471.5350 806.3774 164.4500
v 465.7774 812.1350 -121.5500
v 471.5350 806.3774 -121.5500
v 471.5350 806.3774 164.4500
v 471.5350 806.3774 164.4500
v 471.5350 806.3774 -121.5500
v 479.4000 804.2700 164.4500
v 471.5350 806.3774 -121.5500
v 479.4000 804.2700 -121.5500
v 479.4000 804.2700 164.4500
v 479.4000 804.2700 164.4500
v 487.2650 806.3774 164.4500
v 479.4000 820.0000 164.4500
v 487.2650 806.3774 164.4500
v 493.0226 812.1350 164.4500
v 479.4000 820.0000 164.4500
v 493.0226 812.1350 164.4500
v 495.1300 820.0000 164.4500
v 479.4000 820.0000 164.4500
v 495.1300 820.0000 164.4500
v 493.0226 827.8650 164.4500
v 479.4000 820.0000 164.4500
v 493.0226 827.8650 164.4500
v 487.2650 833.6226 164.4500
v 479.4000 820.0000 164.4500
v 487.2650 833.6226 164.4500
v 479.4000 835.7300 164.4500
v 479.4000 820.0000 164.4500
v 479.4000 835.7300 164.4500
v 471.5350 833.6226 164.4500
v 479.4000 820.0000 164.4500
v 471.5350 833.6226 164.4500
v 465.7774 827.8650 164.4500
v 479.4000 820.0000 164.4500
v 465.7774 827.8650 164.4500
v 463.6700 820.0000 164.4500
v 479.4000 820.0000 164.4500
v 463.6700 820.0000 164.4500
v 465.7774 812.1350 164.4500
v 479.4000 820.0000 164.4500
v 465.7774 812.1350 164.4500
v 471.5350 806.3774 164.4500
v 479.4000 820.0000 164.4500
v 471.5350 806.3774 164.4500
v 479.4000 804.2700 164.4500
v 479.4000 820.0000 164.4500
v 487.2650 806.3774 -121.5500
v 479.4000 804.2700 -121.5500
v 479.4000 820.0000 -121.5500
v 493.0226 812.1350 -121.5500
v 487.2650 806.3774 -121.5500
v 479.4000 820.0000 -121.5500
v 495.1300 820.0000 -121.5500
v 493.0226 812.1350 -121.5500
v 479.4000 820.0000 -121.5500
v 493.0226 827.8650 -121.5500
v 495.1300 820.0000 -121.5500
v 479.4000 820.0000 -121.5500
v 487.2650 833.6226 -121.5500
v 493.0226 827.8650 -121.5500
v 479.4000 820.0000 -121.5500
v 479.4000 835.7300 -121.5500
v 487.2650 833.6226 -121.5500
v 479.4000 820.0000 -121.5500
v 471.5350 833.6226 -121.5500
v 479.4000 835.7300 -121.5500
v 479.4000 820.0000 -121.5500
v 465.7774 827.8650 -121.5500
v 471.5350 833.6226 -121.5500
v 479.4000 820.0000 -121.5500
v 463.6700 820.0000 -121.5500
v 465.7774 827.8650 -121.5500
v 479.4000 820.0000 -121.5500
v 465.7774 812.1350 -121.5500
v 463.6700 820.0000 -121.5500
v 479.4000 820.0000 -121.5500
v 471.5350 806.3774 -121.5500
v 465.7774 812.1350 -121.5500
v 479.4000 820.0000 -121.5500
v 479.4000 804.2700 -121.5500
v 471.5350 806.3774 -121.5500
v 479.4000 820.0000 -121.5500
v 479.4000 377.2000 -201.6300
v 479.4000 213.2000 -201.6300
v 485.8350 377.2000 -203.3543
v 479.4000 213.2000 -201.6300
v 485.8350 213.2000 -203.3543
v 485.8350 377.2000 -203.3543
v 485.8350 377.2000 -203.3543
v 485.8350 213.2000 -203.3543
v 490.5457 377.2000 -208.0650
v 485.8350 213.2000 -203.3543
v 490.5457 213.2000 -208.0650
v 490.5457 377.2000 -208.0650
v 490.5457 377.2000 -208.0650
v 490.5457 213.2000 -208.0650
v 492.2700 377.2000 -214.5000
v 490.5457 213.2000 -208.0650
v 492.2700 213.2000 -214.5000
v 492.2700 377.2000 -214.5000
v 492.2700 377.2000 -214.5000
v 492.2700 213.2000 -214.5000
v 490.5457 377.2000 -220.9350
v 492.2700 213.2000 -214.5000
v 490.5457 213.2000 -220.9350
v 490.5457 377.2000 -220.9350
v 490.5457 377.2000 -220.9350
v 490.5457 213.2000 -220.9350
v 485.8350 377.2000 -225.6457
v 490.5457 213.2000 -220.9350
v 485.8350 213.2000 -225.6457
v 485.8350 377.2000 -225.6457
v 485.8350 377.2000 -225.6457
v 485.8350 213.2000 -225.6457
v 479.4000 377.2000 -227.3700
v 485.8350 213.2000 -225.6457
v 479.4000 213.2000 -227.3700
v 479.4000 377.2000 -227.3700
v 479.4000 377.2000 -227.3700
v 479.4000 213.2000 -227.3700
v 472.9650 377.2000 -225.6457
v 479.4000 213.2000 -227.3700
v 472.9650 213.2000 -225.6457
v 472.9650 377.2000 -225.6457
v 472.9650 377.2000 -225.6457
v 472.9650 213.2000 -225.6457
v 468.2543 377.2000 -220.9350
v 472.9650 213.2000 -225.6457
v 468.2543 213.2000 -220.9350
v 468.2543 377.2000 -220.9350
v 468.2543 377.2000 -220.9350
v 468.2543 213.2000 -220.9350
v 466.5300 377.2000 -214.5000
v 468.2543 213.2000 -220.9350
v 466.5300 213.2000 -214.5000
v 466.5300 377.2000 -214.5000
v 466.5300 377.2000 -214.5000
v 466.5300 213.2000 -214.5000
v 468.2543 377.2000 -208.0650
v 466.5300 213.2000 -214.5000
v 468.2543 213.2000 -208.0650
v 468.2543 377.2000 -208.0650
v 468.2543 377.2000 -208.0650
v 468.2543 213.2000 -208.0650
v 472.9650 377.2000 -203.3543
v 468.2543 213.2000 -208.0650
v 472.9650 213.2000 -203.3543
v 472.9650 377.2000 -203.3543
v 472.9650 377.2000 -203.3543
v 472.9650 213.2000 -203.3543
v 479.4000 377.2000 -201.6300
v 472.9650 213.2000 -203.3543
v 479.4000 213.2000 -201.6300
v 479.4000 377.2000 -201.6300
v 479.4000 377.2000 -201.6300
v 485.8350 377.2000 -203.3543
v 479.4000 377.2000 -214.5000
v 485.8350 377.2000 -203.3543
v 490.5457 377.2000 -208.0650
v 479.4000 377.2000 -214.5000
v 490.5457 377.2000 -208.0650
v 492.2700 377.2000 -214.5000
v 479.4000 377.2000 -214.5000
v 492.2700 377.2000 -214.5000
v 490.5457 377.2000 -220.9350
v 479.4000 377.2000 -214.5000
v 490.5457 377.2000 -220.9350
v 485.8350 377.2000 -225.6457
v 479.4000 377.2000 -214.5000
v 485.8350 377.2000 -225.6457
v 479.4000 377.2000 -227.3700
v 479.4000 377.2000 -214.5000
v 479.4000 377.2000 -227.3700
v 472.9650 377.2000 -225.6457
v 479.4000 377.2000 -214.5000
v 472.9650 377.2000 -225.6457
v 468.2543 377.2000 -220.9350
v 479.4000 377.2000 -214.5000
v 468.2543 377.2000 -220.9350
v 466.5300 377.2000 -214.5000
v 479.4000 377.2000 -214.5000
v 466.5300 377.2000 -214.5000
v 468.2543 377.2000 -208.0650
v 479.4000 377.2000 -214.5000
v 468.2543 377.2000 -208.0650
v 472.9650 377.2000 -203.3543
v 479.4000 377.2000 -214.5000
v 472.9650 377.2000 -203.3543
v 479.4000 377.2000 -201.6300
v 479.4000 377.2000 -214.5000
v 485.8350 213.2000 -203.3543
v 479.4000 213.2000 -201.6300
v 479.4000 213.2000 -214.5000
v 490.5457 213.2000 -208.0650
v 485.8350 213.2000 -203.3543
v 479.4000 213.2000 -214.5000
v 492.2700 213.2000 -214.5000
v 490.5457 213.2000 -208.0650
v 479.4000 213.2000 -214.5000
v 490.5457 213.2000 -220.9350
v 492.2700 213.2000 -214.5000
v 479.4000 213.2000 -214.5000
v 485.8350 213.2000 -225.6457
v 490.5457 213.2000 -220.9350
v 479.4000 213.2000 -214.5000
v 479.4000 213.2000 -227.3700
v 485.8350 213.2000 -225.6457
v 479.4000 213.2000 -214.5000
v 472.9650 213.2000 -225.6457
v 479.4000 213.2000 -227.3700
v 479.4000 213.2000 -214.5000
v 468.2543 213.2000 -220.9350
v 472.9650 213.2000 -225.6457
v 479.4000 213.2000 -214.5000
v 466.5300 213.2000 -214.5000
v 468.2543 213.2000 -220.9350
v 479.4000 213.2000 -214.5000
v 468.2543 213.2000 -208.0650
v 466.5300 213.2000 -214.5000
v 479.4000 213.2000 -214.5000
v 472.9650 213.2000 -203.3543
v 468.2543 213.2000 -208.0650
v 479.4000 213.2000 -214.5000
v 479.4000 213.2000 -201.6300
v 472.9650 213.2000 -203.3543
v 479.4000 213.2000 -214.5000
f 1 2 3
f 4 5 6
f 7 8 9
f 10 11 12
f 13 14 15
f 16 17 18
f 19 20 21
f 22 23 24
f 25 26 27
f 28 29 30
f 31 32 33
f 34 35 36
f 37 38 39
f 40 41 42
f 43 44 45
f 46 47 48
f 49 50 51
f 52 53 54
f 55 56 57
f 58 59 60
f 61 62 63
f 64 65 66
f 67 68 69
f 70 71 72
f 73 74 75
f 76 77 78
f 79 80 81
f 82 83 84
f 85 86 87
f 88 89 90
f 91 92 93
f 94 95 96
f 97 98 99
f 100 101 102
f 103 104 105
f 106 107 108
f 109 110 111
f 112 113 114
f 115 116 117
f 118 119 120
f 121 122 123
f 124 125 126
f 127 128 129
f 130 131 132
f 133 134 135
f 136 137 138
f 139 140 141
f 142 143 144
f 145 146 147
f 148 149 150
f 151 152 153
f 154 155 156
f 157 158 159
f 160 161 162
f 163 164 165
f 166 167 168
f 169 170 171
f 172 173 174
f 175 176 177
f 178 179 180
f 181 182 183
f 184 185 186
f 187 188 189
f 190 191 192
f 193 194 195
f 196 197 198
f 199 200 201
f 202 203 204
f 205 206 207
f 208 209 210
f 211 212 213
f 214 215 216
f 217 218 219
f 220 221 222
f 223 224 225
f 226 227 228
f 229 230 231
f 232 233 234
f 235 236 237
f 238 239 240
f 241 242 243
f 244 245 246
f 247 248 249
f 250 251 252
f 253 254 255
f 256 257 258
f 259 260 261
f 262 263 264
f 265 266 267
f 268 269 270
f 271 272 273
f 274 275 276
f 277 278 279
f 280 281 282
f 283 284 285
f 286 287 288
f 289 290 291
f 292 293 294
f 295 296 297
f 298 299 300
f 301 302 303
f 304 305 306
f 307 308 309
f 310 311 312
f 313 314 315
f 316 317 318
f 319 320 321
f 322 323 324
f 325 326 327
f 328 329 330
f 331 332 333
f 334 335 336
f 337 338 339
f 340 341 342
f 343 344 345
f 346 347 348
f 349 350 351
f 352 353 354
f 355 356 357
f 358 359 360
f 361 362 363
f 364 365 366
f 367 368 369
f 370 371 372
f 373 374 375
f 376 377 378
f 379 380 381
f 382 383 384
f 385 386 387
f 388 389 390
f 391 392 393
f 394 395 396
f 397 398 399
f 400 401 402
f 403 404 405
f 406 407 408
f 409 410 411
f 412 413 414
f 415 416 417
f 418 419 420
f 421 422 423
f 424 425 426
f 427 428 429
f 430 431 432
f 433 434 435
f 436 437 438
f 439 440 441
f 442 443 444
f 445 446 447
f 448 449 450
f 451 452 453
f 454 455 456
f 457 458 459
f 460 461 462
f 463 464 465
f 466 467 468
f 469 470 471
f 472 473 474
f 475 476 477
f 478 479 480
f 481 482 483
f 484 485 486
f 487 488 489
f 490 491 492
f 493 494 495
f 496 497 498
f 499 500 501
f 502 503 504
f 505 506 507
f 508 509 510
f 511 512 513
f 514 515 516
f 517 518 519
f 520 521 522
f 523 524 525
f 526 527 528
f 529 530 531
f 532 533 534
f 535 536 537
f 538 539 540
f 541 542 543
f 544 545 546
f 547 548 549
f 550 551 552
f 553 554 555
f 556 557 558
f 559 560 561
f 562 563 564
f 565 566 567
f 568 569 570
f 571 572 573
f 574 575 576
f 577 578 579
f 580 581 582
f 583 584 585
f 586 587 588
f 589 590 591
f 592 593 594
f 595 596 597
f 598 599 600
f 601 602 603
f 604 605 606
f 607 608 609
f 610 611 612
f 613 614 615
f 616 617 618
f 619 620 621
f 622 623 624
f 625 626 627
f 628 629 630
f 631 632 633
f 634 635 636
f 637 638 639
f 640 641 642
f 643 644 645
f 646 647 648
f 649 650 651
f 652 653 654
f 655 656 657
f 658 659 660
f 661 662 663
f 664 665 666
f 667 668 669
f 670 671 672
f 673 674 675
f 676 677 678
f 679 680 681
f 682 683 684
f 685 686 687
f 688 689 690
f 691 692 693
f 694 695 696
f 697 698 699
f 700 701 702
f 703 704 705
f 706 707 708
f 709 710 711
f 712 713 714
f 715 716 717
f 718 719 720
f 721 722 723
f 724 725 726
f 727 728 729
f 730 731 732
f 733 734 735
f 736 737 738
f 739 740 741
f 742 743 744
f 745 746 747
f 748 749 750
f 751 752 753
f 754 755 756
f 757 758 759
f 760 761 762
f 763 764 765
f 766 767 768
f 769 770 771
f 772 773 774
f 775 776 777
f 778 779 780
f 781 782 783
f 784 785 786
f 787 788 789
f 790 791 792
f 793 794 795
f 796 797 798
f 799 800 801
f 802 803 804
f 805 806 807
f 808 809 810
f 811 812 813
f 814 815 816
f 817 818 819
f 820 821 822
f 823 824 825
f 826 827 828
f 829 830 831
f 832 833 834
f 835 836 837
f 838 839 840
f 841 842 843
f 844 845 846
f 847 848 849
f 850 851 852
f 853 854 855
f 856 857 858
f 859 860 861
f 862 863 864
f 865 866 867
f 868 869 870
f 871 872 873
f 874 875 876
f 877 878 879
f 880 881 882
f 883 884 885
f 886 887 888
f 889 890 891
f 892 893 894
f 895 896 897
f 898 899 900
f 901 902 903
f 904 905 906
f 907 908 909
f 910 911 912
f 913 914 915
f 916 917 918
f 919 920 921
f 922 923 924
f 925 926 927
f 928 929 930
f 931 932 933
f 934 935 936
f 937 938 939
f 940 941 942
f 943 944 945
f 946 947 948
f 949 950 951
f 952 953 954
f 955 956 957
f 958 959 960
f 961 962 963
f 964 965 966
f 967 968 969
f 970 971 972
f 973 974 975
f 976 977 978
f 979 980 981
f 982 983 984
f 985 986 987
f 988 989 990
f 991 992 993
f 994 995 996
f 997 998 999
f 1000 1001 1002
f 1003 1004 1005
f 1006 1007 1008
f 1009 1010 1011
f 1012 1013 1014
f 1015 1016 1017
f 1018 1019 1020
f 1021 1022 1023
f 1024 1025 1026
f 1027 1028 1029
f 1030 1031 1032
f 1033 1034 1035
f 1036 1037 1038
f 1039 1040 1041
f 1042 1043 1044
f 1045 1046 1047
f 1048 1049 1050
f 1051 1052 1053
f 1054 1055 1056
f 1057 1058 1059
f 1060 1061 1062
f 1063 1064 1065
f 1066 1067 1068
f 1069 1070 1071
f 1072 1073 1074
f 1075 1076 1077
f 1078 1079 1080
f 1081 1082 1083
f 1084 1085 1086
f 1087 1088 1089
f 1090 1091 1092
f 1093 1094 1095
f 1096 1097 1098
f 1099 1100 1101
f 1102 1103 1104
f 1105 1106 1107
f 1108 1109 1110
f 1111 1112 1113
f 1114 1115 1116
f 1117 1118 1119
f 1120 1121 1122
f 1123 1124 1125
f 1126 1127 1128
f 1129 1130 1131
f 1132 1133 1134
f 1135 1136 1137
f 1138 1139 1140
f 1141 1142 1143
f 1144 1145 1146
f 1147 1148 1149
f 1150 1151 1152
f 1153 1154 1155
f 1156 1157 1158
f 1159 1160 1161
f 1162 1163 1164
f 1165 1166 1167
f 1168 1169 1170
f 1171 1172 1173
f 1174 1175 1176
f 1177 1178 1179
f 1180 1181 1182
f 1183 1184 1185
f 1186 1187 1188
f 1189 1190 1191
f 1192 1193 1194
f 1195 1196 1197
f 1198 1199 1200
f 1201 1202 1203
f 1204 1205 1206
f 1207 1208 1209
f 1210 1211 1212
f 1213 1214 1215
f 1216 1217 1218
f 1219 1220 1221
f 1222 1223 1224
f 1225 1226 1227
f 1228 1229 1230
f 1231 1232 1233
f 1234 1235 1236
f 1237 1238 1239
f 1240 1241 1242
f 1243 1244 1245
f 1246 1247 1248
f 1249 1250 1251
f 1252 1253 1254
f 1255 1256 1257
f 1258 1259 1260
f 1261 1262 1263
f 1264 1265 1266
f 1267 1268 1269
f 1270 1271 1272
f 1273 1274 1275
f 1276 1277 1278
f 1279 1280 1281
f 1282 1283 1284
f 1285 1286 1287
f 1288 1289 1290
f 1291 1292 1293
f 1294 1295 1296
f 1297 1298 1299
f 1300 1301 1302
f 1303 1304 1305
f 1306 1307 1308
f 1309 1310 1311
f 1312 1313 1314
f 1315 1316 1317
f 1318 1319 1320
f 1321 1322 1323
f 1324 1325 1326
f 1327 1328 1329
f 1330 1331 1332
f 1333 1334 1335
f 1336 1337 1338
f 1339 1340 1341
f 1342 1343 1344
f 1345 1346 1347
f 1348 1349 1350
f 1351 1352 1353
f 1354 1355 1356
f 1357 1358 1359
f 1360 1361 1362
f 1363 1364 1365
f 1366 1367 1368
f 1369 1370 1371
f 1372 1373 1374
f 1375 1376 1377
f 1378 1379 1380
f 1381 1382 1383
f 1384 1385 1386
f 1387 1388 1389
f 1390 1391 1392
f 1393 1394 1395
f 1396 1397 1398
f 1399 1400 1401
f 1402 1403 1404
f 1405 1406 1407
f 1408 1409 1410
f 1411 1412 1413
f 1414 1415 1416
f 1417 1418 1419
f 1420 1421 1422
f 1423 1424 1425
f 1426 1427 1428
f 1429 1430 1431
f 1432 1433 1434
f 1435 1436 1437
f 1438 1439 1440
f 1441 1442 1443
f 1444 1445 1446
f 1447 1448 1449
f 1450 1451 1452
f 1453 1454 1455
f 1456 1457 1458
f 1459 1460 1461
f 1462 1463 1464
f 1465 1466 1467
f 1468 1469 1470
f 1471 1472 1473
f 1474 1475 1476
f 1477 1478 1479
f 1480 1481 1482
f 1483 1484 1485
f 1486 1487 1488
f 1489 1490 1491
f 1492 1493 1494
f 1495 1496 1497
f 1498 1499 1500
f 1501 1502 1503
f 1504 1505 1506
f 1507 1508 1509
f 1510 1511 1512
f 1513 1514 1515
f 1516 1517 1518
f 1519 1520 1521
f 1522 1523 1524
f 1525 1526 1527
f 1528 1529 1530
f 1531 1532 1533
f 1534 1535 1536
f 1537 1538 1539
f 1540 1541 1542
f 1543 1544 1545
f 1546 1547 1548
f 1549 1550 1551
f 1552 1553 1554
f 1555 1556 1557
f 1558 1559 1560
f 1561 1562 1563
f 1564 1565 1566
f 1567 1568 1569
f 1570 1571 1572
f 1573 1574 1575
f 1576 1577 1578
f 1579 1580 1581
f 1582 1583 1584
f 1585 1586 1587
f 1588 1589 1590
f 1591 1592 1593
f 1594 1595 1596
f 1597 1598 1599
f 1600 1601 1602
f 1603 1604 1605
f 1606 1607 1608
f 1609 1610 1611
f 1612 1613 1614
f 1615 1616 1617
f 1618 1619 1620
f 1621 1622 1623
f 1624 1625 1626
f 1627 1628 1629
f 1630 1631 1632
f 1633 1634 1635
f 1636 1637 1638
f 1639 1640 1641
f 1642 1643 1644
f 1645 1646 1647
f 1648 1649 1650
f 1651 1652 1653
f 1654 1655 1656
