# MATERIA - Alanda
# Geometria originale di studio. Unita mm. Non CAD del produttore.
v 425.0000 308.7750 345.0000
v 425.0000 270.8250 345.0000
v 425.0000 308.7750 -345.0000
v 425.0000 270.8250 345.0000
v 425.0000 270.8250 -345.0000
v 425.0000 308.7750 -345.0000
v -425.0000 308.7750 -345.0000
v -425.0000 270.8250 -345.0000
v -425.0000 308.7750 345.0000
v -425.0000 270.8250 -345.0000
v -425.0000 270.8250 345.0000
v -425.0000 308.7750 345.0000
v -425.0000 308.7750 -345.0000
v -425.0000 308.7750 345.0000
v 425.0000 308.7750 -345.0000
v -425.0000 308.7750 345.0000
v 425.0000 308.7750 345.0000
v 425.0000 308.7750 -345.0000
v -425.0000 270.8250 345.0000
v -425.0000 270.8250 -345.0000
v 425.0000 270.8250 345.0000
v -425.0000 270.8250 -345.0000
v 425.0000 270.8250 -345.0000
v 425.0000 270.8250 345.0000
v -425.0000 308.7750 345.0000
v -425.0000 270.8250 345.0000
v 425.0000 308.7750 345.0000
v -425.0000 270.8250 345.0000
v 425.0000 270.8250 345.0000
v 425.0000 308.7750 345.0000
v 425.0000 308.7750 -345.0000
v 425.0000 270.8250 -345.0000
v -425.0000 308.7750 -345.0000
v 425.0000 270.8250 -345.0000
v -425.0000 270.8250 -345.0000
v -425.0000 308.7750 -345.0000
v -592.3863 -24.7869 -448.6760
v -552.6063 348.0531 -416.3840
v -591.8071 -24.0022 -458.4496
v -552.6063 348.0531 -416.3840
v -552.0271 348.8378 -426.1576
v -591.8071 -24.0022 -458.4496
v -591.8071 -24.0022 -458.4496
v -552.0271 348.8378 -426.1576
v -586.4306 -23.8640 -466.6684
v -552.0271 348.8378 -426.1576
v -546.6506 348.9760 -434.3764
v -586.4306 -23.8640 -466.6684
v -586.4306 -23.8640 -466.6684
v -546.6506 348.9760 -434.3764
v -577.6973 -24.4093 -471.1302
v -546.6506 348.9760 -434.3764
v -537.9173 348.4307 -438.8382
v -577.6973 -24.4093 -471.1302
v -577.6973 -24.4093 -471.1302
v -537.9173 348.4307 -438.8382
v -567.9473 -25.4921 -470.6394
v -537.9173 348.4307 -438.8382
v -528.1673 347.3479 -438.3474
v -567.9473 -25.4921 -470.6394
v -567.9473 -25.4921 -470.6394
v -528.1673 347.3479 -438.3474
v -559.7931 -26.8222 -465.3275
v -528.1673 347.3479 -438.3474
v -520.0131 346.0178 -433.0355
v -559.7931 -26.8222 -465.3275
v -559.7931 -26.8222 -465.3275
v -520.0131 346.0178 -433.0355
v -555.4197 -28.0431 -456.6178
v -520.0131 346.0178 -433.0355
v -515.6397 344.7969 -424.3258
v -555.4197 -28.0431 -456.6178
v -555.4197 -28.0431 -456.6178
v -515.6397 344.7969 -424.3258
v -555.9989 -28.8278 -446.8442
v -515.6397 344.7969 -424.3258
v -516.2189 344.0122 -414.5522
v -555.9989 -28.8278 -446.8442
v -555.9989 -28.8278 -446.8442
v -516.2189 344.0122 -414.5522
v -561.3754 -28.9660 -438.6254
v -516.2189 344.0122 -414.5522
v -521.5954 343.8740 -406.3334
v -561.3754 -28.9660 -438.6254
v -561.3754 -28.9660 -438.6254
v -521.5954 343.8740 -406.3334
v -570.1087 -28.4207 -434.1636
v -521.5954 343.8740 -406.3334
v -530.3287 344.4193 -401.8716
v -570.1087 -28.4207 -434.1636
v -570.1087 -28.4207 -434.1636
v -530.3287 344.4193 -401.8716
v -579.8587 -27.3379 -434.6544
v -530.3287 344.4193 -401.8716
v -540.0787 345.5021 -402.3624
v -579.8587 -27.3379 -434.6544
v -579.8587 -27.3379 -434.6544
v -540.0787 345.5021 -402.3624
v -588.0129 -26.0078 -439.9663
v -540.0787 345.5021 -402.3624
v -548.2329 346.8322 -407.6743
v -588.0129 -26.0078 -439.9663
v -588.0129 -26.0078 -439.9663
v -548.2329 346.8322 -407.6743
v -592.3863 -24.7869 -448.6760
v -548.2329 346.8322 -407.6743
v -552.6063 348.0531 -416.3840
v -592.3863 -24.7869 -448.6760
v -592.3863 -24.7869 -448.6760
v -591.8071 -24.0022 -458.4496
v -573.9030 -26.4150 -452.6469
v -591.8071 -24.0022 -458.4496
v -586.4306 -23.8640 -466.6684
v -573.9030 -26.4150 -452.6469
v -586.4306 -23.8640 -466.6684
v -577.6973 -24.4093 -471.1302
v -573.9030 -26.4150 -452.6469
v -577.6973 -24.4093 -471.1302
v -567.9473 -25.4921 -470.6394
v -573.9030 -26.4150 -452.6469
v -567.9473 -25.4921 -470.6394
v -559.7931 -26.8222 -465.3275
v -573.9030 -26.4150 -452.6469
v -559.7931 -26.8222 -465.3275
v -555.4197 -28.0431 -456.6178
v -573.9030 -26.4150 -452.6469
v -555.4197 -28.0431 -456.6178
v -555.9989 -28.8278 -446.8442
v -573.9030 -26.4150 -452.6469
v -555.9989 -28.8278 -446.8442
v -561.3754 -28.9660 -438.6254
v -573.9030 -26.4150 -452.6469
v -561.3754 -28.9660 -438.6254
v -570.1087 -28.4207 -434.1636
v -573.9030 -26.4150 -452.6469
v -570.1087 -28.4207 -434.1636
v -579.8587 -27.3379 -434.6544
v -573.9030 -26.4150 -452.6469
v -579.8587 -27.3379 -434.6544
v -588.0129 -26.0078 -439.9663
v -573.9030 -26.4150 -452.6469
v -588.0129 -26.0078 -439.9663
v -592.3863 -24.7869 -448.6760
v -573.9030 -26.4150 -452.6469
v -552.0271 348.8378 -426.1576
v -552.6063 348.0531 -416.3840
v -534.1230 346.4250 -420.3549
v -546.6506 348.9760 -434.3764
v -552.0271 348.8378 -426.1576
v -534.1230 346.4250 -420.3549
v -537.9173 348.4307 -438.8382
v -546.6506 348.9760 -434.3764
v -534.1230 346.4250 -420.3549
v -528.1673 347.3479 -438.3474
v -537.9173 348.4307 -438.8382
v -534.1230 346.4250 -420.3549
v -520.0131 346.0178 -433.0355
v -528.1673 347.3479 -438.3474
v -534.1230 346.4250 -420.3549
v -515.6397 344.7969 -424.3258
v -520.0131 346.0178 -433.0355
v -534.1230 346.4250 -420.3549
v -516.2189 344.0122 -414.5522
v -515.6397 344.7969 -424.3258
v -534.1230 346.4250 -420.3549
v -521.5954 343.8740 -406.3334
v -516.2189 344.0122 -414.5522
v -534.1230 346.4250 -420.3549
v -530.3287 344.4193 -401.8716
v -521.5954 343.8740 -406.3334
v -534.1230 346.4250 -420.3549
v -540.0787 345.5021 -402.3624
v -530.3287 344.4193 -401.8716
v -534.1230 346.4250 -420.3549
v -548.2329 346.8322 -407.6743
v -540.0787 345.5021 -402.3624
v -534.1230 346.4250 -420.3549
v -552.6063 348.0531 -416.3840
v -548.2329 346.8322 -407.6743
v -534.1230 346.4250 -420.3549
v 592.3863 50.8131 -448.6760
v 552.6063 423.6531 -416.3840
v 588.0129 49.5922 -439.9663
v 552.6063 423.6531 -416.3840
v 548.2329 422.4322 -407.6743
v 588.0129 49.5922 -439.9663
v 588.0129 49.5922 -439.9663
v 548.2329 422.4322 -407.6743
v 579.8587 48.2621 -434.6544
v 548.2329 422.4322 -407.6743
v 540.0787 421.1021 -402.3624
v 579.8587 48.2621 -434.6544
v 579.8587 48.2621 -434.6544
v 540.0787 421.1021 -402.3624
v 570.1087 47.1793 -434.1636
v 540.0787 421.1021 -402.3624
v 530.3287 420.0193 -401.8716
v 570.1087 47.1793 -434.1636
v 570.1087 47.1793 -434.1636
v 530.3287 420.0193 -401.8716
v 561.3754 46.6340 -438.6254
v 530.3287 420.0193 -401.8716
v 521.5954 419.4740 -406.3334
v 561.3754 46.6340 -438.6254
v 561.3754 46.6340 -438.6254
v 521.5954 419.4740 -406.3334
v 555.9989 46.7722 -446.8442
v 521.5954 419.4740 -406.3334
v 516.2189 419.6122 -414.5522
v 555.9989 46.7722 -446.8442
v 555.9989 46.7722 -446.8442
v 516.2189 419.6122 -414.5522
v 555.4197 47.5569 -456.6178
v 516.2189 419.6122 -414.5522
v 515.6397 420.3969 -424.3258
v 555.4197 47.5569 -456.6178
v 555.4197 47.5569 -456.6178
v 515.6397 420.3969 -424.3258
v 559.7931 48.7778 -465.3275
v 515.6397 420.3969 -424.3258
v 520.0131 421.6178 -433.0355
v 559.7931 48.7778 -465.3275
v 559.7931 48.7778 -465.3275
v 520.0131 421.6178 -433.0355
v 567.9473 50.1079 -470.6394
v 520.0131 421.6178 -433.0355
v 528.1673 422.9479 -438.3474
v 567.9473 50.1079 -470.6394
v 567.9473 50.1079 -470.6394
v 528.1673 422.9479 -438.3474
v 577.6973 51.1907 -471.1302
v 528.1673 422.9479 -438.3474
v 537.9173 424.0307 -438.8382
v 577.6973 51.1907 -471.1302
v 577.6973 51.1907 -471.1302
v 537.9173 424.0307 -438.8382
v 586.4306 51.7360 -466.6684
v 537.9173 424.0307 -438.8382
v 546.6506 424.5760 -434.3764
v 586.4306 51.7360 -466.6684
v 586.4306 51.7360 -466.6684
v 546.6506 424.5760 -434.3764
v 591.8071 51.5978 -458.4496
v 546.6506 424.5760 -434.3764
v 552.0271 424.4378 -426.1576
v 591.8071 51.5978 -458.4496
v 591.8071 51.5978 -458.4496
v 552.0271 424.4378 -426.1576
v 592.3863 50.8131 -448.6760
v 552.0271 424.4378 -426.1576
v 552.6063 423.6531 -416.3840
v 592.3863 50.8131 -448.6760
v 592.3863 50.8131 -448.6760
v 588.0129 49.5922 -439.9663
v 573.9030 49.1850 -452.6469
v 588.0129 49.5922 -439.9663
v 579.8587 48.2621 -434.6544
v 573.9030 49.1850 -452.6469
v 579.8587 48.2621 -434.6544
v 570.1087 47.1793 -434.1636
v 573.9030 49.1850 -452.6469
v 570.1087 47.1793 -434.1636
v 561.3754 46.6340 -438.6254
v 573.9030 49.1850 -452.6469
v 561.3754 46.6340 -438.6254
v 555.9989 46.7722 -446.8442
v 573.9030 49.1850 -452.6469
v 555.9989 46.7722 -446.8442
v 555.4197 47.5569 -456.6178
v 573.9030 49.1850 -452.6469
v 555.4197 47.5569 -456.6178
v 559.7931 48.7778 -465.3275
v 573.9030 49.1850 -452.6469
v 559.7931 48.7778 -465.3275
v 567.9473 50.1079 -470.6394
v 573.9030 49.1850 -452.6469
v 567.9473 50.1079 -470.6394
v 577.6973 51.1907 -471.1302
v 573.9030 49.1850 -452.6469
v 577.6973 51.1907 -471.1302
v 586.4306 51.7360 -466.6684
v 573.9030 49.1850 -452.6469
v 586.4306 51.7360 -466.6684
v 591.8071 51.5978 -458.4496
v 573.9030 49.1850 -452.6469
v 591.8071 51.5978 -458.4496
v 592.3863 50.8131 -448.6760
v 573.9030 49.1850 -452.6469
v 548.2329 422.4322 -407.6743
v 552.6063 423.6531 -416.3840
v 534.1230 422.0250 -420.3549
v 540.0787 421.1021 -402.3624
v 548.2329 422.4322 -407.6743
v 534.1230 422.0250 -420.3549
v 530.3287 420.0193 -401.8716
v 540.0787 421.1021 -402.3624
v 534.1230 422.0250 -420.3549
v 521.5954 419.4740 -406.3334
v 530.3287 420.0193 -401.8716
v 534.1230 422.0250 -420.3549
v 516.2189 419.6122 -414.5522
v 521.5954 419.4740 -406.3334
v 534.1230 422.0250 -420.3549
v 515.6397 420.3969 -424.3258
v 516.2189 419.6122 -414.5522
v 534.1230 422.0250 -420.3549
v 520.0131 421.6178 -433.0355
v 515.6397 420.3969 -424.3258
v 534.1230 422.0250 -420.3549
v 528.1673 422.9479 -438.3474
v 520.0131 421.6178 -433.0355
v 534.1230 422.0250 -420.3549
v 537.9173 424.0307 -438.8382
v 528.1673 422.9479 -438.3474
v 534.1230 422.0250 -420.3549
v 546.6506 424.5760 -434.3764
v 537.9173 424.0307 -438.8382
v 534.1230 422.0250 -420.3549
v 552.0271 424.4378 -426.1576
v 546.6506 424.5760 -434.3764
v 534.1230 422.0250 -420.3549
v 552.6063 423.6531 -416.3840
v 552.0271 424.4378 -426.1576
v 534.1230 422.0250 -420.3549
v -555.4197 123.1569 456.6178
v -515.6397 495.9969 424.3258
v -559.7931 124.3778 465.3275
v -515.6397 495.9969 424.3258
v -520.0131 497.2178 433.0355
v -559.7931 124.3778 465.3275
v -559.7931 124.3778 465.3275
v -520.0131 497.2178 433.0355
v -567.9473 125.7079 470.6394
v -520.0131 497.2178 433.0355
v -528.1673 498.5479 438.3474
v -567.9473 125.7079 470.6394
v -567.9473 125.7079 470.6394
v -528.1673 498.5479 438.3474
v -577.6973 126.7907 471.1302
v -528.1673 498.5479 438.3474
v -537.9173 499.6307 438.8382
v -577.6973 126.7907 471.1302
v -577.6973 126.7907 471.1302
v -537.9173 499.6307 438.8382
v -586.4306 127.3360 466.6684
v -537.9173 499.6307 438.8382
v -546.6506 500.1760 434.3764
v -586.4306 127.3360 466.6684
v -586.4306 127.3360 466.6684
v -546.6506 500.1760 434.3764
v -591.8071 127.1978 458.4496
v -546.6506 500.1760 434.3764
v -552.0271 500.0378 426.1576
v -591.8071 127.1978 458.4496
v -591.8071 127.1978 458.4496
v -552.0271 500.0378 426.1576
v -592.3863 126.4131 448.6760
v -552.0271 500.0378 426.1576
v -552.6063 499.2531 416.3840
v -592.3863 126.4131 448.6760
v -592.3863 126.4131 448.6760
v -552.6063 499.2531 416.3840
v -588.0129 125.1922 439.9663
v -552.6063 499.2531 416.3840
v -548.2329 498.0322 407.6743
v -588.0129 125.1922 439.9663
v -588.0129 125.1922 439.9663
v -548.2329 498.0322 407.6743
v -579.8587 123.8621 434.6544
v -548.2329 498.0322 407.6743
v -540.0787 496.7021 402.3624
v -579.8587 123.8621 434.6544
v -579.8587 123.8621 434.6544
v -540.0787 496.7021 402.3624
v -570.1087 122.7793 434.1636
v -540.0787 496.7021 402.3624
v -530.3287 495.6193 401.8716
v -570.1087 122.7793 434.1636
v -570.1087 122.7793 434.1636
v -530.3287 495.6193 401.8716
v -561.3754 122.2340 438.6254
v -530.3287 495.6193 401.8716
v -521.5954 495.0740 406.3334
v -561.3754 122.2340 438.6254
v -561.3754 122.2340 438.6254
v -521.5954 495.0740 406.3334
v -555.9989 122.3722 446.8442
v -521.5954 495.0740 406.3334
v -516.2189 495.2122 414.5522
v -555.9989 122.3722 446.8442
v -555.9989 122.3722 446.8442
v -516.2189 495.2122 414.5522
v -555.4197 123.1569 456.6178
v -516.2189 495.2122 414.5522
v -515.6397 495.9969 424.3258
v -555.4197 123.1569 456.6178
v -555.4197 123.1569 456.6178
v -559.7931 124.3778 465.3275
v -573.9030 124.7850 452.6469
v -559.7931 124.3778 465.3275
v -567.9473 125.7079 470.6394
v -573.9030 124.7850 452.6469
v -567.9473 125.7079 470.6394
v -577.6973 126.7907 471.1302
v -573.9030 124.7850 452.6469
v -577.6973 126.7907 471.1302
v -586.4306 127.3360 466.6684
v -573.9030 124.7850 452.6469
v -586.4306 127.3360 466.6684
v -591.8071 127.1978 458.4496
v -573.9030 124.7850 452.6469
v -591.8071 127.1978 458.4496
v -592.3863 126.4131 448.6760
v -573.9030 124.7850 452.6469
v -592.3863 126.4131 448.6760
v -588.0129 125.1922 439.9663
v -573.9030 124.7850 452.6469
v -588.0129 125.1922 439.9663
v -579.8587 123.8621 434.6544
v -573.9030 124.7850 452.6469
v -579.8587 123.8621 434.6544
v -570.1087 122.7793 434.1636
v -573.9030 124.7850 452.6469
v -570.1087 122.7793 434.1636
v -561.3754 122.2340 438.6254
v -573.9030 124.7850 452.6469
v -561.3754 122.2340 438.6254
v -555.9989 122.3722 446.8442
v -573.9030 124.7850 452.6469
v -555.9989 122.3722 446.8442
v -555.4197 123.1569 456.6178
v -573.9030 124.7850 452.6469
v -520.0131 497.2178 433.0355
v -515.6397 495.9969 424.3258
v -534.1230 497.6250 420.3549
v -528.1673 498.5479 438.3474
v -520.0131 497.2178 433.0355
v -534.1230 497.6250 420.3549
v -537.9173 499.6307 438.8382
v -528.1673 498.5479 438.3474
v -534.1230 497.6250 420.3549
v -546.6506 500.1760 434.3764
v -537.9173 499.6307 438.8382
v -534.1230 497.6250 420.3549
v -552.0271 500.0378 426.1576
v -546.6506 500.1760 434.3764
v -534.1230 497.6250 420.3549
v -552.6063 499.2531 416.3840
v -552.0271 500.0378 426.1576
v -534.1230 497.6250 420.3549
v -548.2329 498.0322 407.6743
v -552.6063 499.2531 416.3840
v -534.1230 497.6250 420.3549
v -540.0787 496.7021 402.3624
v -548.2329 498.0322 407.6743
v -534.1230 497.6250 420.3549
v -530.3287 495.6193 401.8716
v -540.0787 496.7021 402.3624
v -534.1230 497.6250 420.3549
v -521.5954 495.0740 406.3334
v -530.3287 495.6193 401.8716
v -534.1230 497.6250 420.3549
v -516.2189 495.2122 414.5522
v -521.5954 495.0740 406.3334
v -534.1230 497.6250 420.3549
v -515.6397 495.9969 424.3258
v -516.2189 495.2122 414.5522
v -534.1230 497.6250 420.3549
v 555.4197 -103.6431 456.6178
v 515.6397 269.1969 424.3258
v 555.9989 -104.4278 446.8442
v 515.6397 269.1969 424.3258
v 516.2189 268.4122 414.5522
v 555.9989 -104.4278 446.8442
v 555.9989 -104.4278 446.8442
v 516.2189 268.4122 414.5522
v 561.3754 -104.5660 438.6254
v 516.2189 268.4122 414.5522
v 521.5954 268.2740 406.3334
v 561.3754 -104.5660 438.6254
v 561.3754 -104.5660 438.6254
v 521.5954 268.2740 406.3334
v 570.1087 -104.0207 434.1636
v 521.5954 268.2740 406.3334
v 530.3287 268.8193 401.8716
v 570.1087 -104.0207 434.1636
v 570.1087 -104.0207 434.1636
v 530.3287 268.8193 401.8716
v 579.8587 -102.9379 434.6544
v 530.3287 268.8193 401.8716
v 540.0787 269.9021 402.3624
v 579.8587 -102.9379 434.6544
v 579.8587 -102.9379 434.6544
v 540.0787 269.9021 402.3624
v 588.0129 -101.6078 439.9663
v 540.0787 269.9021 402.3624
v 548.2329 271.2322 407.6743
v 588.0129 -101.6078 439.9663
v 588.0129 -101.6078 439.9663
v 548.2329 271.2322 407.6743
v 592.3863 -100.3869 448.6760
v 548.2329 271.2322 407.6743
v 552.6063 272.4531 416.3840
v 592.3863 -100.3869 448.6760
v 592.3863 -100.3869 448.6760
v 552.6063 272.4531 416.3840
v 591.8071 -99.6022 458.4496
v 552.6063 272.4531 416.3840
v 552.0271 273.2378 426.1576
v 591.8071 -99.6022 458.4496
v 591.8071 -99.6022 458.4496
v 552.0271 273.2378 426.1576
v 586.4306 -99.4640 466.6684
v 552.0271 273.2378 426.1576
v 546.6506 273.3760 434.3764
v 586.4306 -99.4640 466.6684
v 586.4306 -99.4640 466.6684
v 546.6506 273.3760 434.3764
v 577.6973 -100.0093 471.1302
v 546.6506 273.3760 434.3764
v 537.9173 272.8307 438.8382
v 577.6973 -100.0093 471.1302
v 577.6973 -100.0093 471.1302
v 537.9173 272.8307 438.8382
v 567.9473 -101.0921 470.6394
v 537.9173 272.8307 438.8382
v 528.1673 271.7479 438.3474
v 567.9473 -101.0921 470.6394
v 567.9473 -101.0921 470.6394
v 528.1673 271.7479 438.3474
v 559.7931 -102.4222 465.3275
v 528.1673 271.7479 438.3474
v 520.0131 270.4178 433.0355
v 559.7931 -102.4222 465.3275
v 559.7931 -102.4222 465.3275
v 520.0131 270.4178 433.0355
v 555.4197 -103.6431 456.6178
v 520.0131 270.4178 433.0355
v 515.6397 269.1969 424.3258
v 555.4197 -103.6431 456.6178
v 555.4197 -103.6431 456.6178
v 555.9989 -104.4278 446.8442
v 573.9030 -102.0150 452.6469
v 555.9989 -104.4278 446.8442
v 561.3754 -104.5660 438.6254
v 573.9030 -102.0150 452.6469
v 561.3754 -104.5660 438.6254
v 570.1087 -104.0207 434.1636
v 573.9030 -102.0150 452.6469
v 570.1087 -104.0207 434.1636
v 579.8587 -102.9379 434.6544
v 573.9030 -102.0150 452.6469
v 579.8587 -102.9379 434.6544
v 588.0129 -101.6078 439.9663
v 573.9030 -102.0150 452.6469
v 588.0129 -101.6078 439.9663
v 592.3863 -100.3869 448.6760
v 573.9030 -102.0150 452.6469
v 592.3863 -100.3869 448.6760
v 591.8071 -99.6022 458.4496
v 573.9030 -102.0150 452.6469
v 591.8071 -99.6022 458.4496
v 586.4306 -99.4640 466.6684
v 573.9030 -102.0150 452.6469
v 586.4306 -99.4640 466.6684
v 577.6973 -100.0093 471.1302
v 573.9030 -102.0150 452.6469
v 577.6973 -100.0093 471.1302
v 567.9473 -101.0921 470.6394
v 573.9030 -102.0150 452.6469
v 567.9473 -101.0921 470.6394
v 559.7931 -102.4222 465.3275
v 573.9030 -102.0150 452.6469
v 559.7931 -102.4222 465.3275
v 555.4197 -103.6431 456.6178
v 573.9030 -102.0150 452.6469
v 516.2189 268.4122 414.5522
v 515.6397 269.1969 424.3258
v 534.1230 270.8250 420.3549
v 521.5954 268.2740 406.3334
v 516.2189 268.4122 414.5522
v 534.1230 270.8250 420.3549
v 530.3287 268.8193 401.8716
v 521.5954 268.2740 406.3334
v 534.1230 270.8250 420.3549
v 540.0787 269.9021 402.3624
v 530.3287 268.8193 401.8716
v 534.1230 270.8250 420.3549
v 548.2329 271.2322 407.6743
v 540.0787 269.9021 402.3624
v 534.1230 270.8250 420.3549
v 552.6063 272.4531 416.3840
v 548.2329 271.2322 407.6743
v 534.1230 270.8250 420.3549
v 552.0271 273.2378 426.1576
v 552.6063 272.4531 416.3840
v 534.1230 270.8250 420.3549
v 546.6506 273.3760 434.3764
v 552.0271 273.2378 426.1576
v 534.1230 270.8250 420.3549
v 537.9173 272.8307 438.8382
v 546.6506 273.3760 434.3764
v 534.1230 270.8250 420.3549
v 528.1673 271.7479 438.3474
v 537.9173 272.8307 438.8382
v 534.1230 270.8250 420.3549
v 520.0131 270.4178 433.0355
v 528.1673 271.7479 438.3474
v 534.1230 270.8250 420.3549
v 515.6397 269.1969 424.3258
v 520.0131 270.4178 433.0355
v 534.1230 270.8250 420.3549
f 1 2 3
f 4 5 6
f 7 8 9
f 10 11 12
f 13 14 15
f 16 17 18
f 19 20 21
f 22 23 24
f 25 26 27
f 28 29 30
f 31 32 33
f 34 35 36
f 37 38 39
f 40 41 42
f 43 44 45
f 46 47 48
f 49 50 51
f 52 53 54
f 55 56 57
f 58 59 60
f 61 62 63
f 64 65 66
f 67 68 69
f 70 71 72
f 73 74 75
f 76 77 78
f 79 80 81
f 82 83 84
f 85 86 87
f 88 89 90
f 91 92 93
f 94 95 96
f 97 98 99
f 100 101 102
f 103 104 105
f 106 107 108
f 109 110 111
f 112 113 114
f 115 116 117
f 118 119 120
f 121 122 123
f 124 125 126
f 127 128 129
f 130 131 132
f 133 134 135
f 136 137 138
f 139 140 141
f 142 143 144
f 145 146 147
f 148 149 150
f 151 152 153
f 154 155 156
f 157 158 159
f 160 161 162
f 163 164 165
f 166 167 168
f 169 170 171
f 172 173 174
f 175 176 177
f 178 179 180
f 181 182 183
f 184 185 186
f 187 188 189
f 190 191 192
f 193 194 195
f 196 197 198
f 199 200 201
f 202 203 204
f 205 206 207
f 208 209 210
f 211 212 213
f 214 215 216
f 217 218 219
f 220 221 222
f 223 224 225
f 226 227 228
f 229 230 231
f 232 233 234
f 235 236 237
f 238 239 240
f 241 242 243
f 244 245 246
f 247 248 249
f 250 251 252
f 253 254 255
f 256 257 258
f 259 260 261
f 262 263 264
f 265 266 267
f 268 269 270
f 271 272 273
f 274 275 276
f 277 278 279
f 280 281 282
f 283 284 285
f 286 287 288
f 289 290 291
f 292 293 294
f 295 296 297
f 298 299 300
f 301 302 303
f 304 305 306
f 307 308 309
f 310 311 312
f 313 314 315
f 316 317 318
f 319 320 321
f 322 323 324
f 325 326 327
f 328 329 330
f 331 332 333
f 334 335 336
f 337 338 339
f 340 341 342
f 343 344 345
f 346 347 348
f 349 350 351
f 352 353 354
f 355 356 357
f 358 359 360
f 361 362 363
f 364 365 366
f 367 368 369
f 370 371 372
f 373 374 375
f 376 377 378
f 379 380 381
f 382 383 384
f 385 386 387
f 388 389 390
f 391 392 393
f 394 395 396
f 397 398 399
f 400 401 402
f 403 404 405
f 406 407 408
f 409 410 411
f 412 413 414
f 415 416 417
f 418 419 420
f 421 422 423
f 424 425 426
f 427 428 429
f 430 431 432
f 433 434 435
f 436 437 438
f 439 440 441
f 442 443 444
f 445 446 447
f 448 449 450
f 451 452 453
f 454 455 456
f 457 458 459
f 460 461 462
f 463 464 465
f 466 467 468
f 469 470 471
f 472 473 474
f 475 476 477
f 478 479 480
f 481 482 483
f 484 485 486
f 487 488 489
f 490 491 492
f 493 494 495
f 496 497 498
f 499 500 501
f 502 503 504
f 505 506 507
f 508 509 510
f 511 512 513
f 514 515 516
f 517 518 519
f 520 521 522
f 523 524 525
f 526 527 528
f 529 530 531
f 532 533 534
f 535 536 537
f 538 539 540
f 541 542 543
f 544 545 546
f 547 548 549
f 550 551 552
f 553 554 555
f 556 557 558
f 559 560 561
f 562 563 564
f 565 566 567
f 568 569 570
f 571 572 573
f 574 575 576
f 577 578 579
f 580 581 582
f 583 584 585
f 586 587 588
f 589 590 591
f 592 593 594
f 595 596 597
f 598 599 600
f 601 602 603
f 604 605 606
f 607 608 609
f 610 611 612
