# MATERIA - D.655.1
# Geometria originale di studio. Unita mm. Non CAD del produttore.
v 665.0000 834.0000 230.0000
v 665.0000 -186.0000 230.0000
v 665.0000 834.0000 -230.0000
v 665.0000 -186.0000 230.0000
v 665.0000 -186.0000 -230.0000
v 665.0000 834.0000 -230.0000
v -665.0000 834.0000 -230.0000
v -665.0000 -186.0000 -230.0000
v -665.0000 834.0000 230.0000
v -665.0000 -186.0000 -230.0000
v -665.0000 -186.0000 230.0000
v -665.0000 834.0000 230.0000
v -665.0000 834.0000 -230.0000
v -665.0000 834.0000 230.0000
v 665.0000 834.0000 -230.0000
v -665.0000 834.0000 230.0000
v 665.0000 834.0000 230.0000
v 665.0000 834.0000 -230.0000
v -665.0000 -186.0000 230.0000
v -665.0000 -186.0000 -230.0000
v 665.0000 -186.0000 230.0000
v -665.0000 -186.0000 -230.0000
v 665.0000 -186.0000 -230.0000
v 665.0000 -186.0000 230.0000
v -665.0000 834.0000 230.0000
v -665.0000 -186.0000 230.0000
v 665.0000 834.0000 230.0000
v -665.0000 -186.0000 230.0000
v 665.0000 -186.0000 230.0000
v 665.0000 834.0000 230.0000
v 665.0000 834.0000 -230.0000
v 665.0000 -186.0000 -230.0000
v -665.0000 834.0000 -230.0000
v 665.0000 -186.0000 -230.0000
v -665.0000 -186.0000 -230.0000
v -665.0000 834.0000 -230.0000
v -544.6500 66.0000 -386.4575
v -544.6500 66.0000 -414.2875
v -544.6500 1014.0000 -386.4575
v -544.6500 66.0000 -414.2875
v -544.6500 1014.0000 -414.2875
v -544.6500 1014.0000 -386.4575
v -962.6833 1014.0000 -386.4575
v -962.6833 1014.0000 -414.2875
v -962.6833 66.0000 -386.4575
v -962.6833 1014.0000 -414.2875
v -962.6833 66.0000 -414.2875
v -962.6833 66.0000 -386.4575
v -962.6833 1014.0000 -386.4575
v -962.6833 66.0000 -386.4575
v -544.6500 1014.0000 -386.4575
v -962.6833 66.0000 -386.4575
v -544.6500 66.0000 -386.4575
v -544.6500 1014.0000 -386.4575
v -962.6833 66.0000 -414.2875
v -962.6833 1014.0000 -414.2875
v -544.6500 66.0000 -414.2875
v -962.6833 1014.0000 -414.2875
v -544.6500 1014.0000 -414.2875
v -544.6500 66.0000 -414.2875
v -962.6833 66.0000 -386.4575
v -962.6833 66.0000 -414.2875
v -544.6500 66.0000 -386.4575
v -962.6833 66.0000 -414.2875
v -544.6500 66.0000 -414.2875
v -544.6500 66.0000 -386.4575
v -544.6500 1014.0000 -386.4575
v -544.6500 1014.0000 -414.2875
v -962.6833 1014.0000 -386.4575
v -544.6500 1014.0000 -414.2875
v -962.6833 1014.0000 -414.2875
v -962.6833 1014.0000 -386.4575
v 209.0167 282.0000 -386.4575
v 209.0167 282.0000 -414.2875
v 209.0167 1230.0000 -386.4575
v 209.0167 282.0000 -414.2875
v 209.0167 1230.0000 -414.2875
v 209.0167 1230.0000 -386.4575
v -209.0167 1230.0000 -386.4575
v -209.0167 1230.0000 -414.2875
v -209.0167 282.0000 -386.4575
v -209.0167 1230.0000 -414.2875
v -209.0167 282.0000 -414.2875
v -209.0167 282.0000 -386.4575
v -209.0167 1230.0000 -386.4575
v -209.0167 282.0000 -386.4575
v 209.0167 1230.0000 -386.4575
v -209.0167 282.0000 -386.4575
v 209.0167 282.0000 -386.4575
v 209.0167 1230.0000 -386.4575
v -209.0167 282.0000 -414.2875
v -209.0167 1230.0000 -414.2875
v 209.0167 282.0000 -414.2875
v -209.0167 1230.0000 -414.2875
v 209.0167 1230.0000 -414.2875
v 209.0167 282.0000 -414.2875
v -209.0167 282.0000 -386.4575
v -209.0167 282.0000 -414.2875
v 209.0167 282.0000 -386.4575
v -209.0167 282.0000 -414.2875
v 209.0167 282.0000 -414.2875
v 209.0167 282.0000 -386.4575
v 209.0167 1230.0000 -386.4575
v 209.0167 1230.0000 -414.2875
v -209.0167 1230.0000 -386.4575
v 209.0167 1230.0000 -414.2875
v -209.0167 1230.0000 -414.2875
v -209.0167 1230.0000 -386.4575
v 962.6833 498.0000 -386.4575
v 962.6833 498.0000 -414.2875
v 962.6833 1446.0000 -386.4575
v 962.6833 498.0000 -414.2875
v 962.6833 1446.0000 -414.2875
v 962.6833 1446.0000 -386.4575
v 544.6500 1446.0000 -386.4575
v 544.6500 1446.0000 -414.2875
v 544.6500 498.0000 -386.4575
v 544.6500 1446.0000 -414.2875
v 544.6500 498.0000 -414.2875
v 544.6500 498.0000 -386.4575
v 544.6500 1446.0000 -386.4575
v 544.6500 498.0000 -386.4575
v 962.6833 1446.0000 -386.4575
v 544.6500 498.0000 -386.4575
v 962.6833 498.0000 -386.4575
v 962.6833 1446.0000 -386.4575
v 544.6500 498.0000 -414.2875
v 544.6500 1446.0000 -414.2875
v 962.6833 498.0000 -414.2875
v 544.6500 1446.0000 -414.2875
v 962.6833 1446.0000 -414.2875
v 962.6833 498.0000 -414.2875
v 544.6500 498.0000 -386.4575
v 544.6500 498.0000 -414.2875
v 962.6833 498.0000 -386.4575
v 544.6500 498.0000 -414.2875
v 962.6833 498.0000 -414.2875
v 962.6833 498.0000 -386.4575
v 962.6833 1446.0000 -386.4575
v 962.6833 1446.0000 -414.2875
v 544.6500 1446.0000 -386.4575
v 962.6833 1446.0000 -414.2875
v 544.6500 1446.0000 -414.2875
v 544.6500 1446.0000 -386.4575
v -905.5120 -314.8395 -291.7164
v -843.2680 -154.4295 -270.1884
v -909.0543 -312.7795 -296.8239
v -843.2680 -154.4295 -270.1884
v -846.8103 -152.3695 -275.2959
v -909.0543 -312.7795 -296.8239
v -909.0543 -312.7795 -296.8239
v -846.8103 -152.3695 -275.2959
v -909.6317 -311.6924 -303.2553
v -846.8103 -152.3695 -275.2959
v -847.3877 -151.2824 -281.7273
v -909.6317 -311.6924 -303.2553
v -909.6317 -311.6924 -303.2553
v -847.3877 -151.2824 -281.7273
v -907.0896 -311.8693 -309.2872
v -847.3877 -151.2824 -281.7273
v -844.8456 -151.4593 -287.7592
v -907.0896 -311.8693 -309.2872
v -907.0896 -311.8693 -309.2872
v -844.8456 -151.4593 -287.7592
v -902.1091 -313.2628 -313.3035
v -844.8456 -151.4593 -287.7592
v -839.8651 -152.8528 -291.7755
v -902.1091 -313.2628 -313.3035
v -902.1091 -313.2628 -313.3035
v -839.8651 -152.8528 -291.7755
v -896.0247 -315.4997 -314.2279
v -839.8651 -152.8528 -291.7755
v -833.7807 -155.0897 -292.6999
v -896.0247 -315.4997 -314.2279
v -896.0247 -315.4997 -314.2279
v -833.7807 -155.0897 -292.6999
v -890.4668 -317.9805 -311.8128
v -833.7807 -155.0897 -292.6999
v -828.2228 -157.5705 -290.2848
v -890.4668 -317.9805 -311.8128
v -890.4668 -317.9805 -311.8128
v -828.2228 -157.5705 -290.2848
v -886.9245 -320.0405 -306.7053
v -828.2228 -157.5705 -290.2848
v -824.6805 -159.6305 -285.1773
v -886.9245 -320.0405 -306.7053
v -886.9245 -320.0405 -306.7053
v -824.6805 -159.6305 -285.1773
v -886.3471 -321.1276 -300.2739
v -824.6805 -159.6305 -285.1773
v -824.1031 -160.7176 -278.7459
v -886.3471 -321.1276 -300.2739
v -886.3471 -321.1276 -300.2739
v -824.1031 -160.7176 -278.7459
v -888.8892 -320.9507 -294.2420
v -824.1031 -160.7176 -278.7459
v -826.6452 -160.5407 -272.7140
v -888.8892 -320.9507 -294.2420
v -888.8892 -320.9507 -294.2420
v -826.6452 -160.5407 -272.7140
v -893.8697 -319.5572 -290.2257
v -826.6452 -160.5407 -272.7140
v -831.6257 -159.1472 -268.6977
v -893.8697 -319.5572 -290.2257
v -893.8697 -319.5572 -290.2257
v -831.6257 -159.1472 -268.6977
v -899.9541 -317.3203 -289.3013
v -831.6257 -159.1472 -268.6977
v -837.7101 -156.9103 -267.7733
v -899.9541 -317.3203 -289.3013
v -899.9541 -317.3203 -289.3013
v -837.7101 -156.9103 -267.7733
v -905.5120 -314.8395 -291.7164
v -837.7101 -156.9103 -267.7733
v -843.2680 -154.4295 -270.1884
v -905.5120 -314.8395 -291.7164
v -905.5120 -314.8395 -291.7164
v -909.0543 -312.7795 -296.8239
v -897.9894 -316.4100 -301.7646
v -909.0543 -312.7795 -296.8239
v -909.6317 -311.6924 -303.2553
v -897.9894 -316.4100 -301.7646
v -909.6317 -311.6924 -303.2553
v -907.0896 -311.8693 -309.2872
v -897.9894 -316.4100 -301.7646
v -907.0896 -311.8693 -309.2872
v -902.1091 -313.2628 -313.3035
v -897.9894 -316.4100 -301.7646
v -902.1091 -313.2628 -313.3035
v -896.0247 -315.4997 -314.2279
v -897.9894 -316.4100 -301.7646
v -896.0247 -315.4997 -314.2279
v -890.4668 -317.9805 -311.8128
v -897.9894 -316.4100 -301.7646
v -890.4668 -317.9805 -311.8128
v -886.9245 -320.0405 -306.7053
v -897.9894 -316.4100 -301.7646
v -886.9245 -320.0405 -306.7053
v -886.3471 -321.1276 -300.2739
v -897.9894 -316.4100 -301.7646
v -886.3471 -321.1276 -300.2739
v -888.8892 -320.9507 -294.2420
v -897.9894 -316.4100 -301.7646
v -888.8892 -320.9507 -294.2420
v -893.8697 -319.5572 -290.2257
v -897.9894 -316.4100 -301.7646
v -893.8697 -319.5572 -290.2257
v -899.9541 -317.3203 -289.3013
v -897.9894 -316.4100 -301.7646
v -899.9541 -317.3203 -289.3013
v -905.5120 -314.8395 -291.7164
v -897.9894 -316.4100 -301.7646
v -846.8103 -152.3695 -275.2959
v -843.2680 -154.4295 -270.1884
v -835.7454 -156.0000 -280.2366
v -847.3877 -151.2824 -281.7273
v -846.8103 -152.3695 -275.2959
v -835.7454 -156.0000 -280.2366
v -844.8456 -151.4593 -287.7592
v -847.3877 -151.2824 -281.7273
v -835.7454 -156.0000 -280.2366
v -839.8651 -152.8528 -291.7755
v -844.8456 -151.4593 -287.7592
v -835.7454 -156.0000 -280.2366
v -833.7807 -155.0897 -292.6999
v -839.8651 -152.8528 -291.7755
v -835.7454 -156.0000 -280.2366
v -828.2228 -157.5705 -290.2848
v -833.7807 -155.0897 -292.6999
v -835.7454 -156.0000 -280.2366
v -824.6805 -159.6305 -285.1773
v -828.2228 -157.5705 -290.2848
v -835.7454 -156.0000 -280.2366
v -824.1031 -160.7176 -278.7459
v -824.6805 -159.6305 -285.1773
v -835.7454 -156.0000 -280.2366
v -826.6452 -160.5407 -272.7140
v -824.1031 -160.7176 -278.7459
v -835.7454 -156.0000 -280.2366
v -831.6257 -159.1472 -268.6977
v -826.6452 -160.5407 -272.7140
v -835.7454 -156.0000 -280.2366
v -837.7101 -156.9103 -267.7733
v -831.6257 -159.1472 -268.6977
v -835.7454 -156.0000 -280.2366
v -843.2680 -154.4295 -270.1884
v -837.7101 -156.9103 -267.7733
v -835.7454 -156.0000 -280.2366
v 905.5120 -98.8395 -291.7164
v 843.2680 61.5705 -270.1884
v 899.9541 -101.3203 -289.3013
v 843.2680 61.5705 -270.1884
v 837.7101 59.0897 -267.7733
v 899.9541 -101.3203 -289.3013
v 899.9541 -101.3203 -289.3013
v 837.7101 59.0897 -267.7733
v 893.8697 -103.5572 -290.2257
v 837.7101 59.0897 -267.7733
v 831.6257 56.8528 -268.6977
v 893.8697 -103.5572 -290.2257
v 893.8697 -103.5572 -290.2257
v 831.6257 56.8528 -268.6977
v 888.8892 -104.9507 -294.2420
v 831.6257 56.8528 -268.6977
v 826.6452 55.4593 -272.7140
v 888.8892 -104.9507 -294.2420
v 888.8892 -104.9507 -294.2420
v 826.6452 55.4593 -272.7140
v 886.3471 -105.1276 -300.2739
v 826.6452 55.4593 -272.7140
v 824.1031 55.2824 -278.7459
v 886.3471 -105.1276 -300.2739
v 886.3471 -105.1276 -300.2739
v 824.1031 55.2824 -278.7459
v 886.9245 -104.0405 -306.7053
v 824.1031 55.2824 -278.7459
v 824.6805 56.3695 -285.1773
v 886.9245 -104.0405 -306.7053
v 886.9245 -104.0405 -306.7053
v 824.6805 56.3695 -285.1773
v 890.4668 -101.9805 -311.8128
v 824.6805 56.3695 -285.1773
v 828.2228 58.4295 -290.2848
v 890.4668 -101.9805 -311.8128
v 890.4668 -101.9805 -311.8128
v 828.2228 58.4295 -290.2848
v 896.0247 -99.4997 -314.2279
v 828.2228 58.4295 -290.2848
v 833.7807 60.9103 -292.6999
v 896.0247 -99.4997 -314.2279
v 896.0247 -99.4997 -314.2279
v 833.7807 60.9103 -292.6999
v 902.1091 -97.2628 -313.3035
v 833.7807 60.9103 -292.6999
v 839.8651 63.1472 -291.7755
v 902.1091 -97.2628 -313.3035
v 902.1091 -97.2628 -313.3035
v 839.8651 63.1472 -291.7755
v 907.0896 -95.8693 -309.2872
v 839.8651 63.1472 -291.7755
v 844.8456 64.5407 -287.7592
v 907.0896 -95.8693 -309.2872
v 907.0896 -95.8693 -309.2872
v 844.8456 64.5407 -287.7592
v 909.6317 -95.6924 -303.2553
v 844.8456 64.5407 -287.7592
v 847.3877 64.7176 -281.7273
v 909.6317 -95.6924 -303.2553
v 909.6317 -95.6924 -303.2553
v 847.3877 64.7176 -281.7273
v 909.0543 -96.7795 -296.8239
v 847.3877 64.7176 -281.7273
v 846.8103 63.6305 -275.2959
v 909.0543 -96.7795 -296.8239
v 909.0543 -96.7795 -296.8239
v 846.8103 63.6305 -275.2959
v 905.5120 -98.8395 -291.7164
v 846.8103 63.6305 -275.2959
v 843.2680 61.5705 -270.1884
v 905.5120 -98.8395 -291.7164
v 905.5120 -98.8395 -291.7164
v 899.9541 -101.3203 -289.3013
v 897.9894 -100.4100 -301.7646
v 899.9541 -101.3203 -289.3013
v 893.8697 -103.5572 -290.2257
v 897.9894 -100.4100 -301.7646
v 893.8697 -103.5572 -290.2257
v 888.8892 -104.9507 -294.2420
v 897.9894 -100.4100 -301.7646
v 888.8892 -104.9507 -294.2420
v 886.3471 -105.1276 -300.2739
v 897.9894 -100.4100 -301.7646
v 886.3471 -105.1276 -300.2739
v 886.9245 -104.0405 -306.7053
v 897.9894 -100.4100 -301.7646
v 886.9245 -104.0405 -306.7053
v 890.4668 -101.9805 -311.8128
v 897.9894 -100.4100 -301.7646
v 890.4668 -101.9805 -311.8128
v 896.0247 -99.4997 -314.2279
v 897.9894 -100.4100 -301.7646
v 896.0247 -99.4997 -314.2279
v 902.1091 -97.2628 -313.3035
v 897.9894 -100.4100 -301.7646
v 902.1091 -97.2628 -313.3035
v 907.0896 -95.8693 -309.2872
v 897.9894 -100.4100 -301.7646
v 907.0896 -95.8693 -309.2872
v 909.6317 -95.6924 -303.2553
v 897.9894 -100.4100 -301.7646
v 909.6317 -95.6924 -303.2553
v 909.0543 -96.7795 -296.8239
v 897.9894 -100.4100 -301.7646
v 909.0543 -96.7795 -296.8239
v 905.5120 -98.8395 -291.7164
v 897.9894 -100.4100 -301.7646
v 837.7101 59.0897 -267.7733
v 843.2680 61.5705 -270.1884
v 835.7454 60.0000 -280.2366
v 831.6257 56.8528 -268.6977
v 837.7101 59.0897 -267.7733
v 835.7454 60.0000 -280.2366
v 826.6452 55.4593 -272.7140
v 831.6257 56.8528 -268.6977
v 835.7454 60.0000 -280.2366
v 824.1031 55.2824 -278.7459
v 826.6452 55.4593 -272.7140
v 835.7454 60.0000 -280.2366
v 824.6805 56.3695 -285.1773
v 824.1031 55.2824 -278.7459
v 835.7454 60.0000 -280.2366
v 828.2228 58.4295 -290.2848
v 824.6805 56.3695 -285.1773
v 835.7454 60.0000 -280.2366
v 833.7807 60.9103 -292.6999
v 828.2228 58.4295 -290.2848
v 835.7454 60.0000 -280.2366
v 839.8651 63.1472 -291.7755
v 833.7807 60.9103 -292.6999
v 835.7454 60.0000 -280.2366
v 844.8456 64.5407 -287.7592
v 839.8651 63.1472 -291.7755
v 835.7454 60.0000 -280.2366
v 847.3877 64.7176 -281.7273
v 844.8456 64.5407 -287.7592
v 835.7454 60.0000 -280.2366
v 846.8103 63.6305 -275.2959
v 847.3877 64.7176 -281.7273
v 835.7454 60.0000 -280.2366
v 843.2680 61.5705 -270.1884
v 846.8103 63.6305 -275.2959
v 835.7454 60.0000 -280.2366
v -890.4668 114.0195 311.8128
v -828.2228 274.4295 290.2848
v -896.0247 116.5003 314.2279
v -828.2228 274.4295 290.2848
v -833.7807 276.9103 292.6999
v -896.0247 116.5003 314.2279
v -896.0247 116.5003 314.2279
v -833.7807 276.9103 292.6999
v -902.1091 118.7372 313.3035
v -833.7807 276.9103 292.6999
v -839.8651 279.1472 291.7755
v -902.1091 118.7372 313.3035
v -902.1091 118.7372 313.3035
v -839.8651 279.1472 291.7755
v -907.0896 120.1307 309.2872
v -839.8651 279.1472 291.7755
v -844.8456 280.5407 287.7592
v -907.0896 120.1307 309.2872
v -907.0896 120.1307 309.2872
v -844.8456 280.5407 287.7592
v -909.6317 120.3076 303.2553
v -844.8456 280.5407 287.7592
v -847.3877 280.7176 281.7273
v -909.6317 120.3076 303.2553
v -909.6317 120.3076 303.2553
v -847.3877 280.7176 281.7273
v -909.0543 119.2205 296.8239
v -847.3877 280.7176 281.7273
v -846.8103 279.6305 275.2959
v -909.0543 119.2205 296.8239
v -909.0543 119.2205 296.8239
v -846.8103 279.6305 275.2959
v -905.5120 117.1605 291.7164
v -846.8103 279.6305 275.2959
v -843.2680 277.5705 270.1884
v -905.5120 117.1605 291.7164
v -905.5120 117.1605 291.7164
v -843.2680 277.5705 270.1884
v -899.9541 114.6797 289.3013
v -843.2680 277.5705 270.1884
v -837.7101 275.0897 267.7733
v -899.9541 114.6797 289.3013
v -899.9541 114.6797 289.3013
v -837.7101 275.0897 267.7733
v -893.8697 112.4428 290.2257
v -837.7101 275.0897 267.7733
v -831.6257 272.8528 268.6977
v -893.8697 112.4428 290.2257
v -893.8697 112.4428 290.2257
v -831.6257 272.8528 268.6977
v -888.8892 111.0493 294.2420
v -831.6257 272.8528 268.6977
v -826.6452 271.4593 272.7140
v -888.8892 111.0493 294.2420
v -888.8892 111.0493 294.2420
v -826.6452 271.4593 272.7140
v -886.3471 110.8724 300.2739
v -826.6452 271.4593 272.7140
v -824.1031 271.2824 278.7459
v -886.3471 110.8724 300.2739
v -886.3471 110.8724 300.2739
v -824.1031 271.2824 278.7459
v -886.9245 111.9595 306.7053
v -824.1031 271.2824 278.7459
v -824.6805 272.3695 285.1773
v -886.9245 111.9595 306.7053
v -886.9245 111.9595 306.7053
v -824.6805 272.3695 285.1773
v -890.4668 114.0195 311.8128
v -824.6805 272.3695 285.1773
v -828.2228 274.4295 290.2848
v -890.4668 114.0195 311.8128
v -890.4668 114.0195 311.8128
v -896.0247 116.5003 314.2279
v -897.9894 115.5900 301.7646
v -896.0247 116.5003 314.2279
v -902.1091 118.7372 313.3035
v -897.9894 115.5900 301.7646
v -902.1091 118.7372 313.3035
v -907.0896 120.1307 309.2872
v -897.9894 115.5900 301.7646
v -907.0896 120.1307 309.2872
v -909.6317 120.3076 303.2553
v -897.9894 115.5900 301.7646
v -909.6317 120.3076 303.2553
v -909.0543 119.2205 296.8239
v -897.9894 115.5900 301.7646
v -909.0543 119.2205 296.8239
v -905.5120 117.1605 291.7164
v -897.9894 115.5900 301.7646
v -905.5120 117.1605 291.7164
v -899.9541 114.6797 289.3013
v -897.9894 115.5900 301.7646
v -899.9541 114.6797 289.3013
v -893.8697 112.4428 290.2257
v -897.9894 115.5900 301.7646
v -893.8697 112.4428 290.2257
v -888.8892 111.0493 294.2420
v -897.9894 115.5900 301.7646
v -888.8892 111.0493 294.2420
v -886.3471 110.8724 300.2739
v -897.9894 115.5900 301.7646
v -886.3471 110.8724 300.2739
v -886.9245 111.9595 306.7053
v -897.9894 115.5900 301.7646
v -886.9245 111.9595 306.7053
v -890.4668 114.0195 311.8128
v -897.9894 115.5900 301.7646
v -833.7807 276.9103 292.6999
v -828.2228 274.4295 290.2848
v -835.7454 276.0000 280.2366
v -839.8651 279.1472 291.7755
v -833.7807 276.9103 292.6999
v -835.7454 276.0000 280.2366
v -844.8456 280.5407 287.7592
v -839.8651 279.1472 291.7755
v -835.7454 276.0000 280.2366
v -847.3877 280.7176 281.7273
v -844.8456 280.5407 287.7592
v -835.7454 276.0000 280.2366
v -846.8103 279.6305 275.2959
v -847.3877 280.7176 281.7273
v -835.7454 276.0000 280.2366
v -843.2680 277.5705 270.1884
v -846.8103 279.6305 275.2959
v -835.7454 276.0000 280.2366
v -837.7101 275.0897 267.7733
v -843.2680 277.5705 270.1884
v -835.7454 276.0000 280.2366
v -831.6257 272.8528 268.6977
v -837.7101 275.0897 267.7733
v -835.7454 276.0000 280.2366
v -826.6452 271.4593 272.7140
v -831.6257 272.8528 268.6977
v -835.7454 276.0000 280.2366
v -824.1031 271.2824 278.7459
v -826.6452 271.4593 272.7140
v -835.7454 276.0000 280.2366
v -824.6805 272.3695 285.1773
v -824.1031 271.2824 278.7459
v -835.7454 276.0000 280.2366
v -828.2228 274.4295 290.2848
v -824.6805 272.3695 285.1773
v -835.7454 276.0000 280.2366
v 890.4668 330.0195 311.8128
v 828.2228 490.4295 290.2848
v 886.9245 327.9595 306.7053
v 828.2228 490.4295 290.2848
v 824.6805 488.3695 285.1773
v 886.9245 327.9595 306.7053
v 886.9245 327.9595 306.7053
v 824.6805 488.3695 285.1773
v 886.3471 326.8724 300.2739
v 824.6805 488.3695 285.1773
v 824.1031 487.2824 278.7459
v 886.3471 326.8724 300.2739
v 886.3471 326.8724 300.2739
v 824.1031 487.2824 278.7459
v 888.8892 327.0493 294.2420
v 824.1031 487.2824 278.7459
v 826.6452 487.4593 272.7140
v 888.8892 327.0493 294.2420
v 888.8892 327.0493 294.2420
v 826.6452 487.4593 272.7140
v 893.8697 328.4428 290.2257
v 826.6452 487.4593 272.7140
v 831.6257 488.8528 268.6977
v 893.8697 328.4428 290.2257
v 893.8697 328.4428 290.2257
v 831.6257 488.8528 268.6977
v 899.9541 330.6797 289.3013
v 831.6257 488.8528 268.6977
v 837.7101 491.0897 267.7733
v 899.9541 330.6797 289.3013
v 899.9541 330.6797 289.3013
v 837.7101 491.0897 267.7733
v 905.5120 333.1605 291.7164
v 837.7101 491.0897 267.7733
v 843.2680 493.5705 270.1884
v 905.5120 333.1605 291.7164
v 905.5120 333.1605 291.7164
v 843.2680 493.5705 270.1884
v 909.0543 335.2205 296.8239
v 843.2680 493.5705 270.1884
v 846.8103 495.6305 275.2959
v 909.0543 335.2205 296.8239
v 909.0543 335.2205 296.8239
v 846.8103 495.6305 275.2959
v 909.6317 336.3076 303.2553
v 846.8103 495.6305 275.2959
v 847.3877 496.7176 281.7273
v 909.6317 336.3076 303.2553
v 909.6317 336.3076 303.2553
v 847.3877 496.7176 281.7273
v 907.0896 336.1307 309.2872
v 847.3877 496.7176 281.7273
v 844.8456 496.5407 287.7592
v 907.0896 336.1307 309.2872
v 907.0896 336.1307 309.2872
v 844.8456 496.5407 287.7592
v 902.1091 334.7372 313.3035
v 844.8456 496.5407 287.7592
v 839.8651 495.1472 291.7755
v 902.1091 334.7372 313.3035
v 902.1091 334.7372 313.3035
v 839.8651 495.1472 291.7755
v 896.0247 332.5003 314.2279
v 839.8651 495.1472 291.7755
v 833.7807 492.9103 292.6999
v 896.0247 332.5003 314.2279
v 896.0247 332.5003 314.2279
v 833.7807 492.9103 292.6999
v 890.4668 330.0195 311.8128
v 833.7807 492.9103 292.6999
v 828.2228 490.4295 290.2848
v 890.4668 330.0195 311.8128
v 890.4668 330.0195 311.8128
v 886.9245 327.9595 306.7053
v 897.9894 331.5900 301.7646
v 886.9245 327.9595 306.7053
v 886.3471 326.8724 300.2739
v 897.9894 331.5900 301.7646
v 886.3471 326.8724 300.2739
v 888.8892 327.0493 294.2420
v 897.9894 331.5900 301.7646
v 888.8892 327.0493 294.2420
v 893.8697 328.4428 290.2257
v 897.9894 331.5900 301.7646
v 893.8697 328.4428 290.2257
v 899.9541 330.6797 289.3013
v 897.9894 331.5900 301.7646
v 899.9541 330.6797 289.3013
v 905.5120 333.1605 291.7164
v 897.9894 331.5900 301.7646
v 905.5120 333.1605 291.7164
v 909.0543 335.2205 296.8239
v 897.9894 331.5900 301.7646
v 909.0543 335.2205 296.8239
v 909.6317 336.3076 303.2553
v 897.9894 331.5900 301.7646
v 909.6317 336.3076 303.2553
v 907.0896 336.1307 309.2872
v 897.9894 331.5900 301.7646
v 907.0896 336.1307 309.2872
v 902.1091 334.7372 313.3035
v 897.9894 331.5900 301.7646
v 902.1091 334.7372 313.3035
v 896.0247 332.5003 314.2279
v 897.9894 331.5900 301.7646
v 896.0247 332.5003 314.2279
v 890.4668 330.0195 311.8128
v 897.9894 331.5900 301.7646
v 824.6805 488.3695 285.1773
v 828.2228 490.4295 290.2848
v 835.7454 492.0000 280.2366
v 824.1031 487.2824 278.7459
v 824.6805 488.3695 285.1773
v 835.7454 492.0000 280.2366
v 826.6452 487.4593 272.7140
v 824.1031 487.2824 278.7459
v 835.7454 492.0000 280.2366
v 831.6257 488.8528 268.6977
v 826.6452 487.4593 272.7140
v 835.7454 492.0000 280.2366
v 837.7101 491.0897 267.7733
v 831.6257 488.8528 268.6977
v 835.7454 492.0000 280.2366
v 843.2680 493.5705 270.1884
v 837.7101 491.0897 267.7733
v 835.7454 492.0000 280.2366
v 846.8103 495.6305 275.2959
v 843.2680 493.5705 270.1884
v 835.7454 492.0000 280.2366
v 847.3877 496.7176 281.7273
v 846.8103 495.6305 275.2959
v 835.7454 492.0000 280.2366
v 844.8456 496.5407 287.7592
v 847.3877 496.7176 281.7273
v 835.7454 492.0000 280.2366
v 839.8651 495.1472 291.7755
v 844.8456 496.5407 287.7592
v 835.7454 492.0000 280.2366
v 833.7807 492.9103 292.6999
v 839.8651 495.1472 291.7755
v 835.7454 492.0000 280.2366
v 828.2228 490.4295 290.2848
v 833.7807 492.9103 292.6999
v 835.7454 492.0000 280.2366
f 1 2 3
f 4 5 6
f 7 8 9
f 10 11 12
f 13 14 15
f 16 17 18
f 19 20 21
f 22 23 24
f 25 26 27
f 28 29 30
f 31 32 33
f 34 35 36
f 37 38 39
f 40 41 42
f 43 44 45
f 46 47 48
f 49 50 51
f 52 53 54
f 55 56 57
f 58 59 60
f 61 62 63
f 64 65 66
f 67 68 69
f 70 71 72
f 73 74 75
f 76 77 78
f 79 80 81
f 82 83 84
f 85 86 87
f 88 89 90
f 91 92 93
f 94 95 96
f 97 98 99
f 100 101 102
f 103 104 105
f 106 107 108
f 109 110 111
f 112 113 114
f 115 116 117
f 118 119 120
f 121 122 123
f 124 125 126
f 127 128 129
f 130 131 132
f 133 134 135
f 136 137 138
f 139 140 141
f 142 143 144
f 145 146 147
f 148 149 150
f 151 152 153
f 154 155 156
f 157 158 159
f 160 161 162
f 163 164 165
f 166 167 168
f 169 170 171
f 172 173 174
f 175 176 177
f 178 179 180
f 181 182 183
f 184 185 186
f 187 188 189
f 190 191 192
f 193 194 195
f 196 197 198
f 199 200 201
f 202 203 204
f 205 206 207
f 208 209 210
f 211 212 213
f 214 215 216
f 217 218 219
f 220 221 222
f 223 224 225
f 226 227 228
f 229 230 231
f 232 233 234
f 235 236 237
f 238 239 240
f 241 242 243
f 244 245 246
f 247 248 249
f 250 251 252
f 253 254 255
f 256 257 258
f 259 260 261
f 262 263 264
f 265 266 267
f 268 269 270
f 271 272 273
f 274 275 276
f 277 278 279
f 280 281 282
f 283 284 285
f 286 287 288
f 289 290 291
f 292 293 294
f 295 296 297
f 298 299 300
f 301 302 303
f 304 305 306
f 307 308 309
f 310 311 312
f 313 314 315
f 316 317 318
f 319 320 321
f 322 323 324
f 325 326 327
f 328 329 330
f 331 332 333
f 334 335 336
f 337 338 339
f 340 341 342
f 343 344 345
f 346 347 348
f 349 350 351
f 352 353 354
f 355 356 357
f 358 359 360
f 361 362 363
f 364 365 366
f 367 368 369
f 370 371 372
f 373 374 375
f 376 377 378
f 379 380 381
f 382 383 384
f 385 386 387
f 388 389 390
f 391 392 393
f 394 395 396
f 397 398 399
f 400 401 402
f 403 404 405
f 406 407 408
f 409 410 411
f 412 413 414
f 415 416 417
f 418 419 420
f 421 422 423
f 424 425 426
f 427 428 429
f 430 431 432
f 433 434 435
f 436 437 438
f 439 440 441
f 442 443 444
f 445 446 447
f 448 449 450
f 451 452 453
f 454 455 456
f 457 458 459
f 460 461 462
f 463 464 465
f 466 467 468
f 469 470 471
f 472 473 474
f 475 476 477
f 478 479 480
f 481 482 483
f 484 485 486
f 487 488 489
f 490 491 492
f 493 494 495
f 496 497 498
f 499 500 501
f 502 503 504
f 505 506 507
f 508 509 510
f 511 512 513
f 514 515 516
f 517 518 519
f 520 521 522
f 523 524 525
f 526 527 528
f 529 530 531
f 532 533 534
f 535 536 537
f 538 539 540
f 541 542 543
f 544 545 546
f 547 548 549
f 550 551 552
f 553 554 555
f 556 557 558
f 559 560 561
f 562 563 564
f 565 566 567
f 568 569 570
f 571 572 573
f 574 575 576
f 577 578 579
f 580 581 582
f 583 584 585
f 586 587 588
f 589 590 591
f 592 593 594
f 595 596 597
f 598 599 600
f 601 602 603
f 604 605 606
f 607 608 609
f 610 611 612
f 613 614 615
f 616 617 618
f 619 620 621
f 622 623 624
f 625 626 627
f 628 629 630
f 631 632 633
f 634 635 636
f 637 638 639
f 640 641 642
f 643 644 645
f 646 647 648
f 649 650 651
f 652 653 654
f 655 656 657
f 658 659 660
f 661 662 663
f 664 665 666
f 667 668 669
f 670 671 672
f 673 674 675
f 676 677 678
f 679 680 681
f 682 683 684
f 685 686 687
f 688 689 690
f 691 692 693
f 694 695 696
f 697 698 699
f 700 701 702
f 703 704 705
f 706 707 708
f 709 710 711
f 712 713 714
f 715 716 717
f 718 719 720
