# MATERIA - D.859.1
# Geometria originale di studio. Unita mm. Non CAD del produttore.
v 980.0000 567.3500 530.0000
v 980.0000 509.0500 530.0000
v 980.0000 567.3500 -530.0000
v 980.0000 509.0500 530.0000
v 980.0000 509.0500 -530.0000
v 980.0000 567.3500 -530.0000
v -980.0000 567.3500 -530.0000
v -980.0000 509.0500 -530.0000
v -980.0000 567.3500 530.0000
v -980.0000 509.0500 -530.0000
v -980.0000 509.0500 530.0000
v -980.0000 567.3500 530.0000
v -980.0000 567.3500 -530.0000
v -980.0000 567.3500 530.0000
v 980.0000 567.3500 -530.0000
v -980.0000 567.3500 530.0000
v 980.0000 567.3500 530.0000
v 980.0000 567.3500 -530.0000
v -980.0000 509.0500 530.0000
v -980.0000 509.0500 -530.0000
v 980.0000 509.0500 530.0000
v -980.0000 509.0500 -530.0000
v 980.0000 509.0500 -530.0000
v 980.0000 509.0500 530.0000
v -980.0000 567.3500 530.0000
v -980.0000 509.0500 530.0000
v 980.0000 567.3500 530.0000
v -980.0000 509.0500 530.0000
v 980.0000 509.0500 530.0000
v 980.0000 567.3500 530.0000
v 980.0000 567.3500 -530.0000
v 980.0000 509.0500 -530.0000
v -980.0000 567.3500 -530.0000
v 980.0000 509.0500 -530.0000
v -980.0000 509.0500 -530.0000
v -980.0000 567.3500 -530.0000
v -1347.6151 -50.6729 -679.3420
v -1255.8871 651.4871 -629.7340
v -1352.2207 -49.0624 -693.6206
v -1255.8871 651.4871 -629.7340
v -1260.4927 653.0976 -644.0126
v -1352.2207 -49.0624 -693.6206
v -1352.2207 -49.0624 -693.6206
v -1260.4927 653.0976 -644.0126
v -1349.0912 -48.4293 -708.3681
v -1260.4927 653.0976 -644.0126
v -1257.3632 653.7307 -658.7601
v -1349.0912 -48.4293 -708.3681
v -1349.0912 -48.4293 -708.3681
v -1257.3632 653.7307 -658.7601
v -1339.0651 -48.9433 -719.6329
v -1257.3632 653.7307 -658.7601
v -1247.3371 653.2167 -670.0249
v -1339.0651 -48.9433 -719.6329
v -1339.0651 -48.9433 -719.6329
v -1247.3371 653.2167 -670.0249
v -1324.8289 -50.4665 -724.3966
v -1247.3371 653.2167 -670.0249
v -1233.1009 651.6935 -674.7886
v -1324.8289 -50.4665 -724.3966
v -1324.8289 -50.4665 -724.3966
v -1233.1009 651.6935 -674.7886
v -1310.1972 -52.5908 -721.3829
v -1233.1009 651.6935 -674.7886
v -1218.4692 649.5692 -671.7749
v -1310.1972 -52.5908 -721.3829
v -1310.1972 -52.5908 -721.3829
v -1218.4692 649.5692 -671.7749
v -1299.0905 -54.7471 -711.3992
v -1218.4692 649.5692 -671.7749
v -1207.3625 647.4129 -661.7912
v -1299.0905 -54.7471 -711.3992
v -1299.0905 -54.7471 -711.3992
v -1207.3625 647.4129 -661.7912
v -1294.4849 -56.3576 -697.1206
v -1207.3625 647.4129 -661.7912
v -1202.7569 645.8024 -647.5126
v -1294.4849 -56.3576 -697.1206
v -1294.4849 -56.3576 -697.1206
v -1202.7569 645.8024 -647.5126
v -1297.6144 -56.9907 -682.3731
v -1202.7569 645.8024 -647.5126
v -1205.8864 645.1693 -632.7651
v -1297.6144 -56.9907 -682.3731
v -1297.6144 -56.9907 -682.3731
v -1205.8864 645.1693 -632.7651
v -1307.6405 -56.4767 -671.1083
v -1205.8864 645.1693 -632.7651
v -1215.9125 645.6833 -621.5003
v -1307.6405 -56.4767 -671.1083
v -1307.6405 -56.4767 -671.1083
v -1215.9125 645.6833 -621.5003
v -1321.8767 -54.9535 -666.3446
v -1215.9125 645.6833 -621.5003
v -1230.1487 647.2065 -616.7366
v -1321.8767 -54.9535 -666.3446
v -1321.8767 -54.9535 -666.3446
v -1230.1487 647.2065 -616.7366
v -1336.5084 -52.8292 -669.3583
v -1230.1487 647.2065 -616.7366
v -1244.7804 649.3308 -619.7503
v -1336.5084 -52.8292 -669.3583
v -1336.5084 -52.8292 -669.3583
v -1244.7804 649.3308 -619.7503
v -1347.6151 -50.6729 -679.3420
v -1244.7804 649.3308 -619.7503
v -1255.8871 651.4871 -629.7340
v -1347.6151 -50.6729 -679.3420
v -1347.6151 -50.6729 -679.3420
v -1352.2207 -49.0624 -693.6206
v -1323.3528 -52.7100 -695.3706
v -1352.2207 -49.0624 -693.6206
v -1349.0912 -48.4293 -708.3681
v -1323.3528 -52.7100 -695.3706
v -1349.0912 -48.4293 -708.3681
v -1339.0651 -48.9433 -719.6329
v -1323.3528 -52.7100 -695.3706
v -1339.0651 -48.9433 -719.6329
v -1324.8289 -50.4665 -724.3966
v -1323.3528 -52.7100 -695.3706
v -1324.8289 -50.4665 -724.3966
v -1310.1972 -52.5908 -721.3829
v -1323.3528 -52.7100 -695.3706
v -1310.1972 -52.5908 -721.3829
v -1299.0905 -54.7471 -711.3992
v -1323.3528 -52.7100 -695.3706
v -1299.0905 -54.7471 -711.3992
v -1294.4849 -56.3576 -697.1206
v -1323.3528 -52.7100 -695.3706
v -1294.4849 -56.3576 -697.1206
v -1297.6144 -56.9907 -682.3731
v -1323.3528 -52.7100 -695.3706
v -1297.6144 -56.9907 -682.3731
v -1307.6405 -56.4767 -671.1083
v -1323.3528 -52.7100 -695.3706
v -1307.6405 -56.4767 -671.1083
v -1321.8767 -54.9535 -666.3446
v -1323.3528 -52.7100 -695.3706
v -1321.8767 -54.9535 -666.3446
v -1336.5084 -52.8292 -669.3583
v -1323.3528 -52.7100 -695.3706
v -1336.5084 -52.8292 -669.3583
v -1347.6151 -50.6729 -679.3420
v -1323.3528 -52.7100 -695.3706
v -1260.4927 653.0976 -644.0126
v -1255.8871 651.4871 -629.7340
v -1231.6248 649.4500 -645.7626
v -1257.3632 653.7307 -658.7601
v -1260.4927 653.0976 -644.0126
v -1231.6248 649.4500 -645.7626
v -1247.3371 653.2167 -670.0249
v -1257.3632 653.7307 -658.7601
v -1231.6248 649.4500 -645.7626
v -1233.1009 651.6935 -674.7886
v -1247.3371 653.2167 -670.0249
v -1231.6248 649.4500 -645.7626
v -1218.4692 649.5692 -671.7749
v -1233.1009 651.6935 -674.7886
v -1231.6248 649.4500 -645.7626
v -1207.3625 647.4129 -661.7912
v -1218.4692 649.5692 -671.7749
v -1231.6248 649.4500 -645.7626
v -1202.7569 645.8024 -647.5126
v -1207.3625 647.4129 -661.7912
v -1231.6248 649.4500 -645.7626
v -1205.8864 645.1693 -632.7651
v -1202.7569 645.8024 -647.5126
v -1231.6248 649.4500 -645.7626
v -1215.9125 645.6833 -621.5003
v -1205.8864 645.1693 -632.7651
v -1231.6248 649.4500 -645.7626
v -1230.1487 647.2065 -616.7366
v -1215.9125 645.6833 -621.5003
v -1231.6248 649.4500 -645.7626
v -1244.7804 649.3308 -619.7503
v -1230.1487 647.2065 -616.7366
v -1231.6248 649.4500 -645.7626
v -1255.8871 651.4871 -629.7340
v -1244.7804 649.3308 -619.7503
v -1231.6248 649.4500 -645.7626
v 1347.6151 89.7271 -679.3420
v 1255.8871 791.8871 -629.7340
v 1336.5084 87.5708 -669.3583
v 1255.8871 791.8871 -629.7340
v 1244.7804 789.7308 -619.7503
v 1336.5084 87.5708 -669.3583
v 1336.5084 87.5708 -669.3583
v 1244.7804 789.7308 -619.7503
v 1321.8767 85.4465 -666.3446
v 1244.7804 789.7308 -619.7503
v 1230.1487 787.6065 -616.7366
v 1321.8767 85.4465 -666.3446
v 1321.8767 85.4465 -666.3446
v 1230.1487 787.6065 -616.7366
v 1307.6405 83.9233 -671.1083
v 1230.1487 787.6065 -616.7366
v 1215.9125 786.0833 -621.5003
v 1307.6405 83.9233 -671.1083
v 1307.6405 83.9233 -671.1083
v 1215.9125 786.0833 -621.5003
v 1297.6144 83.4093 -682.3731
v 1215.9125 786.0833 -621.5003
v 1205.8864 785.5693 -632.7651
v 1297.6144 83.4093 -682.3731
v 1297.6144 83.4093 -682.3731
v 1205.8864 785.5693 -632.7651
v 1294.4849 84.0424 -697.1206
v 1205.8864 785.5693 -632.7651
v 1202.7569 786.2024 -647.5126
v 1294.4849 84.0424 -697.1206
v 1294.4849 84.0424 -697.1206
v 1202.7569 786.2024 -647.5126
v 1299.0905 85.6529 -711.3992
v 1202.7569 786.2024 -647.5126
v 1207.3625 787.8129 -661.7912
v 1299.0905 85.6529 -711.3992
v 1299.0905 85.6529 -711.3992
v 1207.3625 787.8129 -661.7912
v 1310.1972 87.8092 -721.3829
v 1207.3625 787.8129 -661.7912
v 1218.4692 789.9692 -671.7749
v 1310.1972 87.8092 -721.3829
v 1310.1972 87.8092 -721.3829
v 1218.4692 789.9692 -671.7749
v 1324.8289 89.9335 -724.3966
v 1218.4692 789.9692 -671.7749
v 1233.1009 792.0935 -674.7886
v 1324.8289 89.9335 -724.3966
v 1324.8289 89.9335 -724.3966
v 1233.1009 792.0935 -674.7886
v 1339.0651 91.4567 -719.6329
v 1233.1009 792.0935 -674.7886
v 1247.3371 793.6167 -670.0249
v 1339.0651 91.4567 -719.6329
v 1339.0651 91.4567 -719.6329
v 1247.3371 793.6167 -670.0249
v 1349.0912 91.9707 -708.3681
v 1247.3371 793.6167 -670.0249
v 1257.3632 794.1307 -658.7601
v 1349.0912 91.9707 -708.3681
v 1349.0912 91.9707 -708.3681
v 1257.3632 794.1307 -658.7601
v 1352.2207 91.3376 -693.6206
v 1257.3632 794.1307 -658.7601
v 1260.4927 793.4976 -644.0126
v 1352.2207 91.3376 -693.6206
v 1352.2207 91.3376 -693.6206
v 1260.4927 793.4976 -644.0126
v 1347.6151 89.7271 -679.3420
v 1260.4927 793.4976 -644.0126
v 1255.8871 791.8871 -629.7340
v 1347.6151 89.7271 -679.3420
v 1347.6151 89.7271 -679.3420
v 1336.5084 87.5708 -669.3583
v 1323.3528 87.6900 -695.3706
v 1336.5084 87.5708 -669.3583
v 1321.8767 85.4465 -666.3446
v 1323.3528 87.6900 -695.3706
v 1321.8767 85.4465 -666.3446
v 1307.6405 83.9233 -671.1083
v 1323.3528 87.6900 -695.3706
v 1307.6405 83.9233 -671.1083
v 1297.6144 83.4093 -682.3731
v 1323.3528 87.6900 -695.3706
v 1297.6144 83.4093 -682.3731
v 1294.4849 84.0424 -697.1206
v 1323.3528 87.6900 -695.3706
v 1294.4849 84.0424 -697.1206
v 1299.0905 85.6529 -711.3992
v 1323.3528 87.6900 -695.3706
v 1299.0905 85.6529 -711.3992
v 1310.1972 87.8092 -721.3829
v 1323.3528 87.6900 -695.3706
v 1310.1972 87.8092 -721.3829
v 1324.8289 89.9335 -724.3966
v 1323.3528 87.6900 -695.3706
v 1324.8289 89.9335 -724.3966
v 1339.0651 91.4567 -719.6329
v 1323.3528 87.6900 -695.3706
v 1339.0651 91.4567 -719.6329
v 1349.0912 91.9707 -708.3681
v 1323.3528 87.6900 -695.3706
v 1349.0912 91.9707 -708.3681
v 1352.2207 91.3376 -693.6206
v 1323.3528 87.6900 -695.3706
v 1352.2207 91.3376 -693.6206
v 1347.6151 89.7271 -679.3420
v 1323.3528 87.6900 -695.3706
v 1244.7804 789.7308 -619.7503
v 1255.8871 791.8871 -629.7340
v 1231.6248 789.8500 -645.7626
v 1230.1487 787.6065 -616.7366
v 1244.7804 789.7308 -619.7503
v 1231.6248 789.8500 -645.7626
v 1215.9125 786.0833 -621.5003
v 1230.1487 787.6065 -616.7366
v 1231.6248 789.8500 -645.7626
v 1205.8864 785.5693 -632.7651
v 1215.9125 786.0833 -621.5003
v 1231.6248 789.8500 -645.7626
v 1202.7569 786.2024 -647.5126
v 1205.8864 785.5693 -632.7651
v 1231.6248 789.8500 -645.7626
v 1207.3625 787.8129 -661.7912
v 1202.7569 786.2024 -647.5126
v 1231.6248 789.8500 -645.7626
v 1218.4692 789.9692 -671.7749
v 1207.3625 787.8129 -661.7912
v 1231.6248 789.8500 -645.7626
v 1233.1009 792.0935 -674.7886
v 1218.4692 789.9692 -671.7749
v 1231.6248 789.8500 -645.7626
v 1247.3371 793.6167 -670.0249
v 1233.1009 792.0935 -674.7886
v 1231.6248 789.8500 -645.7626
v 1257.3632 794.1307 -658.7601
v 1247.3371 793.6167 -670.0249
v 1231.6248 789.8500 -645.7626
v 1260.4927 793.4976 -644.0126
v 1257.3632 794.1307 -658.7601
v 1231.6248 789.8500 -645.7626
v 1255.8871 791.8871 -629.7340
v 1260.4927 793.4976 -644.0126
v 1231.6248 789.8500 -645.7626
v -1299.0905 226.0529 711.3992
v -1207.3625 928.2129 661.7912
v -1310.1972 228.2092 721.3829
v -1207.3625 928.2129 661.7912
v -1218.4692 930.3692 671.7749
v -1310.1972 228.2092 721.3829
v -1310.1972 228.2092 721.3829
v -1218.4692 930.3692 671.7749
v -1324.8289 230.3335 724.3966
v -1218.4692 930.3692 671.7749
v -1233.1009 932.4935 674.7886
v -1324.8289 230.3335 724.3966
v -1324.8289 230.3335 724.3966
v -1233.1009 932.4935 674.7886
v -1339.0651 231.8567 719.6329
v -1233.1009 932.4935 674.7886
v -1247.3371 934.0167 670.0249
v -1339.0651 231.8567 719.6329
v -1339.0651 231.8567 719.6329
v -1247.3371 934.0167 670.0249
v -1349.0912 232.3707 708.3681
v -1247.3371 934.0167 670.0249
v -1257.3632 934.5307 658.7601
v -1349.0912 232.3707 708.3681
v -1349.0912 232.3707 708.3681
v -1257.3632 934.5307 658.7601
v -1352.2207 231.7376 693.6206
v -1257.3632 934.5307 658.7601
v -1260.4927 933.8976 644.0126
v -1352.2207 231.7376 693.6206
v -1352.2207 231.7376 693.6206
v -1260.4927 933.8976 644.0126
v -1347.6151 230.1271 679.3420
v -1260.4927 933.8976 644.0126
v -1255.8871 932.2871 629.7340
v -1347.6151 230.1271 679.3420
v -1347.6151 230.1271 679.3420
v -1255.8871 932.2871 629.7340
v -1336.5084 227.9708 669.3583
v -1255.8871 932.2871 629.7340
v -1244.7804 930.1308 619.7503
v -1336.5084 227.9708 669.3583
v -1336.5084 227.9708 669.3583
v -1244.7804 930.1308 619.7503
v -1321.8767 225.8465 666.3446
v -1244.7804 930.1308 619.7503
v -1230.1487 928.0065 616.7366
v -1321.8767 225.8465 666.3446
v -1321.8767 225.8465 666.3446
v -1230.1487 928.0065 616.7366
v -1307.6405 224.3233 671.1083
v -1230.1487 928.0065 616.7366
v -1215.9125 926.4833 621.5003
v -1307.6405 224.3233 671.1083
v -1307.6405 224.3233 671.1083
v -1215.9125 926.4833 621.5003
v -1297.6144 223.8093 682.3731
v -1215.9125 926.4833 621.5003
v -1205.8864 925.9693 632.7651
v -1297.6144 223.8093 682.3731
v -1297.6144 223.8093 682.3731
v -1205.8864 925.9693 632.7651
v -1294.4849 224.4424 697.1206
v -1205.8864 925.9693 632.7651
v -1202.7569 926.6024 647.5126
v -1294.4849 224.4424 697.1206
v -1294.4849 224.4424 697.1206
v -1202.7569 926.6024 647.5126
v -1299.0905 226.0529 711.3992
v -1202.7569 926.6024 647.5126
v -1207.3625 928.2129 661.7912
v -1299.0905 226.0529 711.3992
v -1299.0905 226.0529 711.3992
v -1310.1972 228.2092 721.3829
v -1323.3528 228.0900 695.3706
v -1310.1972 228.2092 721.3829
v -1324.8289 230.3335 724.3966
v -1323.3528 228.0900 695.3706
v -1324.8289 230.3335 724.3966
v -1339.0651 231.8567 719.6329
v -1323.3528 228.0900 695.3706
v -1339.0651 231.8567 719.6329
v -1349.0912 232.3707 708.3681
v -1323.3528 228.0900 695.3706
v -1349.0912 232.3707 708.3681
v -1352.2207 231.7376 693.6206
v -1323.3528 228.0900 695.3706
v -1352.2207 231.7376 693.6206
v -1347.6151 230.1271 679.3420
v -1323.3528 228.0900 695.3706
v -1347.6151 230.1271 679.3420
v -1336.5084 227.9708 669.3583
v -1323.3528 228.0900 695.3706
v -1336.5084 227.9708 669.3583
v -1321.8767 225.8465 666.3446
v -1323.3528 228.0900 695.3706
v -1321.8767 225.8465 666.3446
v -1307.6405 224.3233 671.1083
v -1323.3528 228.0900 695.3706
v -1307.6405 224.3233 671.1083
v -1297.6144 223.8093 682.3731
v -1323.3528 228.0900 695.3706
v -1297.6144 223.8093 682.3731
v -1294.4849 224.4424 697.1206
v -1323.3528 228.0900 695.3706
v -1294.4849 224.4424 697.1206
v -1299.0905 226.0529 711.3992
v -1323.3528 228.0900 695.3706
v -1218.4692 930.3692 671.7749
v -1207.3625 928.2129 661.7912
v -1231.6248 930.2500 645.7626
v -1233.1009 932.4935 674.7886
v -1218.4692 930.3692 671.7749
v -1231.6248 930.2500 645.7626
v -1247.3371 934.0167 670.0249
v -1233.1009 932.4935 674.7886
v -1231.6248 930.2500 645.7626
v -1257.3632 934.5307 658.7601
v -1247.3371 934.0167 670.0249
v -1231.6248 930.2500 645.7626
v -1260.4927 933.8976 644.0126
v -1257.3632 934.5307 658.7601
v -1231.6248 930.2500 645.7626
v -1255.8871 932.2871 629.7340
v -1260.4927 933.8976 644.0126
v -1231.6248 930.2500 645.7626
v -1244.7804 930.1308 619.7503
v -1255.8871 932.2871 629.7340
v -1231.6248 930.2500 645.7626
v -1230.1487 928.0065 616.7366
v -1244.7804 930.1308 619.7503
v -1231.6248 930.2500 645.7626
v -1215.9125 926.4833 621.5003
v -1230.1487 928.0065 616.7366
v -1231.6248 930.2500 645.7626
v -1205.8864 925.9693 632.7651
v -1215.9125 926.4833 621.5003
v -1231.6248 930.2500 645.7626
v -1202.7569 926.6024 647.5126
v -1205.8864 925.9693 632.7651
v -1231.6248 930.2500 645.7626
v -1207.3625 928.2129 661.7912
v -1202.7569 926.6024 647.5126
v -1231.6248 930.2500 645.7626
v 1299.0905 -195.1471 711.3992
v 1207.3625 507.0129 661.7912
v 1294.4849 -196.7576 697.1206
v 1207.3625 507.0129 661.7912
v 1202.7569 505.4024 647.5126
v 1294.4849 -196.7576 697.1206
v 1294.4849 -196.7576 697.1206
v 1202.7569 505.4024 647.5126
v 1297.6144 -197.3907 682.3731
v 1202.7569 505.4024 647.5126
v 1205.8864 504.7693 632.7651
v 1297.6144 -197.3907 682.3731
v 1297.6144 -197.3907 682.3731
v 1205.8864 504.7693 632.7651
v 1307.6405 -196.8767 671.1083
v 1205.8864 504.7693 632.7651
v 1215.9125 505.2833 621.5003
v 1307.6405 -196.8767 671.1083
v 1307.6405 -196.8767 671.1083
v 1215.9125 505.2833 621.5003
v 1321.8767 -195.3535 666.3446
v 1215.9125 505.2833 621.5003
v 1230.1487 506.8065 616.7366
v 1321.8767 -195.3535 666.3446
v 1321.8767 -195.3535 666.3446
v 1230.1487 506.8065 616.7366
v 1336.5084 -193.2292 669.3583
v 1230.1487 506.8065 616.7366
v 1244.7804 508.9308 619.7503
v 1336.5084 -193.2292 669.3583
v 1336.5084 -193.2292 669.3583
v 1244.7804 508.9308 619.7503
v 1347.6151 -191.0729 679.3420
v 1244.7804 508.9308 619.7503
v 1255.8871 511.0871 629.7340
v 1347.6151 -191.0729 679.3420
v 1347.6151 -191.0729 679.3420
v 1255.8871 511.0871 629.7340
v 1352.2207 -189.4624 693.6206
v 1255.8871 511.0871 629.7340
v 1260.4927 512.6976 644.0126
v 1352.2207 -189.4624 693.6206
v 1352.2207 -189.4624 693.6206
v 1260.4927 512.6976 644.0126
v 1349.0912 -188.8293 708.3681
v 1260.4927 512.6976 644.0126
v 1257.3632 513.3307 658.7601
v 1349.0912 -188.8293 708.3681
v 1349.0912 -188.8293 708.3681
v 1257.3632 513.3307 658.7601
v 1339.0651 -189.3433 719.6329
v 1257.3632 513.3307 658.7601
v 1247.3371 512.8167 670.0249
v 1339.0651 -189.3433 719.6329
v 1339.0651 -189.3433 719.6329
v 1247.3371 512.8167 670.0249
v 1324.8289 -190.8665 724.3966
v 1247.3371 512.8167 670.0249
v 1233.1009 511.2935 674.7886
v 1324.8289 -190.8665 724.3966
v 1324.8289 -190.8665 724.3966
v 1233.1009 511.2935 674.7886
v 1310.1972 -192.9908 721.3829
v 1233.1009 511.2935 674.7886
v 1218.4692 509.1692 671.7749
v 1310.1972 -192.9908 721.3829
v 1310.1972 -192.9908 721.3829
v 1218.4692 509.1692 671.7749
v 1299.0905 -195.1471 711.3992
v 1218.4692 509.1692 671.7749
v 1207.3625 507.0129 661.7912
v 1299.0905 -195.1471 711.3992
v 1299.0905 -195.1471 711.3992
v 1294.4849 -196.7576 697.1206
v 1323.3528 -193.1100 695.3706
v 1294.4849 -196.7576 697.1206
v 1297.6144 -197.3907 682.3731
v 1323.3528 -193.1100 695.3706
v 1297.6144 -197.3907 682.3731
v 1307.6405 -196.8767 671.1083
v 1323.3528 -193.1100 695.3706
v 1307.6405 -196.8767 671.1083
v 1321.8767 -195.3535 666.3446
v 1323.3528 -193.1100 695.3706
v 1321.8767 -195.3535 666.3446
v 1336.5084 -193.2292 669.3583
v 1323.3528 -193.1100 695.3706
v 1336.5084 -193.2292 669.3583
v 1347.6151 -191.0729 679.3420
v 1323.3528 -193.1100 695.3706
v 1347.6151 -191.0729 679.3420
v 1352.2207 -189.4624 693.6206
v 1323.3528 -193.1100 695.3706
v 1352.2207 -189.4624 693.6206
v 1349.0912 -188.8293 708.3681
v 1323.3528 -193.1100 695.3706
v 1349.0912 -188.8293 708.3681
v 1339.0651 -189.3433 719.6329
v 1323.3528 -193.1100 695.3706
v 1339.0651 -189.3433 719.6329
v 1324.8289 -190.8665 724.3966
v 1323.3528 -193.1100 695.3706
v 1324.8289 -190.8665 724.3966
v 1310.1972 -192.9908 721.3829
v 1323.3528 -193.1100 695.3706
v 1310.1972 -192.9908 721.3829
v 1299.0905 -195.1471 711.3992
v 1323.3528 -193.1100 695.3706
v 1202.7569 505.4024 647.5126
v 1207.3625 507.0129 661.7912
v 1231.6248 509.0500 645.7626
v 1205.8864 504.7693 632.7651
v 1202.7569 505.4024 647.5126
v 1231.6248 509.0500 645.7626
v 1215.9125 505.2833 621.5003
v 1205.8864 504.7693 632.7651
v 1231.6248 509.0500 645.7626
v 1230.1487 506.8065 616.7366
v 1215.9125 505.2833 621.5003
v 1231.6248 509.0500 645.7626
v 1244.7804 508.9308 619.7503
v 1230.1487 506.8065 616.7366
v 1231.6248 509.0500 645.7626
v 1255.8871 511.0871 629.7340
v 1244.7804 508.9308 619.7503
v 1231.6248 509.0500 645.7626
v 1260.4927 512.6976 644.0126
v 1255.8871 511.0871 629.7340
v 1231.6248 509.0500 645.7626
v 1257.3632 513.3307 658.7601
v 1260.4927 512.6976 644.0126
v 1231.6248 509.0500 645.7626
v 1247.3371 512.8167 670.0249
v 1257.3632 513.3307 658.7601
v 1231.6248 509.0500 645.7626
v 1233.1009 511.2935 674.7886
v 1247.3371 512.8167 670.0249
v 1231.6248 509.0500 645.7626
v 1218.4692 509.1692 671.7749
v 1233.1009 511.2935 674.7886
v 1231.6248 509.0500 645.7626
v 1207.3625 507.0129 661.7912
v 1218.4692 509.1692 671.7749
v 1231.6248 509.0500 645.7626
f 1 2 3
f 4 5 6
f 7 8 9
f 10 11 12
f 13 14 15
f 16 17 18
f 19 20 21
f 22 23 24
f 25 26 27
f 28 29 30
f 31 32 33
f 34 35 36
f 37 38 39
f 40 41 42
f 43 44 45
f 46 47 48
f 49 50 51
f 52 53 54
f 55 56 57
f 58 59 60
f 61 62 63
f 64 65 66
f 67 68 69
f 70 71 72
f 73 74 75
f 76 77 78
f 79 80 81
f 82 83 84
f 85 86 87
f 88 89 90
f 91 92 93
f 94 95 96
f 97 98 99
f 100 101 102
f 103 104 105
f 106 107 108
f 109 110 111
f 112 113 114
f 115 116 117
f 118 119 120
f 121 122 123
f 124 125 126
f 127 128 129
f 130 131 132
f 133 134 135
f 136 137 138
f 139 140 141
f 142 143 144
f 145 146 147
f 148 149 150
f 151 152 153
f 154 155 156
f 157 158 159
f 160 161 162
f 163 164 165
f 166 167 168
f 169 170 171
f 172 173 174
f 175 176 177
f 178 179 180
f 181 182 183
f 184 185 186
f 187 188 189
f 190 191 192
f 193 194 195
f 196 197 198
f 199 200 201
f 202 203 204
f 205 206 207
f 208 209 210
f 211 212 213
f 214 215 216
f 217 218 219
f 220 221 222
f 223 224 225
f 226 227 228
f 229 230 231
f 232 233 234
f 235 236 237
f 238 239 240
f 241 242 243
f 244 245 246
f 247 248 249
f 250 251 252
f 253 254 255
f 256 257 258
f 259 260 261
f 262 263 264
f 265 266 267
f 268 269 270
f 271 272 273
f 274 275 276
f 277 278 279
f 280 281 282
f 283 284 285
f 286 287 288
f 289 290 291
f 292 293 294
f 295 296 297
f 298 299 300
f 301 302 303
f 304 305 306
f 307 308 309
f 310 311 312
f 313 314 315
f 316 317 318
f 319 320 321
f 322 323 324
f 325 326 327
f 328 329 330
f 331 332 333
f 334 335 336
f 337 338 339
f 340 341 342
f 343 344 345
f 346 347 348
f 349 350 351
f 352 353 354
f 355 356 357
f 358 359 360
f 361 362 363
f 364 365 366
f 367 368 369
f 370 371 372
f 373 374 375
f 376 377 378
f 379 380 381
f 382 383 384
f 385 386 387
f 388 389 390
f 391 392 393
f 394 395 396
f 397 398 399
f 400 401 402
f 403 404 405
f 406 407 408
f 409 410 411
f 412 413 414
f 415 416 417
f 418 419 420
f 421 422 423
f 424 425 426
f 427 428 429
f 430 431 432
f 433 434 435
f 436 437 438
f 439 440 441
f 442 443 444
f 445 446 447
f 448 449 450
f 451 452 453
f 454 455 456
f 457 458 459
f 460 461 462
f 463 464 465
f 466 467 468
f 469 470 471
f 472 473 474
f 475 476 477
f 478 479 480
f 481 482 483
f 484 485 486
f 487 488 489
f 490 491 492
f 493 494 495
f 496 497 498
f 499 500 501
f 502 503 504
f 505 506 507
f 508 509 510
f 511 512 513
f 514 515 516
f 517 518 519
f 520 521 522
f 523 524 525
f 526 527 528
f 529 530 531
f 532 533 534
f 535 536 537
f 538 539 540
f 541 542 543
f 544 545 546
f 547 548 549
f 550 551 552
f 553 554 555
f 556 557 558
f 559 560 561
f 562 563 564
f 565 566 567
f 568 569 570
f 571 572 573
f 574 575 576
f 577 578 579
f 580 581 582
f 583 584 585
f 586 587 588
f 589 590 591
f 592 593 594
f 595 596 597
f 598 599 600
f 601 602 603
f 604 605 606
f 607 608 609
f 610 611 612
