# MATERIA - D.859.1
# Geometria originale di studio. Unita mm. Non CAD del produttore.
v 980.0000 777.9500 530.0000
v 980.0000 719.6500 530.0000
v 980.0000 777.9500 -530.0000
v 980.0000 719.6500 530.0000
v 980.0000 719.6500 -530.0000
v 980.0000 777.9500 -530.0000
v -980.0000 777.9500 -530.0000
v -980.0000 719.6500 -530.0000
v -980.0000 777.9500 530.0000
v -980.0000 719.6500 -530.0000
v -980.0000 719.6500 530.0000
v -980.0000 777.9500 530.0000
v -980.0000 777.9500 -530.0000
v -980.0000 777.9500 530.0000
v 980.0000 777.9500 -530.0000
v -980.0000 777.9500 530.0000
v 980.0000 777.9500 530.0000
v 980.0000 777.9500 -530.0000
v -980.0000 719.6500 530.0000
v -980.0000 719.6500 -530.0000
v 980.0000 719.6500 530.0000
v -980.0000 719.6500 -530.0000
v 980.0000 719.6500 -530.0000
v 980.0000 719.6500 530.0000
v -980.0000 777.9500 530.0000
v -980.0000 719.6500 530.0000
v 980.0000 777.9500 530.0000
v -980.0000 719.6500 530.0000
v 980.0000 719.6500 530.0000
v 980.0000 777.9500 530.0000
v 980.0000 777.9500 -530.0000
v 980.0000 719.6500 -530.0000
v -980.0000 777.9500 -530.0000
v 980.0000 719.6500 -530.0000
v -980.0000 719.6500 -530.0000
v -980.0000 777.9500 -530.0000
v -821.5903 19.5271 -415.1794
v -729.8623 721.6871 -365.5714
v -826.1959 21.1376 -429.4580
v -729.8623 721.6871 -365.5714
v -734.4679 723.2976 -379.8500
v -826.1959 21.1376 -429.4580
v -826.1959 21.1376 -429.4580
v -734.4679 723.2976 -379.8500
v -823.0664 21.7707 -444.2055
v -734.4679 723.2976 -379.8500
v -731.3384 723.9307 -394.5975
v -823.0664 21.7707 -444.2055
v -823.0664 21.7707 -444.2055
v -731.3384 723.9307 -394.5975
v -813.0403 21.2567 -455.4703
v -731.3384 723.9307 -394.5975
v -721.3123 723.4167 -405.8623
v -813.0403 21.2567 -455.4703
v -813.0403 21.2567 -455.4703
v -721.3123 723.4167 -405.8623
v -798.8041 19.7335 -460.2340
v -721.3123 723.4167 -405.8623
v -707.0761 721.8935 -410.6260
v -798.8041 19.7335 -460.2340
v -798.8041 19.7335 -460.2340
v -707.0761 721.8935 -410.6260
v -784.1724 17.6092 -457.2203
v -707.0761 721.8935 -410.6260
v -692.4444 719.7692 -407.6123
v -784.1724 17.6092 -457.2203
v -784.1724 17.6092 -457.2203
v -692.4444 719.7692 -407.6123
v -773.0657 15.4529 -447.2366
v -692.4444 719.7692 -407.6123
v -681.3377 717.6129 -397.6286
v -773.0657 15.4529 -447.2366
v -773.0657 15.4529 -447.2366
v -681.3377 717.6129 -397.6286
v -768.4601 13.8424 -432.9580
v -681.3377 717.6129 -397.6286
v -676.7321 716.0024 -383.3500
v -768.4601 13.8424 -432.9580
v -768.4601 13.8424 -432.9580
v -676.7321 716.0024 -383.3500
v -771.5896 13.2093 -418.2105
v -676.7321 716.0024 -383.3500
v -679.8616 715.3693 -368.6025
v -771.5896 13.2093 -418.2105
v -771.5896 13.2093 -418.2105
v -679.8616 715.3693 -368.6025
v -781.6157 13.7233 -406.9457
v -679.8616 715.3693 -368.6025
v -689.8877 715.8833 -357.3377
v -781.6157 13.7233 -406.9457
v -781.6157 13.7233 -406.9457
v -689.8877 715.8833 -357.3377
v -795.8519 15.2465 -402.1820
v -689.8877 715.8833 -357.3377
v -704.1239 717.4065 -352.5740
v -795.8519 15.2465 -402.1820
v -795.8519 15.2465 -402.1820
v -704.1239 717.4065 -352.5740
v -810.4836 17.3708 -405.1957
v -704.1239 717.4065 -352.5740
v -718.7556 719.5308 -355.5877
v -810.4836 17.3708 -405.1957
v -810.4836 17.3708 -405.1957
v -718.7556 719.5308 -355.5877
v -821.5903 19.5271 -415.1794
v -718.7556 719.5308 -355.5877
v -729.8623 721.6871 -365.5714
v -821.5903 19.5271 -415.1794
v -821.5903 19.5271 -415.1794
v -826.1959 21.1376 -429.4580
v -797.3280 17.4900 -431.2080
v -826.1959 21.1376 -429.4580
v -823.0664 21.7707 -444.2055
v -797.3280 17.4900 -431.2080
v -823.0664 21.7707 -444.2055
v -813.0403 21.2567 -455.4703
v -797.3280 17.4900 -431.2080
v -813.0403 21.2567 -455.4703
v -798.8041 19.7335 -460.2340
v -797.3280 17.4900 -431.2080
v -798.8041 19.7335 -460.2340
v -784.1724 17.6092 -457.2203
v -797.3280 17.4900 -431.2080
v -784.1724 17.6092 -457.2203
v -773.0657 15.4529 -447.2366
v -797.3280 17.4900 -431.2080
v -773.0657 15.4529 -447.2366
v -768.4601 13.8424 -432.9580
v -797.3280 17.4900 -431.2080
v -768.4601 13.8424 -432.9580
v -771.5896 13.2093 -418.2105
v -797.3280 17.4900 -431.2080
v -771.5896 13.2093 -418.2105
v -781.6157 13.7233 -406.9457
v -797.3280 17.4900 -431.2080
v -781.6157 13.7233 -406.9457
v -795.8519 15.2465 -402.1820
v -797.3280 17.4900 -431.2080
v -795.8519 15.2465 -402.1820
v -810.4836 17.3708 -405.1957
v -797.3280 17.4900 -431.2080
v -810.4836 17.3708 -405.1957
v -821.5903 19.5271 -415.1794
v -797.3280 17.4900 -431.2080
v -734.4679 723.2976 -379.8500
v -729.8623 721.6871 -365.5714
v -705.6000 719.6500 -381.6000
v -731.3384 723.9307 -394.5975
v -734.4679 723.2976 -379.8500
v -705.6000 719.6500 -381.6000
v -721.3123 723.4167 -405.8623
v -731.3384 723.9307 -394.5975
v -705.6000 719.6500 -381.6000
v -707.0761 721.8935 -410.6260
v -721.3123 723.4167 -405.8623
v -705.6000 719.6500 -381.6000
v -692.4444 719.7692 -407.6123
v -707.0761 721.8935 -410.6260
v -705.6000 719.6500 -381.6000
v -681.3377 717.6129 -397.6286
v -692.4444 719.7692 -407.6123
v -705.6000 719.6500 -381.6000
v -676.7321 716.0024 -383.3500
v -681.3377 717.6129 -397.6286
v -705.6000 719.6500 -381.6000
v -679.8616 715.3693 -368.6025
v -676.7321 716.0024 -383.3500
v -705.6000 719.6500 -381.6000
v -689.8877 715.8833 -357.3377
v -679.8616 715.3693 -368.6025
v -705.6000 719.6500 -381.6000
v -704.1239 717.4065 -352.5740
v -689.8877 715.8833 -357.3377
v -705.6000 719.6500 -381.6000
v -718.7556 719.5308 -355.5877
v -704.1239 717.4065 -352.5740
v -705.6000 719.6500 -381.6000
v -729.8623 721.6871 -365.5714
v -718.7556 719.5308 -355.5877
v -705.6000 719.6500 -381.6000
v 821.5903 19.5271 -415.1794
v 729.8623 721.6871 -365.5714
v 810.4836 17.3708 -405.1957
v 729.8623 721.6871 -365.5714
v 718.7556 719.5308 -355.5877
v 810.4836 17.3708 -405.1957
v 810.4836 17.3708 -405.1957
v 718.7556 719.5308 -355.5877
v 795.8519 15.2465 -402.1820
v 718.7556 719.5308 -355.5877
v 704.1239 717.4065 -352.5740
v 795.8519 15.2465 -402.1820
v 795.8519 15.2465 -402.1820
v 704.1239 717.4065 -352.5740
v 781.6157 13.7233 -406.9457
v 704.1239 717.4065 -352.5740
v 689.8877 715.8833 -357.3377
v 781.6157 13.7233 -406.9457
v 781.6157 13.7233 -406.9457
v 689.8877 715.8833 -357.3377
v 771.5896 13.2093 -418.2105
v 689.8877 715.8833 -357.3377
v 679.8616 715.3693 -368.6025
v 771.5896 13.2093 -418.2105
v 771.5896 13.2093 -418.2105
v 679.8616 715.3693 -368.6025
v 768.4601 13.8424 -432.9580
v 679.8616 715.3693 -368.6025
v 676.7321 716.0024 -383.3500
v 768.4601 13.8424 -432.9580
v 768.4601 13.8424 -432.9580
v 676.7321 716.0024 -383.3500
v 773.0657 15.4529 -447.2366
v 676.7321 716.0024 -383.3500
v 681.3377 717.6129 -397.6286
v 773.0657 15.4529 -447.2366
v 773.0657 15.4529 -447.2366
v 681.3377 717.6129 -397.6286
v 784.1724 17.6092 -457.2203
v 681.3377 717.6129 -397.6286
v 692.4444 719.7692 -407.6123
v 784.1724 17.6092 -457.2203
v 784.1724 17.6092 -457.2203
v 692.4444 719.7692 -407.6123
v 798.8041 19.7335 -460.2340
v 692.4444 719.7692 -407.6123
v 707.0761 721.8935 -410.6260
v 798.8041 19.7335 -460.2340
v 798.8041 19.7335 -460.2340
v 707.0761 721.8935 -410.6260
v 813.0403 21.2567 -455.4703
v 707.0761 721.8935 -410.6260
v 721.3123 723.4167 -405.8623
v 813.0403 21.2567 -455.4703
v 813.0403 21.2567 -455.4703
v 721.3123 723.4167 -405.8623
v 823.0664 21.7707 -444.2055
v 721.3123 723.4167 -405.8623
v 731.3384 723.9307 -394.5975
v 823.0664 21.7707 -444.2055
v 823.0664 21.7707 -444.2055
v 731.3384 723.9307 -394.5975
v 826.1959 21.1376 -429.4580
v 731.3384 723.9307 -394.5975
v 734.4679 723.2976 -379.8500
v 826.1959 21.1376 -429.4580
v 826.1959 21.1376 -429.4580
v 734.4679 723.2976 -379.8500
v 821.5903 19.5271 -415.1794
v 734.4679 723.2976 -379.8500
v 729.8623 721.6871 -365.5714
v 821.5903 19.5271 -415.1794
v 821.5903 19.5271 -415.1794
v 810.4836 17.3708 -405.1957
v 797.3280 17.4900 -431.2080
v 810.4836 17.3708 -405.1957
v 795.8519 15.2465 -402.1820
v 797.3280 17.4900 -431.2080
v 795.8519 15.2465 -402.1820
v 781.6157 13.7233 -406.9457
v 797.3280 17.4900 -431.2080
v 781.6157 13.7233 -406.9457
v 771.5896 13.2093 -418.2105
v 797.3280 17.4900 -431.2080
v 771.5896 13.2093 -418.2105
v 768.4601 13.8424 -432.9580
v 797.3280 17.4900 -431.2080
v 768.4601 13.8424 -432.9580
v 773.0657 15.4529 -447.2366
v 797.3280 17.4900 -431.2080
v 773.0657 15.4529 -447.2366
v 784.1724 17.6092 -457.2203
v 797.3280 17.4900 -431.2080
v 784.1724 17.6092 -457.2203
v 798.8041 19.7335 -460.2340
v 797.3280 17.4900 -431.2080
v 798.8041 19.7335 -460.2340
v 813.0403 21.2567 -455.4703
v 797.3280 17.4900 -431.2080
v 813.0403 21.2567 -455.4703
v 823.0664 21.7707 -444.2055
v 797.3280 17.4900 -431.2080
v 823.0664 21.7707 -444.2055
v 826.1959 21.1376 -429.4580
v 797.3280 17.4900 -431.2080
v 826.1959 21.1376 -429.4580
v 821.5903 19.5271 -415.1794
v 797.3280 17.4900 -431.2080
v 718.7556 719.5308 -355.5877
v 729.8623 721.6871 -365.5714
v 705.6000 719.6500 -381.6000
v 704.1239 717.4065 -352.5740
v 718.7556 719.5308 -355.5877
v 705.6000 719.6500 -381.6000
v 689.8877 715.8833 -357.3377
v 704.1239 717.4065 -352.5740
v 705.6000 719.6500 -381.6000
v 679.8616 715.3693 -368.6025
v 689.8877 715.8833 -357.3377
v 705.6000 719.6500 -381.6000
v 676.7321 716.0024 -383.3500
v 679.8616 715.3693 -368.6025
v 705.6000 719.6500 -381.6000
v 681.3377 717.6129 -397.6286
v 676.7321 716.0024 -383.3500
v 705.6000 719.6500 -381.6000
v 692.4444 719.7692 -407.6123
v 681.3377 717.6129 -397.6286
v 705.6000 719.6500 -381.6000
v 707.0761 721.8935 -410.6260
v 692.4444 719.7692 -407.6123
v 705.6000 719.6500 -381.6000
v 721.3123 723.4167 -405.8623
v 707.0761 721.8935 -410.6260
v 705.6000 719.6500 -381.6000
v 731.3384 723.9307 -394.5975
v 721.3123 723.4167 -405.8623
v 705.6000 719.6500 -381.6000
v 734.4679 723.2976 -379.8500
v 731.3384 723.9307 -394.5975
v 705.6000 719.6500 -381.6000
v 729.8623 721.6871 -365.5714
v 734.4679 723.2976 -379.8500
v 705.6000 719.6500 -381.6000
v -773.0657 15.4529 447.2366
v -681.3377 717.6129 397.6286
v -784.1724 17.6092 457.2203
v -681.3377 717.6129 397.6286
v -692.4444 719.7692 407.6123
v -784.1724 17.6092 457.2203
v -784.1724 17.6092 457.2203
v -692.4444 719.7692 407.6123
v -798.8041 19.7335 460.2340
v -692.4444 719.7692 407.6123
v -707.0761 721.8935 410.6260
v -798.8041 19.7335 460.2340
v -798.8041 19.7335 460.2340
v -707.0761 721.8935 410.6260
v -813.0403 21.2567 455.4703
v -707.0761 721.8935 410.6260
v -721.3123 723.4167 405.8623
v -813.0403 21.2567 455.4703
v -813.0403 21.2567 455.4703
v -721.3123 723.4167 405.8623
v -823.0664 21.7707 444.2055
v -721.3123 723.4167 405.8623
v -731.3384 723.9307 394.5975
v -823.0664 21.7707 444.2055
v -823.0664 21.7707 444.2055
v -731.3384 723.9307 394.5975
v -826.1959 21.1376 429.4580
v -731.3384 723.9307 394.5975
v -734.4679 723.2976 379.8500
v -826.1959 21.1376 429.4580
v -826.1959 21.1376 429.4580
v -734.4679 723.2976 379.8500
v -821.5903 19.5271 415.1794
v -734.4679 723.2976 379.8500
v -729.8623 721.6871 365.5714
v -821.5903 19.5271 415.1794
v -821.5903 19.5271 415.1794
v -729.8623 721.6871 365.5714
v -810.4836 17.3708 405.1957
v -729.8623 721.6871 365.5714
v -718.7556 719.5308 355.5877
v -810.4836 17.3708 405.1957
v -810.4836 17.3708 405.1957
v -718.7556 719.5308 355.5877
v -795.8519 15.2465 402.1820
v -718.7556 719.5308 355.5877
v -704.1239 717.4065 352.5740
v -795.8519 15.2465 402.1820
v -795.8519 15.2465 402.1820
v -704.1239 717.4065 352.5740
v -781.6157 13.7233 406.9457
v -704.1239 717.4065 352.5740
v -689.8877 715.8833 357.3377
v -781.6157 13.7233 406.9457
v -781.6157 13.7233 406.9457
v -689.8877 715.8833 357.3377
v -771.5896 13.2093 418.2105
v -689.8877 715.8833 357.3377
v -679.8616 715.3693 368.6025
v -771.5896 13.2093 418.2105
v -771.5896 13.2093 418.2105
v -679.8616 715.3693 368.6025
v -768.4601 13.8424 432.9580
v -679.8616 715.3693 368.6025
v -676.7321 716.0024 383.3500
v -768.4601 13.8424 432.9580
v -768.4601 13.8424 432.9580
v -676.7321 716.0024 383.3500
v -773.0657 15.4529 447.2366
v -676.7321 716.0024 383.3500
v -681.3377 717.6129 397.6286
v -773.0657 15.4529 447.2366
v -773.0657 15.4529 447.2366
v -784.1724 17.6092 457.2203
v -797.3280 17.4900 431.2080
v -784.1724 17.6092 457.2203
v -798.8041 19.7335 460.2340
v -797.3280 17.4900 431.2080
v -798.8041 19.7335 460.2340
v -813.0403 21.2567 455.4703
v -797.3280 17.4900 431.2080
v -813.0403 21.2567 455.4703
v -823.0664 21.7707 444.2055
v -797.3280 17.4900 431.2080
v -823.0664 21.7707 444.2055
v -826.1959 21.1376 429.4580
v -797.3280 17.4900 431.2080
v -826.1959 21.1376 429.4580
v -821.5903 19.5271 415.1794
v -797.3280 17.4900 431.2080
v -821.5903 19.5271 415.1794
v -810.4836 17.3708 405.1957
v -797.3280 17.4900 431.2080
v -810.4836 17.3708 405.1957
v -795.8519 15.2465 402.1820
v -797.3280 17.4900 431.2080
v -795.8519 15.2465 402.1820
v -781.6157 13.7233 406.9457
v -797.3280 17.4900 431.2080
v -781.6157 13.7233 406.9457
v -771.5896 13.2093 418.2105
v -797.3280 17.4900 431.2080
v -771.5896 13.2093 418.2105
v -768.4601 13.8424 432.9580
v -797.3280 17.4900 431.2080
v -768.4601 13.8424 432.9580
v -773.0657 15.4529 447.2366
v -797.3280 17.4900 431.2080
v -692.4444 719.7692 407.6123
v -681.3377 717.6129 397.6286
v -705.6000 719.6500 381.6000
v -707.0761 721.8935 410.6260
v -692.4444 719.7692 407.6123
v -705.6000 719.6500 381.6000
v -721.3123 723.4167 405.8623
v -707.0761 721.8935 410.6260
v -705.6000 719.6500 381.6000
v -731.3384 723.9307 394.5975
v -721.3123 723.4167 405.8623
v -705.6000 719.6500 381.6000
v -734.4679 723.2976 379.8500
v -731.3384 723.9307 394.5975
v -705.6000 719.6500 381.6000
v -729.8623 721.6871 365.5714
v -734.4679 723.2976 379.8500
v -705.6000 719.6500 381.6000
v -718.7556 719.5308 355.5877
v -729.8623 721.6871 365.5714
v -705.6000 719.6500 381.6000
v -704.1239 717.4065 352.5740
v -718.7556 719.5308 355.5877
v -705.6000 719.6500 381.6000
v -689.8877 715.8833 357.3377
v -704.1239 717.4065 352.5740
v -705.6000 719.6500 381.6000
v -679.8616 715.3693 368.6025
v -689.8877 715.8833 357.3377
v -705.6000 719.6500 381.6000
v -676.7321 716.0024 383.3500
v -679.8616 715.3693 368.6025
v -705.6000 719.6500 381.6000
v -681.3377 717.6129 397.6286
v -676.7321 716.0024 383.3500
v -705.6000 719.6500 381.6000
v 773.0657 15.4529 447.2366
v 681.3377 717.6129 397.6286
v 768.4601 13.8424 432.9580
v 681.3377 717.6129 397.6286
v 676.7321 716.0024 383.3500
v 768.4601 13.8424 432.9580
v 768.4601 13.8424 432.9580
v 676.7321 716.0024 383.3500
v 771.5896 13.2093 418.2105
v 676.7321 716.0024 383.3500
v 679.8616 715.3693 368.6025
v 771.5896 13.2093 418.2105
v 771.5896 13.2093 418.2105
v 679.8616 715.3693 368.6025
v 781.6157 13.7233 406.9457
v 679.8616 715.3693 368.6025
v 689.8877 715.8833 357.3377
v 781.6157 13.7233 406.9457
v 781.6157 13.7233 406.9457
v 689.8877 715.8833 357.3377
v 795.8519 15.2465 402.1820
v 689.8877 715.8833 357.3377
v 704.1239 717.4065 352.5740
v 795.8519 15.2465 402.1820
v 795.8519 15.2465 402.1820
v 704.1239 717.4065 352.5740
v 810.4836 17.3708 405.1957
v 704.1239 717.4065 352.5740
v 718.7556 719.5308 355.5877
v 810.4836 17.3708 405.1957
v 810.4836 17.3708 405.1957
v 718.7556 719.5308 355.5877
v 821.5903 19.5271 415.1794
v 718.7556 719.5308 355.5877
v 729.8623 721.6871 365.5714
v 821.5903 19.5271 415.1794
v 821.5903 19.5271 415.1794
v 729.8623 721.6871 365.5714
v 826.1959 21.1376 429.4580
v 729.8623 721.6871 365.5714
v 734.4679 723.2976 379.8500
v 826.1959 21.1376 429.4580
v 826.1959 21.1376 429.4580
v 734.4679 723.2976 379.8500
v 823.0664 21.7707 444.2055
v 734.4679 723.2976 379.8500
v 731.3384 723.9307 394.5975
v 823.0664 21.7707 444.2055
v 823.0664 21.7707 444.2055
v 731.3384 723.9307 394.5975
v 813.0403 21.2567 455.4703
v 731.3384 723.9307 394.5975
v 721.3123 723.4167 405.8623
v 813.0403 21.2567 455.4703
v 813.0403 21.2567 455.4703
v 721.3123 723.4167 405.8623
v 798.8041 19.7335 460.2340
v 721.3123 723.4167 405.8623
v 707.0761 721.8935 410.6260
v 798.8041 19.7335 460.2340
v 798.8041 19.7335 460.2340
v 707.0761 721.8935 410.6260
v 784.1724 17.6092 457.2203
v 707.0761 721.8935 410.6260
v 692.4444 719.7692 407.6123
v 784.1724 17.6092 457.2203
v 784.1724 17.6092 457.2203
v 692.4444 719.7692 407.6123
v 773.0657 15.4529 447.2366
v 692.4444 719.7692 407.6123
v 681.3377 717.6129 397.6286
v 773.0657 15.4529 447.2366
v 773.0657 15.4529 447.2366
v 768.4601 13.8424 432.9580
v 797.3280 17.4900 431.2080
v 768.4601 13.8424 432.9580
v 771.5896 13.2093 418.2105
v 797.3280 17.4900 431.2080
v 771.5896 13.2093 418.2105
v 781.6157 13.7233 406.9457
v 797.3280 17.4900 431.2080
v 781.6157 13.7233 406.9457
v 795.8519 15.2465 402.1820
v 797.3280 17.4900 431.2080
v 795.8519 15.2465 402.1820
v 810.4836 17.3708 405.1957
v 797.3280 17.4900 431.2080
v 810.4836 17.3708 405.1957
v 821.5903 19.5271 415.1794
v 797.3280 17.4900 431.2080
v 821.5903 19.5271 415.1794
v 826.1959 21.1376 429.4580
v 797.3280 17.4900 431.2080
v 826.1959 21.1376 429.4580
v 823.0664 21.7707 444.2055
v 797.3280 17.4900 431.2080
v 823.0664 21.7707 444.2055
v 813.0403 21.2567 455.4703
v 797.3280 17.4900 431.2080
v 813.0403 21.2567 455.4703
v 798.8041 19.7335 460.2340
v 797.3280 17.4900 431.2080
v 798.8041 19.7335 460.2340
v 784.1724 17.6092 457.2203
v 797.3280 17.4900 431.2080
v 784.1724 17.6092 457.2203
v 773.0657 15.4529 447.2366
v 797.3280 17.4900 431.2080
v 676.7321 716.0024 383.3500
v 681.3377 717.6129 397.6286
v 705.6000 719.6500 381.6000
v 679.8616 715.3693 368.6025
v 676.7321 716.0024 383.3500
v 705.6000 719.6500 381.6000
v 689.8877 715.8833 357.3377
v 679.8616 715.3693 368.6025
v 705.6000 719.6500 381.6000
v 704.1239 717.4065 352.5740
v 689.8877 715.8833 357.3377
v 705.6000 719.6500 381.6000
v 718.7556 719.5308 355.5877
v 704.1239 717.4065 352.5740
v 705.6000 719.6500 381.6000
v 729.8623 721.6871 365.5714
v 718.7556 719.5308 355.5877
v 705.6000 719.6500 381.6000
v 734.4679 723.2976 379.8500
v 729.8623 721.6871 365.5714
v 705.6000 719.6500 381.6000
v 731.3384 723.9307 394.5975
v 734.4679 723.2976 379.8500
v 705.6000 719.6500 381.6000
v 721.3123 723.4167 405.8623
v 731.3384 723.9307 394.5975
v 705.6000 719.6500 381.6000
v 707.0761 721.8935 410.6260
v 721.3123 723.4167 405.8623
v 705.6000 719.6500 381.6000
v 692.4444 719.7692 407.6123
v 707.0761 721.8935 410.6260
v 705.6000 719.6500 381.6000
v 681.3377 717.6129 397.6286
v 692.4444 719.7692 407.6123
v 705.6000 719.6500 381.6000
f 1 2 3
f 4 5 6
f 7 8 9
f 10 11 12
f 13 14 15
f 16 17 18
f 19 20 21
f 22 23 24
f 25 26 27
f 28 29 30
f 31 32 33
f 34 35 36
f 37 38 39
f 40 41 42
f 43 44 45
f 46 47 48
f 49 50 51
f 52 53 54
f 55 56 57
f 58 59 60
f 61 62 63
f 64 65 66
f 67 68 69
f 70 71 72
f 73 74 75
f 76 77 78
f 79 80 81
f 82 83 84
f 85 86 87
f 88 89 90
f 91 92 93
f 94 95 96
f 97 98 99
f 100 101 102
f 103 104 105
f 106 107 108
f 109 110 111
f 112 113 114
f 115 116 117
f 118 119 120
f 121 122 123
f 124 125 126
f 127 128 129
f 130 131 132
f 133 134 135
f 136 137 138
f 139 140 141
f 142 143 144
f 145 146 147
f 148 149 150
f 151 152 153
f 154 155 156
f 157 158 159
f 160 161 162
f 163 164 165
f 166 167 168
f 169 170 171
f 172 173 174
f 175 176 177
f 178 179 180
f 181 182 183
f 184 185 186
f 187 188 189
f 190 191 192
f 193 194 195
f 196 197 198
f 199 200 201
f 202 203 204
f 205 206 207
f 208 209 210
f 211 212 213
f 214 215 216
f 217 218 219
f 220 221 222
f 223 224 225
f 226 227 228
f 229 230 231
f 232 233 234
f 235 236 237
f 238 239 240
f 241 242 243
f 244 245 246
f 247 248 249
f 250 251 252
f 253 254 255
f 256 257 258
f 259 260 261
f 262 263 264
f 265 266 267
f 268 269 270
f 271 272 273
f 274 275 276
f 277 278 279
f 280 281 282
f 283 284 285
f 286 287 288
f 289 290 291
f 292 293 294
f 295 296 297
f 298 299 300
f 301 302 303
f 304 305 306
f 307 308 309
f 310 311 312
f 313 314 315
f 316 317 318
f 319 320 321
f 322 323 324
f 325 326 327
f 328 329 330
f 331 332 333
f 334 335 336
f 337 338 339
f 340 341 342
f 343 344 345
f 346 347 348
f 349 350 351
f 352 353 354
f 355 356 357
f 358 359 360
f 361 362 363
f 364 365 366
f 367 368 369
f 370 371 372
f 373 374 375
f 376 377 378
f 379 380 381
f 382 383 384
f 385 386 387
f 388 389 390
f 391 392 393
f 394 395 396
f 397 398 399
f 400 401 402
f 403 404 405
f 406 407 408
f 409 410 411
f 412 413 414
f 415 416 417
f 418 419 420
f 421 422 423
f 424 425 426
f 427 428 429
f 430 431 432
f 433 434 435
f 436 437 438
f 439 440 441
f 442 443 444
f 445 446 447
f 448 449 450
f 451 452 453
f 454 455 456
f 457 458 459
f 460 461 462
f 463 464 465
f 466 467 468
f 469 470 471
f 472 473 474
f 475 476 477
f 478 479 480
f 481 482 483
f 484 485 486
f 487 488 489
f 490 491 492
f 493 494 495
f 496 497 498
f 499 500 501
f 502 503 504
f 505 506 507
f 508 509 510
f 511 512 513
f 514 515 516
f 517 518 519
f 520 521 522
f 523 524 525
f 526 527 528
f 529 530 531
f 532 533 534
f 535 536 537
f 538 539 540
f 541 542 543
f 544 545 546
f 547 548 549
f 550 551 552
f 553 554 555
f 556 557 558
f 559 560 561
f 562 563 564
f 565 566 567
f 568 569 570
f 571 572 573
f 574 575 576
f 577 578 579
f 580 581 582
f 583 584 585
f 586 587 588
f 589 590 591
f 592 593 594
f 595 596 597
f 598 599 600
f 601 602 603
f 604 605 606
f 607 608 609
f 610 611 612
