# MATERIA - D.552.2
# Geometria originale di studio. Unita mm. Non CAD del produttore.
v 425.0000 292.7750 305.0000
v 425.0000 259.2250 305.0000
v 425.0000 292.7750 -305.0000
v 425.0000 259.2250 305.0000
v 425.0000 259.2250 -305.0000
v 425.0000 292.7750 -305.0000
v -425.0000 292.7750 -305.0000
v -425.0000 259.2250 -305.0000
v -425.0000 292.7750 305.0000
v -425.0000 259.2250 -305.0000
v -425.0000 259.2250 305.0000
v -425.0000 292.7750 305.0000
v -425.0000 292.7750 -305.0000
v -425.0000 292.7750 305.0000
v 425.0000 292.7750 -305.0000
v -425.0000 292.7750 305.0000
v 425.0000 292.7750 305.0000
v 425.0000 292.7750 -305.0000
v -425.0000 259.2250 305.0000
v -425.0000 259.2250 -305.0000
v 425.0000 259.2250 305.0000
v -425.0000 259.2250 -305.0000
v 425.0000 259.2250 -305.0000
v 425.0000 259.2250 305.0000
v -425.0000 292.7750 305.0000
v -425.0000 259.2250 305.0000
v 425.0000 292.7750 305.0000
v -425.0000 259.2250 305.0000
v 425.0000 259.2250 305.0000
v 425.0000 292.7750 305.0000
v 425.0000 292.7750 -305.0000
v 425.0000 259.2250 -305.0000
v -425.0000 292.7750 -305.0000
v 425.0000 259.2250 -305.0000
v -425.0000 259.2250 -305.0000
v -425.0000 292.7750 -305.0000
v -589.7216 -24.6066 -394.7433
v -549.9416 332.5534 -366.1953
v -590.2360 -23.8590 -403.3791
v -549.9416 332.5534 -366.1953
v -550.4560 333.3010 -374.8311
v -590.2360 -23.8590 -403.3791
v -590.2360 -23.8590 -403.3791
v -550.4560 333.3010 -374.8311
v -586.3740 -23.6677 -411.1540
v -550.4560 333.3010 -374.8311
v -546.5940 333.4923 -382.6060
v -586.3740 -23.6677 -411.1540
v -586.3740 -23.6677 -411.1540
v -546.5940 333.4923 -382.6060
v -579.1704 -24.0839 -415.9847
v -546.5940 333.4923 -382.6060
v -539.3904 333.0761 -387.4367
v -579.1704 -24.0839 -415.9847
v -579.1704 -24.0839 -415.9847
v -539.3904 333.0761 -387.4367
v -570.5553 -24.9961 -416.5768
v -539.3904 333.0761 -387.4367
v -530.7753 332.1639 -388.0288
v -570.5553 -24.9961 -416.5768
v -570.5553 -24.9961 -416.5768
v -530.7753 332.1639 -388.0288
v -562.8373 -26.1599 -412.7717
v -530.7753 332.1639 -388.0288
v -523.0573 331.0001 -384.2237
v -562.8373 -26.1599 -412.7717
v -562.8373 -26.1599 -412.7717
v -523.0573 331.0001 -384.2237
v -558.0844 -27.2634 -405.5889
v -523.0573 331.0001 -384.2237
v -518.3044 329.8966 -377.0409
v -558.0844 -27.2634 -405.5889
v -558.0844 -27.2634 -405.5889
v -518.3044 329.8966 -377.0409
v -557.5700 -28.0110 -396.9531
v -518.3044 329.8966 -377.0409
v -517.7900 329.1490 -368.4051
v -557.5700 -28.0110 -396.9531
v -557.5700 -28.0110 -396.9531
v -517.7900 329.1490 -368.4051
v -561.4320 -28.2023 -389.1782
v -517.7900 329.1490 -368.4051
v -521.6520 328.9577 -360.6302
v -561.4320 -28.2023 -389.1782
v -561.4320 -28.2023 -389.1782
v -521.6520 328.9577 -360.6302
v -568.6356 -27.7861 -384.3475
v -521.6520 328.9577 -360.6302
v -528.8556 329.3739 -355.7995
v -568.6356 -27.7861 -384.3475
v -568.6356 -27.7861 -384.3475
v -528.8556 329.3739 -355.7995
v -577.2507 -26.8739 -383.7554
v -528.8556 329.3739 -355.7995
v -537.4707 330.2861 -355.2074
v -577.2507 -26.8739 -383.7554
v -577.2507 -26.8739 -383.7554
v -537.4707 330.2861 -355.2074
v -584.9687 -25.7101 -387.5605
v -537.4707 330.2861 -355.2074
v -545.1887 331.4499 -359.0125
v -584.9687 -25.7101 -387.5605
v -584.9687 -25.7101 -387.5605
v -545.1887 331.4499 -359.0125
v -589.7216 -24.6066 -394.7433
v -545.1887 331.4499 -359.0125
v -549.9416 332.5534 -366.1953
v -589.7216 -24.6066 -394.7433
v -589.7216 -24.6066 -394.7433
v -590.2360 -23.8590 -403.3791
v -573.9030 -25.9350 -400.1661
v -590.2360 -23.8590 -403.3791
v -586.3740 -23.6677 -411.1540
v -573.9030 -25.9350 -400.1661
v -586.3740 -23.6677 -411.1540
v -579.1704 -24.0839 -415.9847
v -573.9030 -25.9350 -400.1661
v -579.1704 -24.0839 -415.9847
v -570.5553 -24.9961 -416.5768
v -573.9030 -25.9350 -400.1661
v -570.5553 -24.9961 -416.5768
v -562.8373 -26.1599 -412.7717
v -573.9030 -25.9350 -400.1661
v -562.8373 -26.1599 -412.7717
v -558.0844 -27.2634 -405.5889
v -573.9030 -25.9350 -400.1661
v -558.0844 -27.2634 -405.5889
v -557.5700 -28.0110 -396.9531
v -573.9030 -25.9350 -400.1661
v -557.5700 -28.0110 -396.9531
v -561.4320 -28.2023 -389.1782
v -573.9030 -25.9350 -400.1661
v -561.4320 -28.2023 -389.1782
v -568.6356 -27.7861 -384.3475
v -573.9030 -25.9350 -400.1661
v -568.6356 -27.7861 -384.3475
v -577.2507 -26.8739 -383.7554
v -573.9030 -25.9350 -400.1661
v -577.2507 -26.8739 -383.7554
v -584.9687 -25.7101 -387.5605
v -573.9030 -25.9350 -400.1661
v -584.9687 -25.7101 -387.5605
v -589.7216 -24.6066 -394.7433
v -573.9030 -25.9350 -400.1661
v -550.4560 333.3010 -374.8311
v -549.9416 332.5534 -366.1953
v -534.1230 331.2250 -371.6181
v -546.5940 333.4923 -382.6060
v -550.4560 333.3010 -374.8311
v -534.1230 331.2250 -371.6181
v -539.3904 333.0761 -387.4367
v -546.5940 333.4923 -382.6060
v -534.1230 331.2250 -371.6181
v -530.7753 332.1639 -388.0288
v -539.3904 333.0761 -387.4367
v -534.1230 331.2250 -371.6181
v -523.0573 331.0001 -384.2237
v -530.7753 332.1639 -388.0288
v -534.1230 331.2250 -371.6181
v -518.3044 329.8966 -377.0409
v -523.0573 331.0001 -384.2237
v -534.1230 331.2250 -371.6181
v -517.7900 329.1490 -368.4051
v -518.3044 329.8966 -377.0409
v -534.1230 331.2250 -371.6181
v -521.6520 328.9577 -360.6302
v -517.7900 329.1490 -368.4051
v -534.1230 331.2250 -371.6181
v -528.8556 329.3739 -355.7995
v -521.6520 328.9577 -360.6302
v -534.1230 331.2250 -371.6181
v -537.4707 330.2861 -355.2074
v -528.8556 329.3739 -355.7995
v -534.1230 331.2250 -371.6181
v -545.1887 331.4499 -359.0125
v -537.4707 330.2861 -355.2074
v -534.1230 331.2250 -371.6181
v -549.9416 332.5534 -366.1953
v -545.1887 331.4499 -359.0125
v -534.1230 331.2250 -371.6181
v 589.7216 47.3934 -394.7433
v 549.9416 404.5534 -366.1953
v 584.9687 46.2899 -387.5605
v 549.9416 404.5534 -366.1953
v 545.1887 403.4499 -359.0125
v 584.9687 46.2899 -387.5605
v 584.9687 46.2899 -387.5605
v 545.1887 403.4499 -359.0125
v 577.2507 45.1261 -383.7554
v 545.1887 403.4499 -359.0125
v 537.4707 402.2861 -355.2074
v 577.2507 45.1261 -383.7554
v 577.2507 45.1261 -383.7554
v 537.4707 402.2861 -355.2074
v 568.6356 44.2139 -384.3475
v 537.4707 402.2861 -355.2074
v 528.8556 401.3739 -355.7995
v 568.6356 44.2139 -384.3475
v 568.6356 44.2139 -384.3475
v 528.8556 401.3739 -355.7995
v 561.4320 43.7977 -389.1782
v 528.8556 401.3739 -355.7995
v 521.6520 400.9577 -360.6302
v 561.4320 43.7977 -389.1782
v 561.4320 43.7977 -389.1782
v 521.6520 400.9577 -360.6302
v 557.5700 43.9890 -396.9531
v 521.6520 400.9577 -360.6302
v 517.7900 401.1490 -368.4051
v 557.5700 43.9890 -396.9531
v 557.5700 43.9890 -396.9531
v 517.7900 401.1490 -368.4051
v 558.0844 44.7366 -405.5889
v 517.7900 401.1490 -368.4051
v 518.3044 401.8966 -377.0409
v 558.0844 44.7366 -405.5889
v 558.0844 44.7366 -405.5889
v 518.3044 401.8966 -377.0409
v 562.8373 45.8401 -412.7717
v 518.3044 401.8966 -377.0409
v 523.0573 403.0001 -384.2237
v 562.8373 45.8401 -412.7717
v 562.8373 45.8401 -412.7717
v 523.0573 403.0001 -384.2237
v 570.5553 47.0039 -416.5768
v 523.0573 403.0001 -384.2237
v 530.7753 404.1639 -388.0288
v 570.5553 47.0039 -416.5768
v 570.5553 47.0039 -416.5768
v 530.7753 404.1639 -388.0288
v 579.1704 47.9161 -415.9847
v 530.7753 404.1639 -388.0288
v 539.3904 405.0761 -387.4367
v 579.1704 47.9161 -415.9847
v 579.1704 47.9161 -415.9847
v 539.3904 405.0761 -387.4367
v 586.3740 48.3323 -411.1540
v 539.3904 405.0761 -387.4367
v 546.5940 405.4923 -382.6060
v 586.3740 48.3323 -411.1540
v 586.3740 48.3323 -411.1540
v 546.5940 405.4923 -382.6060
v 590.2360 48.1410 -403.3791
v 546.5940 405.4923 -382.6060
v 550.4560 405.3010 -374.8311
v 590.2360 48.1410 -403.3791
v 590.2360 48.1410 -403.3791
v 550.4560 405.3010 -374.8311
v 589.7216 47.3934 -394.7433
v 550.4560 405.3010 -374.8311
v 549.9416 404.5534 -366.1953
v 589.7216 47.3934 -394.7433
v 589.7216 47.3934 -394.7433
v 584.9687 46.2899 -387.5605
v 573.9030 46.0650 -400.1661
v 584.9687 46.2899 -387.5605
v 577.2507 45.1261 -383.7554
v 573.9030 46.0650 -400.1661
v 577.2507 45.1261 -383.7554
v 568.6356 44.2139 -384.3475
v 573.9030 46.0650 -400.1661
v 568.6356 44.2139 -384.3475
v 561.4320 43.7977 -389.1782
v 573.9030 46.0650 -400.1661
v 561.4320 43.7977 -389.1782
v 557.5700 43.9890 -396.9531
v 573.9030 46.0650 -400.1661
v 557.5700 43.9890 -396.9531
v 558.0844 44.7366 -405.5889
v 573.9030 46.0650 -400.1661
v 558.0844 44.7366 -405.5889
v 562.8373 45.8401 -412.7717
v 573.9030 46.0650 -400.1661
v 562.8373 45.8401 -412.7717
v 570.5553 47.0039 -416.5768
v 573.9030 46.0650 -400.1661
v 570.5553 47.0039 -416.5768
v 579.1704 47.9161 -415.9847
v 573.9030 46.0650 -400.1661
v 579.1704 47.9161 -415.9847
v 586.3740 48.3323 -411.1540
v 573.9030 46.0650 -400.1661
v 586.3740 48.3323 -411.1540
v 590.2360 48.1410 -403.3791
v 573.9030 46.0650 -400.1661
v 590.2360 48.1410 -403.3791
v 589.7216 47.3934 -394.7433
v 573.9030 46.0650 -400.1661
v 545.1887 403.4499 -359.0125
v 549.9416 404.5534 -366.1953
v 534.1230 403.2250 -371.6181
v 537.4707 402.2861 -355.2074
v 545.1887 403.4499 -359.0125
v 534.1230 403.2250 -371.6181
v 528.8556 401.3739 -355.7995
v 537.4707 402.2861 -355.2074
v 534.1230 403.2250 -371.6181
v 521.6520 400.9577 -360.6302
v 528.8556 401.3739 -355.7995
v 534.1230 403.2250 -371.6181
v 517.7900 401.1490 -368.4051
v 521.6520 400.9577 -360.6302
v 534.1230 403.2250 -371.6181
v 518.3044 401.8966 -377.0409
v 517.7900 401.1490 -368.4051
v 534.1230 403.2250 -371.6181
v 523.0573 403.0001 -384.2237
v 518.3044 401.8966 -377.0409
v 534.1230 403.2250 -371.6181
v 530.7753 404.1639 -388.0288
v 523.0573 403.0001 -384.2237
v 534.1230 403.2250 -371.6181
v 539.3904 405.0761 -387.4367
v 530.7753 404.1639 -388.0288
v 534.1230 403.2250 -371.6181
v 546.5940 405.4923 -382.6060
v 539.3904 405.0761 -387.4367
v 534.1230 403.2250 -371.6181
v 550.4560 405.3010 -374.8311
v 546.5940 405.4923 -382.6060
v 534.1230 403.2250 -371.6181
v 549.9416 404.5534 -366.1953
v 550.4560 405.3010 -374.8311
v 534.1230 403.2250 -371.6181
v -558.0844 116.7366 405.5889
v -518.3044 473.8966 377.0409
v -562.8373 117.8401 412.7717
v -518.3044 473.8966 377.0409
v -523.0573 475.0001 384.2237
v -562.8373 117.8401 412.7717
v -562.8373 117.8401 412.7717
v -523.0573 475.0001 384.2237
v -570.5553 119.0039 416.5768
v -523.0573 475.0001 384.2237
v -530.7753 476.1639 388.0288
v -570.5553 119.0039 416.5768
v -570.5553 119.0039 416.5768
v -530.7753 476.1639 388.0288
v -579.1704 119.9161 415.9847
v -530.7753 476.1639 388.0288
v -539.3904 477.0761 387.4367
v -579.1704 119.9161 415.9847
v -579.1704 119.9161 415.9847
v -539.3904 477.0761 387.4367
v -586.3740 120.3323 411.1540
v -539.3904 477.0761 387.4367
v -546.5940 477.4923 382.6060
v -586.3740 120.3323 411.1540
v -586.3740 120.3323 411.1540
v -546.5940 477.4923 382.6060
v -590.2360 120.1410 403.3791
v -546.5940 477.4923 382.6060
v -550.4560 477.3010 374.8311
v -590.2360 120.1410 403.3791
v -590.2360 120.1410 403.3791
v -550.4560 477.3010 374.8311
v -589.7216 119.3934 394.7433
v -550.4560 477.3010 374.8311
v -549.9416 476.5534 366.1953
v -589.7216 119.3934 394.7433
v -589.7216 119.3934 394.7433
v -549.9416 476.5534 366.1953
v -584.9687 118.2899 387.5605
v -549.9416 476.5534 366.1953
v -545.1887 475.4499 359.0125
v -584.9687 118.2899 387.5605
v -584.9687 118.2899 387.5605
v -545.1887 475.4499 359.0125
v -577.2507 117.1261 383.7554
v -545.1887 475.4499 359.0125
v -537.4707 474.2861 355.2074
v -577.2507 117.1261 383.7554
v -577.2507 117.1261 383.7554
v -537.4707 474.2861 355.2074
v -568.6356 116.2139 384.3475
v -537.4707 474.2861 355.2074
v -528.8556 473.3739 355.7995
v -568.6356 116.2139 384.3475
v -568.6356 116.2139 384.3475
v -528.8556 473.3739 355.7995
v -561.4320 115.7977 389.1782
v -528.8556 473.3739 355.7995
v -521.6520 472.9577 360.6302
v -561.4320 115.7977 389.1782
v -561.4320 115.7977 389.1782
v -521.6520 472.9577 360.6302
v -557.5700 115.9890 396.9531
v -521.6520 472.9577 360.6302
v -517.7900 473.1490 368.4051
v -557.5700 115.9890 396.9531
v -557.5700 115.9890 396.9531
v -517.7900 473.1490 368.4051
v -558.0844 116.7366 405.5889
v -517.7900 473.1490 368.4051
v -518.3044 473.8966 377.0409
v -558.0844 116.7366 405.5889
v -558.0844 116.7366 405.5889
v -562.8373 117.8401 412.7717
v -573.9030 118.0650 400.1661
v -562.8373 117.8401 412.7717
v -570.5553 119.0039 416.5768
v -573.9030 118.0650 400.1661
v -570.5553 119.0039 416.5768
v -579.1704 119.9161 415.9847
v -573.9030 118.0650 400.1661
v -579.1704 119.9161 415.9847
v -586.3740 120.3323 411.1540
v -573.9030 118.0650 400.1661
v -586.3740 120.3323 411.1540
v -590.2360 120.1410 403.3791
v -573.9030 118.0650 400.1661
v -590.2360 120.1410 403.3791
v -589.7216 119.3934 394.7433
v -573.9030 118.0650 400.1661
v -589.7216 119.3934 394.7433
v -584.9687 118.2899 387.5605
v -573.9030 118.0650 400.1661
v -584.9687 118.2899 387.5605
v -577.2507 117.1261 383.7554
v -573.9030 118.0650 400.1661
v -577.2507 117.1261 383.7554
v -568.6356 116.2139 384.3475
v -573.9030 118.0650 400.1661
v -568.6356 116.2139 384.3475
v -561.4320 115.7977 389.1782
v -573.9030 118.0650 400.1661
v -561.4320 115.7977 389.1782
v -557.5700 115.9890 396.9531
v -573.9030 118.0650 400.1661
v -557.5700 115.9890 396.9531
v -558.0844 116.7366 405.5889
v -573.9030 118.0650 400.1661
v -523.0573 475.0001 384.2237
v -518.3044 473.8966 377.0409
v -534.1230 475.2250 371.6181
v -530.7753 476.1639 388.0288
v -523.0573 475.0001 384.2237
v -534.1230 475.2250 371.6181
v -539.3904 477.0761 387.4367
v -530.7753 476.1639 388.0288
v -534.1230 475.2250 371.6181
v -546.5940 477.4923 382.6060
v -539.3904 477.0761 387.4367
v -534.1230 475.2250 371.6181
v -550.4560 477.3010 374.8311
v -546.5940 477.4923 382.6060
v -534.1230 475.2250 371.6181
v -549.9416 476.5534 366.1953
v -550.4560 477.3010 374.8311
v -534.1230 475.2250 371.6181
v -545.1887 475.4499 359.0125
v -549.9416 476.5534 366.1953
v -534.1230 475.2250 371.6181
v -537.4707 474.2861 355.2074
v -545.1887 475.4499 359.0125
v -534.1230 475.2250 371.6181
v -528.8556 473.3739 355.7995
v -537.4707 474.2861 355.2074
v -534.1230 475.2250 371.6181
v -521.6520 472.9577 360.6302
v -528.8556 473.3739 355.7995
v -534.1230 475.2250 371.6181
v -517.7900 473.1490 368.4051
v -521.6520 472.9577 360.6302
v -534.1230 475.2250 371.6181
v -518.3044 473.8966 377.0409
v -517.7900 473.1490 368.4051
v -534.1230 475.2250 371.6181
v 558.0844 -99.2634 405.5889
v 518.3044 257.8966 377.0409
v 557.5700 -100.0110 396.9531
v 518.3044 257.8966 377.0409
v 517.7900 257.1490 368.4051
v 557.5700 -100.0110 396.9531
v 557.5700 -100.0110 396.9531
v 517.7900 257.1490 368.4051
v 561.4320 -100.2023 389.1782
v 517.7900 257.1490 368.4051
v 521.6520 256.9577 360.6302
v 561.4320 -100.2023 389.1782
v 561.4320 -100.2023 389.1782
v 521.6520 256.9577 360.6302
v 568.6356 -99.7861 384.3475
v 521.6520 256.9577 360.6302
v 528.8556 257.3739 355.7995
v 568.6356 -99.7861 384.3475
v 568.6356 -99.7861 384.3475
v 528.8556 257.3739 355.7995
v 577.2507 -98.8739 383.7554
v 528.8556 257.3739 355.7995
v 537.4707 258.2861 355.2074
v 577.2507 -98.8739 383.7554
v 577.2507 -98.8739 383.7554
v 537.4707 258.2861 355.2074
v 584.9687 -97.7101 387.5605
v 537.4707 258.2861 355.2074
v 545.1887 259.4499 359.0125
v 584.9687 -97.7101 387.5605
v 584.9687 -97.7101 387.5605
v 545.1887 259.4499 359.0125
v 589.7216 -96.6066 394.7433
v 545.1887 259.4499 359.0125
v 549.9416 260.5534 366.1953
v 589.7216 -96.6066 394.7433
v 589.7216 -96.6066 394.7433
v 549.9416 260.5534 366.1953
v 590.2360 -95.8590 403.3791
v 549.9416 260.5534 366.1953
v 550.4560 261.3010 374.8311
v 590.2360 -95.8590 403.3791
v 590.2360 -95.8590 403.3791
v 550.4560 261.3010 374.8311
v 586.3740 -95.6677 411.1540
v 550.4560 261.3010 374.8311
v 546.5940 261.4923 382.6060
v 586.3740 -95.6677 411.1540
v 586.3740 -95.6677 411.1540
v 546.5940 261.4923 382.6060
v 579.1704 -96.0839 415.9847
v 546.5940 261.4923 382.6060
v 539.3904 261.0761 387.4367
v 579.1704 -96.0839 415.9847
v 579.1704 -96.0839 415.9847
v 539.3904 261.0761 387.4367
v 570.5553 -96.9961 416.5768
v 539.3904 261.0761 387.4367
v 530.7753 260.1639 388.0288
v 570.5553 -96.9961 416.5768
v 570.5553 -96.9961 416.5768
v 530.7753 260.1639 388.0288
v 562.8373 -98.1599 412.7717
v 530.7753 260.1639 388.0288
v 523.0573 259.0001 384.2237
v 562.8373 -98.1599 412.7717
v 562.8373 -98.1599 412.7717
v 523.0573 259.0001 384.2237
v 558.0844 -99.2634 405.5889
v 523.0573 259.0001 384.2237
v 518.3044 257.8966 377.0409
v 558.0844 -99.2634 405.5889
v 558.0844 -99.2634 405.5889
v 557.5700 -100.0110 396.9531
v 573.9030 -97.9350 400.1661
v 557.5700 -100.0110 396.9531
v 561.4320 -100.2023 389.1782
v 573.9030 -97.9350 400.1661
v 561.4320 -100.2023 389.1782
v 568.6356 -99.7861 384.3475
v 573.9030 -97.9350 400.1661
v 568.6356 -99.7861 384.3475
v 577.2507 -98.8739 383.7554
v 573.9030 -97.9350 400.1661
v 577.2507 -98.8739 383.7554
v 584.9687 -97.7101 387.5605
v 573.9030 -97.9350 400.1661
v 584.9687 -97.7101 387.5605
v 589.7216 -96.6066 394.7433
v 573.9030 -97.9350 400.1661
v 589.7216 -96.6066 394.7433
v 590.2360 -95.8590 403.3791
v 573.9030 -97.9350 400.1661
v 590.2360 -95.8590 403.3791
v 586.3740 -95.6677 411.1540
v 573.9030 -97.9350 400.1661
v 586.3740 -95.6677 411.1540
v 579.1704 -96.0839 415.9847
v 573.9030 -97.9350 400.1661
v 579.1704 -96.0839 415.9847
v 570.5553 -96.9961 416.5768
v 573.9030 -97.9350 400.1661
v 570.5553 -96.9961 416.5768
v 562.8373 -98.1599 412.7717
v 573.9030 -97.9350 400.1661
v 562.8373 -98.1599 412.7717
v 558.0844 -99.2634 405.5889
v 573.9030 -97.9350 400.1661
v 517.7900 257.1490 368.4051
v 518.3044 257.8966 377.0409
v 534.1230 259.2250 371.6181
v 521.6520 256.9577 360.6302
v 517.7900 257.1490 368.4051
v 534.1230 259.2250 371.6181
v 528.8556 257.3739 355.7995
v 521.6520 256.9577 360.6302
v 534.1230 259.2250 371.6181
v 537.4707 258.2861 355.2074
v 528.8556 257.3739 355.7995
v 534.1230 259.2250 371.6181
v 545.1887 259.4499 359.0125
v 537.4707 258.2861 355.2074
v 534.1230 259.2250 371.6181
v 549.9416 260.5534 366.1953
v 545.1887 259.4499 359.0125
v 534.1230 259.2250 371.6181
v 550.4560 261.3010 374.8311
v 549.9416 260.5534 366.1953
v 534.1230 259.2250 371.6181
v 546.5940 261.4923 382.6060
v 550.4560 261.3010 374.8311
v 534.1230 259.2250 371.6181
v 539.3904 261.0761 387.4367
v 546.5940 261.4923 382.6060
v 534.1230 259.2250 371.6181
v 530.7753 260.1639 388.0288
v 539.3904 261.0761 387.4367
v 534.1230 259.2250 371.6181
v 523.0573 259.0001 384.2237
v 530.7753 260.1639 388.0288
v 534.1230 259.2250 371.6181
v 518.3044 257.8966 377.0409
v 523.0573 259.0001 384.2237
v 534.1230 259.2250 371.6181
f 1 2 3
f 4 5 6
f 7 8 9
f 10 11 12
f 13 14 15
f 16 17 18
f 19 20 21
f 22 23 24
f 25 26 27
f 28 29 30
f 31 32 33
f 34 35 36
f 37 38 39
f 40 41 42
f 43 44 45
f 46 47 48
f 49 50 51
f 52 53 54
f 55 56 57
f 58 59 60
f 61 62 63
f 64 65 66
f 67 68 69
f 70 71 72
f 73 74 75
f 76 77 78
f 79 80 81
f 82 83 84
f 85 86 87
f 88 89 90
f 91 92 93
f 94 95 96
f 97 98 99
f 100 101 102
f 103 104 105
f 106 107 108
f 109 110 111
f 112 113 114
f 115 116 117
f 118 119 120
f 121 122 123
f 124 125 126
f 127 128 129
f 130 131 132
f 133 134 135
f 136 137 138
f 139 140 141
f 142 143 144
f 145 146 147
f 148 149 150
f 151 152 153
f 154 155 156
f 157 158 159
f 160 161 162
f 163 164 165
f 166 167 168
f 169 170 171
f 172 173 174
f 175 176 177
f 178 179 180
f 181 182 183
f 184 185 186
f 187 188 189
f 190 191 192
f 193 194 195
f 196 197 198
f 199 200 201
f 202 203 204
f 205 206 207
f 208 209 210
f 211 212 213
f 214 215 216
f 217 218 219
f 220 221 222
f 223 224 225
f 226 227 228
f 229 230 231
f 232 233 234
f 235 236 237
f 238 239 240
f 241 242 243
f 244 245 246
f 247 248 249
f 250 251 252
f 253 254 255
f 256 257 258
f 259 260 261
f 262 263 264
f 265 266 267
f 268 269 270
f 271 272 273
f 274 275 276
f 277 278 279
f 280 281 282
f 283 284 285
f 286 287 288
f 289 290 291
f 292 293 294
f 295 296 297
f 298 299 300
f 301 302 303
f 304 305 306
f 307 308 309
f 310 311 312
f 313 314 315
f 316 317 318
f 319 320 321
f 322 323 324
f 325 326 327
f 328 329 330
f 331 332 333
f 334 335 336
f 337 338 339
f 340 341 342
f 343 344 345
f 346 347 348
f 349 350 351
f 352 353 354
f 355 356 357
f 358 359 360
f 361 362 363
f 364 365 366
f 367 368 369
f 370 371 372
f 373 374 375
f 376 377 378
f 379 380 381
f 382 383 384
f 385 386 387
f 388 389 390
f 391 392 393
f 394 395 396
f 397 398 399
f 400 401 402
f 403 404 405
f 406 407 408
f 409 410 411
f 412 413 414
f 415 416 417
f 418 419 420
f 421 422 423
f 424 425 426
f 427 428 429
f 430 431 432
f 433 434 435
f 436 437 438
f 439 440 441
f 442 443 444
f 445 446 447
f 448 449 450
f 451 452 453
f 454 455 456
f 457 458 459
f 460 461 462
f 463 464 465
f 466 467 468
f 469 470 471
f 472 473 474
f 475 476 477
f 478 479 480
f 481 482 483
f 484 485 486
f 487 488 489
f 490 491 492
f 493 494 495
f 496 497 498
f 499 500 501
f 502 503 504
f 505 506 507
f 508 509 510
f 511 512 513
f 514 515 516
f 517 518 519
f 520 521 522
f 523 524 525
f 526 527 528
f 529 530 531
f 532 533 534
f 535 536 537
f 538 539 540
f 541 542 543
f 544 545 546
f 547 548 549
f 550 551 552
f 553 554 555
f 556 557 558
f 559 560 561
f 562 563 564
f 565 566 567
f 568 569 570
f 571 572 573
f 574 575 576
f 577 578 579
f 580 581 582
f 583 584 585
f 586 587 588
f 589 590 591
f 592 593 594
f 595 596 597
f 598 599 600
f 601 602 603
f 604 605 606
f 607 608 609
f 610 611 612
