# MATERIA - LessLess
# Geometria originale di studio. Unita mm. Non CAD del produttore.
v 1220.0000 525.9500 530.0000
v 1220.0000 467.6500 530.0000
v 1220.0000 525.9500 -530.0000
v 1220.0000 467.6500 530.0000
v 1220.0000 467.6500 -530.0000
v 1220.0000 525.9500 -530.0000
v -1220.0000 525.9500 -530.0000
v -1220.0000 467.6500 -530.0000
v -1220.0000 525.9500 530.0000
v -1220.0000 467.6500 -530.0000
v -1220.0000 467.6500 530.0000
v -1220.0000 525.9500 530.0000
v -1220.0000 525.9500 -530.0000
v -1220.0000 525.9500 530.0000
v 1220.0000 525.9500 -530.0000
v -1220.0000 525.9500 530.0000
v 1220.0000 525.9500 530.0000
v 1220.0000 525.9500 -530.0000
v -1220.0000 467.6500 530.0000
v -1220.0000 467.6500 -530.0000
v 1220.0000 467.6500 530.0000
v -1220.0000 467.6500 -530.0000
v 1220.0000 467.6500 -530.0000
v 1220.0000 467.6500 530.0000
v -1220.0000 525.9500 530.0000
v -1220.0000 467.6500 530.0000
v 1220.0000 525.9500 530.0000
v -1220.0000 467.6500 530.0000
v 1220.0000 467.6500 530.0000
v 1220.0000 525.9500 530.0000
v 1220.0000 525.9500 -530.0000
v 1220.0000 467.6500 -530.0000
v -1220.0000 525.9500 -530.0000
v 1220.0000 467.6500 -530.0000
v -1220.0000 467.6500 -530.0000
v -1220.0000 525.9500 -530.0000
v -1668.5519 -45.1072 -675.3925
v -1554.3599 599.4528 -625.7845
v -1675.4479 -42.8670 -688.6254
v -1554.3599 599.4528 -625.7845
v -1561.2559 601.6930 -639.0174
v -1675.4479 -42.8670 -688.6254
v -1675.4479 -42.8670 -688.6254
v -1561.2559 601.6930 -639.0174
v -1674.8389 -41.8174 -703.6657
v -1561.2559 601.6930 -639.0174
v -1560.6469 602.7426 -654.0577
v -1674.8389 -41.8174 -703.6657
v -1674.8389 -41.8174 -703.6657
v -1560.6469 602.7426 -654.0577
v -1666.8883 -42.2394 -716.4833
v -1560.6469 602.7426 -654.0577
v -1552.6963 602.3206 -666.8753
v -1666.8883 -42.2394 -716.4833
v -1666.8883 -42.2394 -716.4833
v -1552.6963 602.3206 -666.8753
v -1653.7262 -44.0202 -723.6438
v -1552.6963 602.3206 -666.8753
v -1539.5342 600.5398 -674.0358
v -1653.7262 -44.0202 -723.6438
v -1653.7262 -44.0202 -723.6438
v -1539.5342 600.5398 -674.0358
v -1638.8796 -46.6824 -723.2285
v -1539.5342 600.5398 -674.0358
v -1524.6876 597.8776 -673.6205
v -1638.8796 -46.6824 -723.2285
v -1638.8796 -46.6824 -723.2285
v -1524.6876 597.8776 -673.6205
v -1626.3265 -49.5128 -715.3487
v -1524.6876 597.8776 -673.6205
v -1512.1345 595.0472 -665.7407
v -1626.3265 -49.5128 -715.3487
v -1626.3265 -49.5128 -715.3487
v -1512.1345 595.0472 -665.7407
v -1619.4305 -51.7530 -702.1158
v -1512.1345 595.0472 -665.7407
v -1505.2385 592.8070 -652.5078
v -1619.4305 -51.7530 -702.1158
v -1619.4305 -51.7530 -702.1158
v -1505.2385 592.8070 -652.5078
v -1620.0395 -52.8026 -687.0755
v -1505.2385 592.8070 -652.5078
v -1505.8475 591.7574 -637.4675
v -1620.0395 -52.8026 -687.0755
v -1620.0395 -52.8026 -687.0755
v -1505.8475 591.7574 -637.4675
v -1627.9901 -52.3806 -674.2579
v -1505.8475 591.7574 -637.4675
v -1513.7981 592.1794 -624.6499
v -1627.9901 -52.3806 -674.2579
v -1627.9901 -52.3806 -674.2579
v -1513.7981 592.1794 -624.6499
v -1641.1522 -50.5998 -667.0974
v -1513.7981 592.1794 -624.6499
v -1526.9602 593.9602 -617.4894
v -1641.1522 -50.5998 -667.0974
v -1641.1522 -50.5998 -667.0974
v -1526.9602 593.9602 -617.4894
v -1655.9988 -47.9376 -667.5127
v -1526.9602 593.9602 -617.4894
v -1541.8068 596.6224 -617.9047
v -1655.9988 -47.9376 -667.5127
v -1655.9988 -47.9376 -667.5127
v -1541.8068 596.6224 -617.9047
v -1668.5519 -45.1072 -675.3925
v -1541.8068 596.6224 -617.9047
v -1554.3599 599.4528 -625.7845
v -1668.5519 -45.1072 -675.3925
v -1668.5519 -45.1072 -675.3925
v -1675.4479 -42.8670 -688.6254
v -1647.4392 -47.3100 -695.3706
v -1675.4479 -42.8670 -688.6254
v -1674.8389 -41.8174 -703.6657
v -1647.4392 -47.3100 -695.3706
v -1674.8389 -41.8174 -703.6657
v -1666.8883 -42.2394 -716.4833
v -1647.4392 -47.3100 -695.3706
v -1666.8883 -42.2394 -716.4833
v -1653.7262 -44.0202 -723.6438
v -1647.4392 -47.3100 -695.3706
v -1653.7262 -44.0202 -723.6438
v -1638.8796 -46.6824 -723.2285
v -1647.4392 -47.3100 -695.3706
v -1638.8796 -46.6824 -723.2285
v -1626.3265 -49.5128 -715.3487
v -1647.4392 -47.3100 -695.3706
v -1626.3265 -49.5128 -715.3487
v -1619.4305 -51.7530 -702.1158
v -1647.4392 -47.3100 -695.3706
v -1619.4305 -51.7530 -702.1158
v -1620.0395 -52.8026 -687.0755
v -1647.4392 -47.3100 -695.3706
v -1620.0395 -52.8026 -687.0755
v -1627.9901 -52.3806 -674.2579
v -1647.4392 -47.3100 -695.3706
v -1627.9901 -52.3806 -674.2579
v -1641.1522 -50.5998 -667.0974
v -1647.4392 -47.3100 -695.3706
v -1641.1522 -50.5998 -667.0974
v -1655.9988 -47.9376 -667.5127
v -1647.4392 -47.3100 -695.3706
v -1655.9988 -47.9376 -667.5127
v -1668.5519 -45.1072 -675.3925
v -1647.4392 -47.3100 -695.3706
v -1561.2559 601.6930 -639.0174
v -1554.3599 599.4528 -625.7845
v -1533.2472 597.2500 -645.7626
v -1560.6469 602.7426 -654.0577
v -1561.2559 601.6930 -639.0174
v -1533.2472 597.2500 -645.7626
v -1552.6963 602.3206 -666.8753
v -1560.6469 602.7426 -654.0577
v -1533.2472 597.2500 -645.7626
v -1539.5342 600.5398 -674.0358
v -1552.6963 602.3206 -666.8753
v -1533.2472 597.2500 -645.7626
v -1524.6876 597.8776 -673.6205
v -1539.5342 600.5398 -674.0358
v -1533.2472 597.2500 -645.7626
v -1512.1345 595.0472 -665.7407
v -1524.6876 597.8776 -673.6205
v -1533.2472 597.2500 -645.7626
v -1505.2385 592.8070 -652.5078
v -1512.1345 595.0472 -665.7407
v -1533.2472 597.2500 -645.7626
v -1505.8475 591.7574 -637.4675
v -1505.2385 592.8070 -652.5078
v -1533.2472 597.2500 -645.7626
v -1513.7981 592.1794 -624.6499
v -1505.8475 591.7574 -637.4675
v -1533.2472 597.2500 -645.7626
v -1526.9602 593.9602 -617.4894
v -1513.7981 592.1794 -624.6499
v -1533.2472 597.2500 -645.7626
v -1541.8068 596.6224 -617.9047
v -1526.9602 593.9602 -617.4894
v -1533.2472 597.2500 -645.7626
v -1554.3599 599.4528 -625.7845
v -1541.8068 596.6224 -617.9047
v -1533.2472 597.2500 -645.7626
v 1668.5519 84.4928 -675.3925
v 1554.3599 729.0528 -625.7845
v 1655.9988 81.6624 -667.5127
v 1554.3599 729.0528 -625.7845
v 1541.8068 726.2224 -617.9047
v 1655.9988 81.6624 -667.5127
v 1655.9988 81.6624 -667.5127
v 1541.8068 726.2224 -617.9047
v 1641.1522 79.0002 -667.0974
v 1541.8068 726.2224 -617.9047
v 1526.9602 723.5602 -617.4894
v 1641.1522 79.0002 -667.0974
v 1641.1522 79.0002 -667.0974
v 1526.9602 723.5602 -617.4894
v 1627.9901 77.2194 -674.2579
v 1526.9602 723.5602 -617.4894
v 1513.7981 721.7794 -624.6499
v 1627.9901 77.2194 -674.2579
v 1627.9901 77.2194 -674.2579
v 1513.7981 721.7794 -624.6499
v 1620.0395 76.7974 -687.0755
v 1513.7981 721.7794 -624.6499
v 1505.8475 721.3574 -637.4675
v 1620.0395 76.7974 -687.0755
v 1620.0395 76.7974 -687.0755
v 1505.8475 721.3574 -637.4675
v 1619.4305 77.8470 -702.1158
v 1505.8475 721.3574 -637.4675
v 1505.2385 722.4070 -652.5078
v 1619.4305 77.8470 -702.1158
v 1619.4305 77.8470 -702.1158
v 1505.2385 722.4070 -652.5078
v 1626.3265 80.0872 -715.3487
v 1505.2385 722.4070 -652.5078
v 1512.1345 724.6472 -665.7407
v 1626.3265 80.0872 -715.3487
v 1626.3265 80.0872 -715.3487
v 1512.1345 724.6472 -665.7407
v 1638.8796 82.9176 -723.2285
v 1512.1345 724.6472 -665.7407
v 1524.6876 727.4776 -673.6205
v 1638.8796 82.9176 -723.2285
v 1638.8796 82.9176 -723.2285
v 1524.6876 727.4776 -673.6205
v 1653.7262 85.5798 -723.6438
v 1524.6876 727.4776 -673.6205
v 1539.5342 730.1398 -674.0358
v 1653.7262 85.5798 -723.6438
v 1653.7262 85.5798 -723.6438
v 1539.5342 730.1398 -674.0358
v 1666.8883 87.3606 -716.4833
v 1539.5342 730.1398 -674.0358
v 1552.6963 731.9206 -666.8753
v 1666.8883 87.3606 -716.4833
v 1666.8883 87.3606 -716.4833
v 1552.6963 731.9206 -666.8753
v 1674.8389 87.7826 -703.6657
v 1552.6963 731.9206 -666.8753
v 1560.6469 732.3426 -654.0577
v 1674.8389 87.7826 -703.6657
v 1674.8389 87.7826 -703.6657
v 1560.6469 732.3426 -654.0577
v 1675.4479 86.7330 -688.6254
v 1560.6469 732.3426 -654.0577
v 1561.2559 731.2930 -639.0174
v 1675.4479 86.7330 -688.6254
v 1675.4479 86.7330 -688.6254
v 1561.2559 731.2930 -639.0174
v 1668.5519 84.4928 -675.3925
v 1561.2559 731.2930 -639.0174
v 1554.3599 729.0528 -625.7845
v 1668.5519 84.4928 -675.3925
v 1668.5519 84.4928 -675.3925
v 1655.9988 81.6624 -667.5127
v 1647.4392 82.2900 -695.3706
v 1655.9988 81.6624 -667.5127
v 1641.1522 79.0002 -667.0974
v 1647.4392 82.2900 -695.3706
v 1641.1522 79.0002 -667.0974
v 1627.9901 77.2194 -674.2579
v 1647.4392 82.2900 -695.3706
v 1627.9901 77.2194 -674.2579
v 1620.0395 76.7974 -687.0755
v 1647.4392 82.2900 -695.3706
v 1620.0395 76.7974 -687.0755
v 1619.4305 77.8470 -702.1158
v 1647.4392 82.2900 -695.3706
v 1619.4305 77.8470 -702.1158
v 1626.3265 80.0872 -715.3487
v 1647.4392 82.2900 -695.3706
v 1626.3265 80.0872 -715.3487
v 1638.8796 82.9176 -723.2285
v 1647.4392 82.2900 -695.3706
v 1638.8796 82.9176 -723.2285
v 1653.7262 85.5798 -723.6438
v 1647.4392 82.2900 -695.3706
v 1653.7262 85.5798 -723.6438
v 1666.8883 87.3606 -716.4833
v 1647.4392 82.2900 -695.3706
v 1666.8883 87.3606 -716.4833
v 1674.8389 87.7826 -703.6657
v 1647.4392 82.2900 -695.3706
v 1674.8389 87.7826 -703.6657
v 1675.4479 86.7330 -688.6254
v 1647.4392 82.2900 -695.3706
v 1675.4479 86.7330 -688.6254
v 1668.5519 84.4928 -675.3925
v 1647.4392 82.2900 -695.3706
v 1541.8068 726.2224 -617.9047
v 1554.3599 729.0528 -625.7845
v 1533.2472 726.8500 -645.7626
v 1526.9602 723.5602 -617.4894
v 1541.8068 726.2224 -617.9047
v 1533.2472 726.8500 -645.7626
v 1513.7981 721.7794 -624.6499
v 1526.9602 723.5602 -617.4894
v 1533.2472 726.8500 -645.7626
v 1505.8475 721.3574 -637.4675
v 1513.7981 721.7794 -624.6499
v 1533.2472 726.8500 -645.7626
v 1505.2385 722.4070 -652.5078
v 1505.8475 721.3574 -637.4675
v 1533.2472 726.8500 -645.7626
v 1512.1345 724.6472 -665.7407
v 1505.2385 722.4070 -652.5078
v 1533.2472 726.8500 -645.7626
v 1524.6876 727.4776 -673.6205
v 1512.1345 724.6472 -665.7407
v 1533.2472 726.8500 -645.7626
v 1539.5342 730.1398 -674.0358
v 1524.6876 727.4776 -673.6205
v 1533.2472 726.8500 -645.7626
v 1552.6963 731.9206 -666.8753
v 1539.5342 730.1398 -674.0358
v 1533.2472 726.8500 -645.7626
v 1560.6469 732.3426 -654.0577
v 1552.6963 731.9206 -666.8753
v 1533.2472 726.8500 -645.7626
v 1561.2559 731.2930 -639.0174
v 1560.6469 732.3426 -654.0577
v 1533.2472 726.8500 -645.7626
v 1554.3599 729.0528 -625.7845
v 1561.2559 731.2930 -639.0174
v 1533.2472 726.8500 -645.7626
v -1626.3265 209.6872 715.3487
v -1512.1345 854.2472 665.7407
v -1638.8796 212.5176 723.2285
v -1512.1345 854.2472 665.7407
v -1524.6876 857.0776 673.6205
v -1638.8796 212.5176 723.2285
v -1638.8796 212.5176 723.2285
v -1524.6876 857.0776 673.6205
v -1653.7262 215.1798 723.6438
v -1524.6876 857.0776 673.6205
v -1539.5342 859.7398 674.0358
v -1653.7262 215.1798 723.6438
v -1653.7262 215.1798 723.6438
v -1539.5342 859.7398 674.0358
v -1666.8883 216.9606 716.4833
v -1539.5342 859.7398 674.0358
v -1552.6963 861.5206 666.8753
v -1666.8883 216.9606 716.4833
v -1666.8883 216.9606 716.4833
v -1552.6963 861.5206 666.8753
v -1674.8389 217.3826 703.6657
v -1552.6963 861.5206 666.8753
v -1560.6469 861.9426 654.0577
v -1674.8389 217.3826 703.6657
v -1674.8389 217.3826 703.6657
v -1560.6469 861.9426 654.0577
v -1675.4479 216.3330 688.6254
v -1560.6469 861.9426 654.0577
v -1561.2559 860.8930 639.0174
v -1675.4479 216.3330 688.6254
v -1675.4479 216.3330 688.6254
v -1561.2559 860.8930 639.0174
v -1668.5519 214.0928 675.3925
v -1561.2559 860.8930 639.0174
v -1554.3599 858.6528 625.7845
v -1668.5519 214.0928 675.3925
v -1668.5519 214.0928 675.3925
v -1554.3599 858.6528 625.7845
v -1655.9988 211.2624 667.5127
v -1554.3599 858.6528 625.7845
v -1541.8068 855.8224 617.9047
v -1655.9988 211.2624 667.5127
v -1655.9988 211.2624 667.5127
v -1541.8068 855.8224 617.9047
v -1641.1522 208.6002 667.0974
v -1541.8068 855.8224 617.9047
v -1526.9602 853.1602 617.4894
v -1641.1522 208.6002 667.0974
v -1641.1522 208.6002 667.0974
v -1526.9602 853.1602 617.4894
v -1627.9901 206.8194 674.2579
v -1526.9602 853.1602 617.4894
v -1513.7981 851.3794 624.6499
v -1627.9901 206.8194 674.2579
v -1627.9901 206.8194 674.2579
v -1513.7981 851.3794 624.6499
v -1620.0395 206.3974 687.0755
v -1513.7981 851.3794 624.6499
v -1505.8475 850.9574 637.4675
v -1620.0395 206.3974 687.0755
v -1620.0395 206.3974 687.0755
v -1505.8475 850.9574 637.4675
v -1619.4305 207.4470 702.1158
v -1505.8475 850.9574 637.4675
v -1505.2385 852.0070 652.5078
v -1619.4305 207.4470 702.1158
v -1619.4305 207.4470 702.1158
v -1505.2385 852.0070 652.5078
v -1626.3265 209.6872 715.3487
v -1505.2385 852.0070 652.5078
v -1512.1345 854.2472 665.7407
v -1626.3265 209.6872 715.3487
v -1626.3265 209.6872 715.3487
v -1638.8796 212.5176 723.2285
v -1647.4392 211.8900 695.3706
v -1638.8796 212.5176 723.2285
v -1653.7262 215.1798 723.6438
v -1647.4392 211.8900 695.3706
v -1653.7262 215.1798 723.6438
v -1666.8883 216.9606 716.4833
v -1647.4392 211.8900 695.3706
v -1666.8883 216.9606 716.4833
v -1674.8389 217.3826 703.6657
v -1647.4392 211.8900 695.3706
v -1674.8389 217.3826 703.6657
v -1675.4479 216.3330 688.6254
v -1647.4392 211.8900 695.3706
v -1675.4479 216.3330 688.6254
v -1668.5519 214.0928 675.3925
v -1647.4392 211.8900 695.3706
v -1668.5519 214.0928 675.3925
v -1655.9988 211.2624 667.5127
v -1647.4392 211.8900 695.3706
v -1655.9988 211.2624 667.5127
v -1641.1522 208.6002 667.0974
v -1647.4392 211.8900 695.3706
v -1641.1522 208.6002 667.0974
v -1627.9901 206.8194 674.2579
v -1647.4392 211.8900 695.3706
v -1627.9901 206.8194 674.2579
v -1620.0395 206.3974 687.0755
v -1647.4392 211.8900 695.3706
v -1620.0395 206.3974 687.0755
v -1619.4305 207.4470 702.1158
v -1647.4392 211.8900 695.3706
v -1619.4305 207.4470 702.1158
v -1626.3265 209.6872 715.3487
v -1647.4392 211.8900 695.3706
v -1524.6876 857.0776 673.6205
v -1512.1345 854.2472 665.7407
v -1533.2472 856.4500 645.7626
v -1539.5342 859.7398 674.0358
v -1524.6876 857.0776 673.6205
v -1533.2472 856.4500 645.7626
v -1552.6963 861.5206 666.8753
v -1539.5342 859.7398 674.0358
v -1533.2472 856.4500 645.7626
v -1560.6469 861.9426 654.0577
v -1552.6963 861.5206 666.8753
v -1533.2472 856.4500 645.7626
v -1561.2559 860.8930 639.0174
v -1560.6469 861.9426 654.0577
v -1533.2472 856.4500 645.7626
v -1554.3599 858.6528 625.7845
v -1561.2559 860.8930 639.0174
v -1533.2472 856.4500 645.7626
v -1541.8068 855.8224 617.9047
v -1554.3599 858.6528 625.7845
v -1533.2472 856.4500 645.7626
v -1526.9602 853.1602 617.4894
v -1541.8068 855.8224 617.9047
v -1533.2472 856.4500 645.7626
v -1513.7981 851.3794 624.6499
v -1526.9602 853.1602 617.4894
v -1533.2472 856.4500 645.7626
v -1505.8475 850.9574 637.4675
v -1513.7981 851.3794 624.6499
v -1533.2472 856.4500 645.7626
v -1505.2385 852.0070 652.5078
v -1505.8475 850.9574 637.4675
v -1533.2472 856.4500 645.7626
v -1512.1345 854.2472 665.7407
v -1505.2385 852.0070 652.5078
v -1533.2472 856.4500 645.7626
v 1626.3265 -179.1128 715.3487
v 1512.1345 465.4472 665.7407
v 1619.4305 -181.3530 702.1158
v 1512.1345 465.4472 665.7407
v 1505.2385 463.2070 652.5078
v 1619.4305 -181.3530 702.1158
v 1619.4305 -181.3530 702.1158
v 1505.2385 463.2070 652.5078
v 1620.0395 -182.4026 687.0755
v 1505.2385 463.2070 652.5078
v 1505.8475 462.1574 637.4675
v 1620.0395 -182.4026 687.0755
v 1620.0395 -182.4026 687.0755
v 1505.8475 462.1574 637.4675
v 1627.9901 -181.9806 674.2579
v 1505.8475 462.1574 637.4675
v 1513.7981 462.5794 624.6499
v 1627.9901 -181.9806 674.2579
v 1627.9901 -181.9806 674.2579
v 1513.7981 462.5794 624.6499
v 1641.1522 -180.1998 667.0974
v 1513.7981 462.5794 624.6499
v 1526.9602 464.3602 617.4894
v 1641.1522 -180.1998 667.0974
v 1641.1522 -180.1998 667.0974
v 1526.9602 464.3602 617.4894
v 1655.9988 -177.5376 667.5127
v 1526.9602 464.3602 617.4894
v 1541.8068 467.0224 617.9047
v 1655.9988 -177.5376 667.5127
v 1655.9988 -177.5376 667.5127
v 1541.8068 467.0224 617.9047
v 1668.5519 -174.7072 675.3925
v 1541.8068 467.0224 617.9047
v 1554.3599 469.8528 625.7845
v 1668.5519 -174.7072 675.3925
v 1668.5519 -174.7072 675.3925
v 1554.3599 469.8528 625.7845
v 1675.4479 -172.4670 688.6254
v 1554.3599 469.8528 625.7845
v 1561.2559 472.0930 639.0174
v 1675.4479 -172.4670 688.6254
v 1675.4479 -172.4670 688.6254
v 1561.2559 472.0930 639.0174
v 1674.8389 -171.4174 703.6657
v 1561.2559 472.0930 639.0174
v 1560.6469 473.1426 654.0577
v 1674.8389 -171.4174 703.6657
v 1674.8389 -171.4174 703.6657
v 1560.6469 473.1426 654.0577
v 1666.8883 -171.8394 716.4833
v 1560.6469 473.1426 654.0577
v 1552.6963 472.7206 666.8753
v 1666.8883 -171.8394 716.4833
v 1666.8883 -171.8394 716.4833
v 1552.6963 472.7206 666.8753
v 1653.7262 -173.6202 723.6438
v 1552.6963 472.7206 666.8753
v 1539.5342 470.9398 674.0358
v 1653.7262 -173.6202 723.6438
v 1653.7262 -173.6202 723.6438
v 1539.5342 470.9398 674.0358
v 1638.8796 -176.2824 723.2285
v 1539.5342 470.9398 674.0358
v 1524.6876 468.2776 673.6205
v 1638.8796 -176.2824 723.2285
v 1638.8796 -176.2824 723.2285
v 1524.6876 468.2776 673.6205
v 1626.3265 -179.1128 715.3487
v 1524.6876 468.2776 673.6205
v 1512.1345 465.4472 665.7407
v 1626.3265 -179.1128 715.3487
v 1626.3265 -179.1128 715.3487
v 1619.4305 -181.3530 702.1158
v 1647.4392 -176.9100 695.3706
v 1619.4305 -181.3530 702.1158
v 1620.0395 -182.4026 687.0755
v 1647.4392 -176.9100 695.3706
v 1620.0395 -182.4026 687.0755
v 1627.9901 -181.9806 674.2579
v 1647.4392 -176.9100 695.3706
v 1627.9901 -181.9806 674.2579
v 1641.1522 -180.1998 667.0974
v 1647.4392 -176.9100 695.3706
v 1641.1522 -180.1998 667.0974
v 1655.9988 -177.5376 667.5127
v 1647.4392 -176.9100 695.3706
v 1655.9988 -177.5376 667.5127
v 1668.5519 -174.7072 675.3925
v 1647.4392 -176.9100 695.3706
v 1668.5519 -174.7072 675.3925
v 1675.4479 -172.4670 688.6254
v 1647.4392 -176.9100 695.3706
v 1675.4479 -172.4670 688.6254
v 1674.8389 -171.4174 703.6657
v 1647.4392 -176.9100 695.3706
v 1674.8389 -171.4174 703.6657
v 1666.8883 -171.8394 716.4833
v 1647.4392 -176.9100 695.3706
v 1666.8883 -171.8394 716.4833
v 1653.7262 -173.6202 723.6438
v 1647.4392 -176.9100 695.3706
v 1653.7262 -173.6202 723.6438
v 1638.8796 -176.2824 723.2285
v 1647.4392 -176.9100 695.3706
v 1638.8796 -176.2824 723.2285
v 1626.3265 -179.1128 715.3487
v 1647.4392 -176.9100 695.3706
v 1505.2385 463.2070 652.5078
v 1512.1345 465.4472 665.7407
v 1533.2472 467.6500 645.7626
v 1505.8475 462.1574 637.4675
v 1505.2385 463.2070 652.5078
v 1533.2472 467.6500 645.7626
v 1513.7981 462.5794 624.6499
v 1505.8475 462.1574 637.4675
v 1533.2472 467.6500 645.7626
v 1526.9602 464.3602 617.4894
v 1513.7981 462.5794 624.6499
v 1533.2472 467.6500 645.7626
v 1541.8068 467.0224 617.9047
v 1526.9602 464.3602 617.4894
v 1533.2472 467.6500 645.7626
v 1554.3599 469.8528 625.7845
v 1541.8068 467.0224 617.9047
v 1533.2472 467.6500 645.7626
v 1561.2559 472.0930 639.0174
v 1554.3599 469.8528 625.7845
v 1533.2472 467.6500 645.7626
v 1560.6469 473.1426 654.0577
v 1561.2559 472.0930 639.0174
v 1533.2472 467.6500 645.7626
v 1552.6963 472.7206 666.8753
v 1560.6469 473.1426 654.0577
v 1533.2472 467.6500 645.7626
v 1539.5342 470.9398 674.0358
v 1552.6963 472.7206 666.8753
v 1533.2472 467.6500 645.7626
v 1524.6876 468.2776 673.6205
v 1539.5342 470.9398 674.0358
v 1533.2472 467.6500 645.7626
v 1512.1345 465.4472 665.7407
v 1524.6876 468.2776 673.6205
v 1533.2472 467.6500 645.7626
f 1 2 3
f 4 5 6
f 7 8 9
f 10 11 12
f 13 14 15
f 16 17 18
f 19 20 21
f 22 23 24
f 25 26 27
f 28 29 30
f 31 32 33
f 34 35 36
f 37 38 39
f 40 41 42
f 43 44 45
f 46 47 48
f 49 50 51
f 52 53 54
f 55 56 57
f 58 59 60
f 61 62 63
f 64 65 66
f 67 68 69
f 70 71 72
f 73 74 75
f 76 77 78
f 79 80 81
f 82 83 84
f 85 86 87
f 88 89 90
f 91 92 93
f 94 95 96
f 97 98 99
f 100 101 102
f 103 104 105
f 106 107 108
f 109 110 111
f 112 113 114
f 115 116 117
f 118 119 120
f 121 122 123
f 124 125 126
f 127 128 129
f 130 131 132
f 133 134 135
f 136 137 138
f 139 140 141
f 142 143 144
f 145 146 147
f 148 149 150
f 151 152 153
f 154 155 156
f 157 158 159
f 160 161 162
f 163 164 165
f 166 167 168
f 169 170 171
f 172 173 174
f 175 176 177
f 178 179 180
f 181 182 183
f 184 185 186
f 187 188 189
f 190 191 192
f 193 194 195
f 196 197 198
f 199 200 201
f 202 203 204
f 205 206 207
f 208 209 210
f 211 212 213
f 214 215 216
f 217 218 219
f 220 221 222
f 223 224 225
f 226 227 228
f 229 230 231
f 232 233 234
f 235 236 237
f 238 239 240
f 241 242 243
f 244 245 246
f 247 248 249
f 250 251 252
f 253 254 255
f 256 257 258
f 259 260 261
f 262 263 264
f 265 266 267
f 268 269 270
f 271 272 273
f 274 275 276
f 277 278 279
f 280 281 282
f 283 284 285
f 286 287 288
f 289 290 291
f 292 293 294
f 295 296 297
f 298 299 300
f 301 302 303
f 304 305 306
f 307 308 309
f 310 311 312
f 313 314 315
f 316 317 318
f 319 320 321
f 322 323 324
f 325 326 327
f 328 329 330
f 331 332 333
f 334 335 336
f 337 338 339
f 340 341 342
f 343 344 345
f 346 347 348
f 349 350 351
f 352 353 354
f 355 356 357
f 358 359 360
f 361 362 363
f 364 365 366
f 367 368 369
f 370 371 372
f 373 374 375
f 376 377 378
f 379 380 381
f 382 383 384
f 385 386 387
f 388 389 390
f 391 392 393
f 394 395 396
f 397 398 399
f 400 401 402
f 403 404 405
f 406 407 408
f 409 410 411
f 412 413 414
f 415 416 417
f 418 419 420
f 421 422 423
f 424 425 426
f 427 428 429
f 430 431 432
f 433 434 435
f 436 437 438
f 439 440 441
f 442 443 444
f 445 446 447
f 448 449 450
f 451 452 453
f 454 455 456
f 457 458 459
f 460 461 462
f 463 464 465
f 466 467 468
f 469 470 471
f 472 473 474
f 475 476 477
f 478 479 480
f 481 482 483
f 484 485 486
f 487 488 489
f 490 491 492
f 493 494 495
f 496 497 498
f 499 500 501
f 502 503 504
f 505 506 507
f 508 509 510
f 511 512 513
f 514 515 516
f 517 518 519
f 520 521 522
f 523 524 525
f 526 527 528
f 529 530 531
f 532 533 534
f 535 536 537
f 538 539 540
f 541 542 543
f 544 545 546
f 547 548 549
f 550 551 552
f 553 554 555
f 556 557 558
f 559 560 561
f 562 563 564
f 565 566 567
f 568 569 570
f 571 572 573
f 574 575 576
f 577 578 579
f 580 581 582
f 583 584 585
f 586 587 588
f 589 590 591
f 592 593 594
f 595 596 597
f 598 599 600
f 601 602 603
f 604 605 606
f 607 608 609
f 610 611 612
