# MATERIA - Mezzadro
# Geometria originale di studio. Unita mm. Non CAD del produttore.
v 183.7500 26.9500 175.9500
v 183.7500 0.0000 175.9500
v 183.7500 26.9500 79.0500
v 183.7500 0.0000 175.9500
v 183.7500 0.0000 79.0500
v 183.7500 26.9500 79.0500
v -183.7500 26.9500 79.0500
v -183.7500 0.0000 79.0500
v -183.7500 26.9500 175.9500
v -183.7500 0.0000 79.0500
v -183.7500 0.0000 175.9500
v -183.7500 26.9500 175.9500
v -183.7500 26.9500 79.0500
v -183.7500 26.9500 175.9500
v 183.7500 26.9500 79.0500
v -183.7500 26.9500 175.9500
v 183.7500 26.9500 175.9500
v 183.7500 26.9500 79.0500
v -183.7500 0.0000 175.9500
v -183.7500 0.0000 79.0500
v 183.7500 0.0000 175.9500
v -183.7500 0.0000 79.0500
v 183.7500 0.0000 79.0500
v 183.7500 0.0000 175.9500
v -183.7500 26.9500 175.9500
v -183.7500 0.0000 175.9500
v 183.7500 26.9500 175.9500
v -183.7500 0.0000 175.9500
v 183.7500 0.0000 175.9500
v 183.7500 26.9500 175.9500
v 183.7500 26.9500 79.0500
v 183.7500 0.0000 79.0500
v -183.7500 26.9500 79.0500
v 183.7500 0.0000 79.0500
v -183.7500 0.0000 79.0500
v -183.7500 26.9500 79.0500
v 10.2410 26.9500 127.5000
v 10.2410 53.2384 105.8482
v 5.1205 32.5876 134.3466
v 10.2410 53.2384 105.8482
v 5.1205 58.8765 112.6944
v 5.1205 32.5876 134.3466
v 5.1205 32.5876 134.3466
v 5.1205 58.8765 112.6944
v -5.1205 32.5876 134.3466
v 5.1205 58.8765 112.6944
v -5.1205 58.8765 112.6944
v -5.1205 32.5876 134.3466
v -5.1205 32.5876 134.3466
v -5.1205 58.8765 112.6944
v -10.2410 26.9500 127.5000
v -5.1205 58.8765 112.6944
v -10.2410 53.2384 105.8482
v -10.2410 26.9500 127.5000
v -10.2410 26.9500 127.5000
v -10.2410 53.2384 105.8482
v -5.1205 21.3124 120.6534
v -10.2410 53.2384 105.8482
v -5.1205 47.6003 99.0020
v -5.1205 21.3124 120.6534
v -5.1205 21.3124 120.6534
v -5.1205 47.6003 99.0020
v 5.1205 21.3124 120.6534
v -5.1205 47.6003 99.0020
v 5.1205 47.6003 99.0020
v 5.1205 21.3124 120.6534
v 5.1205 21.3124 120.6534
v 5.1205 47.6003 99.0020
v 10.2410 26.9500 127.5000
v 5.1205 47.6003 99.0020
v 10.2410 53.2384 105.8482
v 10.2410 26.9500 127.5000
v 10.2410 53.2384 105.8482
v 10.2410 79.5022 84.1660
v 5.1205 58.8765 112.6944
v 10.2410 79.5022 84.1660
v 5.1205 85.2997 90.8777
v 5.1205 58.8765 112.6944
v 5.1205 58.8765 112.6944
v 5.1205 85.2997 90.8777
v -5.1205 58.8765 112.6944
v 5.1205 85.2997 90.8777
v -5.1205 85.2997 90.8777
v -5.1205 58.8765 112.6944
v -5.1205 58.8765 112.6944
v -5.1205 85.2997 90.8777
v -10.2410 53.2384 105.8482
v -5.1205 85.2997 90.8777
v -10.2410 79.5022 84.1660
v -10.2410 53.2384 105.8482
v -10.2410 53.2384 105.8482
v -10.2410 79.5022 84.1660
v -5.1205 47.6003 99.0020
v -10.2410 79.5022 84.1660
v -5.1205 73.7046 77.4544
v -5.1205 47.6003 99.0020
v -5.1205 47.6003 99.0020
v -5.1205 73.7046 77.4544
v 5.1205 47.6003 99.0020
v -5.1205 73.7046 77.4544
v 5.1205 73.7046 77.4544
v 5.1205 47.6003 99.0020
v 5.1205 47.6003 99.0020
v 5.1205 73.7046 77.4544
v 10.2410 53.2384 105.8482
v 5.1205 73.7046 77.4544
v 10.2410 79.5022 84.1660
v 10.2410 53.2384 105.8482
v 10.2410 79.5022 84.1660
v 10.2410 104.0628 60.5988
v 5.1205 85.2997 90.8777
v 10.2410 104.0628 60.5988
v 5.1205 110.3935 66.8102
v 5.1205 85.2997 90.8777
v 5.1205 85.2997 90.8777
v 5.1205 110.3935 66.8102
v -5.1205 85.2997 90.8777
v 5.1205 110.3935 66.8102
v -5.1205 110.3935 66.8102
v -5.1205 85.2997 90.8777
v -5.1205 85.2997 90.8777
v -5.1205 110.3935 66.8102
v -10.2410 79.5022 84.1660
v -5.1205 110.3935 66.8102
v -10.2410 104.0628 60.5988
v -10.2410 79.5022 84.1660
v -10.2410 79.5022 84.1660
v -10.2410 104.0628 60.5988
v -5.1205 73.7046 77.4544
v -10.2410 104.0628 60.5988
v -5.1205 97.7321 54.3875
v -5.1205 73.7046 77.4544
v -5.1205 73.7046 77.4544
v -5.1205 97.7321 54.3875
v 5.1205 73.7046 77.4544
v -5.1205 97.7321 54.3875
v 5.1205 97.7321 54.3875
v 5.1205 73.7046 77.4544
v 5.1205 73.7046 77.4544
v 5.1205 97.7321 54.3875
v 10.2410 79.5022 84.1660
v 5.1205 97.7321 54.3875
v 10.2410 104.0628 60.5988
v 10.2410 79.5022 84.1660
v 10.2410 104.0628 60.5988
v 10.2410 127.6623 36.0404
v 5.1205 110.3935 66.8102
v 10.2410 127.6623 36.0404
v 5.1205 134.0903 42.1509
v 5.1205 110.3935 66.8102
v 5.1205 110.3935 66.8102
v 5.1205 134.0903 42.1509
v -5.1205 110.3935 66.8102
v 5.1205 134.0903 42.1509
v -5.1205 134.0903 42.1509
v -5.1205 110.3935 66.8102
v -5.1205 110.3935 66.8102
v -5.1205 134.0903 42.1509
v -10.2410 104.0628 60.5988
v -5.1205 134.0903 42.1509
v -10.2410 127.6623 36.0404
v -10.2410 104.0628 60.5988
v -10.2410 104.0628 60.5988
v -10.2410 127.6623 36.0404
v -5.1205 97.7321 54.3875
v -10.2410 127.6623 36.0404
v -5.1205 121.2342 29.9299
v -5.1205 97.7321 54.3875
v -5.1205 97.7321 54.3875
v -5.1205 121.2342 29.9299
v 5.1205 97.7321 54.3875
v -5.1205 121.2342 29.9299
v 5.1205 121.2342 29.9299
v 5.1205 97.7321 54.3875
v 5.1205 97.7321 54.3875
v 5.1205 121.2342 29.9299
v 10.2410 104.0628 60.5988
v 5.1205 121.2342 29.9299
v 10.2410 127.6623 36.0404
v 10.2410 104.0628 60.5988
v 10.2410 127.6623 36.0404
v 10.2410 151.1649 11.3862
v 5.1205 134.0903 42.1509
v 10.2410 151.1649 11.3862
v 5.1205 157.5598 17.5315
v 5.1205 134.0903 42.1509
v 5.1205 134.0903 42.1509
v 5.1205 157.5598 17.5315
v -5.1205 134.0903 42.1509
v 5.1205 157.5598 17.5315
v -5.1205 157.5598 17.5315
v -5.1205 134.0903 42.1509
v -5.1205 134.0903 42.1509
v -5.1205 157.5598 17.5315
v -10.2410 127.6623 36.0404
v -5.1205 157.5598 17.5315
v -10.2410 151.1649 11.3862
v -10.2410 127.6623 36.0404
v -10.2410 127.6623 36.0404
v -10.2410 151.1649 11.3862
v -5.1205 121.2342 29.9299
v -10.2410 151.1649 11.3862
v -5.1205 144.7700 5.2410
v -5.1205 121.2342 29.9299
v -5.1205 121.2342 29.9299
v -5.1205 144.7700 5.2410
v 5.1205 121.2342 29.9299
v -5.1205 144.7700 5.2410
v 5.1205 144.7700 5.2410
v 5.1205 121.2342 29.9299
v 5.1205 121.2342 29.9299
v 5.1205 144.7700 5.2410
v 10.2410 127.6623 36.0404
v 5.1205 144.7700 5.2410
v 10.2410 151.1649 11.3862
v 10.2410 127.6623 36.0404
v 10.2410 151.1649 11.3862
v 10.2410 174.9765 -12.9678
v 5.1205 157.5598 17.5315
v 10.2410 174.9765 -12.9678
v 5.1205 181.2500 -6.6986
v 5.1205 157.5598 17.5315
v 5.1205 157.5598 17.5315
v 5.1205 181.2500 -6.6986
v -5.1205 157.5598 17.5315
v 5.1205 181.2500 -6.6986
v -5.1205 181.2500 -6.6986
v -5.1205 157.5598 17.5315
v -5.1205 157.5598 17.5315
v -5.1205 181.2500 -6.6986
v -10.2410 151.1649 11.3862
v -5.1205 181.2500 -6.6986
v -10.2410 174.9765 -12.9678
v -10.2410 151.1649 11.3862
v -10.2410 151.1649 11.3862
v -10.2410 174.9765 -12.9678
v -5.1205 144.7700 5.2410
v -10.2410 174.9765 -12.9678
v -5.1205 168.7031 -19.2369
v -5.1205 144.7700 5.2410
v -5.1205 144.7700 5.2410
v -5.1205 168.7031 -19.2369
v 5.1205 144.7700 5.2410
v -5.1205 168.7031 -19.2369
v 5.1205 168.7031 -19.2369
v 5.1205 144.7700 5.2410
v 5.1205 144.7700 5.2410
v 5.1205 168.7031 -19.2369
v 10.2410 151.1649 11.3862
v 5.1205 168.7031 -19.2369
v 10.2410 174.9765 -12.9678
v 10.2410 151.1649 11.3862
v 10.2410 174.9765 -12.9678
v 10.2410 199.4304 -36.6715
v 5.1205 181.2500 -6.6986
v 10.2410 199.4304 -36.6715
v 5.1205 205.4824 -30.1882
v 5.1205 181.2500 -6.6986
v 5.1205 181.2500 -6.6986
v 5.1205 205.4824 -30.1882
v -5.1205 181.2500 -6.6986
v 5.1205 205.4824 -30.1882
v -5.1205 205.4824 -30.1882
v -5.1205 181.2500 -6.6986
v -5.1205 181.2500 -6.6986
v -5.1205 205.4824 -30.1882
v -10.2410 174.9765 -12.9678
v -5.1205 205.4824 -30.1882
v -10.2410 199.4304 -36.6715
v -10.2410 174.9765 -12.9678
v -10.2410 174.9765 -12.9678
v -10.2410 199.4304 -36.6715
v -5.1205 168.7031 -19.2369
v -10.2410 199.4304 -36.6715
v -5.1205 193.3784 -43.1547
v -5.1205 168.7031 -19.2369
v -5.1205 168.7031 -19.2369
v -5.1205 193.3784 -43.1547
v 5.1205 168.7031 -19.2369
v -5.1205 193.3784 -43.1547
v 5.1205 193.3784 -43.1547
v 5.1205 168.7031 -19.2369
v 5.1205 168.7031 -19.2369
v 5.1205 193.3784 -43.1547
v 10.2410 174.9765 -12.9678
v 5.1205 193.3784 -43.1547
v 10.2410 199.4304 -36.6715
v 10.2410 174.9765 -12.9678
v 10.2410 199.4304 -36.6715
v 10.2410 224.9279 -59.2534
v 5.1205 205.4824 -30.1882
v 10.2410 224.9279 -59.2534
v 5.1205 230.5995 -52.4350
v 5.1205 205.4824 -30.1882
v 5.1205 205.4824 -30.1882
v 5.1205 230.5995 -52.4350
v -5.1205 205.4824 -30.1882
v 5.1205 230.5995 -52.4350
v -5.1205 230.5995 -52.4350
v -5.1205 205.4824 -30.1882
v -5.1205 205.4824 -30.1882
v -5.1205 230.5995 -52.4350
v -10.2410 199.4304 -36.6715
v -5.1205 230.5995 -52.4350
v -10.2410 224.9279 -59.2534
v -10.2410 199.4304 -36.6715
v -10.2410 199.4304 -36.6715
v -10.2410 224.9279 -59.2534
v -5.1205 193.3784 -43.1547
v -10.2410 224.9279 -59.2534
v -5.1205 219.2563 -66.0719
v -5.1205 193.3784 -43.1547
v -5.1205 193.3784 -43.1547
v -5.1205 219.2563 -66.0719
v 5.1205 193.3784 -43.1547
v -5.1205 219.2563 -66.0719
v 5.1205 219.2563 -66.0719
v 5.1205 193.3784 -43.1547
v 5.1205 193.3784 -43.1547
v 5.1205 219.2563 -66.0719
v 10.2410 199.4304 -36.6715
v 5.1205 219.2563 -66.0719
v 10.2410 224.9279 -59.2534
v 10.2410 199.4304 -36.6715
v 10.2410 224.9279 -59.2534
v 10.2410 252.0526 -79.8290
v 5.1205 230.5995 -52.4350
v 10.2410 252.0526 -79.8290
v 5.1205 257.0154 -72.4785
v 5.1205 230.5995 -52.4350
v 5.1205 230.5995 -52.4350
v 5.1205 257.0154 -72.4785
v -5.1205 230.5995 -52.4350
v 5.1205 257.0154 -72.4785
v -5.1205 257.0154 -72.4785
v -5.1205 230.5995 -52.4350
v -5.1205 230.5995 -52.4350
v -5.1205 257.0154 -72.4785
v -10.2410 224.9279 -59.2534
v -5.1205 257.0154 -72.4785
v -10.2410 252.0526 -79.8290
v -10.2410 224.9279 -59.2534
v -10.2410 224.9279 -59.2534
v -10.2410 252.0526 -79.8290
v -5.1205 219.2563 -66.0719
v -10.2410 252.0526 -79.8290
v -5.1205 247.0899 -87.1796
v -5.1205 219.2563 -66.0719
v -5.1205 219.2563 -66.0719
v -5.1205 247.0899 -87.1796
v 5.1205 219.2563 -66.0719
v -5.1205 247.0899 -87.1796
v 5.1205 247.0899 -87.1796
v 5.1205 219.2563 -66.0719
v 5.1205 219.2563 -66.0719
v 5.1205 247.0899 -87.1796
v 10.2410 224.9279 -59.2534
v 5.1205 247.0899 -87.1796
v 10.2410 252.0526 -79.8290
v 10.2410 224.9279 -59.2534
v 10.2410 252.0526 -79.8290
v 10.2410 281.8108 -96.2584
v 5.1205 257.0154 -72.4785
v 10.2410 281.8108 -96.2584
v 5.1205 285.1485 -88.0415
v 5.1205 257.0154 -72.4785
v 5.1205 257.0154 -72.4785
v 5.1205 285.1485 -88.0415
v -5.1205 257.0154 -72.4785
v 5.1205 285.1485 -88.0415
v -5.1205 285.1485 -88.0415
v -5.1205 257.0154 -72.4785
v -5.1205 257.0154 -72.4785
v -5.1205 285.1485 -88.0415
v -10.2410 252.0526 -79.8290
v -5.1205 285.1485 -88.0415
v -10.2410 281.8108 -96.2584
v -10.2410 252.0526 -79.8290
v -10.2410 252.0526 -79.8290
v -10.2410 281.8108 -96.2584
v -5.1205 247.0899 -87.1796
v -10.2410 281.8108 -96.2584
v -5.1205 278.4730 -104.4753
v -5.1205 247.0899 -87.1796
v -5.1205 247.0899 -87.1796
v -5.1205 278.4730 -104.4753
v 5.1205 247.0899 -87.1796
v -5.1205 278.4730 -104.4753
v 5.1205 278.4730 -104.4753
v 5.1205 247.0899 -87.1796
v 5.1205 247.0899 -87.1796
v 5.1205 278.4730 -104.4753
v 10.2410 252.0526 -79.8290
v 5.1205 278.4730 -104.4753
v 10.2410 281.8108 -96.2584
v 10.2410 252.0526 -79.8290
v 10.2410 281.8108 -96.2584
v 10.2410 315.0518 -101.6065
v 5.1205 285.1485 -88.0415
v 10.2410 315.0518 -101.6065
v 5.1205 313.9937 -92.8009
v 5.1205 285.1485 -88.0415
v 5.1205 285.1485 -88.0415
v 5.1205 313.9937 -92.8009
v -5.1205 285.1485 -88.0415
v 5.1205 313.9937 -92.8009
v -5.1205 313.9937 -92.8009
v -5.1205 285.1485 -88.0415
v -5.1205 285.1485 -88.0415
v -5.1205 313.9937 -92.8009
v -10.2410 281.8108 -96.2584
v -5.1205 313.9937 -92.8009
v -10.2410 315.0518 -101.6065
v -10.2410 281.8108 -96.2584
v -10.2410 281.8108 -96.2584
v -10.2410 315.0518 -101.6065
v -5.1205 278.4730 -104.4753
v -10.2410 315.0518 -101.6065
v -5.1205 316.1099 -110.4122
v -5.1205 278.4730 -104.4753
v -5.1205 278.4730 -104.4753
v -5.1205 316.1099 -110.4122
v 5.1205 278.4730 -104.4753
v -5.1205 316.1099 -110.4122
v 5.1205 316.1099 -110.4122
v 5.1205 278.4730 -104.4753
v 5.1205 278.4730 -104.4753
v 5.1205 316.1099 -110.4122
v 10.2410 281.8108 -96.2584
v 5.1205 316.1099 -110.4122
v 10.2410 315.0518 -101.6065
v 10.2410 281.8108 -96.2584
v 10.2410 315.0518 -101.6065
v 10.2410 346.7429 -89.8525
v 5.1205 313.9937 -92.8009
v 10.2410 346.7429 -89.8525
v 5.1205 342.1651 -82.2563
v 5.1205 313.9937 -92.8009
v 5.1205 313.9937 -92.8009
v 5.1205 342.1651 -82.2563
v -5.1205 313.9937 -92.8009
v 5.1205 342.1651 -82.2563
v -5.1205 342.1651 -82.2563
v -5.1205 313.9937 -92.8009
v -5.1205 313.9937 -92.8009
v -5.1205 342.1651 -82.2563
v -10.2410 315.0518 -101.6065
v -5.1205 342.1651 -82.2563
v -10.2410 346.7429 -89.8525
v -10.2410 315.0518 -101.6065
v -10.2410 315.0518 -101.6065
v -10.2410 346.7429 -89.8525
v -5.1205 316.1099 -110.4122
v -10.2410 346.7429 -89.8525
v -5.1205 351.3208 -97.4486
v -5.1205 316.1099 -110.4122
v -5.1205 316.1099 -110.4122
v -5.1205 351.3208 -97.4486
v 5.1205 316.1099 -110.4122
v -5.1205 351.3208 -97.4486
v 5.1205 351.3208 -97.4486
v 5.1205 316.1099 -110.4122
v 5.1205 316.1099 -110.4122
v 5.1205 351.3208 -97.4486
v 10.2410 315.0518 -101.6065
v 5.1205 351.3208 -97.4486
v 10.2410 346.7429 -89.8525
v 10.2410 315.0518 -101.6065
v 10.2410 346.7429 -89.8525
v 10.2410 373.8446 -69.3018
v 5.1205 342.1651 -82.2563
v 10.2410 373.8446 -69.3018
v 5.1205 367.9532 -62.6723
v 5.1205 342.1651 -82.2563
v 5.1205 342.1651 -82.2563
v 5.1205 367.9532 -62.6723
v -5.1205 342.1651 -82.2563
v 5.1205 367.9532 -62.6723
v -5.1205 367.9532 -62.6723
v -5.1205 342.1651 -82.2563
v -5.1205 342.1651 -82.2563
v -5.1205 367.9532 -62.6723
v -10.2410 346.7429 -89.8525
v -5.1205 367.9532 -62.6723
v -10.2410 373.8446 -69.3018
v -10.2410 346.7429 -89.8525
v -10.2410 346.7429 -89.8525
v -10.2410 373.8446 -69.3018
v -5.1205 351.3208 -97.4486
v -10.2410 373.8446 -69.3018
v -5.1205 379.7359 -75.9314
v -5.1205 351.3208 -97.4486
v -5.1205 351.3208 -97.4486
v -5.1205 379.7359 -75.9314
v 5.1205 351.3208 -97.4486
v -5.1205 379.7359 -75.9314
v 5.1205 379.7359 -75.9314
v 5.1205 351.3208 -97.4486
v 5.1205 351.3208 -97.4486
v 5.1205 379.7359 -75.9314
v 10.2410 346.7429 -89.8525
v 5.1205 379.7359 -75.9314
v 10.2410 373.8446 -69.3018
v 10.2410 346.7429 -89.8525
v 10.2410 373.8446 -69.3018
v 10.2410 398.4575 -45.7680
v 5.1205 367.9532 -62.6723
v 10.2410 398.4575 -45.7680
v 5.1205 392.1961 -39.4868
v 5.1205 367.9532 -62.6723
v 5.1205 367.9532 -62.6723
v 5.1205 392.1961 -39.4868
v -5.1205 367.9532 -62.6723
v 5.1205 392.1961 -39.4868
v -5.1205 392.1961 -39.4868
v -5.1205 367.9532 -62.6723
v -5.1205 367.9532 -62.6723
v -5.1205 392.1961 -39.4868
v -10.2410 373.8446 -69.3018
v -5.1205 392.1961 -39.4868
v -10.2410 398.4575 -45.7680
v -10.2410 373.8446 -69.3018
v -10.2410 373.8446 -69.3018
v -10.2410 398.4575 -45.7680
v -5.1205 379.7359 -75.9314
v -10.2410 398.4575 -45.7680
v -5.1205 404.7188 -52.0492
v -5.1205 379.7359 -75.9314
v -5.1205 379.7359 -75.9314
v -5.1205 404.7188 -52.0492
v 5.1205 379.7359 -75.9314
v -5.1205 404.7188 -52.0492
v 5.1205 404.7188 -52.0492
v 5.1205 379.7359 -75.9314
v 5.1205 379.7359 -75.9314
v 5.1205 404.7188 -52.0492
v 10.2410 373.8446 -69.3018
v 5.1205 404.7188 -52.0492
v 10.2410 398.4575 -45.7680
v 10.2410 373.8446 -69.3018
v 10.2410 398.4575 -45.7680
v 10.2410 422.7518 -21.8992
v 5.1205 392.1961 -39.4868
v 10.2410 422.7518 -21.8992
v 5.1205 416.6734 -15.4408
v 5.1205 392.1961 -39.4868
v 5.1205 392.1961 -39.4868
v 5.1205 416.6734 -15.4408
v -5.1205 392.1961 -39.4868
v 5.1205 416.6734 -15.4408
v -5.1205 416.6734 -15.4408
v -5.1205 392.1961 -39.4868
v -5.1205 392.1961 -39.4868
v -5.1205 416.6734 -15.4408
v -10.2410 398.4575 -45.7680
v -5.1205 416.6734 -15.4408
v -10.2410 422.7518 -21.8992
v -10.2410 398.4575 -45.7680
v -10.2410 398.4575 -45.7680
v -10.2410 422.7518 -21.8992
v -5.1205 404.7188 -52.0492
v -10.2410 422.7518 -21.8992
v -5.1205 428.8302 -28.3577
v -5.1205 404.7188 -52.0492
v -5.1205 404.7188 -52.0492
v -5.1205 428.8302 -28.3577
v 5.1205 404.7188 -52.0492
v -5.1205 428.8302 -28.3577
v 5.1205 428.8302 -28.3577
v 5.1205 404.7188 -52.0492
v 5.1205 404.7188 -52.0492
v 5.1205 428.8302 -28.3577
v 10.2410 398.4575 -45.7680
v 5.1205 428.8302 -28.3577
v 10.2410 422.7518 -21.8992
v 10.2410 398.4575 -45.7680
v 10.2410 422.7518 -21.8992
v 10.2410 448.8000 0.0000
v 5.1205 416.6734 -15.4408
v 10.2410 448.8000 0.0000
v 5.1205 443.6438 7.2161
v 5.1205 416.6734 -15.4408
v 5.1205 416.6734 -15.4408
v 5.1205 443.6438 7.2161
v -5.1205 416.6734 -15.4408
v 5.1205 443.6438 7.2161
v -5.1205 443.6438 7.2161
v -5.1205 416.6734 -15.4408
v -5.1205 416.6734 -15.4408
v -5.1205 443.6438 7.2161
v -10.2410 422.7518 -21.8992
v -5.1205 443.6438 7.2161
v -10.2410 448.8000 0.0000
v -10.2410 422.7518 -21.8992
v -10.2410 422.7518 -21.8992
v -10.2410 448.8000 0.0000
v -5.1205 428.8302 -28.3577
v -10.2410 448.8000 0.0000
v -5.1205 453.9562 -7.2161
v -5.1205 428.8302 -28.3577
v -5.1205 428.8302 -28.3577
v -5.1205 453.9562 -7.2161
v 5.1205 428.8302 -28.3577
v -5.1205 453.9562 -7.2161
v 5.1205 453.9562 -7.2161
v 5.1205 428.8302 -28.3577
v 5.1205 428.8302 -28.3577
v 5.1205 453.9562 -7.2161
v 10.2410 422.7518 -21.8992
v 5.1205 453.9562 -7.2161
v 10.2410 448.8000 -0.0000
v 10.2410 422.7518 -21.8992
v 0.0000 522.7500 0.0000
v -93.7574 519.4502 0.0000
v -81.1963 519.4502 48.7921
v 0.0000 522.7500 0.0000
v -81.1963 519.4502 48.7921
v -46.8787 519.4502 84.5105
v 0.0000 522.7500 0.0000
v -46.8787 519.4502 84.5105
v -0.0000 519.4502 97.5843
v 0.0000 522.7500 0.0000
v -0.0000 519.4502 97.5843
v 46.8787 519.4502 84.5105
v 0.0000 522.7500 0.0000
v 46.8787 519.4502 84.5105
v 81.1963 519.4502 48.7921
v 0.0000 522.7500 0.0000
v 81.1963 519.4502 48.7921
v 93.7574 519.4502 0.0000
v 0.0000 522.7500 0.0000
v 93.7574 519.4502 0.0000
v 81.1963 519.4502 -48.7921
v 0.0000 522.7500 0.0000
v 81.1963 519.4502 -48.7921
v 46.8787 519.4502 -84.5105
v 0.0000 522.7500 0.0000
v 46.8787 519.4502 -84.5105
v 0.0000 519.4502 -97.5843
v 0.0000 522.7500 0.0000
v 0.0000 519.4502 -97.5843
v -46.8787 519.4502 -84.5105
v 0.0000 522.7500 0.0000
v -46.8787 519.4502 -84.5105
v -81.1963 519.4502 -48.7921
v 0.0000 522.7500 0.0000
v -81.1963 519.4502 -48.7921
v -93.7574 519.4502 -0.0000
v -81.1963 519.4502 48.7921
v -93.7574 519.4502 0.0000
v -150.0313 510.0531 90.1561
v -93.7574 519.4502 0.0000
v -173.2412 510.0531 0.0000
v -150.0313 510.0531 90.1561
v -46.8787 519.4502 84.5105
v -81.1963 519.4502 48.7921
v -86.6206 510.0531 156.1550
v -81.1963 519.4502 48.7921
v -150.0313 510.0531 90.1561
v -86.6206 510.0531 156.1550
v -0.0000 519.4502 97.5843
v -46.8787 519.4502 84.5105
v -0.0000 510.0531 180.3122
v -46.8787 519.4502 84.5105
v -86.6206 510.0531 156.1550
v -0.0000 510.0531 180.3122
v 46.8787 519.4502 84.5105
v -0.0000 519.4502 97.5843
v 86.6206 510.0531 156.1550
v -0.0000 519.4502 97.5843
v -0.0000 510.0531 180.3122
v 86.6206 510.0531 156.1550
v 81.1963 519.4502 48.7921
v 46.8787 519.4502 84.5105
v 150.0313 510.0531 90.1561
v 46.8787 519.4502 84.5105
v 86.6206 510.0531 156.1550
v 150.0313 510.0531 90.1561
v 93.7574 519.4502 0.0000
v 81.1963 519.4502 48.7921
v 173.2412 510.0531 0.0000
v 81.1963 519.4502 48.7921
v 150.0313 510.0531 90.1561
v 173.2412 510.0531 0.0000
v 81.1963 519.4502 -48.7921
v 93.7574 519.4502 0.0000
v 150.0313 510.0531 -90.1561
v 93.7574 519.4502 0.0000
v 173.2412 510.0531 0.0000
v 150.0313 510.0531 -90.1561
v 46.8787 519.4502 -84.5105
v 81.1963 519.4502 -48.7921
v 86.6206 510.0531 -156.1550
v 81.1963 519.4502 -48.7921
v 150.0313 510.0531 -90.1561
v 86.6206 510.0531 -156.1550
v 0.0000 519.4502 -97.5843
v 46.8787 519.4502 -84.5105
v 0.0000 510.0531 -180.3122
v 46.8787 519.4502 -84.5105
v 86.6206 510.0531 -156.1550
v 0.0000 510.0531 -180.3122
v -46.8787 519.4502 -84.5105
v 0.0000 519.4502 -97.5843
v -86.6206 510.0531 -156.1550
v 0.0000 519.4502 -97.5843
v 0.0000 510.0531 -180.3122
v -86.6206 510.0531 -156.1550
v -81.1963 519.4502 -48.7921
v -46.8787 519.4502 -84.5105
v -150.0313 510.0531 -90.1561
v -46.8787 519.4502 -84.5105
v -86.6206 510.0531 -156.1550
v -150.0313 510.0531 -90.1561
v -93.7574 519.4502 -0.0000
v -81.1963 519.4502 -48.7921
v -173.2412 510.0531 -0.0000
v -81.1963 519.4502 -48.7921
v -150.0313 510.0531 -90.1561
v -173.2412 510.0531 -0.0000
v -150.0313 510.0531 90.1561
v -173.2412 510.0531 0.0000
v -196.0253 495.9893 117.7946
v -173.2412 510.0531 0.0000
v -226.3505 495.9893 0.0000
v -196.0253 495.9893 117.7946
v -86.6206 510.0531 156.1550
v -150.0313 510.0531 90.1561
v -113.1752 495.9893 204.0263
v -150.0313 510.0531 90.1561
v -196.0253 495.9893 117.7946
v -113.1752 495.9893 204.0263
v -0.0000 510.0531 180.3122
v -86.6206 510.0531 156.1550
v -0.0000 495.9893 235.5893
v -86.6206 510.0531 156.1550
v -113.1752 495.9893 204.0263
v -0.0000 495.9893 235.5893
v 86.6206 510.0531 156.1550
v -0.0000 510.0531 180.3122
v 113.1752 495.9893 204.0263
v -0.0000 510.0531 180.3122
v -0.0000 495.9893 235.5893
v 113.1752 495.9893 204.0263
v 150.0313 510.0531 90.1561
v 86.6206 510.0531 156.1550
v 196.0253 495.9893 117.7946
v 86.6206 510.0531 156.1550
v 113.1752 495.9893 204.0263
v 196.0253 495.9893 117.7946
v 173.2412 510.0531 0.0000
v 150.0313 510.0531 90.1561
v 226.3505 495.9893 0.0000
v 150.0313 510.0531 90.1561
v 196.0253 495.9893 117.7946
v 226.3505 495.9893 0.0000
v 150.0313 510.0531 -90.1561
v 173.2412 510.0531 0.0000
v 196.0253 495.9893 -117.7946
v 173.2412 510.0531 0.0000
v 226.3505 495.9893 0.0000
v 196.0253 495.9893 -117.7946
v 86.6206 510.0531 -156.1550
v 150.0313 510.0531 -90.1561
v 113.1752 495.9893 -204.0263
v 150.0313 510.0531 -90.1561
v 196.0253 495.9893 -117.7946
v 113.1752 495.9893 -204.0263
v 0.0000 510.0531 -180.3122
v 86.6206 510.0531 -156.1550
v 0.0000 495.9893 -235.5893
v 86.6206 510.0531 -156.1550
v 113.1752 495.9893 -204.0263
v 0.0000 495.9893 -235.5893
v -86.6206 510.0531 -156.1550
v 0.0000 510.0531 -180.3122
v -113.1752 495.9893 -204.0263
v 0.0000 510.0531 -180.3122
v 0.0000 495.9893 -235.5893
v -113.1752 495.9893 -204.0263
v -150.0313 510.0531 -90.1561
v -86.6206 510.0531 -156.1550
v -196.0253 495.9893 -117.7946
v -86.6206 510.0531 -156.1550
v -113.1752 495.9893 -204.0263
v -196.0253 495.9893 -117.7946
v -173.2412 510.0531 -0.0000
v -150.0313 510.0531 -90.1561
v -226.3505 495.9893 -0.0000
v -150.0313 510.0531 -90.1561
v -196.0253 495.9893 -117.7946
v -226.3505 495.9893 -0.0000
v -196.0253 495.9893 117.7946
v -226.3505 495.9893 0.0000
v -212.1762 479.4000 127.5000
v -226.3505 495.9893 0.0000
v -245.0000 479.4000 0.0000
v -212.1762 479.4000 127.5000
v -113.1752 495.9893 204.0263
v -196.0253 495.9893 117.7946
v -122.5000 479.4000 220.8365
v -196.0253 495.9893 117.7946
v -212.1762 479.4000 127.5000
v -122.5000 479.4000 220.8365
v -0.0000 495.9893 235.5893
v -113.1752 495.9893 204.0263
v -0.0000 479.4000 255.0000
v -113.1752 495.9893 204.0263
v -122.5000 479.4000 220.8365
v -0.0000 479.4000 255.0000
v 113.1752 495.9893 204.0263
v -0.0000 495.9893 235.5893
v 122.5000 479.4000 220.8365
v -0.0000 495.9893 235.5893
v -0.0000 479.4000 255.0000
v 122.5000 479.4000 220.8365
v 196.0253 495.9893 117.7946
v 113.1752 495.9893 204.0263
v 212.1762 479.4000 127.5000
v 113.1752 495.9893 204.0263
v 122.5000 479.4000 220.8365
v 212.1762 479.4000 127.5000
v 226.3505 495.9893 0.0000
v 196.0253 495.9893 117.7946
v 245.0000 479.4000 0.0000
v 196.0253 495.9893 117.7946
v 212.1762 479.4000 127.5000
v 245.0000 479.4000 0.0000
v 196.0253 495.9893 -117.7946
v 226.3505 495.9893 0.0000
v 212.1762 479.4000 -127.5000
v 226.3505 495.9893 0.0000
v 245.0000 479.4000 0.0000
v 212.1762 479.4000 -127.5000
v 113.1752 495.9893 -204.0263
v 196.0253 495.9893 -117.7946
v 122.5000 479.4000 -220.8365
v 196.0253 495.9893 -117.7946
v 212.1762 479.4000 -127.5000
v 122.5000 479.4000 -220.8365
v 0.0000 495.9893 -235.5893
v 113.1752 495.9893 -204.0263
v 0.0000 479.4000 -255.0000
v 113.1752 495.9893 -204.0263
v 122.5000 479.4000 -220.8365
v 0.0000 479.4000 -255.0000
v -113.1752 495.9893 -204.0263
v 0.0000 495.9893 -235.5893
v -122.5000 479.4000 -220.8365
v 0.0000 495.9893 -235.5893
v 0.0000 479.4000 -255.0000
v -122.5000 479.4000 -220.8365
v -196.0253 495.9893 -117.7946
v -113.1752 495.9893 -204.0263
v -212.1762 479.4000 -127.5000
v -113.1752 495.9893 -204.0263
v -122.5000 479.4000 -220.8365
v -212.1762 479.4000 -127.5000
v -226.3505 495.9893 -0.0000
v -196.0253 495.9893 -117.7946
v -245.0000 479.4000 -0.0000
v -196.0253 495.9893 -117.7946
v -212.1762 479.4000 -127.5000
v -245.0000 479.4000 -0.0000
v -212.1762 479.4000 127.5000
v -245.0000 479.4000 0.0000
v -196.0253 462.8107 117.7946
v -245.0000 479.4000 0.0000
v -226.3505 462.8107 0.0000
v -196.0253 462.8107 117.7946
v -122.5000 479.4000 220.8365
v -212.1762 479.4000 127.5000
v -113.1752 462.8107 204.0263
v -212.1762 479.4000 127.5000
v -196.0253 462.8107 117.7946
v -113.1752 462.8107 204.0263
v -0.0000 479.4000 255.0000
v -122.5000 479.4000 220.8365
v -0.0000 462.8107 235.5893
v -122.5000 479.4000 220.8365
v -113.1752 462.8107 204.0263
v -0.0000 462.8107 235.5893
v 122.5000 479.4000 220.8365
v -0.0000 479.4000 255.0000
v 113.1752 462.8107 204.0263
v -0.0000 479.4000 255.0000
v -0.0000 462.8107 235.5893
v 113.1752 462.8107 204.0263
v 212.1762 479.4000 127.5000
v 122.5000 479.4000 220.8365
v 196.0253 462.8107 117.7946
v 122.5000 479.4000 220.8365
v 113.1752 462.8107 204.0263
v 196.0253 462.8107 117.7946
v 245.0000 479.4000 0.0000
v 212.1762 479.4000 127.5000
v 226.3505 462.8107 0.0000
v 212.1762 479.4000 127.5000
v 196.0253 462.8107 117.7946
v 226.3505 462.8107 0.0000
v 212.1762 479.4000 -127.5000
v 245.0000 479.4000 0.0000
v 196.0253 462.8107 -117.7946
v 245.0000 479.4000 0.0000
v 226.3505 462.8107 0.0000
v 196.0253 462.8107 -117.7946
v 122.5000 479.4000 -220.8365
v 212.1762 479.4000 -127.5000
v 113.1752 462.8107 -204.0263
v 212.1762 479.4000 -127.5000
v 196.0253 462.8107 -117.7946
v 113.1752 462.8107 -204.0263
v 0.0000 479.4000 -255.0000
v 122.5000 479.4000 -220.8365
v 0.0000 462.8107 -235.5893
v 122.5000 479.4000 -220.8365
v 113.1752 462.8107 -204.0263
v 0.0000 462.8107 -235.5893
v -122.5000 479.4000 -220.8365
v 0.0000 479.4000 -255.0000
v -113.1752 462.8107 -204.0263
v 0.0000 479.4000 -255.0000
v 0.0000 462.8107 -235.5893
v -113.1752 462.8107 -204.0263
v -212.1762 479.4000 -127.5000
v -122.5000 479.4000 -220.8365
v -196.0253 462.8107 -117.7946
v -122.5000 479.4000 -220.8365
v -113.1752 462.8107 -204.0263
v -196.0253 462.8107 -117.7946
v -245.0000 479.4000 -0.0000
v -212.1762 479.4000 -127.5000
v -226.3505 462.8107 -0.0000
v -212.1762 479.4000 -127.5000
v -196.0253 462.8107 -117.7946
v -226.3505 462.8107 -0.0000
v -196.0253 462.8107 117.7946
v -226.3505 462.8107 0.0000
v -150.0313 448.7469 90.1561
v -226.3505 462.8107 0.0000
v -173.2412 448.7469 0.0000
v -150.0313 448.7469 90.1561
v -113.1752 462.8107 204.0263
v -196.0253 462.8107 117.7946
v -86.6206 448.7469 156.1550
v -196.0253 462.8107 117.7946
v -150.0313 448.7469 90.1561
v -86.6206 448.7469 156.1550
v -0.0000 462.8107 235.5893
v -113.1752 462.8107 204.0263
v -0.0000 448.7469 180.3122
v -113.1752 462.8107 204.0263
v -86.6206 448.7469 156.1550
v -0.0000 448.7469 180.3122
v 113.1752 462.8107 204.0263
v -0.0000 462.8107 235.5893
v 86.6206 448.7469 156.1550
v -0.0000 462.8107 235.5893
v -0.0000 448.7469 180.3122
v 86.6206 448.7469 156.1550
v 196.0253 462.8107 117.7946
v 113.1752 462.8107 204.0263
v 150.0313 448.7469 90.1561
v 113.1752 462.8107 204.0263
v 86.6206 448.7469 156.1550
v 150.0313 448.7469 90.1561
v 226.3505 462.8107 0.0000
v 196.0253 462.8107 117.7946
v 173.2412 448.7469 0.0000
v 196.0253 462.8107 117.7946
v 150.0313 448.7469 90.1561
v 173.2412 448.7469 0.0000
v 196.0253 462.8107 -117.7946
v 226.3505 462.8107 0.0000
v 150.0313 448.7469 -90.1561
v 226.3505 462.8107 0.0000
v 173.2412 448.7469 0.0000
v 150.0313 448.7469 -90.1561
v 113.1752 462.8107 -204.0263
v 196.0253 462.8107 -117.7946
v 86.6206 448.7469 -156.1550
v 196.0253 462.8107 -117.7946
v 150.0313 448.7469 -90.1561
v 86.6206 448.7469 -156.1550
v 0.0000 462.8107 -235.5893
v 113.1752 462.8107 -204.0263
v 0.0000 448.7469 -180.3122
v 113.1752 462.8107 -204.0263
v 86.6206 448.7469 -156.1550
v 0.0000 448.7469 -180.3122
v -113.1752 462.8107 -204.0263
v 0.0000 462.8107 -235.5893
v -86.6206 448.7469 -156.1550
v 0.0000 462.8107 -235.5893
v 0.0000 448.7469 -180.3122
v -86.6206 448.7469 -156.1550
v -196.0253 462.8107 -117.7946
v -113.1752 462.8107 -204.0263
v -150.0313 448.7469 -90.1561
v -113.1752 462.8107 -204.0263
v -86.6206 448.7469 -156.1550
v -150.0313 448.7469 -90.1561
v -226.3505 462.8107 -0.0000
v -196.0253 462.8107 -117.7946
v -173.2412 448.7469 -0.0000
v -196.0253 462.8107 -117.7946
v -150.0313 448.7469 -90.1561
v -173.2412 448.7469 -0.0000
v -150.0313 448.7469 90.1561
v -173.2412 448.7469 0.0000
v -81.1963 439.3498 48.7921
v -173.2412 448.7469 0.0000
v -93.7574 439.3498 0.0000
v -81.1963 439.3498 48.7921
v -86.6206 448.7469 156.1550
v -150.0313 448.7469 90.1561
v -46.8787 439.3498 84.5105
v -150.0313 448.7469 90.1561
v -81.1963 439.3498 48.7921
v -46.8787 439.3498 84.5105
v -0.0000 448.7469 180.3122
v -86.6206 448.7469 156.1550
v -0.0000 439.3498 97.5843
v -86.6206 448.7469 156.1550
v -46.8787 439.3498 84.5105
v -0.0000 439.3498 97.5843
v 86.6206 448.7469 156.1550
v -0.0000 448.7469 180.3122
v 46.8787 439.3498 84.5105
v -0.0000 448.7469 180.3122
v -0.0000 439.3498 97.5843
v 46.8787 439.3498 84.5105
v 150.0313 448.7469 90.1561
v 86.6206 448.7469 156.1550
v 81.1963 439.3498 48.7921
v 86.6206 448.7469 156.1550
v 46.8787 439.3498 84.5105
v 81.1963 439.3498 48.7921
v 173.2412 448.7469 0.0000
v 150.0313 448.7469 90.1561
v 93.7574 439.3498 0.0000
v 150.0313 448.7469 90.1561
v 81.1963 439.3498 48.7921
v 93.7574 439.3498 0.0000
v 150.0313 448.7469 -90.1561
v 173.2412 448.7469 0.0000
v 81.1963 439.3498 -48.7921
v 173.2412 448.7469 0.0000
v 93.7574 439.3498 0.0000
v 81.1963 439.3498 -48.7921
v 86.6206 448.7469 -156.1550
v 150.0313 448.7469 -90.1561
v 46.8787 439.3498 -84.5105
v 150.0313 448.7469 -90.1561
v 81.1963 439.3498 -48.7921
v 46.8787 439.3498 -84.5105
v 0.0000 448.7469 -180.3122
v 86.6206 448.7469 -156.1550
v 0.0000 439.3498 -97.5843
v 86.6206 448.7469 -156.1550
v 46.8787 439.3498 -84.5105
v 0.0000 439.3498 -97.5843
v -86.6206 448.7469 -156.1550
v 0.0000 448.7469 -180.3122
v -46.8787 439.3498 -84.5105
v 0.0000 448.7469 -180.3122
v 0.0000 439.3498 -97.5843
v -46.8787 439.3498 -84.5105
v -150.0313 448.7469 -90.1561
v -86.6206 448.7469 -156.1550
v -81.1963 439.3498 -48.7921
v -86.6206 448.7469 -156.1550
v -46.8787 439.3498 -84.5105
v -81.1963 439.3498 -48.7921
v -173.2412 448.7469 -0.0000
v -150.0313 448.7469 -90.1561
v -93.7574 439.3498 -0.0000
v -150.0313 448.7469 -90.1561
v -81.1963 439.3498 -48.7921
v -93.7574 439.3498 -0.0000
v -81.1963 439.3498 48.7921
v -93.7574 439.3498 0.0000
v -0.0000 436.0500 0.0000
v -46.8787 439.3498 84.5105
v -81.1963 439.3498 48.7921
v -0.0000 436.0500 0.0000
v -0.0000 439.3498 97.5843
v -46.8787 439.3498 84.5105
v -0.0000 436.0500 0.0000
v 46.8787 439.3498 84.5105
v -0.0000 439.3498 97.5843
v 0.0000 436.0500 0.0000
v 81.1963 439.3498 48.7921
v 46.8787 439.3498 84.5105
v 0.0000 436.0500 0.0000
v 93.7574 439.3498 0.0000
v 81.1963 439.3498 48.7921
v 0.0000 436.0500 0.0000
v 81.1963 439.3498 -48.7921
v 93.7574 439.3498 0.0000
v 0.0000 436.0500 -0.0000
v 46.8787 439.3498 -84.5105
v 81.1963 439.3498 -48.7921
v 0.0000 436.0500 -0.0000
v 0.0000 439.3498 -97.5843
v 46.8787 439.3498 -84.5105
v 0.0000 436.0500 -0.0000
v -46.8787 439.3498 -84.5105
v 0.0000 439.3498 -97.5843
v -0.0000 436.0500 -0.0000
v -81.1963 439.3498 -48.7921
v -46.8787 439.3498 -84.5105
v -0.0000 436.0500 -0.0000
v -93.7574 439.3498 -0.0000
v -81.1963 439.3498 -48.7921
v -0.0000 436.0500 -0.0000
f 1 2 3
f 4 5 6
f 7 8 9
f 10 11 12
f 13 14 15
f 16 17 18
f 19 20 21
f 22 23 24
f 25 26 27
f 28 29 30
f 31 32 33
f 34 35 36
f 37 38 39
f 40 41 42
f 43 44 45
f 46 47 48
f 49 50 51
f 52 53 54
f 55 56 57
f 58 59 60
f 61 62 63
f 64 65 66
f 67 68 69
f 70 71 72
f 73 74 75
f 76 77 78
f 79 80 81
f 82 83 84
f 85 86 87
f 88 89 90
f 91 92 93
f 94 95 96
f 97 98 99
f 100 101 102
f 103 104 105
f 106 107 108
f 109 110 111
f 112 113 114
f 115 116 117
f 118 119 120
f 121 122 123
f 124 125 126
f 127 128 129
f 130 131 132
f 133 134 135
f 136 137 138
f 139 140 141
f 142 143 144
f 145 146 147
f 148 149 150
f 151 152 153
f 154 155 156
f 157 158 159
f 160 161 162
f 163 164 165
f 166 167 168
f 169 170 171
f 172 173 174
f 175 176 177
f 178 179 180
f 181 182 183
f 184 185 186
f 187 188 189
f 190 191 192
f 193 194 195
f 196 197 198
f 199 200 201
f 202 203 204
f 205 206 207
f 208 209 210
f 211 212 213
f 214 215 216
f 217 218 219
f 220 221 222
f 223 224 225
f 226 227 228
f 229 230 231
f 232 233 234
f 235 236 237
f 238 239 240
f 241 242 243
f 244 245 246
f 247 248 249
f 250 251 252
f 253 254 255
f 256 257 258
f 259 260 261
f 262 263 264
f 265 266 267
f 268 269 270
f 271 272 273
f 274 275 276
f 277 278 279
f 280 281 282
f 283 284 285
f 286 287 288
f 289 290 291
f 292 293 294
f 295 296 297
f 298 299 300
f 301 302 303
f 304 305 306
f 307 308 309
f 310 311 312
f 313 314 315
f 316 317 318
f 319 320 321
f 322 323 324
f 325 326 327
f 328 329 330
f 331 332 333
f 334 335 336
f 337 338 339
f 340 341 342
f 343 344 345
f 346 347 348
f 349 350 351
f 352 353 354
f 355 356 357
f 358 359 360
f 361 362 363
f 364 365 366
f 367 368 369
f 370 371 372
f 373 374 375
f 376 377 378
f 379 380 381
f 382 383 384
f 385 386 387
f 388 389 390
f 391 392 393
f 394 395 396
f 397 398 399
f 400 401 402
f 403 404 405
f 406 407 408
f 409 410 411
f 412 413 414
f 415 416 417
f 418 419 420
f 421 422 423
f 424 425 426
f 427 428 429
f 430 431 432
f 433 434 435
f 436 437 438
f 439 440 441
f 442 443 444
f 445 446 447
f 448 449 450
f 451 452 453
f 454 455 456
f 457 458 459
f 460 461 462
f 463 464 465
f 466 467 468
f 469 470 471
f 472 473 474
f 475 476 477
f 478 479 480
f 481 482 483
f 484 485 486
f 487 488 489
f 490 491 492
f 493 494 495
f 496 497 498
f 499 500 501
f 502 503 504
f 505 506 507
f 508 509 510
f 511 512 513
f 514 515 516
f 517 518 519
f 520 521 522
f 523 524 525
f 526 527 528
f 529 530 531
f 532 533 534
f 535 536 537
f 538 539 540
f 541 542 543
f 544 545 546
f 547 548 549
f 550 551 552
f 553 554 555
f 556 557 558
f 559 560 561
f 562 563 564
f 565 566 567
f 568 569 570
f 571 572 573
f 574 575 576
f 577 578 579
f 580 581 582
f 583 584 585
f 586 587 588
f 589 590 591
f 592 593 594
f 595 596 597
f 598 599 600
f 601 602 603
f 604 605 606
f 607 608 609
f 610 611 612
f 613 614 615
f 616 617 618
f 619 620 621
f 622 623 624
f 625 626 627
f 628 629 630
f 631 632 633
f 634 635 636
f 637 638 639
f 640 641 642
f 643 644 645
f 646 647 648
f 649 650 651
f 652 653 654
f 655 656 657
f 658 659 660
f 661 662 663
f 664 665 666
f 667 668 669
f 670 671 672
f 673 674 675
f 676 677 678
f 679 680 681
f 682 683 684
f 685 686 687
f 688 689 690
f 691 692 693
f 694 695 696
f 697 698 699
f 700 701 702
f 703 704 705
f 706 707 708
f 709 710 711
f 712 713 714
f 715 716 717
f 718 719 720
f 721 722 723
f 724 725 726
f 727 728 729
f 730 731 732
f 733 734 735
f 736 737 738
f 739 740 741
f 742 743 744
f 745 746 747
f 748 749 750
f 751 752 753
f 754 755 756
f 757 758 759
f 760 761 762
f 763 764 765
f 766 767 768
f 769 770 771
f 772 773 774
f 775 776 777
f 778 779 780
f 781 782 783
f 784 785 786
f 787 788 789
f 790 791 792
f 793 794 795
f 796 797 798
f 799 800 801
f 802 803 804
f 805 806 807
f 808 809 810
f 811 812 813
f 814 815 816
f 817 818 819
f 820 821 822
f 823 824 825
f 826 827 828
f 829 830 831
f 832 833 834
f 835 836 837
f 838 839 840
f 841 842 843
f 844 845 846
f 847 848 849
f 850 851 852
f 853 854 855
f 856 857 858
f 859 860 861
f 862 863 864
f 865 866 867
f 868 869 870
f 871 872 873
f 874 875 876
f 877 878 879
f 880 881 882
f 883 884 885
f 886 887 888
f 889 890 891
f 892 893 894
f 895 896 897
f 898 899 900
f 901 902 903
f 904 905 906
f 907 908 909
f 910 911 912
f 913 914 915
f 916 917 918
f 919 920 921
f 922 923 924
f 925 926 927
f 928 929 930
f 931 932 933
f 934 935 936
f 937 938 939
f 940 941 942
f 943 944 945
f 946 947 948
f 949 950 951
f 952 953 954
f 955 956 957
f 958 959 960
f 961 962 963
f 964 965 966
f 967 968 969
f 970 971 972
f 973 974 975
f 976 977 978
f 979 980 981
f 982 983 984
f 985 986 987
f 988 989 990
f 991 992 993
f 994 995 996
f 997 998 999
f 1000 1001 1002
f 1003 1004 1005
f 1006 1007 1008
f 1009 1010 1011
f 1012 1013 1014
f 1015 1016 1017
f 1018 1019 1020
f 1021 1022 1023
f 1024 1025 1026
f 1027 1028 1029
f 1030 1031 1032
f 1033 1034 1035
f 1036 1037 1038
f 1039 1040 1041
f 1042 1043 1044
f 1045 1046 1047
f 1048 1049 1050
f 1051 1052 1053
f 1054 1055 1056
f 1057 1058 1059
f 1060 1061 1062
f 1063 1064 1065
f 1066 1067 1068
f 1069 1070 1071
f 1072 1073 1074
f 1075 1076 1077
f 1078 1079 1080
f 1081 1082 1083
f 1084 1085 1086
f 1087 1088 1089
f 1090 1091 1092
f 1093 1094 1095
f 1096 1097 1098
f 1099 1100 1101
f 1102 1103 1104
f 1105 1106 1107
f 1108 1109 1110
f 1111 1112 1113
f 1114 1115 1116
