# MATERIA - Reale CM
# Geometria originale di studio. Unita mm. Non CAD del produttore.
v 1100.0000 506.2500 500.0000
v 1100.0000 478.7500 500.0000
v 1100.0000 506.2500 -500.0000
v 1100.0000 478.7500 500.0000
v 1100.0000 478.7500 -500.0000
v 1100.0000 506.2500 -500.0000
v -1100.0000 506.2500 -500.0000
v -1100.0000 478.7500 -500.0000
v -1100.0000 506.2500 500.0000
v -1100.0000 478.7500 -500.0000
v -1100.0000 478.7500 500.0000
v -1100.0000 506.2500 500.0000
v -1100.0000 506.2500 -500.0000
v -1100.0000 506.2500 500.0000
v 1100.0000 506.2500 -500.0000
v -1100.0000 506.2500 500.0000
v 1100.0000 506.2500 500.0000
v 1100.0000 506.2500 -500.0000
v -1100.0000 478.7500 500.0000
v -1100.0000 478.7500 -500.0000
v 1100.0000 478.7500 500.0000
v -1100.0000 478.7500 -500.0000
v 1100.0000 478.7500 -500.0000
v 1100.0000 478.7500 500.0000
v -1100.0000 506.2500 500.0000
v -1100.0000 478.7500 500.0000
v 1100.0000 506.2500 500.0000
v -1100.0000 478.7500 500.0000
v 1100.0000 478.7500 500.0000
v 1100.0000 506.2500 500.0000
v 1100.0000 506.2500 -500.0000
v 1100.0000 478.7500 -500.0000
v -1100.0000 506.2500 -500.0000
v 1100.0000 478.7500 -500.0000
v -1100.0000 478.7500 -500.0000
v -1100.0000 506.2500 -500.0000
v -590.8819 594.0273 -83.8274
v -986.8819 -80.9727 -433.8274
v -575.8851 588.2106 -89.5772
v -986.8819 -80.9727 -433.8274
v -971.8851 -86.7894 -439.5772
v -575.8851 588.2106 -89.5772
v -575.8851 588.2106 -89.5772
v -971.8851 -86.7894 -439.5772
v -563.9738 587.5624 -101.8041
v -971.8851 -86.7894 -439.5772
v -959.9738 -87.4376 -451.8041
v -563.9738 587.5624 -101.8041
v -563.9738 587.5624 -101.8041
v -959.9738 -87.4376 -451.8041
v -558.3395 592.2566 -117.2319
v -959.9738 -87.4376 -451.8041
v -954.3395 -82.7434 -467.2319
v -558.3395 592.2566 -117.2319
v -558.3395 592.2566 -117.2319
v -954.3395 -82.7434 -467.2319
v -560.4919 601.0352 -131.7267
v -954.3395 -82.7434 -467.2319
v -956.4919 -73.9648 -481.7267
v -560.4919 601.0352 -131.7267
v -560.4919 601.0352 -131.7267
v -956.4919 -73.9648 -481.7267
v -569.8544 611.5460 -141.4047
v -956.4919 -73.9648 -481.7267
v -965.8544 -63.4540 -491.4047
v -569.8544 611.5460 -141.4047
v -569.8544 611.5460 -141.4047
v -965.8544 -63.4540 -491.4047
v -583.9181 620.9727 -143.6726
v -965.8544 -63.4540 -491.4047
v -979.9181 -54.0273 -493.6726
v -583.9181 620.9727 -143.6726
v -583.9181 620.9727 -143.6726
v -979.9181 -54.0273 -493.6726
v -598.9149 626.7894 -137.9228
v -979.9181 -54.0273 -493.6726
v -994.9149 -48.2106 -487.9228
v -598.9149 626.7894 -137.9228
v -598.9149 626.7894 -137.9228
v -994.9149 -48.2106 -487.9228
v -610.8262 627.4376 -125.6959
v -994.9149 -48.2106 -487.9228
v -1006.8262 -47.5624 -475.6959
v -610.8262 627.4376 -125.6959
v -610.8262 627.4376 -125.6959
v -1006.8262 -47.5624 -475.6959
v -616.4605 622.7434 -110.2681
v -1006.8262 -47.5624 -475.6959
v -1012.4605 -52.2566 -460.2681
v -616.4605 622.7434 -110.2681
v -616.4605 622.7434 -110.2681
v -1012.4605 -52.2566 -460.2681
v -614.3081 613.9648 -95.7733
v -1012.4605 -52.2566 -460.2681
v -1010.3081 -61.0352 -445.7733
v -614.3081 613.9648 -95.7733
v -614.3081 613.9648 -95.7733
v -1010.3081 -61.0352 -445.7733
v -604.9456 603.4540 -86.0953
v -1010.3081 -61.0352 -445.7733
v -1000.9456 -71.5460 -436.0953
v -604.9456 603.4540 -86.0953
v -604.9456 603.4540 -86.0953
v -1000.9456 -71.5460 -436.0953
v -590.8819 594.0273 -83.8274
v -1000.9456 -71.5460 -436.0953
v -986.8819 -80.9727 -433.8274
v -590.8819 594.0273 -83.8274
v -590.8819 594.0273 -83.8274
v -575.8851 588.2106 -89.5772
v -587.4000 607.5000 -113.7500
v -575.8851 588.2106 -89.5772
v -563.9738 587.5624 -101.8041
v -587.4000 607.5000 -113.7500
v -563.9738 587.5624 -101.8041
v -558.3395 592.2566 -117.2319
v -587.4000 607.5000 -113.7500
v -558.3395 592.2566 -117.2319
v -560.4919 601.0352 -131.7267
v -587.4000 607.5000 -113.7500
v -560.4919 601.0352 -131.7267
v -569.8544 611.5460 -141.4047
v -587.4000 607.5000 -113.7500
v -569.8544 611.5460 -141.4047
v -583.9181 620.9727 -143.6726
v -587.4000 607.5000 -113.7500
v -583.9181 620.9727 -143.6726
v -598.9149 626.7894 -137.9228
v -587.4000 607.5000 -113.7500
v -598.9149 626.7894 -137.9228
v -610.8262 627.4376 -125.6959
v -587.4000 607.5000 -113.7500
v -610.8262 627.4376 -125.6959
v -616.4605 622.7434 -110.2681
v -587.4000 607.5000 -113.7500
v -616.4605 622.7434 -110.2681
v -614.3081 613.9648 -95.7733
v -587.4000 607.5000 -113.7500
v -614.3081 613.9648 -95.7733
v -604.9456 603.4540 -86.0953
v -587.4000 607.5000 -113.7500
v -604.9456 603.4540 -86.0953
v -590.8819 594.0273 -83.8274
v -587.4000 607.5000 -113.7500
v -971.8851 -86.7894 -439.5772
v -986.8819 -80.9727 -433.8274
v -983.4000 -67.5000 -463.7500
v -959.9738 -87.4376 -451.8041
v -971.8851 -86.7894 -439.5772
v -983.4000 -67.5000 -463.7500
v -954.3395 -82.7434 -467.2319
v -959.9738 -87.4376 -451.8041
v -983.4000 -67.5000 -463.7500
v -956.4919 -73.9648 -481.7267
v -954.3395 -82.7434 -467.2319
v -983.4000 -67.5000 -463.7500
v -965.8544 -63.4540 -491.4047
v -956.4919 -73.9648 -481.7267
v -983.4000 -67.5000 -463.7500
v -979.9181 -54.0273 -493.6726
v -965.8544 -63.4540 -491.4047
v -983.4000 -67.5000 -463.7500
v -994.9149 -48.2106 -487.9228
v -979.9181 -54.0273 -493.6726
v -983.4000 -67.5000 -463.7500
v -1006.8262 -47.5624 -475.6959
v -994.9149 -48.2106 -487.9228
v -983.4000 -67.5000 -463.7500
v -1012.4605 -52.2566 -460.2681
v -1006.8262 -47.5624 -475.6959
v -983.4000 -67.5000 -463.7500
v -1010.3081 -61.0352 -445.7733
v -1012.4605 -52.2566 -460.2681
v -983.4000 -67.5000 -463.7500
v -1000.9456 -71.5460 -436.0953
v -1010.3081 -61.0352 -445.7733
v -983.4000 -67.5000 -463.7500
v -986.8819 -80.9727 -433.8274
v -1000.9456 -71.5460 -436.0953
v -983.4000 -67.5000 -463.7500
v -583.9181 755.9727 143.6726
v -979.9181 80.9727 493.6726
v -569.8544 746.5460 141.4047
v -979.9181 80.9727 493.6726
v -965.8544 71.5460 491.4047
v -569.8544 746.5460 141.4047
v -569.8544 746.5460 141.4047
v -965.8544 71.5460 491.4047
v -560.4919 736.0352 131.7267
v -965.8544 71.5460 491.4047
v -956.4919 61.0352 481.7267
v -560.4919 736.0352 131.7267
v -560.4919 736.0352 131.7267
v -956.4919 61.0352 481.7267
v -558.3395 727.2566 117.2319
v -956.4919 61.0352 481.7267
v -954.3395 52.2566 467.2319
v -558.3395 727.2566 117.2319
v -558.3395 727.2566 117.2319
v -954.3395 52.2566 467.2319
v -563.9738 722.5624 101.8041
v -954.3395 52.2566 467.2319
v -959.9738 47.5624 451.8041
v -563.9738 722.5624 101.8041
v -563.9738 722.5624 101.8041
v -959.9738 47.5624 451.8041
v -575.8851 723.2106 89.5772
v -959.9738 47.5624 451.8041
v -971.8851 48.2106 439.5772
v -575.8851 723.2106 89.5772
v -575.8851 723.2106 89.5772
v -971.8851 48.2106 439.5772
v -590.8819 729.0273 83.8274
v -971.8851 48.2106 439.5772
v -986.8819 54.0273 433.8274
v -590.8819 729.0273 83.8274
v -590.8819 729.0273 83.8274
v -986.8819 54.0273 433.8274
v -604.9456 738.4540 86.0953
v -986.8819 54.0273 433.8274
v -1000.9456 63.4540 436.0953
v -604.9456 738.4540 86.0953
v -604.9456 738.4540 86.0953
v -1000.9456 63.4540 436.0953
v -614.3081 748.9648 95.7733
v -1000.9456 63.4540 436.0953
v -1010.3081 73.9648 445.7733
v -614.3081 748.9648 95.7733
v -614.3081 748.9648 95.7733
v -1010.3081 73.9648 445.7733
v -616.4605 757.7434 110.2681
v -1010.3081 73.9648 445.7733
v -1012.4605 82.7434 460.2681
v -616.4605 757.7434 110.2681
v -616.4605 757.7434 110.2681
v -1012.4605 82.7434 460.2681
v -610.8262 762.4376 125.6959
v -1012.4605 82.7434 460.2681
v -1006.8262 87.4376 475.6959
v -610.8262 762.4376 125.6959
v -610.8262 762.4376 125.6959
v -1006.8262 87.4376 475.6959
v -598.9149 761.7894 137.9228
v -1006.8262 87.4376 475.6959
v -994.9149 86.7894 487.9228
v -598.9149 761.7894 137.9228
v -598.9149 761.7894 137.9228
v -994.9149 86.7894 487.9228
v -583.9181 755.9727 143.6726
v -994.9149 86.7894 487.9228
v -979.9181 80.9727 493.6726
v -583.9181 755.9727 143.6726
v -583.9181 755.9727 143.6726
v -569.8544 746.5460 141.4047
v -587.4000 742.5000 113.7500
v -569.8544 746.5460 141.4047
v -560.4919 736.0352 131.7267
v -587.4000 742.5000 113.7500
v -560.4919 736.0352 131.7267
v -558.3395 727.2566 117.2319
v -587.4000 742.5000 113.7500
v -558.3395 727.2566 117.2319
v -563.9738 722.5624 101.8041
v -587.4000 742.5000 113.7500
v -563.9738 722.5624 101.8041
v -575.8851 723.2106 89.5772
v -587.4000 742.5000 113.7500
v -575.8851 723.2106 89.5772
v -590.8819 729.0273 83.8274
v -587.4000 742.5000 113.7500
v -590.8819 729.0273 83.8274
v -604.9456 738.4540 86.0953
v -587.4000 742.5000 113.7500
v -604.9456 738.4540 86.0953
v -614.3081 748.9648 95.7733
v -587.4000 742.5000 113.7500
v -614.3081 748.9648 95.7733
v -616.4605 757.7434 110.2681
v -587.4000 742.5000 113.7500
v -616.4605 757.7434 110.2681
v -610.8262 762.4376 125.6959
v -587.4000 742.5000 113.7500
v -610.8262 762.4376 125.6959
v -598.9149 761.7894 137.9228
v -587.4000 742.5000 113.7500
v -598.9149 761.7894 137.9228
v -583.9181 755.9727 143.6726
v -587.4000 742.5000 113.7500
v -965.8544 71.5460 491.4047
v -979.9181 80.9727 493.6726
v -983.4000 67.5000 463.7500
v -956.4919 61.0352 481.7267
v -965.8544 71.5460 491.4047
v -983.4000 67.5000 463.7500
v -954.3395 52.2566 467.2319
v -956.4919 61.0352 481.7267
v -983.4000 67.5000 463.7500
v -959.9738 47.5624 451.8041
v -954.3395 52.2566 467.2319
v -983.4000 67.5000 463.7500
v -971.8851 48.2106 439.5772
v -959.9738 47.5624 451.8041
v -983.4000 67.5000 463.7500
v -986.8819 54.0273 433.8274
v -971.8851 48.2106 439.5772
v -983.4000 67.5000 463.7500
v -1000.9456 63.4540 436.0953
v -986.8819 54.0273 433.8274
v -983.4000 67.5000 463.7500
v -1010.3081 73.9648 445.7733
v -1000.9456 63.4540 436.0953
v -983.4000 67.5000 463.7500
v -1012.4605 82.7434 460.2681
v -1010.3081 73.9648 445.7733
v -983.4000 67.5000 463.7500
v -1006.8262 87.4376 475.6959
v -1012.4605 82.7434 460.2681
v -983.4000 67.5000 463.7500
v -994.9149 86.7894 487.9228
v -1006.8262 87.4376 475.6959
v -983.4000 67.5000 463.7500
v -979.9181 80.9727 493.6726
v -994.9149 86.7894 487.9228
v -983.4000 67.5000 463.7500
v -1122.0000 405.5000 350.0000
v -1122.0000 405.5000 -350.0000
v -1111.0000 408.4474 350.0000
v -1122.0000 405.5000 -350.0000
v -1111.0000 408.4474 -350.0000
v -1111.0000 408.4474 350.0000
v -1111.0000 408.4474 350.0000
v -1111.0000 408.4474 -350.0000
v -1102.9474 416.5000 350.0000
v -1111.0000 408.4474 -350.0000
v -1102.9474 416.5000 -350.0000
v -1102.9474 416.5000 350.0000
v -1102.9474 416.5000 350.0000
v -1102.9474 416.5000 -350.0000
v -1100.0000 427.5000 350.0000
v -1102.9474 416.5000 -350.0000
v -1100.0000 427.5000 -350.0000
v -1100.0000 427.5000 350.0000
v -1100.0000 427.5000 350.0000
v -1100.0000 427.5000 -350.0000
v -1102.9474 438.5000 350.0000
v -1100.0000 427.5000 -350.0000
v -1102.9474 438.5000 -350.0000
v -1102.9474 438.5000 350.0000
v -1102.9474 438.5000 350.0000
v -1102.9474 438.5000 -350.0000
v -1111.0000 446.5526 350.0000
v -1102.9474 438.5000 -350.0000
v -1111.0000 446.5526 -350.0000
v -1111.0000 446.5526 350.0000
v -1111.0000 446.5526 350.0000
v -1111.0000 446.5526 -350.0000
v -1122.0000 449.5000 350.0000
v -1111.0000 446.5526 -350.0000
v -1122.0000 449.5000 -350.0000
v -1122.0000 449.5000 350.0000
v -1122.0000 449.5000 350.0000
v -1122.0000 449.5000 -350.0000
v -1133.0000 446.5526 350.0000
v -1122.0000 449.5000 -350.0000
v -1133.0000 446.5526 -350.0000
v -1133.0000 446.5526 350.0000
v -1133.0000 446.5526 350.0000
v -1133.0000 446.5526 -350.0000
v -1141.0526 438.5000 350.0000
v -1133.0000 446.5526 -350.0000
v -1141.0526 438.5000 -350.0000
v -1141.0526 438.5000 350.0000
v -1141.0526 438.5000 350.0000
v -1141.0526 438.5000 -350.0000
v -1144.0000 427.5000 350.0000
v -1141.0526 438.5000 -350.0000
v -1144.0000 427.5000 -350.0000
v -1144.0000 427.5000 350.0000
v -1144.0000 427.5000 350.0000
v -1144.0000 427.5000 -350.0000
v -1141.0526 416.5000 350.0000
v -1144.0000 427.5000 -350.0000
v -1141.0526 416.5000 -350.0000
v -1141.0526 416.5000 350.0000
v -1141.0526 416.5000 350.0000
v -1141.0526 416.5000 -350.0000
v -1133.0000 408.4474 350.0000
v -1141.0526 416.5000 -350.0000
v -1133.0000 408.4474 -350.0000
v -1133.0000 408.4474 350.0000
v -1133.0000 408.4474 350.0000
v -1133.0000 408.4474 -350.0000
v -1122.0000 405.5000 350.0000
v -1133.0000 408.4474 -350.0000
v -1122.0000 405.5000 -350.0000
v -1122.0000 405.5000 350.0000
v -1122.0000 405.5000 350.0000
v -1111.0000 408.4474 350.0000
v -1122.0000 427.5000 350.0000
v -1111.0000 408.4474 350.0000
v -1102.9474 416.5000 350.0000
v -1122.0000 427.5000 350.0000
v -1102.9474 416.5000 350.0000
v -1100.0000 427.5000 350.0000
v -1122.0000 427.5000 350.0000
v -1100.0000 427.5000 350.0000
v -1102.9474 438.5000 350.0000
v -1122.0000 427.5000 350.0000
v -1102.9474 438.5000 350.0000
v -1111.0000 446.5526 350.0000
v -1122.0000 427.5000 350.0000
v -1111.0000 446.5526 350.0000
v -1122.0000 449.5000 350.0000
v -1122.0000 427.5000 350.0000
v -1122.0000 449.5000 350.0000
v -1133.0000 446.5526 350.0000
v -1122.0000 427.5000 350.0000
v -1133.0000 446.5526 350.0000
v -1141.0526 438.5000 350.0000
v -1122.0000 427.5000 350.0000
v -1141.0526 438.5000 350.0000
v -1144.0000 427.5000 350.0000
v -1122.0000 427.5000 350.0000
v -1144.0000 427.5000 350.0000
v -1141.0526 416.5000 350.0000
v -1122.0000 427.5000 350.0000
v -1141.0526 416.5000 350.0000
v -1133.0000 408.4474 350.0000
v -1122.0000 427.5000 350.0000
v -1133.0000 408.4474 350.0000
v -1122.0000 405.5000 350.0000
v -1122.0000 427.5000 350.0000
v -1111.0000 408.4474 -350.0000
v -1122.0000 405.5000 -350.0000
v -1122.0000 427.5000 -350.0000
v -1102.9474 416.5000 -350.0000
v -1111.0000 408.4474 -350.0000
v -1122.0000 427.5000 -350.0000
v -1100.0000 427.5000 -350.0000
v -1102.9474 416.5000 -350.0000
v -1122.0000 427.5000 -350.0000
v -1102.9474 438.5000 -350.0000
v -1100.0000 427.5000 -350.0000
v -1122.0000 427.5000 -350.0000
v -1111.0000 446.5526 -350.0000
v -1102.9474 438.5000 -350.0000
v -1122.0000 427.5000 -350.0000
v -1122.0000 449.5000 -350.0000
v -1111.0000 446.5526 -350.0000
v -1122.0000 427.5000 -350.0000
v -1133.0000 446.5526 -350.0000
v -1122.0000 449.5000 -350.0000
v -1122.0000 427.5000 -350.0000
v -1141.0526 438.5000 -350.0000
v -1133.0000 446.5526 -350.0000
v -1122.0000 427.5000 -350.0000
v -1144.0000 427.5000 -350.0000
v -1141.0526 438.5000 -350.0000
v -1122.0000 427.5000 -350.0000
v -1141.0526 416.5000 -350.0000
v -1144.0000 427.5000 -350.0000
v -1122.0000 427.5000 -350.0000
v -1133.0000 408.4474 -350.0000
v -1141.0526 416.5000 -350.0000
v -1122.0000 427.5000 -350.0000
v -1122.0000 405.5000 -350.0000
v -1133.0000 408.4474 -350.0000
v -1122.0000 427.5000 -350.0000
v 590.8819 459.0273 -83.8274
v 986.8819 -215.9727 -433.8274
v 604.9456 468.4540 -86.0953
v 986.8819 -215.9727 -433.8274
v 1000.9456 -206.5460 -436.0953
v 604.9456 468.4540 -86.0953
v 604.9456 468.4540 -86.0953
v 1000.9456 -206.5460 -436.0953
v 614.3081 478.9648 -95.7733
v 1000.9456 -206.5460 -436.0953
v 1010.3081 -196.0352 -445.7733
v 614.3081 478.9648 -95.7733
v 614.3081 478.9648 -95.7733
v 1010.3081 -196.0352 -445.7733
v 616.4605 487.7434 -110.2681
v 1010.3081 -196.0352 -445.7733
v 1012.4605 -187.2566 -460.2681
v 616.4605 487.7434 -110.2681
v 616.4605 487.7434 -110.2681
v 1012.4605 -187.2566 -460.2681
v 610.8262 492.4376 -125.6959
v 1012.4605 -187.2566 -460.2681
v 1006.8262 -182.5624 -475.6959
v 610.8262 492.4376 -125.6959
v 610.8262 492.4376 -125.6959
v 1006.8262 -182.5624 -475.6959
v 598.9149 491.7894 -137.9228
v 1006.8262 -182.5624 -475.6959
v 994.9149 -183.2106 -487.9228
v 598.9149 491.7894 -137.9228
v 598.9149 491.7894 -137.9228
v 994.9149 -183.2106 -487.9228
v 583.9181 485.9727 -143.6726
v 994.9149 -183.2106 -487.9228
v 979.9181 -189.0273 -493.6726
v 583.9181 485.9727 -143.6726
v 583.9181 485.9727 -143.6726
v 979.9181 -189.0273 -493.6726
v 569.8544 476.5460 -141.4047
v 979.9181 -189.0273 -493.6726
v 965.8544 -198.4540 -491.4047
v 569.8544 476.5460 -141.4047
v 569.8544 476.5460 -141.4047
v 965.8544 -198.4540 -491.4047
v 560.4919 466.0352 -131.7267
v 965.8544 -198.4540 -491.4047
v 956.4919 -208.9648 -481.7267
v 560.4919 466.0352 -131.7267
v 560.4919 466.0352 -131.7267
v 956.4919 -208.9648 -481.7267
v 558.3395 457.2566 -117.2319
v 956.4919 -208.9648 -481.7267
v 954.3395 -217.7434 -467.2319
v 558.3395 457.2566 -117.2319
v 558.3395 457.2566 -117.2319
v 954.3395 -217.7434 -467.2319
v 563.9738 452.5624 -101.8041
v 954.3395 -217.7434 -467.2319
v 959.9738 -222.4376 -451.8041
v 563.9738 452.5624 -101.8041
v 563.9738 452.5624 -101.8041
v 959.9738 -222.4376 -451.8041
v 575.8851 453.2106 -89.5772
v 959.9738 -222.4376 -451.8041
v 971.8851 -221.7894 -439.5772
v 575.8851 453.2106 -89.5772
v 575.8851 453.2106 -89.5772
v 971.8851 -221.7894 -439.5772
v 590.8819 459.0273 -83.8274
v 971.8851 -221.7894 -439.5772
v 986.8819 -215.9727 -433.8274
v 590.8819 459.0273 -83.8274
v 590.8819 459.0273 -83.8274
v 604.9456 468.4540 -86.0953
v 587.4000 472.5000 -113.7500
v 604.9456 468.4540 -86.0953
v 614.3081 478.9648 -95.7733
v 587.4000 472.5000 -113.7500
v 614.3081 478.9648 -95.7733
v 616.4605 487.7434 -110.2681
v 587.4000 472.5000 -113.7500
v 616.4605 487.7434 -110.2681
v 610.8262 492.4376 -125.6959
v 587.4000 472.5000 -113.7500
v 610.8262 492.4376 -125.6959
v 598.9149 491.7894 -137.9228
v 587.4000 472.5000 -113.7500
v 598.9149 491.7894 -137.9228
v 583.9181 485.9727 -143.6726
v 587.4000 472.5000 -113.7500
v 583.9181 485.9727 -143.6726
v 569.8544 476.5460 -141.4047
v 587.4000 472.5000 -113.7500
v 569.8544 476.5460 -141.4047
v 560.4919 466.0352 -131.7267
v 587.4000 472.5000 -113.7500
v 560.4919 466.0352 -131.7267
v 558.3395 457.2566 -117.2319
v 587.4000 472.5000 -113.7500
v 558.3395 457.2566 -117.2319
v 563.9738 452.5624 -101.8041
v 587.4000 472.5000 -113.7500
v 563.9738 452.5624 -101.8041
v 575.8851 453.2106 -89.5772
v 587.4000 472.5000 -113.7500
v 575.8851 453.2106 -89.5772
v 590.8819 459.0273 -83.8274
v 587.4000 472.5000 -113.7500
v 1000.9456 -206.5460 -436.0953
v 986.8819 -215.9727 -433.8274
v 983.4000 -202.5000 -463.7500
v 1010.3081 -196.0352 -445.7733
v 1000.9456 -206.5460 -436.0953
v 983.4000 -202.5000 -463.7500
v 1012.4605 -187.2566 -460.2681
v 1010.3081 -196.0352 -445.7733
v 983.4000 -202.5000 -463.7500
v 1006.8262 -182.5624 -475.6959
v 1012.4605 -187.2566 -460.2681
v 983.4000 -202.5000 -463.7500
v 994.9149 -183.2106 -487.9228
v 1006.8262 -182.5624 -475.6959
v 983.4000 -202.5000 -463.7500
v 979.9181 -189.0273 -493.6726
v 994.9149 -183.2106 -487.9228
v 983.4000 -202.5000 -463.7500
v 965.8544 -198.4540 -491.4047
v 979.9181 -189.0273 -493.6726
v 983.4000 -202.5000 -463.7500
v 956.4919 -208.9648 -481.7267
v 965.8544 -198.4540 -491.4047
v 983.4000 -202.5000 -463.7500
v 954.3395 -217.7434 -467.2319
v 956.4919 -208.9648 -481.7267
v 983.4000 -202.5000 -463.7500
v 959.9738 -222.4376 -451.8041
v 954.3395 -217.7434 -467.2319
v 983.4000 -202.5000 -463.7500
v 971.8851 -221.7894 -439.5772
v 959.9738 -222.4376 -451.8041
v 983.4000 -202.5000 -463.7500
v 986.8819 -215.9727 -433.8274
v 971.8851 -221.7894 -439.5772
v 983.4000 -202.5000 -463.7500
v 583.9181 620.9727 143.6726
v 979.9181 -54.0273 493.6726
v 598.9149 626.7894 137.9228
v 979.9181 -54.0273 493.6726
v 994.9149 -48.2106 487.9228
v 598.9149 626.7894 137.9228
v 598.9149 626.7894 137.9228
v 994.9149 -48.2106 487.9228
v 610.8262 627.4376 125.6959
v 994.9149 -48.2106 487.9228
v 1006.8262 -47.5624 475.6959
v 610.8262 627.4376 125.6959
v 610.8262 627.4376 125.6959
v 1006.8262 -47.5624 475.6959
v 616.4605 622.7434 110.2681
v 1006.8262 -47.5624 475.6959
v 1012.4605 -52.2566 460.2681
v 616.4605 622.7434 110.2681
v 616.4605 622.7434 110.2681
v 1012.4605 -52.2566 460.2681
v 614.3081 613.9648 95.7733
v 1012.4605 -52.2566 460.2681
v 1010.3081 -61.0352 445.7733
v 614.3081 613.9648 95.7733
v 614.3081 613.9648 95.7733
v 1010.3081 -61.0352 445.7733
v 604.9456 603.4540 86.0953
v 1010.3081 -61.0352 445.7733
v 1000.9456 -71.5460 436.0953
v 604.9456 603.4540 86.0953
v 604.9456 603.4540 86.0953
v 1000.9456 -71.5460 436.0953
v 590.8819 594.0273 83.8274
v 1000.9456 -71.5460 436.0953
v 986.8819 -80.9727 433.8274
v 590.8819 594.0273 83.8274
v 590.8819 594.0273 83.8274
v 986.8819 -80.9727 433.8274
v 575.8851 588.2106 89.5772
v 986.8819 -80.9727 433.8274
v 971.8851 -86.7894 439.5772
v 575.8851 588.2106 89.5772
v 575.8851 588.2106 89.5772
v 971.8851 -86.7894 439.5772
v 563.9738 587.5624 101.8041
v 971.8851 -86.7894 439.5772
v 959.9738 -87.4376 451.8041
v 563.9738 587.5624 101.8041
v 563.9738 587.5624 101.8041
v 959.9738 -87.4376 451.8041
v 558.3395 592.2566 117.2319
v 959.9738 -87.4376 451.8041
v 954.3395 -82.7434 467.2319
v 558.3395 592.2566 117.2319
v 558.3395 592.2566 117.2319
v 954.3395 -82.7434 467.2319
v 560.4919 601.0352 131.7267
v 954.3395 -82.7434 467.2319
v 956.4919 -73.9648 481.7267
v 560.4919 601.0352 131.7267
v 560.4919 601.0352 131.7267
v 956.4919 -73.9648 481.7267
v 569.8544 611.5460 141.4047
v 956.4919 -73.9648 481.7267
v 965.8544 -63.4540 491.4047
v 569.8544 611.5460 141.4047
v 569.8544 611.5460 141.4047
v 965.8544 -63.4540 491.4047
v 583.9181 620.9727 143.6726
v 965.8544 -63.4540 491.4047
v 979.9181 -54.0273 493.6726
v 583.9181 620.9727 143.6726
v 583.9181 620.9727 143.6726
v 598.9149 626.7894 137.9228
v 587.4000 607.5000 113.7500
v 598.9149 626.7894 137.9228
v 610.8262 627.4376 125.6959
v 587.4000 607.5000 113.7500
v 610.8262 627.4376 125.6959
v 616.4605 622.7434 110.2681
v 587.4000 607.5000 113.7500
v 616.4605 622.7434 110.2681
v 614.3081 613.9648 95.7733
v 587.4000 607.5000 113.7500
v 614.3081 613.9648 95.7733
v 604.9456 603.4540 86.0953
v 587.4000 607.5000 113.7500
v 604.9456 603.4540 86.0953
v 590.8819 594.0273 83.8274
v 587.4000 607.5000 113.7500
v 590.8819 594.0273 83.8274
v 575.8851 588.2106 89.5772
v 587.4000 607.5000 113.7500
v 575.8851 588.2106 89.5772
v 563.9738 587.5624 101.8041
v 587.4000 607.5000 113.7500
v 563.9738 587.5624 101.8041
v 558.3395 592.2566 117.2319
v 587.4000 607.5000 113.7500
v 558.3395 592.2566 117.2319
v 560.4919 601.0352 131.7267
v 587.4000 607.5000 113.7500
v 560.4919 601.0352 131.7267
v 569.8544 611.5460 141.4047
v 587.4000 607.5000 113.7500
v 569.8544 611.5460 141.4047
v 583.9181 620.9727 143.6726
v 587.4000 607.5000 113.7500
v 994.9149 -48.2106 487.9228
v 979.9181 -54.0273 493.6726
v 983.4000 -67.5000 463.7500
v 1006.8262 -47.5624 475.6959
v 994.9149 -48.2106 487.9228
v 983.4000 -67.5000 463.7500
v 1012.4605 -52.2566 460.2681
v 1006.8262 -47.5624 475.6959
v 983.4000 -67.5000 463.7500
v 1010.3081 -61.0352 445.7733
v 1012.4605 -52.2566 460.2681
v 983.4000 -67.5000 463.7500
v 1000.9456 -71.5460 436.0953
v 1010.3081 -61.0352 445.7733
v 983.4000 -67.5000 463.7500
v 986.8819 -80.9727 433.8274
v 1000.9456 -71.5460 436.0953
v 983.4000 -67.5000 463.7500
v 971.8851 -86.7894 439.5772
v 986.8819 -80.9727 433.8274
v 983.4000 -67.5000 463.7500
v 959.9738 -87.4376 451.8041
v 971.8851 -86.7894 439.5772
v 983.4000 -67.5000 463.7500
v 954.3395 -82.7434 467.2319
v 959.9738 -87.4376 451.8041
v 983.4000 -67.5000 463.7500
v 956.4919 -73.9648 481.7267
v 954.3395 -82.7434 467.2319
v 983.4000 -67.5000 463.7500
v 965.8544 -63.4540 491.4047
v 956.4919 -73.9648 481.7267
v 983.4000 -67.5000 463.7500
v 979.9181 -54.0273 493.6726
v 965.8544 -63.4540 491.4047
v 983.4000 -67.5000 463.7500
v 1122.0000 270.5000 350.0000
v 1122.0000 270.5000 -350.0000
v 1133.0000 273.4474 350.0000
v 1122.0000 270.5000 -350.0000
v 1133.0000 273.4474 -350.0000
v 1133.0000 273.4474 350.0000
v 1133.0000 273.4474 350.0000
v 1133.0000 273.4474 -350.0000
v 1141.0526 281.5000 350.0000
v 1133.0000 273.4474 -350.0000
v 1141.0526 281.5000 -350.0000
v 1141.0526 281.5000 350.0000
v 1141.0526 281.5000 350.0000
v 1141.0526 281.5000 -350.0000
v 1144.0000 292.5000 350.0000
v 1141.0526 281.5000 -350.0000
v 1144.0000 292.5000 -350.0000
v 1144.0000 292.5000 350.0000
v 1144.0000 292.5000 350.0000
v 1144.0000 292.5000 -350.0000
v 1141.0526 303.5000 350.0000
v 1144.0000 292.5000 -350.0000
v 1141.0526 303.5000 -350.0000
v 1141.0526 303.5000 350.0000
v 1141.0526 303.5000 350.0000
v 1141.0526 303.5000 -350.0000
v 1133.0000 311.5526 350.0000
v 1141.0526 303.5000 -350.0000
v 1133.0000 311.5526 -350.0000
v 1133.0000 311.5526 350.0000
v 1133.0000 311.5526 350.0000
v 1133.0000 311.5526 -350.0000
v 1122.0000 314.5000 350.0000
v 1133.0000 311.5526 -350.0000
v 1122.0000 314.5000 -350.0000
v 1122.0000 314.5000 350.0000
v 1122.0000 314.5000 350.0000
v 1122.0000 314.5000 -350.0000
v 1111.0000 311.5526 350.0000
v 1122.0000 314.5000 -350.0000
v 1111.0000 311.5526 -350.0000
v 1111.0000 311.5526 350.0000
v 1111.0000 311.5526 350.0000
v 1111.0000 311.5526 -350.0000
v 1102.9474 303.5000 350.0000
v 1111.0000 311.5526 -350.0000
v 1102.9474 303.5000 -350.0000
v 1102.9474 303.5000 350.0000
v 1102.9474 303.5000 350.0000
v 1102.9474 303.5000 -350.0000
v 1100.0000 292.5000 350.0000
v 1102.9474 303.5000 -350.0000
v 1100.0000 292.5000 -350.0000
v 1100.0000 292.5000 350.0000
v 1100.0000 292.5000 350.0000
v 1100.0000 292.5000 -350.0000
v 1102.9474 281.5000 350.0000
v 1100.0000 292.5000 -350.0000
v 1102.9474 281.5000 -350.0000
v 1102.9474 281.5000 350.0000
v 1102.9474 281.5000 350.0000
v 1102.9474 281.5000 -350.0000
v 1111.0000 273.4474 350.0000
v 1102.9474 281.5000 -350.0000
v 1111.0000 273.4474 -350.0000
v 1111.0000 273.4474 350.0000
v 1111.0000 273.4474 350.0000
v 1111.0000 273.4474 -350.0000
v 1122.0000 270.5000 350.0000
v 1111.0000 273.4474 -350.0000
v 1122.0000 270.5000 -350.0000
v 1122.0000 270.5000 350.0000
v 1122.0000 270.5000 350.0000
v 1133.0000 273.4474 350.0000
v 1122.0000 292.5000 350.0000
v 1133.0000 273.4474 350.0000
v 1141.0526 281.5000 350.0000
v 1122.0000 292.5000 350.0000
v 1141.0526 281.5000 350.0000
v 1144.0000 292.5000 350.0000
v 1122.0000 292.5000 350.0000
v 1144.0000 292.5000 350.0000
v 1141.0526 303.5000 350.0000
v 1122.0000 292.5000 350.0000
v 1141.0526 303.5000 350.0000
v 1133.0000 311.5526 350.0000
v 1122.0000 292.5000 350.0000
v 1133.0000 311.5526 350.0000
v 1122.0000 314.5000 350.0000
v 1122.0000 292.5000 350.0000
v 1122.0000 314.5000 350.0000
v 1111.0000 311.5526 350.0000
v 1122.0000 292.5000 350.0000
v 1111.0000 311.5526 350.0000
v 1102.9474 303.5000 350.0000
v 1122.0000 292.5000 350.0000
v 1102.9474 303.5000 350.0000
v 1100.0000 292.5000 350.0000
v 1122.0000 292.5000 350.0000
v 1100.0000 292.5000 350.0000
v 1102.9474 281.5000 350.0000
v 1122.0000 292.5000 350.0000
v 1102.9474 281.5000 350.0000
v 1111.0000 273.4474 350.0000
v 1122.0000 292.5000 350.0000
v 1111.0000 273.4474 350.0000
v 1122.0000 270.5000 350.0000
v 1122.0000 292.5000 350.0000
v 1133.0000 273.4474 -350.0000
v 1122.0000 270.5000 -350.0000
v 1122.0000 292.5000 -350.0000
v 1141.0526 281.5000 -350.0000
v 1133.0000 273.4474 -350.0000
v 1122.0000 292.5000 -350.0000
v 1144.0000 292.5000 -350.0000
v 1141.0526 281.5000 -350.0000
v 1122.0000 292.5000 -350.0000
v 1141.0526 303.5000 -350.0000
v 1144.0000 292.5000 -350.0000
v 1122.0000 292.5000 -350.0000
v 1133.0000 311.5526 -350.0000
v 1141.0526 303.5000 -350.0000
v 1122.0000 292.5000 -350.0000
v 1122.0000 314.5000 -350.0000
v 1133.0000 311.5526 -350.0000
v 1122.0000 292.5000 -350.0000
v 1111.0000 311.5526 -350.0000
v 1122.0000 314.5000 -350.0000
v 1122.0000 292.5000 -350.0000
v 1102.9474 303.5000 -350.0000
v 1111.0000 311.5526 -350.0000
v 1122.0000 292.5000 -350.0000
v 1100.0000 292.5000 -350.0000
v 1102.9474 303.5000 -350.0000
v 1122.0000 292.5000 -350.0000
v 1102.9474 281.5000 -350.0000
v 1100.0000 292.5000 -350.0000
v 1122.0000 292.5000 -350.0000
v 1111.0000 273.4474 -350.0000
v 1102.9474 281.5000 -350.0000
v 1122.0000 292.5000 -350.0000
v 1122.0000 270.5000 -350.0000
v 1111.0000 273.4474 -350.0000
v 1122.0000 292.5000 -350.0000
v 660.0000 817.5000 33.0000
v -660.0000 817.5000 33.0000
v 660.0000 801.0000 28.5788
v -660.0000 817.5000 33.0000
v -660.0000 801.0000 28.5788
v 660.0000 801.0000 28.5788
v 660.0000 801.0000 28.5788
v -660.0000 801.0000 28.5788
v 660.0000 788.9212 16.5000
v -660.0000 801.0000 28.5788
v -660.0000 788.9212 16.5000
v 660.0000 788.9212 16.5000
v 660.0000 788.9212 16.5000
v -660.0000 788.9212 16.5000
v 660.0000 784.5000 0.0000
v -660.0000 788.9212 16.5000
v -660.0000 784.5000 0.0000
v 660.0000 784.5000 0.0000
v 660.0000 784.5000 0.0000
v -660.0000 784.5000 0.0000
v 660.0000 788.9212 -16.5000
v -660.0000 784.5000 0.0000
v -660.0000 788.9212 -16.5000
v 660.0000 788.9212 -16.5000
v 660.0000 788.9212 -16.5000
v -660.0000 788.9212 -16.5000
v 660.0000 801.0000 -28.5788
v -660.0000 788.9212 -16.5000
v -660.0000 801.0000 -28.5788
v 660.0000 801.0000 -28.5788
v 660.0000 801.0000 -28.5788
v -660.0000 801.0000 -28.5788
v 660.0000 817.5000 -33.0000
v -660.0000 801.0000 -28.5788
v -660.0000 817.5000 -33.0000
v 660.0000 817.5000 -33.0000
v 660.0000 817.5000 -33.0000
v -660.0000 817.5000 -33.0000
v 660.0000 834.0000 -28.5788
v -660.0000 817.5000 -33.0000
v -660.0000 834.0000 -28.5788
v 660.0000 834.0000 -28.5788
v 660.0000 834.0000 -28.5788
v -660.0000 834.0000 -28.5788
v 660.0000 846.0788 -16.5000
v -660.0000 834.0000 -28.5788
v -660.0000 846.0788 -16.5000
v 660.0000 846.0788 -16.5000
v 660.0000 846.0788 -16.5000
v -660.0000 846.0788 -16.5000
v 660.0000 850.5000 -0.0000
v -660.0000 846.0788 -16.5000
v -660.0000 850.5000 -0.0000
v 660.0000 850.5000 -0.0000
v 660.0000 850.5000 -0.0000
v -660.0000 850.5000 -0.0000
v 660.0000 846.0788 16.5000
v -660.0000 850.5000 -0.0000
v -660.0000 846.0788 16.5000
v 660.0000 846.0788 16.5000
v 660.0000 846.0788 16.5000
v -660.0000 846.0788 16.5000
v 660.0000 834.0000 28.5788
v -660.0000 846.0788 16.5000
v -660.0000 834.0000 28.5788
v 660.0000 834.0000 28.5788
v 660.0000 834.0000 28.5788
v -660.0000 834.0000 28.5788
v 660.0000 817.5000 33.0000
v -660.0000 834.0000 28.5788
v -660.0000 817.5000 33.0000
v 660.0000 817.5000 33.0000
v 660.0000 817.5000 33.0000
v 660.0000 801.0000 28.5788
v 660.0000 817.5000 0.0000
v 660.0000 801.0000 28.5788
v 660.0000 788.9212 16.5000
v 660.0000 817.5000 0.0000
v 660.0000 788.9212 16.5000
v 660.0000 784.5000 0.0000
v 660.0000 817.5000 0.0000
v 660.0000 784.5000 0.0000
v 660.0000 788.9212 -16.5000
v 660.0000 817.5000 0.0000
v 660.0000 788.9212 -16.5000
v 660.0000 801.0000 -28.5788
v 660.0000 817.5000 0.0000
v 660.0000 801.0000 -28.5788
v 660.0000 817.5000 -33.0000
v 660.0000 817.5000 0.0000
v 660.0000 817.5000 -33.0000
v 660.0000 834.0000 -28.5788
v 660.0000 817.5000 0.0000
v 660.0000 834.0000 -28.5788
v 660.0000 846.0788 -16.5000
v 660.0000 817.5000 0.0000
v 660.0000 846.0788 -16.5000
v 660.0000 850.5000 -0.0000
v 660.0000 817.5000 0.0000
v 660.0000 850.5000 -0.0000
v 660.0000 846.0788 16.5000
v 660.0000 817.5000 0.0000
v 660.0000 846.0788 16.5000
v 660.0000 834.0000 28.5788
v 660.0000 817.5000 0.0000
v 660.0000 834.0000 28.5788
v 660.0000 817.5000 33.0000
v 660.0000 817.5000 0.0000
v -660.0000 801.0000 28.5788
v -660.0000 817.5000 33.0000
v -660.0000 817.5000 0.0000
v -660.0000 788.9212 16.5000
v -660.0000 801.0000 28.5788
v -660.0000 817.5000 0.0000
v -660.0000 784.5000 0.0000
v -660.0000 788.9212 16.5000
v -660.0000 817.5000 0.0000
v -660.0000 788.9212 -16.5000
v -660.0000 784.5000 0.0000
v -660.0000 817.5000 0.0000
v -660.0000 801.0000 -28.5788
v -660.0000 788.9212 -16.5000
v -660.0000 817.5000 0.0000
v -660.0000 817.5000 -33.0000
v -660.0000 801.0000 -28.5788
v -660.0000 817.5000 0.0000
v -660.0000 834.0000 -28.5788
v -660.0000 817.5000 -33.0000
v -660.0000 817.5000 0.0000
v -660.0000 846.0788 -16.5000
v -660.0000 834.0000 -28.5788
v -660.0000 817.5000 0.0000
v -660.0000 850.5000 -0.0000
v -660.0000 846.0788 -16.5000
v -660.0000 817.5000 0.0000
v -660.0000 846.0788 16.5000
v -660.0000 850.5000 -0.0000
v -660.0000 817.5000 0.0000
v -660.0000 834.0000 28.5788
v -660.0000 846.0788 16.5000
v -660.0000 817.5000 0.0000
v -660.0000 817.5000 33.0000
v -660.0000 834.0000 28.5788
v -660.0000 817.5000 0.0000
f 1 2 3
f 4 5 6
f 7 8 9
f 10 11 12
f 13 14 15
f 16 17 18
f 19 20 21
f 22 23 24
f 25 26 27
f 28 29 30
f 31 32 33
f 34 35 36
f 37 38 39
f 40 41 42
f 43 44 45
f 46 47 48
f 49 50 51
f 52 53 54
f 55 56 57
f 58 59 60
f 61 62 63
f 64 65 66
f 67 68 69
f 70 71 72
f 73 74 75
f 76 77 78
f 79 80 81
f 82 83 84
f 85 86 87
f 88 89 90
f 91 92 93
f 94 95 96
f 97 98 99
f 100 101 102
f 103 104 105
f 106 107 108
f 109 110 111
f 112 113 114
f 115 116 117
f 118 119 120
f 121 122 123
f 124 125 126
f 127 128 129
f 130 131 132
f 133 134 135
f 136 137 138
f 139 140 141
f 142 143 144
f 145 146 147
f 148 149 150
f 151 152 153
f 154 155 156
f 157 158 159
f 160 161 162
f 163 164 165
f 166 167 168
f 169 170 171
f 172 173 174
f 175 176 177
f 178 179 180
f 181 182 183
f 184 185 186
f 187 188 189
f 190 191 192
f 193 194 195
f 196 197 198
f 199 200 201
f 202 203 204
f 205 206 207
f 208 209 210
f 211 212 213
f 214 215 216
f 217 218 219
f 220 221 222
f 223 224 225
f 226 227 228
f 229 230 231
f 232 233 234
f 235 236 237
f 238 239 240
f 241 242 243
f 244 245 246
f 247 248 249
f 250 251 252
f 253 254 255
f 256 257 258
f 259 260 261
f 262 263 264
f 265 266 267
f 268 269 270
f 271 272 273
f 274 275 276
f 277 278 279
f 280 281 282
f 283 284 285
f 286 287 288
f 289 290 291
f 292 293 294
f 295 296 297
f 298 299 300
f 301 302 303
f 304 305 306
f 307 308 309
f 310 311 312
f 313 314 315
f 316 317 318
f 319 320 321
f 322 323 324
f 325 326 327
f 328 329 330
f 331 332 333
f 334 335 336
f 337 338 339
f 340 341 342
f 343 344 345
f 346 347 348
f 349 350 351
f 352 353 354
f 355 356 357
f 358 359 360
f 361 362 363
f 364 365 366
f 367 368 369
f 370 371 372
f 373 374 375
f 376 377 378
f 379 380 381
f 382 383 384
f 385 386 387
f 388 389 390
f 391 392 393
f 394 395 396
f 397 398 399
f 400 401 402
f 403 404 405
f 406 407 408
f 409 410 411
f 412 413 414
f 415 416 417
f 418 419 420
f 421 422 423
f 424 425 426
f 427 428 429
f 430 431 432
f 433 434 435
f 436 437 438
f 439 440 441
f 442 443 444
f 445 446 447
f 448 449 450
f 451 452 453
f 454 455 456
f 457 458 459
f 460 461 462
f 463 464 465
f 466 467 468
f 469 470 471
f 472 473 474
f 475 476 477
f 478 479 480
f 481 482 483
f 484 485 486
f 487 488 489
f 490 491 492
f 493 494 495
f 496 497 498
f 499 500 501
f 502 503 504
f 505 506 507
f 508 509 510
f 511 512 513
f 514 515 516
f 517 518 519
f 520 521 522
f 523 524 525
f 526 527 528
f 529 530 531
f 532 533 534
f 535 536 537
f 538 539 540
f 541 542 543
f 544 545 546
f 547 548 549
f 550 551 552
f 553 554 555
f 556 557 558
f 559 560 561
f 562 563 564
f 565 566 567
f 568 569 570
f 571 572 573
f 574 575 576
f 577 578 579
f 580 581 582
f 583 584 585
f 586 587 588
f 589 590 591
f 592 593 594
f 595 596 597
f 598 599 600
f 601 602 603
f 604 605 606
f 607 608 609
f 610 611 612
f 613 614 615
f 616 617 618
f 619 620 621
f 622 623 624
f 625 626 627
f 628 629 630
f 631 632 633
f 634 635 636
f 637 638 639
f 640 641 642
f 643 644 645
f 646 647 648
f 649 650 651
f 652 653 654
f 655 656 657
f 658 659 660
f 661 662 663
f 664 665 666
f 667 668 669
f 670 671 672
f 673 674 675
f 676 677 678
f 679 680 681
f 682 683 684
f 685 686 687
f 688 689 690
f 691 692 693
f 694 695 696
f 697 698 699
f 700 701 702
f 703 704 705
f 706 707 708
f 709 710 711
f 712 713 714
f 715 716 717
f 718 719 720
f 721 722 723
f 724 725 726
f 727 728 729
f 730 731 732
f 733 734 735
f 736 737 738
f 739 740 741
f 742 743 744
f 745 746 747
f 748 749 750
f 751 752 753
f 754 755 756
f 757 758 759
f 760 761 762
f 763 764 765
f 766 767 768
f 769 770 771
f 772 773 774
f 775 776 777
f 778 779 780
f 781 782 783
f 784 785 786
f 787 788 789
f 790 791 792
f 793 794 795
f 796 797 798
f 799 800 801
f 802 803 804
f 805 806 807
f 808 809 810
f 811 812 813
f 814 815 816
f 817 818 819
f 820 821 822
f 823 824 825
f 826 827 828
f 829 830 831
f 832 833 834
f 835 836 837
f 838 839 840
f 841 842 843
f 844 845 846
f 847 848 849
f 850 851 852
f 853 854 855
f 856 857 858
f 859 860 861
f 862 863 864
f 865 866 867
f 868 869 870
f 871 872 873
f 874 875 876
f 877 878 879
f 880 881 882
f 883 884 885
f 886 887 888
f 889 890 891
f 892 893 894
f 895 896 897
f 898 899 900
f 901 902 903
f 904 905 906
f 907 908 909
f 910 911 912
f 913 914 915
f 916 917 918
f 919 920 921
f 922 923 924
f 925 926 927
f 928 929 930
f 931 932 933
f 934 935 936
f 937 938 939
f 940 941 942
f 943 944 945
f 946 947 948
f 949 950 951
f 952 953 954
f 955 956 957
f 958 959 960
f 961 962 963
f 964 965 966
f 967 968 969
f 970 971 972
f 973 974 975
f 976 977 978
f 979 980 981
f 982 983 984
f 985 986 987
f 988 989 990
f 991 992 993
f 994 995 996
f 997 998 999
f 1000 1001 1002
f 1003 1004 1005
f 1006 1007 1008
f 1009 1010 1011
f 1012 1013 1014
f 1015 1016 1017
f 1018 1019 1020
f 1021 1022 1023
f 1024 1025 1026
f 1027 1028 1029
f 1030 1031 1032
f 1033 1034 1035
f 1036 1037 1038
f 1039 1040 1041
f 1042 1043 1044
