# MATERIA - Cavour CM
# Geometria originale di studio. Unita mm. Non CAD del produttore.
v 900.0000 540.8750 425.0000
v 900.0000 494.1250 425.0000
v 900.0000 540.8750 -425.0000
v 900.0000 494.1250 425.0000
v 900.0000 494.1250 -425.0000
v 900.0000 540.8750 -425.0000
v -900.0000 540.8750 -425.0000
v -900.0000 494.1250 -425.0000
v -900.0000 540.8750 425.0000
v -900.0000 494.1250 -425.0000
v -900.0000 494.1250 425.0000
v -900.0000 540.8750 425.0000
v -900.0000 540.8750 -425.0000
v -900.0000 540.8750 425.0000
v 900.0000 540.8750 -425.0000
v -900.0000 540.8750 425.0000
v 900.0000 540.8750 425.0000
v 900.0000 540.8750 -425.0000
v -900.0000 494.1250 425.0000
v -900.0000 494.1250 -425.0000
v 900.0000 494.1250 425.0000
v -900.0000 494.1250 -425.0000
v 900.0000 494.1250 -425.0000
v 900.0000 494.1250 425.0000
v -900.0000 540.8750 425.0000
v -900.0000 494.1250 425.0000
v 900.0000 540.8750 425.0000
v -900.0000 494.1250 425.0000
v 900.0000 494.1250 425.0000
v 900.0000 540.8750 425.0000
v 900.0000 540.8750 -425.0000
v 900.0000 494.1250 -425.0000
v -900.0000 540.8750 -425.0000
v 900.0000 494.1250 -425.0000
v -900.0000 494.1250 -425.0000
v -900.0000 540.8750 -425.0000
v -1233.2922 -52.1253 -542.7185
v -1149.0522 630.4747 -502.9385
v -1238.2226 -50.8770 -553.6975
v -1149.0522 630.4747 -502.9385
v -1153.9826 631.7230 -513.9175
v -1238.2226 -50.8770 -553.6975
v -1238.2226 -50.8770 -553.6975
v -1153.9826 631.7230 -513.9175
v -1237.0173 -50.3248 -565.7244
v -1153.9826 631.7230 -513.9175
v -1152.7773 632.2752 -525.9444
v -1237.0173 -50.3248 -565.7244
v -1237.0173 -50.3248 -565.7244
v -1152.7773 632.2752 -525.9444
v -1229.9993 -50.6168 -575.5767
v -1152.7773 632.2752 -525.9444
v -1145.7593 631.9832 -535.7967
v -1229.9993 -50.6168 -575.5767
v -1229.9993 -50.6168 -575.5767
v -1145.7593 631.9832 -535.7967
v -1219.0491 -51.6746 -580.6144
v -1145.7593 631.9832 -535.7967
v -1134.8091 630.9254 -540.8344
v -1219.0491 -51.6746 -580.6144
v -1219.0491 -51.6746 -580.6144
v -1134.8091 630.9254 -540.8344
v -1207.1007 -53.2148 -579.4877
v -1134.8091 630.9254 -540.8344
v -1122.8607 629.3852 -539.7077
v -1207.1007 -53.2148 -579.4877
v -1207.1007 -53.2148 -579.4877
v -1122.8607 629.3852 -539.7077
v -1197.3558 -54.8247 -572.4985
v -1122.8607 629.3852 -539.7077
v -1113.1158 627.7753 -532.7185
v -1197.3558 -54.8247 -572.4985
v -1197.3558 -54.8247 -572.4985
v -1113.1158 627.7753 -532.7185
v -1192.4254 -56.0730 -561.5195
v -1113.1158 627.7753 -532.7185
v -1108.1854 626.5270 -521.7395
v -1192.4254 -56.0730 -561.5195
v -1192.4254 -56.0730 -561.5195
v -1108.1854 626.5270 -521.7395
v -1193.6307 -56.6252 -549.4926
v -1108.1854 626.5270 -521.7395
v -1109.3907 625.9748 -509.7126
v -1193.6307 -56.6252 -549.4926
v -1193.6307 -56.6252 -549.4926
v -1109.3907 625.9748 -509.7126
v -1200.6487 -56.3332 -539.6403
v -1109.3907 625.9748 -509.7126
v -1116.4087 626.2668 -499.8603
v -1200.6487 -56.3332 -539.6403
v -1200.6487 -56.3332 -539.6403
v -1116.4087 626.2668 -499.8603
v -1211.5989 -55.2754 -534.6026
v -1116.4087 626.2668 -499.8603
v -1127.3589 627.3246 -494.8226
v -1211.5989 -55.2754 -534.6026
v -1211.5989 -55.2754 -534.6026
v -1127.3589 627.3246 -494.8226
v -1223.5473 -53.7352 -535.7293
v -1127.3589 627.3246 -494.8226
v -1139.3073 628.8648 -495.9493
v -1223.5473 -53.7352 -535.7293
v -1223.5473 -53.7352 -535.7293
v -1139.3073 628.8648 -495.9493
v -1233.2922 -52.1253 -542.7185
v -1139.3073 628.8648 -495.9493
v -1149.0522 630.4747 -502.9385
v -1233.2922 -52.1253 -542.7185
v -1233.2922 -52.1253 -542.7185
v -1238.2226 -50.8770 -553.6975
v -1215.3240 -53.4750 -557.6085
v -1238.2226 -50.8770 -553.6975
v -1237.0173 -50.3248 -565.7244
v -1215.3240 -53.4750 -557.6085
v -1237.0173 -50.3248 -565.7244
v -1229.9993 -50.6168 -575.5767
v -1215.3240 -53.4750 -557.6085
v -1229.9993 -50.6168 -575.5767
v -1219.0491 -51.6746 -580.6144
v -1215.3240 -53.4750 -557.6085
v -1219.0491 -51.6746 -580.6144
v -1207.1007 -53.2148 -579.4877
v -1215.3240 -53.4750 -557.6085
v -1207.1007 -53.2148 -579.4877
v -1197.3558 -54.8247 -572.4985
v -1215.3240 -53.4750 -557.6085
v -1197.3558 -54.8247 -572.4985
v -1192.4254 -56.0730 -561.5195
v -1215.3240 -53.4750 -557.6085
v -1192.4254 -56.0730 -561.5195
v -1193.6307 -56.6252 -549.4926
v -1215.3240 -53.4750 -557.6085
v -1193.6307 -56.6252 -549.4926
v -1200.6487 -56.3332 -539.6403
v -1215.3240 -53.4750 -557.6085
v -1200.6487 -56.3332 -539.6403
v -1211.5989 -55.2754 -534.6026
v -1215.3240 -53.4750 -557.6085
v -1211.5989 -55.2754 -534.6026
v -1223.5473 -53.7352 -535.7293
v -1215.3240 -53.4750 -557.6085
v -1223.5473 -53.7352 -535.7293
v -1233.2922 -52.1253 -542.7185
v -1215.3240 -53.4750 -557.6085
v -1153.9826 631.7230 -513.9175
v -1149.0522 630.4747 -502.9385
v -1131.0840 629.1250 -517.8285
v -1152.7773 632.2752 -525.9444
v -1153.9826 631.7230 -513.9175
v -1131.0840 629.1250 -517.8285
v -1145.7593 631.9832 -535.7967
v -1152.7773 632.2752 -525.9444
v -1131.0840 629.1250 -517.8285
v -1134.8091 630.9254 -540.8344
v -1145.7593 631.9832 -535.7967
v -1131.0840 629.1250 -517.8285
v -1122.8607 629.3852 -539.7077
v -1134.8091 630.9254 -540.8344
v -1131.0840 629.1250 -517.8285
v -1113.1158 627.7753 -532.7185
v -1122.8607 629.3852 -539.7077
v -1131.0840 629.1250 -517.8285
v -1108.1854 626.5270 -521.7395
v -1113.1158 627.7753 -532.7185
v -1131.0840 629.1250 -517.8285
v -1109.3907 625.9748 -509.7126
v -1108.1854 626.5270 -521.7395
v -1131.0840 629.1250 -517.8285
v -1116.4087 626.2668 -499.8603
v -1109.3907 625.9748 -509.7126
v -1131.0840 629.1250 -517.8285
v -1127.3589 627.3246 -494.8226
v -1116.4087 626.2668 -499.8603
v -1131.0840 629.1250 -517.8285
v -1139.3073 628.8648 -495.9493
v -1127.3589 627.3246 -494.8226
v -1131.0840 629.1250 -517.8285
v -1149.0522 630.4747 -502.9385
v -1139.3073 628.8648 -495.9493
v -1131.0840 629.1250 -517.8285
v 1233.2922 82.8747 -542.7185
v 1149.0522 765.4747 -502.9385
v 1223.5473 81.2648 -535.7293
v 1149.0522 765.4747 -502.9385
v 1139.3073 763.8648 -495.9493
v 1223.5473 81.2648 -535.7293
v 1223.5473 81.2648 -535.7293
v 1139.3073 763.8648 -495.9493
v 1211.5989 79.7246 -534.6026
v 1139.3073 763.8648 -495.9493
v 1127.3589 762.3246 -494.8226
v 1211.5989 79.7246 -534.6026
v 1211.5989 79.7246 -534.6026
v 1127.3589 762.3246 -494.8226
v 1200.6487 78.6668 -539.6403
v 1127.3589 762.3246 -494.8226
v 1116.4087 761.2668 -499.8603
v 1200.6487 78.6668 -539.6403
v 1200.6487 78.6668 -539.6403
v 1116.4087 761.2668 -499.8603
v 1193.6307 78.3748 -549.4926
v 1116.4087 761.2668 -499.8603
v 1109.3907 760.9748 -509.7126
v 1193.6307 78.3748 -549.4926
v 1193.6307 78.3748 -549.4926
v 1109.3907 760.9748 -509.7126
v 1192.4254 78.9270 -561.5195
v 1109.3907 760.9748 -509.7126
v 1108.1854 761.5270 -521.7395
v 1192.4254 78.9270 -561.5195
v 1192.4254 78.9270 -561.5195
v 1108.1854 761.5270 -521.7395
v 1197.3558 80.1753 -572.4985
v 1108.1854 761.5270 -521.7395
v 1113.1158 762.7753 -532.7185
v 1197.3558 80.1753 -572.4985
v 1197.3558 80.1753 -572.4985
v 1113.1158 762.7753 -532.7185
v 1207.1007 81.7852 -579.4877
v 1113.1158 762.7753 -532.7185
v 1122.8607 764.3852 -539.7077
v 1207.1007 81.7852 -579.4877
v 1207.1007 81.7852 -579.4877
v 1122.8607 764.3852 -539.7077
v 1219.0491 83.3254 -580.6144
v 1122.8607 764.3852 -539.7077
v 1134.8091 765.9254 -540.8344
v 1219.0491 83.3254 -580.6144
v 1219.0491 83.3254 -580.6144
v 1134.8091 765.9254 -540.8344
v 1229.9993 84.3832 -575.5767
v 1134.8091 765.9254 -540.8344
v 1145.7593 766.9832 -535.7967
v 1229.9993 84.3832 -575.5767
v 1229.9993 84.3832 -575.5767
v 1145.7593 766.9832 -535.7967
v 1237.0173 84.6752 -565.7244
v 1145.7593 766.9832 -535.7967
v 1152.7773 767.2752 -525.9444
v 1237.0173 84.6752 -565.7244
v 1237.0173 84.6752 -565.7244
v 1152.7773 767.2752 -525.9444
v 1238.2226 84.1230 -553.6975
v 1152.7773 767.2752 -525.9444
v 1153.9826 766.7230 -513.9175
v 1238.2226 84.1230 -553.6975
v 1238.2226 84.1230 -553.6975
v 1153.9826 766.7230 -513.9175
v 1233.2922 82.8747 -542.7185
v 1153.9826 766.7230 -513.9175
v 1149.0522 765.4747 -502.9385
v 1233.2922 82.8747 -542.7185
v 1233.2922 82.8747 -542.7185
v 1223.5473 81.2648 -535.7293
v 1215.3240 81.5250 -557.6085
v 1223.5473 81.2648 -535.7293
v 1211.5989 79.7246 -534.6026
v 1215.3240 81.5250 -557.6085
v 1211.5989 79.7246 -534.6026
v 1200.6487 78.6668 -539.6403
v 1215.3240 81.5250 -557.6085
v 1200.6487 78.6668 -539.6403
v 1193.6307 78.3748 -549.4926
v 1215.3240 81.5250 -557.6085
v 1193.6307 78.3748 -549.4926
v 1192.4254 78.9270 -561.5195
v 1215.3240 81.5250 -557.6085
v 1192.4254 78.9270 -561.5195
v 1197.3558 80.1753 -572.4985
v 1215.3240 81.5250 -557.6085
v 1197.3558 80.1753 -572.4985
v 1207.1007 81.7852 -579.4877
v 1215.3240 81.5250 -557.6085
v 1207.1007 81.7852 -579.4877
v 1219.0491 83.3254 -580.6144
v 1215.3240 81.5250 -557.6085
v 1219.0491 83.3254 -580.6144
v 1229.9993 84.3832 -575.5767
v 1215.3240 81.5250 -557.6085
v 1229.9993 84.3832 -575.5767
v 1237.0173 84.6752 -565.7244
v 1215.3240 81.5250 -557.6085
v 1237.0173 84.6752 -565.7244
v 1238.2226 84.1230 -553.6975
v 1215.3240 81.5250 -557.6085
v 1238.2226 84.1230 -553.6975
v 1233.2922 82.8747 -542.7185
v 1215.3240 81.5250 -557.6085
v 1139.3073 763.8648 -495.9493
v 1149.0522 765.4747 -502.9385
v 1131.0840 764.1250 -517.8285
v 1127.3589 762.3246 -494.8226
v 1139.3073 763.8648 -495.9493
v 1131.0840 764.1250 -517.8285
v 1116.4087 761.2668 -499.8603
v 1127.3589 762.3246 -494.8226
v 1131.0840 764.1250 -517.8285
v 1109.3907 760.9748 -509.7126
v 1116.4087 761.2668 -499.8603
v 1131.0840 764.1250 -517.8285
v 1108.1854 761.5270 -521.7395
v 1109.3907 760.9748 -509.7126
v 1131.0840 764.1250 -517.8285
v 1113.1158 762.7753 -532.7185
v 1108.1854 761.5270 -521.7395
v 1131.0840 764.1250 -517.8285
v 1122.8607 764.3852 -539.7077
v 1113.1158 762.7753 -532.7185
v 1131.0840 764.1250 -517.8285
v 1134.8091 765.9254 -540.8344
v 1122.8607 764.3852 -539.7077
v 1131.0840 764.1250 -517.8285
v 1145.7593 766.9832 -535.7967
v 1134.8091 765.9254 -540.8344
v 1131.0840 764.1250 -517.8285
v 1152.7773 767.2752 -525.9444
v 1145.7593 766.9832 -535.7967
v 1131.0840 764.1250 -517.8285
v 1153.9826 766.7230 -513.9175
v 1152.7773 767.2752 -525.9444
v 1131.0840 764.1250 -517.8285
v 1149.0522 765.4747 -502.9385
v 1153.9826 766.7230 -513.9175
v 1131.0840 764.1250 -517.8285
v -1197.3558 215.1753 572.4985
v -1113.1158 897.7753 532.7185
v -1207.1007 216.7852 579.4877
v -1113.1158 897.7753 532.7185
v -1122.8607 899.3852 539.7077
v -1207.1007 216.7852 579.4877
v -1207.1007 216.7852 579.4877
v -1122.8607 899.3852 539.7077
v -1219.0491 218.3254 580.6144
v -1122.8607 899.3852 539.7077
v -1134.8091 900.9254 540.8344
v -1219.0491 218.3254 580.6144
v -1219.0491 218.3254 580.6144
v -1134.8091 900.9254 540.8344
v -1229.9993 219.3832 575.5767
v -1134.8091 900.9254 540.8344
v -1145.7593 901.9832 535.7967
v -1229.9993 219.3832 575.5767
v -1229.9993 219.3832 575.5767
v -1145.7593 901.9832 535.7967
v -1237.0173 219.6752 565.7244
v -1145.7593 901.9832 535.7967
v -1152.7773 902.2752 525.9444
v -1237.0173 219.6752 565.7244
v -1237.0173 219.6752 565.7244
v -1152.7773 902.2752 525.9444
v -1238.2226 219.1230 553.6975
v -1152.7773 902.2752 525.9444
v -1153.9826 901.7230 513.9175
v -1238.2226 219.1230 553.6975
v -1238.2226 219.1230 553.6975
v -1153.9826 901.7230 513.9175
v -1233.2922 217.8747 542.7185
v -1153.9826 901.7230 513.9175
v -1149.0522 900.4747 502.9385
v -1233.2922 217.8747 542.7185
v -1233.2922 217.8747 542.7185
v -1149.0522 900.4747 502.9385
v -1223.5473 216.2648 535.7293
v -1149.0522 900.4747 502.9385
v -1139.3073 898.8648 495.9493
v -1223.5473 216.2648 535.7293
v -1223.5473 216.2648 535.7293
v -1139.3073 898.8648 495.9493
v -1211.5989 214.7246 534.6026
v -1139.3073 898.8648 495.9493
v -1127.3589 897.3246 494.8226
v -1211.5989 214.7246 534.6026
v -1211.5989 214.7246 534.6026
v -1127.3589 897.3246 494.8226
v -1200.6487 213.6668 539.6403
v -1127.3589 897.3246 494.8226
v -1116.4087 896.2668 499.8603
v -1200.6487 213.6668 539.6403
v -1200.6487 213.6668 539.6403
v -1116.4087 896.2668 499.8603
v -1193.6307 213.3748 549.4926
v -1116.4087 896.2668 499.8603
v -1109.3907 895.9748 509.7126
v -1193.6307 213.3748 549.4926
v -1193.6307 213.3748 549.4926
v -1109.3907 895.9748 509.7126
v -1192.4254 213.9270 561.5195
v -1109.3907 895.9748 509.7126
v -1108.1854 896.5270 521.7395
v -1192.4254 213.9270 561.5195
v -1192.4254 213.9270 561.5195
v -1108.1854 896.5270 521.7395
v -1197.3558 215.1753 572.4985
v -1108.1854 896.5270 521.7395
v -1113.1158 897.7753 532.7185
v -1197.3558 215.1753 572.4985
v -1197.3558 215.1753 572.4985
v -1207.1007 216.7852 579.4877
v -1215.3240 216.5250 557.6085
v -1207.1007 216.7852 579.4877
v -1219.0491 218.3254 580.6144
v -1215.3240 216.5250 557.6085
v -1219.0491 218.3254 580.6144
v -1229.9993 219.3832 575.5767
v -1215.3240 216.5250 557.6085
v -1229.9993 219.3832 575.5767
v -1237.0173 219.6752 565.7244
v -1215.3240 216.5250 557.6085
v -1237.0173 219.6752 565.7244
v -1238.2226 219.1230 553.6975
v -1215.3240 216.5250 557.6085
v -1238.2226 219.1230 553.6975
v -1233.2922 217.8747 542.7185
v -1215.3240 216.5250 557.6085
v -1233.2922 217.8747 542.7185
v -1223.5473 216.2648 535.7293
v -1215.3240 216.5250 557.6085
v -1223.5473 216.2648 535.7293
v -1211.5989 214.7246 534.6026
v -1215.3240 216.5250 557.6085
v -1211.5989 214.7246 534.6026
v -1200.6487 213.6668 539.6403
v -1215.3240 216.5250 557.6085
v -1200.6487 213.6668 539.6403
v -1193.6307 213.3748 549.4926
v -1215.3240 216.5250 557.6085
v -1193.6307 213.3748 549.4926
v -1192.4254 213.9270 561.5195
v -1215.3240 216.5250 557.6085
v -1192.4254 213.9270 561.5195
v -1197.3558 215.1753 572.4985
v -1215.3240 216.5250 557.6085
v -1122.8607 899.3852 539.7077
v -1113.1158 897.7753 532.7185
v -1131.0840 899.1250 517.8285
v -1134.8091 900.9254 540.8344
v -1122.8607 899.3852 539.7077
v -1131.0840 899.1250 517.8285
v -1145.7593 901.9832 535.7967
v -1134.8091 900.9254 540.8344
v -1131.0840 899.1250 517.8285
v -1152.7773 902.2752 525.9444
v -1145.7593 901.9832 535.7967
v -1131.0840 899.1250 517.8285
v -1153.9826 901.7230 513.9175
v -1152.7773 902.2752 525.9444
v -1131.0840 899.1250 517.8285
v -1149.0522 900.4747 502.9385
v -1153.9826 901.7230 513.9175
v -1131.0840 899.1250 517.8285
v -1139.3073 898.8648 495.9493
v -1149.0522 900.4747 502.9385
v -1131.0840 899.1250 517.8285
v -1127.3589 897.3246 494.8226
v -1139.3073 898.8648 495.9493
v -1131.0840 899.1250 517.8285
v -1116.4087 896.2668 499.8603
v -1127.3589 897.3246 494.8226
v -1131.0840 899.1250 517.8285
v -1109.3907 895.9748 509.7126
v -1116.4087 896.2668 499.8603
v -1131.0840 899.1250 517.8285
v -1108.1854 896.5270 521.7395
v -1109.3907 895.9748 509.7126
v -1131.0840 899.1250 517.8285
v -1113.1158 897.7753 532.7185
v -1108.1854 896.5270 521.7395
v -1131.0840 899.1250 517.8285
v 1197.3558 -189.8247 572.4985
v 1113.1158 492.7753 532.7185
v 1192.4254 -191.0730 561.5195
v 1113.1158 492.7753 532.7185
v 1108.1854 491.5270 521.7395
v 1192.4254 -191.0730 561.5195
v 1192.4254 -191.0730 561.5195
v 1108.1854 491.5270 521.7395
v 1193.6307 -191.6252 549.4926
v 1108.1854 491.5270 521.7395
v 1109.3907 490.9748 509.7126
v 1193.6307 -191.6252 549.4926
v 1193.6307 -191.6252 549.4926
v 1109.3907 490.9748 509.7126
v 1200.6487 -191.3332 539.6403
v 1109.3907 490.9748 509.7126
v 1116.4087 491.2668 499.8603
v 1200.6487 -191.3332 539.6403
v 1200.6487 -191.3332 539.6403
v 1116.4087 491.2668 499.8603
v 1211.5989 -190.2754 534.6026
v 1116.4087 491.2668 499.8603
v 1127.3589 492.3246 494.8226
v 1211.5989 -190.2754 534.6026
v 1211.5989 -190.2754 534.6026
v 1127.3589 492.3246 494.8226
v 1223.5473 -188.7352 535.7293
v 1127.3589 492.3246 494.8226
v 1139.3073 493.8648 495.9493
v 1223.5473 -188.7352 535.7293
v 1223.5473 -188.7352 535.7293
v 1139.3073 493.8648 495.9493
v 1233.2922 -187.1253 542.7185
v 1139.3073 493.8648 495.9493
v 1149.0522 495.4747 502.9385
v 1233.2922 -187.1253 542.7185
v 1233.2922 -187.1253 542.7185
v 1149.0522 495.4747 502.9385
v 1238.2226 -185.8770 553.6975
v 1149.0522 495.4747 502.9385
v 1153.9826 496.7230 513.9175
v 1238.2226 -185.8770 553.6975
v 1238.2226 -185.8770 553.6975
v 1153.9826 496.7230 513.9175
v 1237.0173 -185.3248 565.7244
v 1153.9826 496.7230 513.9175
v 1152.7773 497.2752 525.9444
v 1237.0173 -185.3248 565.7244
v 1237.0173 -185.3248 565.7244
v 1152.7773 497.2752 525.9444
v 1229.9993 -185.6168 575.5767
v 1152.7773 497.2752 525.9444
v 1145.7593 496.9832 535.7967
v 1229.9993 -185.6168 575.5767
v 1229.9993 -185.6168 575.5767
v 1145.7593 496.9832 535.7967
v 1219.0491 -186.6746 580.6144
v 1145.7593 496.9832 535.7967
v 1134.8091 495.9254 540.8344
v 1219.0491 -186.6746 580.6144
v 1219.0491 -186.6746 580.6144
v 1134.8091 495.9254 540.8344
v 1207.1007 -188.2148 579.4877
v 1134.8091 495.9254 540.8344
v 1122.8607 494.3852 539.7077
v 1207.1007 -188.2148 579.4877
v 1207.1007 -188.2148 579.4877
v 1122.8607 494.3852 539.7077
v 1197.3558 -189.8247 572.4985
v 1122.8607 494.3852 539.7077
v 1113.1158 492.7753 532.7185
v 1197.3558 -189.8247 572.4985
v 1197.3558 -189.8247 572.4985
v 1192.4254 -191.0730 561.5195
v 1215.3240 -188.4750 557.6085
v 1192.4254 -191.0730 561.5195
v 1193.6307 -191.6252 549.4926
v 1215.3240 -188.4750 557.6085
v 1193.6307 -191.6252 549.4926
v 1200.6487 -191.3332 539.6403
v 1215.3240 -188.4750 557.6085
v 1200.6487 -191.3332 539.6403
v 1211.5989 -190.2754 534.6026
v 1215.3240 -188.4750 557.6085
v 1211.5989 -190.2754 534.6026
v 1223.5473 -188.7352 535.7293
v 1215.3240 -188.4750 557.6085
v 1223.5473 -188.7352 535.7293
v 1233.2922 -187.1253 542.7185
v 1215.3240 -188.4750 557.6085
v 1233.2922 -187.1253 542.7185
v 1238.2226 -185.8770 553.6975
v 1215.3240 -188.4750 557.6085
v 1238.2226 -185.8770 553.6975
v 1237.0173 -185.3248 565.7244
v 1215.3240 -188.4750 557.6085
v 1237.0173 -185.3248 565.7244
v 1229.9993 -185.6168 575.5767
v 1215.3240 -188.4750 557.6085
v 1229.9993 -185.6168 575.5767
v 1219.0491 -186.6746 580.6144
v 1215.3240 -188.4750 557.6085
v 1219.0491 -186.6746 580.6144
v 1207.1007 -188.2148 579.4877
v 1215.3240 -188.4750 557.6085
v 1207.1007 -188.2148 579.4877
v 1197.3558 -189.8247 572.4985
v 1215.3240 -188.4750 557.6085
v 1108.1854 491.5270 521.7395
v 1113.1158 492.7753 532.7185
v 1131.0840 494.1250 517.8285
v 1109.3907 490.9748 509.7126
v 1108.1854 491.5270 521.7395
v 1131.0840 494.1250 517.8285
v 1116.4087 491.2668 499.8603
v 1109.3907 490.9748 509.7126
v 1131.0840 494.1250 517.8285
v 1127.3589 492.3246 494.8226
v 1116.4087 491.2668 499.8603
v 1131.0840 494.1250 517.8285
v 1139.3073 493.8648 495.9493
v 1127.3589 492.3246 494.8226
v 1131.0840 494.1250 517.8285
v 1149.0522 495.4747 502.9385
v 1139.3073 493.8648 495.9493
v 1131.0840 494.1250 517.8285
v 1153.9826 496.7230 513.9175
v 1149.0522 495.4747 502.9385
v 1131.0840 494.1250 517.8285
v 1152.7773 497.2752 525.9444
v 1153.9826 496.7230 513.9175
v 1131.0840 494.1250 517.8285
v 1145.7593 496.9832 535.7967
v 1152.7773 497.2752 525.9444
v 1131.0840 494.1250 517.8285
v 1134.8091 495.9254 540.8344
v 1145.7593 496.9832 535.7967
v 1131.0840 494.1250 517.8285
v 1122.8607 494.3852 539.7077
v 1134.8091 495.9254 540.8344
v 1131.0840 494.1250 517.8285
v 1113.1158 492.7753 532.7185
v 1122.8607 494.3852 539.7077
v 1131.0840 494.1250 517.8285
v 1234.8000 521.2500 306.0000
v 1234.8000 33.7500 306.0000
v 1234.8000 521.2500 -306.0000
v 1234.8000 33.7500 306.0000
v 1234.8000 33.7500 -306.0000
v 1234.8000 521.2500 -306.0000
v 784.8000 521.2500 -306.0000
v 784.8000 33.7500 -306.0000
v 784.8000 521.2500 306.0000
v 784.8000 33.7500 -306.0000
v 784.8000 33.7500 306.0000
v 784.8000 521.2500 306.0000
v 784.8000 521.2500 -306.0000
v 784.8000 521.2500 306.0000
v 1234.8000 521.2500 -306.0000
v 784.8000 521.2500 306.0000
v 1234.8000 521.2500 306.0000
v 1234.8000 521.2500 -306.0000
v 784.8000 33.7500 306.0000
v 784.8000 33.7500 -306.0000
v 1234.8000 33.7500 306.0000
v 784.8000 33.7500 -306.0000
v 1234.8000 33.7500 -306.0000
v 1234.8000 33.7500 306.0000
v 784.8000 521.2500 306.0000
v 784.8000 33.7500 306.0000
v 1234.8000 521.2500 306.0000
v 784.8000 33.7500 306.0000
v 1234.8000 33.7500 306.0000
v 1234.8000 521.2500 306.0000
v 1234.8000 521.2500 -306.0000
v 1234.8000 33.7500 -306.0000
v 784.8000 521.2500 -306.0000
v 1234.8000 33.7500 -306.0000
v 784.8000 33.7500 -306.0000
v 784.8000 521.2500 -306.0000
f 1 2 3
f 4 5 6
f 7 8 9
f 10 11 12
f 13 14 15
f 16 17 18
f 19 20 21
f 22 23 24
f 25 26 27
f 28 29 30
f 31 32 33
f 34 35 36
f 37 38 39
f 40 41 42
f 43 44 45
f 46 47 48
f 49 50 51
f 52 53 54
f 55 56 57
f 58 59 60
f 61 62 63
f 64 65 66
f 67 68 69
f 70 71 72
f 73 74 75
f 76 77 78
f 79 80 81
f 82 83 84
f 85 86 87
f 88 89 90
f 91 92 93
f 94 95 96
f 97 98 99
f 100 101 102
f 103 104 105
f 106 107 108
f 109 110 111
f 112 113 114
f 115 116 117
f 118 119 120
f 121 122 123
f 124 125 126
f 127 128 129
f 130 131 132
f 133 134 135
f 136 137 138
f 139 140 141
f 142 143 144
f 145 146 147
f 148 149 150
f 151 152 153
f 154 155 156
f 157 158 159
f 160 161 162
f 163 164 165
f 166 167 168
f 169 170 171
f 172 173 174
f 175 176 177
f 178 179 180
f 181 182 183
f 184 185 186
f 187 188 189
f 190 191 192
f 193 194 195
f 196 197 198
f 199 200 201
f 202 203 204
f 205 206 207
f 208 209 210
f 211 212 213
f 214 215 216
f 217 218 219
f 220 221 222
f 223 224 225
f 226 227 228
f 229 230 231
f 232 233 234
f 235 236 237
f 238 239 240
f 241 242 243
f 244 245 246
f 247 248 249
f 250 251 252
f 253 254 255
f 256 257 258
f 259 260 261
f 262 263 264
f 265 266 267
f 268 269 270
f 271 272 273
f 274 275 276
f 277 278 279
f 280 281 282
f 283 284 285
f 286 287 288
f 289 290 291
f 292 293 294
f 295 296 297
f 298 299 300
f 301 302 303
f 304 305 306
f 307 308 309
f 310 311 312
f 313 314 315
f 316 317 318
f 319 320 321
f 322 323 324
f 325 326 327
f 328 329 330
f 331 332 333
f 334 335 336
f 337 338 339
f 340 341 342
f 343 344 345
f 346 347 348
f 349 350 351
f 352 353 354
f 355 356 357
f 358 359 360
f 361 362 363
f 364 365 366
f 367 368 369
f 370 371 372
f 373 374 375
f 376 377 378
f 379 380 381
f 382 383 384
f 385 386 387
f 388 389 390
f 391 392 393
f 394 395 396
f 397 398 399
f 400 401 402
f 403 404 405
f 406 407 408
f 409 410 411
f 412 413 414
f 415 416 417
f 418 419 420
f 421 422 423
f 424 425 426
f 427 428 429
f 430 431 432
f 433 434 435
f 436 437 438
f 439 440 441
f 442 443 444
f 445 446 447
f 448 449 450
f 451 452 453
f 454 455 456
f 457 458 459
f 460 461 462
f 463 464 465
f 466 467 468
f 469 470 471
f 472 473 474
f 475 476 477
f 478 479 480
f 481 482 483
f 484 485 486
f 487 488 489
f 490 491 492
f 493 494 495
f 496 497 498
f 499 500 501
f 502 503 504
f 505 506 507
f 508 509 510
f 511 512 513
f 514 515 516
f 517 518 519
f 520 521 522
f 523 524 525
f 526 527 528
f 529 530 531
f 532 533 534
f 535 536 537
f 538 539 540
f 541 542 543
f 544 545 546
f 547 548 549
f 550 551 552
f 553 554 555
f 556 557 558
f 559 560 561
f 562 563 564
f 565 566 567
f 568 569 570
f 571 572 573
f 574 575 576
f 577 578 579
f 580 581 582
f 583 584 585
f 586 587 588
f 589 590 591
f 592 593 594
f 595 596 597
f 598 599 600
f 601 602 603
f 604 605 606
f 607 608 609
f 610 611 612
f 613 614 615
f 616 617 618
f 619 620 621
f 622 623 624
f 625 626 627
f 628 629 630
f 631 632 633
f 634 635 636
f 637 638 639
f 640 641 642
f 643 644 645
f 646 647 648
