# MATERIA - Arabesco CM
# Geometria originale di studio. Unita mm. Non CAD del produttore.
v 475.0000 307.9500 330.0000
v 475.0000 271.6500 330.0000
v 475.0000 307.9500 -330.0000
v 475.0000 271.6500 330.0000
v 475.0000 271.6500 -330.0000
v 475.0000 307.9500 -330.0000
v -475.0000 307.9500 -330.0000
v -475.0000 271.6500 -330.0000
v -475.0000 307.9500 330.0000
v -475.0000 271.6500 -330.0000
v -475.0000 271.6500 330.0000
v -475.0000 307.9500 330.0000
v -475.0000 307.9500 -330.0000
v -475.0000 307.9500 330.0000
v 475.0000 307.9500 -330.0000
v -475.0000 307.9500 330.0000
v 475.0000 307.9500 330.0000
v 475.0000 307.9500 -330.0000
v -475.0000 271.6500 330.0000
v -475.0000 271.6500 -330.0000
v 475.0000 271.6500 330.0000
v -475.0000 271.6500 -330.0000
v 475.0000 271.6500 -330.0000
v 475.0000 271.6500 330.0000
v -475.0000 307.9500 330.0000
v -475.0000 271.6500 330.0000
v 475.0000 307.9500 330.0000
v -475.0000 271.6500 330.0000
v 475.0000 271.6500 330.0000
v 475.0000 307.9500 330.0000
v 475.0000 307.9500 -330.0000
v 475.0000 271.6500 -330.0000
v -475.0000 307.9500 -330.0000
v 475.0000 271.6500 -330.0000
v -475.0000 271.6500 -330.0000
v -475.0000 307.9500 -330.0000
v -658.3426 -25.4271 -426.5727
v -613.8826 348.7329 -395.6847
v -659.1790 -24.5585 -435.8901
v -613.8826 348.7329 -395.6847
v -614.7190 349.6015 -405.0021
v -659.1790 -24.5585 -435.8901
v -659.1790 -24.5585 -435.8901
v -614.7190 349.6015 -405.0021
v -655.2571 -24.3200 -444.4242
v -614.7190 349.6015 -405.0021
v -610.7971 349.8400 -413.5362
v -655.2571 -24.3200 -444.4242
v -655.2571 -24.3200 -444.4242
v -610.7971 349.8400 -413.5362
v -647.6279 -24.7755 -449.8882
v -610.7971 349.8400 -413.5362
v -603.1679 349.3845 -419.0002
v -647.6279 -24.7755 -449.8882
v -647.6279 -24.7755 -449.8882
v -603.1679 349.3845 -419.0002
v -638.3355 -25.8029 -450.8181
v -603.1679 349.3845 -419.0002
v -593.8755 348.3571 -419.9301
v -638.3355 -25.8029 -450.8181
v -638.3355 -25.8029 -450.8181
v -593.8755 348.3571 -419.9301
v -629.8699 -27.1270 -446.9647
v -593.8755 348.3571 -419.9301
v -585.4099 347.0330 -416.0767
v -629.8699 -27.1270 -446.9647
v -629.8699 -27.1270 -446.9647
v -585.4099 347.0330 -416.0767
v -624.4994 -28.3929 -439.3605
v -585.4099 347.0330 -416.0767
v -580.0394 345.7671 -408.4725
v -624.4994 -28.3929 -439.3605
v -624.4994 -28.3929 -439.3605
v -580.0394 345.7671 -408.4725
v -623.6630 -29.2615 -430.0431
v -580.0394 345.7671 -408.4725
v -579.2030 344.8985 -399.1551
v -623.6630 -29.2615 -430.0431
v -623.6630 -29.2615 -430.0431
v -579.2030 344.8985 -399.1551
v -627.5849 -29.5000 -421.5090
v -579.2030 344.8985 -399.1551
v -583.1249 344.6600 -390.6210
v -627.5849 -29.5000 -421.5090
v -627.5849 -29.5000 -421.5090
v -583.1249 344.6600 -390.6210
v -635.2141 -29.0445 -416.0450
v -583.1249 344.6600 -390.6210
v -590.7541 345.1155 -385.1570
v -635.2141 -29.0445 -416.0450
v -635.2141 -29.0445 -416.0450
v -590.7541 345.1155 -385.1570
v -644.5065 -28.0171 -415.1151
v -590.7541 345.1155 -385.1570
v -600.0465 346.1429 -384.2271
v -644.5065 -28.0171 -415.1151
v -644.5065 -28.0171 -415.1151
v -600.0465 346.1429 -384.2271
v -652.9721 -26.6930 -418.9685
v -600.0465 346.1429 -384.2271
v -608.5121 347.4670 -388.0805
v -652.9721 -26.6930 -418.9685
v -652.9721 -26.6930 -418.9685
v -608.5121 347.4670 -388.0805
v -658.3426 -25.4271 -426.5727
v -608.5121 347.4670 -388.0805
v -613.8826 348.7329 -395.6847
v -658.3426 -25.4271 -426.5727
v -658.3426 -25.4271 -426.5727
v -659.1790 -24.5585 -435.8901
v -641.4210 -26.9100 -432.9666
v -659.1790 -24.5585 -435.8901
v -655.2571 -24.3200 -444.4242
v -641.4210 -26.9100 -432.9666
v -655.2571 -24.3200 -444.4242
v -647.6279 -24.7755 -449.8882
v -641.4210 -26.9100 -432.9666
v -647.6279 -24.7755 -449.8882
v -638.3355 -25.8029 -450.8181
v -641.4210 -26.9100 -432.9666
v -638.3355 -25.8029 -450.8181
v -629.8699 -27.1270 -446.9647
v -641.4210 -26.9100 -432.9666
v -629.8699 -27.1270 -446.9647
v -624.4994 -28.3929 -439.3605
v -641.4210 -26.9100 -432.9666
v -624.4994 -28.3929 -439.3605
v -623.6630 -29.2615 -430.0431
v -641.4210 -26.9100 -432.9666
v -623.6630 -29.2615 -430.0431
v -627.5849 -29.5000 -421.5090
v -641.4210 -26.9100 -432.9666
v -627.5849 -29.5000 -421.5090
v -635.2141 -29.0445 -416.0450
v -641.4210 -26.9100 -432.9666
v -635.2141 -29.0445 -416.0450
v -644.5065 -28.0171 -415.1151
v -641.4210 -26.9100 -432.9666
v -644.5065 -28.0171 -415.1151
v -652.9721 -26.6930 -418.9685
v -641.4210 -26.9100 -432.9666
v -652.9721 -26.6930 -418.9685
v -658.3426 -25.4271 -426.5727
v -641.4210 -26.9100 -432.9666
v -614.7190 349.6015 -405.0021
v -613.8826 348.7329 -395.6847
v -596.9610 347.2500 -402.0786
v -610.7971 349.8400 -413.5362
v -614.7190 349.6015 -405.0021
v -596.9610 347.2500 -402.0786
v -603.1679 349.3845 -419.0002
v -610.7971 349.8400 -413.5362
v -596.9610 347.2500 -402.0786
v -593.8755 348.3571 -419.9301
v -603.1679 349.3845 -419.0002
v -596.9610 347.2500 -402.0786
v -585.4099 347.0330 -416.0767
v -593.8755 348.3571 -419.9301
v -596.9610 347.2500 -402.0786
v -580.0394 345.7671 -408.4725
v -585.4099 347.0330 -416.0767
v -596.9610 347.2500 -402.0786
v -579.2030 344.8985 -399.1551
v -580.0394 345.7671 -408.4725
v -596.9610 347.2500 -402.0786
v -583.1249 344.6600 -390.6210
v -579.2030 344.8985 -399.1551
v -596.9610 347.2500 -402.0786
v -590.7541 345.1155 -385.1570
v -583.1249 344.6600 -390.6210
v -596.9610 347.2500 -402.0786
v -600.0465 346.1429 -384.2271
v -590.7541 345.1155 -385.1570
v -596.9610 347.2500 -402.0786
v -608.5121 347.4670 -388.0805
v -600.0465 346.1429 -384.2271
v -596.9610 347.2500 -402.0786
v -613.8826 348.7329 -395.6847
v -608.5121 347.4670 -388.0805
v -596.9610 347.2500 -402.0786
v 658.3426 50.1729 -426.5727
v 613.8826 424.3329 -395.6847
v 652.9721 48.9070 -418.9685
v 613.8826 424.3329 -395.6847
v 608.5121 423.0670 -388.0805
v 652.9721 48.9070 -418.9685
v 652.9721 48.9070 -418.9685
v 608.5121 423.0670 -388.0805
v 644.5065 47.5829 -415.1151
v 608.5121 423.0670 -388.0805
v 600.0465 421.7429 -384.2271
v 644.5065 47.5829 -415.1151
v 644.5065 47.5829 -415.1151
v 600.0465 421.7429 -384.2271
v 635.2141 46.5555 -416.0450
v 600.0465 421.7429 -384.2271
v 590.7541 420.7155 -385.1570
v 635.2141 46.5555 -416.0450
v 635.2141 46.5555 -416.0450
v 590.7541 420.7155 -385.1570
v 627.5849 46.1000 -421.5090
v 590.7541 420.7155 -385.1570
v 583.1249 420.2600 -390.6210
v 627.5849 46.1000 -421.5090
v 627.5849 46.1000 -421.5090
v 583.1249 420.2600 -390.6210
v 623.6630 46.3385 -430.0431
v 583.1249 420.2600 -390.6210
v 579.2030 420.4985 -399.1551
v 623.6630 46.3385 -430.0431
v 623.6630 46.3385 -430.0431
v 579.2030 420.4985 -399.1551
v 624.4994 47.2071 -439.3605
v 579.2030 420.4985 -399.1551
v 580.0394 421.3671 -408.4725
v 624.4994 47.2071 -439.3605
v 624.4994 47.2071 -439.3605
v 580.0394 421.3671 -408.4725
v 629.8699 48.4730 -446.9647
v 580.0394 421.3671 -408.4725
v 585.4099 422.6330 -416.0767
v 629.8699 48.4730 -446.9647
v 629.8699 48.4730 -446.9647
v 585.4099 422.6330 -416.0767
v 638.3355 49.7971 -450.8181
v 585.4099 422.6330 -416.0767
v 593.8755 423.9571 -419.9301
v 638.3355 49.7971 -450.8181
v 638.3355 49.7971 -450.8181
v 593.8755 423.9571 -419.9301
v 647.6279 50.8245 -449.8882
v 593.8755 423.9571 -419.9301
v 603.1679 424.9845 -419.0002
v 647.6279 50.8245 -449.8882
v 647.6279 50.8245 -449.8882
v 603.1679 424.9845 -419.0002
v 655.2571 51.2800 -444.4242
v 603.1679 424.9845 -419.0002
v 610.7971 425.4400 -413.5362
v 655.2571 51.2800 -444.4242
v 655.2571 51.2800 -444.4242
v 610.7971 425.4400 -413.5362
v 659.1790 51.0415 -435.8901
v 610.7971 425.4400 -413.5362
v 614.7190 425.2015 -405.0021
v 659.1790 51.0415 -435.8901
v 659.1790 51.0415 -435.8901
v 614.7190 425.2015 -405.0021
v 658.3426 50.1729 -426.5727
v 614.7190 425.2015 -405.0021
v 613.8826 424.3329 -395.6847
v 658.3426 50.1729 -426.5727
v 658.3426 50.1729 -426.5727
v 652.9721 48.9070 -418.9685
v 641.4210 48.6900 -432.9666
v 652.9721 48.9070 -418.9685
v 644.5065 47.5829 -415.1151
v 641.4210 48.6900 -432.9666
v 644.5065 47.5829 -415.1151
v 635.2141 46.5555 -416.0450
v 641.4210 48.6900 -432.9666
v 635.2141 46.5555 -416.0450
v 627.5849 46.1000 -421.5090
v 641.4210 48.6900 -432.9666
v 627.5849 46.1000 -421.5090
v 623.6630 46.3385 -430.0431
v 641.4210 48.6900 -432.9666
v 623.6630 46.3385 -430.0431
v 624.4994 47.2071 -439.3605
v 641.4210 48.6900 -432.9666
v 624.4994 47.2071 -439.3605
v 629.8699 48.4730 -446.9647
v 641.4210 48.6900 -432.9666
v 629.8699 48.4730 -446.9647
v 638.3355 49.7971 -450.8181
v 641.4210 48.6900 -432.9666
v 638.3355 49.7971 -450.8181
v 647.6279 50.8245 -449.8882
v 641.4210 48.6900 -432.9666
v 647.6279 50.8245 -449.8882
v 655.2571 51.2800 -444.4242
v 641.4210 48.6900 -432.9666
v 655.2571 51.2800 -444.4242
v 659.1790 51.0415 -435.8901
v 641.4210 48.6900 -432.9666
v 659.1790 51.0415 -435.8901
v 658.3426 50.1729 -426.5727
v 641.4210 48.6900 -432.9666
v 608.5121 423.0670 -388.0805
v 613.8826 424.3329 -395.6847
v 596.9610 422.8500 -402.0786
v 600.0465 421.7429 -384.2271
v 608.5121 423.0670 -388.0805
v 596.9610 422.8500 -402.0786
v 590.7541 420.7155 -385.1570
v 600.0465 421.7429 -384.2271
v 596.9610 422.8500 -402.0786
v 583.1249 420.2600 -390.6210
v 590.7541 420.7155 -385.1570
v 596.9610 422.8500 -402.0786
v 579.2030 420.4985 -399.1551
v 583.1249 420.2600 -390.6210
v 596.9610 422.8500 -402.0786
v 580.0394 421.3671 -408.4725
v 579.2030 420.4985 -399.1551
v 596.9610 422.8500 -402.0786
v 585.4099 422.6330 -416.0767
v 580.0394 421.3671 -408.4725
v 596.9610 422.8500 -402.0786
v 593.8755 423.9571 -419.9301
v 585.4099 422.6330 -416.0767
v 596.9610 422.8500 -402.0786
v 603.1679 424.9845 -419.0002
v 593.8755 423.9571 -419.9301
v 596.9610 422.8500 -402.0786
v 610.7971 425.4400 -413.5362
v 603.1679 424.9845 -419.0002
v 596.9610 422.8500 -402.0786
v 614.7190 425.2015 -405.0021
v 610.7971 425.4400 -413.5362
v 596.9610 422.8500 -402.0786
v 613.8826 424.3329 -395.6847
v 614.7190 425.2015 -405.0021
v 596.9610 422.8500 -402.0786
v -624.4994 122.8071 439.3605
v -580.0394 496.9671 408.4725
v -629.8699 124.0730 446.9647
v -580.0394 496.9671 408.4725
v -585.4099 498.2330 416.0767
v -629.8699 124.0730 446.9647
v -629.8699 124.0730 446.9647
v -585.4099 498.2330 416.0767
v -638.3355 125.3971 450.8181
v -585.4099 498.2330 416.0767
v -593.8755 499.5571 419.9301
v -638.3355 125.3971 450.8181
v -638.3355 125.3971 450.8181
v -593.8755 499.5571 419.9301
v -647.6279 126.4245 449.8882
v -593.8755 499.5571 419.9301
v -603.1679 500.5845 419.0002
v -647.6279 126.4245 449.8882
v -647.6279 126.4245 449.8882
v -603.1679 500.5845 419.0002
v -655.2571 126.8800 444.4242
v -603.1679 500.5845 419.0002
v -610.7971 501.0400 413.5362
v -655.2571 126.8800 444.4242
v -655.2571 126.8800 444.4242
v -610.7971 501.0400 413.5362
v -659.1790 126.6415 435.8901
v -610.7971 501.0400 413.5362
v -614.7190 500.8015 405.0021
v -659.1790 126.6415 435.8901
v -659.1790 126.6415 435.8901
v -614.7190 500.8015 405.0021
v -658.3426 125.7729 426.5727
v -614.7190 500.8015 405.0021
v -613.8826 499.9329 395.6847
v -658.3426 125.7729 426.5727
v -658.3426 125.7729 426.5727
v -613.8826 499.9329 395.6847
v -652.9721 124.5070 418.9685
v -613.8826 499.9329 395.6847
v -608.5121 498.6670 388.0805
v -652.9721 124.5070 418.9685
v -652.9721 124.5070 418.9685
v -608.5121 498.6670 388.0805
v -644.5065 123.1829 415.1151
v -608.5121 498.6670 388.0805
v -600.0465 497.3429 384.2271
v -644.5065 123.1829 415.1151
v -644.5065 123.1829 415.1151
v -600.0465 497.3429 384.2271
v -635.2141 122.1555 416.0450
v -600.0465 497.3429 384.2271
v -590.7541 496.3155 385.1570
v -635.2141 122.1555 416.0450
v -635.2141 122.1555 416.0450
v -590.7541 496.3155 385.1570
v -627.5849 121.7000 421.5090
v -590.7541 496.3155 385.1570
v -583.1249 495.8600 390.6210
v -627.5849 121.7000 421.5090
v -627.5849 121.7000 421.5090
v -583.1249 495.8600 390.6210
v -623.6630 121.9385 430.0431
v -583.1249 495.8600 390.6210
v -579.2030 496.0985 399.1551
v -623.6630 121.9385 430.0431
v -623.6630 121.9385 430.0431
v -579.2030 496.0985 399.1551
v -624.4994 122.8071 439.3605
v -579.2030 496.0985 399.1551
v -580.0394 496.9671 408.4725
v -624.4994 122.8071 439.3605
v -624.4994 122.8071 439.3605
v -629.8699 124.0730 446.9647
v -641.4210 124.2900 432.9666
v -629.8699 124.0730 446.9647
v -638.3355 125.3971 450.8181
v -641.4210 124.2900 432.9666
v -638.3355 125.3971 450.8181
v -647.6279 126.4245 449.8882
v -641.4210 124.2900 432.9666
v -647.6279 126.4245 449.8882
v -655.2571 126.8800 444.4242
v -641.4210 124.2900 432.9666
v -655.2571 126.8800 444.4242
v -659.1790 126.6415 435.8901
v -641.4210 124.2900 432.9666
v -659.1790 126.6415 435.8901
v -658.3426 125.7729 426.5727
v -641.4210 124.2900 432.9666
v -658.3426 125.7729 426.5727
v -652.9721 124.5070 418.9685
v -641.4210 124.2900 432.9666
v -652.9721 124.5070 418.9685
v -644.5065 123.1829 415.1151
v -641.4210 124.2900 432.9666
v -644.5065 123.1829 415.1151
v -635.2141 122.1555 416.0450
v -641.4210 124.2900 432.9666
v -635.2141 122.1555 416.0450
v -627.5849 121.7000 421.5090
v -641.4210 124.2900 432.9666
v -627.5849 121.7000 421.5090
v -623.6630 121.9385 430.0431
v -641.4210 124.2900 432.9666
v -623.6630 121.9385 430.0431
v -624.4994 122.8071 439.3605
v -641.4210 124.2900 432.9666
v -585.4099 498.2330 416.0767
v -580.0394 496.9671 408.4725
v -596.9610 498.4500 402.0786
v -593.8755 499.5571 419.9301
v -585.4099 498.2330 416.0767
v -596.9610 498.4500 402.0786
v -603.1679 500.5845 419.0002
v -593.8755 499.5571 419.9301
v -596.9610 498.4500 402.0786
v -610.7971 501.0400 413.5362
v -603.1679 500.5845 419.0002
v -596.9610 498.4500 402.0786
v -614.7190 500.8015 405.0021
v -610.7971 501.0400 413.5362
v -596.9610 498.4500 402.0786
v -613.8826 499.9329 395.6847
v -614.7190 500.8015 405.0021
v -596.9610 498.4500 402.0786
v -608.5121 498.6670 388.0805
v -613.8826 499.9329 395.6847
v -596.9610 498.4500 402.0786
v -600.0465 497.3429 384.2271
v -608.5121 498.6670 388.0805
v -596.9610 498.4500 402.0786
v -590.7541 496.3155 385.1570
v -600.0465 497.3429 384.2271
v -596.9610 498.4500 402.0786
v -583.1249 495.8600 390.6210
v -590.7541 496.3155 385.1570
v -596.9610 498.4500 402.0786
v -579.2030 496.0985 399.1551
v -583.1249 495.8600 390.6210
v -596.9610 498.4500 402.0786
v -580.0394 496.9671 408.4725
v -579.2030 496.0985 399.1551
v -596.9610 498.4500 402.0786
v 624.4994 -103.9929 439.3605
v 580.0394 270.1671 408.4725
v 623.6630 -104.8615 430.0431
v 580.0394 270.1671 408.4725
v 579.2030 269.2985 399.1551
v 623.6630 -104.8615 430.0431
v 623.6630 -104.8615 430.0431
v 579.2030 269.2985 399.1551
v 627.5849 -105.1000 421.5090
v 579.2030 269.2985 399.1551
v 583.1249 269.0600 390.6210
v 627.5849 -105.1000 421.5090
v 627.5849 -105.1000 421.5090
v 583.1249 269.0600 390.6210
v 635.2141 -104.6445 416.0450
v 583.1249 269.0600 390.6210
v 590.7541 269.5155 385.1570
v 635.2141 -104.6445 416.0450
v 635.2141 -104.6445 416.0450
v 590.7541 269.5155 385.1570
v 644.5065 -103.6171 415.1151
v 590.7541 269.5155 385.1570
v 600.0465 270.5429 384.2271
v 644.5065 -103.6171 415.1151
v 644.5065 -103.6171 415.1151
v 600.0465 270.5429 384.2271
v 652.9721 -102.2930 418.9685
v 600.0465 270.5429 384.2271
v 608.5121 271.8670 388.0805
v 652.9721 -102.2930 418.9685
v 652.9721 -102.2930 418.9685
v 608.5121 271.8670 388.0805
v 658.3426 -101.0271 426.5727
v 608.5121 271.8670 388.0805
v 613.8826 273.1329 395.6847
v 658.3426 -101.0271 426.5727
v 658.3426 -101.0271 426.5727
v 613.8826 273.1329 395.6847
v 659.1790 -100.1585 435.8901
v 613.8826 273.1329 395.6847
v 614.7190 274.0015 405.0021
v 659.1790 -100.1585 435.8901
v 659.1790 -100.1585 435.8901
v 614.7190 274.0015 405.0021
v 655.2571 -99.9200 444.4242
v 614.7190 274.0015 405.0021
v 610.7971 274.2400 413.5362
v 655.2571 -99.9200 444.4242
v 655.2571 -99.9200 444.4242
v 610.7971 274.2400 413.5362
v 647.6279 -100.3755 449.8882
v 610.7971 274.2400 413.5362
v 603.1679 273.7845 419.0002
v 647.6279 -100.3755 449.8882
v 647.6279 -100.3755 449.8882
v 603.1679 273.7845 419.0002
v 638.3355 -101.4029 450.8181
v 603.1679 273.7845 419.0002
v 593.8755 272.7571 419.9301
v 638.3355 -101.4029 450.8181
v 638.3355 -101.4029 450.8181
v 593.8755 272.7571 419.9301
v 629.8699 -102.7270 446.9647
v 593.8755 272.7571 419.9301
v 585.4099 271.4330 416.0767
v 629.8699 -102.7270 446.9647
v 629.8699 -102.7270 446.9647
v 585.4099 271.4330 416.0767
v 624.4994 -103.9929 439.3605
v 585.4099 271.4330 416.0767
v 580.0394 270.1671 408.4725
v 624.4994 -103.9929 439.3605
v 624.4994 -103.9929 439.3605
v 623.6630 -104.8615 430.0431
v 641.4210 -102.5100 432.9666
v 623.6630 -104.8615 430.0431
v 627.5849 -105.1000 421.5090
v 641.4210 -102.5100 432.9666
v 627.5849 -105.1000 421.5090
v 635.2141 -104.6445 416.0450
v 641.4210 -102.5100 432.9666
v 635.2141 -104.6445 416.0450
v 644.5065 -103.6171 415.1151
v 641.4210 -102.5100 432.9666
v 644.5065 -103.6171 415.1151
v 652.9721 -102.2930 418.9685
v 641.4210 -102.5100 432.9666
v 652.9721 -102.2930 418.9685
v 658.3426 -101.0271 426.5727
v 641.4210 -102.5100 432.9666
v 658.3426 -101.0271 426.5727
v 659.1790 -100.1585 435.8901
v 641.4210 -102.5100 432.9666
v 659.1790 -100.1585 435.8901
v 655.2571 -99.9200 444.4242
v 641.4210 -102.5100 432.9666
v 655.2571 -99.9200 444.4242
v 647.6279 -100.3755 449.8882
v 641.4210 -102.5100 432.9666
v 647.6279 -100.3755 449.8882
v 638.3355 -101.4029 450.8181
v 641.4210 -102.5100 432.9666
v 638.3355 -101.4029 450.8181
v 629.8699 -102.7270 446.9647
v 641.4210 -102.5100 432.9666
v 629.8699 -102.7270 446.9647
v 624.4994 -103.9929 439.3605
v 641.4210 -102.5100 432.9666
v 579.2030 269.2985 399.1551
v 580.0394 270.1671 408.4725
v 596.9610 271.6500 402.0786
v 583.1249 269.0600 390.6210
v 579.2030 269.2985 399.1551
v 596.9610 271.6500 402.0786
v 590.7541 269.5155 385.1570
v 583.1249 269.0600 390.6210
v 596.9610 271.6500 402.0786
v 600.0465 270.5429 384.2271
v 590.7541 269.5155 385.1570
v 596.9610 271.6500 402.0786
v 608.5121 271.8670 388.0805
v 600.0465 270.5429 384.2271
v 596.9610 271.6500 402.0786
v 613.8826 273.1329 395.6847
v 608.5121 271.8670 388.0805
v 596.9610 271.6500 402.0786
v 614.7190 274.0015 405.0021
v 613.8826 273.1329 395.6847
v 596.9610 271.6500 402.0786
v 610.7971 274.2400 413.5362
v 614.7190 274.0015 405.0021
v 596.9610 271.6500 402.0786
v 603.1679 273.7845 419.0002
v 610.7971 274.2400 413.5362
v 596.9610 271.6500 402.0786
v 593.8755 272.7571 419.9301
v 603.1679 273.7845 419.0002
v 596.9610 271.6500 402.0786
v 585.4099 271.4330 416.0767
v 593.8755 272.7571 419.9301
v 596.9610 271.6500 402.0786
v 580.0394 270.1671 408.4725
v 585.4099 271.4330 416.0767
v 596.9610 271.6500 402.0786
f 1 2 3
f 4 5 6
f 7 8 9
f 10 11 12
f 13 14 15
f 16 17 18
f 19 20 21
f 22 23 24
f 25 26 27
f 28 29 30
f 31 32 33
f 34 35 36
f 37 38 39
f 40 41 42
f 43 44 45
f 46 47 48
f 49 50 51
f 52 53 54
f 55 56 57
f 58 59 60
f 61 62 63
f 64 65 66
f 67 68 69
f 70 71 72
f 73 74 75
f 76 77 78
f 79 80 81
f 82 83 84
f 85 86 87
f 88 89 90
f 91 92 93
f 94 95 96
f 97 98 99
f 100 101 102
f 103 104 105
f 106 107 108
f 109 110 111
f 112 113 114
f 115 116 117
f 118 119 120
f 121 122 123
f 124 125 126
f 127 128 129
f 130 131 132
f 133 134 135
f 136 137 138
f 139 140 141
f 142 143 144
f 145 146 147
f 148 149 150
f 151 152 153
f 154 155 156
f 157 158 159
f 160 161 162
f 163 164 165
f 166 167 168
f 169 170 171
f 172 173 174
f 175 176 177
f 178 179 180
f 181 182 183
f 184 185 186
f 187 188 189
f 190 191 192
f 193 194 195
f 196 197 198
f 199 200 201
f 202 203 204
f 205 206 207
f 208 209 210
f 211 212 213
f 214 215 216
f 217 218 219
f 220 221 222
f 223 224 225
f 226 227 228
f 229 230 231
f 232 233 234
f 235 236 237
f 238 239 240
f 241 242 243
f 244 245 246
f 247 248 249
f 250 251 252
f 253 254 255
f 256 257 258
f 259 260 261
f 262 263 264
f 265 266 267
f 268 269 270
f 271 272 273
f 274 275 276
f 277 278 279
f 280 281 282
f 283 284 285
f 286 287 288
f 289 290 291
f 292 293 294
f 295 296 297
f 298 299 300
f 301 302 303
f 304 305 306
f 307 308 309
f 310 311 312
f 313 314 315
f 316 317 318
f 319 320 321
f 322 323 324
f 325 326 327
f 328 329 330
f 331 332 333
f 334 335 336
f 337 338 339
f 340 341 342
f 343 344 345
f 346 347 348
f 349 350 351
f 352 353 354
f 355 356 357
f 358 359 360
f 361 362 363
f 364 365 366
f 367 368 369
f 370 371 372
f 373 374 375
f 376 377 378
f 379 380 381
f 382 383 384
f 385 386 387
f 388 389 390
f 391 392 393
f 394 395 396
f 397 398 399
f 400 401 402
f 403 404 405
f 406 407 408
f 409 410 411
f 412 413 414
f 415 416 417
f 418 419 420
f 421 422 423
f 424 425 426
f 427 428 429
f 430 431 432
f 433 434 435
f 436 437 438
f 439 440 441
f 442 443 444
f 445 446 447
f 448 449 450
f 451 452 453
f 454 455 456
f 457 458 459
f 460 461 462
f 463 464 465
f 466 467 468
f 469 470 471
f 472 473 474
f 475 476 477
f 478 479 480
f 481 482 483
f 484 485 486
f 487 488 489
f 490 491 492
f 493 494 495
f 496 497 498
f 499 500 501
f 502 503 504
f 505 506 507
f 508 509 510
f 511 512 513
f 514 515 516
f 517 518 519
f 520 521 522
f 523 524 525
f 526 527 528
f 529 530 531
f 532 533 534
f 535 536 537
f 538 539 540
f 541 542 543
f 544 545 546
f 547 548 549
f 550 551 552
f 553 554 555
f 556 557 558
f 559 560 561
f 562 563 564
f 565 566 567
f 568 569 570
f 571 572 573
f 574 575 576
f 577 578 579
f 580 581 582
f 583 584 585
f 586 587 588
f 589 590 591
f 592 593 594
f 595 596 597
f 598 599 600
f 601 602 603
f 604 605 606
f 607 608 609
f 610 611 612
