# MATERIA - Cumano
# Geometria originale di studio. Unita mm. Non CAD del produttore.
v 0.0000 308.7750 305.0000
v 0.0000 275.2250 305.0000
v 200.0000 308.7750 264.1377
v 0.0000 275.2250 305.0000
v 200.0000 275.2250 264.1377
v 200.0000 308.7750 264.1377
v 200.0000 308.7750 264.1377
v 200.0000 275.2250 264.1377
v 346.4102 308.7750 152.5000
v 200.0000 275.2250 264.1377
v 346.4102 275.2250 152.5000
v 346.4102 308.7750 152.5000
v 346.4102 308.7750 152.5000
v 346.4102 275.2250 152.5000
v 400.0000 308.7750 0.0000
v 346.4102 275.2250 152.5000
v 400.0000 275.2250 0.0000
v 400.0000 308.7750 0.0000
v 400.0000 308.7750 0.0000
v 400.0000 275.2250 0.0000
v 346.4102 308.7750 -152.5000
v 400.0000 275.2250 0.0000
v 346.4102 275.2250 -152.5000
v 346.4102 308.7750 -152.5000
v 346.4102 308.7750 -152.5000
v 346.4102 275.2250 -152.5000
v 200.0000 308.7750 -264.1377
v 346.4102 275.2250 -152.5000
v 200.0000 275.2250 -264.1377
v 200.0000 308.7750 -264.1377
v 200.0000 308.7750 -264.1377
v 200.0000 275.2250 -264.1377
v 0.0000 308.7750 -305.0000
v 200.0000 275.2250 -264.1377
v 0.0000 275.2250 -305.0000
v 0.0000 308.7750 -305.0000
v 0.0000 308.7750 -305.0000
v 0.0000 275.2250 -305.0000
v -200.0000 308.7750 -264.1377
v 0.0000 275.2250 -305.0000
v -200.0000 275.2250 -264.1377
v -200.0000 308.7750 -264.1377
v -200.0000 308.7750 -264.1377
v -200.0000 275.2250 -264.1377
v -346.4102 308.7750 -152.5000
v -200.0000 275.2250 -264.1377
v -346.4102 275.2250 -152.5000
v -346.4102 308.7750 -152.5000
v -346.4102 308.7750 -152.5000
v -346.4102 275.2250 -152.5000
v -400.0000 308.7750 -0.0000
v -346.4102 275.2250 -152.5000
v -400.0000 275.2250 -0.0000
v -400.0000 308.7750 -0.0000
v -400.0000 308.7750 -0.0000
v -400.0000 275.2250 -0.0000
v -346.4102 308.7750 152.5000
v -400.0000 275.2250 -0.0000
v -346.4102 275.2250 152.5000
v -346.4102 308.7750 152.5000
v -346.4102 308.7750 152.5000
v -346.4102 275.2250 152.5000
v -200.0000 308.7750 264.1377
v -346.4102 275.2250 152.5000
v -200.0000 275.2250 264.1377
v -200.0000 308.7750 264.1377
v -200.0000 308.7750 264.1377
v -200.0000 275.2250 264.1377
v -0.0000 308.7750 305.0000
v -200.0000 275.2250 264.1377
v -0.0000 275.2250 305.0000
v -0.0000 308.7750 305.0000
v 0.0000 308.7750 305.0000
v 200.0000 308.7750 264.1377
v 0.0000 308.7750 0.0000
v 200.0000 308.7750 264.1377
v 346.4102 308.7750 152.5000
v 0.0000 308.7750 0.0000
v 346.4102 308.7750 152.5000
v 400.0000 308.7750 0.0000
v 0.0000 308.7750 0.0000
v 400.0000 308.7750 0.0000
v 346.4102 308.7750 -152.5000
v 0.0000 308.7750 0.0000
v 346.4102 308.7750 -152.5000
v 200.0000 308.7750 -264.1377
v 0.0000 308.7750 0.0000
v 200.0000 308.7750 -264.1377
v 0.0000 308.7750 -305.0000
v 0.0000 308.7750 0.0000
v 0.0000 308.7750 -305.0000
v -200.0000 308.7750 -264.1377
v 0.0000 308.7750 0.0000
v -200.0000 308.7750 -264.1377
v -346.4102 308.7750 -152.5000
v 0.0000 308.7750 0.0000
v -346.4102 308.7750 -152.5000
v -400.0000 308.7750 -0.0000
v 0.0000 308.7750 0.0000
v -400.0000 308.7750 -0.0000
v -346.4102 308.7750 152.5000
v 0.0000 308.7750 0.0000
v -346.4102 308.7750 152.5000
v -200.0000 308.7750 264.1377
v 0.0000 308.7750 0.0000
v -200.0000 308.7750 264.1377
v -0.0000 308.7750 305.0000
v 0.0000 308.7750 0.0000
v 200.0000 275.2250 264.1377
v 0.0000 275.2250 305.0000
v 0.0000 275.2250 0.0000
v 346.4102 275.2250 152.5000
v 200.0000 275.2250 264.1377
v 0.0000 275.2250 0.0000
v 400.0000 275.2250 0.0000
v 346.4102 275.2250 152.5000
v 0.0000 275.2250 0.0000
v 346.4102 275.2250 -152.5000
v 400.0000 275.2250 0.0000
v 0.0000 275.2250 0.0000
v 200.0000 275.2250 -264.1377
v 346.4102 275.2250 -152.5000
v 0.0000 275.2250 0.0000
v 0.0000 275.2250 -305.0000
v 200.0000 275.2250 -264.1377
v 0.0000 275.2250 0.0000
v -200.0000 275.2250 -264.1377
v 0.0000 275.2250 -305.0000
v 0.0000 275.2250 0.0000
v -346.4102 275.2250 -152.5000
v -200.0000 275.2250 -264.1377
v 0.0000 275.2250 0.0000
v -400.0000 275.2250 -0.0000
v -346.4102 275.2250 -152.5000
v 0.0000 275.2250 0.0000
v -346.4102 275.2250 152.5000
v -400.0000 275.2250 -0.0000
v 0.0000 275.2250 0.0000
v -200.0000 275.2250 264.1377
v -346.4102 275.2250 152.5000
v 0.0000 275.2250 0.0000
v -0.0000 275.2250 305.0000
v -200.0000 275.2250 264.1377
v 0.0000 275.2250 0.0000
v -556.2570 -24.6618 -395.6773
v -518.8170 348.4982 -367.1293
v -556.2767 -23.9974 -404.3352
v -518.8170 348.4982 -367.1293
v -518.8367 349.1626 -375.7872
v -556.2767 -23.9974 -404.3352
v -556.2767 -23.9974 -404.3352
v -518.8367 349.1626 -375.7872
v -551.9737 -23.8523 -411.8760
v -518.8367 349.1626 -375.7872
v -514.5337 349.3077 -383.3280
v -551.9737 -23.8523 -411.8760
v -551.9737 -23.8523 -411.8760
v -514.5337 349.3077 -383.3280
v -544.5009 -24.2652 -416.2791
v -514.5337 349.3077 -383.3280
v -507.0609 348.8948 -387.7311
v -544.5009 -24.2652 -416.2791
v -544.5009 -24.2652 -416.2791
v -507.0609 348.8948 -387.7311
v -535.8606 -25.1255 -416.3648
v -507.0609 348.8948 -387.7311
v -498.4206 348.0345 -387.8168
v -535.8606 -25.1255 -416.3648
v -535.8606 -25.1255 -416.3648
v -498.4206 348.0345 -387.8168
v -528.3681 -26.2027 -412.1100
v -498.4206 348.0345 -387.8168
v -490.9281 346.9573 -383.5620
v -528.3681 -26.2027 -412.1100
v -528.3681 -26.2027 -412.1100
v -490.9281 346.9573 -383.5620
v -524.0310 -27.2082 -404.6549
v -490.9281 346.9573 -383.5620
v -486.5910 345.9518 -376.1069
v -524.0310 -27.2082 -404.6549
v -524.0310 -27.2082 -404.6549
v -486.5910 345.9518 -376.1069
v -524.0113 -27.8726 -395.9970
v -486.5910 345.9518 -376.1069
v -486.5713 345.2874 -367.4490
v -524.0113 -27.8726 -395.9970
v -524.0113 -27.8726 -395.9970
v -486.5713 345.2874 -367.4490
v -528.3143 -28.0177 -388.4562
v -486.5713 345.2874 -367.4490
v -490.8743 345.1423 -359.9082
v -528.3143 -28.0177 -388.4562
v -528.3143 -28.0177 -388.4562
v -490.8743 345.1423 -359.9082
v -535.7871 -27.6048 -384.0531
v -490.8743 345.1423 -359.9082
v -498.3471 345.5552 -355.5051
v -535.7871 -27.6048 -384.0531
v -535.7871 -27.6048 -384.0531
v -498.3471 345.5552 -355.5051
v -544.4274 -26.7445 -383.9674
v -498.3471 345.5552 -355.5051
v -506.9874 346.4155 -355.4194
v -544.4274 -26.7445 -383.9674
v -544.4274 -26.7445 -383.9674
v -506.9874 346.4155 -355.4194
v -551.9199 -25.6673 -388.2222
v -506.9874 346.4155 -355.4194
v -514.4799 347.4927 -359.6742
v -551.9199 -25.6673 -388.2222
v -551.9199 -25.6673 -388.2222
v -514.4799 347.4927 -359.6742
v -556.2570 -24.6618 -395.6773
v -514.4799 347.4927 -359.6742
v -518.8170 348.4982 -367.1293
v -556.2570 -24.6618 -395.6773
v -556.2570 -24.6618 -395.6773
v -556.2767 -23.9974 -404.3352
v -540.1440 -25.9350 -400.1661
v -556.2767 -23.9974 -404.3352
v -551.9737 -23.8523 -411.8760
v -540.1440 -25.9350 -400.1661
v -551.9737 -23.8523 -411.8760
v -544.5009 -24.2652 -416.2791
v -540.1440 -25.9350 -400.1661
v -544.5009 -24.2652 -416.2791
v -535.8606 -25.1255 -416.3648
v -540.1440 -25.9350 -400.1661
v -535.8606 -25.1255 -416.3648
v -528.3681 -26.2027 -412.1100
v -540.1440 -25.9350 -400.1661
v -528.3681 -26.2027 -412.1100
v -524.0310 -27.2082 -404.6549
v -540.1440 -25.9350 -400.1661
v -524.0310 -27.2082 -404.6549
v -524.0113 -27.8726 -395.9970
v -540.1440 -25.9350 -400.1661
v -524.0113 -27.8726 -395.9970
v -528.3143 -28.0177 -388.4562
v -540.1440 -25.9350 -400.1661
v -528.3143 -28.0177 -388.4562
v -535.7871 -27.6048 -384.0531
v -540.1440 -25.9350 -400.1661
v -535.7871 -27.6048 -384.0531
v -544.4274 -26.7445 -383.9674
v -540.1440 -25.9350 -400.1661
v -544.4274 -26.7445 -383.9674
v -551.9199 -25.6673 -388.2222
v -540.1440 -25.9350 -400.1661
v -551.9199 -25.6673 -388.2222
v -556.2570 -24.6618 -395.6773
v -540.1440 -25.9350 -400.1661
v -518.8367 349.1626 -375.7872
v -518.8170 348.4982 -367.1293
v -502.7040 347.2250 -371.6181
v -514.5337 349.3077 -383.3280
v -518.8367 349.1626 -375.7872
v -502.7040 347.2250 -371.6181
v -507.0609 348.8948 -387.7311
v -514.5337 349.3077 -383.3280
v -502.7040 347.2250 -371.6181
v -498.4206 348.0345 -387.8168
v -507.0609 348.8948 -387.7311
v -502.7040 347.2250 -371.6181
v -490.9281 346.9573 -383.5620
v -498.4206 348.0345 -387.8168
v -502.7040 347.2250 -371.6181
v -486.5910 345.9518 -376.1069
v -490.9281 346.9573 -383.5620
v -502.7040 347.2250 -371.6181
v -486.5713 345.2874 -367.4490
v -486.5910 345.9518 -376.1069
v -502.7040 347.2250 -371.6181
v -490.8743 345.1423 -359.9082
v -486.5713 345.2874 -367.4490
v -502.7040 347.2250 -371.6181
v -498.3471 345.5552 -355.5051
v -490.8743 345.1423 -359.9082
v -502.7040 347.2250 -371.6181
v -506.9874 346.4155 -355.4194
v -498.3471 345.5552 -355.5051
v -502.7040 347.2250 -371.6181
v -514.4799 347.4927 -359.6742
v -506.9874 346.4155 -355.4194
v -502.7040 347.2250 -371.6181
v -518.8170 348.4982 -367.1293
v -514.4799 347.4927 -359.6742
v -502.7040 347.2250 -371.6181
v 556.2570 47.3382 -395.6773
v 518.8170 420.4982 -367.1293
v 551.9199 46.3327 -388.2222
v 518.8170 420.4982 -367.1293
v 514.4799 419.4927 -359.6742
v 551.9199 46.3327 -388.2222
v 551.9199 46.3327 -388.2222
v 514.4799 419.4927 -359.6742
v 544.4274 45.2555 -383.9674
v 514.4799 419.4927 -359.6742
v 506.9874 418.4155 -355.4194
v 544.4274 45.2555 -383.9674
v 544.4274 45.2555 -383.9674
v 506.9874 418.4155 -355.4194
v 535.7871 44.3952 -384.0531
v 506.9874 418.4155 -355.4194
v 498.3471 417.5552 -355.5051
v 535.7871 44.3952 -384.0531
v 535.7871 44.3952 -384.0531
v 498.3471 417.5552 -355.5051
v 528.3143 43.9823 -388.4562
v 498.3471 417.5552 -355.5051
v 490.8743 417.1423 -359.9082
v 528.3143 43.9823 -388.4562
v 528.3143 43.9823 -388.4562
v 490.8743 417.1423 -359.9082
v 524.0113 44.1274 -395.9970
v 490.8743 417.1423 -359.9082
v 486.5713 417.2874 -367.4490
v 524.0113 44.1274 -395.9970
v 524.0113 44.1274 -395.9970
v 486.5713 417.2874 -367.4490
v 524.0310 44.7918 -404.6549
v 486.5713 417.2874 -367.4490
v 486.5910 417.9518 -376.1069
v 524.0310 44.7918 -404.6549
v 524.0310 44.7918 -404.6549
v 486.5910 417.9518 -376.1069
v 528.3681 45.7973 -412.1100
v 486.5910 417.9518 -376.1069
v 490.9281 418.9573 -383.5620
v 528.3681 45.7973 -412.1100
v 528.3681 45.7973 -412.1100
v 490.9281 418.9573 -383.5620
v 535.8606 46.8745 -416.3648
v 490.9281 418.9573 -383.5620
v 498.4206 420.0345 -387.8168
v 535.8606 46.8745 -416.3648
v 535.8606 46.8745 -416.3648
v 498.4206 420.0345 -387.8168
v 544.5009 47.7348 -416.2791
v 498.4206 420.0345 -387.8168
v 507.0609 420.8948 -387.7311
v 544.5009 47.7348 -416.2791
v 544.5009 47.7348 -416.2791
v 507.0609 420.8948 -387.7311
v 551.9737 48.1477 -411.8760
v 507.0609 420.8948 -387.7311
v 514.5337 421.3077 -383.3280
v 551.9737 48.1477 -411.8760
v 551.9737 48.1477 -411.8760
v 514.5337 421.3077 -383.3280
v 556.2767 48.0026 -404.3352
v 514.5337 421.3077 -383.3280
v 518.8367 421.1626 -375.7872
v 556.2767 48.0026 -404.3352
v 556.2767 48.0026 -404.3352
v 518.8367 421.1626 -375.7872
v 556.2570 47.3382 -395.6773
v 518.8367 421.1626 -375.7872
v 518.8170 420.4982 -367.1293
v 556.2570 47.3382 -395.6773
v 556.2570 47.3382 -395.6773
v 551.9199 46.3327 -388.2222
v 540.1440 46.0650 -400.1661
v 551.9199 46.3327 -388.2222
v 544.4274 45.2555 -383.9674
v 540.1440 46.0650 -400.1661
v 544.4274 45.2555 -383.9674
v 535.7871 44.3952 -384.0531
v 540.1440 46.0650 -400.1661
v 535.7871 44.3952 -384.0531
v 528.3143 43.9823 -388.4562
v 540.1440 46.0650 -400.1661
v 528.3143 43.9823 -388.4562
v 524.0113 44.1274 -395.9970
v 540.1440 46.0650 -400.1661
v 524.0113 44.1274 -395.9970
v 524.0310 44.7918 -404.6549
v 540.1440 46.0650 -400.1661
v 524.0310 44.7918 -404.6549
v 528.3681 45.7973 -412.1100
v 540.1440 46.0650 -400.1661
v 528.3681 45.7973 -412.1100
v 535.8606 46.8745 -416.3648
v 540.1440 46.0650 -400.1661
v 535.8606 46.8745 -416.3648
v 544.5009 47.7348 -416.2791
v 540.1440 46.0650 -400.1661
v 544.5009 47.7348 -416.2791
v 551.9737 48.1477 -411.8760
v 540.1440 46.0650 -400.1661
v 551.9737 48.1477 -411.8760
v 556.2767 48.0026 -404.3352
v 540.1440 46.0650 -400.1661
v 556.2767 48.0026 -404.3352
v 556.2570 47.3382 -395.6773
v 540.1440 46.0650 -400.1661
v 514.4799 419.4927 -359.6742
v 518.8170 420.4982 -367.1293
v 502.7040 419.2250 -371.6181
v 506.9874 418.4155 -355.4194
v 514.4799 419.4927 -359.6742
v 502.7040 419.2250 -371.6181
v 498.3471 417.5552 -355.5051
v 506.9874 418.4155 -355.4194
v 502.7040 419.2250 -371.6181
v 490.8743 417.1423 -359.9082
v 498.3471 417.5552 -355.5051
v 502.7040 419.2250 -371.6181
v 486.5713 417.2874 -367.4490
v 490.8743 417.1423 -359.9082
v 502.7040 419.2250 -371.6181
v 486.5910 417.9518 -376.1069
v 486.5713 417.2874 -367.4490
v 502.7040 419.2250 -371.6181
v 490.9281 418.9573 -383.5620
v 486.5910 417.9518 -376.1069
v 502.7040 419.2250 -371.6181
v 498.4206 420.0345 -387.8168
v 490.9281 418.9573 -383.5620
v 502.7040 419.2250 -371.6181
v 507.0609 420.8948 -387.7311
v 498.4206 420.0345 -387.8168
v 502.7040 419.2250 -371.6181
v 514.5337 421.3077 -383.3280
v 507.0609 420.8948 -387.7311
v 502.7040 419.2250 -371.6181
v 518.8367 421.1626 -375.7872
v 514.5337 421.3077 -383.3280
v 502.7040 419.2250 -371.6181
v 518.8170 420.4982 -367.1293
v 518.8367 421.1626 -375.7872
v 502.7040 419.2250 -371.6181
v -524.0310 116.7918 404.6549
v -486.5910 489.9518 376.1069
v -528.3681 117.7973 412.1100
v -486.5910 489.9518 376.1069
v -490.9281 490.9573 383.5620
v -528.3681 117.7973 412.1100
v -528.3681 117.7973 412.1100
v -490.9281 490.9573 383.5620
v -535.8606 118.8745 416.3648
v -490.9281 490.9573 383.5620
v -498.4206 492.0345 387.8168
v -535.8606 118.8745 416.3648
v -535.8606 118.8745 416.3648
v -498.4206 492.0345 387.8168
v -544.5009 119.7348 416.2791
v -498.4206 492.0345 387.8168
v -507.0609 492.8948 387.7311
v -544.5009 119.7348 416.2791
v -544.5009 119.7348 416.2791
v -507.0609 492.8948 387.7311
v -551.9737 120.1477 411.8760
v -507.0609 492.8948 387.7311
v -514.5337 493.3077 383.3280
v -551.9737 120.1477 411.8760
v -551.9737 120.1477 411.8760
v -514.5337 493.3077 383.3280
v -556.2767 120.0026 404.3352
v -514.5337 493.3077 383.3280
v -518.8367 493.1626 375.7872
v -556.2767 120.0026 404.3352
v -556.2767 120.0026 404.3352
v -518.8367 493.1626 375.7872
v -556.2570 119.3382 395.6773
v -518.8367 493.1626 375.7872
v -518.8170 492.4982 367.1293
v -556.2570 119.3382 395.6773
v -556.2570 119.3382 395.6773
v -518.8170 492.4982 367.1293
v -551.9199 118.3327 388.2222
v -518.8170 492.4982 367.1293
v -514.4799 491.4927 359.6742
v -551.9199 118.3327 388.2222
v -551.9199 118.3327 388.2222
v -514.4799 491.4927 359.6742
v -544.4274 117.2555 383.9674
v -514.4799 491.4927 359.6742
v -506.9874 490.4155 355.4194
v -544.4274 117.2555 383.9674
v -544.4274 117.2555 383.9674
v -506.9874 490.4155 355.4194
v -535.7871 116.3952 384.0531
v -506.9874 490.4155 355.4194
v -498.3471 489.5552 355.5051
v -535.7871 116.3952 384.0531
v -535.7871 116.3952 384.0531
v -498.3471 489.5552 355.5051
v -528.3143 115.9823 388.4562
v -498.3471 489.5552 355.5051
v -490.8743 489.1423 359.9082
v -528.3143 115.9823 388.4562
v -528.3143 115.9823 388.4562
v -490.8743 489.1423 359.9082
v -524.0113 116.1274 395.9970
v -490.8743 489.1423 359.9082
v -486.5713 489.2874 367.4490
v -524.0113 116.1274 395.9970
v -524.0113 116.1274 395.9970
v -486.5713 489.2874 367.4490
v -524.0310 116.7918 404.6549
v -486.5713 489.2874 367.4490
v -486.5910 489.9518 376.1069
v -524.0310 116.7918 404.6549
v -524.0310 116.7918 404.6549
v -528.3681 117.7973 412.1100
v -540.1440 118.0650 400.1661
v -528.3681 117.7973 412.1100
v -535.8606 118.8745 416.3648
v -540.1440 118.0650 400.1661
v -535.8606 118.8745 416.3648
v -544.5009 119.7348 416.2791
v -540.1440 118.0650 400.1661
v -544.5009 119.7348 416.2791
v -551.9737 120.1477 411.8760
v -540.1440 118.0650 400.1661
v -551.9737 120.1477 411.8760
v -556.2767 120.0026 404.3352
v -540.1440 118.0650 400.1661
v -556.2767 120.0026 404.3352
v -556.2570 119.3382 395.6773
v -540.1440 118.0650 400.1661
v -556.2570 119.3382 395.6773
v -551.9199 118.3327 388.2222
v -540.1440 118.0650 400.1661
v -551.9199 118.3327 388.2222
v -544.4274 117.2555 383.9674
v -540.1440 118.0650 400.1661
v -544.4274 117.2555 383.9674
v -535.7871 116.3952 384.0531
v -540.1440 118.0650 400.1661
v -535.7871 116.3952 384.0531
v -528.3143 115.9823 388.4562
v -540.1440 118.0650 400.1661
v -528.3143 115.9823 388.4562
v -524.0113 116.1274 395.9970
v -540.1440 118.0650 400.1661
v -524.0113 116.1274 395.9970
v -524.0310 116.7918 404.6549
v -540.1440 118.0650 400.1661
v -490.9281 490.9573 383.5620
v -486.5910 489.9518 376.1069
v -502.7040 491.2250 371.6181
v -498.4206 492.0345 387.8168
v -490.9281 490.9573 383.5620
v -502.7040 491.2250 371.6181
v -507.0609 492.8948 387.7311
v -498.4206 492.0345 387.8168
v -502.7040 491.2250 371.6181
v -514.5337 493.3077 383.3280
v -507.0609 492.8948 387.7311
v -502.7040 491.2250 371.6181
v -518.8367 493.1626 375.7872
v -514.5337 493.3077 383.3280
v -502.7040 491.2250 371.6181
v -518.8170 492.4982 367.1293
v -518.8367 493.1626 375.7872
v -502.7040 491.2250 371.6181
v -514.4799 491.4927 359.6742
v -518.8170 492.4982 367.1293
v -502.7040 491.2250 371.6181
v -506.9874 490.4155 355.4194
v -514.4799 491.4927 359.6742
v -502.7040 491.2250 371.6181
v -498.3471 489.5552 355.5051
v -506.9874 490.4155 355.4194
v -502.7040 491.2250 371.6181
v -490.8743 489.1423 359.9082
v -498.3471 489.5552 355.5051
v -502.7040 491.2250 371.6181
v -486.5713 489.2874 367.4490
v -490.8743 489.1423 359.9082
v -502.7040 491.2250 371.6181
v -486.5910 489.9518 376.1069
v -486.5713 489.2874 367.4490
v -502.7040 491.2250 371.6181
v 524.0310 -99.2082 404.6549
v 486.5910 273.9518 376.1069
v 524.0113 -99.8726 395.9970
v 486.5910 273.9518 376.1069
v 486.5713 273.2874 367.4490
v 524.0113 -99.8726 395.9970
v 524.0113 -99.8726 395.9970
v 486.5713 273.2874 367.4490
v 528.3143 -100.0177 388.4562
v 486.5713 273.2874 367.4490
v 490.8743 273.1423 359.9082
v 528.3143 -100.0177 388.4562
v 528.3143 -100.0177 388.4562
v 490.8743 273.1423 359.9082
v 535.7871 -99.6048 384.0531
v 490.8743 273.1423 359.9082
v 498.3471 273.5552 355.5051
v 535.7871 -99.6048 384.0531
v 535.7871 -99.6048 384.0531
v 498.3471 273.5552 355.5051
v 544.4274 -98.7445 383.9674
v 498.3471 273.5552 355.5051
v 506.9874 274.4155 355.4194
v 544.4274 -98.7445 383.9674
v 544.4274 -98.7445 383.9674
v 506.9874 274.4155 355.4194
v 551.9199 -97.6673 388.2222
v 506.9874 274.4155 355.4194
v 514.4799 275.4927 359.6742
v 551.9199 -97.6673 388.2222
v 551.9199 -97.6673 388.2222
v 514.4799 275.4927 359.6742
v 556.2570 -96.6618 395.6773
v 514.4799 275.4927 359.6742
v 518.8170 276.4982 367.1293
v 556.2570 -96.6618 395.6773
v 556.2570 -96.6618 395.6773
v 518.8170 276.4982 367.1293
v 556.2767 -95.9974 404.3352
v 518.8170 276.4982 367.1293
v 518.8367 277.1626 375.7872
v 556.2767 -95.9974 404.3352
v 556.2767 -95.9974 404.3352
v 518.8367 277.1626 375.7872
v 551.9737 -95.8523 411.8760
v 518.8367 277.1626 375.7872
v 514.5337 277.3077 383.3280
v 551.9737 -95.8523 411.8760
v 551.9737 -95.8523 411.8760
v 514.5337 277.3077 383.3280
v 544.5009 -96.2652 416.2791
v 514.5337 277.3077 383.3280
v 507.0609 276.8948 387.7311
v 544.5009 -96.2652 416.2791
v 544.5009 -96.2652 416.2791
v 507.0609 276.8948 387.7311
v 535.8606 -97.1255 416.3648
v 507.0609 276.8948 387.7311
v 498.4206 276.0345 387.8168
v 535.8606 -97.1255 416.3648
v 535.8606 -97.1255 416.3648
v 498.4206 276.0345 387.8168
v 528.3681 -98.2027 412.1100
v 498.4206 276.0345 387.8168
v 490.9281 274.9573 383.5620
v 528.3681 -98.2027 412.1100
v 528.3681 -98.2027 412.1100
v 490.9281 274.9573 383.5620
v 524.0310 -99.2082 404.6549
v 490.9281 274.9573 383.5620
v 486.5910 273.9518 376.1069
v 524.0310 -99.2082 404.6549
v 524.0310 -99.2082 404.6549
v 524.0113 -99.8726 395.9970
v 540.1440 -97.9350 400.1661
v 524.0113 -99.8726 395.9970
v 528.3143 -100.0177 388.4562
v 540.1440 -97.9350 400.1661
v 528.3143 -100.0177 388.4562
v 535.7871 -99.6048 384.0531
v 540.1440 -97.9350 400.1661
v 535.7871 -99.6048 384.0531
v 544.4274 -98.7445 383.9674
v 540.1440 -97.9350 400.1661
v 544.4274 -98.7445 383.9674
v 551.9199 -97.6673 388.2222
v 540.1440 -97.9350 400.1661
v 551.9199 -97.6673 388.2222
v 556.2570 -96.6618 395.6773
v 540.1440 -97.9350 400.1661
v 556.2570 -96.6618 395.6773
v 556.2767 -95.9974 404.3352
v 540.1440 -97.9350 400.1661
v 556.2767 -95.9974 404.3352
v 551.9737 -95.8523 411.8760
v 540.1440 -97.9350 400.1661
v 551.9737 -95.8523 411.8760
v 544.5009 -96.2652 416.2791
v 540.1440 -97.9350 400.1661
v 544.5009 -96.2652 416.2791
v 535.8606 -97.1255 416.3648
v 540.1440 -97.9350 400.1661
v 535.8606 -97.1255 416.3648
v 528.3681 -98.2027 412.1100
v 540.1440 -97.9350 400.1661
v 528.3681 -98.2027 412.1100
v 524.0310 -99.2082 404.6549
v 540.1440 -97.9350 400.1661
v 486.5713 273.2874 367.4490
v 486.5910 273.9518 376.1069
v 502.7040 275.2250 371.6181
v 490.8743 273.1423 359.9082
v 486.5713 273.2874 367.4490
v 502.7040 275.2250 371.6181
v 498.3471 273.5552 355.5051
v 490.8743 273.1423 359.9082
v 502.7040 275.2250 371.6181
v 506.9874 274.4155 355.4194
v 498.3471 273.5552 355.5051
v 502.7040 275.2250 371.6181
v 514.4799 275.4927 359.6742
v 506.9874 274.4155 355.4194
v 502.7040 275.2250 371.6181
v 518.8170 276.4982 367.1293
v 514.4799 275.4927 359.6742
v 502.7040 275.2250 371.6181
v 518.8367 277.1626 375.7872
v 518.8170 276.4982 367.1293
v 502.7040 275.2250 371.6181
v 514.5337 277.3077 383.3280
v 518.8367 277.1626 375.7872
v 502.7040 275.2250 371.6181
v 507.0609 276.8948 387.7311
v 514.5337 277.3077 383.3280
v 502.7040 275.2250 371.6181
v 498.4206 276.0345 387.8168
v 507.0609 276.8948 387.7311
v 502.7040 275.2250 371.6181
v 490.9281 274.9573 383.5620
v 498.4206 276.0345 387.8168
v 502.7040 275.2250 371.6181
v 486.5910 273.9518 376.1069
v 490.9281 274.9573 383.5620
v 502.7040 275.2250 371.6181
f 1 2 3
f 4 5 6
f 7 8 9
f 10 11 12
f 13 14 15
f 16 17 18
f 19 20 21
f 22 23 24
f 25 26 27
f 28 29 30
f 31 32 33
f 34 35 36
f 37 38 39
f 40 41 42
f 43 44 45
f 46 47 48
f 49 50 51
f 52 53 54
f 55 56 57
f 58 59 60
f 61 62 63
f 64 65 66
f 67 68 69
f 70 71 72
f 73 74 75
f 76 77 78
f 79 80 81
f 82 83 84
f 85 86 87
f 88 89 90
f 91 92 93
f 94 95 96
f 97 98 99
f 100 101 102
f 103 104 105
f 106 107 108
f 109 110 111
f 112 113 114
f 115 116 117
f 118 119 120
f 121 122 123
f 124 125 126
f 127 128 129
f 130 131 132
f 133 134 135
f 136 137 138
f 139 140 141
f 142 143 144
f 145 146 147
f 148 149 150
f 151 152 153
f 154 155 156
f 157 158 159
f 160 161 162
f 163 164 165
f 166 167 168
f 169 170 171
f 172 173 174
f 175 176 177
f 178 179 180
f 181 182 183
f 184 185 186
f 187 188 189
f 190 191 192
f 193 194 195
f 196 197 198
f 199 200 201
f 202 203 204
f 205 206 207
f 208 209 210
f 211 212 213
f 214 215 216
f 217 218 219
f 220 221 222
f 223 224 225
f 226 227 228
f 229 230 231
f 232 233 234
f 235 236 237
f 238 239 240
f 241 242 243
f 244 245 246
f 247 248 249
f 250 251 252
f 253 254 255
f 256 257 258
f 259 260 261
f 262 263 264
f 265 266 267
f 268 269 270
f 271 272 273
f 274 275 276
f 277 278 279
f 280 281 282
f 283 284 285
f 286 287 288
f 289 290 291
f 292 293 294
f 295 296 297
f 298 299 300
f 301 302 303
f 304 305 306
f 307 308 309
f 310 311 312
f 313 314 315
f 316 317 318
f 319 320 321
f 322 323 324
f 325 326 327
f 328 329 330
f 331 332 333
f 334 335 336
f 337 338 339
f 340 341 342
f 343 344 345
f 346 347 348
f 349 350 351
f 352 353 354
f 355 356 357
f 358 359 360
f 361 362 363
f 364 365 366
f 367 368 369
f 370 371 372
f 373 374 375
f 376 377 378
f 379 380 381
f 382 383 384
f 385 386 387
f 388 389 390
f 391 392 393
f 394 395 396
f 397 398 399
f 400 401 402
f 403 404 405
f 406 407 408
f 409 410 411
f 412 413 414
f 415 416 417
f 418 419 420
f 421 422 423
f 424 425 426
f 427 428 429
f 430 431 432
f 433 434 435
f 436 437 438
f 439 440 441
f 442 443 444
f 445 446 447
f 448 449 450
f 451 452 453
f 454 455 456
f 457 458 459
f 460 461 462
f 463 464 465
f 466 467 468
f 469 470 471
f 472 473 474
f 475 476 477
f 478 479 480
f 481 482 483
f 484 485 486
f 487 488 489
f 490 491 492
f 493 494 495
f 496 497 498
f 499 500 501
f 502 503 504
f 505 506 507
f 508 509 510
f 511 512 513
f 514 515 516
f 517 518 519
f 520 521 522
f 523 524 525
f 526 527 528
f 529 530 531
f 532 533 534
f 535 536 537
f 538 539 540
f 541 542 543
f 544 545 546
f 547 548 549
f 550 551 552
f 553 554 555
f 556 557 558
f 559 560 561
f 562 563 564
f 565 566 567
f 568 569 570
f 571 572 573
f 574 575 576
f 577 578 579
f 580 581 582
f 583 584 585
f 586 587 588
f 589 590 591
f 592 593 594
f 595 596 597
f 598 599 600
f 601 602 603
f 604 605 606
f 607 608 609
f 610 611 612
f 613 614 615
f 616 617 618
f 619 620 621
f 622 623 624
f 625 626 627
f 628 629 630
f 631 632 633
f 634 635 636
f 637 638 639
f 640 641 642
f 643 644 645
f 646 647 648
f 649 650 651
f 652 653 654
f 655 656 657
f 658 659 660
f 661 662 663
f 664 665 666
f 667 668 669
f 670 671 672
f 673 674 675
f 676 677 678
f 679 680 681
f 682 683 684
f 685 686 687
f 688 689 690
f 691 692 693
f 694 695 696
f 697 698 699
f 700 701 702
f 703 704 705
f 706 707 708
f 709 710 711
f 712 713 714
f 715 716 717
f 718 719 720
