# MATERIA - Allunaggio
# Geometria originale di studio. Unita mm. Non CAD del produttore.
v 0.0000 565.8000 0.0000
v -24.6448 562.6791 0.0000
v -21.3430 562.6791 13.9297
v 0.0000 565.8000 0.0000
v -21.3430 562.6791 13.9297
v -12.3224 562.6791 24.1269
v 0.0000 565.8000 0.0000
v -12.3224 562.6791 24.1269
v -0.0000 562.6791 27.8594
v 0.0000 565.8000 0.0000
v -0.0000 562.6791 27.8594
v 12.3224 562.6791 24.1269
v 0.0000 565.8000 0.0000
v 12.3224 562.6791 24.1269
v 21.3430 562.6791 13.9297
v 0.0000 565.8000 0.0000
v 21.3430 562.6791 13.9297
v 24.6448 562.6791 0.0000
v 0.0000 565.8000 0.0000
v 24.6448 562.6791 0.0000
v 21.3430 562.6791 -13.9297
v 0.0000 565.8000 0.0000
v 21.3430 562.6791 -13.9297
v 12.3224 562.6791 -24.1269
v 0.0000 565.8000 0.0000
v 12.3224 562.6791 -24.1269
v 0.0000 562.6791 -27.8594
v 0.0000 565.8000 0.0000
v 0.0000 562.6791 -27.8594
v -12.3224 562.6791 -24.1269
v 0.0000 565.8000 0.0000
v -12.3224 562.6791 -24.1269
v -21.3430 562.6791 -13.9297
v 0.0000 565.8000 0.0000
v -21.3430 562.6791 -13.9297
v -24.6448 562.6791 -0.0000
v -21.3430 562.6791 13.9297
v -24.6448 562.6791 0.0000
v -39.4368 553.7914 25.7387
v -24.6448 562.6791 0.0000
v -45.5377 553.7914 0.0000
v -39.4368 553.7914 25.7387
v -12.3224 562.6791 24.1269
v -21.3430 562.6791 13.9297
v -22.7688 553.7914 44.5807
v -21.3430 562.6791 13.9297
v -39.4368 553.7914 25.7387
v -22.7688 553.7914 44.5807
v -0.0000 562.6791 27.8594
v -12.3224 562.6791 24.1269
v -0.0000 553.7914 51.4774
v -12.3224 562.6791 24.1269
v -22.7688 553.7914 44.5807
v -0.0000 553.7914 51.4774
v 12.3224 562.6791 24.1269
v -0.0000 562.6791 27.8594
v 22.7688 553.7914 44.5807
v -0.0000 562.6791 27.8594
v -0.0000 553.7914 51.4774
v 22.7688 553.7914 44.5807
v 21.3430 562.6791 13.9297
v 12.3224 562.6791 24.1269
v 39.4368 553.7914 25.7387
v 12.3224 562.6791 24.1269
v 22.7688 553.7914 44.5807
v 39.4368 553.7914 25.7387
v 24.6448 562.6791 0.0000
v 21.3430 562.6791 13.9297
v 45.5377 553.7914 0.0000
v 21.3430 562.6791 13.9297
v 39.4368 553.7914 25.7387
v 45.5377 553.7914 0.0000
v 21.3430 562.6791 -13.9297
v 24.6448 562.6791 0.0000
v 39.4368 553.7914 -25.7387
v 24.6448 562.6791 0.0000
v 45.5377 553.7914 0.0000
v 39.4368 553.7914 -25.7387
v 12.3224 562.6791 -24.1269
v 21.3430 562.6791 -13.9297
v 22.7688 553.7914 -44.5807
v 21.3430 562.6791 -13.9297
v 39.4368 553.7914 -25.7387
v 22.7688 553.7914 -44.5807
v 0.0000 562.6791 -27.8594
v 12.3224 562.6791 -24.1269
v 0.0000 553.7914 -51.4774
v 12.3224 562.6791 -24.1269
v 22.7688 553.7914 -44.5807
v 0.0000 553.7914 -51.4774
v -12.3224 562.6791 -24.1269
v 0.0000 562.6791 -27.8594
v -22.7688 553.7914 -44.5807
v 0.0000 562.6791 -27.8594
v 0.0000 553.7914 -51.4774
v -22.7688 553.7914 -44.5807
v -21.3430 562.6791 -13.9297
v -12.3224 562.6791 -24.1269
v -39.4368 553.7914 -25.7387
v -12.3224 562.6791 -24.1269
v -22.7688 553.7914 -44.5807
v -39.4368 553.7914 -25.7387
v -24.6448 562.6791 -0.0000
v -21.3430 562.6791 -13.9297
v -45.5377 553.7914 -0.0000
v -21.3430 562.6791 -13.9297
v -39.4368 553.7914 -25.7387
v -45.5377 553.7914 -0.0000
v -39.4368 553.7914 25.7387
v -45.5377 553.7914 0.0000
v -51.5266 540.4900 33.6292
v -45.5377 553.7914 0.0000
v -59.4978 540.4900 0.0000
v -51.5266 540.4900 33.6292
v -22.7688 553.7914 44.5807
v -39.4368 553.7914 25.7387
v -29.7489 540.4900 58.2475
v -39.4368 553.7914 25.7387
v -51.5266 540.4900 33.6292
v -29.7489 540.4900 58.2475
v -0.0000 553.7914 51.4774
v -22.7688 553.7914 44.5807
v -0.0000 540.4900 67.2584
v -22.7688 553.7914 44.5807
v -29.7489 540.4900 58.2475
v -0.0000 540.4900 67.2584
v 22.7688 553.7914 44.5807
v -0.0000 553.7914 51.4774
v 29.7489 540.4900 58.2475
v -0.0000 553.7914 51.4774
v -0.0000 540.4900 67.2584
v 29.7489 540.4900 58.2475
v 39.4368 553.7914 25.7387
v 22.7688 553.7914 44.5807
v 51.5266 540.4900 33.6292
v 22.7688 553.7914 44.5807
v 29.7489 540.4900 58.2475
v 51.5266 540.4900 33.6292
v 45.5377 553.7914 0.0000
v 39.4368 553.7914 25.7387
v 59.4978 540.4900 0.0000
v 39.4368 553.7914 25.7387
v 51.5266 540.4900 33.6292
v 59.4978 540.4900 0.0000
v 39.4368 553.7914 -25.7387
v 45.5377 553.7914 0.0000
v 51.5266 540.4900 -33.6292
v 45.5377 553.7914 0.0000
v 59.4978 540.4900 0.0000
v 51.5266 540.4900 -33.6292
v 22.7688 553.7914 -44.5807
v 39.4368 553.7914 -25.7387
v 29.7489 540.4900 -58.2475
v 39.4368 553.7914 -25.7387
v 51.5266 540.4900 -33.6292
v 29.7489 540.4900 -58.2475
v 0.0000 553.7914 -51.4774
v 22.7688 553.7914 -44.5807
v 0.0000 540.4900 -67.2584
v 22.7688 553.7914 -44.5807
v 29.7489 540.4900 -58.2475
v 0.0000 540.4900 -67.2584
v -22.7688 553.7914 -44.5807
v 0.0000 553.7914 -51.4774
v -29.7489 540.4900 -58.2475
v 0.0000 553.7914 -51.4774
v 0.0000 540.4900 -67.2584
v -29.7489 540.4900 -58.2475
v -39.4368 553.7914 -25.7387
v -22.7688 553.7914 -44.5807
v -51.5266 540.4900 -33.6292
v -22.7688 553.7914 -44.5807
v -29.7489 540.4900 -58.2475
v -51.5266 540.4900 -33.6292
v -45.5377 553.7914 -0.0000
v -39.4368 553.7914 -25.7387
v -59.4978 540.4900 -0.0000
v -39.4368 553.7914 -25.7387
v -51.5266 540.4900 -33.6292
v -59.4978 540.4900 -0.0000
v -51.5266 540.4900 33.6292
v -59.4978 540.4900 0.0000
v -55.7720 524.8000 36.4000
v -59.4978 540.4900 0.0000
v -64.4000 524.8000 0.0000
v -55.7720 524.8000 36.4000
v -29.7489 540.4900 58.2475
v -51.5266 540.4900 33.6292
v -32.2000 524.8000 63.0466
v -51.5266 540.4900 33.6292
v -55.7720 524.8000 36.4000
v -32.2000 524.8000 63.0466
v -0.0000 540.4900 67.2584
v -29.7489 540.4900 58.2475
v -0.0000 524.8000 72.8000
v -29.7489 540.4900 58.2475
v -32.2000 524.8000 63.0466
v -0.0000 524.8000 72.8000
v 29.7489 540.4900 58.2475
v -0.0000 540.4900 67.2584
v 32.2000 524.8000 63.0466
v -0.0000 540.4900 67.2584
v -0.0000 524.8000 72.8000
v 32.2000 524.8000 63.0466
v 51.5266 540.4900 33.6292
v 29.7489 540.4900 58.2475
v 55.7720 524.8000 36.4000
v 29.7489 540.4900 58.2475
v 32.2000 524.8000 63.0466
v 55.7720 524.8000 36.4000
v 59.4978 540.4900 0.0000
v 51.5266 540.4900 33.6292
v 64.4000 524.8000 0.0000
v 51.5266 540.4900 33.6292
v 55.7720 524.8000 36.4000
v 64.4000 524.8000 0.0000
v 51.5266 540.4900 -33.6292
v 59.4978 540.4900 0.0000
v 55.7720 524.8000 -36.4000
v 59.4978 540.4900 0.0000
v 64.4000 524.8000 0.0000
v 55.7720 524.8000 -36.4000
v 29.7489 540.4900 -58.2475
v 51.5266 540.4900 -33.6292
v 32.2000 524.8000 -63.0466
v 51.5266 540.4900 -33.6292
v 55.7720 524.8000 -36.4000
v 32.2000 524.8000 -63.0466
v 0.0000 540.4900 -67.2584
v 29.7489 540.4900 -58.2475
v 0.0000 524.8000 -72.8000
v 29.7489 540.4900 -58.2475
v 32.2000 524.8000 -63.0466
v 0.0000 524.8000 -72.8000
v -29.7489 540.4900 -58.2475
v 0.0000 540.4900 -67.2584
v -32.2000 524.8000 -63.0466
v 0.0000 540.4900 -67.2584
v 0.0000 524.8000 -72.8000
v -32.2000 524.8000 -63.0466
v -51.5266 540.4900 -33.6292
v -29.7489 540.4900 -58.2475
v -55.7720 524.8000 -36.4000
v -29.7489 540.4900 -58.2475
v -32.2000 524.8000 -63.0466
v -55.7720 524.8000 -36.4000
v -59.4978 540.4900 -0.0000
v -51.5266 540.4900 -33.6292
v -64.4000 524.8000 -0.0000
v -51.5266 540.4900 -33.6292
v -55.7720 524.8000 -36.4000
v -64.4000 524.8000 -0.0000
v -55.7720 524.8000 36.4000
v -64.4000 524.8000 0.0000
v -51.5266 509.1100 33.6292
v -64.4000 524.8000 0.0000
v -59.4978 509.1100 0.0000
v -51.5266 509.1100 33.6292
v -32.2000 524.8000 63.0466
v -55.7720 524.8000 36.4000
v -29.7489 509.1100 58.2475
v -55.7720 524.8000 36.4000
v -51.5266 509.1100 33.6292
v -29.7489 509.1100 58.2475
v -0.0000 524.8000 72.8000
v -32.2000 524.8000 63.0466
v -0.0000 509.1100 67.2584
v -32.2000 524.8000 63.0466
v -29.7489 509.1100 58.2475
v -0.0000 509.1100 67.2584
v 32.2000 524.8000 63.0466
v -0.0000 524.8000 72.8000
v 29.7489 509.1100 58.2475
v -0.0000 524.8000 72.8000
v -0.0000 509.1100 67.2584
v 29.7489 509.1100 58.2475
v 55.7720 524.8000 36.4000
v 32.2000 524.8000 63.0466
v 51.5266 509.1100 33.6292
v 32.2000 524.8000 63.0466
v 29.7489 509.1100 58.2475
v 51.5266 509.1100 33.6292
v 64.4000 524.8000 0.0000
v 55.7720 524.8000 36.4000
v 59.4978 509.1100 0.0000
v 55.7720 524.8000 36.4000
v 51.5266 509.1100 33.6292
v 59.4978 509.1100 0.0000
v 55.7720 524.8000 -36.4000
v 64.4000 524.8000 0.0000
v 51.5266 509.1100 -33.6292
v 64.4000 524.8000 0.0000
v 59.4978 509.1100 0.0000
v 51.5266 509.1100 -33.6292
v 32.2000 524.8000 -63.0466
v 55.7720 524.8000 -36.4000
v 29.7489 509.1100 -58.2475
v 55.7720 524.8000 -36.4000
v 51.5266 509.1100 -33.6292
v 29.7489 509.1100 -58.2475
v 0.0000 524.8000 -72.8000
v 32.2000 524.8000 -63.0466
v 0.0000 509.1100 -67.2584
v 32.2000 524.8000 -63.0466
v 29.7489 509.1100 -58.2475
v 0.0000 509.1100 -67.2584
v -32.2000 524.8000 -63.0466
v 0.0000 524.8000 -72.8000
v -29.7489 509.1100 -58.2475
v 0.0000 524.8000 -72.8000
v 0.0000 509.1100 -67.2584
v -29.7489 509.1100 -58.2475
v -55.7720 524.8000 -36.4000
v -32.2000 524.8000 -63.0466
v -51.5266 509.1100 -33.6292
v -32.2000 524.8000 -63.0466
v -29.7489 509.1100 -58.2475
v -51.5266 509.1100 -33.6292
v -64.4000 524.8000 -0.0000
v -55.7720 524.8000 -36.4000
v -59.4978 509.1100 -0.0000
v -55.7720 524.8000 -36.4000
v -51.5266 509.1100 -33.6292
v -59.4978 509.1100 -0.0000
v -51.5266 509.1100 33.6292
v -59.4978 509.1100 0.0000
v -39.4368 495.8086 25.7387
v -59.4978 509.1100 0.0000
v -45.5377 495.8086 0.0000
v -39.4368 495.8086 25.7387
v -29.7489 509.1100 58.2475
v -51.5266 509.1100 33.6292
v -22.7688 495.8086 44.5807
v -51.5266 509.1100 33.6292
v -39.4368 495.8086 25.7387
v -22.7688 495.8086 44.5807
v -0.0000 509.1100 67.2584
v -29.7489 509.1100 58.2475
v -0.0000 495.8086 51.4774
v -29.7489 509.1100 58.2475
v -22.7688 495.8086 44.5807
v -0.0000 495.8086 51.4774
v 29.7489 509.1100 58.2475
v -0.0000 509.1100 67.2584
v 22.7688 495.8086 44.5807
v -0.0000 509.1100 67.2584
v -0.0000 495.8086 51.4774
v 22.7688 495.8086 44.5807
v 51.5266 509.1100 33.6292
v 29.7489 509.1100 58.2475
v 39.4368 495.8086 25.7387
v 29.7489 509.1100 58.2475
v 22.7688 495.8086 44.5807
v 39.4368 495.8086 25.7387
v 59.4978 509.1100 0.0000
v 51.5266 509.1100 33.6292
v 45.5377 495.8086 0.0000
v 51.5266 509.1100 33.6292
v 39.4368 495.8086 25.7387
v 45.5377 495.8086 0.0000
v 51.5266 509.1100 -33.6292
v 59.4978 509.1100 0.0000
v 39.4368 495.8086 -25.7387
v 59.4978 509.1100 0.0000
v 45.5377 495.8086 0.0000
v 39.4368 495.8086 -25.7387
v 29.7489 509.1100 -58.2475
v 51.5266 509.1100 -33.6292
v 22.7688 495.8086 -44.5807
v 51.5266 509.1100 -33.6292
v 39.4368 495.8086 -25.7387
v 22.7688 495.8086 -44.5807
v 0.0000 509.1100 -67.2584
v 29.7489 509.1100 -58.2475
v 0.0000 495.8086 -51.4774
v 29.7489 509.1100 -58.2475
v 22.7688 495.8086 -44.5807
v 0.0000 495.8086 -51.4774
v -29.7489 509.1100 -58.2475
v 0.0000 509.1100 -67.2584
v -22.7688 495.8086 -44.5807
v 0.0000 509.1100 -67.2584
v 0.0000 495.8086 -51.4774
v -22.7688 495.8086 -44.5807
v -51.5266 509.1100 -33.6292
v -29.7489 509.1100 -58.2475
v -39.4368 495.8086 -25.7387
v -29.7489 509.1100 -58.2475
v -22.7688 495.8086 -44.5807
v -39.4368 495.8086 -25.7387
v -59.4978 509.1100 -0.0000
v -51.5266 509.1100 -33.6292
v -45.5377 495.8086 -0.0000
v -51.5266 509.1100 -33.6292
v -39.4368 495.8086 -25.7387
v -45.5377 495.8086 -0.0000
v -39.4368 495.8086 25.7387
v -45.5377 495.8086 0.0000
v -21.3430 486.9209 13.9297
v -45.5377 495.8086 0.0000
v -24.6448 486.9209 0.0000
v -21.3430 486.9209 13.9297
v -22.7688 495.8086 44.5807
v -39.4368 495.8086 25.7387
v -12.3224 486.9209 24.1269
v -39.4368 495.8086 25.7387
v -21.3430 486.9209 13.9297
v -12.3224 486.9209 24.1269
v -0.0000 495.8086 51.4774
v -22.7688 495.8086 44.5807
v -0.0000 486.9209 27.8594
v -22.7688 495.8086 44.5807
v -12.3224 486.9209 24.1269
v -0.0000 486.9209 27.8594
v 22.7688 495.8086 44.5807
v -0.0000 495.8086 51.4774
v 12.3224 486.9209 24.1269
v -0.0000 495.8086 51.4774
v -0.0000 486.9209 27.8594
v 12.3224 486.9209 24.1269
v 39.4368 495.8086 25.7387
v 22.7688 495.8086 44.5807
v 21.3430 486.9209 13.9297
v 22.7688 495.8086 44.5807
v 12.3224 486.9209 24.1269
v 21.3430 486.9209 13.9297
v 45.5377 495.8086 0.0000
v 39.4368 495.8086 25.7387
v 24.6448 486.9209 0.0000
v 39.4368 495.8086 25.7387
v 21.3430 486.9209 13.9297
v 24.6448 486.9209 0.0000
v 39.4368 495.8086 -25.7387
v 45.5377 495.8086 0.0000
v 21.3430 486.9209 -13.9297
v 45.5377 495.8086 0.0000
v 24.6448 486.9209 0.0000
v 21.3430 486.9209 -13.9297
v 22.7688 495.8086 -44.5807
v 39.4368 495.8086 -25.7387
v 12.3224 486.9209 -24.1269
v 39.4368 495.8086 -25.7387
v 21.3430 486.9209 -13.9297
v 12.3224 486.9209 -24.1269
v 0.0000 495.8086 -51.4774
v 22.7688 495.8086 -44.5807
v 0.0000 486.9209 -27.8594
v 22.7688 495.8086 -44.5807
v 12.3224 486.9209 -24.1269
v 0.0000 486.9209 -27.8594
v -22.7688 495.8086 -44.5807
v 0.0000 495.8086 -51.4774
v -12.3224 486.9209 -24.1269
v 0.0000 495.8086 -51.4774
v 0.0000 486.9209 -27.8594
v -12.3224 486.9209 -24.1269
v -39.4368 495.8086 -25.7387
v -22.7688 495.8086 -44.5807
v -21.3430 486.9209 -13.9297
v -22.7688 495.8086 -44.5807
v -12.3224 486.9209 -24.1269
v -21.3430 486.9209 -13.9297
v -45.5377 495.8086 -0.0000
v -39.4368 495.8086 -25.7387
v -24.6448 486.9209 -0.0000
v -39.4368 495.8086 -25.7387
v -21.3430 486.9209 -13.9297
v -24.6448 486.9209 -0.0000
v -21.3430 486.9209 13.9297
v -24.6448 486.9209 0.0000
v -0.0000 483.8000 0.0000
v -12.3224 486.9209 24.1269
v -21.3430 486.9209 13.9297
v -0.0000 483.8000 0.0000
v -0.0000 486.9209 27.8594
v -12.3224 486.9209 24.1269
v -0.0000 483.8000 0.0000
v 12.3224 486.9209 24.1269
v -0.0000 486.9209 27.8594
v 0.0000 483.8000 0.0000
v 21.3430 486.9209 13.9297
v 12.3224 486.9209 24.1269
v 0.0000 483.8000 0.0000
v 24.6448 486.9209 0.0000
v 21.3430 486.9209 13.9297
v 0.0000 483.8000 0.0000
v 21.3430 486.9209 -13.9297
v 24.6448 486.9209 0.0000
v 0.0000 483.8000 -0.0000
v 12.3224 486.9209 -24.1269
v 21.3430 486.9209 -13.9297
v 0.0000 483.8000 -0.0000
v 0.0000 486.9209 -27.8594
v 12.3224 486.9209 -24.1269
v 0.0000 483.8000 -0.0000
v -12.3224 486.9209 -24.1269
v 0.0000 486.9209 -27.8594
v -0.0000 483.8000 -0.0000
v -21.3430 486.9209 -13.9297
v -12.3224 486.9209 -24.1269
v -0.0000 483.8000 -0.0000
v -24.6448 486.9209 -0.0000
v -21.3430 486.9209 -13.9297
v -0.0000 483.8000 -0.0000
v 279.4500 -73.8000 6.3250
v 72.4500 639.6000 6.3250
v 276.4128 -74.6813 5.4776
v 72.4500 639.6000 6.3250
v 69.4128 638.7187 5.4776
v 276.4128 -74.6813 5.4776
v 276.4128 -74.6813 5.4776
v 69.4128 638.7187 5.4776
v 274.1894 -75.3264 3.1625
v 69.4128 638.7187 5.4776
v 67.1894 638.0736 3.1625
v 274.1894 -75.3264 3.1625
v 274.1894 -75.3264 3.1625
v 67.1894 638.0736 3.1625
v 273.3755 -75.5626 0.0000
v 67.1894 638.0736 3.1625
v 66.3755 637.8374 0.0000
v 273.3755 -75.5626 0.0000
v 273.3755 -75.5626 0.0000
v 66.3755 637.8374 0.0000
v 274.1894 -75.3264 -3.1625
v 66.3755 637.8374 0.0000
v 67.1894 638.0736 -3.1625
v 274.1894 -75.3264 -3.1625
v 274.1894 -75.3264 -3.1625
v 67.1894 638.0736 -3.1625
v 276.4128 -74.6813 -5.4776
v 67.1894 638.0736 -3.1625
v 69.4128 638.7187 -5.4776
v 276.4128 -74.6813 -5.4776
v 276.4128 -74.6813 -5.4776
v 69.4128 638.7187 -5.4776
v 279.4500 -73.8000 -6.3250
v 69.4128 638.7187 -5.4776
v 72.4500 639.6000 -6.3250
v 279.4500 -73.8000 -6.3250
v 279.4500 -73.8000 -6.3250
v 72.4500 639.6000 -6.3250
v 282.4872 -72.9187 -5.4776
v 72.4500 639.6000 -6.3250
v 75.4872 640.4813 -5.4776
v 282.4872 -72.9187 -5.4776
v 282.4872 -72.9187 -5.4776
v 75.4872 640.4813 -5.4776
v 284.7106 -72.2736 -3.1625
v 75.4872 640.4813 -5.4776
v 77.7106 641.1264 -3.1625
v 284.7106 -72.2736 -3.1625
v 284.7106 -72.2736 -3.1625
v 77.7106 641.1264 -3.1625
v 285.5245 -72.0374 -0.0000
v 77.7106 641.1264 -3.1625
v 78.5245 641.3626 -0.0000
v 285.5245 -72.0374 -0.0000
v 285.5245 -72.0374 -0.0000
v 78.5245 641.3626 -0.0000
v 284.7106 -72.2736 3.1625
v 78.5245 641.3626 -0.0000
v 77.7106 641.1264 3.1625
v 284.7106 -72.2736 3.1625
v 284.7106 -72.2736 3.1625
v 77.7106 641.1264 3.1625
v 282.4872 -72.9187 5.4776
v 77.7106 641.1264 3.1625
v 75.4872 640.4813 5.4776
v 282.4872 -72.9187 5.4776
v 282.4872 -72.9187 5.4776
v 75.4872 640.4813 5.4776
v 279.4500 -73.8000 6.3250
v 75.4872 640.4813 5.4776
v 72.4500 639.6000 6.3250
v 279.4500 -73.8000 6.3250
v 279.4500 -73.8000 6.3250
v 276.4128 -74.6813 5.4776
v 279.4500 -73.8000 0.0000
v 276.4128 -74.6813 5.4776
v 274.1894 -75.3264 3.1625
v 279.4500 -73.8000 0.0000
v 274.1894 -75.3264 3.1625
v 273.3755 -75.5626 0.0000
v 279.4500 -73.8000 0.0000
v 273.3755 -75.5626 0.0000
v 274.1894 -75.3264 -3.1625
v 279.4500 -73.8000 0.0000
v 274.1894 -75.3264 -3.1625
v 276.4128 -74.6813 -5.4776
v 279.4500 -73.8000 0.0000
v 276.4128 -74.6813 -5.4776
v 279.4500 -73.8000 -6.3250
v 279.4500 -73.8000 0.0000
v 279.4500 -73.8000 -6.3250
v 282.4872 -72.9187 -5.4776
v 279.4500 -73.8000 0.0000
v 282.4872 -72.9187 -5.4776
v 284.7106 -72.2736 -3.1625
v 279.4500 -73.8000 0.0000
v 284.7106 -72.2736 -3.1625
v 285.5245 -72.0374 -0.0000
v 279.4500 -73.8000 0.0000
v 285.5245 -72.0374 -0.0000
v 284.7106 -72.2736 3.1625
v 279.4500 -73.8000 0.0000
v 284.7106 -72.2736 3.1625
v 282.4872 -72.9187 5.4776
v 279.4500 -73.8000 0.0000
v 282.4872 -72.9187 5.4776
v 279.4500 -73.8000 6.3250
v 279.4500 -73.8000 0.0000
v 69.4128 638.7187 5.4776
v 72.4500 639.6000 6.3250
v 72.4500 639.6000 0.0000
v 67.1894 638.0736 3.1625
v 69.4128 638.7187 5.4776
v 72.4500 639.6000 0.0000
v 66.3755 637.8374 0.0000
v 67.1894 638.0736 3.1625
v 72.4500 639.6000 0.0000
v 67.1894 638.0736 -3.1625
v 66.3755 637.8374 0.0000
v 72.4500 639.6000 0.0000
v 69.4128 638.7187 -5.4776
v 67.1894 638.0736 -3.1625
v 72.4500 639.6000 0.0000
v 72.4500 639.6000 -6.3250
v 69.4128 638.7187 -5.4776
v 72.4500 639.6000 0.0000
v 75.4872 640.4813 -5.4776
v 72.4500 639.6000 -6.3250
v 72.4500 639.6000 0.0000
v 77.7106 641.1264 -3.1625
v 75.4872 640.4813 -5.4776
v 72.4500 639.6000 0.0000
v 78.5245 641.3626 -0.0000
v 77.7106 641.1264 -3.1625
v 72.4500 639.6000 0.0000
v 77.7106 641.1264 3.1625
v 78.5245 641.3626 -0.0000
v 72.4500 639.6000 0.0000
v 75.4872 640.4813 5.4776
v 77.7106 641.1264 3.1625
v 72.4500 639.6000 0.0000
v 72.4500 639.6000 6.3250
v 75.4872 640.4813 5.4776
v 72.4500 639.6000 0.0000
v -134.7220 72.0883 265.0405
v -31.2220 785.4883 62.3905
v -133.5074 72.7547 268.0070
v -31.2220 785.4883 62.3905
v -30.0074 786.1547 65.3570
v -133.5074 72.7547 268.0070
v -133.5074 72.7547 268.0070
v -30.0074 786.1547 65.3570
v -133.9588 73.7012 271.1085
v -30.0074 786.1547 65.3570
v -30.4588 787.1012 68.4586
v -133.9588 73.7012 271.1085
v -133.9588 73.7012 271.1085
v -30.4588 787.1012 68.4586
v -135.9552 74.6742 273.5142
v -30.4588 787.1012 68.4586
v -32.4552 788.0742 70.8642
v -135.9552 74.6742 273.5142
v -135.9552 74.6742 273.5142
v -32.4552 788.0742 70.8642
v -138.9617 75.4130 274.5792
v -32.4552 788.0742 70.8642
v -35.4617 788.8130 71.9293
v -138.9617 75.4130 274.5792
v -138.9617 75.4130 274.5792
v -35.4617 788.8130 71.9293
v -142.1728 75.7195 274.0184
v -35.4617 788.8130 71.9293
v -38.6728 789.1195 71.3684
v -142.1728 75.7195 274.0184
v -142.1728 75.7195 274.0184
v -38.6728 789.1195 71.3684
v -144.7280 75.5117 271.9819
v -38.6728 789.1195 71.3684
v -41.2280 788.9117 69.3319
v -144.7280 75.5117 271.9819
v -144.7280 75.5117 271.9819
v -41.2280 788.9117 69.3319
v -145.9426 74.8453 269.0154
v -41.2280 788.9117 69.3319
v -42.4426 788.2453 66.3655
v -145.9426 74.8453 269.0154
v -145.9426 74.8453 269.0154
v -42.4426 788.2453 66.3655
v -145.4912 73.8988 265.9138
v -42.4426 788.2453 66.3655
v -41.9912 787.2988 63.2639
v -145.4912 73.8988 265.9138
v -145.4912 73.8988 265.9138
v -41.9912 787.2988 63.2639
v -143.4948 72.9258 263.5082
v -41.9912 787.2988 63.2639
v -39.9948 786.3258 60.8582
v -143.4948 72.9258 263.5082
v -143.4948 72.9258 263.5082
v -39.9948 786.3258 60.8582
v -140.4883 72.1870 262.4431
v -39.9948 786.3258 60.8582
v -36.9883 785.5870 59.7932
v -140.4883 72.1870 262.4431
v -140.4883 72.1870 262.4431
v -36.9883 785.5870 59.7932
v -137.2772 71.8805 263.0040
v -36.9883 785.5870 59.7932
v -33.7772 785.2805 60.3540
v -137.2772 71.8805 263.0040
v -137.2772 71.8805 263.0040
v -33.7772 785.2805 60.3540
v -134.7220 72.0883 265.0405
v -33.7772 785.2805 60.3540
v -31.2220 785.4883 62.3905
v -134.7220 72.0883 265.0405
v -134.7220 72.0883 265.0405
v -133.5074 72.7547 268.0070
v -139.7250 73.8000 268.5112
v -133.5074 72.7547 268.0070
v -133.9588 73.7012 271.1085
v -139.7250 73.8000 268.5112
v -133.9588 73.7012 271.1085
v -135.9552 74.6742 273.5142
v -139.7250 73.8000 268.5112
v -135.9552 74.6742 273.5142
v -138.9617 75.4130 274.5792
v -139.7250 73.8000 268.5112
v -138.9617 75.4130 274.5792
v -142.1728 75.7195 274.0184
v -139.7250 73.8000 268.5112
v -142.1728 75.7195 274.0184
v -144.7280 75.5117 271.9819
v -139.7250 73.8000 268.5112
v -144.7280 75.5117 271.9819
v -145.9426 74.8453 269.0154
v -139.7250 73.8000 268.5112
v -145.9426 74.8453 269.0154
v -145.4912 73.8988 265.9138
v -139.7250 73.8000 268.5112
v -145.4912 73.8988 265.9138
v -143.4948 72.9258 263.5082
v -139.7250 73.8000 268.5112
v -143.4948 72.9258 263.5082
v -140.4883 72.1870 262.4431
v -139.7250 73.8000 268.5112
v -140.4883 72.1870 262.4431
v -137.2772 71.8805 263.0040
v -139.7250 73.8000 268.5112
v -137.2772 71.8805 263.0040
v -134.7220 72.0883 265.0405
v -139.7250 73.8000 268.5112
v -30.0074 786.1547 65.3570
v -31.2220 785.4883 62.3905
v -36.2250 787.2000 65.8612
v -30.4588 787.1012 68.4586
v -30.0074 786.1547 65.3570
v -36.2250 787.2000 65.8612
v -32.4552 788.0742 70.8642
v -30.4588 787.1012 68.4586
v -36.2250 787.2000 65.8612
v -35.4617 788.8130 71.9293
v -32.4552 788.0742 70.8642
v -36.2250 787.2000 65.8612
v -38.6728 789.1195 71.3684
v -35.4617 788.8130 71.9293
v -36.2250 787.2000 65.8612
v -41.2280 788.9117 69.3319
v -38.6728 789.1195 71.3684
v -36.2250 787.2000 65.8612
v -42.4426 788.2453 66.3655
v -41.2280 788.9117 69.3319
v -36.2250 787.2000 65.8612
v -41.9912 787.2988 63.2639
v -42.4426 788.2453 66.3655
v -36.2250 787.2000 65.8612
v -39.9948 786.3258 60.8582
v -41.9912 787.2988 63.2639
v -36.2250 787.2000 65.8612
v -36.9883 785.5870 59.7932
v -39.9948 786.3258 60.8582
v -36.2250 787.2000 65.8612
v -33.7772 785.2805 60.3540
v -36.9883 785.5870 59.7932
v -36.2250 787.2000 65.8612
v -31.2220 785.4883 62.3905
v -33.7772 785.2805 60.3540
v -36.2250 787.2000 65.8612
v -144.7280 223.1117 -271.9819
v -41.2280 936.5117 -69.3319
v -142.1728 223.3195 -274.0184
v -41.2280 936.5117 -69.3319
v -38.6728 936.7195 -71.3684
v -142.1728 223.3195 -274.0184
v -142.1728 223.3195 -274.0184
v -38.6728 936.7195 -71.3684
v -138.9617 223.0130 -274.5792
v -38.6728 936.7195 -71.3684
v -35.4617 936.4130 -71.9293
v -138.9617 223.0130 -274.5792
v -138.9617 223.0130 -274.5792
v -35.4617 936.4130 -71.9293
v -135.9552 222.2742 -273.5142
v -35.4617 936.4130 -71.9293
v -32.4552 935.6742 -70.8642
v -135.9552 222.2742 -273.5142
v -135.9552 222.2742 -273.5142
v -32.4552 935.6742 -70.8642
v -133.9588 221.3012 -271.1085
v -32.4552 935.6742 -70.8642
v -30.4588 934.7012 -68.4586
v -133.9588 221.3012 -271.1085
v -133.9588 221.3012 -271.1085
v -30.4588 934.7012 -68.4586
v -133.5074 220.3547 -268.0070
v -30.4588 934.7012 -68.4586
v -30.0074 933.7547 -65.3570
v -133.5074 220.3547 -268.0070
v -133.5074 220.3547 -268.0070
v -30.0074 933.7547 -65.3570
v -134.7220 219.6883 -265.0405
v -30.0074 933.7547 -65.3570
v -31.2220 933.0883 -62.3905
v -134.7220 219.6883 -265.0405
v -134.7220 219.6883 -265.0405
v -31.2220 933.0883 -62.3905
v -137.2772 219.4805 -263.0040
v -31.2220 933.0883 -62.3905
v -33.7772 932.8805 -60.3540
v -137.2772 219.4805 -263.0040
v -137.2772 219.4805 -263.0040
v -33.7772 932.8805 -60.3540
v -140.4883 219.7870 -262.4431
v -33.7772 932.8805 -60.3540
v -36.9883 933.1870 -59.7932
v -140.4883 219.7870 -262.4431
v -140.4883 219.7870 -262.4431
v -36.9883 933.1870 -59.7932
v -143.4948 220.5258 -263.5082
v -36.9883 933.1870 -59.7932
v -39.9948 933.9258 -60.8582
v -143.4948 220.5258 -263.5082
v -143.4948 220.5258 -263.5082
v -39.9948 933.9258 -60.8582
v -145.4912 221.4988 -265.9138
v -39.9948 933.9258 -60.8582
v -41.9912 934.8988 -63.2639
v -145.4912 221.4988 -265.9138
v -145.4912 221.4988 -265.9138
v -41.9912 934.8988 -63.2639
v -145.9426 222.4453 -269.0154
v -41.9912 934.8988 -63.2639
v -42.4426 935.8453 -66.3655
v -145.9426 222.4453 -269.0154
v -145.9426 222.4453 -269.0154
v -42.4426 935.8453 -66.3655
v -144.7280 223.1117 -271.9819
v -42.4426 935.8453 -66.3655
v -41.2280 936.5117 -69.3319
v -144.7280 223.1117 -271.9819
v -144.7280 223.1117 -271.9819
v -142.1728 223.3195 -274.0184
v -139.7250 221.4000 -268.5112
v -142.1728 223.3195 -274.0184
v -138.9617 223.0130 -274.5792
v -139.7250 221.4000 -268.5112
v -138.9617 223.0130 -274.5792
v -135.9552 222.2742 -273.5142
v -139.7250 221.4000 -268.5112
v -135.9552 222.2742 -273.5142
v -133.9588 221.3012 -271.1085
v -139.7250 221.4000 -268.5112
v -133.9588 221.3012 -271.1085
v -133.5074 220.3547 -268.0070
v -139.7250 221.4000 -268.5112
v -133.5074 220.3547 -268.0070
v -134.7220 219.6883 -265.0405
v -139.7250 221.4000 -268.5112
v -134.7220 219.6883 -265.0405
v -137.2772 219.4805 -263.0040
v -139.7250 221.4000 -268.5112
v -137.2772 219.4805 -263.0040
v -140.4883 219.7870 -262.4431
v -139.7250 221.4000 -268.5112
v -140.4883 219.7870 -262.4431
v -143.4948 220.5258 -263.5082
v -139.7250 221.4000 -268.5112
v -143.4948 220.5258 -263.5082
v -145.4912 221.4988 -265.9138
v -139.7250 221.4000 -268.5112
v -145.4912 221.4988 -265.9138
v -145.9426 222.4453 -269.0154
v -139.7250 221.4000 -268.5112
v -145.9426 222.4453 -269.0154
v -144.7280 223.1117 -271.9819
v -139.7250 221.4000 -268.5112
v -38.6728 936.7195 -71.3684
v -41.2280 936.5117 -69.3319
v -36.2250 934.8000 -65.8612
v -35.4617 936.4130 -71.9293
v -38.6728 936.7195 -71.3684
v -36.2250 934.8000 -65.8612
v -32.4552 935.6742 -70.8642
v -35.4617 936.4130 -71.9293
v -36.2250 934.8000 -65.8612
v -30.4588 934.7012 -68.4586
v -32.4552 935.6742 -70.8642
v -36.2250 934.8000 -65.8612
v -30.0074 933.7547 -65.3570
v -30.4588 934.7012 -68.4586
v -36.2250 934.8000 -65.8612
v -31.2220 933.0883 -62.3905
v -30.0074 933.7547 -65.3570
v -36.2250 934.8000 -65.8612
v -33.7772 932.8805 -60.3540
v -31.2220 933.0883 -62.3905
v -36.2250 934.8000 -65.8612
v -36.9883 933.1870 -59.7932
v -33.7772 932.8805 -60.3540
v -36.2250 934.8000 -65.8612
v -39.9948 933.9258 -60.8582
v -36.9883 933.1870 -59.7932
v -36.2250 934.8000 -65.8612
v -41.9912 934.8988 -63.2639
v -39.9948 933.9258 -60.8582
v -36.2250 934.8000 -65.8612
v -42.4426 935.8453 -66.3655
v -41.9912 934.8988 -63.2639
v -36.2250 934.8000 -65.8612
v -41.2280 936.5117 -69.3319
v -42.4426 935.8453 -66.3655
v -36.2250 934.8000 -65.8612
f 1 2 3
f 4 5 6
f 7 8 9
f 10 11 12
f 13 14 15
f 16 17 18
f 19 20 21
f 22 23 24
f 25 26 27
f 28 29 30
f 31 32 33
f 34 35 36
f 37 38 39
f 40 41 42
f 43 44 45
f 46 47 48
f 49 50 51
f 52 53 54
f 55 56 57
f 58 59 60
f 61 62 63
f 64 65 66
f 67 68 69
f 70 71 72
f 73 74 75
f 76 77 78
f 79 80 81
f 82 83 84
f 85 86 87
f 88 89 90
f 91 92 93
f 94 95 96
f 97 98 99
f 100 101 102
f 103 104 105
f 106 107 108
f 109 110 111
f 112 113 114
f 115 116 117
f 118 119 120
f 121 122 123
f 124 125 126
f 127 128 129
f 130 131 132
f 133 134 135
f 136 137 138
f 139 140 141
f 142 143 144
f 145 146 147
f 148 149 150
f 151 152 153
f 154 155 156
f 157 158 159
f 160 161 162
f 163 164 165
f 166 167 168
f 169 170 171
f 172 173 174
f 175 176 177
f 178 179 180
f 181 182 183
f 184 185 186
f 187 188 189
f 190 191 192
f 193 194 195
f 196 197 198
f 199 200 201
f 202 203 204
f 205 206 207
f 208 209 210
f 211 212 213
f 214 215 216
f 217 218 219
f 220 221 222
f 223 224 225
f 226 227 228
f 229 230 231
f 232 233 234
f 235 236 237
f 238 239 240
f 241 242 243
f 244 245 246
f 247 248 249
f 250 251 252
f 253 254 255
f 256 257 258
f 259 260 261
f 262 263 264
f 265 266 267
f 268 269 270
f 271 272 273
f 274 275 276
f 277 278 279
f 280 281 282
f 283 284 285
f 286 287 288
f 289 290 291
f 292 293 294
f 295 296 297
f 298 299 300
f 301 302 303
f 304 305 306
f 307 308 309
f 310 311 312
f 313 314 315
f 316 317 318
f 319 320 321
f 322 323 324
f 325 326 327
f 328 329 330
f 331 332 333
f 334 335 336
f 337 338 339
f 340 341 342
f 343 344 345
f 346 347 348
f 349 350 351
f 352 353 354
f 355 356 357
f 358 359 360
f 361 362 363
f 364 365 366
f 367 368 369
f 370 371 372
f 373 374 375
f 376 377 378
f 379 380 381
f 382 383 384
f 385 386 387
f 388 389 390
f 391 392 393
f 394 395 396
f 397 398 399
f 400 401 402
f 403 404 405
f 406 407 408
f 409 410 411
f 412 413 414
f 415 416 417
f 418 419 420
f 421 422 423
f 424 425 426
f 427 428 429
f 430 431 432
f 433 434 435
f 436 437 438
f 439 440 441
f 442 443 444
f 445 446 447
f 448 449 450
f 451 452 453
f 454 455 456
f 457 458 459
f 460 461 462
f 463 464 465
f 466 467 468
f 469 470 471
f 472 473 474
f 475 476 477
f 478 479 480
f 481 482 483
f 484 485 486
f 487 488 489
f 490 491 492
f 493 494 495
f 496 497 498
f 499 500 501
f 502 503 504
f 505 506 507
f 508 509 510
f 511 512 513
f 514 515 516
f 517 518 519
f 520 521 522
f 523 524 525
f 526 527 528
f 529 530 531
f 532 533 534
f 535 536 537
f 538 539 540
f 541 542 543
f 544 545 546
f 547 548 549
f 550 551 552
f 553 554 555
f 556 557 558
f 559 560 561
f 562 563 564
f 565 566 567
f 568 569 570
f 571 572 573
f 574 575 576
f 577 578 579
f 580 581 582
f 583 584 585
f 586 587 588
f 589 590 591
f 592 593 594
f 595 596 597
f 598 599 600
f 601 602 603
f 604 605 606
f 607 608 609
f 610 611 612
f 613 614 615
f 616 617 618
f 619 620 621
f 622 623 624
f 625 626 627
f 628 629 630
f 631 632 633
f 634 635 636
f 637 638 639
f 640 641 642
f 643 644 645
f 646 647 648
f 649 650 651
f 652 653 654
f 655 656 657
f 658 659 660
f 661 662 663
f 664 665 666
f 667 668 669
f 670 671 672
f 673 674 675
f 676 677 678
f 679 680 681
f 682 683 684
f 685 686 687
f 688 689 690
f 691 692 693
f 694 695 696
f 697 698 699
f 700 701 702
f 703 704 705
f 706 707 708
f 709 710 711
f 712 713 714
f 715 716 717
f 718 719 720
f 721 722 723
f 724 725 726
f 727 728 729
f 730 731 732
f 733 734 735
f 736 737 738
f 739 740 741
f 742 743 744
f 745 746 747
f 748 749 750
f 751 752 753
f 754 755 756
f 757 758 759
f 760 761 762
f 763 764 765
f 766 767 768
f 769 770 771
f 772 773 774
f 775 776 777
f 778 779 780
f 781 782 783
f 784 785 786
f 787 788 789
f 790 791 792
f 793 794 795
f 796 797 798
f 799 800 801
f 802 803 804
f 805 806 807
f 808 809 810
f 811 812 813
f 814 815 816
f 817 818 819
f 820 821 822
f 823 824 825
f 826 827 828
f 829 830 831
f 832 833 834
f 835 836 837
f 838 839 840
f 841 842 843
f 844 845 846
f 847 848 849
f 850 851 852
f 853 854 855
f 856 857 858
f 859 860 861
f 862 863 864
f 865 866 867
f 868 869 870
f 871 872 873
f 874 875 876
f 877 878 879
f 880 881 882
f 883 884 885
f 886 887 888
f 889 890 891
f 892 893 894
f 895 896 897
f 898 899 900
f 901 902 903
f 904 905 906
f 907 908 909
f 910 911 912
f 913 914 915
f 916 917 918
f 919 920 921
f 922 923 924
f 925 926 927
f 928 929 930
f 931 932 933
f 934 935 936
