# MATERIA - Milo CM
# Geometria originale di studio. Unita mm. Non CAD del produttore.
v 350.0000 0.0000 0.4813
v 350.0000 0.0000 -0.4812
v 350.0000 1600.0000 0.4812
v 350.0000 0.0000 -0.4812
v 350.0000 1600.0000 -0.4813
v 350.0000 1600.0000 0.4812
v -350.0000 1600.0000 0.4812
v -350.0000 1600.0000 -0.4813
v -350.0000 0.0000 0.4813
v -350.0000 1600.0000 -0.4813
v -350.0000 0.0000 -0.4812
v -350.0000 0.0000 0.4813
v -350.0000 1600.0000 0.4812
v -350.0000 0.0000 0.4813
v 350.0000 1600.0000 0.4812
v -350.0000 0.0000 0.4813
v 350.0000 0.0000 0.4813
v 350.0000 1600.0000 0.4812
v -350.0000 0.0000 -0.4812
v -350.0000 1600.0000 -0.4813
v 350.0000 0.0000 -0.4812
v -350.0000 1600.0000 -0.4813
v 350.0000 1600.0000 -0.4813
v 350.0000 0.0000 -0.4812
v -350.0000 0.0000 0.4813
v -350.0000 0.0000 -0.4812
v 350.0000 0.0000 0.4813
v -350.0000 0.0000 -0.4812
v 350.0000 0.0000 -0.4812
v 350.0000 0.0000 0.4813
v 350.0000 1600.0000 0.4812
v 350.0000 1600.0000 -0.4813
v -350.0000 1600.0000 0.4812
v 350.0000 1600.0000 -0.4813
v -350.0000 1600.0000 -0.4813
v -350.0000 1600.0000 0.4812
f 1 2 3
f 4 5 6
f 7 8 9
f 10 11 12
f 13 14 15
f 16 17 18
f 19 20 21
f 22 23 24
f 25 26 27
f 28 29 30
f 31 32 33
f 34 35 36
