# MATERIA - Servomuto
# Geometria originale di studio. Unita mm. Non CAD del produttore.
v 0.0000 323.3750 305.0000
v 0.0000 289.8250 305.0000
v 250.0000 323.3750 264.1377
v 0.0000 289.8250 305.0000
v 250.0000 289.8250 264.1377
v 250.0000 323.3750 264.1377
v 250.0000 323.3750 264.1377
v 250.0000 289.8250 264.1377
v 433.0127 323.3750 152.5000
v 250.0000 289.8250 264.1377
v 433.0127 289.8250 152.5000
v 433.0127 323.3750 152.5000
v 433.0127 323.3750 152.5000
v 433.0127 289.8250 152.5000
v 500.0000 323.3750 0.0000
v 433.0127 289.8250 152.5000
v 500.0000 289.8250 0.0000
v 500.0000 323.3750 0.0000
v 500.0000 323.3750 0.0000
v 500.0000 289.8250 0.0000
v 433.0127 323.3750 -152.5000
v 500.0000 289.8250 0.0000
v 433.0127 289.8250 -152.5000
v 433.0127 323.3750 -152.5000
v 433.0127 323.3750 -152.5000
v 433.0127 289.8250 -152.5000
v 250.0000 323.3750 -264.1377
v 433.0127 289.8250 -152.5000
v 250.0000 289.8250 -264.1377
v 250.0000 323.3750 -264.1377
v 250.0000 323.3750 -264.1377
v 250.0000 289.8250 -264.1377
v 0.0000 323.3750 -305.0000
v 250.0000 289.8250 -264.1377
v 0.0000 289.8250 -305.0000
v 0.0000 323.3750 -305.0000
v 0.0000 323.3750 -305.0000
v 0.0000 289.8250 -305.0000
v -250.0000 323.3750 -264.1377
v 0.0000 289.8250 -305.0000
v -250.0000 289.8250 -264.1377
v -250.0000 323.3750 -264.1377
v -250.0000 323.3750 -264.1377
v -250.0000 289.8250 -264.1377
v -433.0127 323.3750 -152.5000
v -250.0000 289.8250 -264.1377
v -433.0127 289.8250 -152.5000
v -433.0127 323.3750 -152.5000
v -433.0127 323.3750 -152.5000
v -433.0127 289.8250 -152.5000
v -500.0000 323.3750 -0.0000
v -433.0127 289.8250 -152.5000
v -500.0000 289.8250 -0.0000
v -500.0000 323.3750 -0.0000
v -500.0000 323.3750 -0.0000
v -500.0000 289.8250 -0.0000
v -433.0127 323.3750 152.5000
v -500.0000 289.8250 -0.0000
v -433.0127 289.8250 152.5000
v -433.0127 323.3750 152.5000
v -433.0127 323.3750 152.5000
v -433.0127 289.8250 152.5000
v -250.0000 323.3750 264.1377
v -433.0127 289.8250 152.5000
v -250.0000 289.8250 264.1377
v -250.0000 323.3750 264.1377
v -250.0000 323.3750 264.1377
v -250.0000 289.8250 264.1377
v -0.0000 323.3750 305.0000
v -250.0000 289.8250 264.1377
v -0.0000 289.8250 305.0000
v -0.0000 323.3750 305.0000
v 0.0000 323.3750 305.0000
v 250.0000 323.3750 264.1377
v 0.0000 323.3750 0.0000
v 250.0000 323.3750 264.1377
v 433.0127 323.3750 152.5000
v 0.0000 323.3750 0.0000
v 433.0127 323.3750 152.5000
v 500.0000 323.3750 0.0000
v 0.0000 323.3750 0.0000
v 500.0000 323.3750 0.0000
v 433.0127 323.3750 -152.5000
v 0.0000 323.3750 0.0000
v 433.0127 323.3750 -152.5000
v 250.0000 323.3750 -264.1377
v 0.0000 323.3750 0.0000
v 250.0000 323.3750 -264.1377
v 0.0000 323.3750 -305.0000
v 0.0000 323.3750 0.0000
v 0.0000 323.3750 -305.0000
v -250.0000 323.3750 -264.1377
v 0.0000 323.3750 0.0000
v -250.0000 323.3750 -264.1377
v -433.0127 323.3750 -152.5000
v 0.0000 323.3750 0.0000
v -433.0127 323.3750 -152.5000
v -500.0000 323.3750 -0.0000
v 0.0000 323.3750 0.0000
v -500.0000 323.3750 -0.0000
v -433.0127 323.3750 152.5000
v 0.0000 323.3750 0.0000
v -433.0127 323.3750 152.5000
v -250.0000 323.3750 264.1377
v 0.0000 323.3750 0.0000
v -250.0000 323.3750 264.1377
v -0.0000 323.3750 305.0000
v 0.0000 323.3750 0.0000
v 250.0000 289.8250 264.1377
v 0.0000 289.8250 305.0000
v 0.0000 289.8250 0.0000
v 433.0127 289.8250 152.5000
v 250.0000 289.8250 264.1377
v 0.0000 289.8250 0.0000
v 500.0000 289.8250 0.0000
v 433.0127 289.8250 152.5000
v 0.0000 289.8250 0.0000
v 433.0127 289.8250 -152.5000
v 500.0000 289.8250 0.0000
v 0.0000 289.8250 0.0000
v 250.0000 289.8250 -264.1377
v 433.0127 289.8250 -152.5000
v 0.0000 289.8250 0.0000
v 0.0000 289.8250 -305.0000
v 250.0000 289.8250 -264.1377
v 0.0000 289.8250 0.0000
v -250.0000 289.8250 -264.1377
v 0.0000 289.8250 -305.0000
v 0.0000 289.8250 0.0000
v -433.0127 289.8250 -152.5000
v -250.0000 289.8250 -264.1377
v 0.0000 289.8250 0.0000
v -500.0000 289.8250 -0.0000
v -433.0127 289.8250 -152.5000
v 0.0000 289.8250 0.0000
v -433.0127 289.8250 152.5000
v -500.0000 289.8250 -0.0000
v 0.0000 289.8250 0.0000
v -250.0000 289.8250 264.1377
v -433.0127 289.8250 152.5000
v 0.0000 289.8250 0.0000
v -0.0000 289.8250 305.0000
v -250.0000 289.8250 264.1377
v 0.0000 289.8250 0.0000
v -690.0240 -26.5286 -392.4459
v -643.2240 366.6314 -363.8979
v -691.8150 -25.7014 -400.9022
v -643.2240 366.6314 -363.8979
v -645.0150 367.4586 -372.3542
v -691.8150 -25.7014 -400.9022
v -691.8150 -25.7014 -400.9022
v -645.0150 367.4586 -372.3542
v -689.1487 -25.4191 -409.1613
v -645.0150 367.4586 -372.3542
v -642.3487 367.7409 -380.6133
v -689.1487 -25.4191 -409.1613
v -689.1487 -25.4191 -409.1613
v -642.3487 367.7409 -380.6133
v -682.7394 -25.7573 -415.0101
v -642.3487 367.7409 -380.6133
v -635.9394 367.4027 -386.4621
v -682.7394 -25.7573 -415.0101
v -682.7394 -25.7573 -415.0101
v -635.9394 367.4027 -386.4621
v -674.3047 -26.6255 -416.8815
v -635.9394 367.4027 -386.4621
v -627.5047 366.5345 -388.3335
v -674.3047 -26.6255 -416.8815
v -674.3047 -26.6255 -416.8815
v -627.5047 366.5345 -388.3335
v -666.1044 -27.7909 -414.2740
v -627.5047 366.5345 -388.3335
v -619.3044 365.3691 -385.7260
v -666.1044 -27.7909 -414.2740
v -666.1044 -27.7909 -414.2740
v -619.3044 365.3691 -385.7260
v -660.3360 -28.9414 -407.8863
v -619.3044 365.3691 -385.7260
v -613.5360 364.2186 -379.3383
v -660.3360 -28.9414 -407.8863
v -660.3360 -28.9414 -407.8863
v -613.5360 364.2186 -379.3383
v -658.5450 -29.7686 -399.4300
v -613.5360 364.2186 -379.3383
v -611.7450 363.3914 -370.8820
v -658.5450 -29.7686 -399.4300
v -658.5450 -29.7686 -399.4300
v -611.7450 363.3914 -370.8820
v -661.2113 -30.0509 -391.1709
v -611.7450 363.3914 -370.8820
v -614.4113 363.1091 -362.6229
v -661.2113 -30.0509 -391.1709
v -661.2113 -30.0509 -391.1709
v -614.4113 363.1091 -362.6229
v -667.6206 -29.7127 -385.3221
v -614.4113 363.1091 -362.6229
v -620.8206 363.4473 -356.7741
v -667.6206 -29.7127 -385.3221
v -667.6206 -29.7127 -385.3221
v -620.8206 363.4473 -356.7741
v -676.0553 -28.8445 -383.4507
v -620.8206 363.4473 -356.7741
v -629.2553 364.3155 -354.9027
v -676.0553 -28.8445 -383.4507
v -676.0553 -28.8445 -383.4507
v -629.2553 364.3155 -354.9027
v -684.2556 -27.6791 -386.0582
v -629.2553 364.3155 -354.9027
v -637.4556 365.4809 -357.5102
v -684.2556 -27.6791 -386.0582
v -684.2556 -27.6791 -386.0582
v -637.4556 365.4809 -357.5102
v -690.0240 -26.5286 -392.4459
v -637.4556 365.4809 -357.5102
v -643.2240 366.6314 -363.8979
v -690.0240 -26.5286 -392.4459
v -690.0240 -26.5286 -392.4459
v -691.8150 -25.7014 -400.9022
v -675.1800 -27.7350 -400.1661
v -691.8150 -25.7014 -400.9022
v -689.1487 -25.4191 -409.1613
v -675.1800 -27.7350 -400.1661
v -689.1487 -25.4191 -409.1613
v -682.7394 -25.7573 -415.0101
v -675.1800 -27.7350 -400.1661
v -682.7394 -25.7573 -415.0101
v -674.3047 -26.6255 -416.8815
v -675.1800 -27.7350 -400.1661
v -674.3047 -26.6255 -416.8815
v -666.1044 -27.7909 -414.2740
v -675.1800 -27.7350 -400.1661
v -666.1044 -27.7909 -414.2740
v -660.3360 -28.9414 -407.8863
v -675.1800 -27.7350 -400.1661
v -660.3360 -28.9414 -407.8863
v -658.5450 -29.7686 -399.4300
v -675.1800 -27.7350 -400.1661
v -658.5450 -29.7686 -399.4300
v -661.2113 -30.0509 -391.1709
v -675.1800 -27.7350 -400.1661
v -661.2113 -30.0509 -391.1709
v -667.6206 -29.7127 -385.3221
v -675.1800 -27.7350 -400.1661
v -667.6206 -29.7127 -385.3221
v -676.0553 -28.8445 -383.4507
v -675.1800 -27.7350 -400.1661
v -676.0553 -28.8445 -383.4507
v -684.2556 -27.6791 -386.0582
v -675.1800 -27.7350 -400.1661
v -684.2556 -27.6791 -386.0582
v -690.0240 -26.5286 -392.4459
v -675.1800 -27.7350 -400.1661
v -645.0150 367.4586 -372.3542
v -643.2240 366.6314 -363.8979
v -628.3800 365.4250 -371.6181
v -642.3487 367.7409 -380.6133
v -645.0150 367.4586 -372.3542
v -628.3800 365.4250 -371.6181
v -635.9394 367.4027 -386.4621
v -642.3487 367.7409 -380.6133
v -628.3800 365.4250 -371.6181
v -627.5047 366.5345 -388.3335
v -635.9394 367.4027 -386.4621
v -628.3800 365.4250 -371.6181
v -619.3044 365.3691 -385.7260
v -627.5047 366.5345 -388.3335
v -628.3800 365.4250 -371.6181
v -613.5360 364.2186 -379.3383
v -619.3044 365.3691 -385.7260
v -628.3800 365.4250 -371.6181
v -611.7450 363.3914 -370.8820
v -613.5360 364.2186 -379.3383
v -628.3800 365.4250 -371.6181
v -614.4113 363.1091 -362.6229
v -611.7450 363.3914 -370.8820
v -628.3800 365.4250 -371.6181
v -620.8206 363.4473 -356.7741
v -614.4113 363.1091 -362.6229
v -628.3800 365.4250 -371.6181
v -629.2553 364.3155 -354.9027
v -620.8206 363.4473 -356.7741
v -628.3800 365.4250 -371.6181
v -637.4556 365.4809 -357.5102
v -629.2553 364.3155 -354.9027
v -628.3800 365.4250 -371.6181
v -643.2240 366.6314 -363.8979
v -637.4556 365.4809 -357.5102
v -628.3800 365.4250 -371.6181
v 690.0240 49.0714 -392.4459
v 643.2240 442.2314 -363.8979
v 684.2556 47.9209 -386.0582
v 643.2240 442.2314 -363.8979
v 637.4556 441.0809 -357.5102
v 684.2556 47.9209 -386.0582
v 684.2556 47.9209 -386.0582
v 637.4556 441.0809 -357.5102
v 676.0553 46.7555 -383.4507
v 637.4556 441.0809 -357.5102
v 629.2553 439.9155 -354.9027
v 676.0553 46.7555 -383.4507
v 676.0553 46.7555 -383.4507
v 629.2553 439.9155 -354.9027
v 667.6206 45.8873 -385.3221
v 629.2553 439.9155 -354.9027
v 620.8206 439.0473 -356.7741
v 667.6206 45.8873 -385.3221
v 667.6206 45.8873 -385.3221
v 620.8206 439.0473 -356.7741
v 661.2113 45.5491 -391.1709
v 620.8206 439.0473 -356.7741
v 614.4113 438.7091 -362.6229
v 661.2113 45.5491 -391.1709
v 661.2113 45.5491 -391.1709
v 614.4113 438.7091 -362.6229
v 658.5450 45.8314 -399.4300
v 614.4113 438.7091 -362.6229
v 611.7450 438.9914 -370.8820
v 658.5450 45.8314 -399.4300
v 658.5450 45.8314 -399.4300
v 611.7450 438.9914 -370.8820
v 660.3360 46.6586 -407.8863
v 611.7450 438.9914 -370.8820
v 613.5360 439.8186 -379.3383
v 660.3360 46.6586 -407.8863
v 660.3360 46.6586 -407.8863
v 613.5360 439.8186 -379.3383
v 666.1044 47.8091 -414.2740
v 613.5360 439.8186 -379.3383
v 619.3044 440.9691 -385.7260
v 666.1044 47.8091 -414.2740
v 666.1044 47.8091 -414.2740
v 619.3044 440.9691 -385.7260
v 674.3047 48.9745 -416.8815
v 619.3044 440.9691 -385.7260
v 627.5047 442.1345 -388.3335
v 674.3047 48.9745 -416.8815
v 674.3047 48.9745 -416.8815
v 627.5047 442.1345 -388.3335
v 682.7394 49.8427 -415.0101
v 627.5047 442.1345 -388.3335
v 635.9394 443.0027 -386.4621
v 682.7394 49.8427 -415.0101
v 682.7394 49.8427 -415.0101
v 635.9394 443.0027 -386.4621
v 689.1487 50.1809 -409.1613
v 635.9394 443.0027 -386.4621
v 642.3487 443.3409 -380.6133
v 689.1487 50.1809 -409.1613
v 689.1487 50.1809 -409.1613
v 642.3487 443.3409 -380.6133
v 691.8150 49.8986 -400.9022
v 642.3487 443.3409 -380.6133
v 645.0150 443.0586 -372.3542
v 691.8150 49.8986 -400.9022
v 691.8150 49.8986 -400.9022
v 645.0150 443.0586 -372.3542
v 690.0240 49.0714 -392.4459
v 645.0150 443.0586 -372.3542
v 643.2240 442.2314 -363.8979
v 690.0240 49.0714 -392.4459
v 690.0240 49.0714 -392.4459
v 684.2556 47.9209 -386.0582
v 675.1800 47.8650 -400.1661
v 684.2556 47.9209 -386.0582
v 676.0553 46.7555 -383.4507
v 675.1800 47.8650 -400.1661
v 676.0553 46.7555 -383.4507
v 667.6206 45.8873 -385.3221
v 675.1800 47.8650 -400.1661
v 667.6206 45.8873 -385.3221
v 661.2113 45.5491 -391.1709
v 675.1800 47.8650 -400.1661
v 661.2113 45.5491 -391.1709
v 658.5450 45.8314 -399.4300
v 675.1800 47.8650 -400.1661
v 658.5450 45.8314 -399.4300
v 660.3360 46.6586 -407.8863
v 675.1800 47.8650 -400.1661
v 660.3360 46.6586 -407.8863
v 666.1044 47.8091 -414.2740
v 675.1800 47.8650 -400.1661
v 666.1044 47.8091 -414.2740
v 674.3047 48.9745 -416.8815
v 675.1800 47.8650 -400.1661
v 674.3047 48.9745 -416.8815
v 682.7394 49.8427 -415.0101
v 675.1800 47.8650 -400.1661
v 682.7394 49.8427 -415.0101
v 689.1487 50.1809 -409.1613
v 675.1800 47.8650 -400.1661
v 689.1487 50.1809 -409.1613
v 691.8150 49.8986 -400.9022
v 675.1800 47.8650 -400.1661
v 691.8150 49.8986 -400.9022
v 690.0240 49.0714 -392.4459
v 675.1800 47.8650 -400.1661
v 637.4556 441.0809 -357.5102
v 643.2240 442.2314 -363.8979
v 628.3800 441.0250 -371.6181
v 629.2553 439.9155 -354.9027
v 637.4556 441.0809 -357.5102
v 628.3800 441.0250 -371.6181
v 620.8206 439.0473 -356.7741
v 629.2553 439.9155 -354.9027
v 628.3800 441.0250 -371.6181
v 614.4113 438.7091 -362.6229
v 620.8206 439.0473 -356.7741
v 628.3800 441.0250 -371.6181
v 611.7450 438.9914 -370.8820
v 614.4113 438.7091 -362.6229
v 628.3800 441.0250 -371.6181
v 613.5360 439.8186 -379.3383
v 611.7450 438.9914 -370.8820
v 628.3800 441.0250 -371.6181
v 619.3044 440.9691 -385.7260
v 613.5360 439.8186 -379.3383
v 628.3800 441.0250 -371.6181
v 627.5047 442.1345 -388.3335
v 619.3044 440.9691 -385.7260
v 628.3800 441.0250 -371.6181
v 635.9394 443.0027 -386.4621
v 627.5047 442.1345 -388.3335
v 628.3800 441.0250 -371.6181
v 642.3487 443.3409 -380.6133
v 635.9394 443.0027 -386.4621
v 628.3800 441.0250 -371.6181
v 645.0150 443.0586 -372.3542
v 642.3487 443.3409 -380.6133
v 628.3800 441.0250 -371.6181
v 643.2240 442.2314 -363.8979
v 645.0150 443.0586 -372.3542
v 628.3800 441.0250 -371.6181
v -660.3360 122.2586 407.8863
v -613.5360 515.4186 379.3383
v -666.1044 123.4091 414.2740
v -613.5360 515.4186 379.3383
v -619.3044 516.5691 385.7260
v -666.1044 123.4091 414.2740
v -666.1044 123.4091 414.2740
v -619.3044 516.5691 385.7260
v -674.3047 124.5745 416.8815
v -619.3044 516.5691 385.7260
v -627.5047 517.7345 388.3335
v -674.3047 124.5745 416.8815
v -674.3047 124.5745 416.8815
v -627.5047 517.7345 388.3335
v -682.7394 125.4427 415.0101
v -627.5047 517.7345 388.3335
v -635.9394 518.6027 386.4621
v -682.7394 125.4427 415.0101
v -682.7394 125.4427 415.0101
v -635.9394 518.6027 386.4621
v -689.1487 125.7809 409.1613
v -635.9394 518.6027 386.4621
v -642.3487 518.9409 380.6133
v -689.1487 125.7809 409.1613
v -689.1487 125.7809 409.1613
v -642.3487 518.9409 380.6133
v -691.8150 125.4986 400.9022
v -642.3487 518.9409 380.6133
v -645.0150 518.6586 372.3542
v -691.8150 125.4986 400.9022
v -691.8150 125.4986 400.9022
v -645.0150 518.6586 372.3542
v -690.0240 124.6714 392.4459
v -645.0150 518.6586 372.3542
v -643.2240 517.8314 363.8979
v -690.0240 124.6714 392.4459
v -690.0240 124.6714 392.4459
v -643.2240 517.8314 363.8979
v -684.2556 123.5209 386.0582
v -643.2240 517.8314 363.8979
v -637.4556 516.6809 357.5102
v -684.2556 123.5209 386.0582
v -684.2556 123.5209 386.0582
v -637.4556 516.6809 357.5102
v -676.0553 122.3555 383.4507
v -637.4556 516.6809 357.5102
v -629.2553 515.5155 354.9027
v -676.0553 122.3555 383.4507
v -676.0553 122.3555 383.4507
v -629.2553 515.5155 354.9027
v -667.6206 121.4873 385.3221
v -629.2553 515.5155 354.9027
v -620.8206 514.6473 356.7741
v -667.6206 121.4873 385.3221
v -667.6206 121.4873 385.3221
v -620.8206 514.6473 356.7741
v -661.2113 121.1491 391.1709
v -620.8206 514.6473 356.7741
v -614.4113 514.3091 362.6229
v -661.2113 121.1491 391.1709
v -661.2113 121.1491 391.1709
v -614.4113 514.3091 362.6229
v -658.5450 121.4314 399.4300
v -614.4113 514.3091 362.6229
v -611.7450 514.5914 370.8820
v -658.5450 121.4314 399.4300
v -658.5450 121.4314 399.4300
v -611.7450 514.5914 370.8820
v -660.3360 122.2586 407.8863
v -611.7450 514.5914 370.8820
v -613.5360 515.4186 379.3383
v -660.3360 122.2586 407.8863
v -660.3360 122.2586 407.8863
v -666.1044 123.4091 414.2740
v -675.1800 123.4650 400.1661
v -666.1044 123.4091 414.2740
v -674.3047 124.5745 416.8815
v -675.1800 123.4650 400.1661
v -674.3047 124.5745 416.8815
v -682.7394 125.4427 415.0101
v -675.1800 123.4650 400.1661
v -682.7394 125.4427 415.0101
v -689.1487 125.7809 409.1613
v -675.1800 123.4650 400.1661
v -689.1487 125.7809 409.1613
v -691.8150 125.4986 400.9022
v -675.1800 123.4650 400.1661
v -691.8150 125.4986 400.9022
v -690.0240 124.6714 392.4459
v -675.1800 123.4650 400.1661
v -690.0240 124.6714 392.4459
v -684.2556 123.5209 386.0582
v -675.1800 123.4650 400.1661
v -684.2556 123.5209 386.0582
v -676.0553 122.3555 383.4507
v -675.1800 123.4650 400.1661
v -676.0553 122.3555 383.4507
v -667.6206 121.4873 385.3221
v -675.1800 123.4650 400.1661
v -667.6206 121.4873 385.3221
v -661.2113 121.1491 391.1709
v -675.1800 123.4650 400.1661
v -661.2113 121.1491 391.1709
v -658.5450 121.4314 399.4300
v -675.1800 123.4650 400.1661
v -658.5450 121.4314 399.4300
v -660.3360 122.2586 407.8863
v -675.1800 123.4650 400.1661
v -619.3044 516.5691 385.7260
v -613.5360 515.4186 379.3383
v -628.3800 516.6250 371.6181
v -627.5047 517.7345 388.3335
v -619.3044 516.5691 385.7260
v -628.3800 516.6250 371.6181
v -635.9394 518.6027 386.4621
v -627.5047 517.7345 388.3335
v -628.3800 516.6250 371.6181
v -642.3487 518.9409 380.6133
v -635.9394 518.6027 386.4621
v -628.3800 516.6250 371.6181
v -645.0150 518.6586 372.3542
v -642.3487 518.9409 380.6133
v -628.3800 516.6250 371.6181
v -643.2240 517.8314 363.8979
v -645.0150 518.6586 372.3542
v -628.3800 516.6250 371.6181
v -637.4556 516.6809 357.5102
v -643.2240 517.8314 363.8979
v -628.3800 516.6250 371.6181
v -629.2553 515.5155 354.9027
v -637.4556 516.6809 357.5102
v -628.3800 516.6250 371.6181
v -620.8206 514.6473 356.7741
v -629.2553 515.5155 354.9027
v -628.3800 516.6250 371.6181
v -614.4113 514.3091 362.6229
v -620.8206 514.6473 356.7741
v -628.3800 516.6250 371.6181
v -611.7450 514.5914 370.8820
v -614.4113 514.3091 362.6229
v -628.3800 516.6250 371.6181
v -613.5360 515.4186 379.3383
v -611.7450 514.5914 370.8820
v -628.3800 516.6250 371.6181
v 660.3360 -104.5414 407.8863
v 613.5360 288.6186 379.3383
v 658.5450 -105.3686 399.4300
v 613.5360 288.6186 379.3383
v 611.7450 287.7914 370.8820
v 658.5450 -105.3686 399.4300
v 658.5450 -105.3686 399.4300
v 611.7450 287.7914 370.8820
v 661.2113 -105.6509 391.1709
v 611.7450 287.7914 370.8820
v 614.4113 287.5091 362.6229
v 661.2113 -105.6509 391.1709
v 661.2113 -105.6509 391.1709
v 614.4113 287.5091 362.6229
v 667.6206 -105.3127 385.3221
v 614.4113 287.5091 362.6229
v 620.8206 287.8473 356.7741
v 667.6206 -105.3127 385.3221
v 667.6206 -105.3127 385.3221
v 620.8206 287.8473 356.7741
v 676.0553 -104.4445 383.4507
v 620.8206 287.8473 356.7741
v 629.2553 288.7155 354.9027
v 676.0553 -104.4445 383.4507
v 676.0553 -104.4445 383.4507
v 629.2553 288.7155 354.9027
v 684.2556 -103.2791 386.0582
v 629.2553 288.7155 354.9027
v 637.4556 289.8809 357.5102
v 684.2556 -103.2791 386.0582
v 684.2556 -103.2791 386.0582
v 637.4556 289.8809 357.5102
v 690.0240 -102.1286 392.4459
v 637.4556 289.8809 357.5102
v 643.2240 291.0314 363.8979
v 690.0240 -102.1286 392.4459
v 690.0240 -102.1286 392.4459
v 643.2240 291.0314 363.8979
v 691.8150 -101.3014 400.9022
v 643.2240 291.0314 363.8979
v 645.0150 291.8586 372.3542
v 691.8150 -101.3014 400.9022
v 691.8150 -101.3014 400.9022
v 645.0150 291.8586 372.3542
v 689.1487 -101.0191 409.1613
v 645.0150 291.8586 372.3542
v 642.3487 292.1409 380.6133
v 689.1487 -101.0191 409.1613
v 689.1487 -101.0191 409.1613
v 642.3487 292.1409 380.6133
v 682.7394 -101.3573 415.0101
v 642.3487 292.1409 380.6133
v 635.9394 291.8027 386.4621
v 682.7394 -101.3573 415.0101
v 682.7394 -101.3573 415.0101
v 635.9394 291.8027 386.4621
v 674.3047 -102.2255 416.8815
v 635.9394 291.8027 386.4621
v 627.5047 290.9345 388.3335
v 674.3047 -102.2255 416.8815
v 674.3047 -102.2255 416.8815
v 627.5047 290.9345 388.3335
v 666.1044 -103.3909 414.2740
v 627.5047 290.9345 388.3335
v 619.3044 289.7691 385.7260
v 666.1044 -103.3909 414.2740
v 666.1044 -103.3909 414.2740
v 619.3044 289.7691 385.7260
v 660.3360 -104.5414 407.8863
v 619.3044 289.7691 385.7260
v 613.5360 288.6186 379.3383
v 660.3360 -104.5414 407.8863
v 660.3360 -104.5414 407.8863
v 658.5450 -105.3686 399.4300
v 675.1800 -103.3350 400.1661
v 658.5450 -105.3686 399.4300
v 661.2113 -105.6509 391.1709
v 675.1800 -103.3350 400.1661
v 661.2113 -105.6509 391.1709
v 667.6206 -105.3127 385.3221
v 675.1800 -103.3350 400.1661
v 667.6206 -105.3127 385.3221
v 676.0553 -104.4445 383.4507
v 675.1800 -103.3350 400.1661
v 676.0553 -104.4445 383.4507
v 684.2556 -103.2791 386.0582
v 675.1800 -103.3350 400.1661
v 684.2556 -103.2791 386.0582
v 690.0240 -102.1286 392.4459
v 675.1800 -103.3350 400.1661
v 690.0240 -102.1286 392.4459
v 691.8150 -101.3014 400.9022
v 675.1800 -103.3350 400.1661
v 691.8150 -101.3014 400.9022
v 689.1487 -101.0191 409.1613
v 675.1800 -103.3350 400.1661
v 689.1487 -101.0191 409.1613
v 682.7394 -101.3573 415.0101
v 675.1800 -103.3350 400.1661
v 682.7394 -101.3573 415.0101
v 674.3047 -102.2255 416.8815
v 675.1800 -103.3350 400.1661
v 674.3047 -102.2255 416.8815
v 666.1044 -103.3909 414.2740
v 675.1800 -103.3350 400.1661
v 666.1044 -103.3909 414.2740
v 660.3360 -104.5414 407.8863
v 675.1800 -103.3350 400.1661
v 611.7450 287.7914 370.8820
v 613.5360 288.6186 379.3383
v 628.3800 289.8250 371.6181
v 614.4113 287.5091 362.6229
v 611.7450 287.7914 370.8820
v 628.3800 289.8250 371.6181
v 620.8206 287.8473 356.7741
v 614.4113 287.5091 362.6229
v 628.3800 289.8250 371.6181
v 629.2553 288.7155 354.9027
v 620.8206 287.8473 356.7741
v 628.3800 289.8250 371.6181
v 637.4556 289.8809 357.5102
v 629.2553 288.7155 354.9027
v 628.3800 289.8250 371.6181
v 643.2240 291.0314 363.8979
v 637.4556 289.8809 357.5102
v 628.3800 289.8250 371.6181
v 645.0150 291.8586 372.3542
v 643.2240 291.0314 363.8979
v 628.3800 289.8250 371.6181
v 642.3487 292.1409 380.6133
v 645.0150 291.8586 372.3542
v 628.3800 289.8250 371.6181
v 635.9394 291.8027 386.4621
v 642.3487 292.1409 380.6133
v 628.3800 289.8250 371.6181
v 627.5047 290.9345 388.3335
v 635.9394 291.8027 386.4621
v 628.3800 289.8250 371.6181
v 619.3044 289.7691 385.7260
v 627.5047 290.9345 388.3335
v 628.3800 289.8250 371.6181
v 613.5360 288.6186 379.3383
v 619.3044 289.7691 385.7260
v 628.3800 289.8250 371.6181
f 1 2 3
f 4 5 6
f 7 8 9
f 10 11 12
f 13 14 15
f 16 17 18
f 19 20 21
f 22 23 24
f 25 26 27
f 28 29 30
f 31 32 33
f 34 35 36
f 37 38 39
f 40 41 42
f 43 44 45
f 46 47 48
f 49 50 51
f 52 53 54
f 55 56 57
f 58 59 60
f 61 62 63
f 64 65 66
f 67 68 69
f 70 71 72
f 73 74 75
f 76 77 78
f 79 80 81
f 82 83 84
f 85 86 87
f 88 89 90
f 91 92 93
f 94 95 96
f 97 98 99
f 100 101 102
f 103 104 105
f 106 107 108
f 109 110 111
f 112 113 114
f 115 116 117
f 118 119 120
f 121 122 123
f 124 125 126
f 127 128 129
f 130 131 132
f 133 134 135
f 136 137 138
f 139 140 141
f 142 143 144
f 145 146 147
f 148 149 150
f 151 152 153
f 154 155 156
f 157 158 159
f 160 161 162
f 163 164 165
f 166 167 168
f 169 170 171
f 172 173 174
f 175 176 177
f 178 179 180
f 181 182 183
f 184 185 186
f 187 188 189
f 190 191 192
f 193 194 195
f 196 197 198
f 199 200 201
f 202 203 204
f 205 206 207
f 208 209 210
f 211 212 213
f 214 215 216
f 217 218 219
f 220 221 222
f 223 224 225
f 226 227 228
f 229 230 231
f 232 233 234
f 235 236 237
f 238 239 240
f 241 242 243
f 244 245 246
f 247 248 249
f 250 251 252
f 253 254 255
f 256 257 258
f 259 260 261
f 262 263 264
f 265 266 267
f 268 269 270
f 271 272 273
f 274 275 276
f 277 278 279
f 280 281 282
f 283 284 285
f 286 287 288
f 289 290 291
f 292 293 294
f 295 296 297
f 298 299 300
f 301 302 303
f 304 305 306
f 307 308 309
f 310 311 312
f 313 314 315
f 316 317 318
f 319 320 321
f 322 323 324
f 325 326 327
f 328 329 330
f 331 332 333
f 334 335 336
f 337 338 339
f 340 341 342
f 343 344 345
f 346 347 348
f 349 350 351
f 352 353 354
f 355 356 357
f 358 359 360
f 361 362 363
f 364 365 366
f 367 368 369
f 370 371 372
f 373 374 375
f 376 377 378
f 379 380 381
f 382 383 384
f 385 386 387
f 388 389 390
f 391 392 393
f 394 395 396
f 397 398 399
f 400 401 402
f 403 404 405
f 406 407 408
f 409 410 411
f 412 413 414
f 415 416 417
f 418 419 420
f 421 422 423
f 424 425 426
f 427 428 429
f 430 431 432
f 433 434 435
f 436 437 438
f 439 440 441
f 442 443 444
f 445 446 447
f 448 449 450
f 451 452 453
f 454 455 456
f 457 458 459
f 460 461 462
f 463 464 465
f 466 467 468
f 469 470 471
f 472 473 474
f 475 476 477
f 478 479 480
f 481 482 483
f 484 485 486
f 487 488 489
f 490 491 492
f 493 494 495
f 496 497 498
f 499 500 501
f 502 503 504
f 505 506 507
f 508 509 510
f 511 512 513
f 514 515 516
f 517 518 519
f 520 521 522
f 523 524 525
f 526 527 528
f 529 530 531
f 532 533 534
f 535 536 537
f 538 539 540
f 541 542 543
f 544 545 546
f 547 548 549
f 550 551 552
f 553 554 555
f 556 557 558
f 559 560 561
f 562 563 564
f 565 566 567
f 568 569 570
f 571 572 573
f 574 575 576
f 577 578 579
f 580 581 582
f 583 584 585
f 586 587 588
f 589 590 591
f 592 593 594
f 595 596 597
f 598 599 600
f 601 602 603
f 604 605 606
f 607 608 609
f 610 611 612
f 613 614 615
f 616 617 618
f 619 620 621
f 622 623 624
f 625 626 627
f 628 629 630
f 631 632 633
f 634 635 636
f 637 638 639
f 640 641 642
f 643 644 645
f 646 647 648
f 649 650 651
f 652 653 654
f 655 656 657
f 658 659 660
f 661 662 663
f 664 665 666
f 667 668 669
f 670 671 672
f 673 674 675
f 676 677 678
f 679 680 681
f 682 683 684
f 685 686 687
f 688 689 690
f 691 692 693
f 694 695 696
f 697 698 699
f 700 701 702
f 703 704 705
f 706 707 708
f 709 710 711
f 712 713 714
f 715 716 717
f 718 719 720
