# MATERIA - Bombo
# Geometria originale di studio. Unita mm. Non CAD del produttore.
v -185.1618 7.8137 -151.0030
v -165.2718 565.8887 -133.4530
v -184.2842 7.9819 -157.3462
v -165.2718 565.8887 -133.4530
v -164.3942 566.0569 -139.7962
v -184.2842 7.9819 -157.3462
v -184.2842 7.9819 -157.3462
v -164.3942 566.0569 -139.7962
v -180.3535 8.0009 -162.4042
v -164.3942 566.0569 -139.7962
v -160.4635 566.0759 -144.8542
v -180.3535 8.0009 -162.4042
v -180.3535 8.0009 -162.4042
v -160.4635 566.0759 -144.8542
v -174.4230 7.8656 -164.8218
v -160.4635 566.0759 -144.8542
v -154.5330 565.9406 -147.2718
v -174.4230 7.8656 -164.8218
v -174.4230 7.8656 -164.8218
v -154.5330 565.9406 -147.2718
v -168.0817 7.6122 -163.9511
v -154.5330 565.9406 -147.2718
v -148.1917 565.6872 -146.4011
v -168.0817 7.6122 -163.9511
v -168.0817 7.6122 -163.9511
v -148.1917 565.6872 -146.4011
v -163.0288 7.3086 -160.0256
v -148.1917 565.6872 -146.4011
v -143.1388 565.3836 -142.4756
v -163.0288 7.3086 -160.0256
v -163.0288 7.3086 -160.0256
v -143.1388 565.3836 -142.4756
v -160.6182 7.0363 -154.0970
v -143.1388 565.3836 -142.4756
v -140.7282 565.1113 -136.5470
v -160.6182 7.0363 -154.0970
v -160.6182 7.0363 -154.0970
v -140.7282 565.1113 -136.5470
v -161.4958 6.8681 -147.7538
v -140.7282 565.1113 -136.5470
v -141.6058 564.9431 -130.2038
v -161.4958 6.8681 -147.7538
v -161.4958 6.8681 -147.7538
v -141.6058 564.9431 -130.2038
v -165.4265 6.8491 -142.6958
v -141.6058 564.9431 -130.2038
v -145.5365 564.9241 -125.1458
v -165.4265 6.8491 -142.6958
v -165.4265 6.8491 -142.6958
v -145.5365 564.9241 -125.1458
v -171.3570 6.9844 -140.2782
v -145.5365 564.9241 -125.1458
v -151.4670 565.0594 -122.7282
v -171.3570 6.9844 -140.2782
v -171.3570 6.9844 -140.2782
v -151.4670 565.0594 -122.7282
v -177.6983 7.2378 -141.1489
v -151.4670 565.0594 -122.7282
v -157.8083 565.3128 -123.5989
v -177.6983 7.2378 -141.1489
v -177.6983 7.2378 -141.1489
v -157.8083 565.3128 -123.5989
v -182.7512 7.5414 -145.0744
v -157.8083 565.3128 -123.5989
v -162.8612 565.6164 -127.5244
v -182.7512 7.5414 -145.0744
v -182.7512 7.5414 -145.0744
v -162.8612 565.6164 -127.5244
v -185.1618 7.8137 -151.0030
v -162.8612 565.6164 -127.5244
v -165.2718 565.8887 -133.4530
v -185.1618 7.8137 -151.0030
v -185.1618 7.8137 -151.0030
v -184.2842 7.9819 -157.3462
v -172.8900 7.4250 -152.5500
v -184.2842 7.9819 -157.3462
v -180.3535 8.0009 -162.4042
v -172.8900 7.4250 -152.5500
v -180.3535 8.0009 -162.4042
v -174.4230 7.8656 -164.8218
v -172.8900 7.4250 -152.5500
v -174.4230 7.8656 -164.8218
v -168.0817 7.6122 -163.9511
v -172.8900 7.4250 -152.5500
v -168.0817 7.6122 -163.9511
v -163.0288 7.3086 -160.0256
v -172.8900 7.4250 -152.5500
v -163.0288 7.3086 -160.0256
v -160.6182 7.0363 -154.0970
v -172.8900 7.4250 -152.5500
v -160.6182 7.0363 -154.0970
v -161.4958 6.8681 -147.7538
v -172.8900 7.4250 -152.5500
v -161.4958 6.8681 -147.7538
v -165.4265 6.8491 -142.6958
v -172.8900 7.4250 -152.5500
v -165.4265 6.8491 -142.6958
v -171.3570 6.9844 -140.2782
v -172.8900 7.4250 -152.5500
v -171.3570 6.9844 -140.2782
v -177.6983 7.2378 -141.1489
v -172.8900 7.4250 -152.5500
v -177.6983 7.2378 -141.1489
v -182.7512 7.5414 -145.0744
v -172.8900 7.4250 -152.5500
v -182.7512 7.5414 -145.0744
v -185.1618 7.8137 -151.0030
v -172.8900 7.4250 -152.5500
v -164.3942 566.0569 -139.7962
v -165.2718 565.8887 -133.4530
v -153.0000 565.5000 -135.0000
v -160.4635 566.0759 -144.8542
v -164.3942 566.0569 -139.7962
v -153.0000 565.5000 -135.0000
v -154.5330 565.9406 -147.2718
v -160.4635 566.0759 -144.8542
v -153.0000 565.5000 -135.0000
v -148.1917 565.6872 -146.4011
v -154.5330 565.9406 -147.2718
v -153.0000 565.5000 -135.0000
v -143.1388 565.3836 -142.4756
v -148.1917 565.6872 -146.4011
v -153.0000 565.5000 -135.0000
v -140.7282 565.1113 -136.5470
v -143.1388 565.3836 -142.4756
v -153.0000 565.5000 -135.0000
v -141.6058 564.9431 -130.2038
v -140.7282 565.1113 -136.5470
v -153.0000 565.5000 -135.0000
v -145.5365 564.9241 -125.1458
v -141.6058 564.9431 -130.2038
v -153.0000 565.5000 -135.0000
v -151.4670 565.0594 -122.7282
v -145.5365 564.9241 -125.1458
v -153.0000 565.5000 -135.0000
v -157.8083 565.3128 -123.5989
v -151.4670 565.0594 -122.7282
v -153.0000 565.5000 -135.0000
v -162.8612 565.6164 -127.5244
v -157.8083 565.3128 -123.5989
v -153.0000 565.5000 -135.0000
v -165.2718 565.8887 -133.4530
v -162.8612 565.6164 -127.5244
v -153.0000 565.5000 -135.0000
v 185.1618 7.8137 -151.0030
v 165.2718 565.8887 -133.4530
v 182.7512 7.5414 -145.0744
v 165.2718 565.8887 -133.4530
v 162.8612 565.6164 -127.5244
v 182.7512 7.5414 -145.0744
v 182.7512 7.5414 -145.0744
v 162.8612 565.6164 -127.5244
v 177.6983 7.2378 -141.1489
v 162.8612 565.6164 -127.5244
v 157.8083 565.3128 -123.5989
v 177.6983 7.2378 -141.1489
v 177.6983 7.2378 -141.1489
v 157.8083 565.3128 -123.5989
v 171.3570 6.9844 -140.2782
v 157.8083 565.3128 -123.5989
v 151.4670 565.0594 -122.7282
v 171.3570 6.9844 -140.2782
v 171.3570 6.9844 -140.2782
v 151.4670 565.0594 -122.7282
v 165.4265 6.8491 -142.6958
v 151.4670 565.0594 -122.7282
v 145.5365 564.9241 -125.1458
v 165.4265 6.8491 -142.6958
v 165.4265 6.8491 -142.6958
v 145.5365 564.9241 -125.1458
v 161.4958 6.8681 -147.7538
v 145.5365 564.9241 -125.1458
v 141.6058 564.9431 -130.2038
v 161.4958 6.8681 -147.7538
v 161.4958 6.8681 -147.7538
v 141.6058 564.9431 -130.2038
v 160.6182 7.0363 -154.0970
v 141.6058 564.9431 -130.2038
v 140.7282 565.1113 -136.5470
v 160.6182 7.0363 -154.0970
v 160.6182 7.0363 -154.0970
v 140.7282 565.1113 -136.5470
v 163.0288 7.3086 -160.0256
v 140.7282 565.1113 -136.5470
v 143.1388 565.3836 -142.4756
v 163.0288 7.3086 -160.0256
v 163.0288 7.3086 -160.0256
v 143.1388 565.3836 -142.4756
v 168.0817 7.6122 -163.9511
v 143.1388 565.3836 -142.4756
v 148.1917 565.6872 -146.4011
v 168.0817 7.6122 -163.9511
v 168.0817 7.6122 -163.9511
v 148.1917 565.6872 -146.4011
v 174.4230 7.8656 -164.8218
v 148.1917 565.6872 -146.4011
v 154.5330 565.9406 -147.2718
v 174.4230 7.8656 -164.8218
v 174.4230 7.8656 -164.8218
v 154.5330 565.9406 -147.2718
v 180.3535 8.0009 -162.4042
v 154.5330 565.9406 -147.2718
v 160.4635 566.0759 -144.8542
v 180.3535 8.0009 -162.4042
v 180.3535 8.0009 -162.4042
v 160.4635 566.0759 -144.8542
v 184.2842 7.9819 -157.3462
v 160.4635 566.0759 -144.8542
v 164.3942 566.0569 -139.7962
v 184.2842 7.9819 -157.3462
v 184.2842 7.9819 -157.3462
v 164.3942 566.0569 -139.7962
v 185.1618 7.8137 -151.0030
v 164.3942 566.0569 -139.7962
v 165.2718 565.8887 -133.4530
v 185.1618 7.8137 -151.0030
v 185.1618 7.8137 -151.0030
v 182.7512 7.5414 -145.0744
v 172.8900 7.4250 -152.5500
v 182.7512 7.5414 -145.0744
v 177.6983 7.2378 -141.1489
v 172.8900 7.4250 -152.5500
v 177.6983 7.2378 -141.1489
v 171.3570 6.9844 -140.2782
v 172.8900 7.4250 -152.5500
v 171.3570 6.9844 -140.2782
v 165.4265 6.8491 -142.6958
v 172.8900 7.4250 -152.5500
v 165.4265 6.8491 -142.6958
v 161.4958 6.8681 -147.7538
v 172.8900 7.4250 -152.5500
v 161.4958 6.8681 -147.7538
v 160.6182 7.0363 -154.0970
v 172.8900 7.4250 -152.5500
v 160.6182 7.0363 -154.0970
v 163.0288 7.3086 -160.0256
v 172.8900 7.4250 -152.5500
v 163.0288 7.3086 -160.0256
v 168.0817 7.6122 -163.9511
v 172.8900 7.4250 -152.5500
v 168.0817 7.6122 -163.9511
v 174.4230 7.8656 -164.8218
v 172.8900 7.4250 -152.5500
v 174.4230 7.8656 -164.8218
v 180.3535 8.0009 -162.4042
v 172.8900 7.4250 -152.5500
v 180.3535 8.0009 -162.4042
v 184.2842 7.9819 -157.3462
v 172.8900 7.4250 -152.5500
v 184.2842 7.9819 -157.3462
v 185.1618 7.8137 -151.0030
v 172.8900 7.4250 -152.5500
v 162.8612 565.6164 -127.5244
v 165.2718 565.8887 -133.4530
v 153.0000 565.5000 -135.0000
v 157.8083 565.3128 -123.5989
v 162.8612 565.6164 -127.5244
v 153.0000 565.5000 -135.0000
v 151.4670 565.0594 -122.7282
v 157.8083 565.3128 -123.5989
v 153.0000 565.5000 -135.0000
v 145.5365 564.9241 -125.1458
v 151.4670 565.0594 -122.7282
v 153.0000 565.5000 -135.0000
v 141.6058 564.9431 -130.2038
v 145.5365 564.9241 -125.1458
v 153.0000 565.5000 -135.0000
v 140.7282 565.1113 -136.5470
v 141.6058 564.9431 -130.2038
v 153.0000 565.5000 -135.0000
v 143.1388 565.3836 -142.4756
v 140.7282 565.1113 -136.5470
v 153.0000 565.5000 -135.0000
v 148.1917 565.6872 -146.4011
v 143.1388 565.3836 -142.4756
v 153.0000 565.5000 -135.0000
v 154.5330 565.9406 -147.2718
v 148.1917 565.6872 -146.4011
v 153.0000 565.5000 -135.0000
v 160.4635 566.0759 -144.8542
v 154.5330 565.9406 -147.2718
v 153.0000 565.5000 -135.0000
v 164.3942 566.0569 -139.7962
v 160.4635 566.0759 -144.8542
v 153.0000 565.5000 -135.0000
v 165.2718 565.8887 -133.4530
v 164.3942 566.0569 -139.7962
v 153.0000 565.5000 -135.0000
v 0.0000 6.9972 155.4374
v 0.0000 565.0722 136.1324
v 6.1875 7.0545 157.0943
v 0.0000 565.0722 136.1324
v 6.1875 565.1295 137.7893
v 6.1875 7.0545 157.0943
v 6.1875 7.0545 157.0943
v 6.1875 565.1295 137.7893
v 10.7171 7.2111 161.6212
v 6.1875 565.1295 137.7893
v 10.7171 565.2861 142.3162
v 10.7171 7.2111 161.6212
v 10.7171 7.2111 161.6212
v 10.7171 565.2861 142.3162
v 12.3750 7.4250 167.8050
v 10.7171 565.2861 142.3162
v 12.3750 565.5000 148.5000
v 12.3750 7.4250 167.8050
v 12.3750 7.4250 167.8050
v 12.3750 565.5000 148.5000
v 10.7171 7.6389 173.9888
v 12.3750 565.5000 148.5000
v 10.7171 565.7139 154.6838
v 10.7171 7.6389 173.9888
v 10.7171 7.6389 173.9888
v 10.7171 565.7139 154.6838
v 6.1875 7.7955 178.5157
v 10.7171 565.7139 154.6838
v 6.1875 565.8705 159.2107
v 6.1875 7.7955 178.5157
v 6.1875 7.7955 178.5157
v 6.1875 565.8705 159.2107
v 0.0000 7.8528 180.1726
v 6.1875 565.8705 159.2107
v 0.0000 565.9278 160.8676
v 0.0000 7.8528 180.1726
v 0.0000 7.8528 180.1726
v 0.0000 565.9278 160.8676
v -6.1875 7.7955 178.5157
v 0.0000 565.9278 160.8676
v -6.1875 565.8705 159.2107
v -6.1875 7.7955 178.5157
v -6.1875 7.7955 178.5157
v -6.1875 565.8705 159.2107
v -10.7171 7.6389 173.9888
v -6.1875 565.8705 159.2107
v -10.7171 565.7139 154.6838
v -10.7171 7.6389 173.9888
v -10.7171 7.6389 173.9888
v -10.7171 565.7139 154.6838
v -12.3750 7.4250 167.8050
v -10.7171 565.7139 154.6838
v -12.3750 565.5000 148.5000
v -12.3750 7.4250 167.8050
v -12.3750 7.4250 167.8050
v -12.3750 565.5000 148.5000
v -10.7171 7.2111 161.6212
v -12.3750 565.5000 148.5000
v -10.7171 565.2861 142.3162
v -10.7171 7.2111 161.6212
v -10.7171 7.2111 161.6212
v -10.7171 565.2861 142.3162
v -6.1875 7.0545 157.0943
v -10.7171 565.2861 142.3162
v -6.1875 565.1295 137.7893
v -6.1875 7.0545 157.0943
v -6.1875 7.0545 157.0943
v -6.1875 565.1295 137.7893
v -0.0000 6.9972 155.4374
v -6.1875 565.1295 137.7893
v -0.0000 565.0722 136.1324
v -0.0000 6.9972 155.4374
v 0.0000 6.9972 155.4374
v 6.1875 7.0545 157.0943
v 0.0000 7.4250 167.8050
v 6.1875 7.0545 157.0943
v 10.7171 7.2111 161.6212
v 0.0000 7.4250 167.8050
v 10.7171 7.2111 161.6212
v 12.3750 7.4250 167.8050
v 0.0000 7.4250 167.8050
v 12.3750 7.4250 167.8050
v 10.7171 7.6389 173.9888
v 0.0000 7.4250 167.8050
v 10.7171 7.6389 173.9888
v 6.1875 7.7955 178.5157
v 0.0000 7.4250 167.8050
v 6.1875 7.7955 178.5157
v 0.0000 7.8528 180.1726
v 0.0000 7.4250 167.8050
v 0.0000 7.8528 180.1726
v -6.1875 7.7955 178.5157
v 0.0000 7.4250 167.8050
v -6.1875 7.7955 178.5157
v -10.7171 7.6389 173.9888
v 0.0000 7.4250 167.8050
v -10.7171 7.6389 173.9888
v -12.3750 7.4250 167.8050
v 0.0000 7.4250 167.8050
v -12.3750 7.4250 167.8050
v -10.7171 7.2111 161.6212
v 0.0000 7.4250 167.8050
v -10.7171 7.2111 161.6212
v -6.1875 7.0545 157.0943
v 0.0000 7.4250 167.8050
v -6.1875 7.0545 157.0943
v -0.0000 6.9972 155.4374
v 0.0000 7.4250 167.8050
v 6.1875 565.1295 137.7893
v 0.0000 565.0722 136.1324
v 0.0000 565.5000 148.5000
v 10.7171 565.2861 142.3162
v 6.1875 565.1295 137.7893
v 0.0000 565.5000 148.5000
v 12.3750 565.5000 148.5000
v 10.7171 565.2861 142.3162
v 0.0000 565.5000 148.5000
v 10.7171 565.7139 154.6838
v 12.3750 565.5000 148.5000
v 0.0000 565.5000 148.5000
v 6.1875 565.8705 159.2107
v 10.7171 565.7139 154.6838
v 0.0000 565.5000 148.5000
v 0.0000 565.9278 160.8676
v 6.1875 565.8705 159.2107
v 0.0000 565.5000 148.5000
v -6.1875 565.8705 159.2107
v 0.0000 565.9278 160.8676
v 0.0000 565.5000 148.5000
v -10.7171 565.7139 154.6838
v -6.1875 565.8705 159.2107
v 0.0000 565.5000 148.5000
v -12.3750 565.5000 148.5000
v -10.7171 565.7139 154.6838
v 0.0000 565.5000 148.5000
v -10.7171 565.2861 142.3162
v -12.3750 565.5000 148.5000
v 0.0000 565.5000 148.5000
v -6.1875 565.1295 137.7893
v -10.7171 565.2861 142.3162
v 0.0000 565.5000 148.5000
v -0.0000 565.0722 136.1324
v -6.1875 565.1295 137.7893
v 0.0000 565.5000 148.5000
v 0.0000 650.0000 225.0000
v 0.0000 600.5000 225.0000
v 112.5000 650.0000 194.8557
v 0.0000 600.5000 225.0000
v 112.5000 600.5000 194.8557
v 112.5000 650.0000 194.8557
v 112.5000 650.0000 194.8557
v 112.5000 600.5000 194.8557
v 194.8557 650.0000 112.5000
v 112.5000 600.5000 194.8557
v 194.8557 600.5000 112.5000
v 194.8557 650.0000 112.5000
v 194.8557 650.0000 112.5000
v 194.8557 600.5000 112.5000
v 225.0000 650.0000 0.0000
v 194.8557 600.5000 112.5000
v 225.0000 600.5000 0.0000
v 225.0000 650.0000 0.0000
v 225.0000 650.0000 0.0000
v 225.0000 600.5000 0.0000
v 194.8557 650.0000 -112.5000
v 225.0000 600.5000 0.0000
v 194.8557 600.5000 -112.5000
v 194.8557 650.0000 -112.5000
v 194.8557 650.0000 -112.5000
v 194.8557 600.5000 -112.5000
v 112.5000 650.0000 -194.8557
v 194.8557 600.5000 -112.5000
v 112.5000 600.5000 -194.8557
v 112.5000 650.0000 -194.8557
v 112.5000 650.0000 -194.8557
v 112.5000 600.5000 -194.8557
v 0.0000 650.0000 -225.0000
v 112.5000 600.5000 -194.8557
v 0.0000 600.5000 -225.0000
v 0.0000 650.0000 -225.0000
v 0.0000 650.0000 -225.0000
v 0.0000 600.5000 -225.0000
v -112.5000 650.0000 -194.8557
v 0.0000 600.5000 -225.0000
v -112.5000 600.5000 -194.8557
v -112.5000 650.0000 -194.8557
v -112.5000 650.0000 -194.8557
v -112.5000 600.5000 -194.8557
v -194.8557 650.0000 -112.5000
v -112.5000 600.5000 -194.8557
v -194.8557 600.5000 -112.5000
v -194.8557 650.0000 -112.5000
v -194.8557 650.0000 -112.5000
v -194.8557 600.5000 -112.5000
v -225.0000 650.0000 -0.0000
v -194.8557 600.5000 -112.5000
v -225.0000 600.5000 -0.0000
v -225.0000 650.0000 -0.0000
v -225.0000 650.0000 -0.0000
v -225.0000 600.5000 -0.0000
v -194.8557 650.0000 112.5000
v -225.0000 600.5000 -0.0000
v -194.8557 600.5000 112.5000
v -194.8557 650.0000 112.5000
v -194.8557 650.0000 112.5000
v -194.8557 600.5000 112.5000
v -112.5000 650.0000 194.8557
v -194.8557 600.5000 112.5000
v -112.5000 600.5000 194.8557
v -112.5000 650.0000 194.8557
v -112.5000 650.0000 194.8557
v -112.5000 600.5000 194.8557
v -0.0000 650.0000 225.0000
v -112.5000 600.5000 194.8557
v -0.0000 600.5000 225.0000
v -0.0000 650.0000 225.0000
v 0.0000 650.0000 225.0000
v 112.5000 650.0000 194.8557
v 0.0000 650.0000 0.0000
v 112.5000 650.0000 194.8557
v 194.8557 650.0000 112.5000
v 0.0000 650.0000 0.0000
v 194.8557 650.0000 112.5000
v 225.0000 650.0000 0.0000
v 0.0000 650.0000 0.0000
v 225.0000 650.0000 0.0000
v 194.8557 650.0000 -112.5000
v 0.0000 650.0000 0.0000
v 194.8557 650.0000 -112.5000
v 112.5000 650.0000 -194.8557
v 0.0000 650.0000 0.0000
v 112.5000 650.0000 -194.8557
v 0.0000 650.0000 -225.0000
v 0.0000 650.0000 0.0000
v 0.0000 650.0000 -225.0000
v -112.5000 650.0000 -194.8557
v 0.0000 650.0000 0.0000
v -112.5000 650.0000 -194.8557
v -194.8557 650.0000 -112.5000
v 0.0000 650.0000 0.0000
v -194.8557 650.0000 -112.5000
v -225.0000 650.0000 -0.0000
v 0.0000 650.0000 0.0000
v -225.0000 650.0000 -0.0000
v -194.8557 650.0000 112.5000
v 0.0000 650.0000 0.0000
v -194.8557 650.0000 112.5000
v -112.5000 650.0000 194.8557
v 0.0000 650.0000 0.0000
v -112.5000 650.0000 194.8557
v -0.0000 650.0000 225.0000
v 0.0000 650.0000 0.0000
v 112.5000 600.5000 194.8557
v 0.0000 600.5000 225.0000
v 0.0000 600.5000 0.0000
v 194.8557 600.5000 112.5000
v 112.5000 600.5000 194.8557
v 0.0000 600.5000 0.0000
v 225.0000 600.5000 0.0000
v 194.8557 600.5000 112.5000
v 0.0000 600.5000 0.0000
v 194.8557 600.5000 -112.5000
v 225.0000 600.5000 0.0000
v 0.0000 600.5000 0.0000
v 112.5000 600.5000 -194.8557
v 194.8557 600.5000 -112.5000
v 0.0000 600.5000 0.0000
v 0.0000 600.5000 -225.0000
v 112.5000 600.5000 -194.8557
v 0.0000 600.5000 0.0000
v -112.5000 600.5000 -194.8557
v 0.0000 600.5000 -225.0000
v 0.0000 600.5000 0.0000
v -194.8557 600.5000 -112.5000
v -112.5000 600.5000 -194.8557
v 0.0000 600.5000 0.0000
v -225.0000 600.5000 -0.0000
v -194.8557 600.5000 -112.5000
v 0.0000 600.5000 0.0000
v -194.8557 600.5000 112.5000
v -225.0000 600.5000 -0.0000
v 0.0000 600.5000 0.0000
v -112.5000 600.5000 194.8557
v -194.8557 600.5000 112.5000
v 0.0000 600.5000 0.0000
v -0.0000 600.5000 225.0000
v -112.5000 600.5000 194.8557
v 0.0000 600.5000 0.0000
f 1 2 3
f 4 5 6
f 7 8 9
f 10 11 12
f 13 14 15
f 16 17 18
f 19 20 21
f 22 23 24
f 25 26 27
f 28 29 30
f 31 32 33
f 34 35 36
f 37 38 39
f 40 41 42
f 43 44 45
f 46 47 48
f 49 50 51
f 52 53 54
f 55 56 57
f 58 59 60
f 61 62 63
f 64 65 66
f 67 68 69
f 70 71 72
f 73 74 75
f 76 77 78
f 79 80 81
f 82 83 84
f 85 86 87
f 88 89 90
f 91 92 93
f 94 95 96
f 97 98 99
f 100 101 102
f 103 104 105
f 106 107 108
f 109 110 111
f 112 113 114
f 115 116 117
f 118 119 120
f 121 122 123
f 124 125 126
f 127 128 129
f 130 131 132
f 133 134 135
f 136 137 138
f 139 140 141
f 142 143 144
f 145 146 147
f 148 149 150
f 151 152 153
f 154 155 156
f 157 158 159
f 160 161 162
f 163 164 165
f 166 167 168
f 169 170 171
f 172 173 174
f 175 176 177
f 178 179 180
f 181 182 183
f 184 185 186
f 187 188 189
f 190 191 192
f 193 194 195
f 196 197 198
f 199 200 201
f 202 203 204
f 205 206 207
f 208 209 210
f 211 212 213
f 214 215 216
f 217 218 219
f 220 221 222
f 223 224 225
f 226 227 228
f 229 230 231
f 232 233 234
f 235 236 237
f 238 239 240
f 241 242 243
f 244 245 246
f 247 248 249
f 250 251 252
f 253 254 255
f 256 257 258
f 259 260 261
f 262 263 264
f 265 266 267
f 268 269 270
f 271 272 273
f 274 275 276
f 277 278 279
f 280 281 282
f 283 284 285
f 286 287 288
f 289 290 291
f 292 293 294
f 295 296 297
f 298 299 300
f 301 302 303
f 304 305 306
f 307 308 309
f 310 311 312
f 313 314 315
f 316 317 318
f 319 320 321
f 322 323 324
f 325 326 327
f 328 329 330
f 331 332 333
f 334 335 336
f 337 338 339
f 340 341 342
f 343 344 345
f 346 347 348
f 349 350 351
f 352 353 354
f 355 356 357
f 358 359 360
f 361 362 363
f 364 365 366
f 367 368 369
f 370 371 372
f 373 374 375
f 376 377 378
f 379 380 381
f 382 383 384
f 385 386 387
f 388 389 390
f 391 392 393
f 394 395 396
f 397 398 399
f 400 401 402
f 403 404 405
f 406 407 408
f 409 410 411
f 412 413 414
f 415 416 417
f 418 419 420
f 421 422 423
f 424 425 426
f 427 428 429
f 430 431 432
f 433 434 435
f 436 437 438
f 439 440 441
f 442 443 444
f 445 446 447
f 448 449 450
f 451 452 453
f 454 455 456
f 457 458 459
f 460 461 462
f 463 464 465
f 466 467 468
f 469 470 471
f 472 473 474
f 475 476 477
f 478 479 480
f 481 482 483
f 484 485 486
f 487 488 489
f 490 491 492
f 493 494 495
f 496 497 498
f 499 500 501
f 502 503 504
f 505 506 507
f 508 509 510
f 511 512 513
f 514 515 516
f 517 518 519
f 520 521 522
f 523 524 525
f 526 527 528
f 529 530 531
f 532 533 534
f 535 536 537
f 538 539 540
f 541 542 543
f 544 545 546
f 547 548 549
f 550 551 552
f 553 554 555
f 556 557 558
f 559 560 561
f 562 563 564
f 565 566 567
f 568 569 570
f 571 572 573
f 574 575 576
