# MATERIA - Bombo
# Geometria originale di studio. Unita mm. Non CAD del produttore.
v -299.2233 -167.6863 -244.4568
v -279.3333 390.3887 -226.9068
v -298.3457 -167.5181 -250.7999
v -279.3333 390.3887 -226.9068
v -278.4557 390.5569 -233.2499
v -298.3457 -167.5181 -250.7999
v -298.3457 -167.5181 -250.7999
v -278.4557 390.5569 -233.2499
v -294.4150 -167.4991 -255.8579
v -278.4557 390.5569 -233.2499
v -274.5250 390.5759 -238.3079
v -294.4150 -167.4991 -255.8579
v -294.4150 -167.4991 -255.8579
v -274.5250 390.5759 -238.3079
v -288.4845 -167.6344 -258.2755
v -274.5250 390.5759 -238.3079
v -268.5945 390.4406 -240.7255
v -288.4845 -167.6344 -258.2755
v -288.4845 -167.6344 -258.2755
v -268.5945 390.4406 -240.7255
v -282.1432 -167.8878 -257.4049
v -268.5945 390.4406 -240.7255
v -262.2532 390.1872 -239.8549
v -282.1432 -167.8878 -257.4049
v -282.1432 -167.8878 -257.4049
v -262.2532 390.1872 -239.8549
v -277.0903 -168.1914 -253.4793
v -262.2532 390.1872 -239.8549
v -257.2003 389.8836 -235.9293
v -277.0903 -168.1914 -253.4793
v -277.0903 -168.1914 -253.4793
v -257.2003 389.8836 -235.9293
v -274.6797 -168.4637 -247.5507
v -257.2003 389.8836 -235.9293
v -254.7897 389.6113 -230.0007
v -274.6797 -168.4637 -247.5507
v -274.6797 -168.4637 -247.5507
v -254.7897 389.6113 -230.0007
v -275.5573 -168.6319 -241.2076
v -254.7897 389.6113 -230.0007
v -255.6673 389.4431 -223.6576
v -275.5573 -168.6319 -241.2076
v -275.5573 -168.6319 -241.2076
v -255.6673 389.4431 -223.6576
v -279.4880 -168.6509 -236.1496
v -255.6673 389.4431 -223.6576
v -259.5980 389.4241 -218.5996
v -279.4880 -168.6509 -236.1496
v -279.4880 -168.6509 -236.1496
v -259.5980 389.4241 -218.5996
v -285.4185 -168.5156 -233.7320
v -259.5980 389.4241 -218.5996
v -265.5285 389.5594 -216.1820
v -285.4185 -168.5156 -233.7320
v -285.4185 -168.5156 -233.7320
v -265.5285 389.5594 -216.1820
v -291.7598 -168.2622 -234.6026
v -265.5285 389.5594 -216.1820
v -271.8698 389.8128 -217.0526
v -291.7598 -168.2622 -234.6026
v -291.7598 -168.2622 -234.6026
v -271.8698 389.8128 -217.0526
v -296.8127 -167.9586 -238.5282
v -271.8698 389.8128 -217.0526
v -276.9227 390.1164 -220.9782
v -296.8127 -167.9586 -238.5282
v -296.8127 -167.9586 -238.5282
v -276.9227 390.1164 -220.9782
v -299.2233 -167.6863 -244.4568
v -276.9227 390.1164 -220.9782
v -279.3333 390.3887 -226.9068
v -299.2233 -167.6863 -244.4568
v -299.2233 -167.6863 -244.4568
v -298.3457 -167.5181 -250.7999
v -286.9515 -168.0750 -246.0038
v -298.3457 -167.5181 -250.7999
v -294.4150 -167.4991 -255.8579
v -286.9515 -168.0750 -246.0038
v -294.4150 -167.4991 -255.8579
v -288.4845 -167.6344 -258.2755
v -286.9515 -168.0750 -246.0038
v -288.4845 -167.6344 -258.2755
v -282.1432 -167.8878 -257.4049
v -286.9515 -168.0750 -246.0038
v -282.1432 -167.8878 -257.4049
v -277.0903 -168.1914 -253.4793
v -286.9515 -168.0750 -246.0038
v -277.0903 -168.1914 -253.4793
v -274.6797 -168.4637 -247.5507
v -286.9515 -168.0750 -246.0038
v -274.6797 -168.4637 -247.5507
v -275.5573 -168.6319 -241.2076
v -286.9515 -168.0750 -246.0038
v -275.5573 -168.6319 -241.2076
v -279.4880 -168.6509 -236.1496
v -286.9515 -168.0750 -246.0038
v -279.4880 -168.6509 -236.1496
v -285.4185 -168.5156 -233.7320
v -286.9515 -168.0750 -246.0038
v -285.4185 -168.5156 -233.7320
v -291.7598 -168.2622 -234.6026
v -286.9515 -168.0750 -246.0038
v -291.7598 -168.2622 -234.6026
v -296.8127 -167.9586 -238.5282
v -286.9515 -168.0750 -246.0038
v -296.8127 -167.9586 -238.5282
v -299.2233 -167.6863 -244.4568
v -286.9515 -168.0750 -246.0038
v -278.4557 390.5569 -233.2499
v -279.3333 390.3887 -226.9068
v -267.0615 390.0000 -228.4537
v -274.5250 390.5759 -238.3079
v -278.4557 390.5569 -233.2499
v -267.0615 390.0000 -228.4537
v -268.5945 390.4406 -240.7255
v -274.5250 390.5759 -238.3079
v -267.0615 390.0000 -228.4537
v -262.2532 390.1872 -239.8549
v -268.5945 390.4406 -240.7255
v -267.0615 390.0000 -228.4537
v -257.2003 389.8836 -235.9293
v -262.2532 390.1872 -239.8549
v -267.0615 390.0000 -228.4537
v -254.7897 389.6113 -230.0007
v -257.2003 389.8836 -235.9293
v -267.0615 390.0000 -228.4537
v -255.6673 389.4431 -223.6576
v -254.7897 389.6113 -230.0007
v -267.0615 390.0000 -228.4537
v -259.5980 389.4241 -218.5996
v -255.6673 389.4431 -223.6576
v -267.0615 390.0000 -228.4537
v -265.5285 389.5594 -216.1820
v -259.5980 389.4241 -218.5996
v -267.0615 390.0000 -228.4537
v -271.8698 389.8128 -217.0526
v -265.5285 389.5594 -216.1820
v -267.0615 390.0000 -228.4537
v -276.9227 390.1164 -220.9782
v -271.8698 389.8128 -217.0526
v -267.0615 390.0000 -228.4537
v -279.3333 390.3887 -226.9068
v -276.9227 390.1164 -220.9782
v -267.0615 390.0000 -228.4537
v 299.2233 -50.6863 -244.4568
v 279.3333 507.3887 -226.9068
v 296.8127 -50.9586 -238.5282
v 279.3333 507.3887 -226.9068
v 276.9227 507.1164 -220.9782
v 296.8127 -50.9586 -238.5282
v 296.8127 -50.9586 -238.5282
v 276.9227 507.1164 -220.9782
v 291.7598 -51.2622 -234.6026
v 276.9227 507.1164 -220.9782
v 271.8698 506.8128 -217.0526
v 291.7598 -51.2622 -234.6026
v 291.7598 -51.2622 -234.6026
v 271.8698 506.8128 -217.0526
v 285.4185 -51.5156 -233.7320
v 271.8698 506.8128 -217.0526
v 265.5285 506.5594 -216.1820
v 285.4185 -51.5156 -233.7320
v 285.4185 -51.5156 -233.7320
v 265.5285 506.5594 -216.1820
v 279.4880 -51.6509 -236.1496
v 265.5285 506.5594 -216.1820
v 259.5980 506.4241 -218.5996
v 279.4880 -51.6509 -236.1496
v 279.4880 -51.6509 -236.1496
v 259.5980 506.4241 -218.5996
v 275.5573 -51.6319 -241.2076
v 259.5980 506.4241 -218.5996
v 255.6673 506.4431 -223.6576
v 275.5573 -51.6319 -241.2076
v 275.5573 -51.6319 -241.2076
v 255.6673 506.4431 -223.6576
v 274.6797 -51.4637 -247.5507
v 255.6673 506.4431 -223.6576
v 254.7897 506.6113 -230.0007
v 274.6797 -51.4637 -247.5507
v 274.6797 -51.4637 -247.5507
v 254.7897 506.6113 -230.0007
v 277.0903 -51.1914 -253.4793
v 254.7897 506.6113 -230.0007
v 257.2003 506.8836 -235.9293
v 277.0903 -51.1914 -253.4793
v 277.0903 -51.1914 -253.4793
v 257.2003 506.8836 -235.9293
v 282.1432 -50.8878 -257.4049
v 257.2003 506.8836 -235.9293
v 262.2532 507.1872 -239.8549
v 282.1432 -50.8878 -257.4049
v 282.1432 -50.8878 -257.4049
v 262.2532 507.1872 -239.8549
v 288.4845 -50.6344 -258.2755
v 262.2532 507.1872 -239.8549
v 268.5945 507.4406 -240.7255
v 288.4845 -50.6344 -258.2755
v 288.4845 -50.6344 -258.2755
v 268.5945 507.4406 -240.7255
v 294.4150 -50.4991 -255.8579
v 268.5945 507.4406 -240.7255
v 274.5250 507.5759 -238.3079
v 294.4150 -50.4991 -255.8579
v 294.4150 -50.4991 -255.8579
v 274.5250 507.5759 -238.3079
v 298.3457 -50.5181 -250.7999
v 274.5250 507.5759 -238.3079
v 278.4557 507.5569 -233.2499
v 298.3457 -50.5181 -250.7999
v 298.3457 -50.5181 -250.7999
v 278.4557 507.5569 -233.2499
v 299.2233 -50.6863 -244.4568
v 278.4557 507.5569 -233.2499
v 279.3333 507.3887 -226.9068
v 299.2233 -50.6863 -244.4568
v 299.2233 -50.6863 -244.4568
v 296.8127 -50.9586 -238.5282
v 286.9515 -51.0750 -246.0038
v 296.8127 -50.9586 -238.5282
v 291.7598 -51.2622 -234.6026
v 286.9515 -51.0750 -246.0038
v 291.7598 -51.2622 -234.6026
v 285.4185 -51.5156 -233.7320
v 286.9515 -51.0750 -246.0038
v 285.4185 -51.5156 -233.7320
v 279.4880 -51.6509 -236.1496
v 286.9515 -51.0750 -246.0038
v 279.4880 -51.6509 -236.1496
v 275.5573 -51.6319 -241.2076
v 286.9515 -51.0750 -246.0038
v 275.5573 -51.6319 -241.2076
v 274.6797 -51.4637 -247.5507
v 286.9515 -51.0750 -246.0038
v 274.6797 -51.4637 -247.5507
v 277.0903 -51.1914 -253.4793
v 286.9515 -51.0750 -246.0038
v 277.0903 -51.1914 -253.4793
v 282.1432 -50.8878 -257.4049
v 286.9515 -51.0750 -246.0038
v 282.1432 -50.8878 -257.4049
v 288.4845 -50.6344 -258.2755
v 286.9515 -51.0750 -246.0038
v 288.4845 -50.6344 -258.2755
v 294.4150 -50.4991 -255.8579
v 286.9515 -51.0750 -246.0038
v 294.4150 -50.4991 -255.8579
v 298.3457 -50.5181 -250.7999
v 286.9515 -51.0750 -246.0038
v 298.3457 -50.5181 -250.7999
v 299.2233 -50.6863 -244.4568
v 286.9515 -51.0750 -246.0038
v 276.9227 507.1164 -220.9782
v 279.3333 507.3887 -226.9068
v 267.0615 507.0000 -228.4537
v 271.8698 506.8128 -217.0526
v 276.9227 507.1164 -220.9782
v 267.0615 507.0000 -228.4537
v 265.5285 506.5594 -216.1820
v 271.8698 506.8128 -217.0526
v 267.0615 507.0000 -228.4537
v 259.5980 506.4241 -218.5996
v 265.5285 506.5594 -216.1820
v 267.0615 507.0000 -228.4537
v 255.6673 506.4431 -223.6576
v 259.5980 506.4241 -218.5996
v 267.0615 507.0000 -228.4537
v 254.7897 506.6113 -230.0007
v 255.6673 506.4431 -223.6576
v 267.0615 507.0000 -228.4537
v 257.2003 506.8836 -235.9293
v 254.7897 506.6113 -230.0007
v 267.0615 507.0000 -228.4537
v 262.2532 507.1872 -239.8549
v 257.2003 506.8836 -235.9293
v 267.0615 507.0000 -228.4537
v 268.5945 507.4406 -240.7255
v 262.2532 507.1872 -239.8549
v 267.0615 507.0000 -228.4537
v 274.5250 507.5759 -238.3079
v 268.5945 507.4406 -240.7255
v 267.0615 507.0000 -228.4537
v 278.4557 507.5569 -233.2499
v 274.5250 507.5759 -238.3079
v 267.0615 507.0000 -228.4537
v 279.3333 507.3887 -226.9068
v 278.4557 507.5569 -233.2499
v 267.0615 507.0000 -228.4537
v 0.0000 65.4972 258.2365
v 0.0000 623.5722 238.9315
v 6.1875 65.5545 259.8935
v 0.0000 623.5722 238.9315
v 6.1875 623.6295 240.5885
v 6.1875 65.5545 259.8935
v 6.1875 65.5545 259.8935
v 6.1875 623.6295 240.5885
v 10.7171 65.7111 264.4203
v 6.1875 623.6295 240.5885
v 10.7171 623.7861 245.1153
v 10.7171 65.7111 264.4203
v 10.7171 65.7111 264.4203
v 10.7171 623.7861 245.1153
v 12.3750 65.9250 270.6041
v 10.7171 623.7861 245.1153
v 12.3750 624.0000 251.2991
v 12.3750 65.9250 270.6041
v 12.3750 65.9250 270.6041
v 12.3750 624.0000 251.2991
v 10.7171 66.1389 276.7879
v 12.3750 624.0000 251.2991
v 10.7171 624.2139 257.4829
v 10.7171 66.1389 276.7879
v 10.7171 66.1389 276.7879
v 10.7171 624.2139 257.4829
v 6.1875 66.2955 281.3148
v 10.7171 624.2139 257.4829
v 6.1875 624.3705 262.0098
v 6.1875 66.2955 281.3148
v 6.1875 66.2955 281.3148
v 6.1875 624.3705 262.0098
v 0.0000 66.3528 282.9717
v 6.1875 624.3705 262.0098
v 0.0000 624.4278 263.6667
v 0.0000 66.3528 282.9717
v 0.0000 66.3528 282.9717
v 0.0000 624.4278 263.6667
v -6.1875 66.2955 281.3148
v 0.0000 624.4278 263.6667
v -6.1875 624.3705 262.0098
v -6.1875 66.2955 281.3148
v -6.1875 66.2955 281.3148
v -6.1875 624.3705 262.0098
v -10.7171 66.1389 276.7879
v -6.1875 624.3705 262.0098
v -10.7171 624.2139 257.4829
v -10.7171 66.1389 276.7879
v -10.7171 66.1389 276.7879
v -10.7171 624.2139 257.4829
v -12.3750 65.9250 270.6041
v -10.7171 624.2139 257.4829
v -12.3750 624.0000 251.2991
v -12.3750 65.9250 270.6041
v -12.3750 65.9250 270.6041
v -12.3750 624.0000 251.2991
v -10.7171 65.7111 264.4203
v -12.3750 624.0000 251.2991
v -10.7171 623.7861 245.1153
v -10.7171 65.7111 264.4203
v -10.7171 65.7111 264.4203
v -10.7171 623.7861 245.1153
v -6.1875 65.5545 259.8935
v -10.7171 623.7861 245.1153
v -6.1875 623.6295 240.5885
v -6.1875 65.5545 259.8935
v -6.1875 65.5545 259.8935
v -6.1875 623.6295 240.5885
v -0.0000 65.4972 258.2365
v -6.1875 623.6295 240.5885
v -0.0000 623.5722 238.9315
v -0.0000 65.4972 258.2365
v 0.0000 65.4972 258.2365
v 6.1875 65.5545 259.8935
v 0.0000 65.9250 270.6041
v 6.1875 65.5545 259.8935
v 10.7171 65.7111 264.4203
v 0.0000 65.9250 270.6041
v 10.7171 65.7111 264.4203
v 12.3750 65.9250 270.6041
v 0.0000 65.9250 270.6041
v 12.3750 65.9250 270.6041
v 10.7171 66.1389 276.7879
v 0.0000 65.9250 270.6041
v 10.7171 66.1389 276.7879
v 6.1875 66.2955 281.3148
v 0.0000 65.9250 270.6041
v 6.1875 66.2955 281.3148
v 0.0000 66.3528 282.9717
v 0.0000 65.9250 270.6041
v 0.0000 66.3528 282.9717
v -6.1875 66.2955 281.3148
v 0.0000 65.9250 270.6041
v -6.1875 66.2955 281.3148
v -10.7171 66.1389 276.7879
v 0.0000 65.9250 270.6041
v -10.7171 66.1389 276.7879
v -12.3750 65.9250 270.6041
v 0.0000 65.9250 270.6041
v -12.3750 65.9250 270.6041
v -10.7171 65.7111 264.4203
v 0.0000 65.9250 270.6041
v -10.7171 65.7111 264.4203
v -6.1875 65.5545 259.8935
v 0.0000 65.9250 270.6041
v -6.1875 65.5545 259.8935
v -0.0000 65.4972 258.2365
v 0.0000 65.9250 270.6041
v 6.1875 623.6295 240.5885
v 0.0000 623.5722 238.9315
v 0.0000 624.0000 251.2991
v 10.7171 623.7861 245.1153
v 6.1875 623.6295 240.5885
v 0.0000 624.0000 251.2991
v 12.3750 624.0000 251.2991
v 10.7171 623.7861 245.1153
v 0.0000 624.0000 251.2991
v 10.7171 624.2139 257.4829
v 12.3750 624.0000 251.2991
v 0.0000 624.0000 251.2991
v 6.1875 624.3705 262.0098
v 10.7171 624.2139 257.4829
v 0.0000 624.0000 251.2991
v 0.0000 624.4278 263.6667
v 6.1875 624.3705 262.0098
v 0.0000 624.0000 251.2991
v -6.1875 624.3705 262.0098
v 0.0000 624.4278 263.6667
v 0.0000 624.0000 251.2991
v -10.7171 624.2139 257.4829
v -6.1875 624.3705 262.0098
v 0.0000 624.0000 251.2991
v -12.3750 624.0000 251.2991
v -10.7171 624.2139 257.4829
v 0.0000 624.0000 251.2991
v -10.7171 623.7861 245.1153
v -12.3750 624.0000 251.2991
v 0.0000 624.0000 251.2991
v -6.1875 623.6295 240.5885
v -10.7171 623.7861 245.1153
v 0.0000 624.0000 251.2991
v -0.0000 623.5722 238.9315
v -6.1875 623.6295 240.5885
v 0.0000 624.0000 251.2991
v 0.0000 825.5000 225.0000
v 0.0000 776.0000 225.0000
v 112.5000 825.5000 194.8557
v 0.0000 776.0000 225.0000
v 112.5000 776.0000 194.8557
v 112.5000 825.5000 194.8557
v 112.5000 825.5000 194.8557
v 112.5000 776.0000 194.8557
v 194.8557 825.5000 112.5000
v 112.5000 776.0000 194.8557
v 194.8557 776.0000 112.5000
v 194.8557 825.5000 112.5000
v 194.8557 825.5000 112.5000
v 194.8557 776.0000 112.5000
v 225.0000 825.5000 0.0000
v 194.8557 776.0000 112.5000
v 225.0000 776.0000 0.0000
v 225.0000 825.5000 0.0000
v 225.0000 825.5000 0.0000
v 225.0000 776.0000 0.0000
v 194.8557 825.5000 -112.5000
v 225.0000 776.0000 0.0000
v 194.8557 776.0000 -112.5000
v 194.8557 825.5000 -112.5000
v 194.8557 825.5000 -112.5000
v 194.8557 776.0000 -112.5000
v 112.5000 825.5000 -194.8557
v 194.8557 776.0000 -112.5000
v 112.5000 776.0000 -194.8557
v 112.5000 825.5000 -194.8557
v 112.5000 825.5000 -194.8557
v 112.5000 776.0000 -194.8557
v 0.0000 825.5000 -225.0000
v 112.5000 776.0000 -194.8557
v 0.0000 776.0000 -225.0000
v 0.0000 825.5000 -225.0000
v 0.0000 825.5000 -225.0000
v 0.0000 776.0000 -225.0000
v -112.5000 825.5000 -194.8557
v 0.0000 776.0000 -225.0000
v -112.5000 776.0000 -194.8557
v -112.5000 825.5000 -194.8557
v -112.5000 825.5000 -194.8557
v -112.5000 776.0000 -194.8557
v -194.8557 825.5000 -112.5000
v -112.5000 776.0000 -194.8557
v -194.8557 776.0000 -112.5000
v -194.8557 825.5000 -112.5000
v -194.8557 825.5000 -112.5000
v -194.8557 776.0000 -112.5000
v -225.0000 825.5000 -0.0000
v -194.8557 776.0000 -112.5000
v -225.0000 776.0000 -0.0000
v -225.0000 825.5000 -0.0000
v -225.0000 825.5000 -0.0000
v -225.0000 776.0000 -0.0000
v -194.8557 825.5000 112.5000
v -225.0000 776.0000 -0.0000
v -194.8557 776.0000 112.5000
v -194.8557 825.5000 112.5000
v -194.8557 825.5000 112.5000
v -194.8557 776.0000 112.5000
v -112.5000 825.5000 194.8557
v -194.8557 776.0000 112.5000
v -112.5000 776.0000 194.8557
v -112.5000 825.5000 194.8557
v -112.5000 825.5000 194.8557
v -112.5000 776.0000 194.8557
v -0.0000 825.5000 225.0000
v -112.5000 776.0000 194.8557
v -0.0000 776.0000 225.0000
v -0.0000 825.5000 225.0000
v 0.0000 825.5000 225.0000
v 112.5000 825.5000 194.8557
v 0.0000 825.5000 0.0000
v 112.5000 825.5000 194.8557
v 194.8557 825.5000 112.5000
v 0.0000 825.5000 0.0000
v 194.8557 825.5000 112.5000
v 225.0000 825.5000 0.0000
v 0.0000 825.5000 0.0000
v 225.0000 825.5000 0.0000
v 194.8557 825.5000 -112.5000
v 0.0000 825.5000 0.0000
v 194.8557 825.5000 -112.5000
v 112.5000 825.5000 -194.8557
v 0.0000 825.5000 0.0000
v 112.5000 825.5000 -194.8557
v 0.0000 825.5000 -225.0000
v 0.0000 825.5000 0.0000
v 0.0000 825.5000 -225.0000
v -112.5000 825.5000 -194.8557
v 0.0000 825.5000 0.0000
v -112.5000 825.5000 -194.8557
v -194.8557 825.5000 -112.5000
v 0.0000 825.5000 0.0000
v -194.8557 825.5000 -112.5000
v -225.0000 825.5000 -0.0000
v 0.0000 825.5000 0.0000
v -225.0000 825.5000 -0.0000
v -194.8557 825.5000 112.5000
v 0.0000 825.5000 0.0000
v -194.8557 825.5000 112.5000
v -112.5000 825.5000 194.8557
v 0.0000 825.5000 0.0000
v -112.5000 825.5000 194.8557
v -0.0000 825.5000 225.0000
v 0.0000 825.5000 0.0000
v 112.5000 776.0000 194.8557
v 0.0000 776.0000 225.0000
v 0.0000 776.0000 0.0000
v 194.8557 776.0000 112.5000
v 112.5000 776.0000 194.8557
v 0.0000 776.0000 0.0000
v 225.0000 776.0000 0.0000
v 194.8557 776.0000 112.5000
v 0.0000 776.0000 0.0000
v 194.8557 776.0000 -112.5000
v 225.0000 776.0000 0.0000
v 0.0000 776.0000 0.0000
v 112.5000 776.0000 -194.8557
v 194.8557 776.0000 -112.5000
v 0.0000 776.0000 0.0000
v 0.0000 776.0000 -225.0000
v 112.5000 776.0000 -194.8557
v 0.0000 776.0000 0.0000
v -112.5000 776.0000 -194.8557
v 0.0000 776.0000 -225.0000
v 0.0000 776.0000 0.0000
v -194.8557 776.0000 -112.5000
v -112.5000 776.0000 -194.8557
v 0.0000 776.0000 0.0000
v -225.0000 776.0000 -0.0000
v -194.8557 776.0000 -112.5000
v 0.0000 776.0000 0.0000
v -194.8557 776.0000 112.5000
v -225.0000 776.0000 -0.0000
v 0.0000 776.0000 0.0000
v -112.5000 776.0000 194.8557
v -194.8557 776.0000 112.5000
v 0.0000 776.0000 0.0000
v -0.0000 776.0000 225.0000
v -112.5000 776.0000 194.8557
v 0.0000 776.0000 0.0000
f 1 2 3
f 4 5 6
f 7 8 9
f 10 11 12
f 13 14 15
f 16 17 18
f 19 20 21
f 22 23 24
f 25 26 27
f 28 29 30
f 31 32 33
f 34 35 36
f 37 38 39
f 40 41 42
f 43 44 45
f 46 47 48
f 49 50 51
f 52 53 54
f 55 56 57
f 58 59 60
f 61 62 63
f 64 65 66
f 67 68 69
f 70 71 72
f 73 74 75
f 76 77 78
f 79 80 81
f 82 83 84
f 85 86 87
f 88 89 90
f 91 92 93
f 94 95 96
f 97 98 99
f 100 101 102
f 103 104 105
f 106 107 108
f 109 110 111
f 112 113 114
f 115 116 117
f 118 119 120
f 121 122 123
f 124 125 126
f 127 128 129
f 130 131 132
f 133 134 135
f 136 137 138
f 139 140 141
f 142 143 144
f 145 146 147
f 148 149 150
f 151 152 153
f 154 155 156
f 157 158 159
f 160 161 162
f 163 164 165
f 166 167 168
f 169 170 171
f 172 173 174
f 175 176 177
f 178 179 180
f 181 182 183
f 184 185 186
f 187 188 189
f 190 191 192
f 193 194 195
f 196 197 198
f 199 200 201
f 202 203 204
f 205 206 207
f 208 209 210
f 211 212 213
f 214 215 216
f 217 218 219
f 220 221 222
f 223 224 225
f 226 227 228
f 229 230 231
f 232 233 234
f 235 236 237
f 238 239 240
f 241 242 243
f 244 245 246
f 247 248 249
f 250 251 252
f 253 254 255
f 256 257 258
f 259 260 261
f 262 263 264
f 265 266 267
f 268 269 270
f 271 272 273
f 274 275 276
f 277 278 279
f 280 281 282
f 283 284 285
f 286 287 288
f 289 290 291
f 292 293 294
f 295 296 297
f 298 299 300
f 301 302 303
f 304 305 306
f 307 308 309
f 310 311 312
f 313 314 315
f 316 317 318
f 319 320 321
f 322 323 324
f 325 326 327
f 328 329 330
f 331 332 333
f 334 335 336
f 337 338 339
f 340 341 342
f 343 344 345
f 346 347 348
f 349 350 351
f 352 353 354
f 355 356 357
f 358 359 360
f 361 362 363
f 364 365 366
f 367 368 369
f 370 371 372
f 373 374 375
f 376 377 378
f 379 380 381
f 382 383 384
f 385 386 387
f 388 389 390
f 391 392 393
f 394 395 396
f 397 398 399
f 400 401 402
f 403 404 405
f 406 407 408
f 409 410 411
f 412 413 414
f 415 416 417
f 418 419 420
f 421 422 423
f 424 425 426
f 427 428 429
f 430 431 432
f 433 434 435
f 436 437 438
f 439 440 441
f 442 443 444
f 445 446 447
f 448 449 450
f 451 452 453
f 454 455 456
f 457 458 459
f 460 461 462
f 463 464 465
f 466 467 468
f 469 470 471
f 472 473 474
f 475 476 477
f 478 479 480
f 481 482 483
f 484 485 486
f 487 488 489
f 490 491 492
f 493 494 495
f 496 497 498
f 499 500 501
f 502 503 504
f 505 506 507
f 508 509 510
f 511 512 513
f 514 515 516
f 517 518 519
f 520 521 522
f 523 524 525
f 526 527 528
f 529 530 531
f 532 533 534
f 535 536 537
f 538 539 540
f 541 542 543
f 544 545 546
f 547 548 549
f 550 551 552
f 553 554 555
f 556 557 558
f 559 560 561
f 562 563 564
f 565 566 567
f 568 569 570
f 571 572 573
f 574 575 576
