# MATERIA - 360° Container
# Geometria originale di studio. Unita mm. Non CAD del produttore.
v 0.0000 1200.0000 13.6125
v 0.0000 0.0000 13.6125
v 6.8063 1200.0000 11.7888
v 0.0000 0.0000 13.6125
v 6.8063 0.0000 11.7888
v 6.8063 1200.0000 11.7888
v 6.8063 1200.0000 11.7888
v 6.8063 0.0000 11.7888
v 11.7888 1200.0000 6.8063
v 6.8063 0.0000 11.7888
v 11.7888 0.0000 6.8063
v 11.7888 1200.0000 6.8063
v 11.7888 1200.0000 6.8063
v 11.7888 0.0000 6.8063
v 13.6125 1200.0000 0.0000
v 11.7888 0.0000 6.8063
v 13.6125 0.0000 0.0000
v 13.6125 1200.0000 0.0000
v 13.6125 1200.0000 0.0000
v 13.6125 0.0000 0.0000
v 11.7888 1200.0000 -6.8063
v 13.6125 0.0000 0.0000
v 11.7888 0.0000 -6.8063
v 11.7888 1200.0000 -6.8063
v 11.7888 1200.0000 -6.8063
v 11.7888 0.0000 -6.8063
v 6.8063 1200.0000 -11.7888
v 11.7888 0.0000 -6.8063
v 6.8063 0.0000 -11.7888
v 6.8063 1200.0000 -11.7888
v 6.8063 1200.0000 -11.7888
v 6.8063 0.0000 -11.7888
v 0.0000 1200.0000 -13.6125
v 6.8063 0.0000 -11.7888
v 0.0000 0.0000 -13.6125
v 0.0000 1200.0000 -13.6125
v 0.0000 1200.0000 -13.6125
v 0.0000 0.0000 -13.6125
v -6.8063 1200.0000 -11.7888
v 0.0000 0.0000 -13.6125
v -6.8063 0.0000 -11.7888
v -6.8063 1200.0000 -11.7888
v -6.8063 1200.0000 -11.7888
v -6.8063 0.0000 -11.7888
v -11.7888 1200.0000 -6.8063
v -6.8063 0.0000 -11.7888
v -11.7888 0.0000 -6.8063
v -11.7888 1200.0000 -6.8063
v -11.7888 1200.0000 -6.8063
v -11.7888 0.0000 -6.8063
v -13.6125 1200.0000 -0.0000
v -11.7888 0.0000 -6.8063
v -13.6125 0.0000 -0.0000
v -13.6125 1200.0000 -0.0000
v -13.6125 1200.0000 -0.0000
v -13.6125 0.0000 -0.0000
v -11.7888 1200.0000 6.8063
v -13.6125 0.0000 -0.0000
v -11.7888 0.0000 6.8063
v -11.7888 1200.0000 6.8063
v -11.7888 1200.0000 6.8063
v -11.7888 0.0000 6.8063
v -6.8063 1200.0000 11.7888
v -11.7888 0.0000 6.8063
v -6.8063 0.0000 11.7888
v -6.8063 1200.0000 11.7888
v -6.8063 1200.0000 11.7888
v -6.8063 0.0000 11.7888
v -0.0000 1200.0000 13.6125
v -6.8063 0.0000 11.7888
v -0.0000 0.0000 13.6125
v -0.0000 1200.0000 13.6125
v 0.0000 1200.0000 13.6125
v 6.8063 1200.0000 11.7888
v 0.0000 1200.0000 0.0000
v 6.8063 1200.0000 11.7888
v 11.7888 1200.0000 6.8063
v 0.0000 1200.0000 0.0000
v 11.7888 1200.0000 6.8063
v 13.6125 1200.0000 0.0000
v 0.0000 1200.0000 0.0000
v 13.6125 1200.0000 0.0000
v 11.7888 1200.0000 -6.8063
v 0.0000 1200.0000 0.0000
v 11.7888 1200.0000 -6.8063
v 6.8063 1200.0000 -11.7888
v 0.0000 1200.0000 0.0000
v 6.8063 1200.0000 -11.7888
v 0.0000 1200.0000 -13.6125
v 0.0000 1200.0000 0.0000
v 0.0000 1200.0000 -13.6125
v -6.8063 1200.0000 -11.7888
v 0.0000 1200.0000 0.0000
v -6.8063 1200.0000 -11.7888
v -11.7888 1200.0000 -6.8063
v 0.0000 1200.0000 0.0000
v -11.7888 1200.0000 -6.8063
v -13.6125 1200.0000 -0.0000
v 0.0000 1200.0000 0.0000
v -13.6125 1200.0000 -0.0000
v -11.7888 1200.0000 6.8063
v 0.0000 1200.0000 0.0000
v -11.7888 1200.0000 6.8063
v -6.8063 1200.0000 11.7888
v 0.0000 1200.0000 0.0000
v -6.8063 1200.0000 11.7888
v -0.0000 1200.0000 13.6125
v 0.0000 1200.0000 0.0000
v 6.8063 0.0000 11.7888
v 0.0000 0.0000 13.6125
v 0.0000 0.0000 0.0000
v 11.7888 0.0000 6.8063
v 6.8063 0.0000 11.7888
v 0.0000 0.0000 0.0000
v 13.6125 0.0000 0.0000
v 11.7888 0.0000 6.8063
v 0.0000 0.0000 0.0000
v 11.7888 0.0000 -6.8063
v 13.6125 0.0000 0.0000
v 0.0000 0.0000 0.0000
v 6.8063 0.0000 -11.7888
v 11.7888 0.0000 -6.8063
v 0.0000 0.0000 0.0000
v 0.0000 0.0000 -13.6125
v 6.8063 0.0000 -11.7888
v 0.0000 0.0000 0.0000
v -6.8063 0.0000 -11.7888
v 0.0000 0.0000 -13.6125
v 0.0000 0.0000 0.0000
v -11.7888 0.0000 -6.8063
v -6.8063 0.0000 -11.7888
v 0.0000 0.0000 0.0000
v -13.6125 0.0000 -0.0000
v -11.7888 0.0000 -6.8063
v 0.0000 0.0000 0.0000
v -11.7888 0.0000 6.8063
v -13.6125 0.0000 -0.0000
v 0.0000 0.0000 0.0000
v -6.8063 0.0000 11.7888
v -11.7888 0.0000 6.8063
v 0.0000 0.0000 0.0000
v -0.0000 0.0000 13.6125
v -6.8063 0.0000 11.7888
v 0.0000 0.0000 0.0000
v 372.0000 117.3250 225.0000
v 372.0000 82.6750 225.0000
v 372.0000 117.3250 -225.0000
v 372.0000 82.6750 225.0000
v 372.0000 82.6750 -225.0000
v 372.0000 117.3250 -225.0000
v -372.0000 117.3250 -225.0000
v -372.0000 82.6750 -225.0000
v -372.0000 117.3250 225.0000
v -372.0000 82.6750 -225.0000
v -372.0000 82.6750 225.0000
v -372.0000 117.3250 225.0000
v -372.0000 117.3250 -225.0000
v -372.0000 117.3250 225.0000
v 372.0000 117.3250 -225.0000
v -372.0000 117.3250 225.0000
v 372.0000 117.3250 225.0000
v 372.0000 117.3250 -225.0000
v -372.0000 82.6750 225.0000
v -372.0000 82.6750 -225.0000
v 372.0000 82.6750 225.0000
v -372.0000 82.6750 -225.0000
v 372.0000 82.6750 -225.0000
v 372.0000 82.6750 225.0000
v -372.0000 117.3250 225.0000
v -372.0000 82.6750 225.0000
v 372.0000 117.3250 225.0000
v -372.0000 82.6750 225.0000
v 372.0000 82.6750 225.0000
v 372.0000 117.3250 225.0000
v 372.0000 117.3250 -225.0000
v 372.0000 82.6750 -225.0000
v -372.0000 117.3250 -225.0000
v 372.0000 82.6750 -225.0000
v -372.0000 82.6750 -225.0000
v -372.0000 117.3250 -225.0000
v 537.1489 317.3250 70.9671
v 537.1489 282.6750 70.9671
v 370.2347 317.3250 -346.9320
v 537.1489 282.6750 70.9671
v 370.2347 282.6750 -346.9320
v 370.2347 317.3250 -346.9320
v -320.6918 317.3250 -70.9671
v -320.6918 282.6750 -70.9671
v -153.7776 317.3250 346.9320
v -320.6918 282.6750 -70.9671
v -153.7776 282.6750 346.9320
v -153.7776 317.3250 346.9320
v -320.6918 317.3250 -70.9671
v -153.7776 317.3250 346.9320
v 370.2347 317.3250 -346.9320
v -153.7776 317.3250 346.9320
v 537.1489 317.3250 70.9671
v 370.2347 317.3250 -346.9320
v -153.7776 282.6750 346.9320
v -320.6918 282.6750 -70.9671
v 537.1489 282.6750 70.9671
v -320.6918 282.6750 -70.9671
v 370.2347 282.6750 -346.9320
v 537.1489 282.6750 70.9671
v -153.7776 317.3250 346.9320
v -153.7776 282.6750 346.9320
v 537.1489 317.3250 70.9671
v -153.7776 282.6750 346.9320
v 537.1489 282.6750 70.9671
v 537.1489 317.3250 70.9671
v 370.2347 317.3250 -346.9320
v 370.2347 282.6750 -346.9320
v -320.6918 317.3250 -70.9671
v 370.2347 282.6750 -346.9320
v -320.6918 282.6750 -70.9671
v -320.6918 317.3250 -70.9671
v 590.2019 517.3250 -93.1907
v 590.2019 482.6750 -93.1907
v 280.1872 517.3250 -419.3669
v 590.2019 482.6750 -93.1907
v 280.1872 482.6750 -419.3669
v 280.1872 517.3250 -419.3669
v -259.0908 517.3250 93.1907
v -259.0908 482.6750 93.1907
v 50.9239 517.3250 419.3669
v -259.0908 482.6750 93.1907
v 50.9239 482.6750 419.3669
v 50.9239 517.3250 419.3669
v -259.0908 517.3250 93.1907
v 50.9239 517.3250 419.3669
v 280.1872 517.3250 -419.3669
v 50.9239 517.3250 419.3669
v 590.2019 517.3250 -93.1907
v 280.1872 517.3250 -419.3669
v 50.9239 482.6750 419.3669
v -259.0908 482.6750 93.1907
v 590.2019 482.6750 -93.1907
v -259.0908 482.6750 93.1907
v 280.1872 482.6750 -419.3669
v 590.2019 482.6750 -93.1907
v 50.9239 517.3250 419.3669
v 50.9239 482.6750 419.3669
v 590.2019 517.3250 -93.1907
v 50.9239 482.6750 419.3669
v 590.2019 482.6750 -93.1907
v 590.2019 517.3250 -93.1907
v 280.1872 517.3250 -419.3669
v 280.1872 482.6750 -419.3669
v -259.0908 517.3250 93.1907
v 280.1872 482.6750 -419.3669
v -259.0908 482.6750 93.1907
v -259.0908 517.3250 93.1907
v 504.8069 717.3250 -244.0529
v 504.8069 682.6750 -244.0529
v 95.9218 717.3250 -431.9704
v 504.8069 682.6750 -244.0529
v 95.9218 682.6750 -431.9704
v 95.9218 717.3250 -431.9704
v -214.7685 717.3250 244.0529
v -214.7685 682.6750 244.0529
v 194.1166 717.3250 431.9704
v -214.7685 682.6750 244.0529
v 194.1166 682.6750 431.9704
v 194.1166 717.3250 431.9704
v -214.7685 717.3250 244.0529
v 194.1166 717.3250 431.9704
v 95.9218 717.3250 -431.9704
v 194.1166 717.3250 431.9704
v 504.8069 717.3250 -244.0529
v 95.9218 717.3250 -431.9704
v 194.1166 682.6750 431.9704
v -214.7685 682.6750 244.0529
v 504.8069 682.6750 -244.0529
v -214.7685 682.6750 244.0529
v 95.9218 682.6750 -431.9704
v 504.8069 682.6750 -244.0529
v 194.1166 717.3250 431.9704
v 194.1166 682.6750 431.9704
v 504.8069 717.3250 -244.0529
v 194.1166 682.6750 431.9704
v 504.8069 682.6750 -244.0529
v 504.8069 717.3250 -244.0529
v 95.9218 717.3250 -431.9704
v 95.9218 682.6750 -431.9704
v -214.7685 717.3250 244.0529
v 95.9218 682.6750 -431.9704
v -214.7685 682.6750 244.0529
v -214.7685 717.3250 244.0529
v 299.8759 917.3250 -360.0959
v 299.8759 882.6750 -360.0959
v -149.5437 917.3250 -382.9444
v 299.8759 882.6750 -360.0959
v -149.5437 882.6750 -382.9444
v -149.5437 917.3250 -382.9444
v -187.3199 917.3250 360.0959
v -187.3199 882.6750 360.0959
v 262.0997 917.3250 382.9444
v -187.3199 882.6750 360.0959
v 262.0997 882.6750 382.9444
v 262.0997 917.3250 382.9444
v -187.3199 917.3250 360.0959
v 262.0997 917.3250 382.9444
v -149.5437 917.3250 -382.9444
v 262.0997 917.3250 382.9444
v 299.8759 917.3250 -360.0959
v -149.5437 917.3250 -382.9444
v 262.0997 882.6750 382.9444
v -187.3199 882.6750 360.0959
v 299.8759 882.6750 -360.0959
v -187.3199 882.6750 360.0959
v -149.5437 882.6750 -382.9444
v 299.8759 882.6750 -360.0959
v 262.0997 917.3250 382.9444
v 262.0997 882.6750 382.9444
v 299.8759 917.3250 -360.0959
v 262.0997 882.6750 382.9444
v 299.8759 882.6750 -360.0959
v 299.8759 917.3250 -360.0959
v -149.5437 917.3250 -382.9444
v -149.5437 882.6750 -382.9444
v -187.3199 917.3250 360.0959
v -149.5437 882.6750 -382.9444
v -187.3199 882.6750 360.0959
v -187.3199 917.3250 360.0959
v 33.7222 1117.3250 -424.7638
v 33.7222 1082.6750 -424.7638
v -392.1128 1117.3250 -279.2835
v 33.7222 1082.6750 -424.7638
v -392.1128 1082.6750 -279.2835
v -392.1128 1117.3250 -279.2835
v -151.5854 1117.3250 424.7638
v -151.5854 1082.6750 424.7638
v 274.2497 1117.3250 279.2835
v -151.5854 1082.6750 424.7638
v 274.2497 1082.6750 279.2835
v 274.2497 1117.3250 279.2835
v -151.5854 1117.3250 424.7638
v 274.2497 1117.3250 279.2835
v -392.1128 1117.3250 -279.2835
v 274.2497 1117.3250 279.2835
v 33.7222 1117.3250 -424.7638
v -392.1128 1117.3250 -279.2835
v 274.2497 1082.6750 279.2835
v -151.5854 1082.6750 424.7638
v 33.7222 1082.6750 -424.7638
v -151.5854 1082.6750 424.7638
v -392.1128 1082.6750 -279.2835
v 33.7222 1082.6750 -424.7638
v 274.2497 1117.3250 279.2835
v 274.2497 1082.6750 279.2835
v 33.7222 1117.3250 -424.7638
v 274.2497 1082.6750 279.2835
v 33.7222 1082.6750 -424.7638
v 33.7222 1117.3250 -424.7638
v -392.1128 1117.3250 -279.2835
v -392.1128 1082.6750 -279.2835
v -151.5854 1117.3250 424.7638
v -392.1128 1082.6750 -279.2835
v -151.5854 1082.6750 424.7638
v -151.5854 1117.3250 424.7638
f 1 2 3
f 4 5 6
f 7 8 9
f 10 11 12
f 13 14 15
f 16 17 18
f 19 20 21
f 22 23 24
f 25 26 27
f 28 29 30
f 31 32 33
f 34 35 36
f 37 38 39
f 40 41 42
f 43 44 45
f 46 47 48
f 49 50 51
f 52 53 54
f 55 56 57
f 58 59 60
f 61 62 63
f 64 65 66
f 67 68 69
f 70 71 72
f 73 74 75
f 76 77 78
f 79 80 81
f 82 83 84
f 85 86 87
f 88 89 90
f 91 92 93
f 94 95 96
f 97 98 99
f 100 101 102
f 103 104 105
f 106 107 108
f 109 110 111
f 112 113 114
f 115 116 117
f 118 119 120
f 121 122 123
f 124 125 126
f 127 128 129
f 130 131 132
f 133 134 135
f 136 137 138
f 139 140 141
f 142 143 144
f 145 146 147
f 148 149 150
f 151 152 153
f 154 155 156
f 157 158 159
f 160 161 162
f 163 164 165
f 166 167 168
f 169 170 171
f 172 173 174
f 175 176 177
f 178 179 180
f 181 182 183
f 184 185 186
f 187 188 189
f 190 191 192
f 193 194 195
f 196 197 198
f 199 200 201
f 202 203 204
f 205 206 207
f 208 209 210
f 211 212 213
f 214 215 216
f 217 218 219
f 220 221 222
f 223 224 225
f 226 227 228
f 229 230 231
f 232 233 234
f 235 236 237
f 238 239 240
f 241 242 243
f 244 245 246
f 247 248 249
f 250 251 252
f 253 254 255
f 256 257 258
f 259 260 261
f 262 263 264
f 265 266 267
f 268 269 270
f 271 272 273
f 274 275 276
f 277 278 279
f 280 281 282
f 283 284 285
f 286 287 288
f 289 290 291
f 292 293 294
f 295 296 297
f 298 299 300
f 301 302 303
f 304 305 306
f 307 308 309
f 310 311 312
f 313 314 315
f 316 317 318
f 319 320 321
f 322 323 324
f 325 326 327
f 328 329 330
f 331 332 333
f 334 335 336
f 337 338 339
f 340 341 342
f 343 344 345
f 346 347 348
f 349 350 351
f 352 353 354
f 355 356 357
f 358 359 360
