# MATERIA - Costes
# Geometria originale di studio. Unita mm. Non CAD del produttore.
v -305.9639 -213.2106 -284.2244
v -285.6319 213.7994 -263.9444
v -304.2801 -212.9904 -290.5485
v -285.6319 213.7994 -263.9444
v -283.9481 214.0196 -270.2685
v -304.2801 -212.9904 -290.5485
v -304.2801 -212.9904 -290.5485
v -283.9481 214.0196 -270.2685
v -299.6617 -212.9898 -295.1905
v -283.9481 214.0196 -270.2685
v -279.3297 214.0202 -274.9105
v -299.6617 -212.9898 -295.1905
v -299.6617 -212.9898 -295.1905
v -279.3297 214.0202 -274.9105
v -293.3463 -213.2090 -296.9067
v -279.3297 214.0202 -274.9105
v -273.0143 213.8010 -276.6267
v -293.3463 -213.2090 -296.9067
v -293.3463 -213.2090 -296.9067
v -273.0143 213.8010 -276.6267
v -287.0260 -213.5893 -295.2371
v -273.0143 213.8010 -276.6267
v -266.6940 213.4207 -274.9571
v -287.0260 -213.5893 -295.2371
v -287.0260 -213.5893 -295.2371
v -266.6940 213.4207 -274.9571
v -282.3944 -214.0286 -290.6292
v -266.6940 213.4207 -274.9571
v -262.0624 212.9814 -270.3492
v -282.3944 -214.0286 -290.6292
v -282.3944 -214.0286 -290.6292
v -262.0624 212.9814 -270.3492
v -280.6925 -214.4094 -284.3176
v -262.0624 212.9814 -270.3492
v -260.3605 212.6006 -264.0376
v -280.6925 -214.4094 -284.3176
v -280.6925 -214.4094 -284.3176
v -260.3605 212.6006 -264.0376
v -282.3763 -214.6296 -277.9935
v -260.3605 212.6006 -264.0376
v -262.0443 212.3804 -257.7135
v -282.3763 -214.6296 -277.9935
v -282.3763 -214.6296 -277.9935
v -262.0443 212.3804 -257.7135
v -286.9947 -214.6302 -273.3515
v -262.0443 212.3804 -257.7135
v -266.6627 212.3798 -253.0715
v -286.9947 -214.6302 -273.3515
v -286.9947 -214.6302 -273.3515
v -266.6627 212.3798 -253.0715
v -293.3101 -214.4110 -271.6353
v -266.6627 212.3798 -253.0715
v -272.9781 212.5990 -251.3553
v -293.3101 -214.4110 -271.6353
v -293.3101 -214.4110 -271.6353
v -272.9781 212.5990 -251.3553
v -299.6304 -214.0307 -273.3049
v -272.9781 212.5990 -251.3553
v -279.2984 212.9793 -253.0249
v -299.6304 -214.0307 -273.3049
v -299.6304 -214.0307 -273.3049
v -279.2984 212.9793 -253.0249
v -304.2620 -213.5914 -277.9128
v -279.2984 212.9793 -253.0249
v -283.9300 213.4186 -257.6328
v -304.2620 -213.5914 -277.9128
v -304.2620 -213.5914 -277.9128
v -283.9300 213.4186 -257.6328
v -305.9639 -213.2106 -284.2244
v -283.9300 213.4186 -257.6328
v -285.6319 213.7994 -263.9444
v -305.9639 -213.2106 -284.2244
v -305.9639 -213.2106 -284.2244
v -304.2801 -212.9904 -290.5485
v -293.3282 -213.8100 -284.2710
v -304.2801 -212.9904 -290.5485
v -299.6617 -212.9898 -295.1905
v -293.3282 -213.8100 -284.2710
v -299.6617 -212.9898 -295.1905
v -293.3463 -213.2090 -296.9067
v -293.3282 -213.8100 -284.2710
v -293.3463 -213.2090 -296.9067
v -287.0260 -213.5893 -295.2371
v -293.3282 -213.8100 -284.2710
v -287.0260 -213.5893 -295.2371
v -282.3944 -214.0286 -290.6292
v -293.3282 -213.8100 -284.2710
v -282.3944 -214.0286 -290.6292
v -280.6925 -214.4094 -284.3176
v -293.3282 -213.8100 -284.2710
v -280.6925 -214.4094 -284.3176
v -282.3763 -214.6296 -277.9935
v -293.3282 -213.8100 -284.2710
v -282.3763 -214.6296 -277.9935
v -286.9947 -214.6302 -273.3515
v -293.3282 -213.8100 -284.2710
v -286.9947 -214.6302 -273.3515
v -293.3101 -214.4110 -271.6353
v -293.3282 -213.8100 -284.2710
v -293.3101 -214.4110 -271.6353
v -299.6304 -214.0307 -273.3049
v -293.3282 -213.8100 -284.2710
v -299.6304 -214.0307 -273.3049
v -304.2620 -213.5914 -277.9128
v -293.3282 -213.8100 -284.2710
v -304.2620 -213.5914 -277.9128
v -305.9639 -213.2106 -284.2244
v -293.3282 -213.8100 -284.2710
v -283.9481 214.0196 -270.2685
v -285.6319 213.7994 -263.9444
v -272.9962 213.2000 -263.9910
v -279.3297 214.0202 -274.9105
v -283.9481 214.0196 -270.2685
v -272.9962 213.2000 -263.9910
v -273.0143 213.8010 -276.6267
v -279.3297 214.0202 -274.9105
v -272.9962 213.2000 -263.9910
v -266.6940 213.4207 -274.9571
v -273.0143 213.8010 -276.6267
v -272.9962 213.2000 -263.9910
v -262.0624 212.9814 -270.3492
v -266.6940 213.4207 -274.9571
v -272.9962 213.2000 -263.9910
v -260.3605 212.6006 -264.0376
v -262.0624 212.9814 -270.3492
v -272.9962 213.2000 -263.9910
v -262.0443 212.3804 -257.7135
v -260.3605 212.6006 -264.0376
v -272.9962 213.2000 -263.9910
v -266.6627 212.3798 -253.0715
v -262.0443 212.3804 -257.7135
v -272.9962 213.2000 -263.9910
v -272.9781 212.5990 -251.3553
v -266.6627 212.3798 -253.0715
v -272.9962 213.2000 -263.9910
v -279.2984 212.9793 -253.0249
v -272.9781 212.5990 -251.3553
v -272.9962 213.2000 -263.9910
v -283.9300 213.4186 -257.6328
v -279.2984 212.9793 -253.0249
v -272.9962 213.2000 -263.9910
v -285.6319 213.7994 -263.9444
v -283.9300 213.4186 -257.6328
v -272.9962 213.2000 -263.9910
v 305.9639 -65.6106 -284.2244
v 285.6319 361.3994 -263.9444
v 304.2620 -65.9914 -277.9128
v 285.6319 361.3994 -263.9444
v 283.9300 361.0186 -257.6328
v 304.2620 -65.9914 -277.9128
v 304.2620 -65.9914 -277.9128
v 283.9300 361.0186 -257.6328
v 299.6304 -66.4307 -273.3049
v 283.9300 361.0186 -257.6328
v 279.2984 360.5793 -253.0249
v 299.6304 -66.4307 -273.3049
v 299.6304 -66.4307 -273.3049
v 279.2984 360.5793 -253.0249
v 293.3101 -66.8110 -271.6353
v 279.2984 360.5793 -253.0249
v 272.9781 360.1990 -251.3553
v 293.3101 -66.8110 -271.6353
v 293.3101 -66.8110 -271.6353
v 272.9781 360.1990 -251.3553
v 286.9947 -67.0302 -273.3515
v 272.9781 360.1990 -251.3553
v 266.6627 359.9798 -253.0715
v 286.9947 -67.0302 -273.3515
v 286.9947 -67.0302 -273.3515
v 266.6627 359.9798 -253.0715
v 282.3763 -67.0296 -277.9935
v 266.6627 359.9798 -253.0715
v 262.0443 359.9804 -257.7135
v 282.3763 -67.0296 -277.9935
v 282.3763 -67.0296 -277.9935
v 262.0443 359.9804 -257.7135
v 280.6925 -66.8094 -284.3176
v 262.0443 359.9804 -257.7135
v 260.3605 360.2006 -264.0376
v 280.6925 -66.8094 -284.3176
v 280.6925 -66.8094 -284.3176
v 260.3605 360.2006 -264.0376
v 282.3944 -66.4286 -290.6292
v 260.3605 360.2006 -264.0376
v 262.0624 360.5814 -270.3492
v 282.3944 -66.4286 -290.6292
v 282.3944 -66.4286 -290.6292
v 262.0624 360.5814 -270.3492
v 287.0260 -65.9893 -295.2371
v 262.0624 360.5814 -270.3492
v 266.6940 361.0207 -274.9571
v 287.0260 -65.9893 -295.2371
v 287.0260 -65.9893 -295.2371
v 266.6940 361.0207 -274.9571
v 293.3463 -65.6090 -296.9067
v 266.6940 361.0207 -274.9571
v 273.0143 361.4010 -276.6267
v 293.3463 -65.6090 -296.9067
v 293.3463 -65.6090 -296.9067
v 273.0143 361.4010 -276.6267
v 299.6617 -65.3898 -295.1905
v 273.0143 361.4010 -276.6267
v 279.3297 361.6202 -274.9105
v 299.6617 -65.3898 -295.1905
v 299.6617 -65.3898 -295.1905
v 279.3297 361.6202 -274.9105
v 304.2801 -65.3904 -290.5485
v 279.3297 361.6202 -274.9105
v 283.9481 361.6196 -270.2685
v 304.2801 -65.3904 -290.5485
v 304.2801 -65.3904 -290.5485
v 283.9481 361.6196 -270.2685
v 305.9639 -65.6106 -284.2244
v 283.9481 361.6196 -270.2685
v 285.6319 361.3994 -263.9444
v 305.9639 -65.6106 -284.2244
v 305.9639 -65.6106 -284.2244
v 304.2620 -65.9914 -277.9128
v 293.3282 -66.2100 -284.2710
v 304.2620 -65.9914 -277.9128
v 299.6304 -66.4307 -273.3049
v 293.3282 -66.2100 -284.2710
v 299.6304 -66.4307 -273.3049
v 293.3101 -66.8110 -271.6353
v 293.3282 -66.2100 -284.2710
v 293.3101 -66.8110 -271.6353
v 286.9947 -67.0302 -273.3515
v 293.3282 -66.2100 -284.2710
v 286.9947 -67.0302 -273.3515
v 282.3763 -67.0296 -277.9935
v 293.3282 -66.2100 -284.2710
v 282.3763 -67.0296 -277.9935
v 280.6925 -66.8094 -284.3176
v 293.3282 -66.2100 -284.2710
v 280.6925 -66.8094 -284.3176
v 282.3944 -66.4286 -290.6292
v 293.3282 -66.2100 -284.2710
v 282.3944 -66.4286 -290.6292
v 287.0260 -65.9893 -295.2371
v 293.3282 -66.2100 -284.2710
v 287.0260 -65.9893 -295.2371
v 293.3463 -65.6090 -296.9067
v 293.3282 -66.2100 -284.2710
v 293.3463 -65.6090 -296.9067
v 299.6617 -65.3898 -295.1905
v 293.3282 -66.2100 -284.2710
v 299.6617 -65.3898 -295.1905
v 304.2801 -65.3904 -290.5485
v 293.3282 -66.2100 -284.2710
v 304.2801 -65.3904 -290.5485
v 305.9639 -65.6106 -284.2244
v 293.3282 -66.2100 -284.2710
v 283.9300 361.0186 -257.6328
v 285.6319 361.3994 -263.9444
v 272.9962 360.8000 -263.9910
v 279.2984 360.5793 -253.0249
v 283.9300 361.0186 -257.6328
v 272.9962 360.8000 -263.9910
v 272.9781 360.1990 -251.3553
v 279.2984 360.5793 -253.0249
v 272.9962 360.8000 -263.9910
v 266.6627 359.9798 -253.0715
v 272.9781 360.1990 -251.3553
v 272.9962 360.8000 -263.9910
v 262.0443 359.9804 -257.7135
v 266.6627 359.9798 -253.0715
v 272.9962 360.8000 -263.9910
v 260.3605 360.2006 -264.0376
v 262.0443 359.9804 -257.7135
v 272.9962 360.8000 -263.9910
v 262.0624 360.5814 -270.3492
v 260.3605 360.2006 -264.0376
v 272.9962 360.8000 -263.9910
v 266.6940 361.0207 -274.9571
v 262.0624 360.5814 -270.3492
v 272.9962 360.8000 -263.9910
v 273.0143 361.4010 -276.6267
v 266.6940 361.0207 -274.9571
v 272.9962 360.8000 -263.9910
v 279.3297 361.6202 -274.9105
v 273.0143 361.4010 -276.6267
v 272.9962 360.8000 -263.9910
v 283.9481 361.6196 -270.2685
v 279.3297 361.6202 -274.9105
v 272.9962 360.8000 -263.9910
v 285.6319 361.3994 -263.9444
v 283.9481 361.6196 -270.2685
v 272.9962 360.8000 -263.9910
v 0.0000 80.7300 300.0653
v 0.0000 507.7400 277.7573
v 6.3250 80.8185 301.7578
v 0.0000 507.7400 277.7573
v 6.3250 507.8285 279.4498
v 6.3250 80.8185 301.7578
v 6.3250 80.8185 301.7578
v 6.3250 507.8285 279.4498
v 10.9552 81.0600 306.3817
v 6.3250 507.8285 279.4498
v 10.9552 508.0700 284.0737
v 10.9552 81.0600 306.3817
v 10.9552 81.0600 306.3817
v 10.9552 508.0700 284.0737
v 12.6500 81.3900 312.6981
v 10.9552 508.0700 284.0737
v 12.6500 508.4000 290.3901
v 12.6500 81.3900 312.6981
v 12.6500 81.3900 312.6981
v 12.6500 508.4000 290.3901
v 10.9552 81.7200 319.0145
v 12.6500 508.4000 290.3901
v 10.9552 508.7300 296.7065
v 10.9552 81.7200 319.0145
v 10.9552 81.7200 319.0145
v 10.9552 508.7300 296.7065
v 6.3250 81.9615 323.6384
v 10.9552 508.7300 296.7065
v 6.3250 508.9715 301.3304
v 6.3250 81.9615 323.6384
v 6.3250 81.9615 323.6384
v 6.3250 508.9715 301.3304
v 0.0000 82.0500 325.3309
v 6.3250 508.9715 301.3304
v 0.0000 509.0600 303.0229
v 0.0000 82.0500 325.3309
v 0.0000 82.0500 325.3309
v 0.0000 509.0600 303.0229
v -6.3250 81.9615 323.6384
v 0.0000 509.0600 303.0229
v -6.3250 508.9715 301.3304
v -6.3250 81.9615 323.6384
v -6.3250 81.9615 323.6384
v -6.3250 508.9715 301.3304
v -10.9552 81.7200 319.0145
v -6.3250 508.9715 301.3304
v -10.9552 508.7300 296.7065
v -10.9552 81.7200 319.0145
v -10.9552 81.7200 319.0145
v -10.9552 508.7300 296.7065
v -12.6500 81.3900 312.6981
v -10.9552 508.7300 296.7065
v -12.6500 508.4000 290.3901
v -12.6500 81.3900 312.6981
v -12.6500 81.3900 312.6981
v -12.6500 508.4000 290.3901
v -10.9552 81.0600 306.3817
v -12.6500 508.4000 290.3901
v -10.9552 508.0700 284.0737
v -10.9552 81.0600 306.3817
v -10.9552 81.0600 306.3817
v -10.9552 508.0700 284.0737
v -6.3250 80.8185 301.7578
v -10.9552 508.0700 284.0737
v -6.3250 507.8285 279.4498
v -6.3250 80.8185 301.7578
v -6.3250 80.8185 301.7578
v -6.3250 507.8285 279.4498
v -0.0000 80.7300 300.0653
v -6.3250 507.8285 279.4498
v -0.0000 507.7400 277.7573
v -0.0000 80.7300 300.0653
v 0.0000 80.7300 300.0653
v 6.3250 80.8185 301.7578
v 0.0000 81.3900 312.6981
v 6.3250 80.8185 301.7578
v 10.9552 81.0600 306.3817
v 0.0000 81.3900 312.6981
v 10.9552 81.0600 306.3817
v 12.6500 81.3900 312.6981
v 0.0000 81.3900 312.6981
v 12.6500 81.3900 312.6981
v 10.9552 81.7200 319.0145
v 0.0000 81.3900 312.6981
v 10.9552 81.7200 319.0145
v 6.3250 81.9615 323.6384
v 0.0000 81.3900 312.6981
v 6.3250 81.9615 323.6384
v 0.0000 82.0500 325.3309
v 0.0000 81.3900 312.6981
v 0.0000 82.0500 325.3309
v -6.3250 81.9615 323.6384
v 0.0000 81.3900 312.6981
v -6.3250 81.9615 323.6384
v -10.9552 81.7200 319.0145
v 0.0000 81.3900 312.6981
v -10.9552 81.7200 319.0145
v -12.6500 81.3900 312.6981
v 0.0000 81.3900 312.6981
v -12.6500 81.3900 312.6981
v -10.9552 81.0600 306.3817
v 0.0000 81.3900 312.6981
v -10.9552 81.0600 306.3817
v -6.3250 80.8185 301.7578
v 0.0000 81.3900 312.6981
v -6.3250 80.8185 301.7578
v -0.0000 80.7300 300.0653
v 0.0000 81.3900 312.6981
v 6.3250 507.8285 279.4498
v 0.0000 507.7400 277.7573
v 0.0000 508.4000 290.3901
v 10.9552 508.0700 284.0737
v 6.3250 507.8285 279.4498
v 0.0000 508.4000 290.3901
v 12.6500 508.4000 290.3901
v 10.9552 508.0700 284.0737
v 0.0000 508.4000 290.3901
v 10.9552 508.7300 296.7065
v 12.6500 508.4000 290.3901
v 0.0000 508.4000 290.3901
v 6.3250 508.9715 301.3304
v 10.9552 508.7300 296.7065
v 0.0000 508.4000 290.3901
v 0.0000 509.0600 303.0229
v 6.3250 508.9715 301.3304
v 0.0000 508.4000 290.3901
v -6.3250 508.9715 301.3304
v 0.0000 509.0600 303.0229
v 0.0000 508.4000 290.3901
v -10.9552 508.7300 296.7065
v -6.3250 508.9715 301.3304
v 0.0000 508.4000 290.3901
v -12.6500 508.4000 290.3901
v -10.9552 508.7300 296.7065
v 0.0000 508.4000 290.3901
v -10.9552 508.0700 284.0737
v -12.6500 508.4000 290.3901
v 0.0000 508.4000 290.3901
v -6.3250 507.8285 279.4498
v -10.9552 508.0700 284.0737
v 0.0000 508.4000 290.3901
v -0.0000 507.7400 277.7573
v -6.3250 507.8285 279.4498
v 0.0000 508.4000 290.3901
v 211.6000 676.2400 223.6000
v 211.6000 635.7600 223.6000
v 211.6000 676.2400 -223.6000
v 211.6000 635.7600 223.6000
v 211.6000 635.7600 -223.6000
v 211.6000 676.2400 -223.6000
v -211.6000 676.2400 -223.6000
v -211.6000 635.7600 -223.6000
v -211.6000 676.2400 223.6000
v -211.6000 635.7600 -223.6000
v -211.6000 635.7600 223.6000
v -211.6000 676.2400 223.6000
v -211.6000 676.2400 -223.6000
v -211.6000 676.2400 223.6000
v 211.6000 676.2400 -223.6000
v -211.6000 676.2400 223.6000
v 211.6000 676.2400 223.6000
v 211.6000 676.2400 -223.6000
v -211.6000 635.7600 223.6000
v -211.6000 635.7600 -223.6000
v 211.6000 635.7600 223.6000
v -211.6000 635.7600 -223.6000
v 211.6000 635.7600 -223.6000
v 211.6000 635.7600 223.6000
v -211.6000 676.2400 223.6000
v -211.6000 635.7600 223.6000
v 211.6000 676.2400 223.6000
v -211.6000 635.7600 223.6000
v 211.6000 635.7600 223.6000
v 211.6000 676.2400 223.6000
v 211.6000 676.2400 -223.6000
v 211.6000 635.7600 -223.6000
v -211.6000 676.2400 -223.6000
v 211.6000 635.7600 -223.6000
v -211.6000 635.7600 -223.6000
v -211.6000 676.2400 -223.6000
v 165.6000 187.9000 -297.4950
v -165.6000 187.9000 -297.4950
v 165.6000 182.2075 -299.0203
v -165.6000 187.9000 -297.4950
v -165.6000 182.2075 -299.0203
v 165.6000 182.2075 -299.0203
v 165.6000 182.2075 -299.0203
v -165.6000 182.2075 -299.0203
v 165.6000 178.0403 -303.1875
v -165.6000 182.2075 -299.0203
v -165.6000 178.0403 -303.1875
v 165.6000 178.0403 -303.1875
v 165.6000 178.0403 -303.1875
v -165.6000 178.0403 -303.1875
v 165.6000 176.5150 -308.8800
v -165.6000 178.0403 -303.1875
v -165.6000 176.5150 -308.8800
v 165.6000 176.5150 -308.8800
v 165.6000 176.5150 -308.8800
v -165.6000 176.5150 -308.8800
v 165.6000 178.0403 -314.5725
v -165.6000 176.5150 -308.8800
v -165.6000 178.0403 -314.5725
v 165.6000 178.0403 -314.5725
v 165.6000 178.0403 -314.5725
v -165.6000 178.0403 -314.5725
v 165.6000 182.2075 -318.7397
v -165.6000 178.0403 -314.5725
v -165.6000 182.2075 -318.7397
v 165.6000 182.2075 -318.7397
v 165.6000 182.2075 -318.7397
v -165.6000 182.2075 -318.7397
v 165.6000 187.9000 -320.2650
v -165.6000 182.2075 -318.7397
v -165.6000 187.9000 -320.2650
v 165.6000 187.9000 -320.2650
v 165.6000 187.9000 -320.2650
v -165.6000 187.9000 -320.2650
v 165.6000 193.5925 -318.7397
v -165.6000 187.9000 -320.2650
v -165.6000 193.5925 -318.7397
v 165.6000 193.5925 -318.7397
v 165.6000 193.5925 -318.7397
v -165.6000 193.5925 -318.7397
v 165.6000 197.7597 -314.5725
v -165.6000 193.5925 -318.7397
v -165.6000 197.7597 -314.5725
v 165.6000 197.7597 -314.5725
v 165.6000 197.7597 -314.5725
v -165.6000 197.7597 -314.5725
v 165.6000 199.2850 -308.8800
v -165.6000 197.7597 -314.5725
v -165.6000 199.2850 -308.8800
v 165.6000 199.2850 -308.8800
v 165.6000 199.2850 -308.8800
v -165.6000 199.2850 -308.8800
v 165.6000 197.7597 -303.1875
v -165.6000 199.2850 -308.8800
v -165.6000 197.7597 -303.1875
v 165.6000 197.7597 -303.1875
v 165.6000 197.7597 -303.1875
v -165.6000 197.7597 -303.1875
v 165.6000 193.5925 -299.0203
v -165.6000 197.7597 -303.1875
v -165.6000 193.5925 -299.0203
v 165.6000 193.5925 -299.0203
v 165.6000 193.5925 -299.0203
v -165.6000 193.5925 -299.0203
v 165.6000 187.9000 -297.4950
v -165.6000 193.5925 -299.0203
v -165.6000 187.9000 -297.4950
v 165.6000 187.9000 -297.4950
v 165.6000 187.9000 -297.4950
v 165.6000 182.2075 -299.0203
v 165.6000 187.9000 -308.8800
v 165.6000 182.2075 -299.0203
v 165.6000 178.0403 -303.1875
v 165.6000 187.9000 -308.8800
v 165.6000 178.0403 -303.1875
v 165.6000 176.5150 -308.8800
v 165.6000 187.9000 -308.8800
v 165.6000 176.5150 -308.8800
v 165.6000 178.0403 -314.5725
v 165.6000 187.9000 -308.8800
v 165.6000 178.0403 -314.5725
v 165.6000 182.2075 -318.7397
v 165.6000 187.9000 -308.8800
v 165.6000 182.2075 -318.7397
v 165.6000 187.9000 -320.2650
v 165.6000 187.9000 -308.8800
v 165.6000 187.9000 -320.2650
v 165.6000 193.5925 -318.7397
v 165.6000 187.9000 -308.8800
v 165.6000 193.5925 -318.7397
v 165.6000 197.7597 -314.5725
v 165.6000 187.9000 -308.8800
v 165.6000 197.7597 -314.5725
v 165.6000 199.2850 -308.8800
v 165.6000 187.9000 -308.8800
v 165.6000 199.2850 -308.8800
v 165.6000 197.7597 -303.1875
v 165.6000 187.9000 -308.8800
v 165.6000 197.7597 -303.1875
v 165.6000 193.5925 -299.0203
v 165.6000 187.9000 -308.8800
v 165.6000 193.5925 -299.0203
v 165.6000 187.9000 -297.4950
v 165.6000 187.9000 -308.8800
v -165.6000 182.2075 -299.0203
v -165.6000 187.9000 -297.4950
v -165.6000 187.9000 -308.8800
v -165.6000 178.0403 -303.1875
v -165.6000 182.2075 -299.0203
v -165.6000 187.9000 -308.8800
v -165.6000 176.5150 -308.8800
v -165.6000 178.0403 -303.1875
v -165.6000 187.9000 -308.8800
v -165.6000 178.0403 -314.5725
v -165.6000 176.5150 -308.8800
v -165.6000 187.9000 -308.8800
v -165.6000 182.2075 -318.7397
v -165.6000 178.0403 -314.5725
v -165.6000 187.9000 -308.8800
v -165.6000 187.9000 -320.2650
v -165.6000 182.2075 -318.7397
v -165.6000 187.9000 -308.8800
v -165.6000 193.5925 -318.7397
v -165.6000 187.9000 -320.2650
v -165.6000 187.9000 -308.8800
v -165.6000 197.7597 -314.5725
v -165.6000 193.5925 -318.7397
v -165.6000 187.9000 -308.8800
v -165.6000 199.2850 -308.8800
v -165.6000 197.7597 -314.5725
v -165.6000 187.9000 -308.8800
v -165.6000 197.7597 -303.1875
v -165.6000 199.2850 -308.8800
v -165.6000 187.9000 -308.8800
v -165.6000 193.5925 -299.0203
v -165.6000 197.7597 -303.1875
v -165.6000 187.9000 -308.8800
v -165.6000 187.9000 -297.4950
v -165.6000 193.5925 -299.0203
v -165.6000 187.9000 -308.8800
v -287.7271 720.4401 340.1660
v -283.1271 360.3401 324.5660
v -282.4149 720.5695 338.7452
v -283.1271 360.3401 324.5660
v -277.8149 360.4695 323.1452
v -282.4149 720.5695 338.7452
v -282.4149 720.5695 338.7452
v -277.8149 360.4695 323.1452
v -278.5269 720.7875 334.8606
v -277.8149 360.4695 323.1452
v -273.9269 360.6875 319.2606
v -278.5269 720.7875 334.8606
v -278.5269 720.7875 334.8606
v -273.9269 360.6875 319.2606
v -277.1049 721.0356 329.5529
v -273.9269 360.6875 319.2606
v -272.5049 360.9356 313.9529
v -277.1049 721.0356 329.5529
v -277.1049 721.0356 329.5529
v -272.5049 360.9356 313.9529
v -278.5298 721.2474 324.2445
v -272.5049 360.9356 313.9529
v -273.9298 361.1474 308.6445
v -278.5298 721.2474 324.2445
v -278.5298 721.2474 324.2445
v -273.9298 361.1474 308.6445
v -282.4200 721.3661 320.3577
v -273.9298 361.1474 308.6445
v -277.8200 361.2661 304.7577
v -282.4200 721.3661 320.3577
v -282.4200 721.3661 320.3577
v -277.8200 361.2661 304.7577
v -287.7329 721.3599 318.9340
v -277.8200 361.2661 304.7577
v -283.1329 361.2599 303.3340
v -287.7329 721.3599 318.9340
v -287.7329 721.3599 318.9340
v -283.1329 361.2599 303.3340
v -293.0451 721.2305 320.3548
v -283.1329 361.2599 303.3340
v -288.4451 361.1305 304.7548
v -293.0451 721.2305 320.3548
v -293.0451 721.2305 320.3548
v -288.4451 361.1305 304.7548
v -296.9331 721.0125 324.2394
v -288.4451 361.1305 304.7548
v -292.3331 360.9125 308.6394
v -296.9331 721.0125 324.2394
v -296.9331 721.0125 324.2394
v -292.3331 360.9125 308.6394
v -298.3551 720.7644 329.5471
v -292.3331 360.9125 308.6394
v -293.7551 360.6644 313.9471
v -298.3551 720.7644 329.5471
v -298.3551 720.7644 329.5471
v -293.7551 360.6644 313.9471
v -296.9302 720.5526 334.8555
v -293.7551 360.6644 313.9471
v -292.3302 360.4526 319.2555
v -296.9302 720.5526 334.8555
v -296.9302 720.5526 334.8555
v -292.3302 360.4526 319.2555
v -293.0400 720.4339 338.7423
v -292.3302 360.4526 319.2555
v -288.4400 360.3339 323.1423
v -293.0400 720.4339 338.7423
v -293.0400 720.4339 338.7423
v -288.4400 360.3339 323.1423
v -287.7271 720.4401 340.1660
v -288.4400 360.3339 323.1423
v -283.1271 360.3401 324.5660
v -287.7271 720.4401 340.1660
v -287.7271 720.4401 340.1660
v -282.4149 720.5695 338.7452
v -287.7300 720.9000 329.5500
v -282.4149 720.5695 338.7452
v -278.5269 720.7875 334.8606
v -287.7300 720.9000 329.5500
v -278.5269 720.7875 334.8606
v -277.1049 721.0356 329.5529
v -287.7300 720.9000 329.5500
v -277.1049 721.0356 329.5529
v -278.5298 721.2474 324.2445
v -287.7300 720.9000 329.5500
v -278.5298 721.2474 324.2445
v -282.4200 721.3661 320.3577
v -287.7300 720.9000 329.5500
v -282.4200 721.3661 320.3577
v -287.7329 721.3599 318.9340
v -287.7300 720.9000 329.5500
v -287.7329 721.3599 318.9340
v -293.0451 721.2305 320.3548
v -287.7300 720.9000 329.5500
v -293.0451 721.2305 320.3548
v -296.9331 721.0125 324.2394
v -287.7300 720.9000 329.5500
v -296.9331 721.0125 324.2394
v -298.3551 720.7644 329.5471
v -287.7300 720.9000 329.5500
v -298.3551 720.7644 329.5471
v -296.9302 720.5526 334.8555
v -287.7300 720.9000 329.5500
v -296.9302 720.5526 334.8555
v -293.0400 720.4339 338.7423
v -287.7300 720.9000 329.5500
v -293.0400 720.4339 338.7423
v -287.7271 720.4401 340.1660
v -287.7300 720.9000 329.5500
v -277.8149 360.4695 323.1452
v -283.1271 360.3401 324.5660
v -283.1300 360.8000 313.9500
v -273.9269 360.6875 319.2606
v -277.8149 360.4695 323.1452
v -283.1300 360.8000 313.9500
v -272.5049 360.9356 313.9529
v -273.9269 360.6875 319.2606
v -283.1300 360.8000 313.9500
v -273.9298 361.1474 308.6445
v -272.5049 360.9356 313.9529
v -283.1300 360.8000 313.9500
v -277.8200 361.2661 304.7577
v -273.9298 361.1474 308.6445
v -283.1300 360.8000 313.9500
v -283.1329 361.2599 303.3340
v -277.8200 361.2661 304.7577
v -283.1300 360.8000 313.9500
v -288.4451 361.1305 304.7548
v -283.1329 361.2599 303.3340
v -283.1300 360.8000 313.9500
v -292.3331 360.9125 308.6394
v -288.4451 361.1305 304.7548
v -283.1300 360.8000 313.9500
v -293.7551 360.6644 313.9471
v -292.3331 360.9125 308.6394
v -283.1300 360.8000 313.9500
v -292.3302 360.4526 319.2555
v -293.7551 360.6644 313.9471
v -283.1300 360.8000 313.9500
v -288.4400 360.3339 323.1423
v -292.3302 360.4526 319.2555
v -283.1300 360.8000 313.9500
v -283.1271 360.3401 324.5660
v -288.4400 360.3339 323.1423
v -283.1300 360.8000 313.9500
v 287.7271 868.0401 340.1660
v 283.1271 507.9401 324.5660
v 293.0400 868.0339 338.7423
v 283.1271 507.9401 324.5660
v 288.4400 507.9339 323.1423
v 293.0400 868.0339 338.7423
v 293.0400 868.0339 338.7423
v 288.4400 507.9339 323.1423
v 296.9302 868.1526 334.8555
v 288.4400 507.9339 323.1423
v 292.3302 508.0526 319.2555
v 296.9302 868.1526 334.8555
v 296.9302 868.1526 334.8555
v 292.3302 508.0526 319.2555
v 298.3551 868.3644 329.5471
v 292.3302 508.0526 319.2555
v 293.7551 508.2644 313.9471
v 298.3551 868.3644 329.5471
v 298.3551 868.3644 329.5471
v 293.7551 508.2644 313.9471
v 296.9331 868.6125 324.2394
v 293.7551 508.2644 313.9471
v 292.3331 508.5125 308.6394
v 296.9331 868.6125 324.2394
v 296.9331 868.6125 324.2394
v 292.3331 508.5125 308.6394
v 293.0451 868.8305 320.3548
v 292.3331 508.5125 308.6394
v 288.4451 508.7305 304.7548
v 293.0451 868.8305 320.3548
v 293.0451 868.8305 320.3548
v 288.4451 508.7305 304.7548
v 287.7329 868.9599 318.9340
v 288.4451 508.7305 304.7548
v 283.1329 508.8599 303.3340
v 287.7329 868.9599 318.9340
v 287.7329 868.9599 318.9340
v 283.1329 508.8599 303.3340
v 282.4200 868.9661 320.3577
v 283.1329 508.8599 303.3340
v 277.8200 508.8661 304.7577
v 282.4200 868.9661 320.3577
v 282.4200 868.9661 320.3577
v 277.8200 508.8661 304.7577
v 278.5298 868.8474 324.2445
v 277.8200 508.8661 304.7577
v 273.9298 508.7474 308.6445
v 278.5298 868.8474 324.2445
v 278.5298 868.8474 324.2445
v 273.9298 508.7474 308.6445
v 277.1049 868.6356 329.5529
v 273.9298 508.7474 308.6445
v 272.5049 508.5356 313.9529
v 277.1049 868.6356 329.5529
v 277.1049 868.6356 329.5529
v 272.5049 508.5356 313.9529
v 278.5269 868.3875 334.8606
v 272.5049 508.5356 313.9529
v 273.9269 508.2875 319.2606
v 278.5269 868.3875 334.8606
v 278.5269 868.3875 334.8606
v 273.9269 508.2875 319.2606
v 282.4149 868.1695 338.7452
v 273.9269 508.2875 319.2606
v 277.8149 508.0695 323.1452
v 282.4149 868.1695 338.7452
v 282.4149 868.1695 338.7452
v 277.8149 508.0695 323.1452
v 287.7271 868.0401 340.1660
v 277.8149 508.0695 323.1452
v 283.1271 507.9401 324.5660
v 287.7271 868.0401 340.1660
v 287.7271 868.0401 340.1660
v 293.0400 868.0339 338.7423
v 287.7300 868.5000 329.5500
v 293.0400 868.0339 338.7423
v 296.9302 868.1526 334.8555
v 287.7300 868.5000 329.5500
v 296.9302 868.1526 334.8555
v 298.3551 868.3644 329.5471
v 287.7300 868.5000 329.5500
v 298.3551 868.3644 329.5471
v 296.9331 868.6125 324.2394
v 287.7300 868.5000 329.5500
v 296.9331 868.6125 324.2394
v 293.0451 868.8305 320.3548
v 287.7300 868.5000 329.5500
v 293.0451 868.8305 320.3548
v 287.7329 868.9599 318.9340
v 287.7300 868.5000 329.5500
v 287.7329 868.9599 318.9340
v 282.4200 868.9661 320.3577
v 287.7300 868.5000 329.5500
v 282.4200 868.9661 320.3577
v 278.5298 868.8474 324.2445
v 287.7300 868.5000 329.5500
v 278.5298 868.8474 324.2445
v 277.1049 868.6356 329.5529
v 287.7300 868.5000 329.5500
v 277.1049 868.6356 329.5529
v 278.5269 868.3875 334.8606
v 287.7300 868.5000 329.5500
v 278.5269 868.3875 334.8606
v 282.4149 868.1695 338.7452
v 287.7300 868.5000 329.5500
v 282.4149 868.1695 338.7452
v 287.7271 868.0401 340.1660
v 287.7300 868.5000 329.5500
v 288.4400 507.9339 323.1423
v 283.1271 507.9401 324.5660
v 283.1300 508.4000 313.9500
v 292.3302 508.0526 319.2555
v 288.4400 507.9339 323.1423
v 283.1300 508.4000 313.9500
v 293.7551 508.2644 313.9471
v 292.3302 508.0526 319.2555
v 283.1300 508.4000 313.9500
v 292.3331 508.5125 308.6394
v 293.7551 508.2644 313.9471
v 283.1300 508.4000 313.9500
v 288.4451 508.7305 304.7548
v 292.3331 508.5125 308.6394
v 283.1300 508.4000 313.9500
v 283.1329 508.8599 303.3340
v 288.4451 508.7305 304.7548
v 283.1300 508.4000 313.9500
v 277.8200 508.8661 304.7577
v 283.1329 508.8599 303.3340
v 283.1300 508.4000 313.9500
v 273.9298 508.7474 308.6445
v 277.8200 508.8661 304.7577
v 283.1300 508.4000 313.9500
v 272.5049 508.5356 313.9529
v 273.9298 508.7474 308.6445
v 283.1300 508.4000 313.9500
v 273.9269 508.2875 319.2606
v 272.5049 508.5356 313.9529
v 283.1300 508.4000 313.9500
v 277.8149 508.0695 323.1452
v 273.9269 508.2875 319.2606
v 283.1300 508.4000 313.9500
v 283.1271 507.9401 324.5660
v 277.8149 508.0695 323.1452
v 283.1300 508.4000 313.9500
v 202.4000 1005.8159 338.6793
v 202.4000 817.8191 353.7512
v 202.4000 1002.5809 298.3288
v 202.4000 817.8191 353.7512
v 202.4000 814.5841 313.4007
v 202.4000 1002.5809 298.3288
v -202.4000 1002.5809 298.3288
v -202.4000 814.5841 313.4007
v -202.4000 1005.8159 338.6793
v -202.4000 814.5841 313.4007
v -202.4000 817.8191 353.7512
v -202.4000 1005.8159 338.6793
v -202.4000 1002.5809 298.3288
v -202.4000 1005.8159 338.6793
v 202.4000 1002.5809 298.3288
v -202.4000 1005.8159 338.6793
v 202.4000 1005.8159 338.6793
v 202.4000 1002.5809 298.3288
v -202.4000 817.8191 353.7512
v -202.4000 814.5841 313.4007
v 202.4000 817.8191 353.7512
v -202.4000 814.5841 313.4007
v 202.4000 814.5841 313.4007
v 202.4000 817.8191 353.7512
v -202.4000 1005.8159 338.6793
v -202.4000 817.8191 353.7512
v 202.4000 1005.8159 338.6793
v -202.4000 817.8191 353.7512
v 202.4000 817.8191 353.7512
v 202.4000 1005.8159 338.6793
v 202.4000 1002.5809 298.3288
v 202.4000 814.5841 313.4007
v -202.4000 1002.5809 298.3288
v 202.4000 814.5841 313.4007
v -202.4000 814.5841 313.4007
v -202.4000 1002.5809 298.3288
f 1 2 3
f 4 5 6
f 7 8 9
f 10 11 12
f 13 14 15
f 16 17 18
f 19 20 21
f 22 23 24
f 25 26 27
f 28 29 30
f 31 32 33
f 34 35 36
f 37 38 39
f 40 41 42
f 43 44 45
f 46 47 48
f 49 50 51
f 52 53 54
f 55 56 57
f 58 59 60
f 61 62 63
f 64 65 66
f 67 68 69
f 70 71 72
f 73 74 75
f 76 77 78
f 79 80 81
f 82 83 84
f 85 86 87
f 88 89 90
f 91 92 93
f 94 95 96
f 97 98 99
f 100 101 102
f 103 104 105
f 106 107 108
f 109 110 111
f 112 113 114
f 115 116 117
f 118 119 120
f 121 122 123
f 124 125 126
f 127 128 129
f 130 131 132
f 133 134 135
f 136 137 138
f 139 140 141
f 142 143 144
f 145 146 147
f 148 149 150
f 151 152 153
f 154 155 156
f 157 158 159
f 160 161 162
f 163 164 165
f 166 167 168
f 169 170 171
f 172 173 174
f 175 176 177
f 178 179 180
f 181 182 183
f 184 185 186
f 187 188 189
f 190 191 192
f 193 194 195
f 196 197 198
f 199 200 201
f 202 203 204
f 205 206 207
f 208 209 210
f 211 212 213
f 214 215 216
f 217 218 219
f 220 221 222
f 223 224 225
f 226 227 228
f 229 230 231
f 232 233 234
f 235 236 237
f 238 239 240
f 241 242 243
f 244 245 246
f 247 248 249
f 250 251 252
f 253 254 255
f 256 257 258
f 259 260 261
f 262 263 264
f 265 266 267
f 268 269 270
f 271 272 273
f 274 275 276
f 277 278 279
f 280 281 282
f 283 284 285
f 286 287 288
f 289 290 291
f 292 293 294
f 295 296 297
f 298 299 300
f 301 302 303
f 304 305 306
f 307 308 309
f 310 311 312
f 313 314 315
f 316 317 318
f 319 320 321
f 322 323 324
f 325 326 327
f 328 329 330
f 331 332 333
f 334 335 336
f 337 338 339
f 340 341 342
f 343 344 345
f 346 347 348
f 349 350 351
f 352 353 354
f 355 356 357
f 358 359 360
f 361 362 363
f 364 365 366
f 367 368 369
f 370 371 372
f 373 374 375
f 376 377 378
f 379 380 381
f 382 383 384
f 385 386 387
f 388 389 390
f 391 392 393
f 394 395 396
f 397 398 399
f 400 401 402
f 403 404 405
f 406 407 408
f 409 410 411
f 412 413 414
f 415 416 417
f 418 419 420
f 421 422 423
f 424 425 426
f 427 428 429
f 430 431 432
f 433 434 435
f 436 437 438
f 439 440 441
f 442 443 444
f 445 446 447
f 448 449 450
f 451 452 453
f 454 455 456
f 457 458 459
f 460 461 462
f 463 464 465
f 466 467 468
f 469 470 471
f 472 473 474
f 475 476 477
f 478 479 480
f 481 482 483
f 484 485 486
f 487 488 489
f 490 491 492
f 493 494 495
f 496 497 498
f 499 500 501
f 502 503 504
f 505 506 507
f 508 509 510
f 511 512 513
f 514 515 516
f 517 518 519
f 520 521 522
f 523 524 525
f 526 527 528
f 529 530 531
f 532 533 534
f 535 536 537
f 538 539 540
f 541 542 543
f 544 545 546
f 547 548 549
f 550 551 552
f 553 554 555
f 556 557 558
f 559 560 561
f 562 563 564
f 565 566 567
f 568 569 570
f 571 572 573
f 574 575 576
f 577 578 579
f 580 581 582
f 583 584 585
f 586 587 588
f 589 590 591
f 592 593 594
f 595 596 597
f 598 599 600
f 601 602 603
f 604 605 606
f 607 608 609
f 610 611 612
f 613 614 615
f 616 617 618
f 619 620 621
f 622 623 624
f 625 626 627
f 628 629 630
f 631 632 633
f 634 635 636
f 637 638 639
f 640 641 642
f 643 644 645
f 646 647 648
f 649 650 651
f 652 653 654
f 655 656 657
f 658 659 660
f 661 662 663
f 664 665 666
f 667 668 669
f 670 671 672
f 673 674 675
f 676 677 678
f 679 680 681
f 682 683 684
f 685 686 687
f 688 689 690
f 691 692 693
f 694 695 696
f 697 698 699
f 700 701 702
f 703 704 705
f 706 707 708
f 709 710 711
f 712 713 714
f 715 716 717
f 718 719 720
f 721 722 723
f 724 725 726
f 727 728 729
f 730 731 732
f 733 734 735
f 736 737 738
f 739 740 741
f 742 743 744
f 745 746 747
f 748 749 750
f 751 752 753
f 754 755 756
f 757 758 759
f 760 761 762
f 763 764 765
f 766 767 768
f 769 770 771
f 772 773 774
f 775 776 777
f 778 779 780
f 781 782 783
f 784 785 786
f 787 788 789
f 790 791 792
f 793 794 795
f 796 797 798
f 799 800 801
f 802 803 804
f 805 806 807
f 808 809 810
f 811 812 813
f 814 815 816
f 817 818 819
f 820 821 822
f 823 824 825
f 826 827 828
f 829 830 831
f 832 833 834
f 835 836 837
f 838 839 840
f 841 842 843
f 844 845 846
f 847 848 849
f 850 851 852
f 853 854 855
f 856 857 858
f 859 860 861
f 862 863 864
f 865 866 867
f 868 869 870
f 871 872 873
f 874 875 876
f 877 878 879
f 880 881 882
f 883 884 885
f 886 887 888
f 889 890 891
f 892 893 894
f 895 896 897
f 898 899 900
f 901 902 903
f 904 905 906
f 907 908 909
f 910 911 912
f 913 914 915
f 916 917 918
f 919 920 921
f 922 923 924
f 925 926 927
f 928 929 930
f 931 932 933
f 934 935 936
