# MATERIA - Peacock
# Geometria originale di studio. Unita mm. Non CAD del produttore.
v -631.6913 -231.0988 -576.5841
v -589.5713 122.3812 -535.4001
v -628.6597 -230.0492 -588.6932
v -589.5713 122.3812 -535.4001
v -586.5397 123.4308 -547.5092
v -628.6597 -230.0492 -588.6932
v -628.6597 -230.0492 -588.6932
v -586.5397 123.4308 -547.5092
v -620.0018 -230.0261 -597.7465
v -586.5397 123.4308 -547.5092
v -577.8818 123.4539 -556.5625
v -620.0018 -230.0261 -597.7465
v -620.0018 -230.0261 -597.7465
v -577.8818 123.4539 -556.5625
v -608.0374 -231.0356 -601.3181
v -577.8818 123.4539 -556.5625
v -565.9174 122.4444 -560.1341
v -608.0374 -231.0356 -601.3181
v -608.0374 -231.0356 -601.3181
v -565.9174 122.4444 -560.1341
v -595.9725 -232.8073 -598.4511
v -565.9174 122.4444 -560.1341
v -553.8525 120.6727 -557.2671
v -595.9725 -232.8073 -598.4511
v -595.9725 -232.8073 -598.4511
v -553.8525 120.6727 -557.2671
v -587.0397 -234.8664 -589.9137
v -553.8525 120.6727 -557.2671
v -544.9197 118.6136 -548.7297
v -587.0397 -234.8664 -589.9137
v -587.0397 -234.8664 -589.9137
v -544.9197 118.6136 -548.7297
v -583.6327 -236.6612 -577.9935
v -544.9197 118.6136 -548.7297
v -541.5127 116.8188 -536.8095
v -583.6327 -236.6612 -577.9935
v -583.6327 -236.6612 -577.9935
v -541.5127 116.8188 -536.8095
v -586.6643 -237.7108 -565.8844
v -541.5127 116.8188 -536.8095
v -544.5443 115.7692 -524.7004
v -586.6643 -237.7108 -565.8844
v -586.6643 -237.7108 -565.8844
v -544.5443 115.7692 -524.7004
v -595.3222 -237.7339 -556.8311
v -544.5443 115.7692 -524.7004
v -553.2022 115.7461 -515.6471
v -595.3222 -237.7339 -556.8311
v -595.3222 -237.7339 -556.8311
v -553.2022 115.7461 -515.6471
v -607.2866 -236.7244 -553.2595
v -553.2022 115.7461 -515.6471
v -565.1666 116.7556 -512.0755
v -607.2866 -236.7244 -553.2595
v -607.2866 -236.7244 -553.2595
v -565.1666 116.7556 -512.0755
v -619.3515 -234.9527 -556.1265
v -565.1666 116.7556 -512.0755
v -577.2315 118.5273 -514.9425
v -619.3515 -234.9527 -556.1265
v -619.3515 -234.9527 -556.1265
v -577.2315 118.5273 -514.9425
v -628.2843 -232.8936 -564.6639
v -577.2315 118.5273 -514.9425
v -586.1643 120.5864 -523.4799
v -628.2843 -232.8936 -564.6639
v -628.2843 -232.8936 -564.6639
v -586.1643 120.5864 -523.4799
v -631.6913 -231.0988 -576.5841
v -586.1643 120.5864 -523.4799
v -589.5713 122.3812 -535.4001
v -631.6913 -231.0988 -576.5841
v -631.6913 -231.0988 -576.5841
v -628.6597 -230.0492 -588.6932
v -607.6620 -233.8800 -577.2888
v -628.6597 -230.0492 -588.6932
v -620.0018 -230.0261 -597.7465
v -607.6620 -233.8800 -577.2888
v -620.0018 -230.0261 -597.7465
v -608.0374 -231.0356 -601.3181
v -607.6620 -233.8800 -577.2888
v -608.0374 -231.0356 -601.3181
v -595.9725 -232.8073 -598.4511
v -607.6620 -233.8800 -577.2888
v -595.9725 -232.8073 -598.4511
v -587.0397 -234.8664 -589.9137
v -607.6620 -233.8800 -577.2888
v -587.0397 -234.8664 -589.9137
v -583.6327 -236.6612 -577.9935
v -607.6620 -233.8800 -577.2888
v -583.6327 -236.6612 -577.9935
v -586.6643 -237.7108 -565.8844
v -607.6620 -233.8800 -577.2888
v -586.6643 -237.7108 -565.8844
v -595.3222 -237.7339 -556.8311
v -607.6620 -233.8800 -577.2888
v -595.3222 -237.7339 -556.8311
v -607.2866 -236.7244 -553.2595
v -607.6620 -233.8800 -577.2888
v -607.2866 -236.7244 -553.2595
v -619.3515 -234.9527 -556.1265
v -607.6620 -233.8800 -577.2888
v -619.3515 -234.9527 -556.1265
v -628.2843 -232.8936 -564.6639
v -607.6620 -233.8800 -577.2888
v -628.2843 -232.8936 -564.6639
v -631.6913 -231.0988 -576.5841
v -607.6620 -233.8800 -577.2888
v -586.5397 123.4308 -547.5092
v -589.5713 122.3812 -535.4001
v -565.5420 119.6000 -536.1048
v -577.8818 123.4539 -556.5625
v -586.5397 123.4308 -547.5092
v -565.5420 119.6000 -536.1048
v -565.9174 122.4444 -560.1341
v -577.8818 123.4539 -556.5625
v -565.5420 119.6000 -536.1048
v -553.8525 120.6727 -557.2671
v -565.9174 122.4444 -560.1341
v -565.5420 119.6000 -536.1048
v -544.9197 118.6136 -548.7297
v -553.8525 120.6727 -557.2671
v -565.5420 119.6000 -536.1048
v -541.5127 116.8188 -536.8095
v -544.9197 118.6136 -548.7297
v -565.5420 119.6000 -536.1048
v -544.5443 115.7692 -524.7004
v -541.5127 116.8188 -536.8095
v -565.5420 119.6000 -536.1048
v -553.2022 115.7461 -515.6471
v -544.5443 115.7692 -524.7004
v -565.5420 119.6000 -536.1048
v -565.1666 116.7556 -512.0755
v -553.2022 115.7461 -515.6471
v -565.5420 119.6000 -536.1048
v -577.2315 118.5273 -514.9425
v -565.1666 116.7556 -512.0755
v -565.5420 119.6000 -536.1048
v -586.1643 120.5864 -523.4799
v -577.2315 118.5273 -514.9425
v -565.5420 119.6000 -536.1048
v -589.5713 122.3812 -535.4001
v -586.1643 120.5864 -523.4799
v -565.5420 119.6000 -536.1048
v 631.6913 -65.4988 -576.5841
v 589.5713 287.9812 -535.4001
v 628.2843 -67.2936 -564.6639
v 589.5713 287.9812 -535.4001
v 586.1643 286.1864 -523.4799
v 628.2843 -67.2936 -564.6639
v 628.2843 -67.2936 -564.6639
v 586.1643 286.1864 -523.4799
v 619.3515 -69.3527 -556.1265
v 586.1643 286.1864 -523.4799
v 577.2315 284.1273 -514.9425
v 619.3515 -69.3527 -556.1265
v 619.3515 -69.3527 -556.1265
v 577.2315 284.1273 -514.9425
v 607.2866 -71.1244 -553.2595
v 577.2315 284.1273 -514.9425
v 565.1666 282.3556 -512.0755
v 607.2866 -71.1244 -553.2595
v 607.2866 -71.1244 -553.2595
v 565.1666 282.3556 -512.0755
v 595.3222 -72.1339 -556.8311
v 565.1666 282.3556 -512.0755
v 553.2022 281.3461 -515.6471
v 595.3222 -72.1339 -556.8311
v 595.3222 -72.1339 -556.8311
v 553.2022 281.3461 -515.6471
v 586.6643 -72.1108 -565.8844
v 553.2022 281.3461 -515.6471
v 544.5443 281.3692 -524.7004
v 586.6643 -72.1108 -565.8844
v 586.6643 -72.1108 -565.8844
v 544.5443 281.3692 -524.7004
v 583.6327 -71.0612 -577.9935
v 544.5443 281.3692 -524.7004
v 541.5127 282.4188 -536.8095
v 583.6327 -71.0612 -577.9935
v 583.6327 -71.0612 -577.9935
v 541.5127 282.4188 -536.8095
v 587.0397 -69.2664 -589.9137
v 541.5127 282.4188 -536.8095
v 544.9197 284.2136 -548.7297
v 587.0397 -69.2664 -589.9137
v 587.0397 -69.2664 -589.9137
v 544.9197 284.2136 -548.7297
v 595.9725 -67.2073 -598.4511
v 544.9197 284.2136 -548.7297
v 553.8525 286.2727 -557.2671
v 595.9725 -67.2073 -598.4511
v 595.9725 -67.2073 -598.4511
v 553.8525 286.2727 -557.2671
v 608.0374 -65.4356 -601.3181
v 553.8525 286.2727 -557.2671
v 565.9174 288.0444 -560.1341
v 608.0374 -65.4356 -601.3181
v 608.0374 -65.4356 -601.3181
v 565.9174 288.0444 -560.1341
v 620.0018 -64.4261 -597.7465
v 565.9174 288.0444 -560.1341
v 577.8818 289.0539 -556.5625
v 620.0018 -64.4261 -597.7465
v 620.0018 -64.4261 -597.7465
v 577.8818 289.0539 -556.5625
v 628.6597 -64.4492 -588.6932
v 577.8818 289.0539 -556.5625
v 586.5397 289.0308 -547.5092
v 628.6597 -64.4492 -588.6932
v 628.6597 -64.4492 -588.6932
v 586.5397 289.0308 -547.5092
v 631.6913 -65.4988 -576.5841
v 586.5397 289.0308 -547.5092
v 589.5713 287.9812 -535.4001
v 631.6913 -65.4988 -576.5841
v 631.6913 -65.4988 -576.5841
v 628.2843 -67.2936 -564.6639
v 607.6620 -68.2800 -577.2888
v 628.2843 -67.2936 -564.6639
v 619.3515 -69.3527 -556.1265
v 607.6620 -68.2800 -577.2888
v 619.3515 -69.3527 -556.1265
v 607.2866 -71.1244 -553.2595
v 607.6620 -68.2800 -577.2888
v 607.2866 -71.1244 -553.2595
v 595.3222 -72.1339 -556.8311
v 607.6620 -68.2800 -577.2888
v 595.3222 -72.1339 -556.8311
v 586.6643 -72.1108 -565.8844
v 607.6620 -68.2800 -577.2888
v 586.6643 -72.1108 -565.8844
v 583.6327 -71.0612 -577.9935
v 607.6620 -68.2800 -577.2888
v 583.6327 -71.0612 -577.9935
v 587.0397 -69.2664 -589.9137
v 607.6620 -68.2800 -577.2888
v 587.0397 -69.2664 -589.9137
v 595.9725 -67.2073 -598.4511
v 607.6620 -68.2800 -577.2888
v 595.9725 -67.2073 -598.4511
v 608.0374 -65.4356 -601.3181
v 607.6620 -68.2800 -577.2888
v 608.0374 -65.4356 -601.3181
v 620.0018 -64.4261 -597.7465
v 607.6620 -68.2800 -577.2888
v 620.0018 -64.4261 -597.7465
v 628.6597 -64.4492 -588.6932
v 607.6620 -68.2800 -577.2888
v 628.6597 -64.4492 -588.6932
v 631.6913 -65.4988 -576.5841
v 607.6620 -68.2800 -577.2888
v 586.1643 286.1864 -523.4799
v 589.5713 287.9812 -535.4001
v 565.5420 285.2000 -536.1048
v 577.2315 284.1273 -514.9425
v 586.1643 286.1864 -523.4799
v 565.5420 285.2000 -536.1048
v 565.1666 282.3556 -512.0755
v 577.2315 284.1273 -514.9425
v 565.5420 285.2000 -536.1048
v 553.2022 281.3461 -515.6471
v 565.1666 282.3556 -512.0755
v 565.5420 285.2000 -536.1048
v 544.5443 281.3692 -524.7004
v 553.2022 281.3461 -515.6471
v 565.5420 285.2000 -536.1048
v 541.5127 282.4188 -536.8095
v 544.5443 281.3692 -524.7004
v 565.5420 285.2000 -536.1048
v 544.9197 284.2136 -548.7297
v 541.5127 282.4188 -536.8095
v 565.5420 285.2000 -536.1048
v 553.8525 286.2727 -557.2671
v 544.9197 284.2136 -548.7297
v 565.5420 285.2000 -536.1048
v 565.9174 288.0444 -560.1341
v 553.8525 286.2727 -557.2671
v 565.5420 285.2000 -536.1048
v 577.8818 289.0539 -556.5625
v 565.9174 288.0444 -560.1341
v 565.5420 285.2000 -536.1048
v 586.5397 289.0308 -547.5092
v 577.8818 289.0539 -556.5625
v 565.5420 285.2000 -536.1048
v 589.5713 287.9812 -535.4001
v 586.5397 289.0308 -547.5092
v 565.5420 285.2000 -536.1048
v -583.6327 94.5388 577.9935
v -541.5127 448.0188 536.8095
v -587.0397 96.3336 589.9137
v -541.5127 448.0188 536.8095
v -544.9197 449.8136 548.7297
v -587.0397 96.3336 589.9137
v -587.0397 96.3336 589.9137
v -544.9197 449.8136 548.7297
v -595.9725 98.3927 598.4511
v -544.9197 449.8136 548.7297
v -553.8525 451.8727 557.2671
v -595.9725 98.3927 598.4511
v -595.9725 98.3927 598.4511
v -553.8525 451.8727 557.2671
v -608.0374 100.1644 601.3181
v -553.8525 451.8727 557.2671
v -565.9174 453.6444 560.1341
v -608.0374 100.1644 601.3181
v -608.0374 100.1644 601.3181
v -565.9174 453.6444 560.1341
v -620.0018 101.1739 597.7465
v -565.9174 453.6444 560.1341
v -577.8818 454.6539 556.5625
v -620.0018 101.1739 597.7465
v -620.0018 101.1739 597.7465
v -577.8818 454.6539 556.5625
v -628.6597 101.1508 588.6932
v -577.8818 454.6539 556.5625
v -586.5397 454.6308 547.5092
v -628.6597 101.1508 588.6932
v -628.6597 101.1508 588.6932
v -586.5397 454.6308 547.5092
v -631.6913 100.1012 576.5841
v -586.5397 454.6308 547.5092
v -589.5713 453.5812 535.4001
v -631.6913 100.1012 576.5841
v -631.6913 100.1012 576.5841
v -589.5713 453.5812 535.4001
v -628.2843 98.3064 564.6639
v -589.5713 453.5812 535.4001
v -586.1643 451.7864 523.4799
v -628.2843 98.3064 564.6639
v -628.2843 98.3064 564.6639
v -586.1643 451.7864 523.4799
v -619.3515 96.2473 556.1265
v -586.1643 451.7864 523.4799
v -577.2315 449.7273 514.9425
v -619.3515 96.2473 556.1265
v -619.3515 96.2473 556.1265
v -577.2315 449.7273 514.9425
v -607.2866 94.4756 553.2595
v -577.2315 449.7273 514.9425
v -565.1666 447.9556 512.0755
v -607.2866 94.4756 553.2595
v -607.2866 94.4756 553.2595
v -565.1666 447.9556 512.0755
v -595.3222 93.4661 556.8311
v -565.1666 447.9556 512.0755
v -553.2022 446.9461 515.6471
v -595.3222 93.4661 556.8311
v -595.3222 93.4661 556.8311
v -553.2022 446.9461 515.6471
v -586.6643 93.4892 565.8844
v -553.2022 446.9461 515.6471
v -544.5443 446.9692 524.7004
v -586.6643 93.4892 565.8844
v -586.6643 93.4892 565.8844
v -544.5443 446.9692 524.7004
v -583.6327 94.5388 577.9935
v -544.5443 446.9692 524.7004
v -541.5127 448.0188 536.8095
v -583.6327 94.5388 577.9935
v -583.6327 94.5388 577.9935
v -587.0397 96.3336 589.9137
v -607.6620 97.3200 577.2888
v -587.0397 96.3336 589.9137
v -595.9725 98.3927 598.4511
v -607.6620 97.3200 577.2888
v -595.9725 98.3927 598.4511
v -608.0374 100.1644 601.3181
v -607.6620 97.3200 577.2888
v -608.0374 100.1644 601.3181
v -620.0018 101.1739 597.7465
v -607.6620 97.3200 577.2888
v -620.0018 101.1739 597.7465
v -628.6597 101.1508 588.6932
v -607.6620 97.3200 577.2888
v -628.6597 101.1508 588.6932
v -631.6913 100.1012 576.5841
v -607.6620 97.3200 577.2888
v -631.6913 100.1012 576.5841
v -628.2843 98.3064 564.6639
v -607.6620 97.3200 577.2888
v -628.2843 98.3064 564.6639
v -619.3515 96.2473 556.1265
v -607.6620 97.3200 577.2888
v -619.3515 96.2473 556.1265
v -607.2866 94.4756 553.2595
v -607.6620 97.3200 577.2888
v -607.2866 94.4756 553.2595
v -595.3222 93.4661 556.8311
v -607.6620 97.3200 577.2888
v -595.3222 93.4661 556.8311
v -586.6643 93.4892 565.8844
v -607.6620 97.3200 577.2888
v -586.6643 93.4892 565.8844
v -583.6327 94.5388 577.9935
v -607.6620 97.3200 577.2888
v -544.9197 449.8136 548.7297
v -541.5127 448.0188 536.8095
v -565.5420 450.8000 536.1048
v -553.8525 451.8727 557.2671
v -544.9197 449.8136 548.7297
v -565.5420 450.8000 536.1048
v -565.9174 453.6444 560.1341
v -553.8525 451.8727 557.2671
v -565.5420 450.8000 536.1048
v -577.8818 454.6539 556.5625
v -565.9174 453.6444 560.1341
v -565.5420 450.8000 536.1048
v -586.5397 454.6308 547.5092
v -577.8818 454.6539 556.5625
v -565.5420 450.8000 536.1048
v -589.5713 453.5812 535.4001
v -586.5397 454.6308 547.5092
v -565.5420 450.8000 536.1048
v -586.1643 451.7864 523.4799
v -589.5713 453.5812 535.4001
v -565.5420 450.8000 536.1048
v -577.2315 449.7273 514.9425
v -586.1643 451.7864 523.4799
v -565.5420 450.8000 536.1048
v -565.1666 447.9556 512.0755
v -577.2315 449.7273 514.9425
v -565.5420 450.8000 536.1048
v -553.2022 446.9461 515.6471
v -565.1666 447.9556 512.0755
v -565.5420 450.8000 536.1048
v -544.5443 446.9692 524.7004
v -553.2022 446.9461 515.6471
v -565.5420 450.8000 536.1048
v -541.5127 448.0188 536.8095
v -544.5443 446.9692 524.7004
v -565.5420 450.8000 536.1048
v 583.6327 260.1388 577.9935
v 541.5127 613.6188 536.8095
v 586.6643 259.0892 565.8844
v 541.5127 613.6188 536.8095
v 544.5443 612.5692 524.7004
v 586.6643 259.0892 565.8844
v 586.6643 259.0892 565.8844
v 544.5443 612.5692 524.7004
v 595.3222 259.0661 556.8311
v 544.5443 612.5692 524.7004
v 553.2022 612.5461 515.6471
v 595.3222 259.0661 556.8311
v 595.3222 259.0661 556.8311
v 553.2022 612.5461 515.6471
v 607.2866 260.0756 553.2595
v 553.2022 612.5461 515.6471
v 565.1666 613.5556 512.0755
v 607.2866 260.0756 553.2595
v 607.2866 260.0756 553.2595
v 565.1666 613.5556 512.0755
v 619.3515 261.8473 556.1265
v 565.1666 613.5556 512.0755
v 577.2315 615.3273 514.9425
v 619.3515 261.8473 556.1265
v 619.3515 261.8473 556.1265
v 577.2315 615.3273 514.9425
v 628.2843 263.9064 564.6639
v 577.2315 615.3273 514.9425
v 586.1643 617.3864 523.4799
v 628.2843 263.9064 564.6639
v 628.2843 263.9064 564.6639
v 586.1643 617.3864 523.4799
v 631.6913 265.7012 576.5841
v 586.1643 617.3864 523.4799
v 589.5713 619.1812 535.4001
v 631.6913 265.7012 576.5841
v 631.6913 265.7012 576.5841
v 589.5713 619.1812 535.4001
v 628.6597 266.7508 588.6932
v 589.5713 619.1812 535.4001
v 586.5397 620.2308 547.5092
v 628.6597 266.7508 588.6932
v 628.6597 266.7508 588.6932
v 586.5397 620.2308 547.5092
v 620.0018 266.7739 597.7465
v 586.5397 620.2308 547.5092
v 577.8818 620.2539 556.5625
v 620.0018 266.7739 597.7465
v 620.0018 266.7739 597.7465
v 577.8818 620.2539 556.5625
v 608.0374 265.7644 601.3181
v 577.8818 620.2539 556.5625
v 565.9174 619.2444 560.1341
v 608.0374 265.7644 601.3181
v 608.0374 265.7644 601.3181
v 565.9174 619.2444 560.1341
v 595.9725 263.9927 598.4511
v 565.9174 619.2444 560.1341
v 553.8525 617.4727 557.2671
v 595.9725 263.9927 598.4511
v 595.9725 263.9927 598.4511
v 553.8525 617.4727 557.2671
v 587.0397 261.9336 589.9137
v 553.8525 617.4727 557.2671
v 544.9197 615.4136 548.7297
v 587.0397 261.9336 589.9137
v 587.0397 261.9336 589.9137
v 544.9197 615.4136 548.7297
v 583.6327 260.1388 577.9935
v 544.9197 615.4136 548.7297
v 541.5127 613.6188 536.8095
v 583.6327 260.1388 577.9935
v 583.6327 260.1388 577.9935
v 586.6643 259.0892 565.8844
v 607.6620 262.9200 577.2888
v 586.6643 259.0892 565.8844
v 595.3222 259.0661 556.8311
v 607.6620 262.9200 577.2888
v 595.3222 259.0661 556.8311
v 607.2866 260.0756 553.2595
v 607.6620 262.9200 577.2888
v 607.2866 260.0756 553.2595
v 619.3515 261.8473 556.1265
v 607.6620 262.9200 577.2888
v 619.3515 261.8473 556.1265
v 628.2843 263.9064 564.6639
v 607.6620 262.9200 577.2888
v 628.2843 263.9064 564.6639
v 631.6913 265.7012 576.5841
v 607.6620 262.9200 577.2888
v 631.6913 265.7012 576.5841
v 628.6597 266.7508 588.6932
v 607.6620 262.9200 577.2888
v 628.6597 266.7508 588.6932
v 620.0018 266.7739 597.7465
v 607.6620 262.9200 577.2888
v 620.0018 266.7739 597.7465
v 608.0374 265.7644 601.3181
v 607.6620 262.9200 577.2888
v 608.0374 265.7644 601.3181
v 595.9725 263.9927 598.4511
v 607.6620 262.9200 577.2888
v 595.9725 263.9927 598.4511
v 587.0397 261.9336 589.9137
v 607.6620 262.9200 577.2888
v 587.0397 261.9336 589.9137
v 583.6327 260.1388 577.9935
v 607.6620 262.9200 577.2888
v 544.5443 612.5692 524.7004
v 541.5127 613.6188 536.8095
v 565.5420 616.4000 536.1048
v 553.2022 612.5461 515.6471
v 544.5443 612.5692 524.7004
v 565.5420 616.4000 536.1048
v 565.1666 613.5556 512.0755
v 553.2022 612.5461 515.6471
v 565.5420 616.4000 536.1048
v 577.2315 615.3273 514.9425
v 565.1666 613.5556 512.0755
v 565.5420 616.4000 536.1048
v 586.1643 617.3864 523.4799
v 577.2315 615.3273 514.9425
v 565.5420 616.4000 536.1048
v 589.5713 619.1812 535.4001
v 586.1643 617.3864 523.4799
v 565.5420 616.4000 536.1048
v 586.5397 620.2308 547.5092
v 589.5713 619.1812 535.4001
v 565.5420 616.4000 536.1048
v 577.8818 620.2539 556.5625
v 586.5397 620.2308 547.5092
v 565.5420 616.4000 536.1048
v 565.9174 619.2444 560.1341
v 577.8818 620.2539 556.5625
v 565.5420 616.4000 536.1048
v 553.8525 617.4727 557.2671
v 565.9174 619.2444 560.1341
v 565.5420 616.4000 536.1048
v 544.9197 615.4136 548.7297
v 553.8525 617.4727 557.2671
v 565.5420 616.4000 536.1048
v 541.5127 613.6188 536.8095
v 544.9197 615.4136 548.7297
v 565.5420 616.4000 536.1048
v 0.0000 257.6000 0.0000
v -154.9868 250.5969 0.0000
v -134.2225 250.5969 75.7713
v 0.0000 257.6000 0.0000
v -134.2225 250.5969 75.7713
v -77.4934 250.5969 131.2398
v 0.0000 257.6000 0.0000
v -77.4934 250.5969 131.2398
v -0.0000 250.5969 151.5426
v 0.0000 257.6000 0.0000
v -0.0000 250.5969 151.5426
v 77.4934 250.5969 131.2398
v 0.0000 257.6000 0.0000
v 77.4934 250.5969 131.2398
v 134.2225 250.5969 75.7713
v 0.0000 257.6000 0.0000
v 134.2225 250.5969 75.7713
v 154.9868 250.5969 0.0000
v 0.0000 257.6000 0.0000
v 154.9868 250.5969 0.0000
v 134.2225 250.5969 -75.7713
v 0.0000 257.6000 0.0000
v 134.2225 250.5969 -75.7713
v 77.4934 250.5969 -131.2398
v 0.0000 257.6000 0.0000
v 77.4934 250.5969 -131.2398
v 0.0000 250.5969 -151.5426
v 0.0000 257.6000 0.0000
v 0.0000 250.5969 -151.5426
v -77.4934 250.5969 -131.2398
v 0.0000 257.6000 0.0000
v -77.4934 250.5969 -131.2398
v -134.2225 250.5969 -75.7713
v 0.0000 257.6000 0.0000
v -134.2225 250.5969 -75.7713
v -154.9868 250.5969 -0.0000
v -134.2225 250.5969 75.7713
v -154.9868 250.5969 0.0000
v -248.0108 230.6538 140.0071
v -154.9868 250.5969 0.0000
v -286.3782 230.6538 0.0000
v -248.0108 230.6538 140.0071
v -77.4934 250.5969 131.2398
v -134.2225 250.5969 75.7713
v -143.1891 230.6538 242.4995
v -134.2225 250.5969 75.7713
v -248.0108 230.6538 140.0071
v -143.1891 230.6538 242.4995
v -0.0000 250.5969 151.5426
v -77.4934 250.5969 131.2398
v -0.0000 230.6538 280.0143
v -77.4934 250.5969 131.2398
v -143.1891 230.6538 242.4995
v -0.0000 230.6538 280.0143
v 77.4934 250.5969 131.2398
v -0.0000 250.5969 151.5426
v 143.1891 230.6538 242.4995
v -0.0000 250.5969 151.5426
v -0.0000 230.6538 280.0143
v 143.1891 230.6538 242.4995
v 134.2225 250.5969 75.7713
v 77.4934 250.5969 131.2398
v 248.0108 230.6538 140.0071
v 77.4934 250.5969 131.2398
v 143.1891 230.6538 242.4995
v 248.0108 230.6538 140.0071
v 154.9868 250.5969 0.0000
v 134.2225 250.5969 75.7713
v 286.3782 230.6538 0.0000
v 134.2225 250.5969 75.7713
v 248.0108 230.6538 140.0071
v 286.3782 230.6538 0.0000
v 134.2225 250.5969 -75.7713
v 154.9868 250.5969 0.0000
v 248.0108 230.6538 -140.0071
v 154.9868 250.5969 0.0000
v 286.3782 230.6538 0.0000
v 248.0108 230.6538 -140.0071
v 77.4934 250.5969 -131.2398
v 134.2225 250.5969 -75.7713
v 143.1891 230.6538 -242.4995
v 134.2225 250.5969 -75.7713
v 248.0108 230.6538 -140.0071
v 143.1891 230.6538 -242.4995
v 0.0000 250.5969 -151.5426
v 77.4934 250.5969 -131.2398
v 0.0000 230.6538 -280.0143
v 77.4934 250.5969 -131.2398
v 143.1891 230.6538 -242.4995
v 0.0000 230.6538 -280.0143
v -77.4934 250.5969 -131.2398
v 0.0000 250.5969 -151.5426
v -143.1891 230.6538 -242.4995
v 0.0000 250.5969 -151.5426
v 0.0000 230.6538 -280.0143
v -143.1891 230.6538 -242.4995
v -134.2225 250.5969 -75.7713
v -77.4934 250.5969 -131.2398
v -248.0108 230.6538 -140.0071
v -77.4934 250.5969 -131.2398
v -143.1891 230.6538 -242.4995
v -248.0108 230.6538 -140.0071
v -154.9868 250.5969 -0.0000
v -134.2225 250.5969 -75.7713
v -286.3782 230.6538 -0.0000
v -134.2225 250.5969 -75.7713
v -248.0108 230.6538 -140.0071
v -286.3782 230.6538 -0.0000
v -248.0108 230.6538 140.0071
v -286.3782 230.6538 0.0000
v -324.0418 200.8069 182.9281
v -286.3782 230.6538 0.0000
v -374.1712 200.8069 0.0000
v -324.0418 200.8069 182.9281
v -143.1891 230.6538 242.4995
v -248.0108 230.6538 140.0071
v -187.0856 200.8069 316.8408
v -248.0108 230.6538 140.0071
v -324.0418 200.8069 182.9281
v -187.0856 200.8069 316.8408
v -0.0000 230.6538 280.0143
v -143.1891 230.6538 242.4995
v -0.0000 200.8069 365.8563
v -143.1891 230.6538 242.4995
v -187.0856 200.8069 316.8408
v -0.0000 200.8069 365.8563
v 143.1891 230.6538 242.4995
v -0.0000 230.6538 280.0143
v 187.0856 200.8069 316.8408
v -0.0000 230.6538 280.0143
v -0.0000 200.8069 365.8563
v 187.0856 200.8069 316.8408
v 248.0108 230.6538 140.0071
v 143.1891 230.6538 242.4995
v 324.0418 200.8069 182.9281
v 143.1891 230.6538 242.4995
v 187.0856 200.8069 316.8408
v 324.0418 200.8069 182.9281
v 286.3782 230.6538 0.0000
v 248.0108 230.6538 140.0071
v 374.1712 200.8069 0.0000
v 248.0108 230.6538 140.0071
v 324.0418 200.8069 182.9281
v 374.1712 200.8069 0.0000
v 248.0108 230.6538 -140.0071
v 286.3782 230.6538 0.0000
v 324.0418 200.8069 -182.9281
v 286.3782 230.6538 0.0000
v 374.1712 200.8069 0.0000
v 324.0418 200.8069 -182.9281
v 143.1891 230.6538 -242.4995
v 248.0108 230.6538 -140.0071
v 187.0856 200.8069 -316.8408
v 248.0108 230.6538 -140.0071
v 324.0418 200.8069 -182.9281
v 187.0856 200.8069 -316.8408
v 0.0000 230.6538 -280.0143
v 143.1891 230.6538 -242.4995
v 0.0000 200.8069 -365.8563
v 143.1891 230.6538 -242.4995
v 187.0856 200.8069 -316.8408
v 0.0000 200.8069 -365.8563
v -143.1891 230.6538 -242.4995
v 0.0000 230.6538 -280.0143
v -187.0856 200.8069 -316.8408
v 0.0000 230.6538 -280.0143
v 0.0000 200.8069 -365.8563
v -187.0856 200.8069 -316.8408
v -248.0108 230.6538 -140.0071
v -143.1891 230.6538 -242.4995
v -324.0418 200.8069 -182.9281
v -143.1891 230.6538 -242.4995
v -187.0856 200.8069 -316.8408
v -324.0418 200.8069 -182.9281
v -286.3782 230.6538 -0.0000
v -248.0108 230.6538 -140.0071
v -374.1712 200.8069 -0.0000
v -248.0108 230.6538 -140.0071
v -324.0418 200.8069 -182.9281
v -374.1712 200.8069 -0.0000
v -324.0418 200.8069 182.9281
v -374.1712 200.8069 0.0000
v -350.7403 165.6000 198.0000
v -374.1712 200.8069 0.0000
v -405.0000 165.6000 0.0000
v -350.7403 165.6000 198.0000
v -187.0856 200.8069 316.8408
v -324.0418 200.8069 182.9281
v -202.5000 165.6000 342.9461
v -324.0418 200.8069 182.9281
v -350.7403 165.6000 198.0000
v -202.5000 165.6000 342.9461
v -0.0000 200.8069 365.8563
v -187.0856 200.8069 316.8408
v -0.0000 165.6000 396.0000
v -187.0856 200.8069 316.8408
v -202.5000 165.6000 342.9461
v -0.0000 165.6000 396.0000
v 187.0856 200.8069 316.8408
v -0.0000 200.8069 365.8563
v 202.5000 165.6000 342.9461
v -0.0000 200.8069 365.8563
v -0.0000 165.6000 396.0000
v 202.5000 165.6000 342.9461
v 324.0418 200.8069 182.9281
v 187.0856 200.8069 316.8408
v 350.7403 165.6000 198.0000
v 187.0856 200.8069 316.8408
v 202.5000 165.6000 342.9461
v 350.7403 165.6000 198.0000
v 374.1712 200.8069 0.0000
v 324.0418 200.8069 182.9281
v 405.0000 165.6000 0.0000
v 324.0418 200.8069 182.9281
v 350.7403 165.6000 198.0000
v 405.0000 165.6000 0.0000
v 324.0418 200.8069 -182.9281
v 374.1712 200.8069 0.0000
v 350.7403 165.6000 -198.0000
v 374.1712 200.8069 0.0000
v 405.0000 165.6000 0.0000
v 350.7403 165.6000 -198.0000
v 187.0856 200.8069 -316.8408
v 324.0418 200.8069 -182.9281
v 202.5000 165.6000 -342.9461
v 324.0418 200.8069 -182.9281
v 350.7403 165.6000 -198.0000
v 202.5000 165.6000 -342.9461
v 0.0000 200.8069 -365.8563
v 187.0856 200.8069 -316.8408
v 0.0000 165.6000 -396.0000
v 187.0856 200.8069 -316.8408
v 202.5000 165.6000 -342.9461
v 0.0000 165.6000 -396.0000
v -187.0856 200.8069 -316.8408
v 0.0000 200.8069 -365.8563
v -202.5000 165.6000 -342.9461
v 0.0000 200.8069 -365.8563
v 0.0000 165.6000 -396.0000
v -202.5000 165.6000 -342.9461
v -324.0418 200.8069 -182.9281
v -187.0856 200.8069 -316.8408
v -350.7403 165.6000 -198.0000
v -187.0856 200.8069 -316.8408
v -202.5000 165.6000 -342.9461
v -350.7403 165.6000 -198.0000
v -374.1712 200.8069 -0.0000
v -324.0418 200.8069 -182.9281
v -405.0000 165.6000 -0.0000
v -324.0418 200.8069 -182.9281
v -350.7403 165.6000 -198.0000
v -405.0000 165.6000 -0.0000
v -350.7403 165.6000 198.0000
v -405.0000 165.6000 0.0000
v -324.0418 130.3931 182.9281
v -405.0000 165.6000 0.0000
v -374.1712 130.3931 0.0000
v -324.0418 130.3931 182.9281
v -202.5000 165.6000 342.9461
v -350.7403 165.6000 198.0000
v -187.0856 130.3931 316.8408
v -350.7403 165.6000 198.0000
v -324.0418 130.3931 182.9281
v -187.0856 130.3931 316.8408
v -0.0000 165.6000 396.0000
v -202.5000 165.6000 342.9461
v -0.0000 130.3931 365.8563
v -202.5000 165.6000 342.9461
v -187.0856 130.3931 316.8408
v -0.0000 130.3931 365.8563
v 202.5000 165.6000 342.9461
v -0.0000 165.6000 396.0000
v 187.0856 130.3931 316.8408
v -0.0000 165.6000 396.0000
v -0.0000 130.3931 365.8563
v 187.0856 130.3931 316.8408
v 350.7403 165.6000 198.0000
v 202.5000 165.6000 342.9461
v 324.0418 130.3931 182.9281
v 202.5000 165.6000 342.9461
v 187.0856 130.3931 316.8408
v 324.0418 130.3931 182.9281
v 405.0000 165.6000 0.0000
v 350.7403 165.6000 198.0000
v 374.1712 130.3931 0.0000
v 350.7403 165.6000 198.0000
v 324.0418 130.3931 182.9281
v 374.1712 130.3931 0.0000
v 350.7403 165.6000 -198.0000
v 405.0000 165.6000 0.0000
v 324.0418 130.3931 -182.9281
v 405.0000 165.6000 0.0000
v 374.1712 130.3931 0.0000
v 324.0418 130.3931 -182.9281
v 202.5000 165.6000 -342.9461
v 350.7403 165.6000 -198.0000
v 187.0856 130.3931 -316.8408
v 350.7403 165.6000 -198.0000
v 324.0418 130.3931 -182.9281
v 187.0856 130.3931 -316.8408
v 0.0000 165.6000 -396.0000
v 202.5000 165.6000 -342.9461
v 0.0000 130.3931 -365.8563
v 202.5000 165.6000 -342.9461
v 187.0856 130.3931 -316.8408
v 0.0000 130.3931 -365.8563
v -202.5000 165.6000 -342.9461
v 0.0000 165.6000 -396.0000
v -187.0856 130.3931 -316.8408
v 0.0000 165.6000 -396.0000
v 0.0000 130.3931 -365.8563
v -187.0856 130.3931 -316.8408
v -350.7403 165.6000 -198.0000
v -202.5000 165.6000 -342.9461
v -324.0418 130.3931 -182.9281
v -202.5000 165.6000 -342.9461
v -187.0856 130.3931 -316.8408
v -324.0418 130.3931 -182.9281
v -405.0000 165.6000 -0.0000
v -350.7403 165.6000 -198.0000
v -374.1712 130.3931 -0.0000
v -350.7403 165.6000 -198.0000
v -324.0418 130.3931 -182.9281
v -374.1712 130.3931 -0.0000
v -324.0418 130.3931 182.9281
v -374.1712 130.3931 0.0000
v -248.0108 100.5462 140.0071
v -374.1712 130.3931 0.0000
v -286.3782 100.5462 0.0000
v -248.0108 100.5462 140.0071
v -187.0856 130.3931 316.8408
v -324.0418 130.3931 182.9281
v -143.1891 100.5462 242.4995
v -324.0418 130.3931 182.9281
v -248.0108 100.5462 140.0071
v -143.1891 100.5462 242.4995
v -0.0000 130.3931 365.8563
v -187.0856 130.3931 316.8408
v -0.0000 100.5462 280.0143
v -187.0856 130.3931 316.8408
v -143.1891 100.5462 242.4995
v -0.0000 100.5462 280.0143
v 187.0856 130.3931 316.8408
v -0.0000 130.3931 365.8563
v 143.1891 100.5462 242.4995
v -0.0000 130.3931 365.8563
v -0.0000 100.5462 280.0143
v 143.1891 100.5462 242.4995
v 324.0418 130.3931 182.9281
v 187.0856 130.3931 316.8408
v 248.0108 100.5462 140.0071
v 187.0856 130.3931 316.8408
v 143.1891 100.5462 242.4995
v 248.0108 100.5462 140.0071
v 374.1712 130.3931 0.0000
v 324.0418 130.3931 182.9281
v 286.3782 100.5462 0.0000
v 324.0418 130.3931 182.9281
v 248.0108 100.5462 140.0071
v 286.3782 100.5462 0.0000
v 324.0418 130.3931 -182.9281
v 374.1712 130.3931 0.0000
v 248.0108 100.5462 -140.0071
v 374.1712 130.3931 0.0000
v 286.3782 100.5462 0.0000
v 248.0108 100.5462 -140.0071
v 187.0856 130.3931 -316.8408
v 324.0418 130.3931 -182.9281
v 143.1891 100.5462 -242.4995
v 324.0418 130.3931 -182.9281
v 248.0108 100.5462 -140.0071
v 143.1891 100.5462 -242.4995
v 0.0000 130.3931 -365.8563
v 187.0856 130.3931 -316.8408
v 0.0000 100.5462 -280.0143
v 187.0856 130.3931 -316.8408
v 143.1891 100.5462 -242.4995
v 0.0000 100.5462 -280.0143
v -187.0856 130.3931 -316.8408
v 0.0000 130.3931 -365.8563
v -143.1891 100.5462 -242.4995
v 0.0000 130.3931 -365.8563
v 0.0000 100.5462 -280.0143
v -143.1891 100.5462 -242.4995
v -324.0418 130.3931 -182.9281
v -187.0856 130.3931 -316.8408
v -248.0108 100.5462 -140.0071
v -187.0856 130.3931 -316.8408
v -143.1891 100.5462 -242.4995
v -248.0108 100.5462 -140.0071
v -374.1712 130.3931 -0.0000
v -324.0418 130.3931 -182.9281
v -286.3782 100.5462 -0.0000
v -324.0418 130.3931 -182.9281
v -248.0108 100.5462 -140.0071
v -286.3782 100.5462 -0.0000
v -248.0108 100.5462 140.0071
v -286.3782 100.5462 0.0000
v -134.2225 80.6031 75.7713
v -286.3782 100.5462 0.0000
v -154.9868 80.6031 0.0000
v -134.2225 80.6031 75.7713
v -143.1891 100.5462 242.4995
v -248.0108 100.5462 140.0071
v -77.4934 80.6031 131.2398
v -248.0108 100.5462 140.0071
v -134.2225 80.6031 75.7713
v -77.4934 80.6031 131.2398
v -0.0000 100.5462 280.0143
v -143.1891 100.5462 242.4995
v -0.0000 80.6031 151.5426
v -143.1891 100.5462 242.4995
v -77.4934 80.6031 131.2398
v -0.0000 80.6031 151.5426
v 143.1891 100.5462 242.4995
v -0.0000 100.5462 280.0143
v 77.4934 80.6031 131.2398
v -0.0000 100.5462 280.0143
v -0.0000 80.6031 151.5426
v 77.4934 80.6031 131.2398
v 248.0108 100.5462 140.0071
v 143.1891 100.5462 242.4995
v 134.2225 80.6031 75.7713
v 143.1891 100.5462 242.4995
v 77.4934 80.6031 131.2398
v 134.2225 80.6031 75.7713
v 286.3782 100.5462 0.0000
v 248.0108 100.5462 140.0071
v 154.9868 80.6031 0.0000
v 248.0108 100.5462 140.0071
v 134.2225 80.6031 75.7713
v 154.9868 80.6031 0.0000
v 248.0108 100.5462 -140.0071
v 286.3782 100.5462 0.0000
v 134.2225 80.6031 -75.7713
v 286.3782 100.5462 0.0000
v 154.9868 80.6031 0.0000
v 134.2225 80.6031 -75.7713
v 143.1891 100.5462 -242.4995
v 248.0108 100.5462 -140.0071
v 77.4934 80.6031 -131.2398
v 248.0108 100.5462 -140.0071
v 134.2225 80.6031 -75.7713
v 77.4934 80.6031 -131.2398
v 0.0000 100.5462 -280.0143
v 143.1891 100.5462 -242.4995
v 0.0000 80.6031 -151.5426
v 143.1891 100.5462 -242.4995
v 77.4934 80.6031 -131.2398
v 0.0000 80.6031 -151.5426
v -143.1891 100.5462 -242.4995
v 0.0000 100.5462 -280.0143
v -77.4934 80.6031 -131.2398
v 0.0000 100.5462 -280.0143
v 0.0000 80.6031 -151.5426
v -77.4934 80.6031 -131.2398
v -248.0108 100.5462 -140.0071
v -143.1891 100.5462 -242.4995
v -134.2225 80.6031 -75.7713
v -143.1891 100.5462 -242.4995
v -77.4934 80.6031 -131.2398
v -134.2225 80.6031 -75.7713
v -286.3782 100.5462 -0.0000
v -248.0108 100.5462 -140.0071
v -154.9868 80.6031 -0.0000
v -248.0108 100.5462 -140.0071
v -134.2225 80.6031 -75.7713
v -154.9868 80.6031 -0.0000
v -134.2225 80.6031 75.7713
v -154.9868 80.6031 0.0000
v -0.0000 73.6000 0.0000
v -77.4934 80.6031 131.2398
v -134.2225 80.6031 75.7713
v -0.0000 73.6000 0.0000
v -0.0000 80.6031 151.5426
v -77.4934 80.6031 131.2398
v -0.0000 73.6000 0.0000
v 77.4934 80.6031 131.2398
v -0.0000 80.6031 151.5426
v 0.0000 73.6000 0.0000
v 134.2225 80.6031 75.7713
v 77.4934 80.6031 131.2398
v 0.0000 73.6000 0.0000
v 154.9868 80.6031 0.0000
v 134.2225 80.6031 75.7713
v 0.0000 73.6000 0.0000
v 134.2225 80.6031 -75.7713
v 154.9868 80.6031 0.0000
v 0.0000 73.6000 -0.0000
v 77.4934 80.6031 -131.2398
v 134.2225 80.6031 -75.7713
v 0.0000 73.6000 -0.0000
v 0.0000 80.6031 -151.5426
v 77.4934 80.6031 -131.2398
v 0.0000 73.6000 -0.0000
v -77.4934 80.6031 -131.2398
v 0.0000 80.6031 -151.5426
v -0.0000 73.6000 -0.0000
v -134.2225 80.6031 -75.7713
v -77.4934 80.6031 -131.2398
v -0.0000 73.6000 -0.0000
v -154.9868 80.6031 -0.0000
v -134.2225 80.6031 -75.7713
v -0.0000 73.6000 -0.0000
v 0.0000 832.6000 435.6000
v -172.2075 812.6412 435.6000
v -149.1361 812.6412 459.1733
v 0.0000 832.6000 435.6000
v -149.1361 812.6412 459.1733
v -86.1038 812.6412 476.4302
v 0.0000 832.6000 435.6000
v -86.1038 812.6412 476.4302
v -0.0000 812.6412 482.7466
v 0.0000 832.6000 435.6000
v -0.0000 812.6412 482.7466
v 86.1038 812.6412 476.4302
v 0.0000 832.6000 435.6000
v 86.1038 812.6412 476.4302
v 149.1361 812.6412 459.1733
v 0.0000 832.6000 435.6000
v 149.1361 812.6412 459.1733
v 172.2075 812.6412 435.6000
v 0.0000 832.6000 435.6000
v 172.2075 812.6412 435.6000
v 149.1361 812.6412 412.0267
v 0.0000 832.6000 435.6000
v 149.1361 812.6412 412.0267
v 86.1038 812.6412 394.7698
v 0.0000 832.6000 435.6000
v 86.1038 812.6412 394.7698
v 0.0000 812.6412 388.4534
v 0.0000 832.6000 435.6000
v 0.0000 812.6412 388.4534
v -86.1038 812.6412 394.7698
v 0.0000 832.6000 435.6000
v -86.1038 812.6412 394.7698
v -149.1361 812.6412 412.0267
v 0.0000 832.6000 435.6000
v -149.1361 812.6412 412.0267
v -172.2075 812.6412 435.6000
v -149.1361 812.6412 459.1733
v -172.2075 812.6412 435.6000
v -275.5676 755.8034 479.1578
v -172.2075 812.6412 435.6000
v -318.1980 755.8034 435.6000
v -275.5676 755.8034 479.1578
v -86.1038 812.6412 476.4302
v -149.1361 812.6412 459.1733
v -159.0990 755.8034 511.0443
v -149.1361 812.6412 459.1733
v -275.5676 755.8034 479.1578
v -159.0990 755.8034 511.0443
v -0.0000 812.6412 482.7466
v -86.1038 812.6412 476.4302
v -0.0000 755.8034 522.7156
v -86.1038 812.6412 476.4302
v -159.0990 755.8034 511.0443
v -0.0000 755.8034 522.7156
v 86.1038 812.6412 476.4302
v -0.0000 812.6412 482.7466
v 159.0990 755.8034 511.0443
v -0.0000 812.6412 482.7466
v -0.0000 755.8034 522.7156
v 159.0990 755.8034 511.0443
v 149.1361 812.6412 459.1733
v 86.1038 812.6412 476.4302
v 275.5676 755.8034 479.1578
v 86.1038 812.6412 476.4302
v 159.0990 755.8034 511.0443
v 275.5676 755.8034 479.1578
v 172.2075 812.6412 435.6000
v 149.1361 812.6412 459.1733
v 318.1980 755.8034 435.6000
v 149.1361 812.6412 459.1733
v 275.5676 755.8034 479.1578
v 318.1980 755.8034 435.6000
v 149.1361 812.6412 412.0267
v 172.2075 812.6412 435.6000
v 275.5676 755.8034 392.0422
v 172.2075 812.6412 435.6000
v 318.1980 755.8034 435.6000
v 275.5676 755.8034 392.0422
v 86.1038 812.6412 394.7698
v 149.1361 812.6412 412.0267
v 159.0990 755.8034 360.1557
v 149.1361 812.6412 412.0267
v 275.5676 755.8034 392.0422
v 159.0990 755.8034 360.1557
v 0.0000 812.6412 388.4534
v 86.1038 812.6412 394.7698
v 0.0000 755.8034 348.4844
v 86.1038 812.6412 394.7698
v 159.0990 755.8034 360.1557
v 0.0000 755.8034 348.4844
v -86.1038 812.6412 394.7698
v 0.0000 812.6412 388.4534
v -159.0990 755.8034 360.1557
v 0.0000 812.6412 388.4534
v 0.0000 755.8034 348.4844
v -159.0990 755.8034 360.1557
v -149.1361 812.6412 412.0267
v -86.1038 812.6412 394.7698
v -275.5676 755.8034 392.0422
v -86.1038 812.6412 394.7698
v -159.0990 755.8034 360.1557
v -275.5676 755.8034 392.0422
v -172.2075 812.6412 435.6000
v -149.1361 812.6412 412.0267
v -318.1980 755.8034 435.6000
v -149.1361 812.6412 412.0267
v -275.5676 755.8034 392.0422
v -318.1980 755.8034 435.6000
v -275.5676 755.8034 479.1578
v -318.1980 755.8034 435.6000
v -360.0464 670.7396 492.5110
v -318.1980 755.8034 435.6000
v -415.7458 670.7396 435.6000
v -360.0464 670.7396 492.5110
v -159.0990 755.8034 511.0443
v -275.5676 755.8034 479.1578
v -207.8729 670.7396 534.1727
v -275.5676 755.8034 479.1578
v -360.0464 670.7396 492.5110
v -207.8729 670.7396 534.1727
v -0.0000 755.8034 522.7156
v -159.0990 755.8034 511.0443
v -0.0000 670.7396 549.4220
v -159.0990 755.8034 511.0443
v -207.8729 670.7396 534.1727
v -0.0000 670.7396 549.4220
v 159.0990 755.8034 511.0443
v -0.0000 755.8034 522.7156
v 207.8729 670.7396 534.1727
v -0.0000 755.8034 522.7156
v -0.0000 670.7396 549.4220
v 207.8729 670.7396 534.1727
v 275.5676 755.8034 479.1578
v 159.0990 755.8034 511.0443
v 360.0464 670.7396 492.5110
v 159.0990 755.8034 511.0443
v 207.8729 670.7396 534.1727
v 360.0464 670.7396 492.5110
v 318.1980 755.8034 435.6000
v 275.5676 755.8034 479.1578
v 415.7458 670.7396 435.6000
v 275.5676 755.8034 479.1578
v 360.0464 670.7396 492.5110
v 415.7458 670.7396 435.6000
v 275.5676 755.8034 392.0422
v 318.1980 755.8034 435.6000
v 360.0464 670.7396 378.6890
v 318.1980 755.8034 435.6000
v 415.7458 670.7396 435.6000
v 360.0464 670.7396 378.6890
v 159.0990 755.8034 360.1557
v 275.5676 755.8034 392.0422
v 207.8729 670.7396 337.0273
v 275.5676 755.8034 392.0422
v 360.0464 670.7396 378.6890
v 207.8729 670.7396 337.0273
v 0.0000 755.8034 348.4844
v 159.0990 755.8034 360.1557
v 0.0000 670.7396 321.7780
v 159.0990 755.8034 360.1557
v 207.8729 670.7396 337.0273
v 0.0000 670.7396 321.7780
v -159.0990 755.8034 360.1557
v 0.0000 755.8034 348.4844
v -207.8729 670.7396 337.0273
v 0.0000 755.8034 348.4844
v 0.0000 670.7396 321.7780
v -207.8729 670.7396 337.0273
v -275.5676 755.8034 392.0422
v -159.0990 755.8034 360.1557
v -360.0464 670.7396 378.6890
v -159.0990 755.8034 360.1557
v -207.8729 670.7396 337.0273
v -360.0464 670.7396 378.6890
v -318.1980 755.8034 435.6000
v -275.5676 755.8034 392.0422
v -415.7458 670.7396 435.6000
v -275.5676 755.8034 392.0422
v -360.0464 670.7396 378.6890
v -415.7458 670.7396 435.6000
v -360.0464 670.7396 492.5110
v -415.7458 670.7396 435.6000
v -389.7114 570.4000 497.2000
v -415.7458 670.7396 435.6000
v -450.0000 570.4000 435.6000
v -389.7114 570.4000 497.2000
v -207.8729 670.7396 534.1727
v -360.0464 670.7396 492.5110
v -225.0000 570.4000 542.2943
v -360.0464 670.7396 492.5110
v -389.7114 570.4000 497.2000
v -225.0000 570.4000 542.2943
v -0.0000 670.7396 549.4220
v -207.8729 670.7396 534.1727
v -0.0000 570.4000 558.8000
v -207.8729 670.7396 534.1727
v -225.0000 570.4000 542.2943
v -0.0000 570.4000 558.8000
v 207.8729 670.7396 534.1727
v -0.0000 670.7396 549.4220
v 225.0000 570.4000 542.2943
v -0.0000 670.7396 549.4220
v -0.0000 570.4000 558.8000
v 225.0000 570.4000 542.2943
v 360.0464 670.7396 492.5110
v 207.8729 670.7396 534.1727
v 389.7114 570.4000 497.2000
v 207.8729 670.7396 534.1727
v 225.0000 570.4000 542.2943
v 389.7114 570.4000 497.2000
v 415.7458 670.7396 435.6000
v 360.0464 670.7396 492.5110
v 450.0000 570.4000 435.6000
v 360.0464 670.7396 492.5110
v 389.7114 570.4000 497.2000
v 450.0000 570.4000 435.6000
v 360.0464 670.7396 378.6890
v 415.7458 670.7396 435.6000
v 389.7114 570.4000 374.0000
v 415.7458 670.7396 435.6000
v 450.0000 570.4000 435.6000
v 389.7114 570.4000 374.0000
v 207.8729 670.7396 337.0273
v 360.0464 670.7396 378.6890
v 225.0000 570.4000 328.9057
v 360.0464 670.7396 378.6890
v 389.7114 570.4000 374.0000
v 225.0000 570.4000 328.9057
v 0.0000 670.7396 321.7780
v 207.8729 670.7396 337.0273
v 0.0000 570.4000 312.4000
v 207.8729 670.7396 337.0273
v 225.0000 570.4000 328.9057
v 0.0000 570.4000 312.4000
v -207.8729 670.7396 337.0273
v 0.0000 670.7396 321.7780
v -225.0000 570.4000 328.9057
v 0.0000 670.7396 321.7780
v 0.0000 570.4000 312.4000
v -225.0000 570.4000 328.9057
v -360.0464 670.7396 378.6890
v -207.8729 670.7396 337.0273
v -389.7114 570.4000 374.0000
v -207.8729 670.7396 337.0273
v -225.0000 570.4000 328.9057
v -389.7114 570.4000 374.0000
v -415.7458 670.7396 435.6000
v -360.0464 670.7396 378.6890
v -450.0000 570.4000 435.6000
v -360.0464 670.7396 378.6890
v -389.7114 570.4000 374.0000
v -450.0000 570.4000 435.6000
v -389.7114 570.4000 497.2000
v -450.0000 570.4000 435.6000
v -360.0464 470.0604 492.5110
v -450.0000 570.4000 435.6000
v -415.7458 470.0604 435.6000
v -360.0464 470.0604 492.5110
v -225.0000 570.4000 542.2943
v -389.7114 570.4000 497.2000
v -207.8729 470.0604 534.1727
v -389.7114 570.4000 497.2000
v -360.0464 470.0604 492.5110
v -207.8729 470.0604 534.1727
v -0.0000 570.4000 558.8000
v -225.0000 570.4000 542.2943
v -0.0000 470.0604 549.4220
v -225.0000 570.4000 542.2943
v -207.8729 470.0604 534.1727
v -0.0000 470.0604 549.4220
v 225.0000 570.4000 542.2943
v -0.0000 570.4000 558.8000
v 207.8729 470.0604 534.1727
v -0.0000 570.4000 558.8000
v -0.0000 470.0604 549.4220
v 207.8729 470.0604 534.1727
v 389.7114 570.4000 497.2000
v 225.0000 570.4000 542.2943
v 360.0464 470.0604 492.5110
v 225.0000 570.4000 542.2943
v 207.8729 470.0604 534.1727
v 360.0464 470.0604 492.5110
v 450.0000 570.4000 435.6000
v 389.7114 570.4000 497.2000
v 415.7458 470.0604 435.6000
v 389.7114 570.4000 497.2000
v 360.0464 470.0604 492.5110
v 415.7458 470.0604 435.6000
v 389.7114 570.4000 374.0000
v 450.0000 570.4000 435.6000
v 360.0464 470.0604 378.6890
v 450.0000 570.4000 435.6000
v 415.7458 470.0604 435.6000
v 360.0464 470.0604 378.6890
v 225.0000 570.4000 328.9057
v 389.7114 570.4000 374.0000
v 207.8729 470.0604 337.0273
v 389.7114 570.4000 374.0000
v 360.0464 470.0604 378.6890
v 207.8729 470.0604 337.0273
v 0.0000 570.4000 312.4000
v 225.0000 570.4000 328.9057
v 0.0000 470.0604 321.7780
v 225.0000 570.4000 328.9057
v 207.8729 470.0604 337.0273
v 0.0000 470.0604 321.7780
v -225.0000 570.4000 328.9057
v 0.0000 570.4000 312.4000
v -207.8729 470.0604 337.0273
v 0.0000 570.4000 312.4000
v 0.0000 470.0604 321.7780
v -207.8729 470.0604 337.0273
v -389.7114 570.4000 374.0000
v -225.0000 570.4000 328.9057
v -360.0464 470.0604 378.6890
v -225.0000 570.4000 328.9057
v -207.8729 470.0604 337.0273
v -360.0464 470.0604 378.6890
v -450.0000 570.4000 435.6000
v -389.7114 570.4000 374.0000
v -415.7458 470.0604 435.6000
v -389.7114 570.4000 374.0000
v -360.0464 470.0604 378.6890
v -415.7458 470.0604 435.6000
v -360.0464 470.0604 492.5110
v -415.7458 470.0604 435.6000
v -275.5676 384.9966 479.1578
v -415.7458 470.0604 435.6000
v -318.1980 384.9966 435.6000
v -275.5676 384.9966 479.1578
v -207.8729 470.0604 534.1727
v -360.0464 470.0604 492.5110
v -159.0990 384.9966 511.0443
v -360.0464 470.0604 492.5110
v -275.5676 384.9966 479.1578
v -159.0990 384.9966 511.0443
v -0.0000 470.0604 549.4220
v -207.8729 470.0604 534.1727
v -0.0000 384.9966 522.7156
v -207.8729 470.0604 534.1727
v -159.0990 384.9966 511.0443
v -0.0000 384.9966 522.7156
v 207.8729 470.0604 534.1727
v -0.0000 470.0604 549.4220
v 159.0990 384.9966 511.0443
v -0.0000 470.0604 549.4220
v -0.0000 384.9966 522.7156
v 159.0990 384.9966 511.0443
v 360.0464 470.0604 492.5110
v 207.8729 470.0604 534.1727
v 275.5676 384.9966 479.1578
v 207.8729 470.0604 534.1727
v 159.0990 384.9966 511.0443
v 275.5676 384.9966 479.1578
v 415.7458 470.0604 435.6000
v 360.0464 470.0604 492.5110
v 318.1980 384.9966 435.6000
v 360.0464 470.0604 492.5110
v 275.5676 384.9966 479.1578
v 318.1980 384.9966 435.6000
v 360.0464 470.0604 378.6890
v 415.7458 470.0604 435.6000
v 275.5676 384.9966 392.0422
v 415.7458 470.0604 435.6000
v 318.1980 384.9966 435.6000
v 275.5676 384.9966 392.0422
v 207.8729 470.0604 337.0273
v 360.0464 470.0604 378.6890
v 159.0990 384.9966 360.1557
v 360.0464 470.0604 378.6890
v 275.5676 384.9966 392.0422
v 159.0990 384.9966 360.1557
v 0.0000 470.0604 321.7780
v 207.8729 470.0604 337.0273
v 0.0000 384.9966 348.4844
v 207.8729 470.0604 337.0273
v 159.0990 384.9966 360.1557
v 0.0000 384.9966 348.4844
v -207.8729 470.0604 337.0273
v 0.0000 470.0604 321.7780
v -159.0990 384.9966 360.1557
v 0.0000 470.0604 321.7780
v 0.0000 384.9966 348.4844
v -159.0990 384.9966 360.1557
v -360.0464 470.0604 378.6890
v -207.8729 470.0604 337.0273
v -275.5676 384.9966 392.0422
v -207.8729 470.0604 337.0273
v -159.0990 384.9966 360.1557
v -275.5676 384.9966 392.0422
v -415.7458 470.0604 435.6000
v -360.0464 470.0604 378.6890
v -318.1980 384.9966 435.6000
v -360.0464 470.0604 378.6890
v -275.5676 384.9966 392.0422
v -318.1980 384.9966 435.6000
v -275.5676 384.9966 479.1578
v -318.1980 384.9966 435.6000
v -149.1361 328.1588 459.1733
v -318.1980 384.9966 435.6000
v -172.2075 328.1588 435.6000
v -149.1361 328.1588 459.1733
v -159.0990 384.9966 511.0443
v -275.5676 384.9966 479.1578
v -86.1038 328.1588 476.4302
v -275.5676 384.9966 479.1578
v -149.1361 328.1588 459.1733
v -86.1038 328.1588 476.4302
v -0.0000 384.9966 522.7156
v -159.0990 384.9966 511.0443
v -0.0000 328.1588 482.7466
v -159.0990 384.9966 511.0443
v -86.1038 328.1588 476.4302
v -0.0000 328.1588 482.7466
v 159.0990 384.9966 511.0443
v -0.0000 384.9966 522.7156
v 86.1038 328.1588 476.4302
v -0.0000 384.9966 522.7156
v -0.0000 328.1588 482.7466
v 86.1038 328.1588 476.4302
v 275.5676 384.9966 479.1578
v 159.0990 384.9966 511.0443
v 149.1361 328.1588 459.1733
v 159.0990 384.9966 511.0443
v 86.1038 328.1588 476.4302
v 149.1361 328.1588 459.1733
v 318.1980 384.9966 435.6000
v 275.5676 384.9966 479.1578
v 172.2075 328.1588 435.6000
v 275.5676 384.9966 479.1578
v 149.1361 328.1588 459.1733
v 172.2075 328.1588 435.6000
v 275.5676 384.9966 392.0422
v 318.1980 384.9966 435.6000
v 149.1361 328.1588 412.0267
v 318.1980 384.9966 435.6000
v 172.2075 328.1588 435.6000
v 149.1361 328.1588 412.0267
v 159.0990 384.9966 360.1557
v 275.5676 384.9966 392.0422
v 86.1038 328.1588 394.7698
v 275.5676 384.9966 392.0422
v 149.1361 328.1588 412.0267
v 86.1038 328.1588 394.7698
v 0.0000 384.9966 348.4844
v 159.0990 384.9966 360.1557
v 0.0000 328.1588 388.4534
v 159.0990 384.9966 360.1557
v 86.1038 328.1588 394.7698
v 0.0000 328.1588 388.4534
v -159.0990 384.9966 360.1557
v 0.0000 384.9966 348.4844
v -86.1038 328.1588 394.7698
v 0.0000 384.9966 348.4844
v 0.0000 328.1588 388.4534
v -86.1038 328.1588 394.7698
v -275.5676 384.9966 392.0422
v -159.0990 384.9966 360.1557
v -149.1361 328.1588 412.0267
v -159.0990 384.9966 360.1557
v -86.1038 328.1588 394.7698
v -149.1361 328.1588 412.0267
v -318.1980 384.9966 435.6000
v -275.5676 384.9966 392.0422
v -172.2075 328.1588 435.6000
v -275.5676 384.9966 392.0422
v -149.1361 328.1588 412.0267
v -172.2075 328.1588 435.6000
v -149.1361 328.1588 459.1733
v -172.2075 328.1588 435.6000
v -0.0000 308.2000 435.6000
v -86.1038 328.1588 476.4302
v -149.1361 328.1588 459.1733
v -0.0000 308.2000 435.6000
v -0.0000 328.1588 482.7466
v -86.1038 328.1588 476.4302
v -0.0000 308.2000 435.6000
v 86.1038 328.1588 476.4302
v -0.0000 328.1588 482.7466
v 0.0000 308.2000 435.6000
v 149.1361 328.1588 459.1733
v 86.1038 328.1588 476.4302
v 0.0000 308.2000 435.6000
v 172.2075 328.1588 435.6000
v 149.1361 328.1588 459.1733
v 0.0000 308.2000 435.6000
v 149.1361 328.1588 412.0267
v 172.2075 328.1588 435.6000
v 0.0000 308.2000 435.6000
v 86.1038 328.1588 394.7698
v 149.1361 328.1588 412.0267
v 0.0000 308.2000 435.6000
v 0.0000 328.1588 388.4534
v 86.1038 328.1588 394.7698
v 0.0000 308.2000 435.6000
v -86.1038 328.1588 394.7698
v 0.0000 328.1588 388.4534
v -0.0000 308.2000 435.6000
v -149.1361 328.1588 412.0267
v -86.1038 328.1588 394.7698
v -0.0000 308.2000 435.6000
v -172.2075 328.1588 435.6000
v -149.1361 328.1588 412.0267
v -0.0000 308.2000 435.6000
v -627.3000 782.0000 29.0400
v -658.2974 767.9938 29.0400
v -654.1445 767.9938 84.6056
v -627.3000 782.0000 29.0400
v -654.1445 767.9938 84.6056
v -642.7987 767.9938 125.2825
v -627.3000 782.0000 29.0400
v -642.7987 767.9938 125.2825
v -627.3000 767.9938 140.1713
v -627.3000 782.0000 29.0400
v -627.3000 767.9938 140.1713
v -611.8013 767.9938 125.2825
v -627.3000 782.0000 29.0400
v -611.8013 767.9938 125.2825
v -600.4555 767.9938 84.6056
v -627.3000 782.0000 29.0400
v -600.4555 767.9938 84.6056
v -596.3026 767.9938 29.0400
v -627.3000 782.0000 29.0400
v -596.3026 767.9938 29.0400
v -600.4555 767.9938 -26.5256
v -627.3000 782.0000 29.0400
v -600.4555 767.9938 -26.5256
v -611.8013 767.9938 -67.2025
v -627.3000 782.0000 29.0400
v -611.8013 767.9938 -67.2025
v -627.3000 767.9938 -82.0913
v -627.3000 782.0000 29.0400
v -627.3000 767.9938 -82.0913
v -642.7987 767.9938 -67.2025
v -627.3000 782.0000 29.0400
v -642.7987 767.9938 -67.2025
v -654.1445 767.9938 -26.5256
v -627.3000 782.0000 29.0400
v -654.1445 767.9938 -26.5256
v -658.2974 767.9938 29.0400
v -654.1445 767.9938 84.6056
v -658.2974 767.9938 29.0400
v -676.9022 728.1076 131.7119
v -658.2974 767.9938 29.0400
v -684.5756 728.1076 29.0400
v -676.9022 728.1076 131.7119
v -642.7987 767.9938 125.2825
v -654.1445 767.9938 84.6056
v -655.9378 728.1076 206.8730
v -654.1445 767.9938 84.6056
v -676.9022 728.1076 131.7119
v -655.9378 728.1076 206.8730
v -627.3000 767.9938 140.1713
v -642.7987 767.9938 125.2825
v -627.3000 728.1076 234.3838
v -642.7987 767.9938 125.2825
v -655.9378 728.1076 206.8730
v -627.3000 728.1076 234.3838
v -611.8013 767.9938 125.2825
v -627.3000 767.9938 140.1713
v -598.6622 728.1076 206.8730
v -627.3000 767.9938 140.1713
v -627.3000 728.1076 234.3838
v -598.6622 728.1076 206.8730
v -600.4555 767.9938 84.6056
v -611.8013 767.9938 125.2825
v -577.6978 728.1076 131.7119
v -611.8013 767.9938 125.2825
v -598.6622 728.1076 206.8730
v -577.6978 728.1076 131.7119
v -596.3026 767.9938 29.0400
v -600.4555 767.9938 84.6056
v -570.0244 728.1076 29.0400
v -600.4555 767.9938 84.6056
v -577.6978 728.1076 131.7119
v -570.0244 728.1076 29.0400
v -600.4555 767.9938 -26.5256
v -596.3026 767.9938 29.0400
v -577.6978 728.1076 -73.6319
v -596.3026 767.9938 29.0400
v -570.0244 728.1076 29.0400
v -577.6978 728.1076 -73.6319
v -611.8013 767.9938 -67.2025
v -600.4555 767.9938 -26.5256
v -598.6622 728.1076 -148.7930
v -600.4555 767.9938 -26.5256
v -577.6978 728.1076 -73.6319
v -598.6622 728.1076 -148.7930
v -627.3000 767.9938 -82.0913
v -611.8013 767.9938 -67.2025
v -627.3000 728.1076 -176.3038
v -611.8013 767.9938 -67.2025
v -598.6622 728.1076 -148.7930
v -627.3000 728.1076 -176.3038
v -642.7987 767.9938 -67.2025
v -627.3000 767.9938 -82.0913
v -655.9378 728.1076 -148.7930
v -627.3000 767.9938 -82.0913
v -627.3000 728.1076 -176.3038
v -655.9378 728.1076 -148.7930
v -654.1445 767.9938 -26.5256
v -642.7987 767.9938 -67.2025
v -676.9022 728.1076 -73.6319
v -642.7987 767.9938 -67.2025
v -655.9378 728.1076 -148.7930
v -676.9022 728.1076 -73.6319
v -658.2974 767.9938 29.0400
v -654.1445 767.9938 -26.5256
v -684.5756 728.1076 29.0400
v -654.1445 767.9938 -26.5256
v -676.9022 728.1076 -73.6319
v -684.5756 728.1076 29.0400
v -676.9022 728.1076 131.7119
v -684.5756 728.1076 29.0400
v -692.1084 668.4138 163.1873
v -684.5756 728.1076 29.0400
v -702.1342 668.4138 29.0400
v -692.1084 668.4138 163.1873
v -655.9378 728.1076 206.8730
v -676.9022 728.1076 131.7119
v -664.7171 668.4138 261.3899
v -676.9022 728.1076 131.7119
v -692.1084 668.4138 163.1873
v -664.7171 668.4138 261.3899
v -627.3000 728.1076 234.3838
v -655.9378 728.1076 206.8730
v -627.3000 668.4138 297.3346
v -655.9378 728.1076 206.8730
v -664.7171 668.4138 261.3899
v -627.3000 668.4138 297.3346
v -598.6622 728.1076 206.8730
v -627.3000 728.1076 234.3838
v -589.8829 668.4138 261.3899
v -627.3000 728.1076 234.3838
v -627.3000 668.4138 297.3346
v -589.8829 668.4138 261.3899
v -577.6978 728.1076 131.7119
v -598.6622 728.1076 206.8730
v -562.4916 668.4138 163.1873
v -598.6622 728.1076 206.8730
v -589.8829 668.4138 261.3899
v -562.4916 668.4138 163.1873
v -570.0244 728.1076 29.0400
v -577.6978 728.1076 131.7119
v -552.4658 668.4138 29.0400
v -577.6978 728.1076 131.7119
v -562.4916 668.4138 163.1873
v -552.4658 668.4138 29.0400
v -577.6978 728.1076 -73.6319
v -570.0244 728.1076 29.0400
v -562.4916 668.4138 -105.1073
v -570.0244 728.1076 29.0400
v -552.4658 668.4138 29.0400
v -562.4916 668.4138 -105.1073
v -598.6622 728.1076 -148.7930
v -577.6978 728.1076 -73.6319
v -589.8829 668.4138 -203.3099
v -577.6978 728.1076 -73.6319
v -562.4916 668.4138 -105.1073
v -589.8829 668.4138 -203.3099
v -627.3000 728.1076 -176.3038
v -598.6622 728.1076 -148.7930
v -627.3000 668.4138 -239.2546
v -598.6622 728.1076 -148.7930
v -589.8829 668.4138 -203.3099
v -627.3000 668.4138 -239.2546
v -655.9378 728.1076 -148.7930
v -627.3000 728.1076 -176.3038
v -664.7171 668.4138 -203.3099
v -627.3000 728.1076 -176.3038
v -627.3000 668.4138 -239.2546
v -664.7171 668.4138 -203.3099
v -676.9022 728.1076 -73.6319
v -655.9378 728.1076 -148.7930
v -692.1084 668.4138 -105.1073
v -655.9378 728.1076 -148.7930
v -664.7171 668.4138 -203.3099
v -692.1084 668.4138 -105.1073
v -684.5756 728.1076 29.0400
v -676.9022 728.1076 -73.6319
v -702.1342 668.4138 29.0400
v -676.9022 728.1076 -73.6319
v -692.1084 668.4138 -105.1073
v -702.1342 668.4138 29.0400
v -692.1084 668.4138 163.1873
v -702.1342 668.4138 29.0400
v -697.4481 598.0000 174.2400
v -702.1342 668.4138 29.0400
v -708.3000 598.0000 29.0400
v -697.4481 598.0000 174.2400
v -664.7171 668.4138 261.3899
v -692.1084 668.4138 163.1873
v -667.8000 598.0000 280.5338
v -692.1084 668.4138 163.1873
v -697.4481 598.0000 174.2400
v -667.8000 598.0000 280.5338
v -627.3000 668.4138 297.3346
v -664.7171 668.4138 261.3899
v -627.3000 598.0000 319.4400
v -664.7171 668.4138 261.3899
v -667.8000 598.0000 280.5338
v -627.3000 598.0000 319.4400
v -589.8829 668.4138 261.3899
v -627.3000 668.4138 297.3346
v -586.8000 598.0000 280.5338
v -627.3000 668.4138 297.3346
v -627.3000 598.0000 319.4400
v -586.8000 598.0000 280.5338
v -562.4916 668.4138 163.1873
v -589.8829 668.4138 261.3899
v -557.1519 598.0000 174.2400
v -589.8829 668.4138 261.3899
v -586.8000 598.0000 280.5338
v -557.1519 598.0000 174.2400
v -552.4658 668.4138 29.0400
v -562.4916 668.4138 163.1873
v -546.3000 598.0000 29.0400
v -562.4916 668.4138 163.1873
v -557.1519 598.0000 174.2400
v -546.3000 598.0000 29.0400
v -562.4916 668.4138 -105.1073
v -552.4658 668.4138 29.0400
v -557.1519 598.0000 -116.1600
v -552.4658 668.4138 29.0400
v -546.3000 598.0000 29.0400
v -557.1519 598.0000 -116.1600
v -589.8829 668.4138 -203.3099
v -562.4916 668.4138 -105.1073
v -586.8000 598.0000 -222.4538
v -562.4916 668.4138 -105.1073
v -557.1519 598.0000 -116.1600
v -586.8000 598.0000 -222.4538
v -627.3000 668.4138 -239.2546
v -589.8829 668.4138 -203.3099
v -627.3000 598.0000 -261.3600
v -589.8829 668.4138 -203.3099
v -586.8000 598.0000 -222.4538
v -627.3000 598.0000 -261.3600
v -664.7171 668.4138 -203.3099
v -627.3000 668.4138 -239.2546
v -667.8000 598.0000 -222.4538
v -627.3000 668.4138 -239.2546
v -627.3000 598.0000 -261.3600
v -667.8000 598.0000 -222.4538
v -692.1084 668.4138 -105.1073
v -664.7171 668.4138 -203.3099
v -697.4481 598.0000 -116.1600
v -664.7171 668.4138 -203.3099
v -667.8000 598.0000 -222.4538
v -697.4481 598.0000 -116.1600
v -702.1342 668.4138 29.0400
v -692.1084 668.4138 -105.1073
v -708.3000 598.0000 29.0400
v -692.1084 668.4138 -105.1073
v -697.4481 598.0000 -116.1600
v -708.3000 598.0000 29.0400
v -697.4481 598.0000 174.2400
v -708.3000 598.0000 29.0400
v -692.1084 527.5862 163.1873
v -708.3000 598.0000 29.0400
v -702.1342 527.5862 29.0400
v -692.1084 527.5862 163.1873
v -667.8000 598.0000 280.5338
v -697.4481 598.0000 174.2400
v -664.7171 527.5862 261.3899
v -697.4481 598.0000 174.2400
v -692.1084 527.5862 163.1873
v -664.7171 527.5862 261.3899
v -627.3000 598.0000 319.4400
v -667.8000 598.0000 280.5338
v -627.3000 527.5862 297.3346
v -667.8000 598.0000 280.5338
v -664.7171 527.5862 261.3899
v -627.3000 527.5862 297.3346
v -586.8000 598.0000 280.5338
v -627.3000 598.0000 319.4400
v -589.8829 527.5862 261.3899
v -627.3000 598.0000 319.4400
v -627.3000 527.5862 297.3346
v -589.8829 527.5862 261.3899
v -557.1519 598.0000 174.2400
v -586.8000 598.0000 280.5338
v -562.4916 527.5862 163.1873
v -586.8000 598.0000 280.5338
v -589.8829 527.5862 261.3899
v -562.4916 527.5862 163.1873
v -546.3000 598.0000 29.0400
v -557.1519 598.0000 174.2400
v -552.4658 527.5862 29.0400
v -557.1519 598.0000 174.2400
v -562.4916 527.5862 163.1873
v -552.4658 527.5862 29.0400
v -557.1519 598.0000 -116.1600
v -546.3000 598.0000 29.0400
v -562.4916 527.5862 -105.1073
v -546.3000 598.0000 29.0400
v -552.4658 527.5862 29.0400
v -562.4916 527.5862 -105.1073
v -586.8000 598.0000 -222.4538
v -557.1519 598.0000 -116.1600
v -589.8829 527.5862 -203.3099
v -557.1519 598.0000 -116.1600
v -562.4916 527.5862 -105.1073
v -589.8829 527.5862 -203.3099
v -627.3000 598.0000 -261.3600
v -586.8000 598.0000 -222.4538
v -627.3000 527.5862 -239.2546
v -586.8000 598.0000 -222.4538
v -589.8829 527.5862 -203.3099
v -627.3000 527.5862 -239.2546
v -667.8000 598.0000 -222.4538
v -627.3000 598.0000 -261.3600
v -664.7171 527.5862 -203.3099
v -627.3000 598.0000 -261.3600
v -627.3000 527.5862 -239.2546
v -664.7171 527.5862 -203.3099
v -697.4481 598.0000 -116.1600
v -667.8000 598.0000 -222.4538
v -692.1084 527.5862 -105.1073
v -667.8000 598.0000 -222.4538
v -664.7171 527.5862 -203.3099
v -692.1084 527.5862 -105.1073
v -708.3000 598.0000 29.0400
v -697.4481 598.0000 -116.1600
v -702.1342 527.5862 29.0400
v -697.4481 598.0000 -116.1600
v -692.1084 527.5862 -105.1073
v -702.1342 527.5862 29.0400
v -692.1084 527.5862 163.1873
v -702.1342 527.5862 29.0400
v -676.9022 467.8924 131.7119
v -702.1342 527.5862 29.0400
v -684.5756 467.8924 29.0400
v -676.9022 467.8924 131.7119
v -664.7171 527.5862 261.3899
v -692.1084 527.5862 163.1873
v -655.9378 467.8924 206.8730
v -692.1084 527.5862 163.1873
v -676.9022 467.8924 131.7119
v -655.9378 467.8924 206.8730
v -627.3000 527.5862 297.3346
v -664.7171 527.5862 261.3899
v -627.3000 467.8924 234.3838
v -664.7171 527.5862 261.3899
v -655.9378 467.8924 206.8730
v -627.3000 467.8924 234.3838
v -589.8829 527.5862 261.3899
v -627.3000 527.5862 297.3346
v -598.6622 467.8924 206.8730
v -627.3000 527.5862 297.3346
v -627.3000 467.8924 234.3838
v -598.6622 467.8924 206.8730
v -562.4916 527.5862 163.1873
v -589.8829 527.5862 261.3899
v -577.6978 467.8924 131.7119
v -589.8829 527.5862 261.3899
v -598.6622 467.8924 206.8730
v -577.6978 467.8924 131.7119
v -552.4658 527.5862 29.0400
v -562.4916 527.5862 163.1873
v -570.0244 467.8924 29.0400
v -562.4916 527.5862 163.1873
v -577.6978 467.8924 131.7119
v -570.0244 467.8924 29.0400
v -562.4916 527.5862 -105.1073
v -552.4658 527.5862 29.0400
v -577.6978 467.8924 -73.6319
v -552.4658 527.5862 29.0400
v -570.0244 467.8924 29.0400
v -577.6978 467.8924 -73.6319
v -589.8829 527.5862 -203.3099
v -562.4916 527.5862 -105.1073
v -598.6622 467.8924 -148.7930
v -562.4916 527.5862 -105.1073
v -577.6978 467.8924 -73.6319
v -598.6622 467.8924 -148.7930
v -627.3000 527.5862 -239.2546
v -589.8829 527.5862 -203.3099
v -627.3000 467.8924 -176.3038
v -589.8829 527.5862 -203.3099
v -598.6622 467.8924 -148.7930
v -627.3000 467.8924 -176.3038
v -664.7171 527.5862 -203.3099
v -627.3000 527.5862 -239.2546
v -655.9378 467.8924 -148.7930
v -627.3000 527.5862 -239.2546
v -627.3000 467.8924 -176.3038
v -655.9378 467.8924 -148.7930
v -692.1084 527.5862 -105.1073
v -664.7171 527.5862 -203.3099
v -676.9022 467.8924 -73.6319
v -664.7171 527.5862 -203.3099
v -655.9378 467.8924 -148.7930
v -676.9022 467.8924 -73.6319
v -702.1342 527.5862 29.0400
v -692.1084 527.5862 -105.1073
v -684.5756 467.8924 29.0400
v -692.1084 527.5862 -105.1073
v -676.9022 467.8924 -73.6319
v -684.5756 467.8924 29.0400
v -676.9022 467.8924 131.7119
v -684.5756 467.8924 29.0400
v -654.1445 428.0062 84.6056
v -684.5756 467.8924 29.0400
v -658.2974 428.0062 29.0400
v -654.1445 428.0062 84.6056
v -655.9378 467.8924 206.8730
v -676.9022 467.8924 131.7119
v -642.7987 428.0062 125.2825
v -676.9022 467.8924 131.7119
v -654.1445 428.0062 84.6056
v -642.7987 428.0062 125.2825
v -627.3000 467.8924 234.3838
v -655.9378 467.8924 206.8730
v -627.3000 428.0062 140.1713
v -655.9378 467.8924 206.8730
v -642.7987 428.0062 125.2825
v -627.3000 428.0062 140.1713
v -598.6622 467.8924 206.8730
v -627.3000 467.8924 234.3838
v -611.8013 428.0062 125.2825
v -627.3000 467.8924 234.3838
v -627.3000 428.0062 140.1713
v -611.8013 428.0062 125.2825
v -577.6978 467.8924 131.7119
v -598.6622 467.8924 206.8730
v -600.4555 428.0062 84.6056
v -598.6622 467.8924 206.8730
v -611.8013 428.0062 125.2825
v -600.4555 428.0062 84.6056
v -570.0244 467.8924 29.0400
v -577.6978 467.8924 131.7119
v -596.3026 428.0062 29.0400
v -577.6978 467.8924 131.7119
v -600.4555 428.0062 84.6056
v -596.3026 428.0062 29.0400
v -577.6978 467.8924 -73.6319
v -570.0244 467.8924 29.0400
v -600.4555 428.0062 -26.5256
v -570.0244 467.8924 29.0400
v -596.3026 428.0062 29.0400
v -600.4555 428.0062 -26.5256
v -598.6622 467.8924 -148.7930
v -577.6978 467.8924 -73.6319
v -611.8013 428.0062 -67.2025
v -577.6978 467.8924 -73.6319
v -600.4555 428.0062 -26.5256
v -611.8013 428.0062 -67.2025
v -627.3000 467.8924 -176.3038
v -598.6622 467.8924 -148.7930
v -627.3000 428.0062 -82.0913
v -598.6622 467.8924 -148.7930
v -611.8013 428.0062 -67.2025
v -627.3000 428.0062 -82.0913
v -655.9378 467.8924 -148.7930
v -627.3000 467.8924 -176.3038
v -642.7987 428.0062 -67.2025
v -627.3000 467.8924 -176.3038
v -627.3000 428.0062 -82.0913
v -642.7987 428.0062 -67.2025
v -676.9022 467.8924 -73.6319
v -655.9378 467.8924 -148.7930
v -654.1445 428.0062 -26.5256
v -655.9378 467.8924 -148.7930
v -642.7987 428.0062 -67.2025
v -654.1445 428.0062 -26.5256
v -684.5756 467.8924 29.0400
v -676.9022 467.8924 -73.6319
v -658.2974 428.0062 29.0400
v -676.9022 467.8924 -73.6319
v -654.1445 428.0062 -26.5256
v -658.2974 428.0062 29.0400
v -654.1445 428.0062 84.6056
v -658.2974 428.0062 29.0400
v -627.3000 414.0000 29.0400
v -642.7987 428.0062 125.2825
v -654.1445 428.0062 84.6056
v -627.3000 414.0000 29.0400
v -627.3000 428.0062 140.1713
v -642.7987 428.0062 125.2825
v -627.3000 414.0000 29.0400
v -611.8013 428.0062 125.2825
v -627.3000 428.0062 140.1713
v -627.3000 414.0000 29.0400
v -600.4555 428.0062 84.6056
v -611.8013 428.0062 125.2825
v -627.3000 414.0000 29.0400
v -596.3026 428.0062 29.0400
v -600.4555 428.0062 84.6056
v -627.3000 414.0000 29.0400
v -600.4555 428.0062 -26.5256
v -596.3026 428.0062 29.0400
v -627.3000 414.0000 29.0400
v -611.8013 428.0062 -67.2025
v -600.4555 428.0062 -26.5256
v -627.3000 414.0000 29.0400
v -627.3000 428.0062 -82.0913
v -611.8013 428.0062 -67.2025
v -627.3000 414.0000 29.0400
v -642.7987 428.0062 -67.2025
v -627.3000 428.0062 -82.0913
v -627.3000 414.0000 29.0400
v -654.1445 428.0062 -26.5256
v -642.7987 428.0062 -67.2025
v -627.3000 414.0000 29.0400
v -658.2974 428.0062 29.0400
v -654.1445 428.0062 -26.5256
v -627.3000 414.0000 29.0400
v 627.3000 947.6000 29.0400
v 596.3026 933.5938 29.0400
v 600.4555 933.5938 84.6056
v 627.3000 947.6000 29.0400
v 600.4555 933.5938 84.6056
v 611.8013 933.5938 125.2825
v 627.3000 947.6000 29.0400
v 611.8013 933.5938 125.2825
v 627.3000 933.5938 140.1713
v 627.3000 947.6000 29.0400
v 627.3000 933.5938 140.1713
v 642.7987 933.5938 125.2825
v 627.3000 947.6000 29.0400
v 642.7987 933.5938 125.2825
v 654.1445 933.5938 84.6056
v 627.3000 947.6000 29.0400
v 654.1445 933.5938 84.6056
v 658.2974 933.5938 29.0400
v 627.3000 947.6000 29.0400
v 658.2974 933.5938 29.0400
v 654.1445 933.5938 -26.5256
v 627.3000 947.6000 29.0400
v 654.1445 933.5938 -26.5256
v 642.7987 933.5938 -67.2025
v 627.3000 947.6000 29.0400
v 642.7987 933.5938 -67.2025
v 627.3000 933.5938 -82.0913
v 627.3000 947.6000 29.0400
v 627.3000 933.5938 -82.0913
v 611.8013 933.5938 -67.2025
v 627.3000 947.6000 29.0400
v 611.8013 933.5938 -67.2025
v 600.4555 933.5938 -26.5256
v 627.3000 947.6000 29.0400
v 600.4555 933.5938 -26.5256
v 596.3026 933.5938 29.0400
v 600.4555 933.5938 84.6056
v 596.3026 933.5938 29.0400
v 577.6978 893.7076 131.7119
v 596.3026 933.5938 29.0400
v 570.0244 893.7076 29.0400
v 577.6978 893.7076 131.7119
v 611.8013 933.5938 125.2825
v 600.4555 933.5938 84.6056
v 598.6622 893.7076 206.8730
v 600.4555 933.5938 84.6056
v 577.6978 893.7076 131.7119
v 598.6622 893.7076 206.8730
v 627.3000 933.5938 140.1713
v 611.8013 933.5938 125.2825
v 627.3000 893.7076 234.3838
v 611.8013 933.5938 125.2825
v 598.6622 893.7076 206.8730
v 627.3000 893.7076 234.3838
v 642.7987 933.5938 125.2825
v 627.3000 933.5938 140.1713
v 655.9378 893.7076 206.8730
v 627.3000 933.5938 140.1713
v 627.3000 893.7076 234.3838
v 655.9378 893.7076 206.8730
v 654.1445 933.5938 84.6056
v 642.7987 933.5938 125.2825
v 676.9022 893.7076 131.7119
v 642.7987 933.5938 125.2825
v 655.9378 893.7076 206.8730
v 676.9022 893.7076 131.7119
v 658.2974 933.5938 29.0400
v 654.1445 933.5938 84.6056
v 684.5756 893.7076 29.0400
v 654.1445 933.5938 84.6056
v 676.9022 893.7076 131.7119
v 684.5756 893.7076 29.0400
v 654.1445 933.5938 -26.5256
v 658.2974 933.5938 29.0400
v 676.9022 893.7076 -73.6319
v 658.2974 933.5938 29.0400
v 684.5756 893.7076 29.0400
v 676.9022 893.7076 -73.6319
v 642.7987 933.5938 -67.2025
v 654.1445 933.5938 -26.5256
v 655.9378 893.7076 -148.7930
v 654.1445 933.5938 -26.5256
v 676.9022 893.7076 -73.6319
v 655.9378 893.7076 -148.7930
v 627.3000 933.5938 -82.0913
v 642.7987 933.5938 -67.2025
v 627.3000 893.7076 -176.3038
v 642.7987 933.5938 -67.2025
v 655.9378 893.7076 -148.7930
v 627.3000 893.7076 -176.3038
v 611.8013 933.5938 -67.2025
v 627.3000 933.5938 -82.0913
v 598.6622 893.7076 -148.7930
v 627.3000 933.5938 -82.0913
v 627.3000 893.7076 -176.3038
v 598.6622 893.7076 -148.7930
v 600.4555 933.5938 -26.5256
v 611.8013 933.5938 -67.2025
v 577.6978 893.7076 -73.6319
v 611.8013 933.5938 -67.2025
v 598.6622 893.7076 -148.7930
v 577.6978 893.7076 -73.6319
v 596.3026 933.5938 29.0400
v 600.4555 933.5938 -26.5256
v 570.0244 893.7076 29.0400
v 600.4555 933.5938 -26.5256
v 577.6978 893.7076 -73.6319
v 570.0244 893.7076 29.0400
v 577.6978 893.7076 131.7119
v 570.0244 893.7076 29.0400
v 562.4916 834.0138 163.1873
v 570.0244 893.7076 29.0400
v 552.4658 834.0138 29.0400
v 562.4916 834.0138 163.1873
v 598.6622 893.7076 206.8730
v 577.6978 893.7076 131.7119
v 589.8829 834.0138 261.3899
v 577.6978 893.7076 131.7119
v 562.4916 834.0138 163.1873
v 589.8829 834.0138 261.3899
v 627.3000 893.7076 234.3838
v 598.6622 893.7076 206.8730
v 627.3000 834.0138 297.3346
v 598.6622 893.7076 206.8730
v 589.8829 834.0138 261.3899
v 627.3000 834.0138 297.3346
v 655.9378 893.7076 206.8730
v 627.3000 893.7076 234.3838
v 664.7171 834.0138 261.3899
v 627.3000 893.7076 234.3838
v 627.3000 834.0138 297.3346
v 664.7171 834.0138 261.3899
v 676.9022 893.7076 131.7119
v 655.9378 893.7076 206.8730
v 692.1084 834.0138 163.1873
v 655.9378 893.7076 206.8730
v 664.7171 834.0138 261.3899
v 692.1084 834.0138 163.1873
v 684.5756 893.7076 29.0400
v 676.9022 893.7076 131.7119
v 702.1342 834.0138 29.0400
v 676.9022 893.7076 131.7119
v 692.1084 834.0138 163.1873
v 702.1342 834.0138 29.0400
v 676.9022 893.7076 -73.6319
v 684.5756 893.7076 29.0400
v 692.1084 834.0138 -105.1073
v 684.5756 893.7076 29.0400
v 702.1342 834.0138 29.0400
v 692.1084 834.0138 -105.1073
v 655.9378 893.7076 -148.7930
v 676.9022 893.7076 -73.6319
v 664.7171 834.0138 -203.3099
v 676.9022 893.7076 -73.6319
v 692.1084 834.0138 -105.1073
v 664.7171 834.0138 -203.3099
v 627.3000 893.7076 -176.3038
v 655.9378 893.7076 -148.7930
v 627.3000 834.0138 -239.2546
v 655.9378 893.7076 -148.7930
v 664.7171 834.0138 -203.3099
v 627.3000 834.0138 -239.2546
v 598.6622 893.7076 -148.7930
v 627.3000 893.7076 -176.3038
v 589.8829 834.0138 -203.3099
v 627.3000 893.7076 -176.3038
v 627.3000 834.0138 -239.2546
v 589.8829 834.0138 -203.3099
v 577.6978 893.7076 -73.6319
v 598.6622 893.7076 -148.7930
v 562.4916 834.0138 -105.1073
v 598.6622 893.7076 -148.7930
v 589.8829 834.0138 -203.3099
v 562.4916 834.0138 -105.1073
v 570.0244 893.7076 29.0400
v 577.6978 893.7076 -73.6319
v 552.4658 834.0138 29.0400
v 577.6978 893.7076 -73.6319
v 562.4916 834.0138 -105.1073
v 552.4658 834.0138 29.0400
v 562.4916 834.0138 163.1873
v 552.4658 834.0138 29.0400
v 557.1519 763.6000 174.2400
v 552.4658 834.0138 29.0400
v 546.3000 763.6000 29.0400
v 557.1519 763.6000 174.2400
v 589.8829 834.0138 261.3899
v 562.4916 834.0138 163.1873
v 586.8000 763.6000 280.5338
v 562.4916 834.0138 163.1873
v 557.1519 763.6000 174.2400
v 586.8000 763.6000 280.5338
v 627.3000 834.0138 297.3346
v 589.8829 834.0138 261.3899
v 627.3000 763.6000 319.4400
v 589.8829 834.0138 261.3899
v 586.8000 763.6000 280.5338
v 627.3000 763.6000 319.4400
v 664.7171 834.0138 261.3899
v 627.3000 834.0138 297.3346
v 667.8000 763.6000 280.5338
v 627.3000 834.0138 297.3346
v 627.3000 763.6000 319.4400
v 667.8000 763.6000 280.5338
v 692.1084 834.0138 163.1873
v 664.7171 834.0138 261.3899
v 697.4481 763.6000 174.2400
v 664.7171 834.0138 261.3899
v 667.8000 763.6000 280.5338
v 697.4481 763.6000 174.2400
v 702.1342 834.0138 29.0400
v 692.1084 834.0138 163.1873
v 708.3000 763.6000 29.0400
v 692.1084 834.0138 163.1873
v 697.4481 763.6000 174.2400
v 708.3000 763.6000 29.0400
v 692.1084 834.0138 -105.1073
v 702.1342 834.0138 29.0400
v 697.4481 763.6000 -116.1600
v 702.1342 834.0138 29.0400
v 708.3000 763.6000 29.0400
v 697.4481 763.6000 -116.1600
v 664.7171 834.0138 -203.3099
v 692.1084 834.0138 -105.1073
v 667.8000 763.6000 -222.4538
v 692.1084 834.0138 -105.1073
v 697.4481 763.6000 -116.1600
v 667.8000 763.6000 -222.4538
v 627.3000 834.0138 -239.2546
v 664.7171 834.0138 -203.3099
v 627.3000 763.6000 -261.3600
v 664.7171 834.0138 -203.3099
v 667.8000 763.6000 -222.4538
v 627.3000 763.6000 -261.3600
v 589.8829 834.0138 -203.3099
v 627.3000 834.0138 -239.2546
v 586.8000 763.6000 -222.4538
v 627.3000 834.0138 -239.2546
v 627.3000 763.6000 -261.3600
v 586.8000 763.6000 -222.4538
v 562.4916 834.0138 -105.1073
v 589.8829 834.0138 -203.3099
v 557.1519 763.6000 -116.1600
v 589.8829 834.0138 -203.3099
v 586.8000 763.6000 -222.4538
v 557.1519 763.6000 -116.1600
v 552.4658 834.0138 29.0400
v 562.4916 834.0138 -105.1073
v 546.3000 763.6000 29.0400
v 562.4916 834.0138 -105.1073
v 557.1519 763.6000 -116.1600
v 546.3000 763.6000 29.0400
v 557.1519 763.6000 174.2400
v 546.3000 763.6000 29.0400
v 562.4916 693.1862 163.1873
v 546.3000 763.6000 29.0400
v 552.4658 693.1862 29.0400
v 562.4916 693.1862 163.1873
v 586.8000 763.6000 280.5338
v 557.1519 763.6000 174.2400
v 589.8829 693.1862 261.3899
v 557.1519 763.6000 174.2400
v 562.4916 693.1862 163.1873
v 589.8829 693.1862 261.3899
v 627.3000 763.6000 319.4400
v 586.8000 763.6000 280.5338
v 627.3000 693.1862 297.3346
v 586.8000 763.6000 280.5338
v 589.8829 693.1862 261.3899
v 627.3000 693.1862 297.3346
v 667.8000 763.6000 280.5338
v 627.3000 763.6000 319.4400
v 664.7171 693.1862 261.3899
v 627.3000 763.6000 319.4400
v 627.3000 693.1862 297.3346
v 664.7171 693.1862 261.3899
v 697.4481 763.6000 174.2400
v 667.8000 763.6000 280.5338
v 692.1084 693.1862 163.1873
v 667.8000 763.6000 280.5338
v 664.7171 693.1862 261.3899
v 692.1084 693.1862 163.1873
v 708.3000 763.6000 29.0400
v 697.4481 763.6000 174.2400
v 702.1342 693.1862 29.0400
v 697.4481 763.6000 174.2400
v 692.1084 693.1862 163.1873
v 702.1342 693.1862 29.0400
v 697.4481 763.6000 -116.1600
v 708.3000 763.6000 29.0400
v 692.1084 693.1862 -105.1073
v 708.3000 763.6000 29.0400
v 702.1342 693.1862 29.0400
v 692.1084 693.1862 -105.1073
v 667.8000 763.6000 -222.4538
v 697.4481 763.6000 -116.1600
v 664.7171 693.1862 -203.3099
v 697.4481 763.6000 -116.1600
v 692.1084 693.1862 -105.1073
v 664.7171 693.1862 -203.3099
v 627.3000 763.6000 -261.3600
v 667.8000 763.6000 -222.4538
v 627.3000 693.1862 -239.2546
v 667.8000 763.6000 -222.4538
v 664.7171 693.1862 -203.3099
v 627.3000 693.1862 -239.2546
v 586.8000 763.6000 -222.4538
v 627.3000 763.6000 -261.3600
v 589.8829 693.1862 -203.3099
v 627.3000 763.6000 -261.3600
v 627.3000 693.1862 -239.2546
v 589.8829 693.1862 -203.3099
v 557.1519 763.6000 -116.1600
v 586.8000 763.6000 -222.4538
v 562.4916 693.1862 -105.1073
v 586.8000 763.6000 -222.4538
v 589.8829 693.1862 -203.3099
v 562.4916 693.1862 -105.1073
v 546.3000 763.6000 29.0400
v 557.1519 763.6000 -116.1600
v 552.4658 693.1862 29.0400
v 557.1519 763.6000 -116.1600
v 562.4916 693.1862 -105.1073
v 552.4658 693.1862 29.0400
v 562.4916 693.1862 163.1873
v 552.4658 693.1862 29.0400
v 577.6978 633.4924 131.7119
v 552.4658 693.1862 29.0400
v 570.0244 633.4924 29.0400
v 577.6978 633.4924 131.7119
v 589.8829 693.1862 261.3899
v 562.4916 693.1862 163.1873
v 598.6622 633.4924 206.8730
v 562.4916 693.1862 163.1873
v 577.6978 633.4924 131.7119
v 598.6622 633.4924 206.8730
v 627.3000 693.1862 297.3346
v 589.8829 693.1862 261.3899
v 627.3000 633.4924 234.3838
v 589.8829 693.1862 261.3899
v 598.6622 633.4924 206.8730
v 627.3000 633.4924 234.3838
v 664.7171 693.1862 261.3899
v 627.3000 693.1862 297.3346
v 655.9378 633.4924 206.8730
v 627.3000 693.1862 297.3346
v 627.3000 633.4924 234.3838
v 655.9378 633.4924 206.8730
v 692.1084 693.1862 163.1873
v 664.7171 693.1862 261.3899
v 676.9022 633.4924 131.7119
v 664.7171 693.1862 261.3899
v 655.9378 633.4924 206.8730
v 676.9022 633.4924 131.7119
v 702.1342 693.1862 29.0400
v 692.1084 693.1862 163.1873
v 684.5756 633.4924 29.0400
v 692.1084 693.1862 163.1873
v 676.9022 633.4924 131.7119
v 684.5756 633.4924 29.0400
v 692.1084 693.1862 -105.1073
v 702.1342 693.1862 29.0400
v 676.9022 633.4924 -73.6319
v 702.1342 693.1862 29.0400
v 684.5756 633.4924 29.0400
v 676.9022 633.4924 -73.6319
v 664.7171 693.1862 -203.3099
v 692.1084 693.1862 -105.1073
v 655.9378 633.4924 -148.7930
v 692.1084 693.1862 -105.1073
v 676.9022 633.4924 -73.6319
v 655.9378 633.4924 -148.7930
v 627.3000 693.1862 -239.2546
v 664.7171 693.1862 -203.3099
v 627.3000 633.4924 -176.3038
v 664.7171 693.1862 -203.3099
v 655.9378 633.4924 -148.7930
v 627.3000 633.4924 -176.3038
v 589.8829 693.1862 -203.3099
v 627.3000 693.1862 -239.2546
v 598.6622 633.4924 -148.7930
v 627.3000 693.1862 -239.2546
v 627.3000 633.4924 -176.3038
v 598.6622 633.4924 -148.7930
v 562.4916 693.1862 -105.1073
v 589.8829 693.1862 -203.3099
v 577.6978 633.4924 -73.6319
v 589.8829 693.1862 -203.3099
v 598.6622 633.4924 -148.7930
v 577.6978 633.4924 -73.6319
v 552.4658 693.1862 29.0400
v 562.4916 693.1862 -105.1073
v 570.0244 633.4924 29.0400
v 562.4916 693.1862 -105.1073
v 577.6978 633.4924 -73.6319
v 570.0244 633.4924 29.0400
v 577.6978 633.4924 131.7119
v 570.0244 633.4924 29.0400
v 600.4555 593.6062 84.6056
v 570.0244 633.4924 29.0400
v 596.3026 593.6062 29.0400
v 600.4555 593.6062 84.6056
v 598.6622 633.4924 206.8730
v 577.6978 633.4924 131.7119
v 611.8013 593.6062 125.2825
v 577.6978 633.4924 131.7119
v 600.4555 593.6062 84.6056
v 611.8013 593.6062 125.2825
v 627.3000 633.4924 234.3838
v 598.6622 633.4924 206.8730
v 627.3000 593.6062 140.1713
v 598.6622 633.4924 206.8730
v 611.8013 593.6062 125.2825
v 627.3000 593.6062 140.1713
v 655.9378 633.4924 206.8730
v 627.3000 633.4924 234.3838
v 642.7987 593.6062 125.2825
v 627.3000 633.4924 234.3838
v 627.3000 593.6062 140.1713
v 642.7987 593.6062 125.2825
v 676.9022 633.4924 131.7119
v 655.9378 633.4924 206.8730
v 654.1445 593.6062 84.6056
v 655.9378 633.4924 206.8730
v 642.7987 593.6062 125.2825
v 654.1445 593.6062 84.6056
v 684.5756 633.4924 29.0400
v 676.9022 633.4924 131.7119
v 658.2974 593.6062 29.0400
v 676.9022 633.4924 131.7119
v 654.1445 593.6062 84.6056
v 658.2974 593.6062 29.0400
v 676.9022 633.4924 -73.6319
v 684.5756 633.4924 29.0400
v 654.1445 593.6062 -26.5256
v 684.5756 633.4924 29.0400
v 658.2974 593.6062 29.0400
v 654.1445 593.6062 -26.5256
v 655.9378 633.4924 -148.7930
v 676.9022 633.4924 -73.6319
v 642.7987 593.6062 -67.2025
v 676.9022 633.4924 -73.6319
v 654.1445 593.6062 -26.5256
v 642.7987 593.6062 -67.2025
v 627.3000 633.4924 -176.3038
v 655.9378 633.4924 -148.7930
v 627.3000 593.6062 -82.0913
v 655.9378 633.4924 -148.7930
v 642.7987 593.6062 -67.2025
v 627.3000 593.6062 -82.0913
v 598.6622 633.4924 -148.7930
v 627.3000 633.4924 -176.3038
v 611.8013 593.6062 -67.2025
v 627.3000 633.4924 -176.3038
v 627.3000 593.6062 -82.0913
v 611.8013 593.6062 -67.2025
v 577.6978 633.4924 -73.6319
v 598.6622 633.4924 -148.7930
v 600.4555 593.6062 -26.5256
v 598.6622 633.4924 -148.7930
v 611.8013 593.6062 -67.2025
v 600.4555 593.6062 -26.5256
v 570.0244 633.4924 29.0400
v 577.6978 633.4924 -73.6319
v 596.3026 593.6062 29.0400
v 577.6978 633.4924 -73.6319
v 600.4555 593.6062 -26.5256
v 596.3026 593.6062 29.0400
v 600.4555 593.6062 84.6056
v 596.3026 593.6062 29.0400
v 627.3000 579.6000 29.0400
v 611.8013 593.6062 125.2825
v 600.4555 593.6062 84.6056
v 627.3000 579.6000 29.0400
v 627.3000 593.6062 140.1713
v 611.8013 593.6062 125.2825
v 627.3000 579.6000 29.0400
v 642.7987 593.6062 125.2825
v 627.3000 593.6062 140.1713
v 627.3000 579.6000 29.0400
v 654.1445 593.6062 84.6056
v 642.7987 593.6062 125.2825
v 627.3000 579.6000 29.0400
v 658.2974 593.6062 29.0400
v 654.1445 593.6062 84.6056
v 627.3000 579.6000 29.0400
v 654.1445 593.6062 -26.5256
v 658.2974 593.6062 29.0400
v 627.3000 579.6000 29.0400
v 642.7987 593.6062 -67.2025
v 654.1445 593.6062 -26.5256
v 627.3000 579.6000 29.0400
v 627.3000 593.6062 -82.0913
v 642.7987 593.6062 -67.2025
v 627.3000 579.6000 29.0400
v 611.8013 593.6062 -67.2025
v 627.3000 593.6062 -82.0913
v 627.3000 579.6000 29.0400
v 600.4555 593.6062 -26.5256
v 611.8013 593.6062 -67.2025
v 627.3000 579.6000 29.0400
v 596.3026 593.6062 29.0400
v 600.4555 593.6062 -26.5256
v 627.3000 579.6000 29.0400
f 1 2 3
f 4 5 6
f 7 8 9
f 10 11 12
f 13 14 15
f 16 17 18
f 19 20 21
f 22 23 24
f 25 26 27
f 28 29 30
f 31 32 33
f 34 35 36
f 37 38 39
f 40 41 42
f 43 44 45
f 46 47 48
f 49 50 51
f 52 53 54
f 55 56 57
f 58 59 60
f 61 62 63
f 64 65 66
f 67 68 69
f 70 71 72
f 73 74 75
f 76 77 78
f 79 80 81
f 82 83 84
f 85 86 87
f 88 89 90
f 91 92 93
f 94 95 96
f 97 98 99
f 100 101 102
f 103 104 105
f 106 107 108
f 109 110 111
f 112 113 114
f 115 116 117
f 118 119 120
f 121 122 123
f 124 125 126
f 127 128 129
f 130 131 132
f 133 134 135
f 136 137 138
f 139 140 141
f 142 143 144
f 145 146 147
f 148 149 150
f 151 152 153
f 154 155 156
f 157 158 159
f 160 161 162
f 163 164 165
f 166 167 168
f 169 170 171
f 172 173 174
f 175 176 177
f 178 179 180
f 181 182 183
f 184 185 186
f 187 188 189
f 190 191 192
f 193 194 195
f 196 197 198
f 199 200 201
f 202 203 204
f 205 206 207
f 208 209 210
f 211 212 213
f 214 215 216
f 217 218 219
f 220 221 222
f 223 224 225
f 226 227 228
f 229 230 231
f 232 233 234
f 235 236 237
f 238 239 240
f 241 242 243
f 244 245 246
f 247 248 249
f 250 251 252
f 253 254 255
f 256 257 258
f 259 260 261
f 262 263 264
f 265 266 267
f 268 269 270
f 271 272 273
f 274 275 276
f 277 278 279
f 280 281 282
f 283 284 285
f 286 287 288
f 289 290 291
f 292 293 294
f 295 296 297
f 298 299 300
f 301 302 303
f 304 305 306
f 307 308 309
f 310 311 312
f 313 314 315
f 316 317 318
f 319 320 321
f 322 323 324
f 325 326 327
f 328 329 330
f 331 332 333
f 334 335 336
f 337 338 339
f 340 341 342
f 343 344 345
f 346 347 348
f 349 350 351
f 352 353 354
f 355 356 357
f 358 359 360
f 361 362 363
f 364 365 366
f 367 368 369
f 370 371 372
f 373 374 375
f 376 377 378
f 379 380 381
f 382 383 384
f 385 386 387
f 388 389 390
f 391 392 393
f 394 395 396
f 397 398 399
f 400 401 402
f 403 404 405
f 406 407 408
f 409 410 411
f 412 413 414
f 415 416 417
f 418 419 420
f 421 422 423
f 424 425 426
f 427 428 429
f 430 431 432
f 433 434 435
f 436 437 438
f 439 440 441
f 442 443 444
f 445 446 447
f 448 449 450
f 451 452 453
f 454 455 456
f 457 458 459
f 460 461 462
f 463 464 465
f 466 467 468
f 469 470 471
f 472 473 474
f 475 476 477
f 478 479 480
f 481 482 483
f 484 485 486
f 487 488 489
f 490 491 492
f 493 494 495
f 496 497 498
f 499 500 501
f 502 503 504
f 505 506 507
f 508 509 510
f 511 512 513
f 514 515 516
f 517 518 519
f 520 521 522
f 523 524 525
f 526 527 528
f 529 530 531
f 532 533 534
f 535 536 537
f 538 539 540
f 541 542 543
f 544 545 546
f 547 548 549
f 550 551 552
f 553 554 555
f 556 557 558
f 559 560 561
f 562 563 564
f 565 566 567
f 568 569 570
f 571 572 573
f 574 575 576
f 577 578 579
f 580 581 582
f 583 584 585
f 586 587 588
f 589 590 591
f 592 593 594
f 595 596 597
f 598 599 600
f 601 602 603
f 604 605 606
f 607 608 609
f 610 611 612
f 613 614 615
f 616 617 618
f 619 620 621
f 622 623 624
f 625 626 627
f 628 629 630
f 631 632 633
f 634 635 636
f 637 638 639
f 640 641 642
f 643 644 645
f 646 647 648
f 649 650 651
f 652 653 654
f 655 656 657
f 658 659 660
f 661 662 663
f 664 665 666
f 667 668 669
f 670 671 672
f 673 674 675
f 676 677 678
f 679 680 681
f 682 683 684
f 685 686 687
f 688 689 690
f 691 692 693
f 694 695 696
f 697 698 699
f 700 701 702
f 703 704 705
f 706 707 708
f 709 710 711
f 712 713 714
f 715 716 717
f 718 719 720
f 721 722 723
f 724 725 726
f 727 728 729
f 730 731 732
f 733 734 735
f 736 737 738
f 739 740 741
f 742 743 744
f 745 746 747
f 748 749 750
f 751 752 753
f 754 755 756
f 757 758 759
f 760 761 762
f 763 764 765
f 766 767 768
f 769 770 771
f 772 773 774
f 775 776 777
f 778 779 780
f 781 782 783
f 784 785 786
f 787 788 789
f 790 791 792
f 793 794 795
f 796 797 798
f 799 800 801
f 802 803 804
f 805 806 807
f 808 809 810
f 811 812 813
f 814 815 816
f 817 818 819
f 820 821 822
f 823 824 825
f 826 827 828
f 829 830 831
f 832 833 834
f 835 836 837
f 838 839 840
f 841 842 843
f 844 845 846
f 847 848 849
f 850 851 852
f 853 854 855
f 856 857 858
f 859 860 861
f 862 863 864
f 865 866 867
f 868 869 870
f 871 872 873
f 874 875 876
f 877 878 879
f 880 881 882
f 883 884 885
f 886 887 888
f 889 890 891
f 892 893 894
f 895 896 897
f 898 899 900
f 901 902 903
f 904 905 906
f 907 908 909
f 910 911 912
f 913 914 915
f 916 917 918
f 919 920 921
f 922 923 924
f 925 926 927
f 928 929 930
f 931 932 933
f 934 935 936
f 937 938 939
f 940 941 942
f 943 944 945
f 946 947 948
f 949 950 951
f 952 953 954
f 955 956 957
f 958 959 960
f 961 962 963
f 964 965 966
f 967 968 969
f 970 971 972
f 973 974 975
f 976 977 978
f 979 980 981
f 982 983 984
f 985 986 987
f 988 989 990
f 991 992 993
f 994 995 996
f 997 998 999
f 1000 1001 1002
f 1003 1004 1005
f 1006 1007 1008
f 1009 1010 1011
f 1012 1013 1014
f 1015 1016 1017
f 1018 1019 1020
f 1021 1022 1023
f 1024 1025 1026
f 1027 1028 1029
f 1030 1031 1032
f 1033 1034 1035
f 1036 1037 1038
f 1039 1040 1041
f 1042 1043 1044
f 1045 1046 1047
f 1048 1049 1050
f 1051 1052 1053
f 1054 1055 1056
f 1057 1058 1059
f 1060 1061 1062
f 1063 1064 1065
f 1066 1067 1068
f 1069 1070 1071
f 1072 1073 1074
f 1075 1076 1077
f 1078 1079 1080
f 1081 1082 1083
f 1084 1085 1086
f 1087 1088 1089
f 1090 1091 1092
f 1093 1094 1095
f 1096 1097 1098
f 1099 1100 1101
f 1102 1103 1104
f 1105 1106 1107
f 1108 1109 1110
f 1111 1112 1113
f 1114 1115 1116
f 1117 1118 1119
f 1120 1121 1122
f 1123 1124 1125
f 1126 1127 1128
f 1129 1130 1131
f 1132 1133 1134
f 1135 1136 1137
f 1138 1139 1140
f 1141 1142 1143
f 1144 1145 1146
f 1147 1148 1149
f 1150 1151 1152
f 1153 1154 1155
f 1156 1157 1158
f 1159 1160 1161
f 1162 1163 1164
f 1165 1166 1167
f 1168 1169 1170
f 1171 1172 1173
f 1174 1175 1176
f 1177 1178 1179
f 1180 1181 1182
f 1183 1184 1185
f 1186 1187 1188
f 1189 1190 1191
f 1192 1193 1194
f 1195 1196 1197
f 1198 1199 1200
f 1201 1202 1203
f 1204 1205 1206
f 1207 1208 1209
f 1210 1211 1212
f 1213 1214 1215
f 1216 1217 1218
f 1219 1220 1221
f 1222 1223 1224
f 1225 1226 1227
f 1228 1229 1230
f 1231 1232 1233
f 1234 1235 1236
f 1237 1238 1239
f 1240 1241 1242
f 1243 1244 1245
f 1246 1247 1248
f 1249 1250 1251
f 1252 1253 1254
f 1255 1256 1257
f 1258 1259 1260
f 1261 1262 1263
f 1264 1265 1266
f 1267 1268 1269
f 1270 1271 1272
f 1273 1274 1275
f 1276 1277 1278
f 1279 1280 1281
f 1282 1283 1284
f 1285 1286 1287
f 1288 1289 1290
f 1291 1292 1293
f 1294 1295 1296
f 1297 1298 1299
f 1300 1301 1302
f 1303 1304 1305
f 1306 1307 1308
f 1309 1310 1311
f 1312 1313 1314
f 1315 1316 1317
f 1318 1319 1320
f 1321 1322 1323
f 1324 1325 1326
f 1327 1328 1329
f 1330 1331 1332
f 1333 1334 1335
f 1336 1337 1338
f 1339 1340 1341
f 1342 1343 1344
f 1345 1346 1347
f 1348 1349 1350
f 1351 1352 1353
f 1354 1355 1356
f 1357 1358 1359
f 1360 1361 1362
f 1363 1364 1365
f 1366 1367 1368
f 1369 1370 1371
f 1372 1373 1374
f 1375 1376 1377
f 1378 1379 1380
f 1381 1382 1383
f 1384 1385 1386
f 1387 1388 1389
f 1390 1391 1392
f 1393 1394 1395
f 1396 1397 1398
f 1399 1400 1401
f 1402 1403 1404
f 1405 1406 1407
f 1408 1409 1410
f 1411 1412 1413
f 1414 1415 1416
f 1417 1418 1419
f 1420 1421 1422
f 1423 1424 1425
f 1426 1427 1428
f 1429 1430 1431
f 1432 1433 1434
f 1435 1436 1437
f 1438 1439 1440
f 1441 1442 1443
f 1444 1445 1446
f 1447 1448 1449
f 1450 1451 1452
f 1453 1454 1455
f 1456 1457 1458
f 1459 1460 1461
f 1462 1463 1464
f 1465 1466 1467
f 1468 1469 1470
f 1471 1472 1473
f 1474 1475 1476
f 1477 1478 1479
f 1480 1481 1482
f 1483 1484 1485
f 1486 1487 1488
f 1489 1490 1491
f 1492 1493 1494
f 1495 1496 1497
f 1498 1499 1500
f 1501 1502 1503
f 1504 1505 1506
f 1507 1508 1509
f 1510 1511 1512
f 1513 1514 1515
f 1516 1517 1518
f 1519 1520 1521
f 1522 1523 1524
f 1525 1526 1527
f 1528 1529 1530
f 1531 1532 1533
f 1534 1535 1536
f 1537 1538 1539
f 1540 1541 1542
f 1543 1544 1545
f 1546 1547 1548
f 1549 1550 1551
f 1552 1553 1554
f 1555 1556 1557
f 1558 1559 1560
f 1561 1562 1563
f 1564 1565 1566
f 1567 1568 1569
f 1570 1571 1572
f 1573 1574 1575
f 1576 1577 1578
f 1579 1580 1581
f 1582 1583 1584
f 1585 1586 1587
f 1588 1589 1590
f 1591 1592 1593
f 1594 1595 1596
f 1597 1598 1599
f 1600 1601 1602
f 1603 1604 1605
f 1606 1607 1608
f 1609 1610 1611
f 1612 1613 1614
f 1615 1616 1617
f 1618 1619 1620
f 1621 1622 1623
f 1624 1625 1626
f 1627 1628 1629
f 1630 1631 1632
f 1633 1634 1635
f 1636 1637 1638
f 1639 1640 1641
f 1642 1643 1644
f 1645 1646 1647
f 1648 1649 1650
f 1651 1652 1653
f 1654 1655 1656
f 1657 1658 1659
f 1660 1661 1662
f 1663 1664 1665
f 1666 1667 1668
f 1669 1670 1671
f 1672 1673 1674
f 1675 1676 1677
f 1678 1679 1680
f 1681 1682 1683
f 1684 1685 1686
f 1687 1688 1689
f 1690 1691 1692
f 1693 1694 1695
f 1696 1697 1698
f 1699 1700 1701
f 1702 1703 1704
f 1705 1706 1707
f 1708 1709 1710
f 1711 1712 1713
f 1714 1715 1716
f 1717 1718 1719
f 1720 1721 1722
f 1723 1724 1725
f 1726 1727 1728
f 1729 1730 1731
f 1732 1733 1734
f 1735 1736 1737
f 1738 1739 1740
f 1741 1742 1743
f 1744 1745 1746
f 1747 1748 1749
f 1750 1751 1752
f 1753 1754 1755
f 1756 1757 1758
f 1759 1760 1761
f 1762 1763 1764
f 1765 1766 1767
f 1768 1769 1770
f 1771 1772 1773
f 1774 1775 1776
f 1777 1778 1779
f 1780 1781 1782
f 1783 1784 1785
f 1786 1787 1788
f 1789 1790 1791
f 1792 1793 1794
f 1795 1796 1797
f 1798 1799 1800
f 1801 1802 1803
f 1804 1805 1806
f 1807 1808 1809
f 1810 1811 1812
f 1813 1814 1815
f 1816 1817 1818
f 1819 1820 1821
f 1822 1823 1824
f 1825 1826 1827
f 1828 1829 1830
f 1831 1832 1833
f 1834 1835 1836
f 1837 1838 1839
f 1840 1841 1842
f 1843 1844 1845
f 1846 1847 1848
f 1849 1850 1851
f 1852 1853 1854
f 1855 1856 1857
f 1858 1859 1860
f 1861 1862 1863
f 1864 1865 1866
f 1867 1868 1869
f 1870 1871 1872
f 1873 1874 1875
f 1876 1877 1878
f 1879 1880 1881
f 1882 1883 1884
f 1885 1886 1887
f 1888 1889 1890
f 1891 1892 1893
f 1894 1895 1896
f 1897 1898 1899
f 1900 1901 1902
f 1903 1904 1905
f 1906 1907 1908
f 1909 1910 1911
f 1912 1913 1914
f 1915 1916 1917
f 1918 1919 1920
f 1921 1922 1923
f 1924 1925 1926
f 1927 1928 1929
f 1930 1931 1932
f 1933 1934 1935
f 1936 1937 1938
f 1939 1940 1941
f 1942 1943 1944
f 1945 1946 1947
f 1948 1949 1950
f 1951 1952 1953
f 1954 1955 1956
f 1957 1958 1959
f 1960 1961 1962
f 1963 1964 1965
f 1966 1967 1968
f 1969 1970 1971
f 1972 1973 1974
f 1975 1976 1977
f 1978 1979 1980
f 1981 1982 1983
f 1984 1985 1986
f 1987 1988 1989
f 1990 1991 1992
f 1993 1994 1995
f 1996 1997 1998
f 1999 2000 2001
f 2002 2003 2004
f 2005 2006 2007
f 2008 2009 2010
f 2011 2012 2013
f 2014 2015 2016
f 2017 2018 2019
f 2020 2021 2022
f 2023 2024 2025
f 2026 2027 2028
f 2029 2030 2031
f 2032 2033 2034
f 2035 2036 2037
f 2038 2039 2040
f 2041 2042 2043
f 2044 2045 2046
f 2047 2048 2049
f 2050 2051 2052
f 2053 2054 2055
f 2056 2057 2058
f 2059 2060 2061
f 2062 2063 2064
f 2065 2066 2067
f 2068 2069 2070
f 2071 2072 2073
f 2074 2075 2076
f 2077 2078 2079
f 2080 2081 2082
f 2083 2084 2085
f 2086 2087 2088
f 2089 2090 2091
f 2092 2093 2094
f 2095 2096 2097
f 2098 2099 2100
f 2101 2102 2103
f 2104 2105 2106
f 2107 2108 2109
f 2110 2111 2112
f 2113 2114 2115
f 2116 2117 2118
f 2119 2120 2121
f 2122 2123 2124
f 2125 2126 2127
f 2128 2129 2130
f 2131 2132 2133
f 2134 2135 2136
f 2137 2138 2139
f 2140 2141 2142
f 2143 2144 2145
f 2146 2147 2148
f 2149 2150 2151
f 2152 2153 2154
f 2155 2156 2157
f 2158 2159 2160
f 2161 2162 2163
f 2164 2165 2166
f 2167 2168 2169
f 2170 2171 2172
f 2173 2174 2175
f 2176 2177 2178
f 2179 2180 2181
f 2182 2183 2184
f 2185 2186 2187
f 2188 2189 2190
f 2191 2192 2193
f 2194 2195 2196
f 2197 2198 2199
f 2200 2201 2202
f 2203 2204 2205
f 2206 2207 2208
f 2209 2210 2211
f 2212 2213 2214
f 2215 2216 2217
f 2218 2219 2220
f 2221 2222 2223
f 2224 2225 2226
f 2227 2228 2229
f 2230 2231 2232
f 2233 2234 2235
f 2236 2237 2238
f 2239 2240 2241
f 2242 2243 2244
f 2245 2246 2247
f 2248 2249 2250
f 2251 2252 2253
f 2254 2255 2256
f 2257 2258 2259
f 2260 2261 2262
f 2263 2264 2265
f 2266 2267 2268
f 2269 2270 2271
f 2272 2273 2274
f 2275 2276 2277
f 2278 2279 2280
f 2281 2282 2283
f 2284 2285 2286
f 2287 2288 2289
f 2290 2291 2292
f 2293 2294 2295
f 2296 2297 2298
f 2299 2300 2301
f 2302 2303 2304
f 2305 2306 2307
f 2308 2309 2310
f 2311 2312 2313
f 2314 2315 2316
f 2317 2318 2319
f 2320 2321 2322
f 2323 2324 2325
f 2326 2327 2328
f 2329 2330 2331
f 2332 2333 2334
f 2335 2336 2337
f 2338 2339 2340
f 2341 2342 2343
f 2344 2345 2346
f 2347 2348 2349
f 2350 2351 2352
f 2353 2354 2355
f 2356 2357 2358
f 2359 2360 2361
f 2362 2363 2364
f 2365 2366 2367
f 2368 2369 2370
f 2371 2372 2373
f 2374 2375 2376
f 2377 2378 2379
f 2380 2381 2382
f 2383 2384 2385
f 2386 2387 2388
f 2389 2390 2391
f 2392 2393 2394
f 2395 2396 2397
f 2398 2399 2400
f 2401 2402 2403
f 2404 2405 2406
f 2407 2408 2409
f 2410 2411 2412
f 2413 2414 2415
f 2416 2417 2418
f 2419 2420 2421
f 2422 2423 2424
f 2425 2426 2427
f 2428 2429 2430
f 2431 2432 2433
f 2434 2435 2436
f 2437 2438 2439
f 2440 2441 2442
f 2443 2444 2445
f 2446 2447 2448
f 2449 2450 2451
f 2452 2453 2454
f 2455 2456 2457
f 2458 2459 2460
f 2461 2462 2463
f 2464 2465 2466
f 2467 2468 2469
f 2470 2471 2472
f 2473 2474 2475
f 2476 2477 2478
f 2479 2480 2481
f 2482 2483 2484
f 2485 2486 2487
f 2488 2489 2490
f 2491 2492 2493
f 2494 2495 2496
f 2497 2498 2499
f 2500 2501 2502
f 2503 2504 2505
f 2506 2507 2508
f 2509 2510 2511
f 2512 2513 2514
f 2515 2516 2517
f 2518 2519 2520
f 2521 2522 2523
f 2524 2525 2526
f 2527 2528 2529
f 2530 2531 2532
f 2533 2534 2535
f 2536 2537 2538
f 2539 2540 2541
f 2542 2543 2544
f 2545 2546 2547
f 2548 2549 2550
f 2551 2552 2553
f 2554 2555 2556
f 2557 2558 2559
f 2560 2561 2562
f 2563 2564 2565
f 2566 2567 2568
f 2569 2570 2571
f 2572 2573 2574
f 2575 2576 2577
f 2578 2579 2580
f 2581 2582 2583
f 2584 2585 2586
f 2587 2588 2589
f 2590 2591 2592
