# MATERIA - Ribbon
# Geometria originale di studio. Unita mm. Non CAD del produttore.
v 0.0000 470.7875 225.0000
v 0.0000 453.4625 225.0000
v 112.5000 470.7875 194.8557
v 0.0000 453.4625 225.0000
v 112.5000 453.4625 194.8557
v 112.5000 470.7875 194.8557
v 112.5000 470.7875 194.8557
v 112.5000 453.4625 194.8557
v 194.8557 470.7875 112.5000
v 112.5000 453.4625 194.8557
v 194.8557 453.4625 112.5000
v 194.8557 470.7875 112.5000
v 194.8557 470.7875 112.5000
v 194.8557 453.4625 112.5000
v 225.0000 470.7875 0.0000
v 194.8557 453.4625 112.5000
v 225.0000 453.4625 0.0000
v 225.0000 470.7875 0.0000
v 225.0000 470.7875 0.0000
v 225.0000 453.4625 0.0000
v 194.8557 470.7875 -112.5000
v 225.0000 453.4625 0.0000
v 194.8557 453.4625 -112.5000
v 194.8557 470.7875 -112.5000
v 194.8557 470.7875 -112.5000
v 194.8557 453.4625 -112.5000
v 112.5000 470.7875 -194.8557
v 194.8557 453.4625 -112.5000
v 112.5000 453.4625 -194.8557
v 112.5000 470.7875 -194.8557
v 112.5000 470.7875 -194.8557
v 112.5000 453.4625 -194.8557
v 0.0000 470.7875 -225.0000
v 112.5000 453.4625 -194.8557
v 0.0000 453.4625 -225.0000
v 0.0000 470.7875 -225.0000
v 0.0000 470.7875 -225.0000
v 0.0000 453.4625 -225.0000
v -112.5000 470.7875 -194.8557
v 0.0000 453.4625 -225.0000
v -112.5000 453.4625 -194.8557
v -112.5000 470.7875 -194.8557
v -112.5000 470.7875 -194.8557
v -112.5000 453.4625 -194.8557
v -194.8557 470.7875 -112.5000
v -112.5000 453.4625 -194.8557
v -194.8557 453.4625 -112.5000
v -194.8557 470.7875 -112.5000
v -194.8557 470.7875 -112.5000
v -194.8557 453.4625 -112.5000
v -225.0000 470.7875 -0.0000
v -194.8557 453.4625 -112.5000
v -225.0000 453.4625 -0.0000
v -225.0000 470.7875 -0.0000
v -225.0000 470.7875 -0.0000
v -225.0000 453.4625 -0.0000
v -194.8557 470.7875 112.5000
v -225.0000 453.4625 -0.0000
v -194.8557 453.4625 112.5000
v -194.8557 470.7875 112.5000
v -194.8557 470.7875 112.5000
v -194.8557 453.4625 112.5000
v -112.5000 470.7875 194.8557
v -194.8557 453.4625 112.5000
v -112.5000 453.4625 194.8557
v -112.5000 470.7875 194.8557
v -112.5000 470.7875 194.8557
v -112.5000 453.4625 194.8557
v -0.0000 470.7875 225.0000
v -112.5000 453.4625 194.8557
v -0.0000 453.4625 225.0000
v -0.0000 470.7875 225.0000
v 0.0000 470.7875 225.0000
v 112.5000 470.7875 194.8557
v 0.0000 470.7875 0.0000
v 112.5000 470.7875 194.8557
v 194.8557 470.7875 112.5000
v 0.0000 470.7875 0.0000
v 194.8557 470.7875 112.5000
v 225.0000 470.7875 0.0000
v 0.0000 470.7875 0.0000
v 225.0000 470.7875 0.0000
v 194.8557 470.7875 -112.5000
v 0.0000 470.7875 0.0000
v 194.8557 470.7875 -112.5000
v 112.5000 470.7875 -194.8557
v 0.0000 470.7875 0.0000
v 112.5000 470.7875 -194.8557
v 0.0000 470.7875 -225.0000
v 0.0000 470.7875 0.0000
v 0.0000 470.7875 -225.0000
v -112.5000 470.7875 -194.8557
v 0.0000 470.7875 0.0000
v -112.5000 470.7875 -194.8557
v -194.8557 470.7875 -112.5000
v 0.0000 470.7875 0.0000
v -194.8557 470.7875 -112.5000
v -225.0000 470.7875 -0.0000
v 0.0000 470.7875 0.0000
v -225.0000 470.7875 -0.0000
v -194.8557 470.7875 112.5000
v 0.0000 470.7875 0.0000
v -194.8557 470.7875 112.5000
v -112.5000 470.7875 194.8557
v 0.0000 470.7875 0.0000
v -112.5000 470.7875 194.8557
v -0.0000 470.7875 225.0000
v 0.0000 470.7875 0.0000
v 112.5000 453.4625 194.8557
v 0.0000 453.4625 225.0000
v 0.0000 453.4625 0.0000
v 194.8557 453.4625 112.5000
v 112.5000 453.4625 194.8557
v 0.0000 453.4625 0.0000
v 225.0000 453.4625 0.0000
v 194.8557 453.4625 112.5000
v 0.0000 453.4625 0.0000
v 194.8557 453.4625 -112.5000
v 225.0000 453.4625 0.0000
v 0.0000 453.4625 0.0000
v 112.5000 453.4625 -194.8557
v 194.8557 453.4625 -112.5000
v 0.0000 453.4625 0.0000
v 0.0000 453.4625 -225.0000
v 112.5000 453.4625 -194.8557
v 0.0000 453.4625 0.0000
v -112.5000 453.4625 -194.8557
v 0.0000 453.4625 -225.0000
v 0.0000 453.4625 0.0000
v -194.8557 453.4625 -112.5000
v -112.5000 453.4625 -194.8557
v 0.0000 453.4625 0.0000
v -225.0000 453.4625 -0.0000
v -194.8557 453.4625 -112.5000
v 0.0000 453.4625 0.0000
v -194.8557 453.4625 112.5000
v -225.0000 453.4625 -0.0000
v 0.0000 453.4625 0.0000
v -112.5000 453.4625 194.8557
v -194.8557 453.4625 112.5000
v 0.0000 453.4625 0.0000
v -0.0000 453.4625 225.0000
v -112.5000 453.4625 194.8557
v 0.0000 453.4625 0.0000
v 126.8980 566.5593 0.0543
v 126.2981 514.6119 14.9709
v 121.9490 564.3071 -8.2188
v 126.2981 514.6119 14.9709
v 121.3477 512.2513 6.7288
v 121.9490 564.3071 -8.2188
v 121.9490 564.3071 -8.2188
v 121.3477 512.2513 6.7288
v 112.0510 564.4977 -8.2731
v 121.3477 512.2513 6.7288
v 111.4478 512.2916 6.7177
v 112.0510 564.4977 -8.2731
v 112.0510 564.4977 -8.2731
v 111.4478 512.2916 6.7177
v 107.1020 566.9407 -0.0543
v 111.4478 512.2916 6.7177
v 106.4983 514.6924 14.9486
v 107.1020 566.9407 -0.0543
v 107.1020 566.9407 -0.0543
v 106.4983 514.6924 14.9486
v 112.0510 569.1929 8.2188
v 106.4983 514.6924 14.9486
v 111.4487 517.0530 23.1907
v 112.0510 569.1929 8.2188
v 112.0510 569.1929 8.2188
v 111.4487 517.0530 23.1907
v 121.9490 569.0023 8.2731
v 111.4487 517.0530 23.1907
v 121.3486 517.0127 23.2019
v 121.9490 569.0023 8.2731
v 121.9490 569.0023 8.2731
v 121.3486 517.0127 23.2019
v 126.8980 566.5593 0.0543
v 121.3486 517.0127 23.2019
v 126.2981 514.6119 14.9709
v 126.8980 566.5593 0.0543
v 126.2981 514.6119 14.9709
v 126.2016 462.5707 30.0477
v 121.3477 512.2513 6.7288
v 126.2016 462.5707 30.0477
v 121.2512 460.1926 21.8108
v 121.3477 512.2513 6.7288
v 121.3477 512.2513 6.7288
v 121.2512 460.1926 21.8108
v 111.4478 512.2916 6.7177
v 121.2512 460.1926 21.8108
v 111.3512 460.2084 21.8067
v 111.4478 512.2916 6.7177
v 111.4478 512.2916 6.7177
v 111.3512 460.2084 21.8067
v 106.4983 514.6924 14.9486
v 111.3512 460.2084 21.8067
v 106.4016 462.6024 30.0396
v 106.4983 514.6924 14.9486
v 106.4983 514.6924 14.9486
v 106.4016 462.6024 30.0396
v 111.4487 517.0530 23.1907
v 106.4016 462.6024 30.0396
v 111.3520 464.9805 38.2766
v 111.4487 517.0530 23.1907
v 111.4487 517.0530 23.1907
v 111.3520 464.9805 38.2766
v 121.3486 517.0127 23.2019
v 111.3520 464.9805 38.2766
v 121.2520 464.9647 38.2807
v 121.3486 517.0127 23.2019
v 121.3486 517.0127 23.2019
v 121.2520 464.9647 38.2807
v 126.2981 514.6119 14.9709
v 121.2520 464.9647 38.2807
v 126.2016 462.5707 30.0477
v 126.2981 514.6119 14.9709
v 126.2016 462.5707 30.0477
v 125.8708 410.3846 45.1048
v 121.2512 460.1926 21.8108
v 125.8708 410.3846 45.1048
v 120.9209 408.0822 36.8459
v 121.2512 460.1926 21.8108
v 121.2512 460.1926 21.8108
v 120.9209 408.0822 36.8459
v 111.3512 460.2084 21.8067
v 120.9209 408.0822 36.8459
v 111.0217 408.2034 36.8115
v 111.3512 460.2084 21.8067
v 111.3512 460.2084 21.8067
v 111.0217 408.2034 36.8115
v 106.4016 462.6024 30.0396
v 111.0217 408.2034 36.8115
v 106.0723 410.6268 45.0359
v 106.4016 462.6024 30.0396
v 106.4016 462.6024 30.0396
v 106.0723 410.6268 45.0359
v 111.3520 464.9805 38.2766
v 106.0723 410.6268 45.0359
v 111.0222 412.9291 53.2948
v 111.3520 464.9805 38.2766
v 111.3520 464.9805 38.2766
v 111.0222 412.9291 53.2948
v 121.2520 464.9647 38.2807
v 111.0222 412.9291 53.2948
v 120.9214 412.8080 53.3292
v 121.2520 464.9647 38.2807
v 121.2520 464.9647 38.2807
v 120.9214 412.8080 53.3292
v 126.2016 462.5707 30.0477
v 120.9214 412.8080 53.3292
v 125.8708 410.3846 45.1048
v 126.2016 462.5707 30.0477
v 125.8708 410.3846 45.1048
v 124.5997 358.0333 59.9613
v 120.9209 408.0822 36.8459
v 124.5997 358.0333 59.9613
v 119.6538 355.8887 51.6577
v 120.9209 408.0822 36.8459
v 120.9209 408.0822 36.8459
v 119.6538 355.8887 51.6577
v 111.0217 408.2034 36.8115
v 119.6538 355.8887 51.6577
v 109.7601 356.2289 51.5612
v 111.0217 408.2034 36.8115
v 111.0217 408.2034 36.8115
v 109.7601 356.2289 51.5612
v 106.0723 410.6268 45.0359
v 109.7601 356.2289 51.5612
v 104.8123 358.7137 59.7682
v 106.0723 410.6268 45.0359
v 106.0723 410.6268 45.0359
v 104.8123 358.7137 59.7682
v 111.0222 412.9291 53.2948
v 104.8123 358.7137 59.7682
v 109.7582 360.8583 68.0717
v 111.0222 412.9291 53.2948
v 111.0222 412.9291 53.2948
v 109.7582 360.8583 68.0717
v 120.9214 412.8080 53.3292
v 109.7582 360.8583 68.0717
v 119.6519 360.5181 68.1683
v 120.9214 412.8080 53.3292
v 120.9214 412.8080 53.3292
v 119.6519 360.5181 68.1683
v 125.8708 410.3846 45.1048
v 119.6519 360.5181 68.1683
v 124.5997 358.0333 59.9613
v 125.8708 410.3846 45.1048
v 124.5997 358.0333 59.9613
v 121.8194 305.5513 74.4569
v 119.6538 355.8887 51.6577
v 121.8194 305.5513 74.4569
v 116.8851 303.6242 66.0933
v 119.6538 355.8887 51.6577
v 119.6538 355.8887 51.6577
v 116.8851 303.6242 66.0933
v 109.7601 356.2289 51.5612
v 116.8851 303.6242 66.0933
v 107.0076 304.2668 65.9133
v 109.7601 356.2289 51.5612
v 109.7601 356.2289 51.5612
v 107.0076 304.2668 65.9133
v 104.8123 358.7137 59.7682
v 107.0076 304.2668 65.9133
v 102.0644 306.8363 74.0969
v 104.8123 358.7137 59.7682
v 104.8123 358.7137 59.7682
v 102.0644 306.8363 74.0969
v 109.7582 360.8583 68.0717
v 102.0644 306.8363 74.0969
v 106.9986 308.7633 82.4605
v 109.7582 360.8583 68.0717
v 109.7582 360.8583 68.0717
v 106.9986 308.7633 82.4605
v 119.6519 360.5181 68.1683
v 106.9986 308.7633 82.4605
v 116.8761 308.1208 82.6405
v 119.6519 360.5181 68.1683
v 119.6519 360.5181 68.1683
v 116.8761 308.1208 82.6405
v 124.5997 358.0333 59.9613
v 116.8761 308.1208 82.6405
v 121.8194 305.5513 74.4569
v 124.5997 358.0333 59.9613
v 121.8194 305.5513 74.4569
v 117.2570 253.0736 88.4804
v 116.8851 303.6242 66.0933
v 117.2570 253.0736 88.4804
v 112.3410 251.3584 80.0601
v 116.8851 303.6242 66.0933
v 116.8851 303.6242 66.0933
v 112.3410 251.3584 80.0601
v 107.0076 304.2668 65.9133
v 112.3410 251.3584 80.0601
v 102.4888 252.2953 79.8014
v 107.0076 304.2668 65.9133
v 107.0076 304.2668 65.9133
v 102.4888 252.2953 79.8014
v 102.0644 306.8363 74.0969
v 102.4888 252.2953 79.8014
v 97.5526 254.9473 87.9630
v 102.0644 306.8363 74.0969
v 102.0644 306.8363 74.0969
v 97.5526 254.9473 87.9630
v 106.9986 308.7633 82.4605
v 97.5526 254.9473 87.9630
v 102.4687 256.6624 96.3833
v 106.9986 308.7633 82.4605
v 106.9986 308.7633 82.4605
v 102.4687 256.6624 96.3833
v 116.8761 308.1208 82.6405
v 102.4687 256.6624 96.3833
v 112.3208 255.7256 96.6420
v 116.8761 308.1208 82.6405
v 116.8761 308.1208 82.6405
v 112.3208 255.7256 96.6420
v 121.8194 305.5513 74.4569
v 112.3208 255.7256 96.6420
v 117.2570 253.0736 88.4804
v 121.8194 305.5513 74.4569
v 117.2570 253.0736 88.4804
v 111.3126 200.7295 102.1000
v 112.3410 251.3584 80.0601
v 111.3126 200.7295 102.1000
v 106.4127 199.1572 93.6425
v 112.3410 251.3584 80.0601
v 112.3410 251.3584 80.0601
v 106.4127 199.1572 93.6425
v 102.4888 252.2953 79.8014
v 106.4127 199.1572 93.6425
v 96.5829 200.2926 93.3321
v 102.4888 252.2953 79.8014
v 102.4888 252.2953 79.8014
v 96.5829 200.2926 93.3321
v 97.5526 254.9473 87.9630
v 96.5829 200.2926 93.3321
v 91.6531 203.0002 101.4792
v 97.5526 254.9473 87.9630
v 97.5526 254.9473 87.9630
v 91.6531 203.0002 101.4792
v 102.4687 256.6624 96.3833
v 91.6531 203.0002 101.4792
v 96.5529 204.5725 109.9367
v 102.4687 256.6624 96.3833
v 102.4687 256.6624 96.3833
v 96.5529 204.5725 109.9367
v 112.3208 255.7256 96.6420
v 96.5529 204.5725 109.9367
v 106.3827 203.4371 110.2471
v 112.3208 255.7256 96.6420
v 112.3208 255.7256 96.6420
v 106.3827 203.4371 110.2471
v 117.2570 253.0736 88.4804
v 106.3827 203.4371 110.2471
v 111.3126 200.7295 102.1000
v 117.2570 253.0736 88.4804
v 111.3126 200.7295 102.1000
v 104.4689 148.5044 115.4474
v 106.4127 199.1572 93.6425
v 104.4689 148.5044 115.4474
v 99.5807 147.0219 106.9670
v 106.4127 199.1572 93.6425
v 106.4127 199.1572 93.6425
v 99.5807 147.0219 106.9670
v 96.5829 200.2926 93.3321
v 99.5807 147.0219 106.9670
v 89.7672 148.2820 106.6247
v 96.5829 200.2926 93.3321
v 96.5829 200.2926 93.3321
v 89.7672 148.2820 106.6247
v 91.6531 203.0002 101.4792
v 89.7672 148.2820 106.6247
v 84.8419 151.0246 114.7628
v 91.6531 203.0002 101.4792
v 91.6531 203.0002 101.4792
v 84.8419 151.0246 114.7628
v 96.5529 204.5725 109.9367
v 84.8419 151.0246 114.7628
v 89.7300 152.5071 123.2433
v 96.5529 204.5725 109.9367
v 96.5529 204.5725 109.9367
v 89.7300 152.5071 123.2433
v 106.3827 203.4371 110.2471
v 89.7300 152.5071 123.2433
v 99.5435 151.2470 123.5856
v 106.3827 203.4371 110.2471
v 106.3827 203.4371 110.2471
v 99.5435 151.2470 123.5856
v 111.3126 200.7295 102.1000
v 99.5435 151.2470 123.5856
v 104.4689 148.5044 115.4474
v 111.3126 200.7295 102.1000
v 104.4689 148.5044 115.4474
v 97.1040 96.3736 128.6298
v 99.5807 147.0219 106.9670
v 97.1040 96.3736 128.6298
v 92.2223 94.9372 120.1377
v 99.5807 147.0219 106.9670
v 99.5807 147.0219 106.9670
v 92.2223 94.9372 120.1377
v 89.7672 148.2820 106.6247
v 92.2223 94.9372 120.1377
v 82.4178 96.2612 119.7792
v 89.7672 148.2820 106.6247
v 89.7672 148.2820 106.6247
v 82.4178 96.2612 119.7792
v 84.8419 151.0246 114.7628
v 82.4178 96.2612 119.7792
v 77.4950 99.0217 127.9128
v 84.8419 151.0246 114.7628
v 84.8419 151.0246 114.7628
v 77.4950 99.0217 127.9128
v 89.7300 152.5071 123.2433
v 77.4950 99.0217 127.9128
v 82.3767 100.4582 136.4049
v 89.7300 152.5071 123.2433
v 89.7300 152.5071 123.2433
v 82.3767 100.4582 136.4049
v 99.5435 151.2470 123.5856
v 82.3767 100.4582 136.4049
v 92.1812 99.1341 136.7634
v 99.5435 151.2470 123.5856
v 99.5435 151.2470 123.5856
v 92.1812 99.1341 136.7634
v 104.4689 148.5044 115.4474
v 92.1812 99.1341 136.7634
v 97.1040 96.3736 128.6298
v 104.4689 148.5044 115.4474
v 97.1040 96.3736 128.6298
v 89.5416 44.3122 141.7398
v 92.2223 94.9372 120.1377
v 89.5416 44.3122 141.7398
v 84.6609 42.8824 133.2460
v 92.2223 94.9372 120.1377
v 92.2223 94.9372 120.1377
v 84.6609 42.8824 133.2460
v 82.4178 96.2612 119.7792
v 84.6609 42.8824 133.2460
v 74.8577 44.2158 132.8852
v 82.4178 96.2612 119.7792
v 82.4178 96.2612 119.7792
v 74.8577 44.2158 132.8852
v 77.4950 99.0217 127.9128
v 74.8577 44.2158 132.8852
v 69.9353 46.9789 141.0182
v 77.4950 99.0217 127.9128
v 77.4950 99.0217 127.9128
v 69.9353 46.9789 141.0182
v 82.3767 100.4582 136.4049
v 69.9353 46.9789 141.0182
v 74.8160 48.4087 149.5119
v 82.3767 100.4582 136.4049
v 82.3767 100.4582 136.4049
v 74.8160 48.4087 149.5119
v 92.1812 99.1341 136.7634
v 74.8160 48.4087 149.5119
v 84.6192 47.0753 149.8728
v 92.1812 99.1341 136.7634
v 92.1812 99.1341 136.7634
v 84.6192 47.0753 149.8728
v 97.1040 96.3736 128.6298
v 84.6192 47.0753 149.8728
v 89.5416 44.3122 141.7398
v 97.1040 96.3736 128.6298
v 89.5416 44.3122 141.7398
v 82.0853 -7.7027 154.8644
v 84.6609 42.8824 133.2460
v 82.0853 -7.7027 154.8644
v 77.2000 -9.1645 146.3787
v 84.6609 42.8824 133.2460
v 84.6609 42.8824 133.2460
v 77.2000 -9.1645 146.3787
v 74.8577 44.2158 132.8852
v 77.2000 -9.1645 146.3787
v 67.3904 -7.8755 146.0291
v 74.8577 44.2158 132.8852
v 74.8577 44.2158 132.8852
v 67.3904 -7.8755 146.0291
v 69.9353 46.9789 141.0182
v 67.3904 -7.8755 146.0291
v 62.4662 -5.1249 154.1652
v 69.9353 46.9789 141.0182
v 69.9353 46.9789 141.0182
v 62.4662 -5.1249 154.1652
v 74.8160 48.4087 149.5119
v 62.4662 -5.1249 154.1652
v 67.3515 -3.6631 162.6509
v 74.8160 48.4087 149.5119
v 74.8160 48.4087 149.5119
v 67.3515 -3.6631 162.6509
v 84.6192 47.0753 149.8728
v 67.3515 -3.6631 162.6509
v 77.1610 -4.9520 163.0005
v 84.6192 47.0753 149.8728
v 84.6192 47.0753 149.8728
v 77.1610 -4.9520 163.0005
v 89.5416 44.3122 141.7398
v 77.1610 -4.9520 163.0005
v 82.0853 -7.7027 154.8644
v 89.5416 44.3122 141.7398
v 82.0853 -7.7027 154.8644
v 75.0477 -59.6866 168.0906
v 77.2000 -9.1645 146.3787
v 75.0477 -59.6866 168.0906
v 70.1525 -61.2220 159.6236
v 77.2000 -9.1645 146.3787
v 77.2000 -9.1645 146.3787
v 70.1525 -61.2220 159.6236
v 67.3904 -7.8755 146.0291
v 70.1525 -61.2220 159.6236
v 60.3292 -60.0354 159.3001
v 67.3904 -7.8755 146.0291
v 67.3904 -7.8755 146.0291
v 60.3292 -60.0354 159.3001
v 62.4662 -5.1249 154.1652
v 60.3292 -60.0354 159.3001
v 55.4011 -57.3134 167.4435
v 62.4662 -5.1249 154.1652
v 62.4662 -5.1249 154.1652
v 55.4011 -57.3134 167.4435
v 67.3515 -3.6631 162.6509
v 55.4011 -57.3134 167.4435
v 60.2963 -55.7780 175.9104
v 67.3515 -3.6631 162.6509
v 67.3515 -3.6631 162.6509
v 60.2963 -55.7780 175.9104
v 77.1610 -4.9520 163.0005
v 60.2963 -55.7780 175.9104
v 70.1196 -56.9646 176.2340
v 77.1610 -4.9520 163.0005
v 77.1610 -4.9520 163.0005
v 70.1196 -56.9646 176.2340
v 82.0853 -7.7027 154.8644
v 70.1196 -56.9646 176.2340
v 75.0477 -59.6866 168.0906
v 82.0853 -7.7027 154.8644
v -0.0543 683.5593 126.8980
v -14.9709 631.6119 126.2981
v 8.2188 681.3071 121.9490
v -14.9709 631.6119 126.2981
v -6.7288 629.2513 121.3477
v 8.2188 681.3071 121.9490
v 8.2188 681.3071 121.9490
v -6.7288 629.2513 121.3477
v 8.2731 681.4977 112.0510
v -6.7288 629.2513 121.3477
v -6.7177 629.2916 111.4478
v 8.2731 681.4977 112.0510
v 8.2731 681.4977 112.0510
v -6.7177 629.2916 111.4478
v 0.0543 683.9407 107.1020
v -6.7177 629.2916 111.4478
v -14.9486 631.6924 106.4983
v 0.0543 683.9407 107.1020
v 0.0543 683.9407 107.1020
v -14.9486 631.6924 106.4983
v -8.2188 686.1929 112.0510
v -14.9486 631.6924 106.4983
v -23.1907 634.0530 111.4487
v -8.2188 686.1929 112.0510
v -8.2188 686.1929 112.0510
v -23.1907 634.0530 111.4487
v -8.2731 686.0023 121.9490
v -23.1907 634.0530 111.4487
v -23.2019 634.0127 121.3486
v -8.2731 686.0023 121.9490
v -8.2731 686.0023 121.9490
v -23.2019 634.0127 121.3486
v -0.0543 683.5593 126.8980
v -23.2019 634.0127 121.3486
v -14.9709 631.6119 126.2981
v -0.0543 683.5593 126.8980
v -14.9709 631.6119 126.2981
v -30.0477 579.5707 126.2016
v -6.7288 629.2513 121.3477
v -30.0477 579.5707 126.2016
v -21.8108 577.1926 121.2512
v -6.7288 629.2513 121.3477
v -6.7288 629.2513 121.3477
v -21.8108 577.1926 121.2512
v -6.7177 629.2916 111.4478
v -21.8108 577.1926 121.2512
v -21.8067 577.2084 111.3512
v -6.7177 629.2916 111.4478
v -6.7177 629.2916 111.4478
v -21.8067 577.2084 111.3512
v -14.9486 631.6924 106.4983
v -21.8067 577.2084 111.3512
v -30.0396 579.6024 106.4016
v -14.9486 631.6924 106.4983
v -14.9486 631.6924 106.4983
v -30.0396 579.6024 106.4016
v -23.1907 634.0530 111.4487
v -30.0396 579.6024 106.4016
v -38.2766 581.9805 111.3520
v -23.1907 634.0530 111.4487
v -23.1907 634.0530 111.4487
v -38.2766 581.9805 111.3520
v -23.2019 634.0127 121.3486
v -38.2766 581.9805 111.3520
v -38.2807 581.9647 121.2520
v -23.2019 634.0127 121.3486
v -23.2019 634.0127 121.3486
v -38.2807 581.9647 121.2520
v -14.9709 631.6119 126.2981
v -38.2807 581.9647 121.2520
v -30.0477 579.5707 126.2016
v -14.9709 631.6119 126.2981
v -30.0477 579.5707 126.2016
v -45.1048 527.3846 125.8708
v -21.8108 577.1926 121.2512
v -45.1048 527.3846 125.8708
v -36.8459 525.0822 120.9209
v -21.8108 577.1926 121.2512
v -21.8108 577.1926 121.2512
v -36.8459 525.0822 120.9209
v -21.8067 577.2084 111.3512
v -36.8459 525.0822 120.9209
v -36.8115 525.2034 111.0217
v -21.8067 577.2084 111.3512
v -21.8067 577.2084 111.3512
v -36.8115 525.2034 111.0217
v -30.0396 579.6024 106.4016
v -36.8115 525.2034 111.0217
v -45.0359 527.6268 106.0723
v -30.0396 579.6024 106.4016
v -30.0396 579.6024 106.4016
v -45.0359 527.6268 106.0723
v -38.2766 581.9805 111.3520
v -45.0359 527.6268 106.0723
v -53.2948 529.9291 111.0222
v -38.2766 581.9805 111.3520
v -38.2766 581.9805 111.3520
v -53.2948 529.9291 111.0222
v -38.2807 581.9647 121.2520
v -53.2948 529.9291 111.0222
v -53.3292 529.8080 120.9214
v -38.2807 581.9647 121.2520
v -38.2807 581.9647 121.2520
v -53.3292 529.8080 120.9214
v -30.0477 579.5707 126.2016
v -53.3292 529.8080 120.9214
v -45.1048 527.3846 125.8708
v -30.0477 579.5707 126.2016
v -45.1048 527.3846 125.8708
v -59.9613 475.0333 124.5997
v -36.8459 525.0822 120.9209
v -59.9613 475.0333 124.5997
v -51.6577 472.8887 119.6538
v -36.8459 525.0822 120.9209
v -36.8459 525.0822 120.9209
v -51.6577 472.8887 119.6538
v -36.8115 525.2034 111.0217
v -51.6577 472.8887 119.6538
v -51.5612 473.2289 109.7601
v -36.8115 525.2034 111.0217
v -36.8115 525.2034 111.0217
v -51.5612 473.2289 109.7601
v -45.0359 527.6268 106.0723
v -51.5612 473.2289 109.7601
v -59.7682 475.7137 104.8123
v -45.0359 527.6268 106.0723
v -45.0359 527.6268 106.0723
v -59.7682 475.7137 104.8123
v -53.2948 529.9291 111.0222
v -59.7682 475.7137 104.8123
v -68.0717 477.8583 109.7582
v -53.2948 529.9291 111.0222
v -53.2948 529.9291 111.0222
v -68.0717 477.8583 109.7582
v -53.3292 529.8080 120.9214
v -68.0717 477.8583 109.7582
v -68.1683 477.5181 119.6519
v -53.3292 529.8080 120.9214
v -53.3292 529.8080 120.9214
v -68.1683 477.5181 119.6519
v -45.1048 527.3846 125.8708
v -68.1683 477.5181 119.6519
v -59.9613 475.0333 124.5997
v -45.1048 527.3846 125.8708
v -59.9613 475.0333 124.5997
v -74.4569 422.5513 121.8194
v -51.6577 472.8887 119.6538
v -74.4569 422.5513 121.8194
v -66.0933 420.6242 116.8851
v -51.6577 472.8887 119.6538
v -51.6577 472.8887 119.6538
v -66.0933 420.6242 116.8851
v -51.5612 473.2289 109.7601
v -66.0933 420.6242 116.8851
v -65.9133 421.2668 107.0076
v -51.5612 473.2289 109.7601
v -51.5612 473.2289 109.7601
v -65.9133 421.2668 107.0076
v -59.7682 475.7137 104.8123
v -65.9133 421.2668 107.0076
v -74.0969 423.8363 102.0644
v -59.7682 475.7137 104.8123
v -59.7682 475.7137 104.8123
v -74.0969 423.8363 102.0644
v -68.0717 477.8583 109.7582
v -74.0969 423.8363 102.0644
v -82.4605 425.7633 106.9986
v -68.0717 477.8583 109.7582
v -68.0717 477.8583 109.7582
v -82.4605 425.7633 106.9986
v -68.1683 477.5181 119.6519
v -82.4605 425.7633 106.9986
v -82.6405 425.1208 116.8761
v -68.1683 477.5181 119.6519
v -68.1683 477.5181 119.6519
v -82.6405 425.1208 116.8761
v -59.9613 475.0333 124.5997
v -82.6405 425.1208 116.8761
v -74.4569 422.5513 121.8194
v -59.9613 475.0333 124.5997
v -74.4569 422.5513 121.8194
v -88.4804 370.0736 117.2570
v -66.0933 420.6242 116.8851
v -88.4804 370.0736 117.2570
v -80.0601 368.3584 112.3410
v -66.0933 420.6242 116.8851
v -66.0933 420.6242 116.8851
v -80.0601 368.3584 112.3410
v -65.9133 421.2668 107.0076
v -80.0601 368.3584 112.3410
v -79.8014 369.2953 102.4888
v -65.9133 421.2668 107.0076
v -65.9133 421.2668 107.0076
v -79.8014 369.2953 102.4888
v -74.0969 423.8363 102.0644
v -79.8014 369.2953 102.4888
v -87.9630 371.9473 97.5526
v -74.0969 423.8363 102.0644
v -74.0969 423.8363 102.0644
v -87.9630 371.9473 97.5526
v -82.4605 425.7633 106.9986
v -87.9630 371.9473 97.5526
v -96.3833 373.6624 102.4687
v -82.4605 425.7633 106.9986
v -82.4605 425.7633 106.9986
v -96.3833 373.6624 102.4687
v -82.6405 425.1208 116.8761
v -96.3833 373.6624 102.4687
v -96.6420 372.7256 112.3208
v -82.6405 425.1208 116.8761
v -82.6405 425.1208 116.8761
v -96.6420 372.7256 112.3208
v -74.4569 422.5513 121.8194
v -96.6420 372.7256 112.3208
v -88.4804 370.0736 117.2570
v -74.4569 422.5513 121.8194
v -88.4804 370.0736 117.2570
v -102.1000 317.7295 111.3126
v -80.0601 368.3584 112.3410
v -102.1000 317.7295 111.3126
v -93.6425 316.1572 106.4127
v -80.0601 368.3584 112.3410
v -80.0601 368.3584 112.3410
v -93.6425 316.1572 106.4127
v -79.8014 369.2953 102.4888
v -93.6425 316.1572 106.4127
v -93.3321 317.2926 96.5829
v -79.8014 369.2953 102.4888
v -79.8014 369.2953 102.4888
v -93.3321 317.2926 96.5829
v -87.9630 371.9473 97.5526
v -93.3321 317.2926 96.5829
v -101.4792 320.0002 91.6531
v -87.9630 371.9473 97.5526
v -87.9630 371.9473 97.5526
v -101.4792 320.0002 91.6531
v -96.3833 373.6624 102.4687
v -101.4792 320.0002 91.6531
v -109.9367 321.5725 96.5529
v -96.3833 373.6624 102.4687
v -96.3833 373.6624 102.4687
v -109.9367 321.5725 96.5529
v -96.6420 372.7256 112.3208
v -109.9367 321.5725 96.5529
v -110.2471 320.4371 106.3827
v -96.6420 372.7256 112.3208
v -96.6420 372.7256 112.3208
v -110.2471 320.4371 106.3827
v -88.4804 370.0736 117.2570
v -110.2471 320.4371 106.3827
v -102.1000 317.7295 111.3126
v -88.4804 370.0736 117.2570
v -102.1000 317.7295 111.3126
v -115.4474 265.5044 104.4689
v -93.6425 316.1572 106.4127
v -115.4474 265.5044 104.4689
v -106.9670 264.0219 99.5807
v -93.6425 316.1572 106.4127
v -93.6425 316.1572 106.4127
v -106.9670 264.0219 99.5807
v -93.3321 317.2926 96.5829
v -106.9670 264.0219 99.5807
v -106.6247 265.2820 89.7672
v -93.3321 317.2926 96.5829
v -93.3321 317.2926 96.5829
v -106.6247 265.2820 89.7672
v -101.4792 320.0002 91.6531
v -106.6247 265.2820 89.7672
v -114.7628 268.0246 84.8419
v -101.4792 320.0002 91.6531
v -101.4792 320.0002 91.6531
v -114.7628 268.0246 84.8419
v -109.9367 321.5725 96.5529
v -114.7628 268.0246 84.8419
v -123.2433 269.5071 89.7300
v -109.9367 321.5725 96.5529
v -109.9367 321.5725 96.5529
v -123.2433 269.5071 89.7300
v -110.2471 320.4371 106.3827
v -123.2433 269.5071 89.7300
v -123.5856 268.2470 99.5435
v -110.2471 320.4371 106.3827
v -110.2471 320.4371 106.3827
v -123.5856 268.2470 99.5435
v -102.1000 317.7295 111.3126
v -123.5856 268.2470 99.5435
v -115.4474 265.5044 104.4689
v -102.1000 317.7295 111.3126
v -115.4474 265.5044 104.4689
v -128.6298 213.3736 97.1040
v -106.9670 264.0219 99.5807
v -128.6298 213.3736 97.1040
v -120.1377 211.9372 92.2223
v -106.9670 264.0219 99.5807
v -106.9670 264.0219 99.5807
v -120.1377 211.9372 92.2223
v -106.6247 265.2820 89.7672
v -120.1377 211.9372 92.2223
v -119.7792 213.2612 82.4178
v -106.6247 265.2820 89.7672
v -106.6247 265.2820 89.7672
v -119.7792 213.2612 82.4178
v -114.7628 268.0246 84.8419
v -119.7792 213.2612 82.4178
v -127.9128 216.0217 77.4950
v -114.7628 268.0246 84.8419
v -114.7628 268.0246 84.8419
v -127.9128 216.0217 77.4950
v -123.2433 269.5071 89.7300
v -127.9128 216.0217 77.4950
v -136.4049 217.4582 82.3767
v -123.2433 269.5071 89.7300
v -123.2433 269.5071 89.7300
v -136.4049 217.4582 82.3767
v -123.5856 268.2470 99.5435
v -136.4049 217.4582 82.3767
v -136.7634 216.1341 92.1812
v -123.5856 268.2470 99.5435
v -123.5856 268.2470 99.5435
v -136.7634 216.1341 92.1812
v -115.4474 265.5044 104.4689
v -136.7634 216.1341 92.1812
v -128.6298 213.3736 97.1040
v -115.4474 265.5044 104.4689
v -128.6298 213.3736 97.1040
v -141.7398 161.3122 89.5416
v -120.1377 211.9372 92.2223
v -141.7398 161.3122 89.5416
v -133.2460 159.8824 84.6609
v -120.1377 211.9372 92.2223
v -120.1377 211.9372 92.2223
v -133.2460 159.8824 84.6609
v -119.7792 213.2612 82.4178
v -133.2460 159.8824 84.6609
v -132.8852 161.2158 74.8577
v -119.7792 213.2612 82.4178
v -119.7792 213.2612 82.4178
v -132.8852 161.2158 74.8577
v -127.9128 216.0217 77.4950
v -132.8852 161.2158 74.8577
v -141.0182 163.9789 69.9353
v -127.9128 216.0217 77.4950
v -127.9128 216.0217 77.4950
v -141.0182 163.9789 69.9353
v -136.4049 217.4582 82.3767
v -141.0182 163.9789 69.9353
v -149.5119 165.4087 74.8160
v -136.4049 217.4582 82.3767
v -136.4049 217.4582 82.3767
v -149.5119 165.4087 74.8160
v -136.7634 216.1341 92.1812
v -149.5119 165.4087 74.8160
v -149.8728 164.0753 84.6192
v -136.7634 216.1341 92.1812
v -136.7634 216.1341 92.1812
v -149.8728 164.0753 84.6192
v -128.6298 213.3736 97.1040
v -149.8728 164.0753 84.6192
v -141.7398 161.3122 89.5416
v -128.6298 213.3736 97.1040
v -141.7398 161.3122 89.5416
v -154.8644 109.2973 82.0853
v -133.2460 159.8824 84.6609
v -154.8644 109.2973 82.0853
v -146.3787 107.8355 77.2000
v -133.2460 159.8824 84.6609
v -133.2460 159.8824 84.6609
v -146.3787 107.8355 77.2000
v -132.8852 161.2158 74.8577
v -146.3787 107.8355 77.2000
v -146.0291 109.1245 67.3904
v -132.8852 161.2158 74.8577
v -132.8852 161.2158 74.8577
v -146.0291 109.1245 67.3904
v -141.0182 163.9789 69.9353
v -146.0291 109.1245 67.3904
v -154.1652 111.8751 62.4662
v -141.0182 163.9789 69.9353
v -141.0182 163.9789 69.9353
v -154.1652 111.8751 62.4662
v -149.5119 165.4087 74.8160
v -154.1652 111.8751 62.4662
v -162.6509 113.3369 67.3515
v -149.5119 165.4087 74.8160
v -149.5119 165.4087 74.8160
v -162.6509 113.3369 67.3515
v -149.8728 164.0753 84.6192
v -162.6509 113.3369 67.3515
v -163.0005 112.0480 77.1610
v -149.8728 164.0753 84.6192
v -149.8728 164.0753 84.6192
v -163.0005 112.0480 77.1610
v -141.7398 161.3122 89.5416
v -163.0005 112.0480 77.1610
v -154.8644 109.2973 82.0853
v -141.7398 161.3122 89.5416
v -154.8644 109.2973 82.0853
v -168.0906 57.3134 75.0477
v -146.3787 107.8355 77.2000
v -168.0906 57.3134 75.0477
v -159.6236 55.7780 70.1525
v -146.3787 107.8355 77.2000
v -146.3787 107.8355 77.2000
v -159.6236 55.7780 70.1525
v -146.0291 109.1245 67.3904
v -159.6236 55.7780 70.1525
v -159.3001 56.9646 60.3292
v -146.0291 109.1245 67.3904
v -146.0291 109.1245 67.3904
v -159.3001 56.9646 60.3292
v -154.1652 111.8751 62.4662
v -159.3001 56.9646 60.3292
v -167.4435 59.6866 55.4011
v -154.1652 111.8751 62.4662
v -154.1652 111.8751 62.4662
v -167.4435 59.6866 55.4011
v -162.6509 113.3369 67.3515
v -167.4435 59.6866 55.4011
v -175.9104 61.2220 60.2963
v -162.6509 113.3369 67.3515
v -162.6509 113.3369 67.3515
v -175.9104 61.2220 60.2963
v -163.0005 112.0480 77.1610
v -175.9104 61.2220 60.2963
v -176.2340 60.0354 70.1196
v -163.0005 112.0480 77.1610
v -163.0005 112.0480 77.1610
v -176.2340 60.0354 70.1196
v -154.8644 109.2973 82.0853
v -176.2340 60.0354 70.1196
v -168.0906 57.3134 75.0477
v -154.8644 109.2973 82.0853
v -107.1020 800.9407 0.0543
v -106.4983 748.6924 -14.9486
v -112.0510 803.1929 -8.2188
v -106.4983 748.6924 -14.9486
v -111.4487 751.0530 -23.1907
v -112.0510 803.1929 -8.2188
v -112.0510 803.1929 -8.2188
v -111.4487 751.0530 -23.1907
v -121.9490 803.0023 -8.2731
v -111.4487 751.0530 -23.1907
v -121.3486 751.0127 -23.2019
v -121.9490 803.0023 -8.2731
v -121.9490 803.0023 -8.2731
v -121.3486 751.0127 -23.2019
v -126.8980 800.5593 -0.0543
v -121.3486 751.0127 -23.2019
v -126.2981 748.6119 -14.9709
v -126.8980 800.5593 -0.0543
v -126.8980 800.5593 -0.0543
v -126.2981 748.6119 -14.9709
v -121.9490 798.3071 8.2188
v -126.2981 748.6119 -14.9709
v -121.3477 746.2513 -6.7288
v -121.9490 798.3071 8.2188
v -121.9490 798.3071 8.2188
v -121.3477 746.2513 -6.7288
v -112.0510 798.4977 8.2731
v -121.3477 746.2513 -6.7288
v -111.4478 746.2916 -6.7177
v -112.0510 798.4977 8.2731
v -112.0510 798.4977 8.2731
v -111.4478 746.2916 -6.7177
v -107.1020 800.9407 0.0543
v -111.4478 746.2916 -6.7177
v -106.4983 748.6924 -14.9486
v -107.1020 800.9407 0.0543
v -106.4983 748.6924 -14.9486
v -106.4016 696.6024 -30.0396
v -111.4487 751.0530 -23.1907
v -106.4016 696.6024 -30.0396
v -111.3520 698.9805 -38.2766
v -111.4487 751.0530 -23.1907
v -111.4487 751.0530 -23.1907
v -111.3520 698.9805 -38.2766
v -121.3486 751.0127 -23.2019
v -111.3520 698.9805 -38.2766
v -121.2520 698.9647 -38.2807
v -121.3486 751.0127 -23.2019
v -121.3486 751.0127 -23.2019
v -121.2520 698.9647 -38.2807
v -126.2981 748.6119 -14.9709
v -121.2520 698.9647 -38.2807
v -126.2016 696.5707 -30.0477
v -126.2981 748.6119 -14.9709
v -126.2981 748.6119 -14.9709
v -126.2016 696.5707 -30.0477
v -121.3477 746.2513 -6.7288
v -126.2016 696.5707 -30.0477
v -121.2512 694.1926 -21.8108
v -121.3477 746.2513 -6.7288
v -121.3477 746.2513 -6.7288
v -121.2512 694.1926 -21.8108
v -111.4478 746.2916 -6.7177
v -121.2512 694.1926 -21.8108
v -111.3512 694.2084 -21.8067
v -111.4478 746.2916 -6.7177
v -111.4478 746.2916 -6.7177
v -111.3512 694.2084 -21.8067
v -106.4983 748.6924 -14.9486
v -111.3512 694.2084 -21.8067
v -106.4016 696.6024 -30.0396
v -106.4983 748.6924 -14.9486
v -106.4016 696.6024 -30.0396
v -106.0723 644.6268 -45.0359
v -111.3520 698.9805 -38.2766
v -106.0723 644.6268 -45.0359
v -111.0222 646.9291 -53.2948
v -111.3520 698.9805 -38.2766
v -111.3520 698.9805 -38.2766
v -111.0222 646.9291 -53.2948
v -121.2520 698.9647 -38.2807
v -111.0222 646.9291 -53.2948
v -120.9214 646.8080 -53.3292
v -121.2520 698.9647 -38.2807
v -121.2520 698.9647 -38.2807
v -120.9214 646.8080 -53.3292
v -126.2016 696.5707 -30.0477
v -120.9214 646.8080 -53.3292
v -125.8708 644.3846 -45.1048
v -126.2016 696.5707 -30.0477
v -126.2016 696.5707 -30.0477
v -125.8708 644.3846 -45.1048
v -121.2512 694.1926 -21.8108
v -125.8708 644.3846 -45.1048
v -120.9209 642.0822 -36.8459
v -121.2512 694.1926 -21.8108
v -121.2512 694.1926 -21.8108
v -120.9209 642.0822 -36.8459
v -111.3512 694.2084 -21.8067
v -120.9209 642.0822 -36.8459
v -111.0217 642.2034 -36.8115
v -111.3512 694.2084 -21.8067
v -111.3512 694.2084 -21.8067
v -111.0217 642.2034 -36.8115
v -106.4016 696.6024 -30.0396
v -111.0217 642.2034 -36.8115
v -106.0723 644.6268 -45.0359
v -106.4016 696.6024 -30.0396
v -106.0723 644.6268 -45.0359
v -104.8123 592.7137 -59.7682
v -111.0222 646.9291 -53.2948
v -104.8123 592.7137 -59.7682
v -109.7582 594.8583 -68.0717
v -111.0222 646.9291 -53.2948
v -111.0222 646.9291 -53.2948
v -109.7582 594.8583 -68.0717
v -120.9214 646.8080 -53.3292
v -109.7582 594.8583 -68.0717
v -119.6519 594.5181 -68.1683
v -120.9214 646.8080 -53.3292
v -120.9214 646.8080 -53.3292
v -119.6519 594.5181 -68.1683
v -125.8708 644.3846 -45.1048
v -119.6519 594.5181 -68.1683
v -124.5997 592.0333 -59.9613
v -125.8708 644.3846 -45.1048
v -125.8708 644.3846 -45.1048
v -124.5997 592.0333 -59.9613
v -120.9209 642.0822 -36.8459
v -124.5997 592.0333 -59.9613
v -119.6538 589.8887 -51.6577
v -120.9209 642.0822 -36.8459
v -120.9209 642.0822 -36.8459
v -119.6538 589.8887 -51.6577
v -111.0217 642.2034 -36.8115
v -119.6538 589.8887 -51.6577
v -109.7601 590.2289 -51.5612
v -111.0217 642.2034 -36.8115
v -111.0217 642.2034 -36.8115
v -109.7601 590.2289 -51.5612
v -106.0723 644.6268 -45.0359
v -109.7601 590.2289 -51.5612
v -104.8123 592.7137 -59.7682
v -106.0723 644.6268 -45.0359
v -104.8123 592.7137 -59.7682
v -102.0644 540.8363 -74.0969
v -109.7582 594.8583 -68.0717
v -102.0644 540.8363 -74.0969
v -106.9986 542.7633 -82.4605
v -109.7582 594.8583 -68.0717
v -109.7582 594.8583 -68.0717
v -106.9986 542.7633 -82.4605
v -119.6519 594.5181 -68.1683
v -106.9986 542.7633 -82.4605
v -116.8761 542.1208 -82.6405
v -119.6519 594.5181 -68.1683
v -119.6519 594.5181 -68.1683
v -116.8761 542.1208 -82.6405
v -124.5997 592.0333 -59.9613
v -116.8761 542.1208 -82.6405
v -121.8194 539.5513 -74.4569
v -124.5997 592.0333 -59.9613
v -124.5997 592.0333 -59.9613
v -121.8194 539.5513 -74.4569
v -119.6538 589.8887 -51.6577
v -121.8194 539.5513 -74.4569
v -116.8851 537.6242 -66.0933
v -119.6538 589.8887 -51.6577
v -119.6538 589.8887 -51.6577
v -116.8851 537.6242 -66.0933
v -109.7601 590.2289 -51.5612
v -116.8851 537.6242 -66.0933
v -107.0076 538.2668 -65.9133
v -109.7601 590.2289 -51.5612
v -109.7601 590.2289 -51.5612
v -107.0076 538.2668 -65.9133
v -104.8123 592.7137 -59.7682
v -107.0076 538.2668 -65.9133
v -102.0644 540.8363 -74.0969
v -104.8123 592.7137 -59.7682
v -102.0644 540.8363 -74.0969
v -97.5526 488.9473 -87.9630
v -106.9986 542.7633 -82.4605
v -97.5526 488.9473 -87.9630
v -102.4687 490.6624 -96.3833
v -106.9986 542.7633 -82.4605
v -106.9986 542.7633 -82.4605
v -102.4687 490.6624 -96.3833
v -116.8761 542.1208 -82.6405
v -102.4687 490.6624 -96.3833
v -112.3208 489.7256 -96.6420
v -116.8761 542.1208 -82.6405
v -116.8761 542.1208 -82.6405
v -112.3208 489.7256 -96.6420
v -121.8194 539.5513 -74.4569
v -112.3208 489.7256 -96.6420
v -117.2570 487.0736 -88.4804
v -121.8194 539.5513 -74.4569
v -121.8194 539.5513 -74.4569
v -117.2570 487.0736 -88.4804
v -116.8851 537.6242 -66.0933
v -117.2570 487.0736 -88.4804
v -112.3410 485.3584 -80.0601
v -116.8851 537.6242 -66.0933
v -116.8851 537.6242 -66.0933
v -112.3410 485.3584 -80.0601
v -107.0076 538.2668 -65.9133
v -112.3410 485.3584 -80.0601
v -102.4888 486.2953 -79.8014
v -107.0076 538.2668 -65.9133
v -107.0076 538.2668 -65.9133
v -102.4888 486.2953 -79.8014
v -102.0644 540.8363 -74.0969
v -102.4888 486.2953 -79.8014
v -97.5526 488.9473 -87.9630
v -102.0644 540.8363 -74.0969
v -97.5526 488.9473 -87.9630
v -91.6531 437.0002 -101.4792
v -102.4687 490.6624 -96.3833
v -91.6531 437.0002 -101.4792
v -96.5529 438.5725 -109.9367
v -102.4687 490.6624 -96.3833
v -102.4687 490.6624 -96.3833
v -96.5529 438.5725 -109.9367
v -112.3208 489.7256 -96.6420
v -96.5529 438.5725 -109.9367
v -106.3827 437.4371 -110.2471
v -112.3208 489.7256 -96.6420
v -112.3208 489.7256 -96.6420
v -106.3827 437.4371 -110.2471
v -117.2570 487.0736 -88.4804
v -106.3827 437.4371 -110.2471
v -111.3126 434.7295 -102.1000
v -117.2570 487.0736 -88.4804
v -117.2570 487.0736 -88.4804
v -111.3126 434.7295 -102.1000
v -112.3410 485.3584 -80.0601
v -111.3126 434.7295 -102.1000
v -106.4127 433.1572 -93.6425
v -112.3410 485.3584 -80.0601
v -112.3410 485.3584 -80.0601
v -106.4127 433.1572 -93.6425
v -102.4888 486.2953 -79.8014
v -106.4127 433.1572 -93.6425
v -96.5829 434.2926 -93.3321
v -102.4888 486.2953 -79.8014
v -102.4888 486.2953 -79.8014
v -96.5829 434.2926 -93.3321
v -97.5526 488.9473 -87.9630
v -96.5829 434.2926 -93.3321
v -91.6531 437.0002 -101.4792
v -97.5526 488.9473 -87.9630
v -91.6531 437.0002 -101.4792
v -84.8419 385.0246 -114.7628
v -96.5529 438.5725 -109.9367
v -84.8419 385.0246 -114.7628
v -89.7300 386.5071 -123.2433
v -96.5529 438.5725 -109.9367
v -96.5529 438.5725 -109.9367
v -89.7300 386.5071 -123.2433
v -106.3827 437.4371 -110.2471
v -89.7300 386.5071 -123.2433
v -99.5435 385.2470 -123.5856
v -106.3827 437.4371 -110.2471
v -106.3827 437.4371 -110.2471
v -99.5435 385.2470 -123.5856
v -111.3126 434.7295 -102.1000
v -99.5435 385.2470 -123.5856
v -104.4689 382.5044 -115.4474
v -111.3126 434.7295 -102.1000
v -111.3126 434.7295 -102.1000
v -104.4689 382.5044 -115.4474
v -106.4127 433.1572 -93.6425
v -104.4689 382.5044 -115.4474
v -99.5807 381.0219 -106.9670
v -106.4127 433.1572 -93.6425
v -106.4127 433.1572 -93.6425
v -99.5807 381.0219 -106.9670
v -96.5829 434.2926 -93.3321
v -99.5807 381.0219 -106.9670
v -89.7672 382.2820 -106.6247
v -96.5829 434.2926 -93.3321
v -96.5829 434.2926 -93.3321
v -89.7672 382.2820 -106.6247
v -91.6531 437.0002 -101.4792
v -89.7672 382.2820 -106.6247
v -84.8419 385.0246 -114.7628
v -91.6531 437.0002 -101.4792
v -84.8419 385.0246 -114.7628
v -77.4950 333.0217 -127.9128
v -89.7300 386.5071 -123.2433
v -77.4950 333.0217 -127.9128
v -82.3767 334.4582 -136.4049
v -89.7300 386.5071 -123.2433
v -89.7300 386.5071 -123.2433
v -82.3767 334.4582 -136.4049
v -99.5435 385.2470 -123.5856
v -82.3767 334.4582 -136.4049
v -92.1812 333.1341 -136.7634
v -99.5435 385.2470 -123.5856
v -99.5435 385.2470 -123.5856
v -92.1812 333.1341 -136.7634
v -104.4689 382.5044 -115.4474
v -92.1812 333.1341 -136.7634
v -97.1040 330.3736 -128.6298
v -104.4689 382.5044 -115.4474
v -104.4689 382.5044 -115.4474
v -97.1040 330.3736 -128.6298
v -99.5807 381.0219 -106.9670
v -97.1040 330.3736 -128.6298
v -92.2223 328.9372 -120.1377
v -99.5807 381.0219 -106.9670
v -99.5807 381.0219 -106.9670
v -92.2223 328.9372 -120.1377
v -89.7672 382.2820 -106.6247
v -92.2223 328.9372 -120.1377
v -82.4178 330.2612 -119.7792
v -89.7672 382.2820 -106.6247
v -89.7672 382.2820 -106.6247
v -82.4178 330.2612 -119.7792
v -84.8419 385.0246 -114.7628
v -82.4178 330.2612 -119.7792
v -77.4950 333.0217 -127.9128
v -84.8419 385.0246 -114.7628
v -77.4950 333.0217 -127.9128
v -69.9353 280.9789 -141.0182
v -82.3767 334.4582 -136.4049
v -69.9353 280.9789 -141.0182
v -74.8160 282.4087 -149.5119
v -82.3767 334.4582 -136.4049
v -82.3767 334.4582 -136.4049
v -74.8160 282.4087 -149.5119
v -92.1812 333.1341 -136.7634
v -74.8160 282.4087 -149.5119
v -84.6192 281.0753 -149.8728
v -92.1812 333.1341 -136.7634
v -92.1812 333.1341 -136.7634
v -84.6192 281.0753 -149.8728
v -97.1040 330.3736 -128.6298
v -84.6192 281.0753 -149.8728
v -89.5416 278.3122 -141.7398
v -97.1040 330.3736 -128.6298
v -97.1040 330.3736 -128.6298
v -89.5416 278.3122 -141.7398
v -92.2223 328.9372 -120.1377
v -89.5416 278.3122 -141.7398
v -84.6609 276.8824 -133.2460
v -92.2223 328.9372 -120.1377
v -92.2223 328.9372 -120.1377
v -84.6609 276.8824 -133.2460
v -82.4178 330.2612 -119.7792
v -84.6609 276.8824 -133.2460
v -74.8577 278.2158 -132.8852
v -82.4178 330.2612 -119.7792
v -82.4178 330.2612 -119.7792
v -74.8577 278.2158 -132.8852
v -77.4950 333.0217 -127.9128
v -74.8577 278.2158 -132.8852
v -69.9353 280.9789 -141.0182
v -77.4950 333.0217 -127.9128
v -69.9353 280.9789 -141.0182
v -62.4662 228.8751 -154.1652
v -74.8160 282.4087 -149.5119
v -62.4662 228.8751 -154.1652
v -67.3515 230.3369 -162.6509
v -74.8160 282.4087 -149.5119
v -74.8160 282.4087 -149.5119
v -67.3515 230.3369 -162.6509
v -84.6192 281.0753 -149.8728
v -67.3515 230.3369 -162.6509
v -77.1610 229.0480 -163.0005
v -84.6192 281.0753 -149.8728
v -84.6192 281.0753 -149.8728
v -77.1610 229.0480 -163.0005
v -89.5416 278.3122 -141.7398
v -77.1610 229.0480 -163.0005
v -82.0853 226.2973 -154.8644
v -89.5416 278.3122 -141.7398
v -89.5416 278.3122 -141.7398
v -82.0853 226.2973 -154.8644
v -84.6609 276.8824 -133.2460
v -82.0853 226.2973 -154.8644
v -77.2000 224.8355 -146.3787
v -84.6609 276.8824 -133.2460
v -84.6609 276.8824 -133.2460
v -77.2000 224.8355 -146.3787
v -74.8577 278.2158 -132.8852
v -77.2000 224.8355 -146.3787
v -67.3904 226.1245 -146.0291
v -74.8577 278.2158 -132.8852
v -74.8577 278.2158 -132.8852
v -67.3904 226.1245 -146.0291
v -69.9353 280.9789 -141.0182
v -67.3904 226.1245 -146.0291
v -62.4662 228.8751 -154.1652
v -69.9353 280.9789 -141.0182
v -62.4662 228.8751 -154.1652
v -55.4011 176.6866 -167.4435
v -67.3515 230.3369 -162.6509
v -55.4011 176.6866 -167.4435
v -60.2963 178.2220 -175.9104
v -67.3515 230.3369 -162.6509
v -67.3515 230.3369 -162.6509
v -60.2963 178.2220 -175.9104
v -77.1610 229.0480 -163.0005
v -60.2963 178.2220 -175.9104
v -70.1196 177.0354 -176.2340
v -77.1610 229.0480 -163.0005
v -77.1610 229.0480 -163.0005
v -70.1196 177.0354 -176.2340
v -82.0853 226.2973 -154.8644
v -70.1196 177.0354 -176.2340
v -75.0477 174.3134 -168.0906
v -82.0853 226.2973 -154.8644
v -82.0853 226.2973 -154.8644
v -75.0477 174.3134 -168.0906
v -77.2000 224.8355 -146.3787
v -75.0477 174.3134 -168.0906
v -70.1525 172.7780 -159.6236
v -77.2000 224.8355 -146.3787
v -77.2000 224.8355 -146.3787
v -70.1525 172.7780 -159.6236
v -67.3904 226.1245 -146.0291
v -70.1525 172.7780 -159.6236
v -60.3292 173.9646 -159.3001
v -67.3904 226.1245 -146.0291
v -67.3904 226.1245 -146.0291
v -60.3292 173.9646 -159.3001
v -62.4662 228.8751 -154.1652
v -60.3292 173.9646 -159.3001
v -55.4011 176.6866 -167.4435
v -62.4662 228.8751 -154.1652
v -0.0543 449.9407 -107.1020
v 14.9486 397.6924 -106.4983
v 8.2188 452.1929 -112.0510
v 14.9486 397.6924 -106.4983
v 23.1907 400.0530 -111.4487
v 8.2188 452.1929 -112.0510
v 8.2188 452.1929 -112.0510
v 23.1907 400.0530 -111.4487
v 8.2731 452.0023 -121.9490
v 23.1907 400.0530 -111.4487
v 23.2019 400.0127 -121.3486
v 8.2731 452.0023 -121.9490
v 8.2731 452.0023 -121.9490
v 23.2019 400.0127 -121.3486
v 0.0543 449.5593 -126.8980
v 23.2019 400.0127 -121.3486
v 14.9709 397.6119 -126.2981
v 0.0543 449.5593 -126.8980
v 0.0543 449.5593 -126.8980
v 14.9709 397.6119 -126.2981
v -8.2188 447.3071 -121.9490
v 14.9709 397.6119 -126.2981
v 6.7288 395.2513 -121.3477
v -8.2188 447.3071 -121.9490
v -8.2188 447.3071 -121.9490
v 6.7288 395.2513 -121.3477
v -8.2731 447.4977 -112.0510
v 6.7288 395.2513 -121.3477
v 6.7177 395.2916 -111.4478
v -8.2731 447.4977 -112.0510
v -8.2731 447.4977 -112.0510
v 6.7177 395.2916 -111.4478
v -0.0543 449.9407 -107.1020
v 6.7177 395.2916 -111.4478
v 14.9486 397.6924 -106.4983
v -0.0543 449.9407 -107.1020
v 14.9486 397.6924 -106.4983
v 30.0396 345.6024 -106.4016
v 23.1907 400.0530 -111.4487
v 30.0396 345.6024 -106.4016
v 38.2766 347.9805 -111.3520
v 23.1907 400.0530 -111.4487
v 23.1907 400.0530 -111.4487
v 38.2766 347.9805 -111.3520
v 23.2019 400.0127 -121.3486
v 38.2766 347.9805 -111.3520
v 38.2807 347.9647 -121.2520
v 23.2019 400.0127 -121.3486
v 23.2019 400.0127 -121.3486
v 38.2807 347.9647 -121.2520
v 14.9709 397.6119 -126.2981
v 38.2807 347.9647 -121.2520
v 30.0477 345.5707 -126.2016
v 14.9709 397.6119 -126.2981
v 14.9709 397.6119 -126.2981
v 30.0477 345.5707 -126.2016
v 6.7288 395.2513 -121.3477
v 30.0477 345.5707 -126.2016
v 21.8108 343.1926 -121.2512
v 6.7288 395.2513 -121.3477
v 6.7288 395.2513 -121.3477
v 21.8108 343.1926 -121.2512
v 6.7177 395.2916 -111.4478
v 21.8108 343.1926 -121.2512
v 21.8067 343.2084 -111.3512
v 6.7177 395.2916 -111.4478
v 6.7177 395.2916 -111.4478
v 21.8067 343.2084 -111.3512
v 14.9486 397.6924 -106.4983
v 21.8067 343.2084 -111.3512
v 30.0396 345.6024 -106.4016
v 14.9486 397.6924 -106.4983
v 30.0396 345.6024 -106.4016
v 45.0359 293.6268 -106.0723
v 38.2766 347.9805 -111.3520
v 45.0359 293.6268 -106.0723
v 53.2948 295.9291 -111.0222
v 38.2766 347.9805 -111.3520
v 38.2766 347.9805 -111.3520
v 53.2948 295.9291 -111.0222
v 38.2807 347.9647 -121.2520
v 53.2948 295.9291 -111.0222
v 53.3292 295.8080 -120.9214
v 38.2807 347.9647 -121.2520
v 38.2807 347.9647 -121.2520
v 53.3292 295.8080 -120.9214
v 30.0477 345.5707 -126.2016
v 53.3292 295.8080 -120.9214
v 45.1048 293.3846 -125.8708
v 30.0477 345.5707 -126.2016
v 30.0477 345.5707 -126.2016
v 45.1048 293.3846 -125.8708
v 21.8108 343.1926 -121.2512
v 45.1048 293.3846 -125.8708
v 36.8459 291.0822 -120.9209
v 21.8108 343.1926 -121.2512
v 21.8108 343.1926 -121.2512
v 36.8459 291.0822 -120.9209
v 21.8067 343.2084 -111.3512
v 36.8459 291.0822 -120.9209
v 36.8115 291.2034 -111.0217
v 21.8067 343.2084 -111.3512
v 21.8067 343.2084 -111.3512
v 36.8115 291.2034 -111.0217
v 30.0396 345.6024 -106.4016
v 36.8115 291.2034 -111.0217
v 45.0359 293.6268 -106.0723
v 30.0396 345.6024 -106.4016
v 45.0359 293.6268 -106.0723
v 59.7682 241.7137 -104.8123
v 53.2948 295.9291 -111.0222
v 59.7682 241.7137 -104.8123
v 68.0717 243.8583 -109.7582
v 53.2948 295.9291 -111.0222
v 53.2948 295.9291 -111.0222
v 68.0717 243.8583 -109.7582
v 53.3292 295.8080 -120.9214
v 68.0717 243.8583 -109.7582
v 68.1683 243.5181 -119.6519
v 53.3292 295.8080 -120.9214
v 53.3292 295.8080 -120.9214
v 68.1683 243.5181 -119.6519
v 45.1048 293.3846 -125.8708
v 68.1683 243.5181 -119.6519
v 59.9613 241.0333 -124.5997
v 45.1048 293.3846 -125.8708
v 45.1048 293.3846 -125.8708
v 59.9613 241.0333 -124.5997
v 36.8459 291.0822 -120.9209
v 59.9613 241.0333 -124.5997
v 51.6577 238.8887 -119.6538
v 36.8459 291.0822 -120.9209
v 36.8459 291.0822 -120.9209
v 51.6577 238.8887 -119.6538
v 36.8115 291.2034 -111.0217
v 51.6577 238.8887 -119.6538
v 51.5612 239.2289 -109.7601
v 36.8115 291.2034 -111.0217
v 36.8115 291.2034 -111.0217
v 51.5612 239.2289 -109.7601
v 45.0359 293.6268 -106.0723
v 51.5612 239.2289 -109.7601
v 59.7682 241.7137 -104.8123
v 45.0359 293.6268 -106.0723
v 59.7682 241.7137 -104.8123
v 74.0969 189.8363 -102.0644
v 68.0717 243.8583 -109.7582
v 74.0969 189.8363 -102.0644
v 82.4605 191.7633 -106.9986
v 68.0717 243.8583 -109.7582
v 68.0717 243.8583 -109.7582
v 82.4605 191.7633 -106.9986
v 68.1683 243.5181 -119.6519
v 82.4605 191.7633 -106.9986
v 82.6405 191.1208 -116.8761
v 68.1683 243.5181 -119.6519
v 68.1683 243.5181 -119.6519
v 82.6405 191.1208 -116.8761
v 59.9613 241.0333 -124.5997
v 82.6405 191.1208 -116.8761
v 74.4569 188.5513 -121.8194
v 59.9613 241.0333 -124.5997
v 59.9613 241.0333 -124.5997
v 74.4569 188.5513 -121.8194
v 51.6577 238.8887 -119.6538
v 74.4569 188.5513 -121.8194
v 66.0933 186.6242 -116.8851
v 51.6577 238.8887 -119.6538
v 51.6577 238.8887 -119.6538
v 66.0933 186.6242 -116.8851
v 51.5612 239.2289 -109.7601
v 66.0933 186.6242 -116.8851
v 65.9133 187.2668 -107.0076
v 51.5612 239.2289 -109.7601
v 51.5612 239.2289 -109.7601
v 65.9133 187.2668 -107.0076
v 59.7682 241.7137 -104.8123
v 65.9133 187.2668 -107.0076
v 74.0969 189.8363 -102.0644
v 59.7682 241.7137 -104.8123
v 74.0969 189.8363 -102.0644
v 87.9630 137.9473 -97.5526
v 82.4605 191.7633 -106.9986
v 87.9630 137.9473 -97.5526
v 96.3833 139.6624 -102.4687
v 82.4605 191.7633 -106.9986
v 82.4605 191.7633 -106.9986
v 96.3833 139.6624 -102.4687
v 82.6405 191.1208 -116.8761
v 96.3833 139.6624 -102.4687
v 96.6420 138.7256 -112.3208
v 82.6405 191.1208 -116.8761
v 82.6405 191.1208 -116.8761
v 96.6420 138.7256 -112.3208
v 74.4569 188.5513 -121.8194
v 96.6420 138.7256 -112.3208
v 88.4804 136.0736 -117.2570
v 74.4569 188.5513 -121.8194
v 74.4569 188.5513 -121.8194
v 88.4804 136.0736 -117.2570
v 66.0933 186.6242 -116.8851
v 88.4804 136.0736 -117.2570
v 80.0601 134.3584 -112.3410
v 66.0933 186.6242 -116.8851
v 66.0933 186.6242 -116.8851
v 80.0601 134.3584 -112.3410
v 65.9133 187.2668 -107.0076
v 80.0601 134.3584 -112.3410
v 79.8014 135.2953 -102.4888
v 65.9133 187.2668 -107.0076
v 65.9133 187.2668 -107.0076
v 79.8014 135.2953 -102.4888
v 74.0969 189.8363 -102.0644
v 79.8014 135.2953 -102.4888
v 87.9630 137.9473 -97.5526
v 74.0969 189.8363 -102.0644
v 87.9630 137.9473 -97.5526
v 101.4792 86.0002 -91.6531
v 96.3833 139.6624 -102.4687
v 101.4792 86.0002 -91.6531
v 109.9367 87.5725 -96.5529
v 96.3833 139.6624 -102.4687
v 96.3833 139.6624 -102.4687
v 109.9367 87.5725 -96.5529
v 96.6420 138.7256 -112.3208
v 109.9367 87.5725 -96.5529
v 110.2471 86.4371 -106.3827
v 96.6420 138.7256 -112.3208
v 96.6420 138.7256 -112.3208
v 110.2471 86.4371 -106.3827
v 88.4804 136.0736 -117.2570
v 110.2471 86.4371 -106.3827
v 102.1000 83.7295 -111.3126
v 88.4804 136.0736 -117.2570
v 88.4804 136.0736 -117.2570
v 102.1000 83.7295 -111.3126
v 80.0601 134.3584 -112.3410
v 102.1000 83.7295 -111.3126
v 93.6425 82.1572 -106.4127
v 80.0601 134.3584 -112.3410
v 80.0601 134.3584 -112.3410
v 93.6425 82.1572 -106.4127
v 79.8014 135.2953 -102.4888
v 93.6425 82.1572 -106.4127
v 93.3321 83.2926 -96.5829
v 79.8014 135.2953 -102.4888
v 79.8014 135.2953 -102.4888
v 93.3321 83.2926 -96.5829
v 87.9630 137.9473 -97.5526
v 93.3321 83.2926 -96.5829
v 101.4792 86.0002 -91.6531
v 87.9630 137.9473 -97.5526
v 101.4792 86.0002 -91.6531
v 114.7628 34.0246 -84.8419
v 109.9367 87.5725 -96.5529
v 114.7628 34.0246 -84.8419
v 123.2433 35.5071 -89.7300
v 109.9367 87.5725 -96.5529
v 109.9367 87.5725 -96.5529
v 123.2433 35.5071 -89.7300
v 110.2471 86.4371 -106.3827
v 123.2433 35.5071 -89.7300
v 123.5856 34.2470 -99.5435
v 110.2471 86.4371 -106.3827
v 110.2471 86.4371 -106.3827
v 123.5856 34.2470 -99.5435
v 102.1000 83.7295 -111.3126
v 123.5856 34.2470 -99.5435
v 115.4474 31.5044 -104.4689
v 102.1000 83.7295 -111.3126
v 102.1000 83.7295 -111.3126
v 115.4474 31.5044 -104.4689
v 93.6425 82.1572 -106.4127
v 115.4474 31.5044 -104.4689
v 106.9670 30.0219 -99.5807
v 93.6425 82.1572 -106.4127
v 93.6425 82.1572 -106.4127
v 106.9670 30.0219 -99.5807
v 93.3321 83.2926 -96.5829
v 106.9670 30.0219 -99.5807
v 106.6247 31.2820 -89.7672
v 93.3321 83.2926 -96.5829
v 93.3321 83.2926 -96.5829
v 106.6247 31.2820 -89.7672
v 101.4792 86.0002 -91.6531
v 106.6247 31.2820 -89.7672
v 114.7628 34.0246 -84.8419
v 101.4792 86.0002 -91.6531
v 114.7628 34.0246 -84.8419
v 127.9128 -17.9783 -77.4950
v 123.2433 35.5071 -89.7300
v 127.9128 -17.9783 -77.4950
v 136.4049 -16.5418 -82.3767
v 123.2433 35.5071 -89.7300
v 123.2433 35.5071 -89.7300
v 136.4049 -16.5418 -82.3767
v 123.5856 34.2470 -99.5435
v 136.4049 -16.5418 -82.3767
v 136.7634 -17.8659 -92.1812
v 123.5856 34.2470 -99.5435
v 123.5856 34.2470 -99.5435
v 136.7634 -17.8659 -92.1812
v 115.4474 31.5044 -104.4689
v 136.7634 -17.8659 -92.1812
v 128.6298 -20.6264 -97.1040
v 115.4474 31.5044 -104.4689
v 115.4474 31.5044 -104.4689
v 128.6298 -20.6264 -97.1040
v 106.9670 30.0219 -99.5807
v 128.6298 -20.6264 -97.1040
v 120.1377 -22.0628 -92.2223
v 106.9670 30.0219 -99.5807
v 106.9670 30.0219 -99.5807
v 120.1377 -22.0628 -92.2223
v 106.6247 31.2820 -89.7672
v 120.1377 -22.0628 -92.2223
v 119.7792 -20.7388 -82.4178
v 106.6247 31.2820 -89.7672
v 106.6247 31.2820 -89.7672
v 119.7792 -20.7388 -82.4178
v 114.7628 34.0246 -84.8419
v 119.7792 -20.7388 -82.4178
v 127.9128 -17.9783 -77.4950
v 114.7628 34.0246 -84.8419
v 127.9128 -17.9783 -77.4950
v 141.0182 -70.0211 -69.9353
v 136.4049 -16.5418 -82.3767
v 141.0182 -70.0211 -69.9353
v 149.5119 -68.5913 -74.8160
v 136.4049 -16.5418 -82.3767
v 136.4049 -16.5418 -82.3767
v 149.5119 -68.5913 -74.8160
v 136.7634 -17.8659 -92.1812
v 149.5119 -68.5913 -74.8160
v 149.8728 -69.9247 -84.6192
v 136.7634 -17.8659 -92.1812
v 136.7634 -17.8659 -92.1812
v 149.8728 -69.9247 -84.6192
v 128.6298 -20.6264 -97.1040
v 149.8728 -69.9247 -84.6192
v 141.7398 -72.6878 -89.5416
v 128.6298 -20.6264 -97.1040
v 128.6298 -20.6264 -97.1040
v 141.7398 -72.6878 -89.5416
v 120.1377 -22.0628 -92.2223
v 141.7398 -72.6878 -89.5416
v 133.2460 -74.1176 -84.6609
v 120.1377 -22.0628 -92.2223
v 120.1377 -22.0628 -92.2223
v 133.2460 -74.1176 -84.6609
v 119.7792 -20.7388 -82.4178
v 133.2460 -74.1176 -84.6609
v 132.8852 -72.7842 -74.8577
v 119.7792 -20.7388 -82.4178
v 119.7792 -20.7388 -82.4178
v 132.8852 -72.7842 -74.8577
v 127.9128 -17.9783 -77.4950
v 132.8852 -72.7842 -74.8577
v 141.0182 -70.0211 -69.9353
v 127.9128 -17.9783 -77.4950
v 141.0182 -70.0211 -69.9353
v 154.1652 -122.1249 -62.4662
v 149.5119 -68.5913 -74.8160
v 154.1652 -122.1249 -62.4662
v 162.6509 -120.6631 -67.3515
v 149.5119 -68.5913 -74.8160
v 149.5119 -68.5913 -74.8160
v 162.6509 -120.6631 -67.3515
v 149.8728 -69.9247 -84.6192
v 162.6509 -120.6631 -67.3515
v 163.0005 -121.9520 -77.1610
v 149.8728 -69.9247 -84.6192
v 149.8728 -69.9247 -84.6192
v 163.0005 -121.9520 -77.1610
v 141.7398 -72.6878 -89.5416
v 163.0005 -121.9520 -77.1610
v 154.8644 -124.7027 -82.0853
v 141.7398 -72.6878 -89.5416
v 141.7398 -72.6878 -89.5416
v 154.8644 -124.7027 -82.0853
v 133.2460 -74.1176 -84.6609
v 154.8644 -124.7027 -82.0853
v 146.3787 -126.1645 -77.2000
v 133.2460 -74.1176 -84.6609
v 133.2460 -74.1176 -84.6609
v 146.3787 -126.1645 -77.2000
v 132.8852 -72.7842 -74.8577
v 146.3787 -126.1645 -77.2000
v 146.0291 -124.8755 -67.3904
v 132.8852 -72.7842 -74.8577
v 132.8852 -72.7842 -74.8577
v 146.0291 -124.8755 -67.3904
v 141.0182 -70.0211 -69.9353
v 146.0291 -124.8755 -67.3904
v 154.1652 -122.1249 -62.4662
v 141.0182 -70.0211 -69.9353
v 154.1652 -122.1249 -62.4662
v 167.4435 -174.3134 -55.4011
v 162.6509 -120.6631 -67.3515
v 167.4435 -174.3134 -55.4011
v 175.9104 -172.7780 -60.2963
v 162.6509 -120.6631 -67.3515
v 162.6509 -120.6631 -67.3515
v 175.9104 -172.7780 -60.2963
v 163.0005 -121.9520 -77.1610
v 175.9104 -172.7780 -60.2963
v 176.2340 -173.9646 -70.1196
v 163.0005 -121.9520 -77.1610
v 163.0005 -121.9520 -77.1610
v 176.2340 -173.9646 -70.1196
v 154.8644 -124.7027 -82.0853
v 176.2340 -173.9646 -70.1196
v 168.0906 -176.6866 -75.0477
v 154.8644 -124.7027 -82.0853
v 154.8644 -124.7027 -82.0853
v 168.0906 -176.6866 -75.0477
v 146.3787 -126.1645 -77.2000
v 168.0906 -176.6866 -75.0477
v 159.6236 -178.2220 -70.1525
v 146.3787 -126.1645 -77.2000
v 146.3787 -126.1645 -77.2000
v 159.6236 -178.2220 -70.1525
v 146.0291 -124.8755 -67.3904
v 159.6236 -178.2220 -70.1525
v 159.3001 -177.0354 -60.3292
v 146.0291 -124.8755 -67.3904
v 146.0291 -124.8755 -67.3904
v 159.3001 -177.0354 -60.3292
v 154.1652 -122.1249 -62.4662
v 159.3001 -177.0354 -60.3292
v 167.4435 -174.3134 -55.4011
v 154.1652 -122.1249 -62.4662
f 1 2 3
f 4 5 6
f 7 8 9
f 10 11 12
f 13 14 15
f 16 17 18
f 19 20 21
f 22 23 24
f 25 26 27
f 28 29 30
f 31 32 33
f 34 35 36
f 37 38 39
f 40 41 42
f 43 44 45
f 46 47 48
f 49 50 51
f 52 53 54
f 55 56 57
f 58 59 60
f 61 62 63
f 64 65 66
f 67 68 69
f 70 71 72
f 73 74 75
f 76 77 78
f 79 80 81
f 82 83 84
f 85 86 87
f 88 89 90
f 91 92 93
f 94 95 96
f 97 98 99
f 100 101 102
f 103 104 105
f 106 107 108
f 109 110 111
f 112 113 114
f 115 116 117
f 118 119 120
f 121 122 123
f 124 125 126
f 127 128 129
f 130 131 132
f 133 134 135
f 136 137 138
f 139 140 141
f 142 143 144
f 145 146 147
f 148 149 150
f 151 152 153
f 154 155 156
f 157 158 159
f 160 161 162
f 163 164 165
f 166 167 168
f 169 170 171
f 172 173 174
f 175 176 177
f 178 179 180
f 181 182 183
f 184 185 186
f 187 188 189
f 190 191 192
f 193 194 195
f 196 197 198
f 199 200 201
f 202 203 204
f 205 206 207
f 208 209 210
f 211 212 213
f 214 215 216
f 217 218 219
f 220 221 222
f 223 224 225
f 226 227 228
f 229 230 231
f 232 233 234
f 235 236 237
f 238 239 240
f 241 242 243
f 244 245 246
f 247 248 249
f 250 251 252
f 253 254 255
f 256 257 258
f 259 260 261
f 262 263 264
f 265 266 267
f 268 269 270
f 271 272 273
f 274 275 276
f 277 278 279
f 280 281 282
f 283 284 285
f 286 287 288
f 289 290 291
f 292 293 294
f 295 296 297
f 298 299 300
f 301 302 303
f 304 305 306
f 307 308 309
f 310 311 312
f 313 314 315
f 316 317 318
f 319 320 321
f 322 323 324
f 325 326 327
f 328 329 330
f 331 332 333
f 334 335 336
f 337 338 339
f 340 341 342
f 343 344 345
f 346 347 348
f 349 350 351
f 352 353 354
f 355 356 357
f 358 359 360
f 361 362 363
f 364 365 366
f 367 368 369
f 370 371 372
f 373 374 375
f 376 377 378
f 379 380 381
f 382 383 384
f 385 386 387
f 388 389 390
f 391 392 393
f 394 395 396
f 397 398 399
f 400 401 402
f 403 404 405
f 406 407 408
f 409 410 411
f 412 413 414
f 415 416 417
f 418 419 420
f 421 422 423
f 424 425 426
f 427 428 429
f 430 431 432
f 433 434 435
f 436 437 438
f 439 440 441
f 442 443 444
f 445 446 447
f 448 449 450
f 451 452 453
f 454 455 456
f 457 458 459
f 460 461 462
f 463 464 465
f 466 467 468
f 469 470 471
f 472 473 474
f 475 476 477
f 478 479 480
f 481 482 483
f 484 485 486
f 487 488 489
f 490 491 492
f 493 494 495
f 496 497 498
f 499 500 501
f 502 503 504
f 505 506 507
f 508 509 510
f 511 512 513
f 514 515 516
f 517 518 519
f 520 521 522
f 523 524 525
f 526 527 528
f 529 530 531
f 532 533 534
f 535 536 537
f 538 539 540
f 541 542 543
f 544 545 546
f 547 548 549
f 550 551 552
f 553 554 555
f 556 557 558
f 559 560 561
f 562 563 564
f 565 566 567
f 568 569 570
f 571 572 573
f 574 575 576
f 577 578 579
f 580 581 582
f 583 584 585
f 586 587 588
f 589 590 591
f 592 593 594
f 595 596 597
f 598 599 600
f 601 602 603
f 604 605 606
f 607 608 609
f 610 611 612
f 613 614 615
f 616 617 618
f 619 620 621
f 622 623 624
f 625 626 627
f 628 629 630
f 631 632 633
f 634 635 636
f 637 638 639
f 640 641 642
f 643 644 645
f 646 647 648
f 649 650 651
f 652 653 654
f 655 656 657
f 658 659 660
f 661 662 663
f 664 665 666
f 667 668 669
f 670 671 672
f 673 674 675
f 676 677 678
f 679 680 681
f 682 683 684
f 685 686 687
f 688 689 690
f 691 692 693
f 694 695 696
f 697 698 699
f 700 701 702
f 703 704 705
f 706 707 708
f 709 710 711
f 712 713 714
f 715 716 717
f 718 719 720
f 721 722 723
f 724 725 726
f 727 728 729
f 730 731 732
f 733 734 735
f 736 737 738
f 739 740 741
f 742 743 744
f 745 746 747
f 748 749 750
f 751 752 753
f 754 755 756
f 757 758 759
f 760 761 762
f 763 764 765
f 766 767 768
f 769 770 771
f 772 773 774
f 775 776 777
f 778 779 780
f 781 782 783
f 784 785 786
f 787 788 789
f 790 791 792
f 793 794 795
f 796 797 798
f 799 800 801
f 802 803 804
f 805 806 807
f 808 809 810
f 811 812 813
f 814 815 816
f 817 818 819
f 820 821 822
f 823 824 825
f 826 827 828
f 829 830 831
f 832 833 834
f 835 836 837
f 838 839 840
f 841 842 843
f 844 845 846
f 847 848 849
f 850 851 852
f 853 854 855
f 856 857 858
f 859 860 861
f 862 863 864
f 865 866 867
f 868 869 870
f 871 872 873
f 874 875 876
f 877 878 879
f 880 881 882
f 883 884 885
f 886 887 888
f 889 890 891
f 892 893 894
f 895 896 897
f 898 899 900
f 901 902 903
f 904 905 906
f 907 908 909
f 910 911 912
f 913 914 915
f 916 917 918
f 919 920 921
f 922 923 924
f 925 926 927
f 928 929 930
f 931 932 933
f 934 935 936
f 937 938 939
f 940 941 942
f 943 944 945
f 946 947 948
f 949 950 951
f 952 953 954
f 955 956 957
f 958 959 960
f 961 962 963
f 964 965 966
f 967 968 969
f 970 971 972
f 973 974 975
f 976 977 978
f 979 980 981
f 982 983 984
f 985 986 987
f 988 989 990
f 991 992 993
f 994 995 996
f 997 998 999
f 1000 1001 1002
f 1003 1004 1005
f 1006 1007 1008
f 1009 1010 1011
f 1012 1013 1014
f 1015 1016 1017
f 1018 1019 1020
f 1021 1022 1023
f 1024 1025 1026
f 1027 1028 1029
f 1030 1031 1032
f 1033 1034 1035
f 1036 1037 1038
f 1039 1040 1041
f 1042 1043 1044
f 1045 1046 1047
f 1048 1049 1050
f 1051 1052 1053
f 1054 1055 1056
f 1057 1058 1059
f 1060 1061 1062
f 1063 1064 1065
f 1066 1067 1068
f 1069 1070 1071
f 1072 1073 1074
f 1075 1076 1077
f 1078 1079 1080
f 1081 1082 1083
f 1084 1085 1086
f 1087 1088 1089
f 1090 1091 1092
f 1093 1094 1095
f 1096 1097 1098
f 1099 1100 1101
f 1102 1103 1104
f 1105 1106 1107
f 1108 1109 1110
f 1111 1112 1113
f 1114 1115 1116
f 1117 1118 1119
f 1120 1121 1122
f 1123 1124 1125
f 1126 1127 1128
f 1129 1130 1131
f 1132 1133 1134
f 1135 1136 1137
f 1138 1139 1140
f 1141 1142 1143
f 1144 1145 1146
f 1147 1148 1149
f 1150 1151 1152
f 1153 1154 1155
f 1156 1157 1158
f 1159 1160 1161
f 1162 1163 1164
f 1165 1166 1167
f 1168 1169 1170
f 1171 1172 1173
f 1174 1175 1176
f 1177 1178 1179
f 1180 1181 1182
f 1183 1184 1185
f 1186 1187 1188
f 1189 1190 1191
f 1192 1193 1194
f 1195 1196 1197
f 1198 1199 1200
f 1201 1202 1203
f 1204 1205 1206
f 1207 1208 1209
f 1210 1211 1212
f 1213 1214 1215
f 1216 1217 1218
f 1219 1220 1221
f 1222 1223 1224
f 1225 1226 1227
f 1228 1229 1230
f 1231 1232 1233
f 1234 1235 1236
f 1237 1238 1239
f 1240 1241 1242
f 1243 1244 1245
f 1246 1247 1248
f 1249 1250 1251
f 1252 1253 1254
f 1255 1256 1257
f 1258 1259 1260
f 1261 1262 1263
f 1264 1265 1266
f 1267 1268 1269
f 1270 1271 1272
f 1273 1274 1275
f 1276 1277 1278
f 1279 1280 1281
f 1282 1283 1284
f 1285 1286 1287
f 1288 1289 1290
f 1291 1292 1293
f 1294 1295 1296
f 1297 1298 1299
f 1300 1301 1302
f 1303 1304 1305
f 1306 1307 1308
f 1309 1310 1311
f 1312 1313 1314
f 1315 1316 1317
f 1318 1319 1320
f 1321 1322 1323
f 1324 1325 1326
f 1327 1328 1329
f 1330 1331 1332
f 1333 1334 1335
f 1336 1337 1338
f 1339 1340 1341
f 1342 1343 1344
f 1345 1346 1347
f 1348 1349 1350
f 1351 1352 1353
f 1354 1355 1356
f 1357 1358 1359
f 1360 1361 1362
f 1363 1364 1365
f 1366 1367 1368
f 1369 1370 1371
f 1372 1373 1374
f 1375 1376 1377
f 1378 1379 1380
f 1381 1382 1383
f 1384 1385 1386
f 1387 1388 1389
f 1390 1391 1392
f 1393 1394 1395
f 1396 1397 1398
f 1399 1400 1401
f 1402 1403 1404
f 1405 1406 1407
f 1408 1409 1410
f 1411 1412 1413
f 1414 1415 1416
f 1417 1418 1419
f 1420 1421 1422
f 1423 1424 1425
f 1426 1427 1428
f 1429 1430 1431
f 1432 1433 1434
f 1435 1436 1437
f 1438 1439 1440
f 1441 1442 1443
f 1444 1445 1446
f 1447 1448 1449
f 1450 1451 1452
f 1453 1454 1455
f 1456 1457 1458
f 1459 1460 1461
f 1462 1463 1464
f 1465 1466 1467
f 1468 1469 1470
f 1471 1472 1473
f 1474 1475 1476
f 1477 1478 1479
f 1480 1481 1482
f 1483 1484 1485
f 1486 1487 1488
f 1489 1490 1491
f 1492 1493 1494
f 1495 1496 1497
f 1498 1499 1500
f 1501 1502 1503
f 1504 1505 1506
f 1507 1508 1509
f 1510 1511 1512
f 1513 1514 1515
f 1516 1517 1518
f 1519 1520 1521
f 1522 1523 1524
f 1525 1526 1527
f 1528 1529 1530
f 1531 1532 1533
f 1534 1535 1536
f 1537 1538 1539
f 1540 1541 1542
f 1543 1544 1545
f 1546 1547 1548
f 1549 1550 1551
f 1552 1553 1554
f 1555 1556 1557
f 1558 1559 1560
f 1561 1562 1563
f 1564 1565 1566
f 1567 1568 1569
f 1570 1571 1572
f 1573 1574 1575
f 1576 1577 1578
f 1579 1580 1581
f 1582 1583 1584
f 1585 1586 1587
f 1588 1589 1590
f 1591 1592 1593
f 1594 1595 1596
f 1597 1598 1599
f 1600 1601 1602
f 1603 1604 1605
f 1606 1607 1608
f 1609 1610 1611
f 1612 1613 1614
f 1615 1616 1617
f 1618 1619 1620
f 1621 1622 1623
f 1624 1625 1626
f 1627 1628 1629
f 1630 1631 1632
f 1633 1634 1635
f 1636 1637 1638
f 1639 1640 1641
f 1642 1643 1644
f 1645 1646 1647
f 1648 1649 1650
f 1651 1652 1653
f 1654 1655 1656
f 1657 1658 1659
f 1660 1661 1662
f 1663 1664 1665
f 1666 1667 1668
f 1669 1670 1671
f 1672 1673 1674
f 1675 1676 1677
f 1678 1679 1680
f 1681 1682 1683
f 1684 1685 1686
f 1687 1688 1689
f 1690 1691 1692
f 1693 1694 1695
f 1696 1697 1698
f 1699 1700 1701
f 1702 1703 1704
f 1705 1706 1707
f 1708 1709 1710
f 1711 1712 1713
f 1714 1715 1716
f 1717 1718 1719
f 1720 1721 1722
f 1723 1724 1725
f 1726 1727 1728
f 1729 1730 1731
f 1732 1733 1734
f 1735 1736 1737
f 1738 1739 1740
f 1741 1742 1743
f 1744 1745 1746
f 1747 1748 1749
f 1750 1751 1752
f 1753 1754 1755
f 1756 1757 1758
f 1759 1760 1761
f 1762 1763 1764
f 1765 1766 1767
f 1768 1769 1770
f 1771 1772 1773
f 1774 1775 1776
f 1777 1778 1779
f 1780 1781 1782
f 1783 1784 1785
f 1786 1787 1788
f 1789 1790 1791
f 1792 1793 1794
f 1795 1796 1797
f 1798 1799 1800
f 1801 1802 1803
f 1804 1805 1806
f 1807 1808 1809
f 1810 1811 1812
f 1813 1814 1815
f 1816 1817 1818
f 1819 1820 1821
f 1822 1823 1824
f 1825 1826 1827
f 1828 1829 1830
f 1831 1832 1833
f 1834 1835 1836
f 1837 1838 1839
f 1840 1841 1842
f 1843 1844 1845
f 1846 1847 1848
f 1849 1850 1851
f 1852 1853 1854
f 1855 1856 1857
f 1858 1859 1860
f 1861 1862 1863
f 1864 1865 1866
f 1867 1868 1869
f 1870 1871 1872
