# MATERIA - Bedrock Plank
# Geometria originale di studio. Unita mm. Non CAD del produttore.
v 1100.0000 546.6500 530.0000
v 1100.0000 488.3500 530.0000
v 1100.0000 546.6500 -530.0000
v 1100.0000 488.3500 530.0000
v 1100.0000 488.3500 -530.0000
v 1100.0000 546.6500 -530.0000
v -1100.0000 546.6500 -530.0000
v -1100.0000 488.3500 -530.0000
v -1100.0000 546.6500 530.0000
v -1100.0000 488.3500 -530.0000
v -1100.0000 488.3500 530.0000
v -1100.0000 546.6500 530.0000
v -1100.0000 546.6500 -530.0000
v -1100.0000 546.6500 530.0000
v 1100.0000 546.6500 -530.0000
v -1100.0000 546.6500 530.0000
v 1100.0000 546.6500 530.0000
v 1100.0000 546.6500 -530.0000
v -1100.0000 488.3500 530.0000
v -1100.0000 488.3500 -530.0000
v 1100.0000 488.3500 530.0000
v -1100.0000 488.3500 -530.0000
v 1100.0000 488.3500 -530.0000
v 1100.0000 488.3500 530.0000
v -1100.0000 546.6500 530.0000
v -1100.0000 488.3500 530.0000
v 1100.0000 546.6500 530.0000
v -1100.0000 488.3500 530.0000
v 1100.0000 488.3500 530.0000
v 1100.0000 546.6500 530.0000
v 1100.0000 546.6500 -530.0000
v 1100.0000 488.3500 -530.0000
v -1100.0000 546.6500 -530.0000
v 1100.0000 488.3500 -530.0000
v -1100.0000 488.3500 -530.0000
v -1100.0000 546.6500 -530.0000
v -1508.0329 -47.8927 -677.1274
v -1405.0729 625.4673 -627.5194
v -1513.9162 -45.9792 -690.8900
v -1405.0729 625.4673 -627.5194
v -1410.9562 627.3808 -641.2820
v -1513.9162 -45.9792 -690.8900
v -1513.9162 -45.9792 -690.8900
v -1410.9562 627.3808 -641.2820
v -1512.1575 -45.1458 -705.8531
v -1410.9562 627.3808 -641.2820
v -1409.1975 628.2142 -656.2451
v -1512.1575 -45.1458 -705.8531
v -1512.1575 -45.1458 -705.8531
v -1409.1975 628.2142 -656.2451
v -1503.2281 -45.6157 -718.0075
v -1409.1975 628.2142 -656.2451
v -1400.2681 627.7443 -668.3995
v -1503.2281 -45.6157 -718.0075
v -1503.2281 -45.6157 -718.0075
v -1400.2681 627.7443 -668.3995
v -1489.5207 -47.2630 -724.0963
v -1400.2681 627.7443 -668.3995
v -1386.5607 626.0970 -674.4883
v -1489.5207 -47.2630 -724.0963
v -1489.5207 -47.2630 -724.0963
v -1386.5607 626.0970 -674.4883
v -1474.7080 -49.6464 -722.4881
v -1386.5607 626.0970 -674.4883
v -1371.7480 623.7136 -672.8801
v -1474.7080 -49.6464 -722.4881
v -1474.7080 -49.6464 -722.4881
v -1371.7480 623.7136 -672.8801
v -1462.7591 -52.1273 -713.6138
v -1371.7480 623.7136 -672.8801
v -1359.7991 621.2327 -664.0058
v -1462.7591 -52.1273 -713.6138
v -1462.7591 -52.1273 -713.6138
v -1359.7991 621.2327 -664.0058
v -1456.8758 -54.0408 -699.8512
v -1359.7991 621.2327 -664.0058
v -1353.9158 619.3192 -650.2432
v -1456.8758 -54.0408 -699.8512
v -1456.8758 -54.0408 -699.8512
v -1353.9158 619.3192 -650.2432
v -1458.6345 -54.8742 -684.8881
v -1353.9158 619.3192 -650.2432
v -1355.6745 618.4858 -635.2801
v -1458.6345 -54.8742 -684.8881
v -1458.6345 -54.8742 -684.8881
v -1355.6745 618.4858 -635.2801
v -1467.5639 -54.4043 -672.7337
v -1355.6745 618.4858 -635.2801
v -1364.6039 618.9557 -623.1257
v -1467.5639 -54.4043 -672.7337
v -1467.5639 -54.4043 -672.7337
v -1364.6039 618.9557 -623.1257
v -1481.2713 -52.7570 -666.6449
v -1364.6039 618.9557 -623.1257
v -1378.3113 620.6030 -617.0369
v -1481.2713 -52.7570 -666.6449
v -1481.2713 -52.7570 -666.6449
v -1378.3113 620.6030 -617.0369
v -1496.0840 -50.3736 -668.2531
v -1378.3113 620.6030 -617.0369
v -1393.1240 622.9864 -618.6451
v -1496.0840 -50.3736 -668.2531
v -1496.0840 -50.3736 -668.2531
v -1393.1240 622.9864 -618.6451
v -1508.0329 -47.8927 -677.1274
v -1393.1240 622.9864 -618.6451
v -1405.0729 625.4673 -627.5194
v -1508.0329 -47.8927 -677.1274
v -1508.0329 -47.8927 -677.1274
v -1513.9162 -45.9792 -690.8900
v -1485.3960 -50.0100 -695.3706
v -1513.9162 -45.9792 -690.8900
v -1512.1575 -45.1458 -705.8531
v -1485.3960 -50.0100 -695.3706
v -1512.1575 -45.1458 -705.8531
v -1503.2281 -45.6157 -718.0075
v -1485.3960 -50.0100 -695.3706
v -1503.2281 -45.6157 -718.0075
v -1489.5207 -47.2630 -724.0963
v -1485.3960 -50.0100 -695.3706
v -1489.5207 -47.2630 -724.0963
v -1474.7080 -49.6464 -722.4881
v -1485.3960 -50.0100 -695.3706
v -1474.7080 -49.6464 -722.4881
v -1462.7591 -52.1273 -713.6138
v -1485.3960 -50.0100 -695.3706
v -1462.7591 -52.1273 -713.6138
v -1456.8758 -54.0408 -699.8512
v -1485.3960 -50.0100 -695.3706
v -1456.8758 -54.0408 -699.8512
v -1458.6345 -54.8742 -684.8881
v -1485.3960 -50.0100 -695.3706
v -1458.6345 -54.8742 -684.8881
v -1467.5639 -54.4043 -672.7337
v -1485.3960 -50.0100 -695.3706
v -1467.5639 -54.4043 -672.7337
v -1481.2713 -52.7570 -666.6449
v -1485.3960 -50.0100 -695.3706
v -1481.2713 -52.7570 -666.6449
v -1496.0840 -50.3736 -668.2531
v -1485.3960 -50.0100 -695.3706
v -1496.0840 -50.3736 -668.2531
v -1508.0329 -47.8927 -677.1274
v -1485.3960 -50.0100 -695.3706
v -1410.9562 627.3808 -641.2820
v -1405.0729 625.4673 -627.5194
v -1382.4360 623.3500 -645.7626
v -1409.1975 628.2142 -656.2451
v -1410.9562 627.3808 -641.2820
v -1382.4360 623.3500 -645.7626
v -1400.2681 627.7443 -668.3995
v -1409.1975 628.2142 -656.2451
v -1382.4360 623.3500 -645.7626
v -1386.5607 626.0970 -674.4883
v -1400.2681 627.7443 -668.3995
v -1382.4360 623.3500 -645.7626
v -1371.7480 623.7136 -672.8801
v -1386.5607 626.0970 -674.4883
v -1382.4360 623.3500 -645.7626
v -1359.7991 621.2327 -664.0058
v -1371.7480 623.7136 -672.8801
v -1382.4360 623.3500 -645.7626
v -1353.9158 619.3192 -650.2432
v -1359.7991 621.2327 -664.0058
v -1382.4360 623.3500 -645.7626
v -1355.6745 618.4858 -635.2801
v -1353.9158 619.3192 -650.2432
v -1382.4360 623.3500 -645.7626
v -1364.6039 618.9557 -623.1257
v -1355.6745 618.4858 -635.2801
v -1382.4360 623.3500 -645.7626
v -1378.3113 620.6030 -617.0369
v -1364.6039 618.9557 -623.1257
v -1382.4360 623.3500 -645.7626
v -1393.1240 622.9864 -618.6451
v -1378.3113 620.6030 -617.0369
v -1382.4360 623.3500 -645.7626
v -1405.0729 625.4673 -627.5194
v -1393.1240 622.9864 -618.6451
v -1382.4360 623.3500 -645.7626
v 1508.0329 87.1073 -677.1274
v 1405.0729 760.4673 -627.5194
v 1496.0840 84.6264 -668.2531
v 1405.0729 760.4673 -627.5194
v 1393.1240 757.9864 -618.6451
v 1496.0840 84.6264 -668.2531
v 1496.0840 84.6264 -668.2531
v 1393.1240 757.9864 -618.6451
v 1481.2713 82.2430 -666.6449
v 1393.1240 757.9864 -618.6451
v 1378.3113 755.6030 -617.0369
v 1481.2713 82.2430 -666.6449
v 1481.2713 82.2430 -666.6449
v 1378.3113 755.6030 -617.0369
v 1467.5639 80.5957 -672.7337
v 1378.3113 755.6030 -617.0369
v 1364.6039 753.9557 -623.1257
v 1467.5639 80.5957 -672.7337
v 1467.5639 80.5957 -672.7337
v 1364.6039 753.9557 -623.1257
v 1458.6345 80.1258 -684.8881
v 1364.6039 753.9557 -623.1257
v 1355.6745 753.4858 -635.2801
v 1458.6345 80.1258 -684.8881
v 1458.6345 80.1258 -684.8881
v 1355.6745 753.4858 -635.2801
v 1456.8758 80.9592 -699.8512
v 1355.6745 753.4858 -635.2801
v 1353.9158 754.3192 -650.2432
v 1456.8758 80.9592 -699.8512
v 1456.8758 80.9592 -699.8512
v 1353.9158 754.3192 -650.2432
v 1462.7591 82.8727 -713.6138
v 1353.9158 754.3192 -650.2432
v 1359.7991 756.2327 -664.0058
v 1462.7591 82.8727 -713.6138
v 1462.7591 82.8727 -713.6138
v 1359.7991 756.2327 -664.0058
v 1474.7080 85.3536 -722.4881
v 1359.7991 756.2327 -664.0058
v 1371.7480 758.7136 -672.8801
v 1474.7080 85.3536 -722.4881
v 1474.7080 85.3536 -722.4881
v 1371.7480 758.7136 -672.8801
v 1489.5207 87.7370 -724.0963
v 1371.7480 758.7136 -672.8801
v 1386.5607 761.0970 -674.4883
v 1489.5207 87.7370 -724.0963
v 1489.5207 87.7370 -724.0963
v 1386.5607 761.0970 -674.4883
v 1503.2281 89.3843 -718.0075
v 1386.5607 761.0970 -674.4883
v 1400.2681 762.7443 -668.3995
v 1503.2281 89.3843 -718.0075
v 1503.2281 89.3843 -718.0075
v 1400.2681 762.7443 -668.3995
v 1512.1575 89.8542 -705.8531
v 1400.2681 762.7443 -668.3995
v 1409.1975 763.2142 -656.2451
v 1512.1575 89.8542 -705.8531
v 1512.1575 89.8542 -705.8531
v 1409.1975 763.2142 -656.2451
v 1513.9162 89.0208 -690.8900
v 1409.1975 763.2142 -656.2451
v 1410.9562 762.3808 -641.2820
v 1513.9162 89.0208 -690.8900
v 1513.9162 89.0208 -690.8900
v 1410.9562 762.3808 -641.2820
v 1508.0329 87.1073 -677.1274
v 1410.9562 762.3808 -641.2820
v 1405.0729 760.4673 -627.5194
v 1508.0329 87.1073 -677.1274
v 1508.0329 87.1073 -677.1274
v 1496.0840 84.6264 -668.2531
v 1485.3960 84.9900 -695.3706
v 1496.0840 84.6264 -668.2531
v 1481.2713 82.2430 -666.6449
v 1485.3960 84.9900 -695.3706
v 1481.2713 82.2430 -666.6449
v 1467.5639 80.5957 -672.7337
v 1485.3960 84.9900 -695.3706
v 1467.5639 80.5957 -672.7337
v 1458.6345 80.1258 -684.8881
v 1485.3960 84.9900 -695.3706
v 1458.6345 80.1258 -684.8881
v 1456.8758 80.9592 -699.8512
v 1485.3960 84.9900 -695.3706
v 1456.8758 80.9592 -699.8512
v 1462.7591 82.8727 -713.6138
v 1485.3960 84.9900 -695.3706
v 1462.7591 82.8727 -713.6138
v 1474.7080 85.3536 -722.4881
v 1485.3960 84.9900 -695.3706
v 1474.7080 85.3536 -722.4881
v 1489.5207 87.7370 -724.0963
v 1485.3960 84.9900 -695.3706
v 1489.5207 87.7370 -724.0963
v 1503.2281 89.3843 -718.0075
v 1485.3960 84.9900 -695.3706
v 1503.2281 89.3843 -718.0075
v 1512.1575 89.8542 -705.8531
v 1485.3960 84.9900 -695.3706
v 1512.1575 89.8542 -705.8531
v 1513.9162 89.0208 -690.8900
v 1485.3960 84.9900 -695.3706
v 1513.9162 89.0208 -690.8900
v 1508.0329 87.1073 -677.1274
v 1485.3960 84.9900 -695.3706
v 1393.1240 757.9864 -618.6451
v 1405.0729 760.4673 -627.5194
v 1382.4360 758.3500 -645.7626
v 1378.3113 755.6030 -617.0369
v 1393.1240 757.9864 -618.6451
v 1382.4360 758.3500 -645.7626
v 1364.6039 753.9557 -623.1257
v 1378.3113 755.6030 -617.0369
v 1382.4360 758.3500 -645.7626
v 1355.6745 753.4858 -635.2801
v 1364.6039 753.9557 -623.1257
v 1382.4360 758.3500 -645.7626
v 1353.9158 754.3192 -650.2432
v 1355.6745 753.4858 -635.2801
v 1382.4360 758.3500 -645.7626
v 1359.7991 756.2327 -664.0058
v 1353.9158 754.3192 -650.2432
v 1382.4360 758.3500 -645.7626
v 1371.7480 758.7136 -672.8801
v 1359.7991 756.2327 -664.0058
v 1382.4360 758.3500 -645.7626
v 1386.5607 761.0970 -674.4883
v 1371.7480 758.7136 -672.8801
v 1382.4360 758.3500 -645.7626
v 1400.2681 762.7443 -668.3995
v 1386.5607 761.0970 -674.4883
v 1382.4360 758.3500 -645.7626
v 1409.1975 763.2142 -656.2451
v 1400.2681 762.7443 -668.3995
v 1382.4360 758.3500 -645.7626
v 1410.9562 762.3808 -641.2820
v 1409.1975 763.2142 -656.2451
v 1382.4360 758.3500 -645.7626
v 1405.0729 760.4673 -627.5194
v 1410.9562 762.3808 -641.2820
v 1382.4360 758.3500 -645.7626
v -1462.7591 217.8727 713.6138
v -1359.7991 891.2327 664.0058
v -1474.7080 220.3536 722.4881
v -1359.7991 891.2327 664.0058
v -1371.7480 893.7136 672.8801
v -1474.7080 220.3536 722.4881
v -1474.7080 220.3536 722.4881
v -1371.7480 893.7136 672.8801
v -1489.5207 222.7370 724.0963
v -1371.7480 893.7136 672.8801
v -1386.5607 896.0970 674.4883
v -1489.5207 222.7370 724.0963
v -1489.5207 222.7370 724.0963
v -1386.5607 896.0970 674.4883
v -1503.2281 224.3843 718.0075
v -1386.5607 896.0970 674.4883
v -1400.2681 897.7443 668.3995
v -1503.2281 224.3843 718.0075
v -1503.2281 224.3843 718.0075
v -1400.2681 897.7443 668.3995
v -1512.1575 224.8542 705.8531
v -1400.2681 897.7443 668.3995
v -1409.1975 898.2142 656.2451
v -1512.1575 224.8542 705.8531
v -1512.1575 224.8542 705.8531
v -1409.1975 898.2142 656.2451
v -1513.9162 224.0208 690.8900
v -1409.1975 898.2142 656.2451
v -1410.9562 897.3808 641.2820
v -1513.9162 224.0208 690.8900
v -1513.9162 224.0208 690.8900
v -1410.9562 897.3808 641.2820
v -1508.0329 222.1073 677.1274
v -1410.9562 897.3808 641.2820
v -1405.0729 895.4673 627.5194
v -1508.0329 222.1073 677.1274
v -1508.0329 222.1073 677.1274
v -1405.0729 895.4673 627.5194
v -1496.0840 219.6264 668.2531
v -1405.0729 895.4673 627.5194
v -1393.1240 892.9864 618.6451
v -1496.0840 219.6264 668.2531
v -1496.0840 219.6264 668.2531
v -1393.1240 892.9864 618.6451
v -1481.2713 217.2430 666.6449
v -1393.1240 892.9864 618.6451
v -1378.3113 890.6030 617.0369
v -1481.2713 217.2430 666.6449
v -1481.2713 217.2430 666.6449
v -1378.3113 890.6030 617.0369
v -1467.5639 215.5957 672.7337
v -1378.3113 890.6030 617.0369
v -1364.6039 888.9557 623.1257
v -1467.5639 215.5957 672.7337
v -1467.5639 215.5957 672.7337
v -1364.6039 888.9557 623.1257
v -1458.6345 215.1258 684.8881
v -1364.6039 888.9557 623.1257
v -1355.6745 888.4858 635.2801
v -1458.6345 215.1258 684.8881
v -1458.6345 215.1258 684.8881
v -1355.6745 888.4858 635.2801
v -1456.8758 215.9592 699.8512
v -1355.6745 888.4858 635.2801
v -1353.9158 889.3192 650.2432
v -1456.8758 215.9592 699.8512
v -1456.8758 215.9592 699.8512
v -1353.9158 889.3192 650.2432
v -1462.7591 217.8727 713.6138
v -1353.9158 889.3192 650.2432
v -1359.7991 891.2327 664.0058
v -1462.7591 217.8727 713.6138
v -1462.7591 217.8727 713.6138
v -1474.7080 220.3536 722.4881
v -1485.3960 219.9900 695.3706
v -1474.7080 220.3536 722.4881
v -1489.5207 222.7370 724.0963
v -1485.3960 219.9900 695.3706
v -1489.5207 222.7370 724.0963
v -1503.2281 224.3843 718.0075
v -1485.3960 219.9900 695.3706
v -1503.2281 224.3843 718.0075
v -1512.1575 224.8542 705.8531
v -1485.3960 219.9900 695.3706
v -1512.1575 224.8542 705.8531
v -1513.9162 224.0208 690.8900
v -1485.3960 219.9900 695.3706
v -1513.9162 224.0208 690.8900
v -1508.0329 222.1073 677.1274
v -1485.3960 219.9900 695.3706
v -1508.0329 222.1073 677.1274
v -1496.0840 219.6264 668.2531
v -1485.3960 219.9900 695.3706
v -1496.0840 219.6264 668.2531
v -1481.2713 217.2430 666.6449
v -1485.3960 219.9900 695.3706
v -1481.2713 217.2430 666.6449
v -1467.5639 215.5957 672.7337
v -1485.3960 219.9900 695.3706
v -1467.5639 215.5957 672.7337
v -1458.6345 215.1258 684.8881
v -1485.3960 219.9900 695.3706
v -1458.6345 215.1258 684.8881
v -1456.8758 215.9592 699.8512
v -1485.3960 219.9900 695.3706
v -1456.8758 215.9592 699.8512
v -1462.7591 217.8727 713.6138
v -1485.3960 219.9900 695.3706
v -1371.7480 893.7136 672.8801
v -1359.7991 891.2327 664.0058
v -1382.4360 893.3500 645.7626
v -1386.5607 896.0970 674.4883
v -1371.7480 893.7136 672.8801
v -1382.4360 893.3500 645.7626
v -1400.2681 897.7443 668.3995
v -1386.5607 896.0970 674.4883
v -1382.4360 893.3500 645.7626
v -1409.1975 898.2142 656.2451
v -1400.2681 897.7443 668.3995
v -1382.4360 893.3500 645.7626
v -1410.9562 897.3808 641.2820
v -1409.1975 898.2142 656.2451
v -1382.4360 893.3500 645.7626
v -1405.0729 895.4673 627.5194
v -1410.9562 897.3808 641.2820
v -1382.4360 893.3500 645.7626
v -1393.1240 892.9864 618.6451
v -1405.0729 895.4673 627.5194
v -1382.4360 893.3500 645.7626
v -1378.3113 890.6030 617.0369
v -1393.1240 892.9864 618.6451
v -1382.4360 893.3500 645.7626
v -1364.6039 888.9557 623.1257
v -1378.3113 890.6030 617.0369
v -1382.4360 893.3500 645.7626
v -1355.6745 888.4858 635.2801
v -1364.6039 888.9557 623.1257
v -1382.4360 893.3500 645.7626
v -1353.9158 889.3192 650.2432
v -1355.6745 888.4858 635.2801
v -1382.4360 893.3500 645.7626
v -1359.7991 891.2327 664.0058
v -1353.9158 889.3192 650.2432
v -1382.4360 893.3500 645.7626
v 1462.7591 -187.1273 713.6138
v 1359.7991 486.2327 664.0058
v 1456.8758 -189.0408 699.8512
v 1359.7991 486.2327 664.0058
v 1353.9158 484.3192 650.2432
v 1456.8758 -189.0408 699.8512
v 1456.8758 -189.0408 699.8512
v 1353.9158 484.3192 650.2432
v 1458.6345 -189.8742 684.8881
v 1353.9158 484.3192 650.2432
v 1355.6745 483.4858 635.2801
v 1458.6345 -189.8742 684.8881
v 1458.6345 -189.8742 684.8881
v 1355.6745 483.4858 635.2801
v 1467.5639 -189.4043 672.7337
v 1355.6745 483.4858 635.2801
v 1364.6039 483.9557 623.1257
v 1467.5639 -189.4043 672.7337
v 1467.5639 -189.4043 672.7337
v 1364.6039 483.9557 623.1257
v 1481.2713 -187.7570 666.6449
v 1364.6039 483.9557 623.1257
v 1378.3113 485.6030 617.0369
v 1481.2713 -187.7570 666.6449
v 1481.2713 -187.7570 666.6449
v 1378.3113 485.6030 617.0369
v 1496.0840 -185.3736 668.2531
v 1378.3113 485.6030 617.0369
v 1393.1240 487.9864 618.6451
v 1496.0840 -185.3736 668.2531
v 1496.0840 -185.3736 668.2531
v 1393.1240 487.9864 618.6451
v 1508.0329 -182.8927 677.1274
v 1393.1240 487.9864 618.6451
v 1405.0729 490.4673 627.5194
v 1508.0329 -182.8927 677.1274
v 1508.0329 -182.8927 677.1274
v 1405.0729 490.4673 627.5194
v 1513.9162 -180.9792 690.8900
v 1405.0729 490.4673 627.5194
v 1410.9562 492.3808 641.2820
v 1513.9162 -180.9792 690.8900
v 1513.9162 -180.9792 690.8900
v 1410.9562 492.3808 641.2820
v 1512.1575 -180.1458 705.8531
v 1410.9562 492.3808 641.2820
v 1409.1975 493.2142 656.2451
v 1512.1575 -180.1458 705.8531
v 1512.1575 -180.1458 705.8531
v 1409.1975 493.2142 656.2451
v 1503.2281 -180.6157 718.0075
v 1409.1975 493.2142 656.2451
v 1400.2681 492.7443 668.3995
v 1503.2281 -180.6157 718.0075
v 1503.2281 -180.6157 718.0075
v 1400.2681 492.7443 668.3995
v 1489.5207 -182.2630 724.0963
v 1400.2681 492.7443 668.3995
v 1386.5607 491.0970 674.4883
v 1489.5207 -182.2630 724.0963
v 1489.5207 -182.2630 724.0963
v 1386.5607 491.0970 674.4883
v 1474.7080 -184.6464 722.4881
v 1386.5607 491.0970 674.4883
v 1371.7480 488.7136 672.8801
v 1474.7080 -184.6464 722.4881
v 1474.7080 -184.6464 722.4881
v 1371.7480 488.7136 672.8801
v 1462.7591 -187.1273 713.6138
v 1371.7480 488.7136 672.8801
v 1359.7991 486.2327 664.0058
v 1462.7591 -187.1273 713.6138
v 1462.7591 -187.1273 713.6138
v 1456.8758 -189.0408 699.8512
v 1485.3960 -185.0100 695.3706
v 1456.8758 -189.0408 699.8512
v 1458.6345 -189.8742 684.8881
v 1485.3960 -185.0100 695.3706
v 1458.6345 -189.8742 684.8881
v 1467.5639 -189.4043 672.7337
v 1485.3960 -185.0100 695.3706
v 1467.5639 -189.4043 672.7337
v 1481.2713 -187.7570 666.6449
v 1485.3960 -185.0100 695.3706
v 1481.2713 -187.7570 666.6449
v 1496.0840 -185.3736 668.2531
v 1485.3960 -185.0100 695.3706
v 1496.0840 -185.3736 668.2531
v 1508.0329 -182.8927 677.1274
v 1485.3960 -185.0100 695.3706
v 1508.0329 -182.8927 677.1274
v 1513.9162 -180.9792 690.8900
v 1485.3960 -185.0100 695.3706
v 1513.9162 -180.9792 690.8900
v 1512.1575 -180.1458 705.8531
v 1485.3960 -185.0100 695.3706
v 1512.1575 -180.1458 705.8531
v 1503.2281 -180.6157 718.0075
v 1485.3960 -185.0100 695.3706
v 1503.2281 -180.6157 718.0075
v 1489.5207 -182.2630 724.0963
v 1485.3960 -185.0100 695.3706
v 1489.5207 -182.2630 724.0963
v 1474.7080 -184.6464 722.4881
v 1485.3960 -185.0100 695.3706
v 1474.7080 -184.6464 722.4881
v 1462.7591 -187.1273 713.6138
v 1485.3960 -185.0100 695.3706
v 1353.9158 484.3192 650.2432
v 1359.7991 486.2327 664.0058
v 1382.4360 488.3500 645.7626
v 1355.6745 483.4858 635.2801
v 1353.9158 484.3192 650.2432
v 1382.4360 488.3500 645.7626
v 1364.6039 483.9557 623.1257
v 1355.6745 483.4858 635.2801
v 1382.4360 488.3500 645.7626
v 1378.3113 485.6030 617.0369
v 1364.6039 483.9557 623.1257
v 1382.4360 488.3500 645.7626
v 1393.1240 487.9864 618.6451
v 1378.3113 485.6030 617.0369
v 1382.4360 488.3500 645.7626
v 1405.0729 490.4673 627.5194
v 1393.1240 487.9864 618.6451
v 1382.4360 488.3500 645.7626
v 1410.9562 492.3808 641.2820
v 1405.0729 490.4673 627.5194
v 1382.4360 488.3500 645.7626
v 1409.1975 493.2142 656.2451
v 1410.9562 492.3808 641.2820
v 1382.4360 488.3500 645.7626
v 1400.2681 492.7443 668.3995
v 1409.1975 493.2142 656.2451
v 1382.4360 488.3500 645.7626
v 1386.5607 491.0970 674.4883
v 1400.2681 492.7443 668.3995
v 1382.4360 488.3500 645.7626
v 1371.7480 488.7136 672.8801
v 1386.5607 491.0970 674.4883
v 1382.4360 488.3500 645.7626
v 1359.7991 486.2327 664.0058
v 1371.7480 488.7136 672.8801
v 1382.4360 488.3500 645.7626
f 1 2 3
f 4 5 6
f 7 8 9
f 10 11 12
f 13 14 15
f 16 17 18
f 19 20 21
f 22 23 24
f 25 26 27
f 28 29 30
f 31 32 33
f 34 35 36
f 37 38 39
f 40 41 42
f 43 44 45
f 46 47 48
f 49 50 51
f 52 53 54
f 55 56 57
f 58 59 60
f 61 62 63
f 64 65 66
f 67 68 69
f 70 71 72
f 73 74 75
f 76 77 78
f 79 80 81
f 82 83 84
f 85 86 87
f 88 89 90
f 91 92 93
f 94 95 96
f 97 98 99
f 100 101 102
f 103 104 105
f 106 107 108
f 109 110 111
f 112 113 114
f 115 116 117
f 118 119 120
f 121 122 123
f 124 125 126
f 127 128 129
f 130 131 132
f 133 134 135
f 136 137 138
f 139 140 141
f 142 143 144
f 145 146 147
f 148 149 150
f 151 152 153
f 154 155 156
f 157 158 159
f 160 161 162
f 163 164 165
f 166 167 168
f 169 170 171
f 172 173 174
f 175 176 177
f 178 179 180
f 181 182 183
f 184 185 186
f 187 188 189
f 190 191 192
f 193 194 195
f 196 197 198
f 199 200 201
f 202 203 204
f 205 206 207
f 208 209 210
f 211 212 213
f 214 215 216
f 217 218 219
f 220 221 222
f 223 224 225
f 226 227 228
f 229 230 231
f 232 233 234
f 235 236 237
f 238 239 240
f 241 242 243
f 244 245 246
f 247 248 249
f 250 251 252
f 253 254 255
f 256 257 258
f 259 260 261
f 262 263 264
f 265 266 267
f 268 269 270
f 271 272 273
f 274 275 276
f 277 278 279
f 280 281 282
f 283 284 285
f 286 287 288
f 289 290 291
f 292 293 294
f 295 296 297
f 298 299 300
f 301 302 303
f 304 305 306
f 307 308 309
f 310 311 312
f 313 314 315
f 316 317 318
f 319 320 321
f 322 323 324
f 325 326 327
f 328 329 330
f 331 332 333
f 334 335 336
f 337 338 339
f 340 341 342
f 343 344 345
f 346 347 348
f 349 350 351
f 352 353 354
f 355 356 357
f 358 359 360
f 361 362 363
f 364 365 366
f 367 368 369
f 370 371 372
f 373 374 375
f 376 377 378
f 379 380 381
f 382 383 384
f 385 386 387
f 388 389 390
f 391 392 393
f 394 395 396
f 397 398 399
f 400 401 402
f 403 404 405
f 406 407 408
f 409 410 411
f 412 413 414
f 415 416 417
f 418 419 420
f 421 422 423
f 424 425 426
f 427 428 429
f 430 431 432
f 433 434 435
f 436 437 438
f 439 440 441
f 442 443 444
f 445 446 447
f 448 449 450
f 451 452 453
f 454 455 456
f 457 458 459
f 460 461 462
f 463 464 465
f 466 467 468
f 469 470 471
f 472 473 474
f 475 476 477
f 478 479 480
f 481 482 483
f 484 485 486
f 487 488 489
f 490 491 492
f 493 494 495
f 496 497 498
f 499 500 501
f 502 503 504
f 505 506 507
f 508 509 510
f 511 512 513
f 514 515 516
f 517 518 519
f 520 521 522
f 523 524 525
f 526 527 528
f 529 530 531
f 532 533 534
f 535 536 537
f 538 539 540
f 541 542 543
f 544 545 546
f 547 548 549
f 550 551 552
f 553 554 555
f 556 557 558
f 559 560 561
f 562 563 564
f 565 566 567
f 568 569 570
f 571 572 573
f 574 575 576
f 577 578 579
f 580 581 582
f 583 584 585
f 586 587 588
f 589 590 591
f 592 593 594
f 595 596 597
f 598 599 600
f 601 602 603
f 604 605 606
f 607 608 609
f 610 611 612
