# MATERIA - Piano Design Table
# Geometria originale di studio. Unita mm. Non CAD del produttore.
v 1040.0000 567.3500 530.0000
v 1040.0000 509.0500 530.0000
v 1040.0000 567.3500 -530.0000
v 1040.0000 509.0500 530.0000
v 1040.0000 509.0500 -530.0000
v 1040.0000 567.3500 -530.0000
v -1040.0000 567.3500 -530.0000
v -1040.0000 509.0500 -530.0000
v -1040.0000 567.3500 530.0000
v -1040.0000 509.0500 -530.0000
v -1040.0000 509.0500 530.0000
v -1040.0000 567.3500 530.0000
v -1040.0000 567.3500 -530.0000
v -1040.0000 567.3500 530.0000
v 1040.0000 567.3500 -530.0000
v -1040.0000 567.3500 530.0000
v 1040.0000 567.3500 530.0000
v 1040.0000 567.3500 -530.0000
v -1040.0000 509.0500 530.0000
v -1040.0000 509.0500 -530.0000
v 1040.0000 509.0500 530.0000
v -1040.0000 509.0500 -530.0000
v 1040.0000 509.0500 -530.0000
v 1040.0000 509.0500 530.0000
v -1040.0000 567.3500 530.0000
v -1040.0000 509.0500 530.0000
v 1040.0000 567.3500 530.0000
v -1040.0000 509.0500 530.0000
v 1040.0000 509.0500 530.0000
v 1040.0000 567.3500 530.0000
v 1040.0000 567.3500 -530.0000
v 1040.0000 509.0500 -530.0000
v -1040.0000 567.3500 -530.0000
v 1040.0000 509.0500 -530.0000
v -1040.0000 509.0500 -530.0000
v -1040.0000 567.3500 -530.0000
v -1427.8195 -50.6750 -678.1686
v -1330.4755 651.4850 -628.5606
v -1433.1061 -48.9511 -692.1957
v -1330.4755 651.4850 -628.5606
v -1335.7621 653.2089 -642.5877
v -1433.1061 -48.9511 -692.1957
v -1433.1061 -48.9511 -692.1957
v -1335.7621 653.2089 -642.5877
v -1430.6942 -48.2343 -707.0736
v -1335.7621 653.2089 -642.5877
v -1333.3502 653.9257 -657.4656
v -1430.6942 -48.2343 -707.0736
v -1430.6942 -48.2343 -707.0736
v -1333.3502 653.9257 -657.4656
v -1421.2298 -48.7168 -718.8157
v -1333.3502 653.9257 -657.4656
v -1323.8858 653.4432 -669.2077
v -1421.2298 -48.7168 -718.8157
v -1421.2298 -48.7168 -718.8157
v -1323.8858 653.4432 -669.2077
v -1407.2491 -50.2693 -724.2756
v -1323.8858 653.4432 -669.2077
v -1309.9051 651.8907 -674.6676
v -1407.2491 -50.2693 -724.2756
v -1407.2491 -50.2693 -724.2756
v -1309.9051 651.8907 -674.6676
v -1392.4981 -52.4758 -721.9905
v -1309.9051 651.8907 -674.6676
v -1295.1541 649.6842 -672.3825
v -1392.4981 -52.4758 -721.9905
v -1392.4981 -52.4758 -721.9905
v -1295.1541 649.6842 -672.3825
v -1380.9293 -54.7450 -712.5726
v -1295.1541 649.6842 -672.3825
v -1283.5853 647.4150 -662.9646
v -1380.9293 -54.7450 -712.5726
v -1380.9293 -54.7450 -712.5726
v -1283.5853 647.4150 -662.9646
v -1375.6427 -56.4689 -698.5455
v -1283.5853 647.4150 -662.9646
v -1278.2987 645.6911 -648.9375
v -1375.6427 -56.4689 -698.5455
v -1375.6427 -56.4689 -698.5455
v -1278.2987 645.6911 -648.9375
v -1378.0546 -57.1857 -683.6676
v -1278.2987 645.6911 -648.9375
v -1280.7106 644.9743 -634.0596
v -1378.0546 -57.1857 -683.6676
v -1378.0546 -57.1857 -683.6676
v -1280.7106 644.9743 -634.0596
v -1387.5190 -56.7032 -671.9255
v -1280.7106 644.9743 -634.0596
v -1290.1750 645.4568 -622.3175
v -1387.5190 -56.7032 -671.9255
v -1387.5190 -56.7032 -671.9255
v -1290.1750 645.4568 -622.3175
v -1401.4997 -55.1507 -666.4656
v -1290.1750 645.4568 -622.3175
v -1304.1557 647.0093 -616.8576
v -1401.4997 -55.1507 -666.4656
v -1401.4997 -55.1507 -666.4656
v -1304.1557 647.0093 -616.8576
v -1416.2507 -52.9442 -668.7507
v -1304.1557 647.0093 -616.8576
v -1318.9067 649.2158 -619.1427
v -1416.2507 -52.9442 -668.7507
v -1416.2507 -52.9442 -668.7507
v -1318.9067 649.2158 -619.1427
v -1427.8195 -50.6750 -678.1686
v -1318.9067 649.2158 -619.1427
v -1330.4755 651.4850 -628.5606
v -1427.8195 -50.6750 -678.1686
v -1427.8195 -50.6750 -678.1686
v -1433.1061 -48.9511 -692.1957
v -1404.3744 -52.7100 -695.3706
v -1433.1061 -48.9511 -692.1957
v -1430.6942 -48.2343 -707.0736
v -1404.3744 -52.7100 -695.3706
v -1430.6942 -48.2343 -707.0736
v -1421.2298 -48.7168 -718.8157
v -1404.3744 -52.7100 -695.3706
v -1421.2298 -48.7168 -718.8157
v -1407.2491 -50.2693 -724.2756
v -1404.3744 -52.7100 -695.3706
v -1407.2491 -50.2693 -724.2756
v -1392.4981 -52.4758 -721.9905
v -1404.3744 -52.7100 -695.3706
v -1392.4981 -52.4758 -721.9905
v -1380.9293 -54.7450 -712.5726
v -1404.3744 -52.7100 -695.3706
v -1380.9293 -54.7450 -712.5726
v -1375.6427 -56.4689 -698.5455
v -1404.3744 -52.7100 -695.3706
v -1375.6427 -56.4689 -698.5455
v -1378.0546 -57.1857 -683.6676
v -1404.3744 -52.7100 -695.3706
v -1378.0546 -57.1857 -683.6676
v -1387.5190 -56.7032 -671.9255
v -1404.3744 -52.7100 -695.3706
v -1387.5190 -56.7032 -671.9255
v -1401.4997 -55.1507 -666.4656
v -1404.3744 -52.7100 -695.3706
v -1401.4997 -55.1507 -666.4656
v -1416.2507 -52.9442 -668.7507
v -1404.3744 -52.7100 -695.3706
v -1416.2507 -52.9442 -668.7507
v -1427.8195 -50.6750 -678.1686
v -1404.3744 -52.7100 -695.3706
v -1335.7621 653.2089 -642.5877
v -1330.4755 651.4850 -628.5606
v -1307.0304 649.4500 -645.7626
v -1333.3502 653.9257 -657.4656
v -1335.7621 653.2089 -642.5877
v -1307.0304 649.4500 -645.7626
v -1323.8858 653.4432 -669.2077
v -1333.3502 653.9257 -657.4656
v -1307.0304 649.4500 -645.7626
v -1309.9051 651.8907 -674.6676
v -1323.8858 653.4432 -669.2077
v -1307.0304 649.4500 -645.7626
v -1295.1541 649.6842 -672.3825
v -1309.9051 651.8907 -674.6676
v -1307.0304 649.4500 -645.7626
v -1283.5853 647.4150 -662.9646
v -1295.1541 649.6842 -672.3825
v -1307.0304 649.4500 -645.7626
v -1278.2987 645.6911 -648.9375
v -1283.5853 647.4150 -662.9646
v -1307.0304 649.4500 -645.7626
v -1280.7106 644.9743 -634.0596
v -1278.2987 645.6911 -648.9375
v -1307.0304 649.4500 -645.7626
v -1290.1750 645.4568 -622.3175
v -1280.7106 644.9743 -634.0596
v -1307.0304 649.4500 -645.7626
v -1304.1557 647.0093 -616.8576
v -1290.1750 645.4568 -622.3175
v -1307.0304 649.4500 -645.7626
v -1318.9067 649.2158 -619.1427
v -1304.1557 647.0093 -616.8576
v -1307.0304 649.4500 -645.7626
v -1330.4755 651.4850 -628.5606
v -1318.9067 649.2158 -619.1427
v -1307.0304 649.4500 -645.7626
v 1427.8195 89.7250 -678.1686
v 1330.4755 791.8850 -628.5606
v 1416.2507 87.4558 -668.7507
v 1330.4755 791.8850 -628.5606
v 1318.9067 789.6158 -619.1427
v 1416.2507 87.4558 -668.7507
v 1416.2507 87.4558 -668.7507
v 1318.9067 789.6158 -619.1427
v 1401.4997 85.2493 -666.4656
v 1318.9067 789.6158 -619.1427
v 1304.1557 787.4093 -616.8576
v 1401.4997 85.2493 -666.4656
v 1401.4997 85.2493 -666.4656
v 1304.1557 787.4093 -616.8576
v 1387.5190 83.6968 -671.9255
v 1304.1557 787.4093 -616.8576
v 1290.1750 785.8568 -622.3175
v 1387.5190 83.6968 -671.9255
v 1387.5190 83.6968 -671.9255
v 1290.1750 785.8568 -622.3175
v 1378.0546 83.2143 -683.6676
v 1290.1750 785.8568 -622.3175
v 1280.7106 785.3743 -634.0596
v 1378.0546 83.2143 -683.6676
v 1378.0546 83.2143 -683.6676
v 1280.7106 785.3743 -634.0596
v 1375.6427 83.9311 -698.5455
v 1280.7106 785.3743 -634.0596
v 1278.2987 786.0911 -648.9375
v 1375.6427 83.9311 -698.5455
v 1375.6427 83.9311 -698.5455
v 1278.2987 786.0911 -648.9375
v 1380.9293 85.6550 -712.5726
v 1278.2987 786.0911 -648.9375
v 1283.5853 787.8150 -662.9646
v 1380.9293 85.6550 -712.5726
v 1380.9293 85.6550 -712.5726
v 1283.5853 787.8150 -662.9646
v 1392.4981 87.9242 -721.9905
v 1283.5853 787.8150 -662.9646
v 1295.1541 790.0842 -672.3825
v 1392.4981 87.9242 -721.9905
v 1392.4981 87.9242 -721.9905
v 1295.1541 790.0842 -672.3825
v 1407.2491 90.1307 -724.2756
v 1295.1541 790.0842 -672.3825
v 1309.9051 792.2907 -674.6676
v 1407.2491 90.1307 -724.2756
v 1407.2491 90.1307 -724.2756
v 1309.9051 792.2907 -674.6676
v 1421.2298 91.6832 -718.8157
v 1309.9051 792.2907 -674.6676
v 1323.8858 793.8432 -669.2077
v 1421.2298 91.6832 -718.8157
v 1421.2298 91.6832 -718.8157
v 1323.8858 793.8432 -669.2077
v 1430.6942 92.1657 -707.0736
v 1323.8858 793.8432 -669.2077
v 1333.3502 794.3257 -657.4656
v 1430.6942 92.1657 -707.0736
v 1430.6942 92.1657 -707.0736
v 1333.3502 794.3257 -657.4656
v 1433.1061 91.4489 -692.1957
v 1333.3502 794.3257 -657.4656
v 1335.7621 793.6089 -642.5877
v 1433.1061 91.4489 -692.1957
v 1433.1061 91.4489 -692.1957
v 1335.7621 793.6089 -642.5877
v 1427.8195 89.7250 -678.1686
v 1335.7621 793.6089 -642.5877
v 1330.4755 791.8850 -628.5606
v 1427.8195 89.7250 -678.1686
v 1427.8195 89.7250 -678.1686
v 1416.2507 87.4558 -668.7507
v 1404.3744 87.6900 -695.3706
v 1416.2507 87.4558 -668.7507
v 1401.4997 85.2493 -666.4656
v 1404.3744 87.6900 -695.3706
v 1401.4997 85.2493 -666.4656
v 1387.5190 83.6968 -671.9255
v 1404.3744 87.6900 -695.3706
v 1387.5190 83.6968 -671.9255
v 1378.0546 83.2143 -683.6676
v 1404.3744 87.6900 -695.3706
v 1378.0546 83.2143 -683.6676
v 1375.6427 83.9311 -698.5455
v 1404.3744 87.6900 -695.3706
v 1375.6427 83.9311 -698.5455
v 1380.9293 85.6550 -712.5726
v 1404.3744 87.6900 -695.3706
v 1380.9293 85.6550 -712.5726
v 1392.4981 87.9242 -721.9905
v 1404.3744 87.6900 -695.3706
v 1392.4981 87.9242 -721.9905
v 1407.2491 90.1307 -724.2756
v 1404.3744 87.6900 -695.3706
v 1407.2491 90.1307 -724.2756
v 1421.2298 91.6832 -718.8157
v 1404.3744 87.6900 -695.3706
v 1421.2298 91.6832 -718.8157
v 1430.6942 92.1657 -707.0736
v 1404.3744 87.6900 -695.3706
v 1430.6942 92.1657 -707.0736
v 1433.1061 91.4489 -692.1957
v 1404.3744 87.6900 -695.3706
v 1433.1061 91.4489 -692.1957
v 1427.8195 89.7250 -678.1686
v 1404.3744 87.6900 -695.3706
v 1318.9067 789.6158 -619.1427
v 1330.4755 791.8850 -628.5606
v 1307.0304 789.8500 -645.7626
v 1304.1557 787.4093 -616.8576
v 1318.9067 789.6158 -619.1427
v 1307.0304 789.8500 -645.7626
v 1290.1750 785.8568 -622.3175
v 1304.1557 787.4093 -616.8576
v 1307.0304 789.8500 -645.7626
v 1280.7106 785.3743 -634.0596
v 1290.1750 785.8568 -622.3175
v 1307.0304 789.8500 -645.7626
v 1278.2987 786.0911 -648.9375
v 1280.7106 785.3743 -634.0596
v 1307.0304 789.8500 -645.7626
v 1283.5853 787.8150 -662.9646
v 1278.2987 786.0911 -648.9375
v 1307.0304 789.8500 -645.7626
v 1295.1541 790.0842 -672.3825
v 1283.5853 787.8150 -662.9646
v 1307.0304 789.8500 -645.7626
v 1309.9051 792.2907 -674.6676
v 1295.1541 790.0842 -672.3825
v 1307.0304 789.8500 -645.7626
v 1323.8858 793.8432 -669.2077
v 1309.9051 792.2907 -674.6676
v 1307.0304 789.8500 -645.7626
v 1333.3502 794.3257 -657.4656
v 1323.8858 793.8432 -669.2077
v 1307.0304 789.8500 -645.7626
v 1335.7621 793.6089 -642.5877
v 1333.3502 794.3257 -657.4656
v 1307.0304 789.8500 -645.7626
v 1330.4755 791.8850 -628.5606
v 1335.7621 793.6089 -642.5877
v 1307.0304 789.8500 -645.7626
v -1380.9293 226.0550 712.5726
v -1283.5853 928.2150 662.9646
v -1392.4981 228.3242 721.9905
v -1283.5853 928.2150 662.9646
v -1295.1541 930.4842 672.3825
v -1392.4981 228.3242 721.9905
v -1392.4981 228.3242 721.9905
v -1295.1541 930.4842 672.3825
v -1407.2491 230.5307 724.2756
v -1295.1541 930.4842 672.3825
v -1309.9051 932.6907 674.6676
v -1407.2491 230.5307 724.2756
v -1407.2491 230.5307 724.2756
v -1309.9051 932.6907 674.6676
v -1421.2298 232.0832 718.8157
v -1309.9051 932.6907 674.6676
v -1323.8858 934.2432 669.2077
v -1421.2298 232.0832 718.8157
v -1421.2298 232.0832 718.8157
v -1323.8858 934.2432 669.2077
v -1430.6942 232.5657 707.0736
v -1323.8858 934.2432 669.2077
v -1333.3502 934.7257 657.4656
v -1430.6942 232.5657 707.0736
v -1430.6942 232.5657 707.0736
v -1333.3502 934.7257 657.4656
v -1433.1061 231.8489 692.1957
v -1333.3502 934.7257 657.4656
v -1335.7621 934.0089 642.5877
v -1433.1061 231.8489 692.1957
v -1433.1061 231.8489 692.1957
v -1335.7621 934.0089 642.5877
v -1427.8195 230.1250 678.1686
v -1335.7621 934.0089 642.5877
v -1330.4755 932.2850 628.5606
v -1427.8195 230.1250 678.1686
v -1427.8195 230.1250 678.1686
v -1330.4755 932.2850 628.5606
v -1416.2507 227.8558 668.7507
v -1330.4755 932.2850 628.5606
v -1318.9067 930.0158 619.1427
v -1416.2507 227.8558 668.7507
v -1416.2507 227.8558 668.7507
v -1318.9067 930.0158 619.1427
v -1401.4997 225.6493 666.4656
v -1318.9067 930.0158 619.1427
v -1304.1557 927.8093 616.8576
v -1401.4997 225.6493 666.4656
v -1401.4997 225.6493 666.4656
v -1304.1557 927.8093 616.8576
v -1387.5190 224.0968 671.9255
v -1304.1557 927.8093 616.8576
v -1290.1750 926.2568 622.3175
v -1387.5190 224.0968 671.9255
v -1387.5190 224.0968 671.9255
v -1290.1750 926.2568 622.3175
v -1378.0546 223.6143 683.6676
v -1290.1750 926.2568 622.3175
v -1280.7106 925.7743 634.0596
v -1378.0546 223.6143 683.6676
v -1378.0546 223.6143 683.6676
v -1280.7106 925.7743 634.0596
v -1375.6427 224.3311 698.5455
v -1280.7106 925.7743 634.0596
v -1278.2987 926.4911 648.9375
v -1375.6427 224.3311 698.5455
v -1375.6427 224.3311 698.5455
v -1278.2987 926.4911 648.9375
v -1380.9293 226.0550 712.5726
v -1278.2987 926.4911 648.9375
v -1283.5853 928.2150 662.9646
v -1380.9293 226.0550 712.5726
v -1380.9293 226.0550 712.5726
v -1392.4981 228.3242 721.9905
v -1404.3744 228.0900 695.3706
v -1392.4981 228.3242 721.9905
v -1407.2491 230.5307 724.2756
v -1404.3744 228.0900 695.3706
v -1407.2491 230.5307 724.2756
v -1421.2298 232.0832 718.8157
v -1404.3744 228.0900 695.3706
v -1421.2298 232.0832 718.8157
v -1430.6942 232.5657 707.0736
v -1404.3744 228.0900 695.3706
v -1430.6942 232.5657 707.0736
v -1433.1061 231.8489 692.1957
v -1404.3744 228.0900 695.3706
v -1433.1061 231.8489 692.1957
v -1427.8195 230.1250 678.1686
v -1404.3744 228.0900 695.3706
v -1427.8195 230.1250 678.1686
v -1416.2507 227.8558 668.7507
v -1404.3744 228.0900 695.3706
v -1416.2507 227.8558 668.7507
v -1401.4997 225.6493 666.4656
v -1404.3744 228.0900 695.3706
v -1401.4997 225.6493 666.4656
v -1387.5190 224.0968 671.9255
v -1404.3744 228.0900 695.3706
v -1387.5190 224.0968 671.9255
v -1378.0546 223.6143 683.6676
v -1404.3744 228.0900 695.3706
v -1378.0546 223.6143 683.6676
v -1375.6427 224.3311 698.5455
v -1404.3744 228.0900 695.3706
v -1375.6427 224.3311 698.5455
v -1380.9293 226.0550 712.5726
v -1404.3744 228.0900 695.3706
v -1295.1541 930.4842 672.3825
v -1283.5853 928.2150 662.9646
v -1307.0304 930.2500 645.7626
v -1309.9051 932.6907 674.6676
v -1295.1541 930.4842 672.3825
v -1307.0304 930.2500 645.7626
v -1323.8858 934.2432 669.2077
v -1309.9051 932.6907 674.6676
v -1307.0304 930.2500 645.7626
v -1333.3502 934.7257 657.4656
v -1323.8858 934.2432 669.2077
v -1307.0304 930.2500 645.7626
v -1335.7621 934.0089 642.5877
v -1333.3502 934.7257 657.4656
v -1307.0304 930.2500 645.7626
v -1330.4755 932.2850 628.5606
v -1335.7621 934.0089 642.5877
v -1307.0304 930.2500 645.7626
v -1318.9067 930.0158 619.1427
v -1330.4755 932.2850 628.5606
v -1307.0304 930.2500 645.7626
v -1304.1557 927.8093 616.8576
v -1318.9067 930.0158 619.1427
v -1307.0304 930.2500 645.7626
v -1290.1750 926.2568 622.3175
v -1304.1557 927.8093 616.8576
v -1307.0304 930.2500 645.7626
v -1280.7106 925.7743 634.0596
v -1290.1750 926.2568 622.3175
v -1307.0304 930.2500 645.7626
v -1278.2987 926.4911 648.9375
v -1280.7106 925.7743 634.0596
v -1307.0304 930.2500 645.7626
v -1283.5853 928.2150 662.9646
v -1278.2987 926.4911 648.9375
v -1307.0304 930.2500 645.7626
v 1380.9293 -195.1450 712.5726
v 1283.5853 507.0150 662.9646
v 1375.6427 -196.8689 698.5455
v 1283.5853 507.0150 662.9646
v 1278.2987 505.2911 648.9375
v 1375.6427 -196.8689 698.5455
v 1375.6427 -196.8689 698.5455
v 1278.2987 505.2911 648.9375
v 1378.0546 -197.5857 683.6676
v 1278.2987 505.2911 648.9375
v 1280.7106 504.5743 634.0596
v 1378.0546 -197.5857 683.6676
v 1378.0546 -197.5857 683.6676
v 1280.7106 504.5743 634.0596
v 1387.5190 -197.1032 671.9255
v 1280.7106 504.5743 634.0596
v 1290.1750 505.0568 622.3175
v 1387.5190 -197.1032 671.9255
v 1387.5190 -197.1032 671.9255
v 1290.1750 505.0568 622.3175
v 1401.4997 -195.5507 666.4656
v 1290.1750 505.0568 622.3175
v 1304.1557 506.6093 616.8576
v 1401.4997 -195.5507 666.4656
v 1401.4997 -195.5507 666.4656
v 1304.1557 506.6093 616.8576
v 1416.2507 -193.3442 668.7507
v 1304.1557 506.6093 616.8576
v 1318.9067 508.8158 619.1427
v 1416.2507 -193.3442 668.7507
v 1416.2507 -193.3442 668.7507
v 1318.9067 508.8158 619.1427
v 1427.8195 -191.0750 678.1686
v 1318.9067 508.8158 619.1427
v 1330.4755 511.0850 628.5606
v 1427.8195 -191.0750 678.1686
v 1427.8195 -191.0750 678.1686
v 1330.4755 511.0850 628.5606
v 1433.1061 -189.3511 692.1957
v 1330.4755 511.0850 628.5606
v 1335.7621 512.8089 642.5877
v 1433.1061 -189.3511 692.1957
v 1433.1061 -189.3511 692.1957
v 1335.7621 512.8089 642.5877
v 1430.6942 -188.6343 707.0736
v 1335.7621 512.8089 642.5877
v 1333.3502 513.5257 657.4656
v 1430.6942 -188.6343 707.0736
v 1430.6942 -188.6343 707.0736
v 1333.3502 513.5257 657.4656
v 1421.2298 -189.1168 718.8157
v 1333.3502 513.5257 657.4656
v 1323.8858 513.0432 669.2077
v 1421.2298 -189.1168 718.8157
v 1421.2298 -189.1168 718.8157
v 1323.8858 513.0432 669.2077
v 1407.2491 -190.6693 724.2756
v 1323.8858 513.0432 669.2077
v 1309.9051 511.4907 674.6676
v 1407.2491 -190.6693 724.2756
v 1407.2491 -190.6693 724.2756
v 1309.9051 511.4907 674.6676
v 1392.4981 -192.8758 721.9905
v 1309.9051 511.4907 674.6676
v 1295.1541 509.2842 672.3825
v 1392.4981 -192.8758 721.9905
v 1392.4981 -192.8758 721.9905
v 1295.1541 509.2842 672.3825
v 1380.9293 -195.1450 712.5726
v 1295.1541 509.2842 672.3825
v 1283.5853 507.0150 662.9646
v 1380.9293 -195.1450 712.5726
v 1380.9293 -195.1450 712.5726
v 1375.6427 -196.8689 698.5455
v 1404.3744 -193.1100 695.3706
v 1375.6427 -196.8689 698.5455
v 1378.0546 -197.5857 683.6676
v 1404.3744 -193.1100 695.3706
v 1378.0546 -197.5857 683.6676
v 1387.5190 -197.1032 671.9255
v 1404.3744 -193.1100 695.3706
v 1387.5190 -197.1032 671.9255
v 1401.4997 -195.5507 666.4656
v 1404.3744 -193.1100 695.3706
v 1401.4997 -195.5507 666.4656
v 1416.2507 -193.3442 668.7507
v 1404.3744 -193.1100 695.3706
v 1416.2507 -193.3442 668.7507
v 1427.8195 -191.0750 678.1686
v 1404.3744 -193.1100 695.3706
v 1427.8195 -191.0750 678.1686
v 1433.1061 -189.3511 692.1957
v 1404.3744 -193.1100 695.3706
v 1433.1061 -189.3511 692.1957
v 1430.6942 -188.6343 707.0736
v 1404.3744 -193.1100 695.3706
v 1430.6942 -188.6343 707.0736
v 1421.2298 -189.1168 718.8157
v 1404.3744 -193.1100 695.3706
v 1421.2298 -189.1168 718.8157
v 1407.2491 -190.6693 724.2756
v 1404.3744 -193.1100 695.3706
v 1407.2491 -190.6693 724.2756
v 1392.4981 -192.8758 721.9905
v 1404.3744 -193.1100 695.3706
v 1392.4981 -192.8758 721.9905
v 1380.9293 -195.1450 712.5726
v 1404.3744 -193.1100 695.3706
v 1278.2987 505.2911 648.9375
v 1283.5853 507.0150 662.9646
v 1307.0304 509.0500 645.7626
v 1280.7106 504.5743 634.0596
v 1278.2987 505.2911 648.9375
v 1307.0304 509.0500 645.7626
v 1290.1750 505.0568 622.3175
v 1280.7106 504.5743 634.0596
v 1307.0304 509.0500 645.7626
v 1304.1557 506.6093 616.8576
v 1290.1750 505.0568 622.3175
v 1307.0304 509.0500 645.7626
v 1318.9067 508.8158 619.1427
v 1304.1557 506.6093 616.8576
v 1307.0304 509.0500 645.7626
v 1330.4755 511.0850 628.5606
v 1318.9067 508.8158 619.1427
v 1307.0304 509.0500 645.7626
v 1335.7621 512.8089 642.5877
v 1330.4755 511.0850 628.5606
v 1307.0304 509.0500 645.7626
v 1333.3502 513.5257 657.4656
v 1335.7621 512.8089 642.5877
v 1307.0304 509.0500 645.7626
v 1323.8858 513.0432 669.2077
v 1333.3502 513.5257 657.4656
v 1307.0304 509.0500 645.7626
v 1309.9051 511.4907 674.6676
v 1323.8858 513.0432 669.2077
v 1307.0304 509.0500 645.7626
v 1295.1541 509.2842 672.3825
v 1309.9051 511.4907 674.6676
v 1307.0304 509.0500 645.7626
v 1283.5853 507.0150 662.9646
v 1295.1541 509.2842 672.3825
v 1307.0304 509.0500 645.7626
f 1 2 3
f 4 5 6
f 7 8 9
f 10 11 12
f 13 14 15
f 16 17 18
f 19 20 21
f 22 23 24
f 25 26 27
f 28 29 30
f 31 32 33
f 34 35 36
f 37 38 39
f 40 41 42
f 43 44 45
f 46 47 48
f 49 50 51
f 52 53 54
f 55 56 57
f 58 59 60
f 61 62 63
f 64 65 66
f 67 68 69
f 70 71 72
f 73 74 75
f 76 77 78
f 79 80 81
f 82 83 84
f 85 86 87
f 88 89 90
f 91 92 93
f 94 95 96
f 97 98 99
f 100 101 102
f 103 104 105
f 106 107 108
f 109 110 111
f 112 113 114
f 115 116 117
f 118 119 120
f 121 122 123
f 124 125 126
f 127 128 129
f 130 131 132
f 133 134 135
f 136 137 138
f 139 140 141
f 142 143 144
f 145 146 147
f 148 149 150
f 151 152 153
f 154 155 156
f 157 158 159
f 160 161 162
f 163 164 165
f 166 167 168
f 169 170 171
f 172 173 174
f 175 176 177
f 178 179 180
f 181 182 183
f 184 185 186
f 187 188 189
f 190 191 192
f 193 194 195
f 196 197 198
f 199 200 201
f 202 203 204
f 205 206 207
f 208 209 210
f 211 212 213
f 214 215 216
f 217 218 219
f 220 221 222
f 223 224 225
f 226 227 228
f 229 230 231
f 232 233 234
f 235 236 237
f 238 239 240
f 241 242 243
f 244 245 246
f 247 248 249
f 250 251 252
f 253 254 255
f 256 257 258
f 259 260 261
f 262 263 264
f 265 266 267
f 268 269 270
f 271 272 273
f 274 275 276
f 277 278 279
f 280 281 282
f 283 284 285
f 286 287 288
f 289 290 291
f 292 293 294
f 295 296 297
f 298 299 300
f 301 302 303
f 304 305 306
f 307 308 309
f 310 311 312
f 313 314 315
f 316 317 318
f 319 320 321
f 322 323 324
f 325 326 327
f 328 329 330
f 331 332 333
f 334 335 336
f 337 338 339
f 340 341 342
f 343 344 345
f 346 347 348
f 349 350 351
f 352 353 354
f 355 356 357
f 358 359 360
f 361 362 363
f 364 365 366
f 367 368 369
f 370 371 372
f 373 374 375
f 376 377 378
f 379 380 381
f 382 383 384
f 385 386 387
f 388 389 390
f 391 392 393
f 394 395 396
f 397 398 399
f 400 401 402
f 403 404 405
f 406 407 408
f 409 410 411
f 412 413 414
f 415 416 417
f 418 419 420
f 421 422 423
f 424 425 426
f 427 428 429
f 430 431 432
f 433 434 435
f 436 437 438
f 439 440 441
f 442 443 444
f 445 446 447
f 448 449 450
f 451 452 453
f 454 455 456
f 457 458 459
f 460 461 462
f 463 464 465
f 466 467 468
f 469 470 471
f 472 473 474
f 475 476 477
f 478 479 480
f 481 482 483
f 484 485 486
f 487 488 489
f 490 491 492
f 493 494 495
f 496 497 498
f 499 500 501
f 502 503 504
f 505 506 507
f 508 509 510
f 511 512 513
f 514 515 516
f 517 518 519
f 520 521 522
f 523 524 525
f 526 527 528
f 529 530 531
f 532 533 534
f 535 536 537
f 538 539 540
f 541 542 543
f 544 545 546
f 547 548 549
f 550 551 552
f 553 554 555
f 556 557 558
f 559 560 561
f 562 563 564
f 565 566 567
f 568 569 570
f 571 572 573
f 574 575 576
f 577 578 579
f 580 581 582
f 583 584 585
f 586 587 588
f 589 590 591
f 592 593 594
f 595 596 597
f 598 599 600
f 601 602 603
f 604 605 606
f 607 608 609
f 610 611 612
