# MATERIA - Concorde
# Geometria originale di studio. Unita mm. Non CAD del produttore.
v 1160.0000 543.3500 470.0000
v 1160.0000 491.6500 470.0000
v 1160.0000 543.3500 -470.0000
v 1160.0000 491.6500 470.0000
v 1160.0000 491.6500 -470.0000
v 1160.0000 543.3500 -470.0000
v -1160.0000 543.3500 -470.0000
v -1160.0000 491.6500 -470.0000
v -1160.0000 543.3500 470.0000
v -1160.0000 491.6500 -470.0000
v -1160.0000 491.6500 470.0000
v -1160.0000 543.3500 470.0000
v -1160.0000 543.3500 -470.0000
v -1160.0000 543.3500 470.0000
v 1160.0000 543.3500 -470.0000
v -1160.0000 543.3500 470.0000
v 1160.0000 543.3500 470.0000
v 1160.0000 543.3500 -470.0000
v -1160.0000 491.6500 470.0000
v -1160.0000 491.6500 -470.0000
v 1160.0000 491.6500 470.0000
v -1160.0000 491.6500 -470.0000
v 1160.0000 491.6500 -470.0000
v 1160.0000 491.6500 470.0000
v -1160.0000 543.3500 470.0000
v -1160.0000 491.6500 470.0000
v 1160.0000 543.3500 470.0000
v -1160.0000 491.6500 470.0000
v 1160.0000 491.6500 470.0000
v 1160.0000 543.3500 470.0000
v 1160.0000 543.3500 -470.0000
v 1160.0000 491.6500 -470.0000
v -1160.0000 543.3500 -470.0000
v 1160.0000 491.6500 -470.0000
v -1160.0000 491.6500 -470.0000
v -1160.0000 543.3500 -470.0000
v -1584.2800 -50.3387 -598.0367
v -1475.7040 628.3013 -554.0447
v -1591.0048 -48.5222 -609.4616
v -1475.7040 628.3013 -554.0447
v -1482.4288 630.1178 -565.4696
v -1591.0048 -48.5222 -609.4616
v -1591.0048 -48.5222 -609.4616
v -1482.4288 630.1178 -565.4696
v -1591.1415 -47.6349 -622.8124
v -1482.4288 630.1178 -565.4696
v -1482.5655 631.0051 -578.8204
v -1591.1415 -47.6349 -622.8124
v -1591.1415 -47.6349 -622.8124
v -1482.5655 631.0051 -578.8204
v -1584.6535 -47.9145 -634.5118
v -1482.5655 631.0051 -578.8204
v -1476.0775 630.7255 -590.5198
v -1584.6535 -47.9145 -634.5118
v -1584.6535 -47.9145 -634.5118
v -1476.0775 630.7255 -590.5198
v -1573.2792 -49.2862 -641.4250
v -1476.0775 630.7255 -590.5198
v -1464.7032 629.3538 -597.4330
v -1573.2792 -49.2862 -641.4250
v -1573.2792 -49.2862 -641.4250
v -1464.7032 629.3538 -597.4330
v -1560.0663 -51.3823 -641.6996
v -1464.7032 629.3538 -597.4330
v -1451.4903 627.2577 -597.7076
v -1560.0663 -51.3823 -641.6996
v -1560.0663 -51.3823 -641.6996
v -1451.4903 627.2577 -597.7076
v -1548.5552 -53.6413 -635.2621
v -1451.4903 627.2577 -597.7076
v -1439.9792 624.9987 -591.2701
v -1548.5552 -53.6413 -635.2621
v -1548.5552 -53.6413 -635.2621
v -1439.9792 624.9987 -591.2701
v -1541.8304 -55.4578 -623.8372
v -1439.9792 624.9987 -591.2701
v -1433.2544 623.1822 -579.8452
v -1541.8304 -55.4578 -623.8372
v -1541.8304 -55.4578 -623.8372
v -1433.2544 623.1822 -579.8452
v -1541.6937 -56.3451 -610.4864
v -1433.2544 623.1822 -579.8452
v -1433.1177 622.2949 -566.4944
v -1541.6937 -56.3451 -610.4864
v -1541.6937 -56.3451 -610.4864
v -1433.1177 622.2949 -566.4944
v -1548.1817 -56.0655 -598.7870
v -1433.1177 622.2949 -566.4944
v -1439.6057 622.5745 -554.7950
v -1548.1817 -56.0655 -598.7870
v -1548.1817 -56.0655 -598.7870
v -1439.6057 622.5745 -554.7950
v -1559.5560 -54.6938 -591.8738
v -1439.6057 622.5745 -554.7950
v -1450.9800 623.9462 -547.8818
v -1559.5560 -54.6938 -591.8738
v -1559.5560 -54.6938 -591.8738
v -1450.9800 623.9462 -547.8818
v -1572.7689 -52.5977 -591.5992
v -1450.9800 623.9462 -547.8818
v -1464.1929 626.0423 -547.6072
v -1572.7689 -52.5977 -591.5992
v -1572.7689 -52.5977 -591.5992
v -1464.1929 626.0423 -547.6072
v -1584.2800 -50.3387 -598.0367
v -1464.1929 626.0423 -547.6072
v -1475.7040 628.3013 -554.0447
v -1584.2800 -50.3387 -598.0367
v -1584.2800 -50.3387 -598.0367
v -1591.0048 -48.5222 -609.4616
v -1566.4176 -51.9900 -616.6494
v -1591.0048 -48.5222 -609.4616
v -1591.1415 -47.6349 -622.8124
v -1566.4176 -51.9900 -616.6494
v -1591.1415 -47.6349 -622.8124
v -1584.6535 -47.9145 -634.5118
v -1566.4176 -51.9900 -616.6494
v -1584.6535 -47.9145 -634.5118
v -1573.2792 -49.2862 -641.4250
v -1566.4176 -51.9900 -616.6494
v -1573.2792 -49.2862 -641.4250
v -1560.0663 -51.3823 -641.6996
v -1566.4176 -51.9900 -616.6494
v -1560.0663 -51.3823 -641.6996
v -1548.5552 -53.6413 -635.2621
v -1566.4176 -51.9900 -616.6494
v -1548.5552 -53.6413 -635.2621
v -1541.8304 -55.4578 -623.8372
v -1566.4176 -51.9900 -616.6494
v -1541.8304 -55.4578 -623.8372
v -1541.6937 -56.3451 -610.4864
v -1566.4176 -51.9900 -616.6494
v -1541.6937 -56.3451 -610.4864
v -1548.1817 -56.0655 -598.7870
v -1566.4176 -51.9900 -616.6494
v -1548.1817 -56.0655 -598.7870
v -1559.5560 -54.6938 -591.8738
v -1566.4176 -51.9900 -616.6494
v -1559.5560 -54.6938 -591.8738
v -1572.7689 -52.5977 -591.5992
v -1566.4176 -51.9900 -616.6494
v -1572.7689 -52.5977 -591.5992
v -1584.2800 -50.3387 -598.0367
v -1566.4176 -51.9900 -616.6494
v -1482.4288 630.1178 -565.4696
v -1475.7040 628.3013 -554.0447
v -1457.8416 626.6500 -572.6574
v -1482.5655 631.0051 -578.8204
v -1482.4288 630.1178 -565.4696
v -1457.8416 626.6500 -572.6574
v -1476.0775 630.7255 -590.5198
v -1482.5655 631.0051 -578.8204
v -1457.8416 626.6500 -572.6574
v -1464.7032 629.3538 -597.4330
v -1476.0775 630.7255 -590.5198
v -1457.8416 626.6500 -572.6574
v -1451.4903 627.2577 -597.7076
v -1464.7032 629.3538 -597.4330
v -1457.8416 626.6500 -572.6574
v -1439.9792 624.9987 -591.2701
v -1451.4903 627.2577 -597.7076
v -1457.8416 626.6500 -572.6574
v -1433.2544 623.1822 -579.8452
v -1439.9792 624.9987 -591.2701
v -1457.8416 626.6500 -572.6574
v -1433.1177 622.2949 -566.4944
v -1433.2544 623.1822 -579.8452
v -1457.8416 626.6500 -572.6574
v -1439.6057 622.5745 -554.7950
v -1433.1177 622.2949 -566.4944
v -1457.8416 626.6500 -572.6574
v -1450.9800 623.9462 -547.8818
v -1439.6057 622.5745 -554.7950
v -1457.8416 626.6500 -572.6574
v -1464.1929 626.0423 -547.6072
v -1450.9800 623.9462 -547.8818
v -1457.8416 626.6500 -572.6574
v -1475.7040 628.3013 -554.0447
v -1464.1929 626.0423 -547.6072
v -1457.8416 626.6500 -572.6574
v 1584.2800 84.6613 -598.0367
v 1475.7040 763.3013 -554.0447
v 1572.7689 82.4023 -591.5992
v 1475.7040 763.3013 -554.0447
v 1464.1929 761.0423 -547.6072
v 1572.7689 82.4023 -591.5992
v 1572.7689 82.4023 -591.5992
v 1464.1929 761.0423 -547.6072
v 1559.5560 80.3062 -591.8738
v 1464.1929 761.0423 -547.6072
v 1450.9800 758.9462 -547.8818
v 1559.5560 80.3062 -591.8738
v 1559.5560 80.3062 -591.8738
v 1450.9800 758.9462 -547.8818
v 1548.1817 78.9345 -598.7870
v 1450.9800 758.9462 -547.8818
v 1439.6057 757.5745 -554.7950
v 1548.1817 78.9345 -598.7870
v 1548.1817 78.9345 -598.7870
v 1439.6057 757.5745 -554.7950
v 1541.6937 78.6549 -610.4864
v 1439.6057 757.5745 -554.7950
v 1433.1177 757.2949 -566.4944
v 1541.6937 78.6549 -610.4864
v 1541.6937 78.6549 -610.4864
v 1433.1177 757.2949 -566.4944
v 1541.8304 79.5422 -623.8372
v 1433.1177 757.2949 -566.4944
v 1433.2544 758.1822 -579.8452
v 1541.8304 79.5422 -623.8372
v 1541.8304 79.5422 -623.8372
v 1433.2544 758.1822 -579.8452
v 1548.5552 81.3587 -635.2621
v 1433.2544 758.1822 -579.8452
v 1439.9792 759.9987 -591.2701
v 1548.5552 81.3587 -635.2621
v 1548.5552 81.3587 -635.2621
v 1439.9792 759.9987 -591.2701
v 1560.0663 83.6177 -641.6996
v 1439.9792 759.9987 -591.2701
v 1451.4903 762.2577 -597.7076
v 1560.0663 83.6177 -641.6996
v 1560.0663 83.6177 -641.6996
v 1451.4903 762.2577 -597.7076
v 1573.2792 85.7138 -641.4250
v 1451.4903 762.2577 -597.7076
v 1464.7032 764.3538 -597.4330
v 1573.2792 85.7138 -641.4250
v 1573.2792 85.7138 -641.4250
v 1464.7032 764.3538 -597.4330
v 1584.6535 87.0855 -634.5118
v 1464.7032 764.3538 -597.4330
v 1476.0775 765.7255 -590.5198
v 1584.6535 87.0855 -634.5118
v 1584.6535 87.0855 -634.5118
v 1476.0775 765.7255 -590.5198
v 1591.1415 87.3651 -622.8124
v 1476.0775 765.7255 -590.5198
v 1482.5655 766.0051 -578.8204
v 1591.1415 87.3651 -622.8124
v 1591.1415 87.3651 -622.8124
v 1482.5655 766.0051 -578.8204
v 1591.0048 86.4778 -609.4616
v 1482.5655 766.0051 -578.8204
v 1482.4288 765.1178 -565.4696
v 1591.0048 86.4778 -609.4616
v 1591.0048 86.4778 -609.4616
v 1482.4288 765.1178 -565.4696
v 1584.2800 84.6613 -598.0367
v 1482.4288 765.1178 -565.4696
v 1475.7040 763.3013 -554.0447
v 1584.2800 84.6613 -598.0367
v 1584.2800 84.6613 -598.0367
v 1572.7689 82.4023 -591.5992
v 1566.4176 83.0100 -616.6494
v 1572.7689 82.4023 -591.5992
v 1559.5560 80.3062 -591.8738
v 1566.4176 83.0100 -616.6494
v 1559.5560 80.3062 -591.8738
v 1548.1817 78.9345 -598.7870
v 1566.4176 83.0100 -616.6494
v 1548.1817 78.9345 -598.7870
v 1541.6937 78.6549 -610.4864
v 1566.4176 83.0100 -616.6494
v 1541.6937 78.6549 -610.4864
v 1541.8304 79.5422 -623.8372
v 1566.4176 83.0100 -616.6494
v 1541.8304 79.5422 -623.8372
v 1548.5552 81.3587 -635.2621
v 1566.4176 83.0100 -616.6494
v 1548.5552 81.3587 -635.2621
v 1560.0663 83.6177 -641.6996
v 1566.4176 83.0100 -616.6494
v 1560.0663 83.6177 -641.6996
v 1573.2792 85.7138 -641.4250
v 1566.4176 83.0100 -616.6494
v 1573.2792 85.7138 -641.4250
v 1584.6535 87.0855 -634.5118
v 1566.4176 83.0100 -616.6494
v 1584.6535 87.0855 -634.5118
v 1591.1415 87.3651 -622.8124
v 1566.4176 83.0100 -616.6494
v 1591.1415 87.3651 -622.8124
v 1591.0048 86.4778 -609.4616
v 1566.4176 83.0100 -616.6494
v 1591.0048 86.4778 -609.4616
v 1584.2800 84.6613 -598.0367
v 1566.4176 83.0100 -616.6494
v 1464.1929 761.0423 -547.6072
v 1475.7040 763.3013 -554.0447
v 1457.8416 761.6500 -572.6574
v 1450.9800 758.9462 -547.8818
v 1464.1929 761.0423 -547.6072
v 1457.8416 761.6500 -572.6574
v 1439.6057 757.5745 -554.7950
v 1450.9800 758.9462 -547.8818
v 1457.8416 761.6500 -572.6574
v 1433.1177 757.2949 -566.4944
v 1439.6057 757.5745 -554.7950
v 1457.8416 761.6500 -572.6574
v 1433.2544 758.1822 -579.8452
v 1433.1177 757.2949 -566.4944
v 1457.8416 761.6500 -572.6574
v 1439.9792 759.9987 -591.2701
v 1433.2544 758.1822 -579.8452
v 1457.8416 761.6500 -572.6574
v 1451.4903 762.2577 -597.7076
v 1439.9792 759.9987 -591.2701
v 1457.8416 761.6500 -572.6574
v 1464.7032 764.3538 -597.4330
v 1451.4903 762.2577 -597.7076
v 1457.8416 761.6500 -572.6574
v 1476.0775 765.7255 -590.5198
v 1464.7032 764.3538 -597.4330
v 1457.8416 761.6500 -572.6574
v 1482.5655 766.0051 -578.8204
v 1476.0775 765.7255 -590.5198
v 1457.8416 761.6500 -572.6574
v 1482.4288 765.1178 -565.4696
v 1482.5655 766.0051 -578.8204
v 1457.8416 761.6500 -572.6574
v 1475.7040 763.3013 -554.0447
v 1482.4288 765.1178 -565.4696
v 1457.8416 761.6500 -572.6574
v -1548.5552 216.3587 635.2621
v -1439.9792 894.9987 591.2701
v -1560.0663 218.6177 641.6996
v -1439.9792 894.9987 591.2701
v -1451.4903 897.2577 597.7076
v -1560.0663 218.6177 641.6996
v -1560.0663 218.6177 641.6996
v -1451.4903 897.2577 597.7076
v -1573.2792 220.7138 641.4250
v -1451.4903 897.2577 597.7076
v -1464.7032 899.3538 597.4330
v -1573.2792 220.7138 641.4250
v -1573.2792 220.7138 641.4250
v -1464.7032 899.3538 597.4330
v -1584.6535 222.0855 634.5118
v -1464.7032 899.3538 597.4330
v -1476.0775 900.7255 590.5198
v -1584.6535 222.0855 634.5118
v -1584.6535 222.0855 634.5118
v -1476.0775 900.7255 590.5198
v -1591.1415 222.3651 622.8124
v -1476.0775 900.7255 590.5198
v -1482.5655 901.0051 578.8204
v -1591.1415 222.3651 622.8124
v -1591.1415 222.3651 622.8124
v -1482.5655 901.0051 578.8204
v -1591.0048 221.4778 609.4616
v -1482.5655 901.0051 578.8204
v -1482.4288 900.1178 565.4696
v -1591.0048 221.4778 609.4616
v -1591.0048 221.4778 609.4616
v -1482.4288 900.1178 565.4696
v -1584.2800 219.6613 598.0367
v -1482.4288 900.1178 565.4696
v -1475.7040 898.3013 554.0447
v -1584.2800 219.6613 598.0367
v -1584.2800 219.6613 598.0367
v -1475.7040 898.3013 554.0447
v -1572.7689 217.4023 591.5992
v -1475.7040 898.3013 554.0447
v -1464.1929 896.0423 547.6072
v -1572.7689 217.4023 591.5992
v -1572.7689 217.4023 591.5992
v -1464.1929 896.0423 547.6072
v -1559.5560 215.3062 591.8738
v -1464.1929 896.0423 547.6072
v -1450.9800 893.9462 547.8818
v -1559.5560 215.3062 591.8738
v -1559.5560 215.3062 591.8738
v -1450.9800 893.9462 547.8818
v -1548.1817 213.9345 598.7870
v -1450.9800 893.9462 547.8818
v -1439.6057 892.5745 554.7950
v -1548.1817 213.9345 598.7870
v -1548.1817 213.9345 598.7870
v -1439.6057 892.5745 554.7950
v -1541.6937 213.6549 610.4864
v -1439.6057 892.5745 554.7950
v -1433.1177 892.2949 566.4944
v -1541.6937 213.6549 610.4864
v -1541.6937 213.6549 610.4864
v -1433.1177 892.2949 566.4944
v -1541.8304 214.5422 623.8372
v -1433.1177 892.2949 566.4944
v -1433.2544 893.1822 579.8452
v -1541.8304 214.5422 623.8372
v -1541.8304 214.5422 623.8372
v -1433.2544 893.1822 579.8452
v -1548.5552 216.3587 635.2621
v -1433.2544 893.1822 579.8452
v -1439.9792 894.9987 591.2701
v -1548.5552 216.3587 635.2621
v -1548.5552 216.3587 635.2621
v -1560.0663 218.6177 641.6996
v -1566.4176 218.0100 616.6494
v -1560.0663 218.6177 641.6996
v -1573.2792 220.7138 641.4250
v -1566.4176 218.0100 616.6494
v -1573.2792 220.7138 641.4250
v -1584.6535 222.0855 634.5118
v -1566.4176 218.0100 616.6494
v -1584.6535 222.0855 634.5118
v -1591.1415 222.3651 622.8124
v -1566.4176 218.0100 616.6494
v -1591.1415 222.3651 622.8124
v -1591.0048 221.4778 609.4616
v -1566.4176 218.0100 616.6494
v -1591.0048 221.4778 609.4616
v -1584.2800 219.6613 598.0367
v -1566.4176 218.0100 616.6494
v -1584.2800 219.6613 598.0367
v -1572.7689 217.4023 591.5992
v -1566.4176 218.0100 616.6494
v -1572.7689 217.4023 591.5992
v -1559.5560 215.3062 591.8738
v -1566.4176 218.0100 616.6494
v -1559.5560 215.3062 591.8738
v -1548.1817 213.9345 598.7870
v -1566.4176 218.0100 616.6494
v -1548.1817 213.9345 598.7870
v -1541.6937 213.6549 610.4864
v -1566.4176 218.0100 616.6494
v -1541.6937 213.6549 610.4864
v -1541.8304 214.5422 623.8372
v -1566.4176 218.0100 616.6494
v -1541.8304 214.5422 623.8372
v -1548.5552 216.3587 635.2621
v -1566.4176 218.0100 616.6494
v -1451.4903 897.2577 597.7076
v -1439.9792 894.9987 591.2701
v -1457.8416 896.6500 572.6574
v -1464.7032 899.3538 597.4330
v -1451.4903 897.2577 597.7076
v -1457.8416 896.6500 572.6574
v -1476.0775 900.7255 590.5198
v -1464.7032 899.3538 597.4330
v -1457.8416 896.6500 572.6574
v -1482.5655 901.0051 578.8204
v -1476.0775 900.7255 590.5198
v -1457.8416 896.6500 572.6574
v -1482.4288 900.1178 565.4696
v -1482.5655 901.0051 578.8204
v -1457.8416 896.6500 572.6574
v -1475.7040 898.3013 554.0447
v -1482.4288 900.1178 565.4696
v -1457.8416 896.6500 572.6574
v -1464.1929 896.0423 547.6072
v -1475.7040 898.3013 554.0447
v -1457.8416 896.6500 572.6574
v -1450.9800 893.9462 547.8818
v -1464.1929 896.0423 547.6072
v -1457.8416 896.6500 572.6574
v -1439.6057 892.5745 554.7950
v -1450.9800 893.9462 547.8818
v -1457.8416 896.6500 572.6574
v -1433.1177 892.2949 566.4944
v -1439.6057 892.5745 554.7950
v -1457.8416 896.6500 572.6574
v -1433.2544 893.1822 579.8452
v -1433.1177 892.2949 566.4944
v -1457.8416 896.6500 572.6574
v -1439.9792 894.9987 591.2701
v -1433.2544 893.1822 579.8452
v -1457.8416 896.6500 572.6574
v 1548.5552 -188.6413 635.2621
v 1439.9792 489.9987 591.2701
v 1541.8304 -190.4578 623.8372
v 1439.9792 489.9987 591.2701
v 1433.2544 488.1822 579.8452
v 1541.8304 -190.4578 623.8372
v 1541.8304 -190.4578 623.8372
v 1433.2544 488.1822 579.8452
v 1541.6937 -191.3451 610.4864
v 1433.2544 488.1822 579.8452
v 1433.1177 487.2949 566.4944
v 1541.6937 -191.3451 610.4864
v 1541.6937 -191.3451 610.4864
v 1433.1177 487.2949 566.4944
v 1548.1817 -191.0655 598.7870
v 1433.1177 487.2949 566.4944
v 1439.6057 487.5745 554.7950
v 1548.1817 -191.0655 598.7870
v 1548.1817 -191.0655 598.7870
v 1439.6057 487.5745 554.7950
v 1559.5560 -189.6938 591.8738
v 1439.6057 487.5745 554.7950
v 1450.9800 488.9462 547.8818
v 1559.5560 -189.6938 591.8738
v 1559.5560 -189.6938 591.8738
v 1450.9800 488.9462 547.8818
v 1572.7689 -187.5977 591.5992
v 1450.9800 488.9462 547.8818
v 1464.1929 491.0423 547.6072
v 1572.7689 -187.5977 591.5992
v 1572.7689 -187.5977 591.5992
v 1464.1929 491.0423 547.6072
v 1584.2800 -185.3387 598.0367
v 1464.1929 491.0423 547.6072
v 1475.7040 493.3013 554.0447
v 1584.2800 -185.3387 598.0367
v 1584.2800 -185.3387 598.0367
v 1475.7040 493.3013 554.0447
v 1591.0048 -183.5222 609.4616
v 1475.7040 493.3013 554.0447
v 1482.4288 495.1178 565.4696
v 1591.0048 -183.5222 609.4616
v 1591.0048 -183.5222 609.4616
v 1482.4288 495.1178 565.4696
v 1591.1415 -182.6349 622.8124
v 1482.4288 495.1178 565.4696
v 1482.5655 496.0051 578.8204
v 1591.1415 -182.6349 622.8124
v 1591.1415 -182.6349 622.8124
v 1482.5655 496.0051 578.8204
v 1584.6535 -182.9145 634.5118
v 1482.5655 496.0051 578.8204
v 1476.0775 495.7255 590.5198
v 1584.6535 -182.9145 634.5118
v 1584.6535 -182.9145 634.5118
v 1476.0775 495.7255 590.5198
v 1573.2792 -184.2862 641.4250
v 1476.0775 495.7255 590.5198
v 1464.7032 494.3538 597.4330
v 1573.2792 -184.2862 641.4250
v 1573.2792 -184.2862 641.4250
v 1464.7032 494.3538 597.4330
v 1560.0663 -186.3823 641.6996
v 1464.7032 494.3538 597.4330
v 1451.4903 492.2577 597.7076
v 1560.0663 -186.3823 641.6996
v 1560.0663 -186.3823 641.6996
v 1451.4903 492.2577 597.7076
v 1548.5552 -188.6413 635.2621
v 1451.4903 492.2577 597.7076
v 1439.9792 489.9987 591.2701
v 1548.5552 -188.6413 635.2621
v 1548.5552 -188.6413 635.2621
v 1541.8304 -190.4578 623.8372
v 1566.4176 -186.9900 616.6494
v 1541.8304 -190.4578 623.8372
v 1541.6937 -191.3451 610.4864
v 1566.4176 -186.9900 616.6494
v 1541.6937 -191.3451 610.4864
v 1548.1817 -191.0655 598.7870
v 1566.4176 -186.9900 616.6494
v 1548.1817 -191.0655 598.7870
v 1559.5560 -189.6938 591.8738
v 1566.4176 -186.9900 616.6494
v 1559.5560 -189.6938 591.8738
v 1572.7689 -187.5977 591.5992
v 1566.4176 -186.9900 616.6494
v 1572.7689 -187.5977 591.5992
v 1584.2800 -185.3387 598.0367
v 1566.4176 -186.9900 616.6494
v 1584.2800 -185.3387 598.0367
v 1591.0048 -183.5222 609.4616
v 1566.4176 -186.9900 616.6494
v 1591.0048 -183.5222 609.4616
v 1591.1415 -182.6349 622.8124
v 1566.4176 -186.9900 616.6494
v 1591.1415 -182.6349 622.8124
v 1584.6535 -182.9145 634.5118
v 1566.4176 -186.9900 616.6494
v 1584.6535 -182.9145 634.5118
v 1573.2792 -184.2862 641.4250
v 1566.4176 -186.9900 616.6494
v 1573.2792 -184.2862 641.4250
v 1560.0663 -186.3823 641.6996
v 1566.4176 -186.9900 616.6494
v 1560.0663 -186.3823 641.6996
v 1548.5552 -188.6413 635.2621
v 1566.4176 -186.9900 616.6494
v 1433.2544 488.1822 579.8452
v 1439.9792 489.9987 591.2701
v 1457.8416 491.6500 572.6574
v 1433.1177 487.2949 566.4944
v 1433.2544 488.1822 579.8452
v 1457.8416 491.6500 572.6574
v 1439.6057 487.5745 554.7950
v 1433.1177 487.2949 566.4944
v 1457.8416 491.6500 572.6574
v 1450.9800 488.9462 547.8818
v 1439.6057 487.5745 554.7950
v 1457.8416 491.6500 572.6574
v 1464.1929 491.0423 547.6072
v 1450.9800 488.9462 547.8818
v 1457.8416 491.6500 572.6574
v 1475.7040 493.3013 554.0447
v 1464.1929 491.0423 547.6072
v 1457.8416 491.6500 572.6574
v 1482.4288 495.1178 565.4696
v 1475.7040 493.3013 554.0447
v 1457.8416 491.6500 572.6574
v 1482.5655 496.0051 578.8204
v 1482.4288 495.1178 565.4696
v 1457.8416 491.6500 572.6574
v 1476.0775 495.7255 590.5198
v 1482.5655 496.0051 578.8204
v 1457.8416 491.6500 572.6574
v 1464.7032 494.3538 597.4330
v 1476.0775 495.7255 590.5198
v 1457.8416 491.6500 572.6574
v 1451.4903 492.2577 597.7076
v 1464.7032 494.3538 597.4330
v 1457.8416 491.6500 572.6574
v 1439.9792 489.9987 591.2701
v 1451.4903 492.2577 597.7076
v 1457.8416 491.6500 572.6574
f 1 2 3
f 4 5 6
f 7 8 9
f 10 11 12
f 13 14 15
f 16 17 18
f 19 20 21
f 22 23 24
f 25 26 27
f 28 29 30
f 31 32 33
f 34 35 36
f 37 38 39
f 40 41 42
f 43 44 45
f 46 47 48
f 49 50 51
f 52 53 54
f 55 56 57
f 58 59 60
f 61 62 63
f 64 65 66
f 67 68 69
f 70 71 72
f 73 74 75
f 76 77 78
f 79 80 81
f 82 83 84
f 85 86 87
f 88 89 90
f 91 92 93
f 94 95 96
f 97 98 99
f 100 101 102
f 103 104 105
f 106 107 108
f 109 110 111
f 112 113 114
f 115 116 117
f 118 119 120
f 121 122 123
f 124 125 126
f 127 128 129
f 130 131 132
f 133 134 135
f 136 137 138
f 139 140 141
f 142 143 144
f 145 146 147
f 148 149 150
f 151 152 153
f 154 155 156
f 157 158 159
f 160 161 162
f 163 164 165
f 166 167 168
f 169 170 171
f 172 173 174
f 175 176 177
f 178 179 180
f 181 182 183
f 184 185 186
f 187 188 189
f 190 191 192
f 193 194 195
f 196 197 198
f 199 200 201
f 202 203 204
f 205 206 207
f 208 209 210
f 211 212 213
f 214 215 216
f 217 218 219
f 220 221 222
f 223 224 225
f 226 227 228
f 229 230 231
f 232 233 234
f 235 236 237
f 238 239 240
f 241 242 243
f 244 245 246
f 247 248 249
f 250 251 252
f 253 254 255
f 256 257 258
f 259 260 261
f 262 263 264
f 265 266 267
f 268 269 270
f 271 272 273
f 274 275 276
f 277 278 279
f 280 281 282
f 283 284 285
f 286 287 288
f 289 290 291
f 292 293 294
f 295 296 297
f 298 299 300
f 301 302 303
f 304 305 306
f 307 308 309
f 310 311 312
f 313 314 315
f 316 317 318
f 319 320 321
f 322 323 324
f 325 326 327
f 328 329 330
f 331 332 333
f 334 335 336
f 337 338 339
f 340 341 342
f 343 344 345
f 346 347 348
f 349 350 351
f 352 353 354
f 355 356 357
f 358 359 360
f 361 362 363
f 364 365 366
f 367 368 369
f 370 371 372
f 373 374 375
f 376 377 378
f 379 380 381
f 382 383 384
f 385 386 387
f 388 389 390
f 391 392 393
f 394 395 396
f 397 398 399
f 400 401 402
f 403 404 405
f 406 407 408
f 409 410 411
f 412 413 414
f 415 416 417
f 418 419 420
f 421 422 423
f 424 425 426
f 427 428 429
f 430 431 432
f 433 434 435
f 436 437 438
f 439 440 441
f 442 443 444
f 445 446 447
f 448 449 450
f 451 452 453
f 454 455 456
f 457 458 459
f 460 461 462
f 463 464 465
f 466 467 468
f 469 470 471
f 472 473 474
f 475 476 477
f 478 479 480
f 481 482 483
f 484 485 486
f 487 488 489
f 490 491 492
f 493 494 495
f 496 497 498
f 499 500 501
f 502 503 504
f 505 506 507
f 508 509 510
f 511 512 513
f 514 515 516
f 517 518 519
f 520 521 522
f 523 524 525
f 526 527 528
f 529 530 531
f 532 533 534
f 535 536 537
f 538 539 540
f 541 542 543
f 544 545 546
f 547 548 549
f 550 551 552
f 553 554 555
f 556 557 558
f 559 560 561
f 562 563 564
f 565 566 567
f 568 569 570
f 571 572 573
f 574 575 576
f 577 578 579
f 580 581 582
f 583 584 585
f 586 587 588
f 589 590 591
f 592 593 594
f 595 596 597
f 598 599 600
f 601 602 603
f 604 605 606
f 607 608 609
f 610 611 612
