# MATERIA - Ghost
# Geometria originale di studio. Unita mm. Non CAD del produttore.
v 403.7500 140.1812 283.8000
v 403.7500 123.8187 283.8000
v 403.7500 140.1812 -283.8000
v 403.7500 123.8187 283.8000
v 403.7500 123.8187 -283.8000
v 403.7500 140.1812 -283.8000
v -403.7500 140.1812 -283.8000
v -403.7500 123.8187 -283.8000
v -403.7500 140.1812 283.8000
v -403.7500 123.8187 -283.8000
v -403.7500 123.8187 283.8000
v -403.7500 140.1812 283.8000
v -403.7500 140.1812 -283.8000
v -403.7500 140.1812 283.8000
v 403.7500 140.1812 -283.8000
v -403.7500 140.1812 283.8000
v 403.7500 140.1812 283.8000
v 403.7500 140.1812 -283.8000
v -403.7500 123.8187 283.8000
v -403.7500 123.8187 -283.8000
v 403.7500 123.8187 283.8000
v -403.7500 123.8187 -283.8000
v 403.7500 123.8187 -283.8000
v 403.7500 123.8187 283.8000
v -403.7500 140.1812 283.8000
v -403.7500 123.8187 283.8000
v 403.7500 140.1812 283.8000
v -403.7500 123.8187 283.8000
v 403.7500 123.8187 283.8000
v 403.7500 140.1812 283.8000
v 403.7500 140.1812 -283.8000
v 403.7500 123.8187 -283.8000
v -403.7500 140.1812 -283.8000
v 403.7500 123.8187 -283.8000
v -403.7500 123.8187 -283.8000
v -403.7500 140.1812 -283.8000
v 361.2500 795.2600 415.4498
v 361.2500 333.4233 480.5327
v 361.2500 792.9767 399.2473
v 361.2500 333.4233 480.5327
v 361.2500 331.1400 464.3302
v 361.2500 792.9767 399.2473
v -361.2500 792.9767 399.2473
v -361.2500 331.1400 464.3302
v -361.2500 795.2600 415.4498
v -361.2500 331.1400 464.3302
v -361.2500 333.4233 480.5327
v -361.2500 795.2600 415.4498
v -361.2500 792.9767 399.2473
v -361.2500 795.2600 415.4498
v 361.2500 792.9767 399.2473
v -361.2500 795.2600 415.4498
v 361.2500 795.2600 415.4498
v 361.2500 792.9767 399.2473
v -361.2500 333.4233 480.5327
v -361.2500 331.1400 464.3302
v 361.2500 333.4233 480.5327
v -361.2500 331.1400 464.3302
v 361.2500 331.1400 464.3302
v 361.2500 333.4233 480.5327
v -361.2500 795.2600 415.4498
v -361.2500 333.4233 480.5327
v 361.2500 795.2600 415.4498
v -361.2500 333.4233 480.5327
v 361.2500 333.4233 480.5327
v 361.2500 795.2600 415.4498
v 361.2500 792.9767 399.2473
v 361.2500 331.1400 464.3302
v -361.2500 792.9767 399.2473
v 361.2500 331.1400 464.3302
v -361.2500 331.1400 464.3302
v -361.2500 792.9767 399.2473
v -340.6375 79.2000 -275.2000
v -340.6375 176.8559 -282.6320
v -348.8188 79.2021 -261.0297
v -340.6375 176.8559 -282.6320
v -348.8188 178.6465 -268.5752
v -348.8188 79.2021 -261.0297
v -348.8188 79.2021 -261.0297
v -348.8188 178.6465 -268.5752
v -365.1812 79.2021 -261.0297
v -348.8188 178.6465 -268.5752
v -365.1812 178.6465 -268.5752
v -365.1812 79.2021 -261.0297
v -365.1812 79.2021 -261.0297
v -365.1812 178.6465 -268.5752
v -373.3625 79.2000 -275.2000
v -365.1812 178.6465 -268.5752
v -373.3625 176.8559 -282.6320
v -373.3625 79.2000 -275.2000
v -373.3625 79.2000 -275.2000
v -373.3625 176.8559 -282.6320
v -365.1812 79.1979 -289.3703
v -373.3625 176.8559 -282.6320
v -365.1812 175.0653 -296.6888
v -365.1812 79.1979 -289.3703
v -365.1812 79.1979 -289.3703
v -365.1812 175.0653 -296.6888
v -348.8188 79.1979 -289.3703
v -365.1812 175.0653 -296.6888
v -348.8188 175.0653 -296.6888
v -348.8188 79.1979 -289.3703
v -348.8188 79.1979 -289.3703
v -348.8188 175.0653 -296.6888
v -340.6375 79.2000 -275.2000
v -348.8188 175.0653 -296.6888
v -340.6375 176.8559 -282.6320
v -340.6375 79.2000 -275.2000
v -340.6375 176.8559 -282.6320
v -340.6375 273.8750 -296.5351
v -348.8188 178.6465 -268.5752
v -340.6375 273.8750 -296.5351
v -348.8188 275.9077 -282.5113
v -348.8188 178.6465 -268.5752
v -348.8188 178.6465 -268.5752
v -348.8188 275.9077 -282.5113
v -365.1812 178.6465 -268.5752
v -348.8188 275.9077 -282.5113
v -365.1812 275.9077 -282.5113
v -365.1812 178.6465 -268.5752
v -365.1812 178.6465 -268.5752
v -365.1812 275.9077 -282.5113
v -373.3625 176.8559 -282.6320
v -365.1812 275.9077 -282.5113
v -373.3625 273.8750 -296.5351
v -373.3625 176.8559 -282.6320
v -373.3625 176.8559 -282.6320
v -373.3625 273.8750 -296.5351
v -365.1812 175.0653 -296.6888
v -373.3625 273.8750 -296.5351
v -365.1812 271.8422 -310.5588
v -365.1812 175.0653 -296.6888
v -365.1812 175.0653 -296.6888
v -365.1812 271.8422 -310.5588
v -348.8188 175.0653 -296.6888
v -365.1812 271.8422 -310.5588
v -348.8188 271.8422 -310.5588
v -348.8188 175.0653 -296.6888
v -348.8188 175.0653 -296.6888
v -348.8188 271.8422 -310.5588
v -340.6375 176.8559 -282.6320
v -348.8188 271.8422 -310.5588
v -340.6375 273.8750 -296.5351
v -340.6375 176.8559 -282.6320
v -340.6375 273.8750 -296.5351
v -340.6375 371.2032 -307.9034
v -348.8188 275.9077 -282.5113
v -340.6375 371.2032 -307.9034
v -348.8188 372.2020 -293.7683
v -348.8188 275.9077 -282.5113
v -348.8188 275.9077 -282.5113
v -348.8188 372.2020 -293.7683
v -365.1812 275.9077 -282.5113
v -348.8188 372.2020 -293.7683
v -365.1812 372.2020 -293.7683
v -365.1812 275.9077 -282.5113
v -365.1812 275.9077 -282.5113
v -365.1812 372.2020 -293.7683
v -373.3625 273.8750 -296.5351
v -365.1812 372.2020 -293.7683
v -373.3625 371.2032 -307.9034
v -373.3625 273.8750 -296.5351
v -373.3625 273.8750 -296.5351
v -373.3625 371.2032 -307.9034
v -365.1812 271.8422 -310.5588
v -373.3625 371.2032 -307.9034
v -365.1812 370.2045 -322.0385
v -365.1812 271.8422 -310.5588
v -365.1812 271.8422 -310.5588
v -365.1812 370.2045 -322.0385
v -348.8188 271.8422 -310.5588
v -365.1812 370.2045 -322.0385
v -348.8188 370.2045 -322.0385
v -348.8188 271.8422 -310.5588
v -348.8188 271.8422 -310.5588
v -348.8188 370.2045 -322.0385
v -340.6375 273.8750 -296.5351
v -348.8188 370.2045 -322.0385
v -340.6375 371.2032 -307.9034
v -340.6375 273.8750 -296.5351
v -340.6375 371.2032 -307.9034
v -340.6375 468.9053 -304.7173
v -348.8188 372.2020 -293.7683
v -340.6375 468.9053 -304.7173
v -348.8188 466.3065 -290.7873
v -348.8188 372.2020 -293.7683
v -348.8188 372.2020 -293.7683
v -348.8188 466.3065 -290.7873
v -365.1812 372.2020 -293.7683
v -348.8188 466.3065 -290.7873
v -365.1812 466.3065 -290.7873
v -365.1812 372.2020 -293.7683
v -365.1812 372.2020 -293.7683
v -365.1812 466.3065 -290.7873
v -373.3625 371.2032 -307.9034
v -365.1812 466.3065 -290.7873
v -373.3625 468.9053 -304.7173
v -373.3625 371.2032 -307.9034
v -373.3625 371.2032 -307.9034
v -373.3625 468.9053 -304.7173
v -365.1812 370.2045 -322.0385
v -373.3625 468.9053 -304.7173
v -365.1812 471.5040 -318.6473
v -365.1812 370.2045 -322.0385
v -365.1812 370.2045 -322.0385
v -365.1812 471.5040 -318.6473
v -348.8188 370.2045 -322.0385
v -365.1812 471.5040 -318.6473
v -348.8188 471.5040 -318.6473
v -348.8188 370.2045 -322.0385
v -348.8188 370.2045 -322.0385
v -348.8188 471.5040 -318.6473
v -340.6375 371.2032 -307.9034
v -348.8188 471.5040 -318.6473
v -340.6375 468.9053 -304.7173
v -340.6375 371.2032 -307.9034
v -340.6375 468.9053 -304.7173
v -340.6375 553.1644 -258.9066
v -348.8188 466.3065 -290.7873
v -340.6375 553.1644 -258.9066
v -348.8188 542.4490 -249.6342
v -348.8188 466.3065 -290.7873
v -348.8188 466.3065 -290.7873
v -348.8188 542.4490 -249.6342
v -365.1812 466.3065 -290.7873
v -348.8188 542.4490 -249.6342
v -365.1812 542.4490 -249.6342
v -365.1812 466.3065 -290.7873
v -365.1812 466.3065 -290.7873
v -365.1812 542.4490 -249.6342
v -373.3625 468.9053 -304.7173
v -365.1812 542.4490 -249.6342
v -373.3625 553.1644 -258.9066
v -373.3625 468.9053 -304.7173
v -373.3625 468.9053 -304.7173
v -373.3625 553.1644 -258.9066
v -365.1812 471.5040 -318.6473
v -373.3625 553.1644 -258.9066
v -365.1812 563.8799 -268.1790
v -365.1812 471.5040 -318.6473
v -365.1812 471.5040 -318.6473
v -365.1812 563.8799 -268.1790
v -348.8188 471.5040 -318.6473
v -365.1812 563.8799 -268.1790
v -348.8188 563.8799 -268.1790
v -348.8188 471.5040 -318.6473
v -348.8188 471.5040 -318.6473
v -348.8188 563.8799 -268.1790
v -340.6375 468.9053 -304.7173
v -348.8188 563.8799 -268.1790
v -340.6375 553.1644 -258.9066
v -340.6375 468.9053 -304.7173
v -340.6375 553.1644 -258.9066
v -340.6375 602.3709 -174.5781
v -348.8188 542.4490 -249.6342
v -340.6375 602.3709 -174.5781
v -348.8188 589.3101 -169.0812
v -348.8188 542.4490 -249.6342
v -348.8188 542.4490 -249.6342
v -348.8188 589.3101 -169.0812
v -365.1812 542.4490 -249.6342
v -348.8188 589.3101 -169.0812
v -365.1812 589.3101 -169.0812
v -365.1812 542.4490 -249.6342
v -365.1812 542.4490 -249.6342
v -365.1812 589.3101 -169.0812
v -373.3625 553.1644 -258.9066
v -365.1812 589.3101 -169.0812
v -373.3625 602.3709 -174.5781
v -373.3625 553.1644 -258.9066
v -373.3625 553.1644 -258.9066
v -373.3625 602.3709 -174.5781
v -365.1812 563.8799 -268.1790
v -373.3625 602.3709 -174.5781
v -365.1812 615.4316 -180.0750
v -365.1812 563.8799 -268.1790
v -365.1812 563.8799 -268.1790
v -365.1812 615.4316 -180.0750
v -348.8188 563.8799 -268.1790
v -365.1812 615.4316 -180.0750
v -348.8188 615.4316 -180.0750
v -348.8188 563.8799 -268.1790
v -348.8188 563.8799 -268.1790
v -348.8188 615.4316 -180.0750
v -340.6375 553.1644 -258.9066
v -348.8188 615.4316 -180.0750
v -340.6375 602.3709 -174.5781
v -340.6375 553.1644 -258.9066
v -340.6375 602.3709 -174.5781
v -340.6375 632.8586 -81.5238
v -348.8188 589.3101 -169.0812
v -340.6375 632.8586 -81.5238
v -348.8188 619.1101 -78.0921
v -348.8188 589.3101 -169.0812
v -348.8188 589.3101 -169.0812
v -348.8188 619.1101 -78.0921
v -365.1812 589.3101 -169.0812
v -348.8188 619.1101 -78.0921
v -365.1812 619.1101 -78.0921
v -365.1812 589.3101 -169.0812
v -365.1812 589.3101 -169.0812
v -365.1812 619.1101 -78.0921
v -373.3625 602.3709 -174.5781
v -365.1812 619.1101 -78.0921
v -373.3625 632.8586 -81.5238
v -373.3625 602.3709 -174.5781
v -373.3625 602.3709 -174.5781
v -373.3625 632.8586 -81.5238
v -365.1812 615.4316 -180.0750
v -373.3625 632.8586 -81.5238
v -365.1812 646.6071 -84.9556
v -365.1812 615.4316 -180.0750
v -365.1812 615.4316 -180.0750
v -365.1812 646.6071 -84.9556
v -348.8188 615.4316 -180.0750
v -365.1812 646.6071 -84.9556
v -348.8188 646.6071 -84.9556
v -348.8188 615.4316 -180.0750
v -348.8188 615.4316 -180.0750
v -348.8188 646.6071 -84.9556
v -340.6375 602.3709 -174.5781
v -348.8188 646.6071 -84.9556
v -340.6375 632.8586 -81.5238
v -340.6375 602.3709 -174.5781
v -340.6375 632.8586 -81.5238
v -340.6375 650.3885 14.8423
v -348.8188 619.1101 -78.0921
v -340.6375 650.3885 14.8423
v -348.8188 636.3106 16.4582
v -348.8188 619.1101 -78.0921
v -348.8188 619.1101 -78.0921
v -348.8188 636.3106 16.4582
v -365.1812 619.1101 -78.0921
v -348.8188 636.3106 16.4582
v -365.1812 636.3106 16.4582
v -365.1812 619.1101 -78.0921
v -365.1812 619.1101 -78.0921
v -365.1812 636.3106 16.4582
v -373.3625 632.8586 -81.5238
v -365.1812 636.3106 16.4582
v -373.3625 650.3885 14.8423
v -373.3625 632.8586 -81.5238
v -373.3625 632.8586 -81.5238
v -373.3625 650.3885 14.8423
v -365.1812 646.6071 -84.9556
v -373.3625 650.3885 14.8423
v -365.1812 664.4664 13.2265
v -365.1812 646.6071 -84.9556
v -365.1812 646.6071 -84.9556
v -365.1812 664.4664 13.2265
v -348.8188 646.6071 -84.9556
v -365.1812 664.4664 13.2265
v -348.8188 664.4664 13.2265
v -348.8188 646.6071 -84.9556
v -348.8188 646.6071 -84.9556
v -348.8188 664.4664 13.2265
v -340.6375 632.8586 -81.5238
v -348.8188 664.4664 13.2265
v -340.6375 650.3885 14.8423
v -340.6375 632.8586 -81.5238
v -340.6375 650.3885 14.8423
v -340.6375 653.9529 112.6803
v -348.8188 636.3106 16.4582
v -340.6375 653.9529 112.6803
v -348.8188 639.8039 111.9028
v -348.8188 636.3106 16.4582
v -348.8188 636.3106 16.4582
v -348.8188 639.8039 111.9028
v -365.1812 636.3106 16.4582
v -348.8188 639.8039 111.9028
v -365.1812 639.8039 111.9028
v -365.1812 636.3106 16.4582
v -365.1812 636.3106 16.4582
v -365.1812 639.8039 111.9028
v -373.3625 650.3885 14.8423
v -365.1812 639.8039 111.9028
v -373.3625 653.9529 112.6803
v -373.3625 650.3885 14.8423
v -373.3625 650.3885 14.8423
v -373.3625 653.9529 112.6803
v -365.1812 664.4664 13.2265
v -373.3625 653.9529 112.6803
v -365.1812 668.1019 113.4577
v -365.1812 664.4664 13.2265
v -365.1812 664.4664 13.2265
v -365.1812 668.1019 113.4577
v -348.8188 664.4664 13.2265
v -365.1812 668.1019 113.4577
v -348.8188 668.1019 113.4577
v -348.8188 664.4664 13.2265
v -348.8188 664.4664 13.2265
v -348.8188 668.1019 113.4577
v -340.6375 650.3885 14.8423
v -348.8188 668.1019 113.4577
v -340.6375 653.9529 112.6803
v -340.6375 650.3885 14.8423
v -340.6375 653.9529 112.6803
v -340.6375 633.5742 207.9604
v -348.8188 639.8039 111.9028
v -340.6375 633.5742 207.9604
v -348.8188 620.7569 201.9175
v -348.8188 639.8039 111.9028
v -348.8188 639.8039 111.9028
v -348.8188 620.7569 201.9175
v -365.1812 639.8039 111.9028
v -348.8188 620.7569 201.9175
v -365.1812 620.7569 201.9175
v -365.1812 639.8039 111.9028
v -365.1812 639.8039 111.9028
v -365.1812 620.7569 201.9175
v -373.3625 653.9529 112.6803
v -365.1812 620.7569 201.9175
v -373.3625 633.5742 207.9604
v -373.3625 653.9529 112.6803
v -373.3625 653.9529 112.6803
v -373.3625 633.5742 207.9604
v -365.1812 668.1019 113.4577
v -373.3625 633.5742 207.9604
v -365.1812 646.3915 214.0033
v -365.1812 668.1019 113.4577
v -365.1812 668.1019 113.4577
v -365.1812 646.3915 214.0033
v -348.8188 668.1019 113.4577
v -365.1812 646.3915 214.0033
v -348.8188 646.3915 214.0033
v -348.8188 668.1019 113.4577
v -348.8188 668.1019 113.4577
v -348.8188 646.3915 214.0033
v -340.6375 653.9529 112.6803
v -348.8188 646.3915 214.0033
v -340.6375 633.5742 207.9604
v -340.6375 653.9529 112.6803
v -340.6375 633.5742 207.9604
v -340.6375 562.3793 272.0183
v -348.8188 620.7569 201.9175
v -340.6375 562.3793 272.0183
v -348.8188 556.5825 259.0879
v -348.8188 620.7569 201.9175
v -348.8188 620.7569 201.9175
v -348.8188 556.5825 259.0879
v -365.1812 620.7569 201.9175
v -348.8188 556.5825 259.0879
v -365.1812 556.5825 259.0879
v -365.1812 620.7569 201.9175
v -365.1812 620.7569 201.9175
v -365.1812 556.5825 259.0879
v -373.3625 633.5742 207.9604
v -365.1812 556.5825 259.0879
v -373.3625 562.3793 272.0183
v -373.3625 633.5742 207.9604
v -373.3625 633.5742 207.9604
v -373.3625 562.3793 272.0183
v -365.1812 646.3915 214.0033
v -373.3625 562.3793 272.0183
v -365.1812 568.1761 284.9487
v -365.1812 646.3915 214.0033
v -365.1812 646.3915 214.0033
v -365.1812 568.1761 284.9487
v -348.8188 646.3915 214.0033
v -365.1812 568.1761 284.9487
v -348.8188 568.1761 284.9487
v -348.8188 646.3915 214.0033
v -348.8188 646.3915 214.0033
v -348.8188 568.1761 284.9487
v -340.6375 633.5742 207.9604
v -348.8188 568.1761 284.9487
v -340.6375 562.3793 272.0183
v -340.6375 633.5742 207.9604
v -340.6375 562.3793 272.0183
v -340.6375 468.3945 298.9688
v -348.8188 556.5825 259.0879
v -340.6375 468.3945 298.9688
v -348.8188 465.8439 285.0299
v -348.8188 556.5825 259.0879
v -348.8188 556.5825 259.0879
v -348.8188 465.8439 285.0299
v -365.1812 556.5825 259.0879
v -348.8188 465.8439 285.0299
v -365.1812 465.8439 285.0299
v -365.1812 556.5825 259.0879
v -365.1812 556.5825 259.0879
v -365.1812 465.8439 285.0299
v -373.3625 562.3793 272.0183
v -365.1812 465.8439 285.0299
v -373.3625 468.3945 298.9688
v -373.3625 562.3793 272.0183
v -373.3625 562.3793 272.0183
v -373.3625 468.3945 298.9688
v -365.1812 568.1761 284.9487
v -373.3625 468.3945 298.9688
v -365.1812 470.9452 312.9077
v -365.1812 568.1761 284.9487
v -365.1812 568.1761 284.9487
v -365.1812 470.9452 312.9077
v -348.8188 568.1761 284.9487
v -365.1812 470.9452 312.9077
v -348.8188 470.9452 312.9077
v -348.8188 568.1761 284.9487
v -348.8188 568.1761 284.9487
v -348.8188 470.9452 312.9077
v -340.6375 562.3793 272.0183
v -348.8188 470.9452 312.9077
v -340.6375 468.3945 298.9688
v -340.6375 562.3793 272.0183
v -340.6375 468.3945 298.9688
v -340.6375 371.2585 311.8706
v -348.8188 465.8439 285.0299
v -340.6375 371.2585 311.8706
v -348.8188 369.8778 297.7677
v -348.8188 465.8439 285.0299
v -348.8188 465.8439 285.0299
v -348.8188 369.8778 297.7677
v -365.1812 465.8439 285.0299
v -348.8188 369.8778 297.7677
v -365.1812 369.8778 297.7677
v -365.1812 465.8439 285.0299
v -365.1812 465.8439 285.0299
v -365.1812 369.8778 297.7677
v -373.3625 468.3945 298.9688
v -365.1812 369.8778 297.7677
v -373.3625 371.2585 311.8706
v -373.3625 468.3945 298.9688
v -373.3625 468.3945 298.9688
v -373.3625 371.2585 311.8706
v -365.1812 470.9452 312.9077
v -373.3625 371.2585 311.8706
v -365.1812 372.6391 325.9735
v -365.1812 470.9452 312.9077
v -365.1812 470.9452 312.9077
v -365.1812 372.6391 325.9735
v -348.8188 470.9452 312.9077
v -365.1812 372.6391 325.9735
v -348.8188 372.6391 325.9735
v -348.8188 470.9452 312.9077
v -348.8188 470.9452 312.9077
v -348.8188 372.6391 325.9735
v -340.6375 468.3945 298.9688
v -348.8188 372.6391 325.9735
v -340.6375 371.2585 311.8706
v -340.6375 468.3945 298.9688
v -340.6375 371.2585 311.8706
v -340.6375 273.5974 320.0974
v -348.8188 369.8778 297.7677
v -340.6375 273.5974 320.0974
v -348.8188 272.4811 305.9711
v -348.8188 369.8778 297.7677
v -348.8188 369.8778 297.7677
v -348.8188 272.4811 305.9711
v -365.1812 369.8778 297.7677
v -348.8188 272.4811 305.9711
v -365.1812 272.4811 305.9711
v -365.1812 369.8778 297.7677
v -365.1812 369.8778 297.7677
v -365.1812 272.4811 305.9711
v -373.3625 371.2585 311.8706
v -365.1812 272.4811 305.9711
v -373.3625 273.5974 320.0974
v -373.3625 371.2585 311.8706
v -373.3625 371.2585 311.8706
v -373.3625 273.5974 320.0974
v -365.1812 372.6391 325.9735
v -373.3625 273.5974 320.0974
v -365.1812 274.7138 334.2237
v -365.1812 372.6391 325.9735
v -365.1812 372.6391 325.9735
v -365.1812 274.7138 334.2237
v -348.8188 372.6391 325.9735
v -365.1812 274.7138 334.2237
v -348.8188 274.7138 334.2237
v -348.8188 372.6391 325.9735
v -348.8188 372.6391 325.9735
v -348.8188 274.7138 334.2237
v -340.6375 371.2585 311.8706
v -348.8188 274.7138 334.2237
v -340.6375 273.5974 320.0974
v -340.6375 371.2585 311.8706
v -340.6375 273.5974 320.0974
v -340.6375 175.9891 328.9061
v -348.8188 272.4811 305.9711
v -340.6375 175.9891 328.9061
v -348.8188 174.4310 314.8217
v -348.8188 272.4811 305.9711
v -348.8188 272.4811 305.9711
v -348.8188 174.4310 314.8217
v -365.1812 272.4811 305.9711
v -348.8188 174.4310 314.8217
v -365.1812 174.4310 314.8217
v -365.1812 272.4811 305.9711
v -365.1812 272.4811 305.9711
v -365.1812 174.4310 314.8217
v -373.3625 273.5974 320.0974
v -365.1812 174.4310 314.8217
v -373.3625 175.9891 328.9061
v -373.3625 273.5974 320.0974
v -373.3625 273.5974 320.0974
v -373.3625 175.9891 328.9061
v -365.1812 274.7138 334.2237
v -373.3625 175.9891 328.9061
v -365.1812 177.5471 342.9905
v -365.1812 274.7138 334.2237
v -365.1812 274.7138 334.2237
v -365.1812 177.5471 342.9905
v -348.8188 274.7138 334.2237
v -365.1812 177.5471 342.9905
v -348.8188 177.5471 342.9905
v -348.8188 274.7138 334.2237
v -348.8188 274.7138 334.2237
v -348.8188 177.5471 342.9905
v -340.6375 273.5974 320.0974
v -348.8188 177.5471 342.9905
v -340.6375 175.9891 328.9061
v -340.6375 273.5974 320.0974
v -340.6375 175.9891 328.9061
v -340.6375 79.2000 344.0000
v -348.8188 174.4310 314.8217
v -340.6375 79.2000 344.0000
v -348.8188 76.1485 330.1621
v -348.8188 174.4310 314.8217
v -348.8188 174.4310 314.8217
v -348.8188 76.1485 330.1621
v -365.1812 174.4310 314.8217
v -348.8188 76.1485 330.1621
v -365.1812 76.1485 330.1621
v -365.1812 174.4310 314.8217
v -365.1812 174.4310 314.8217
v -365.1812 76.1485 330.1621
v -373.3625 175.9891 328.9061
v -365.1812 76.1485 330.1621
v -373.3625 79.2000 344.0000
v -373.3625 175.9891 328.9061
v -373.3625 175.9891 328.9061
v -373.3625 79.2000 344.0000
v -365.1812 177.5471 342.9905
v -373.3625 79.2000 344.0000
v -365.1812 82.2515 357.8379
v -365.1812 177.5471 342.9905
v -365.1812 177.5471 342.9905
v -365.1812 82.2515 357.8379
v -348.8188 177.5471 342.9905
v -365.1812 82.2515 357.8379
v -348.8188 82.2515 357.8379
v -348.8188 177.5471 342.9905
v -348.8188 177.5471 342.9905
v -348.8188 82.2515 357.8379
v -340.6375 175.9891 328.9061
v -348.8188 82.2515 357.8379
v -340.6375 79.2000 344.0000
v -340.6375 175.9891 328.9061
v 373.3625 237.6000 -275.2000
v 373.3625 335.2559 -282.6320
v 365.1812 237.6021 -261.0297
v 373.3625 335.2559 -282.6320
v 365.1812 337.0465 -268.5752
v 365.1812 237.6021 -261.0297
v 365.1812 237.6021 -261.0297
v 365.1812 337.0465 -268.5752
v 348.8188 237.6021 -261.0297
v 365.1812 337.0465 -268.5752
v 348.8188 337.0465 -268.5752
v 348.8188 237.6021 -261.0297
v 348.8188 237.6021 -261.0297
v 348.8188 337.0465 -268.5752
v 340.6375 237.6000 -275.2000
v 348.8188 337.0465 -268.5752
v 340.6375 335.2559 -282.6320
v 340.6375 237.6000 -275.2000
v 340.6375 237.6000 -275.2000
v 340.6375 335.2559 -282.6320
v 348.8188 237.5979 -289.3703
v 340.6375 335.2559 -282.6320
v 348.8188 333.4653 -296.6888
v 348.8188 237.5979 -289.3703
v 348.8188 237.5979 -289.3703
v 348.8188 333.4653 -296.6888
v 365.1812 237.5979 -289.3703
v 348.8188 333.4653 -296.6888
v 365.1812 333.4653 -296.6888
v 365.1812 237.5979 -289.3703
v 365.1812 237.5979 -289.3703
v 365.1812 333.4653 -296.6888
v 373.3625 237.6000 -275.2000
v 365.1812 333.4653 -296.6888
v 373.3625 335.2559 -282.6320
v 373.3625 237.6000 -275.2000
v 373.3625 335.2559 -282.6320
v 373.3625 432.2750 -296.5351
v 365.1812 337.0465 -268.5752
v 373.3625 432.2750 -296.5351
v 365.1812 434.3077 -282.5113
v 365.1812 337.0465 -268.5752
v 365.1812 337.0465 -268.5752
v 365.1812 434.3077 -282.5113
v 348.8188 337.0465 -268.5752
v 365.1812 434.3077 -282.5113
v 348.8188 434.3077 -282.5113
v 348.8188 337.0465 -268.5752
v 348.8188 337.0465 -268.5752
v 348.8188 434.3077 -282.5113
v 340.6375 335.2559 -282.6320
v 348.8188 434.3077 -282.5113
v 340.6375 432.2750 -296.5351
v 340.6375 335.2559 -282.6320
v 340.6375 335.2559 -282.6320
v 340.6375 432.2750 -296.5351
v 348.8188 333.4653 -296.6888
v 340.6375 432.2750 -296.5351
v 348.8188 430.2422 -310.5588
v 348.8188 333.4653 -296.6888
v 348.8188 333.4653 -296.6888
v 348.8188 430.2422 -310.5588
v 365.1812 333.4653 -296.6888
v 348.8188 430.2422 -310.5588
v 365.1812 430.2422 -310.5588
v 365.1812 333.4653 -296.6888
v 365.1812 333.4653 -296.6888
v 365.1812 430.2422 -310.5588
v 373.3625 335.2559 -282.6320
v 365.1812 430.2422 -310.5588
v 373.3625 432.2750 -296.5351
v 373.3625 335.2559 -282.6320
v 373.3625 432.2750 -296.5351
v 373.3625 529.6032 -307.9034
v 365.1812 434.3077 -282.5113
v 373.3625 529.6032 -307.9034
v 365.1812 530.6020 -293.7683
v 365.1812 434.3077 -282.5113
v 365.1812 434.3077 -282.5113
v 365.1812 530.6020 -293.7683
v 348.8188 434.3077 -282.5113
v 365.1812 530.6020 -293.7683
v 348.8188 530.6020 -293.7683
v 348.8188 434.3077 -282.5113
v 348.8188 434.3077 -282.5113
v 348.8188 530.6020 -293.7683
v 340.6375 432.2750 -296.5351
v 348.8188 530.6020 -293.7683
v 340.6375 529.6032 -307.9034
v 340.6375 432.2750 -296.5351
v 340.6375 432.2750 -296.5351
v 340.6375 529.6032 -307.9034
v 348.8188 430.2422 -310.5588
v 340.6375 529.6032 -307.9034
v 348.8188 528.6045 -322.0385
v 348.8188 430.2422 -310.5588
v 348.8188 430.2422 -310.5588
v 348.8188 528.6045 -322.0385
v 365.1812 430.2422 -310.5588
v 348.8188 528.6045 -322.0385
v 365.1812 528.6045 -322.0385
v 365.1812 430.2422 -310.5588
v 365.1812 430.2422 -310.5588
v 365.1812 528.6045 -322.0385
v 373.3625 432.2750 -296.5351
v 365.1812 528.6045 -322.0385
v 373.3625 529.6032 -307.9034
v 373.3625 432.2750 -296.5351
v 373.3625 529.6032 -307.9034
v 373.3625 627.3053 -304.7173
v 365.1812 530.6020 -293.7683
v 373.3625 627.3053 -304.7173
v 365.1812 624.7065 -290.7873
v 365.1812 530.6020 -293.7683
v 365.1812 530.6020 -293.7683
v 365.1812 624.7065 -290.7873
v 348.8188 530.6020 -293.7683
v 365.1812 624.7065 -290.7873
v 348.8188 624.7065 -290.7873
v 348.8188 530.6020 -293.7683
v 348.8188 530.6020 -293.7683
v 348.8188 624.7065 -290.7873
v 340.6375 529.6032 -307.9034
v 348.8188 624.7065 -290.7873
v 340.6375 627.3053 -304.7173
v 340.6375 529.6032 -307.9034
v 340.6375 529.6032 -307.9034
v 340.6375 627.3053 -304.7173
v 348.8188 528.6045 -322.0385
v 340.6375 627.3053 -304.7173
v 348.8188 629.9040 -318.6473
v 348.8188 528.6045 -322.0385
v 348.8188 528.6045 -322.0385
v 348.8188 629.9040 -318.6473
v 365.1812 528.6045 -322.0385
v 348.8188 629.9040 -318.6473
v 365.1812 629.9040 -318.6473
v 365.1812 528.6045 -322.0385
v 365.1812 528.6045 -322.0385
v 365.1812 629.9040 -318.6473
v 373.3625 529.6032 -307.9034
v 365.1812 629.9040 -318.6473
v 373.3625 627.3053 -304.7173
v 373.3625 529.6032 -307.9034
v 373.3625 627.3053 -304.7173
v 373.3625 711.5644 -258.9066
v 365.1812 624.7065 -290.7873
v 373.3625 711.5644 -258.9066
v 365.1812 700.8490 -249.6342
v 365.1812 624.7065 -290.7873
v 365.1812 624.7065 -290.7873
v 365.1812 700.8490 -249.6342
v 348.8188 624.7065 -290.7873
v 365.1812 700.8490 -249.6342
v 348.8188 700.8490 -249.6342
v 348.8188 624.7065 -290.7873
v 348.8188 624.7065 -290.7873
v 348.8188 700.8490 -249.6342
v 340.6375 627.3053 -304.7173
v 348.8188 700.8490 -249.6342
v 340.6375 711.5644 -258.9066
v 340.6375 627.3053 -304.7173
v 340.6375 627.3053 -304.7173
v 340.6375 711.5644 -258.9066
v 348.8188 629.9040 -318.6473
v 340.6375 711.5644 -258.9066
v 348.8188 722.2799 -268.1790
v 348.8188 629.9040 -318.6473
v 348.8188 629.9040 -318.6473
v 348.8188 722.2799 -268.1790
v 365.1812 629.9040 -318.6473
v 348.8188 722.2799 -268.1790
v 365.1812 722.2799 -268.1790
v 365.1812 629.9040 -318.6473
v 365.1812 629.9040 -318.6473
v 365.1812 722.2799 -268.1790
v 373.3625 627.3053 -304.7173
v 365.1812 722.2799 -268.1790
v 373.3625 711.5644 -258.9066
v 373.3625 627.3053 -304.7173
v 373.3625 711.5644 -258.9066
v 373.3625 760.7709 -174.5781
v 365.1812 700.8490 -249.6342
v 373.3625 760.7709 -174.5781
v 365.1812 747.7101 -169.0812
v 365.1812 700.8490 -249.6342
v 365.1812 700.8490 -249.6342
v 365.1812 747.7101 -169.0812
v 348.8188 700.8490 -249.6342
v 365.1812 747.7101 -169.0812
v 348.8188 747.7101 -169.0812
v 348.8188 700.8490 -249.6342
v 348.8188 700.8490 -249.6342
v 348.8188 747.7101 -169.0812
v 340.6375 711.5644 -258.9066
v 348.8188 747.7101 -169.0812
v 340.6375 760.7709 -174.5781
v 340.6375 711.5644 -258.9066
v 340.6375 711.5644 -258.9066
v 340.6375 760.7709 -174.5781
v 348.8188 722.2799 -268.1790
v 340.6375 760.7709 -174.5781
v 348.8188 773.8316 -180.0750
v 348.8188 722.2799 -268.1790
v 348.8188 722.2799 -268.1790
v 348.8188 773.8316 -180.0750
v 365.1812 722.2799 -268.1790
v 348.8188 773.8316 -180.0750
v 365.1812 773.8316 -180.0750
v 365.1812 722.2799 -268.1790
v 365.1812 722.2799 -268.1790
v 365.1812 773.8316 -180.0750
v 373.3625 711.5644 -258.9066
v 365.1812 773.8316 -180.0750
v 373.3625 760.7709 -174.5781
v 373.3625 711.5644 -258.9066
v 373.3625 760.7709 -174.5781
v 373.3625 791.2586 -81.5238
v 365.1812 747.7101 -169.0812
v 373.3625 791.2586 -81.5238
v 365.1812 777.5101 -78.0921
v 365.1812 747.7101 -169.0812
v 365.1812 747.7101 -169.0812
v 365.1812 777.5101 -78.0921
v 348.8188 747.7101 -169.0812
v 365.1812 777.5101 -78.0921
v 348.8188 777.5101 -78.0921
v 348.8188 747.7101 -169.0812
v 348.8188 747.7101 -169.0812
v 348.8188 777.5101 -78.0921
v 340.6375 760.7709 -174.5781
v 348.8188 777.5101 -78.0921
v 340.6375 791.2586 -81.5238
v 340.6375 760.7709 -174.5781
v 340.6375 760.7709 -174.5781
v 340.6375 791.2586 -81.5238
v 348.8188 773.8316 -180.0750
v 340.6375 791.2586 -81.5238
v 348.8188 805.0071 -84.9556
v 348.8188 773.8316 -180.0750
v 348.8188 773.8316 -180.0750
v 348.8188 805.0071 -84.9556
v 365.1812 773.8316 -180.0750
v 348.8188 805.0071 -84.9556
v 365.1812 805.0071 -84.9556
v 365.1812 773.8316 -180.0750
v 365.1812 773.8316 -180.0750
v 365.1812 805.0071 -84.9556
v 373.3625 760.7709 -174.5781
v 365.1812 805.0071 -84.9556
v 373.3625 791.2586 -81.5238
v 373.3625 760.7709 -174.5781
v 373.3625 791.2586 -81.5238
v 373.3625 808.7885 14.8423
v 365.1812 777.5101 -78.0921
v 373.3625 808.7885 14.8423
v 365.1812 794.7106 16.4582
v 365.1812 777.5101 -78.0921
v 365.1812 777.5101 -78.0921
v 365.1812 794.7106 16.4582
v 348.8188 777.5101 -78.0921
v 365.1812 794.7106 16.4582
v 348.8188 794.7106 16.4582
v 348.8188 777.5101 -78.0921
v 348.8188 777.5101 -78.0921
v 348.8188 794.7106 16.4582
v 340.6375 791.2586 -81.5238
v 348.8188 794.7106 16.4582
v 340.6375 808.7885 14.8423
v 340.6375 791.2586 -81.5238
v 340.6375 791.2586 -81.5238
v 340.6375 808.7885 14.8423
v 348.8188 805.0071 -84.9556
v 340.6375 808.7885 14.8423
v 348.8188 822.8664 13.2265
v 348.8188 805.0071 -84.9556
v 348.8188 805.0071 -84.9556
v 348.8188 822.8664 13.2265
v 365.1812 805.0071 -84.9556
v 348.8188 822.8664 13.2265
v 365.1812 822.8664 13.2265
v 365.1812 805.0071 -84.9556
v 365.1812 805.0071 -84.9556
v 365.1812 822.8664 13.2265
v 373.3625 791.2586 -81.5238
v 365.1812 822.8664 13.2265
v 373.3625 808.7885 14.8423
v 373.3625 791.2586 -81.5238
v 373.3625 808.7885 14.8423
v 373.3625 812.3529 112.6803
v 365.1812 794.7106 16.4582
v 373.3625 812.3529 112.6803
v 365.1812 798.2039 111.9028
v 365.1812 794.7106 16.4582
v 365.1812 794.7106 16.4582
v 365.1812 798.2039 111.9028
v 348.8188 794.7106 16.4582
v 365.1812 798.2039 111.9028
v 348.8188 798.2039 111.9028
v 348.8188 794.7106 16.4582
v 348.8188 794.7106 16.4582
v 348.8188 798.2039 111.9028
v 340.6375 808.7885 14.8423
v 348.8188 798.2039 111.9028
v 340.6375 812.3529 112.6803
v 340.6375 808.7885 14.8423
v 340.6375 808.7885 14.8423
v 340.6375 812.3529 112.6803
v 348.8188 822.8664 13.2265
v 340.6375 812.3529 112.6803
v 348.8188 826.5019 113.4577
v 348.8188 822.8664 13.2265
v 348.8188 822.8664 13.2265
v 348.8188 826.5019 113.4577
v 365.1812 822.8664 13.2265
v 348.8188 826.5019 113.4577
v 365.1812 826.5019 113.4577
v 365.1812 822.8664 13.2265
v 365.1812 822.8664 13.2265
v 365.1812 826.5019 113.4577
v 373.3625 808.7885 14.8423
v 365.1812 826.5019 113.4577
v 373.3625 812.3529 112.6803
v 373.3625 808.7885 14.8423
v 373.3625 812.3529 112.6803
v 373.3625 791.9742 207.9604
v 365.1812 798.2039 111.9028
v 373.3625 791.9742 207.9604
v 365.1812 779.1569 201.9175
v 365.1812 798.2039 111.9028
v 365.1812 798.2039 111.9028
v 365.1812 779.1569 201.9175
v 348.8188 798.2039 111.9028
v 365.1812 779.1569 201.9175
v 348.8188 779.1569 201.9175
v 348.8188 798.2039 111.9028
v 348.8188 798.2039 111.9028
v 348.8188 779.1569 201.9175
v 340.6375 812.3529 112.6803
v 348.8188 779.1569 201.9175
v 340.6375 791.9742 207.9604
v 340.6375 812.3529 112.6803
v 340.6375 812.3529 112.6803
v 340.6375 791.9742 207.9604
v 348.8188 826.5019 113.4577
v 340.6375 791.9742 207.9604
v 348.8188 804.7915 214.0033
v 348.8188 826.5019 113.4577
v 348.8188 826.5019 113.4577
v 348.8188 804.7915 214.0033
v 365.1812 826.5019 113.4577
v 348.8188 804.7915 214.0033
v 365.1812 804.7915 214.0033
v 365.1812 826.5019 113.4577
v 365.1812 826.5019 113.4577
v 365.1812 804.7915 214.0033
v 373.3625 812.3529 112.6803
v 365.1812 804.7915 214.0033
v 373.3625 791.9742 207.9604
v 373.3625 812.3529 112.6803
v 373.3625 791.9742 207.9604
v 373.3625 720.7793 272.0183
v 365.1812 779.1569 201.9175
v 373.3625 720.7793 272.0183
v 365.1812 714.9825 259.0879
v 365.1812 779.1569 201.9175
v 365.1812 779.1569 201.9175
v 365.1812 714.9825 259.0879
v 348.8188 779.1569 201.9175
v 365.1812 714.9825 259.0879
v 348.8188 714.9825 259.0879
v 348.8188 779.1569 201.9175
v 348.8188 779.1569 201.9175
v 348.8188 714.9825 259.0879
v 340.6375 791.9742 207.9604
v 348.8188 714.9825 259.0879
v 340.6375 720.7793 272.0183
v 340.6375 791.9742 207.9604
v 340.6375 791.9742 207.9604
v 340.6375 720.7793 272.0183
v 348.8188 804.7915 214.0033
v 340.6375 720.7793 272.0183
v 348.8188 726.5761 284.9487
v 348.8188 804.7915 214.0033
v 348.8188 804.7915 214.0033
v 348.8188 726.5761 284.9487
v 365.1812 804.7915 214.0033
v 348.8188 726.5761 284.9487
v 365.1812 726.5761 284.9487
v 365.1812 804.7915 214.0033
v 365.1812 804.7915 214.0033
v 365.1812 726.5761 284.9487
v 373.3625 791.9742 207.9604
v 365.1812 726.5761 284.9487
v 373.3625 720.7793 272.0183
v 373.3625 791.9742 207.9604
v 373.3625 720.7793 272.0183
v 373.3625 626.7945 298.9688
v 365.1812 714.9825 259.0879
v 373.3625 626.7945 298.9688
v 365.1812 624.2439 285.0299
v 365.1812 714.9825 259.0879
v 365.1812 714.9825 259.0879
v 365.1812 624.2439 285.0299
v 348.8188 714.9825 259.0879
v 365.1812 624.2439 285.0299
v 348.8188 624.2439 285.0299
v 348.8188 714.9825 259.0879
v 348.8188 714.9825 259.0879
v 348.8188 624.2439 285.0299
v 340.6375 720.7793 272.0183
v 348.8188 624.2439 285.0299
v 340.6375 626.7945 298.9688
v 340.6375 720.7793 272.0183
v 340.6375 720.7793 272.0183
v 340.6375 626.7945 298.9688
v 348.8188 726.5761 284.9487
v 340.6375 626.7945 298.9688
v 348.8188 629.3452 312.9077
v 348.8188 726.5761 284.9487
v 348.8188 726.5761 284.9487
v 348.8188 629.3452 312.9077
v 365.1812 726.5761 284.9487
v 348.8188 629.3452 312.9077
v 365.1812 629.3452 312.9077
v 365.1812 726.5761 284.9487
v 365.1812 726.5761 284.9487
v 365.1812 629.3452 312.9077
v 373.3625 720.7793 272.0183
v 365.1812 629.3452 312.9077
v 373.3625 626.7945 298.9688
v 373.3625 720.7793 272.0183
v 373.3625 626.7945 298.9688
v 373.3625 529.6585 311.8706
v 365.1812 624.2439 285.0299
v 373.3625 529.6585 311.8706
v 365.1812 528.2778 297.7677
v 365.1812 624.2439 285.0299
v 365.1812 624.2439 285.0299
v 365.1812 528.2778 297.7677
v 348.8188 624.2439 285.0299
v 365.1812 528.2778 297.7677
v 348.8188 528.2778 297.7677
v 348.8188 624.2439 285.0299
v 348.8188 624.2439 285.0299
v 348.8188 528.2778 297.7677
v 340.6375 626.7945 298.9688
v 348.8188 528.2778 297.7677
v 340.6375 529.6585 311.8706
v 340.6375 626.7945 298.9688
v 340.6375 626.7945 298.9688
v 340.6375 529.6585 311.8706
v 348.8188 629.3452 312.9077
v 340.6375 529.6585 311.8706
v 348.8188 531.0391 325.9735
v 348.8188 629.3452 312.9077
v 348.8188 629.3452 312.9077
v 348.8188 531.0391 325.9735
v 365.1812 629.3452 312.9077
v 348.8188 531.0391 325.9735
v 365.1812 531.0391 325.9735
v 365.1812 629.3452 312.9077
v 365.1812 629.3452 312.9077
v 365.1812 531.0391 325.9735
v 373.3625 626.7945 298.9688
v 365.1812 531.0391 325.9735
v 373.3625 529.6585 311.8706
v 373.3625 626.7945 298.9688
v 373.3625 529.6585 311.8706
v 373.3625 431.9974 320.0974
v 365.1812 528.2778 297.7677
v 373.3625 431.9974 320.0974
v 365.1812 430.8811 305.9711
v 365.1812 528.2778 297.7677
v 365.1812 528.2778 297.7677
v 365.1812 430.8811 305.9711
v 348.8188 528.2778 297.7677
v 365.1812 430.8811 305.9711
v 348.8188 430.8811 305.9711
v 348.8188 528.2778 297.7677
v 348.8188 528.2778 297.7677
v 348.8188 430.8811 305.9711
v 340.6375 529.6585 311.8706
v 348.8188 430.8811 305.9711
v 340.6375 431.9974 320.0974
v 340.6375 529.6585 311.8706
v 340.6375 529.6585 311.8706
v 340.6375 431.9974 320.0974
v 348.8188 531.0391 325.9735
v 340.6375 431.9974 320.0974
v 348.8188 433.1138 334.2237
v 348.8188 531.0391 325.9735
v 348.8188 531.0391 325.9735
v 348.8188 433.1138 334.2237
v 365.1812 531.0391 325.9735
v 348.8188 433.1138 334.2237
v 365.1812 433.1138 334.2237
v 365.1812 531.0391 325.9735
v 365.1812 531.0391 325.9735
v 365.1812 433.1138 334.2237
v 373.3625 529.6585 311.8706
v 365.1812 433.1138 334.2237
v 373.3625 431.9974 320.0974
v 373.3625 529.6585 311.8706
v 373.3625 431.9974 320.0974
v 373.3625 334.3891 328.9061
v 365.1812 430.8811 305.9711
v 373.3625 334.3891 328.9061
v 365.1812 332.8310 314.8217
v 365.1812 430.8811 305.9711
v 365.1812 430.8811 305.9711
v 365.1812 332.8310 314.8217
v 348.8188 430.8811 305.9711
v 365.1812 332.8310 314.8217
v 348.8188 332.8310 314.8217
v 348.8188 430.8811 305.9711
v 348.8188 430.8811 305.9711
v 348.8188 332.8310 314.8217
v 340.6375 431.9974 320.0974
v 348.8188 332.8310 314.8217
v 340.6375 334.3891 328.9061
v 340.6375 431.9974 320.0974
v 340.6375 431.9974 320.0974
v 340.6375 334.3891 328.9061
v 348.8188 433.1138 334.2237
v 340.6375 334.3891 328.9061
v 348.8188 335.9471 342.9905
v 348.8188 433.1138 334.2237
v 348.8188 433.1138 334.2237
v 348.8188 335.9471 342.9905
v 365.1812 433.1138 334.2237
v 348.8188 335.9471 342.9905
v 365.1812 335.9471 342.9905
v 365.1812 433.1138 334.2237
v 365.1812 433.1138 334.2237
v 365.1812 335.9471 342.9905
v 373.3625 431.9974 320.0974
v 365.1812 335.9471 342.9905
v 373.3625 334.3891 328.9061
v 373.3625 431.9974 320.0974
v 373.3625 334.3891 328.9061
v 373.3625 237.6000 344.0000
v 365.1812 332.8310 314.8217
v 373.3625 237.6000 344.0000
v 365.1812 234.5485 330.1621
v 365.1812 332.8310 314.8217
v 365.1812 332.8310 314.8217
v 365.1812 234.5485 330.1621
v 348.8188 332.8310 314.8217
v 365.1812 234.5485 330.1621
v 348.8188 234.5485 330.1621
v 348.8188 332.8310 314.8217
v 348.8188 332.8310 314.8217
v 348.8188 234.5485 330.1621
v 340.6375 334.3891 328.9061
v 348.8188 234.5485 330.1621
v 340.6375 237.6000 344.0000
v 340.6375 334.3891 328.9061
v 340.6375 334.3891 328.9061
v 340.6375 237.6000 344.0000
v 348.8188 335.9471 342.9905
v 340.6375 237.6000 344.0000
v 348.8188 240.6515 357.8379
v 348.8188 335.9471 342.9905
v 348.8188 335.9471 342.9905
v 348.8188 240.6515 357.8379
v 365.1812 335.9471 342.9905
v 348.8188 240.6515 357.8379
v 365.1812 240.6515 357.8379
v 365.1812 335.9471 342.9905
v 365.1812 335.9471 342.9905
v 365.1812 240.6515 357.8379
v 373.3625 334.3891 328.9061
v 365.1812 240.6515 357.8379
v 373.3625 237.6000 344.0000
v 373.3625 334.3891 328.9061
f 1 2 3
f 4 5 6
f 7 8 9
f 10 11 12
f 13 14 15
f 16 17 18
f 19 20 21
f 22 23 24
f 25 26 27
f 28 29 30
f 31 32 33
f 34 35 36
f 37 38 39
f 40 41 42
f 43 44 45
f 46 47 48
f 49 50 51
f 52 53 54
f 55 56 57
f 58 59 60
f 61 62 63
f 64 65 66
f 67 68 69
f 70 71 72
f 73 74 75
f 76 77 78
f 79 80 81
f 82 83 84
f 85 86 87
f 88 89 90
f 91 92 93
f 94 95 96
f 97 98 99
f 100 101 102
f 103 104 105
f 106 107 108
f 109 110 111
f 112 113 114
f 115 116 117
f 118 119 120
f 121 122 123
f 124 125 126
f 127 128 129
f 130 131 132
f 133 134 135
f 136 137 138
f 139 140 141
f 142 143 144
f 145 146 147
f 148 149 150
f 151 152 153
f 154 155 156
f 157 158 159
f 160 161 162
f 163 164 165
f 166 167 168
f 169 170 171
f 172 173 174
f 175 176 177
f 178 179 180
f 181 182 183
f 184 185 186
f 187 188 189
f 190 191 192
f 193 194 195
f 196 197 198
f 199 200 201
f 202 203 204
f 205 206 207
f 208 209 210
f 211 212 213
f 214 215 216
f 217 218 219
f 220 221 222
f 223 224 225
f 226 227 228
f 229 230 231
f 232 233 234
f 235 236 237
f 238 239 240
f 241 242 243
f 244 245 246
f 247 248 249
f 250 251 252
f 253 254 255
f 256 257 258
f 259 260 261
f 262 263 264
f 265 266 267
f 268 269 270
f 271 272 273
f 274 275 276
f 277 278 279
f 280 281 282
f 283 284 285
f 286 287 288
f 289 290 291
f 292 293 294
f 295 296 297
f 298 299 300
f 301 302 303
f 304 305 306
f 307 308 309
f 310 311 312
f 313 314 315
f 316 317 318
f 319 320 321
f 322 323 324
f 325 326 327
f 328 329 330
f 331 332 333
f 334 335 336
f 337 338 339
f 340 341 342
f 343 344 345
f 346 347 348
f 349 350 351
f 352 353 354
f 355 356 357
f 358 359 360
f 361 362 363
f 364 365 366
f 367 368 369
f 370 371 372
f 373 374 375
f 376 377 378
f 379 380 381
f 382 383 384
f 385 386 387
f 388 389 390
f 391 392 393
f 394 395 396
f 397 398 399
f 400 401 402
f 403 404 405
f 406 407 408
f 409 410 411
f 412 413 414
f 415 416 417
f 418 419 420
f 421 422 423
f 424 425 426
f 427 428 429
f 430 431 432
f 433 434 435
f 436 437 438
f 439 440 441
f 442 443 444
f 445 446 447
f 448 449 450
f 451 452 453
f 454 455 456
f 457 458 459
f 460 461 462
f 463 464 465
f 466 467 468
f 469 470 471
f 472 473 474
f 475 476 477
f 478 479 480
f 481 482 483
f 484 485 486
f 487 488 489
f 490 491 492
f 493 494 495
f 496 497 498
f 499 500 501
f 502 503 504
f 505 506 507
f 508 509 510
f 511 512 513
f 514 515 516
f 517 518 519
f 520 521 522
f 523 524 525
f 526 527 528
f 529 530 531
f 532 533 534
f 535 536 537
f 538 539 540
f 541 542 543
f 544 545 546
f 547 548 549
f 550 551 552
f 553 554 555
f 556 557 558
f 559 560 561
f 562 563 564
f 565 566 567
f 568 569 570
f 571 572 573
f 574 575 576
f 577 578 579
f 580 581 582
f 583 584 585
f 586 587 588
f 589 590 591
f 592 593 594
f 595 596 597
f 598 599 600
f 601 602 603
f 604 605 606
f 607 608 609
f 610 611 612
f 613 614 615
f 616 617 618
f 619 620 621
f 622 623 624
f 625 626 627
f 628 629 630
f 631 632 633
f 634 635 636
f 637 638 639
f 640 641 642
f 643 644 645
f 646 647 648
f 649 650 651
f 652 653 654
f 655 656 657
f 658 659 660
f 661 662 663
f 664 665 666
f 667 668 669
f 670 671 672
f 673 674 675
f 676 677 678
f 679 680 681
f 682 683 684
f 685 686 687
f 688 689 690
f 691 692 693
f 694 695 696
f 697 698 699
f 700 701 702
f 703 704 705
f 706 707 708
f 709 710 711
f 712 713 714
f 715 716 717
f 718 719 720
f 721 722 723
f 724 725 726
f 727 728 729
f 730 731 732
f 733 734 735
f 736 737 738
f 739 740 741
f 742 743 744
f 745 746 747
f 748 749 750
f 751 752 753
f 754 755 756
f 757 758 759
f 760 761 762
f 763 764 765
f 766 767 768
f 769 770 771
f 772 773 774
f 775 776 777
f 778 779 780
f 781 782 783
f 784 785 786
f 787 788 789
f 790 791 792
f 793 794 795
f 796 797 798
f 799 800 801
f 802 803 804
f 805 806 807
f 808 809 810
f 811 812 813
f 814 815 816
f 817 818 819
f 820 821 822
f 823 824 825
f 826 827 828
f 829 830 831
f 832 833 834
f 835 836 837
f 838 839 840
f 841 842 843
f 844 845 846
f 847 848 849
f 850 851 852
f 853 854 855
f 856 857 858
f 859 860 861
f 862 863 864
f 865 866 867
f 868 869 870
f 871 872 873
f 874 875 876
f 877 878 879
f 880 881 882
f 883 884 885
f 886 887 888
f 889 890 891
f 892 893 894
f 895 896 897
f 898 899 900
f 901 902 903
f 904 905 906
f 907 908 909
f 910 911 912
f 913 914 915
f 916 917 918
f 919 920 921
f 922 923 924
f 925 926 927
f 928 929 930
f 931 932 933
f 934 935 936
f 937 938 939
f 940 941 942
f 943 944 945
f 946 947 948
f 949 950 951
f 952 953 954
f 955 956 957
f 958 959 960
f 961 962 963
f 964 965 966
f 967 968 969
f 970 971 972
f 973 974 975
f 976 977 978
f 979 980 981
f 982 983 984
f 985 986 987
f 988 989 990
f 991 992 993
f 994 995 996
f 997 998 999
f 1000 1001 1002
f 1003 1004 1005
f 1006 1007 1008
f 1009 1010 1011
f 1012 1013 1014
f 1015 1016 1017
f 1018 1019 1020
f 1021 1022 1023
f 1024 1025 1026
f 1027 1028 1029
f 1030 1031 1032
f 1033 1034 1035
f 1036 1037 1038
f 1039 1040 1041
f 1042 1043 1044
f 1045 1046 1047
f 1048 1049 1050
f 1051 1052 1053
f 1054 1055 1056
f 1057 1058 1059
f 1060 1061 1062
f 1063 1064 1065
f 1066 1067 1068
f 1069 1070 1071
f 1072 1073 1074
f 1075 1076 1077
f 1078 1079 1080
f 1081 1082 1083
f 1084 1085 1086
f 1087 1088 1089
f 1090 1091 1092
f 1093 1094 1095
f 1096 1097 1098
f 1099 1100 1101
f 1102 1103 1104
f 1105 1106 1107
f 1108 1109 1110
f 1111 1112 1113
f 1114 1115 1116
f 1117 1118 1119
f 1120 1121 1122
f 1123 1124 1125
f 1126 1127 1128
f 1129 1130 1131
f 1132 1133 1134
f 1135 1136 1137
f 1138 1139 1140
f 1141 1142 1143
f 1144 1145 1146
f 1147 1148 1149
f 1150 1151 1152
f 1153 1154 1155
f 1156 1157 1158
f 1159 1160 1161
f 1162 1163 1164
f 1165 1166 1167
f 1168 1169 1170
f 1171 1172 1173
f 1174 1175 1176
f 1177 1178 1179
f 1180 1181 1182
f 1183 1184 1185
f 1186 1187 1188
f 1189 1190 1191
f 1192 1193 1194
f 1195 1196 1197
f 1198 1199 1200
f 1201 1202 1203
f 1204 1205 1206
f 1207 1208 1209
f 1210 1211 1212
f 1213 1214 1215
f 1216 1217 1218
f 1219 1220 1221
f 1222 1223 1224
