# MATERIA - Shimmer
# Geometria originale di studio. Unita mm. Non CAD del produttore.
v 0.0000 418.9750 345.0000
v 0.0000 381.0250 345.0000
v 237.5000 418.9750 298.7788
v 0.0000 381.0250 345.0000
v 237.5000 381.0250 298.7788
v 237.5000 418.9750 298.7788
v 237.5000 418.9750 298.7788
v 237.5000 381.0250 298.7788
v 411.3621 418.9750 172.5000
v 237.5000 381.0250 298.7788
v 411.3621 381.0250 172.5000
v 411.3621 418.9750 172.5000
v 411.3621 418.9750 172.5000
v 411.3621 381.0250 172.5000
v 475.0000 418.9750 0.0000
v 411.3621 381.0250 172.5000
v 475.0000 381.0250 0.0000
v 475.0000 418.9750 0.0000
v 475.0000 418.9750 0.0000
v 475.0000 381.0250 0.0000
v 411.3621 418.9750 -172.5000
v 475.0000 381.0250 0.0000
v 411.3621 381.0250 -172.5000
v 411.3621 418.9750 -172.5000
v 411.3621 418.9750 -172.5000
v 411.3621 381.0250 -172.5000
v 237.5000 418.9750 -298.7788
v 411.3621 381.0250 -172.5000
v 237.5000 381.0250 -298.7788
v 237.5000 418.9750 -298.7788
v 237.5000 418.9750 -298.7788
v 237.5000 381.0250 -298.7788
v 0.0000 418.9750 -345.0000
v 237.5000 381.0250 -298.7788
v 0.0000 381.0250 -345.0000
v 0.0000 418.9750 -345.0000
v 0.0000 418.9750 -345.0000
v 0.0000 381.0250 -345.0000
v -237.5000 418.9750 -298.7788
v 0.0000 381.0250 -345.0000
v -237.5000 381.0250 -298.7788
v -237.5000 418.9750 -298.7788
v -237.5000 418.9750 -298.7788
v -237.5000 381.0250 -298.7788
v -411.3621 418.9750 -172.5000
v -237.5000 381.0250 -298.7788
v -411.3621 381.0250 -172.5000
v -411.3621 418.9750 -172.5000
v -411.3621 418.9750 -172.5000
v -411.3621 381.0250 -172.5000
v -475.0000 418.9750 -0.0000
v -411.3621 381.0250 -172.5000
v -475.0000 381.0250 -0.0000
v -475.0000 418.9750 -0.0000
v -475.0000 418.9750 -0.0000
v -475.0000 381.0250 -0.0000
v -411.3621 418.9750 172.5000
v -475.0000 381.0250 -0.0000
v -411.3621 381.0250 172.5000
v -411.3621 418.9750 172.5000
v -411.3621 418.9750 172.5000
v -411.3621 381.0250 172.5000
v -237.5000 418.9750 298.7788
v -411.3621 381.0250 172.5000
v -237.5000 381.0250 298.7788
v -237.5000 418.9750 298.7788
v -237.5000 418.9750 298.7788
v -237.5000 381.0250 298.7788
v -0.0000 418.9750 345.0000
v -237.5000 381.0250 298.7788
v -0.0000 381.0250 345.0000
v -0.0000 418.9750 345.0000
v 0.0000 418.9750 345.0000
v 237.5000 418.9750 298.7788
v 0.0000 418.9750 0.0000
v 237.5000 418.9750 298.7788
v 411.3621 418.9750 172.5000
v 0.0000 418.9750 0.0000
v 411.3621 418.9750 172.5000
v 475.0000 418.9750 0.0000
v 0.0000 418.9750 0.0000
v 475.0000 418.9750 0.0000
v 411.3621 418.9750 -172.5000
v 0.0000 418.9750 0.0000
v 411.3621 418.9750 -172.5000
v 237.5000 418.9750 -298.7788
v 0.0000 418.9750 0.0000
v 237.5000 418.9750 -298.7788
v 0.0000 418.9750 -345.0000
v 0.0000 418.9750 0.0000
v 0.0000 418.9750 -345.0000
v -237.5000 418.9750 -298.7788
v 0.0000 418.9750 0.0000
v -237.5000 418.9750 -298.7788
v -411.3621 418.9750 -172.5000
v 0.0000 418.9750 0.0000
v -411.3621 418.9750 -172.5000
v -475.0000 418.9750 -0.0000
v 0.0000 418.9750 0.0000
v -475.0000 418.9750 -0.0000
v -411.3621 418.9750 172.5000
v 0.0000 418.9750 0.0000
v -411.3621 418.9750 172.5000
v -237.5000 418.9750 298.7788
v 0.0000 418.9750 0.0000
v -237.5000 418.9750 298.7788
v -0.0000 418.9750 345.0000
v 0.0000 418.9750 0.0000
v 237.5000 381.0250 298.7788
v 0.0000 381.0250 345.0000
v 0.0000 381.0250 0.0000
v 411.3621 381.0250 172.5000
v 237.5000 381.0250 298.7788
v 0.0000 381.0250 0.0000
v 475.0000 381.0250 0.0000
v 411.3621 381.0250 172.5000
v 0.0000 381.0250 0.0000
v 411.3621 381.0250 -172.5000
v 475.0000 381.0250 0.0000
v 0.0000 381.0250 0.0000
v 237.5000 381.0250 -298.7788
v 411.3621 381.0250 -172.5000
v 0.0000 381.0250 0.0000
v 0.0000 381.0250 -345.0000
v 237.5000 381.0250 -298.7788
v 0.0000 381.0250 0.0000
v -237.5000 381.0250 -298.7788
v 0.0000 381.0250 -345.0000
v 0.0000 381.0250 0.0000
v -411.3621 381.0250 -172.5000
v -237.5000 381.0250 -298.7788
v 0.0000 381.0250 0.0000
v -475.0000 381.0250 -0.0000
v -411.3621 381.0250 -172.5000
v 0.0000 381.0250 0.0000
v -411.3621 381.0250 172.5000
v -475.0000 381.0250 -0.0000
v 0.0000 381.0250 0.0000
v -237.5000 381.0250 298.7788
v -411.3621 381.0250 172.5000
v 0.0000 381.0250 0.0000
v -0.0000 381.0250 345.0000
v -237.5000 381.0250 298.7788
v 0.0000 381.0250 0.0000
v -404.4065 13.0247 -274.7518
v -359.9465 382.6647 -242.4598
v -404.8691 13.9337 -284.5209
v -359.9465 382.6647 -242.4598
v -360.4091 383.5737 -252.2289
v -404.8691 13.9337 -284.5209
v -404.8691 13.9337 -284.5209
v -360.4091 383.5737 -252.2289
v -400.3990 14.1599 -293.2640
v -360.4091 383.5737 -252.2289
v -355.9390 383.7999 -260.9720
v -400.3990 14.1599 -293.2640
v -400.3990 14.1599 -293.2640
v -355.9390 383.7999 -260.9720
v -392.1939 13.6425 -298.6385
v -355.9390 383.7999 -260.9720
v -347.7339 383.2825 -266.3465
v -392.1939 13.6425 -298.6385
v -392.1939 13.6425 -298.6385
v -347.7339 383.2825 -266.3465
v -382.4525 12.5202 -299.2042
v -347.7339 383.2825 -266.3465
v -337.9925 382.1602 -266.9122
v -382.4525 12.5202 -299.2042
v -382.4525 12.5202 -299.2042
v -337.9925 382.1602 -266.9122
v -373.7849 11.0938 -294.8096
v -337.9925 382.1602 -266.9122
v -329.3249 380.7338 -262.5176
v -373.7849 11.0938 -294.8096
v -373.7849 11.0938 -294.8096
v -329.3249 380.7338 -262.5176
v -368.5135 9.7453 -286.6322
v -329.3249 380.7338 -262.5176
v -324.0535 379.3853 -254.3402
v -368.5135 9.7453 -286.6322
v -368.5135 9.7453 -286.6322
v -324.0535 379.3853 -254.3402
v -368.0509 8.8363 -276.8631
v -324.0535 379.3853 -254.3402
v -323.5909 378.4763 -244.5711
v -368.0509 8.8363 -276.8631
v -368.0509 8.8363 -276.8631
v -323.5909 378.4763 -244.5711
v -372.5210 8.6101 -268.1200
v -323.5909 378.4763 -244.5711
v -328.0610 378.2501 -235.8280
v -372.5210 8.6101 -268.1200
v -372.5210 8.6101 -268.1200
v -328.0610 378.2501 -235.8280
v -380.7261 9.1275 -262.7455
v -328.0610 378.2501 -235.8280
v -336.2661 378.7675 -230.4535
v -380.7261 9.1275 -262.7455
v -380.7261 9.1275 -262.7455
v -336.2661 378.7675 -230.4535
v -390.4675 10.2498 -262.1798
v -336.2661 378.7675 -230.4535
v -346.0075 379.8898 -229.8878
v -390.4675 10.2498 -262.1798
v -390.4675 10.2498 -262.1798
v -346.0075 379.8898 -229.8878
v -399.1351 11.6762 -266.5744
v -346.0075 379.8898 -229.8878
v -354.6751 381.3162 -234.2824
v -399.1351 11.6762 -266.5744
v -399.1351 11.6762 -266.5744
v -354.6751 381.3162 -234.2824
v -404.4065 13.0247 -274.7518
v -354.6751 381.3162 -234.2824
v -359.9465 382.6647 -242.4598
v -404.4065 13.0247 -274.7518
v -404.4065 13.0247 -274.7518
v -404.8691 13.9337 -284.5209
v -386.4600 11.3850 -280.6920
v -404.8691 13.9337 -284.5209
v -400.3990 14.1599 -293.2640
v -386.4600 11.3850 -280.6920
v -400.3990 14.1599 -293.2640
v -392.1939 13.6425 -298.6385
v -386.4600 11.3850 -280.6920
v -392.1939 13.6425 -298.6385
v -382.4525 12.5202 -299.2042
v -386.4600 11.3850 -280.6920
v -382.4525 12.5202 -299.2042
v -373.7849 11.0938 -294.8096
v -386.4600 11.3850 -280.6920
v -373.7849 11.0938 -294.8096
v -368.5135 9.7453 -286.6322
v -386.4600 11.3850 -280.6920
v -368.5135 9.7453 -286.6322
v -368.0509 8.8363 -276.8631
v -386.4600 11.3850 -280.6920
v -368.0509 8.8363 -276.8631
v -372.5210 8.6101 -268.1200
v -386.4600 11.3850 -280.6920
v -372.5210 8.6101 -268.1200
v -380.7261 9.1275 -262.7455
v -386.4600 11.3850 -280.6920
v -380.7261 9.1275 -262.7455
v -390.4675 10.2498 -262.1798
v -386.4600 11.3850 -280.6920
v -390.4675 10.2498 -262.1798
v -399.1351 11.6762 -266.5744
v -386.4600 11.3850 -280.6920
v -399.1351 11.6762 -266.5744
v -404.4065 13.0247 -274.7518
v -386.4600 11.3850 -280.6920
v -360.4091 383.5737 -252.2289
v -359.9465 382.6647 -242.4598
v -342.0000 381.0250 -248.4000
v -355.9390 383.7999 -260.9720
v -360.4091 383.5737 -252.2289
v -342.0000 381.0250 -248.4000
v -347.7339 383.2825 -266.3465
v -355.9390 383.7999 -260.9720
v -342.0000 381.0250 -248.4000
v -337.9925 382.1602 -266.9122
v -347.7339 383.2825 -266.3465
v -342.0000 381.0250 -248.4000
v -329.3249 380.7338 -262.5176
v -337.9925 382.1602 -266.9122
v -342.0000 381.0250 -248.4000
v -324.0535 379.3853 -254.3402
v -329.3249 380.7338 -262.5176
v -342.0000 381.0250 -248.4000
v -323.5909 378.4763 -244.5711
v -324.0535 379.3853 -254.3402
v -342.0000 381.0250 -248.4000
v -328.0610 378.2501 -235.8280
v -323.5909 378.4763 -244.5711
v -342.0000 381.0250 -248.4000
v -336.2661 378.7675 -230.4535
v -328.0610 378.2501 -235.8280
v -342.0000 381.0250 -248.4000
v -346.0075 379.8898 -229.8878
v -336.2661 378.7675 -230.4535
v -342.0000 381.0250 -248.4000
v -354.6751 381.3162 -234.2824
v -346.0075 379.8898 -229.8878
v -342.0000 381.0250 -248.4000
v -359.9465 382.6647 -242.4598
v -354.6751 381.3162 -234.2824
v -342.0000 381.0250 -248.4000
v 404.4065 13.0247 -274.7518
v 359.9465 382.6647 -242.4598
v 399.1351 11.6762 -266.5744
v 359.9465 382.6647 -242.4598
v 354.6751 381.3162 -234.2824
v 399.1351 11.6762 -266.5744
v 399.1351 11.6762 -266.5744
v 354.6751 381.3162 -234.2824
v 390.4675 10.2498 -262.1798
v 354.6751 381.3162 -234.2824
v 346.0075 379.8898 -229.8878
v 390.4675 10.2498 -262.1798
v 390.4675 10.2498 -262.1798
v 346.0075 379.8898 -229.8878
v 380.7261 9.1275 -262.7455
v 346.0075 379.8898 -229.8878
v 336.2661 378.7675 -230.4535
v 380.7261 9.1275 -262.7455
v 380.7261 9.1275 -262.7455
v 336.2661 378.7675 -230.4535
v 372.5210 8.6101 -268.1200
v 336.2661 378.7675 -230.4535
v 328.0610 378.2501 -235.8280
v 372.5210 8.6101 -268.1200
v 372.5210 8.6101 -268.1200
v 328.0610 378.2501 -235.8280
v 368.0509 8.8363 -276.8631
v 328.0610 378.2501 -235.8280
v 323.5909 378.4763 -244.5711
v 368.0509 8.8363 -276.8631
v 368.0509 8.8363 -276.8631
v 323.5909 378.4763 -244.5711
v 368.5135 9.7453 -286.6322
v 323.5909 378.4763 -244.5711
v 324.0535 379.3853 -254.3402
v 368.5135 9.7453 -286.6322
v 368.5135 9.7453 -286.6322
v 324.0535 379.3853 -254.3402
v 373.7849 11.0938 -294.8096
v 324.0535 379.3853 -254.3402
v 329.3249 380.7338 -262.5176
v 373.7849 11.0938 -294.8096
v 373.7849 11.0938 -294.8096
v 329.3249 380.7338 -262.5176
v 382.4525 12.5202 -299.2042
v 329.3249 380.7338 -262.5176
v 337.9925 382.1602 -266.9122
v 382.4525 12.5202 -299.2042
v 382.4525 12.5202 -299.2042
v 337.9925 382.1602 -266.9122
v 392.1939 13.6425 -298.6385
v 337.9925 382.1602 -266.9122
v 347.7339 383.2825 -266.3465
v 392.1939 13.6425 -298.6385
v 392.1939 13.6425 -298.6385
v 347.7339 383.2825 -266.3465
v 400.3990 14.1599 -293.2640
v 347.7339 383.2825 -266.3465
v 355.9390 383.7999 -260.9720
v 400.3990 14.1599 -293.2640
v 400.3990 14.1599 -293.2640
v 355.9390 383.7999 -260.9720
v 404.8691 13.9337 -284.5209
v 355.9390 383.7999 -260.9720
v 360.4091 383.5737 -252.2289
v 404.8691 13.9337 -284.5209
v 404.8691 13.9337 -284.5209
v 360.4091 383.5737 -252.2289
v 404.4065 13.0247 -274.7518
v 360.4091 383.5737 -252.2289
v 359.9465 382.6647 -242.4598
v 404.4065 13.0247 -274.7518
v 404.4065 13.0247 -274.7518
v 399.1351 11.6762 -266.5744
v 386.4600 11.3850 -280.6920
v 399.1351 11.6762 -266.5744
v 390.4675 10.2498 -262.1798
v 386.4600 11.3850 -280.6920
v 390.4675 10.2498 -262.1798
v 380.7261 9.1275 -262.7455
v 386.4600 11.3850 -280.6920
v 380.7261 9.1275 -262.7455
v 372.5210 8.6101 -268.1200
v 386.4600 11.3850 -280.6920
v 372.5210 8.6101 -268.1200
v 368.0509 8.8363 -276.8631
v 386.4600 11.3850 -280.6920
v 368.0509 8.8363 -276.8631
v 368.5135 9.7453 -286.6322
v 386.4600 11.3850 -280.6920
v 368.5135 9.7453 -286.6322
v 373.7849 11.0938 -294.8096
v 386.4600 11.3850 -280.6920
v 373.7849 11.0938 -294.8096
v 382.4525 12.5202 -299.2042
v 386.4600 11.3850 -280.6920
v 382.4525 12.5202 -299.2042
v 392.1939 13.6425 -298.6385
v 386.4600 11.3850 -280.6920
v 392.1939 13.6425 -298.6385
v 400.3990 14.1599 -293.2640
v 386.4600 11.3850 -280.6920
v 400.3990 14.1599 -293.2640
v 404.8691 13.9337 -284.5209
v 386.4600 11.3850 -280.6920
v 404.8691 13.9337 -284.5209
v 404.4065 13.0247 -274.7518
v 386.4600 11.3850 -280.6920
v 354.6751 381.3162 -234.2824
v 359.9465 382.6647 -242.4598
v 342.0000 381.0250 -248.4000
v 346.0075 379.8898 -229.8878
v 354.6751 381.3162 -234.2824
v 342.0000 381.0250 -248.4000
v 336.2661 378.7675 -230.4535
v 346.0075 379.8898 -229.8878
v 342.0000 381.0250 -248.4000
v 328.0610 378.2501 -235.8280
v 336.2661 378.7675 -230.4535
v 342.0000 381.0250 -248.4000
v 323.5909 378.4763 -244.5711
v 328.0610 378.2501 -235.8280
v 342.0000 381.0250 -248.4000
v 324.0535 379.3853 -254.3402
v 323.5909 378.4763 -244.5711
v 342.0000 381.0250 -248.4000
v 329.3249 380.7338 -262.5176
v 324.0535 379.3853 -254.3402
v 342.0000 381.0250 -248.4000
v 337.9925 382.1602 -266.9122
v 329.3249 380.7338 -262.5176
v 342.0000 381.0250 -248.4000
v 347.7339 383.2825 -266.3465
v 337.9925 382.1602 -266.9122
v 342.0000 381.0250 -248.4000
v 355.9390 383.7999 -260.9720
v 347.7339 383.2825 -266.3465
v 342.0000 381.0250 -248.4000
v 360.4091 383.5737 -252.2289
v 355.9390 383.7999 -260.9720
v 342.0000 381.0250 -248.4000
v 359.9465 382.6647 -242.4598
v 360.4091 383.5737 -252.2289
v 342.0000 381.0250 -248.4000
v -368.5135 9.7453 286.6322
v -324.0535 379.3853 254.3402
v -373.7849 11.0938 294.8096
v -324.0535 379.3853 254.3402
v -329.3249 380.7338 262.5176
v -373.7849 11.0938 294.8096
v -373.7849 11.0938 294.8096
v -329.3249 380.7338 262.5176
v -382.4525 12.5202 299.2042
v -329.3249 380.7338 262.5176
v -337.9925 382.1602 266.9122
v -382.4525 12.5202 299.2042
v -382.4525 12.5202 299.2042
v -337.9925 382.1602 266.9122
v -392.1939 13.6425 298.6385
v -337.9925 382.1602 266.9122
v -347.7339 383.2825 266.3465
v -392.1939 13.6425 298.6385
v -392.1939 13.6425 298.6385
v -347.7339 383.2825 266.3465
v -400.3990 14.1599 293.2640
v -347.7339 383.2825 266.3465
v -355.9390 383.7999 260.9720
v -400.3990 14.1599 293.2640
v -400.3990 14.1599 293.2640
v -355.9390 383.7999 260.9720
v -404.8691 13.9337 284.5209
v -355.9390 383.7999 260.9720
v -360.4091 383.5737 252.2289
v -404.8691 13.9337 284.5209
v -404.8691 13.9337 284.5209
v -360.4091 383.5737 252.2289
v -404.4065 13.0247 274.7518
v -360.4091 383.5737 252.2289
v -359.9465 382.6647 242.4598
v -404.4065 13.0247 274.7518
v -404.4065 13.0247 274.7518
v -359.9465 382.6647 242.4598
v -399.1351 11.6762 266.5744
v -359.9465 382.6647 242.4598
v -354.6751 381.3162 234.2824
v -399.1351 11.6762 266.5744
v -399.1351 11.6762 266.5744
v -354.6751 381.3162 234.2824
v -390.4675 10.2498 262.1798
v -354.6751 381.3162 234.2824
v -346.0075 379.8898 229.8878
v -390.4675 10.2498 262.1798
v -390.4675 10.2498 262.1798
v -346.0075 379.8898 229.8878
v -380.7261 9.1275 262.7455
v -346.0075 379.8898 229.8878
v -336.2661 378.7675 230.4535
v -380.7261 9.1275 262.7455
v -380.7261 9.1275 262.7455
v -336.2661 378.7675 230.4535
v -372.5210 8.6101 268.1200
v -336.2661 378.7675 230.4535
v -328.0610 378.2501 235.8280
v -372.5210 8.6101 268.1200
v -372.5210 8.6101 268.1200
v -328.0610 378.2501 235.8280
v -368.0509 8.8363 276.8631
v -328.0610 378.2501 235.8280
v -323.5909 378.4763 244.5711
v -368.0509 8.8363 276.8631
v -368.0509 8.8363 276.8631
v -323.5909 378.4763 244.5711
v -368.5135 9.7453 286.6322
v -323.5909 378.4763 244.5711
v -324.0535 379.3853 254.3402
v -368.5135 9.7453 286.6322
v -368.5135 9.7453 286.6322
v -373.7849 11.0938 294.8096
v -386.4600 11.3850 280.6920
v -373.7849 11.0938 294.8096
v -382.4525 12.5202 299.2042
v -386.4600 11.3850 280.6920
v -382.4525 12.5202 299.2042
v -392.1939 13.6425 298.6385
v -386.4600 11.3850 280.6920
v -392.1939 13.6425 298.6385
v -400.3990 14.1599 293.2640
v -386.4600 11.3850 280.6920
v -400.3990 14.1599 293.2640
v -404.8691 13.9337 284.5209
v -386.4600 11.3850 280.6920
v -404.8691 13.9337 284.5209
v -404.4065 13.0247 274.7518
v -386.4600 11.3850 280.6920
v -404.4065 13.0247 274.7518
v -399.1351 11.6762 266.5744
v -386.4600 11.3850 280.6920
v -399.1351 11.6762 266.5744
v -390.4675 10.2498 262.1798
v -386.4600 11.3850 280.6920
v -390.4675 10.2498 262.1798
v -380.7261 9.1275 262.7455
v -386.4600 11.3850 280.6920
v -380.7261 9.1275 262.7455
v -372.5210 8.6101 268.1200
v -386.4600 11.3850 280.6920
v -372.5210 8.6101 268.1200
v -368.0509 8.8363 276.8631
v -386.4600 11.3850 280.6920
v -368.0509 8.8363 276.8631
v -368.5135 9.7453 286.6322
v -386.4600 11.3850 280.6920
v -329.3249 380.7338 262.5176
v -324.0535 379.3853 254.3402
v -342.0000 381.0250 248.4000
v -337.9925 382.1602 266.9122
v -329.3249 380.7338 262.5176
v -342.0000 381.0250 248.4000
v -347.7339 383.2825 266.3465
v -337.9925 382.1602 266.9122
v -342.0000 381.0250 248.4000
v -355.9390 383.7999 260.9720
v -347.7339 383.2825 266.3465
v -342.0000 381.0250 248.4000
v -360.4091 383.5737 252.2289
v -355.9390 383.7999 260.9720
v -342.0000 381.0250 248.4000
v -359.9465 382.6647 242.4598
v -360.4091 383.5737 252.2289
v -342.0000 381.0250 248.4000
v -354.6751 381.3162 234.2824
v -359.9465 382.6647 242.4598
v -342.0000 381.0250 248.4000
v -346.0075 379.8898 229.8878
v -354.6751 381.3162 234.2824
v -342.0000 381.0250 248.4000
v -336.2661 378.7675 230.4535
v -346.0075 379.8898 229.8878
v -342.0000 381.0250 248.4000
v -328.0610 378.2501 235.8280
v -336.2661 378.7675 230.4535
v -342.0000 381.0250 248.4000
v -323.5909 378.4763 244.5711
v -328.0610 378.2501 235.8280
v -342.0000 381.0250 248.4000
v -324.0535 379.3853 254.3402
v -323.5909 378.4763 244.5711
v -342.0000 381.0250 248.4000
v 368.5135 9.7453 286.6322
v 324.0535 379.3853 254.3402
v 368.0509 8.8363 276.8631
v 324.0535 379.3853 254.3402
v 323.5909 378.4763 244.5711
v 368.0509 8.8363 276.8631
v 368.0509 8.8363 276.8631
v 323.5909 378.4763 244.5711
v 372.5210 8.6101 268.1200
v 323.5909 378.4763 244.5711
v 328.0610 378.2501 235.8280
v 372.5210 8.6101 268.1200
v 372.5210 8.6101 268.1200
v 328.0610 378.2501 235.8280
v 380.7261 9.1275 262.7455
v 328.0610 378.2501 235.8280
v 336.2661 378.7675 230.4535
v 380.7261 9.1275 262.7455
v 380.7261 9.1275 262.7455
v 336.2661 378.7675 230.4535
v 390.4675 10.2498 262.1798
v 336.2661 378.7675 230.4535
v 346.0075 379.8898 229.8878
v 390.4675 10.2498 262.1798
v 390.4675 10.2498 262.1798
v 346.0075 379.8898 229.8878
v 399.1351 11.6762 266.5744
v 346.0075 379.8898 229.8878
v 354.6751 381.3162 234.2824
v 399.1351 11.6762 266.5744
v 399.1351 11.6762 266.5744
v 354.6751 381.3162 234.2824
v 404.4065 13.0247 274.7518
v 354.6751 381.3162 234.2824
v 359.9465 382.6647 242.4598
v 404.4065 13.0247 274.7518
v 404.4065 13.0247 274.7518
v 359.9465 382.6647 242.4598
v 404.8691 13.9337 284.5209
v 359.9465 382.6647 242.4598
v 360.4091 383.5737 252.2289
v 404.8691 13.9337 284.5209
v 404.8691 13.9337 284.5209
v 360.4091 383.5737 252.2289
v 400.3990 14.1599 293.2640
v 360.4091 383.5737 252.2289
v 355.9390 383.7999 260.9720
v 400.3990 14.1599 293.2640
v 400.3990 14.1599 293.2640
v 355.9390 383.7999 260.9720
v 392.1939 13.6425 298.6385
v 355.9390 383.7999 260.9720
v 347.7339 383.2825 266.3465
v 392.1939 13.6425 298.6385
v 392.1939 13.6425 298.6385
v 347.7339 383.2825 266.3465
v 382.4525 12.5202 299.2042
v 347.7339 383.2825 266.3465
v 337.9925 382.1602 266.9122
v 382.4525 12.5202 299.2042
v 382.4525 12.5202 299.2042
v 337.9925 382.1602 266.9122
v 373.7849 11.0938 294.8096
v 337.9925 382.1602 266.9122
v 329.3249 380.7338 262.5176
v 373.7849 11.0938 294.8096
v 373.7849 11.0938 294.8096
v 329.3249 380.7338 262.5176
v 368.5135 9.7453 286.6322
v 329.3249 380.7338 262.5176
v 324.0535 379.3853 254.3402
v 368.5135 9.7453 286.6322
v 368.5135 9.7453 286.6322
v 368.0509 8.8363 276.8631
v 386.4600 11.3850 280.6920
v 368.0509 8.8363 276.8631
v 372.5210 8.6101 268.1200
v 386.4600 11.3850 280.6920
v 372.5210 8.6101 268.1200
v 380.7261 9.1275 262.7455
v 386.4600 11.3850 280.6920
v 380.7261 9.1275 262.7455
v 390.4675 10.2498 262.1798
v 386.4600 11.3850 280.6920
v 390.4675 10.2498 262.1798
v 399.1351 11.6762 266.5744
v 386.4600 11.3850 280.6920
v 399.1351 11.6762 266.5744
v 404.4065 13.0247 274.7518
v 386.4600 11.3850 280.6920
v 404.4065 13.0247 274.7518
v 404.8691 13.9337 284.5209
v 386.4600 11.3850 280.6920
v 404.8691 13.9337 284.5209
v 400.3990 14.1599 293.2640
v 386.4600 11.3850 280.6920
v 400.3990 14.1599 293.2640
v 392.1939 13.6425 298.6385
v 386.4600 11.3850 280.6920
v 392.1939 13.6425 298.6385
v 382.4525 12.5202 299.2042
v 386.4600 11.3850 280.6920
v 382.4525 12.5202 299.2042
v 373.7849 11.0938 294.8096
v 386.4600 11.3850 280.6920
v 373.7849 11.0938 294.8096
v 368.5135 9.7453 286.6322
v 386.4600 11.3850 280.6920
v 323.5909 378.4763 244.5711
v 324.0535 379.3853 254.3402
v 342.0000 381.0250 248.4000
v 328.0610 378.2501 235.8280
v 323.5909 378.4763 244.5711
v 342.0000 381.0250 248.4000
v 336.2661 378.7675 230.4535
v 328.0610 378.2501 235.8280
v 342.0000 381.0250 248.4000
v 346.0075 379.8898 229.8878
v 336.2661 378.7675 230.4535
v 342.0000 381.0250 248.4000
v 354.6751 381.3162 234.2824
v 346.0075 379.8898 229.8878
v 342.0000 381.0250 248.4000
v 359.9465 382.6647 242.4598
v 354.6751 381.3162 234.2824
v 342.0000 381.0250 248.4000
v 360.4091 383.5737 252.2289
v 359.9465 382.6647 242.4598
v 342.0000 381.0250 248.4000
v 355.9390 383.7999 260.9720
v 360.4091 383.5737 252.2289
v 342.0000 381.0250 248.4000
v 347.7339 383.2825 266.3465
v 355.9390 383.7999 260.9720
v 342.0000 381.0250 248.4000
v 337.9925 382.1602 266.9122
v 347.7339 383.2825 266.3465
v 342.0000 381.0250 248.4000
v 329.3249 380.7338 262.5176
v 337.9925 382.1602 266.9122
v 342.0000 381.0250 248.4000
v 324.0535 379.3853 254.3402
v 329.3249 380.7338 262.5176
v 342.0000 381.0250 248.4000
f 1 2 3
f 4 5 6
f 7 8 9
f 10 11 12
f 13 14 15
f 16 17 18
f 19 20 21
f 22 23 24
f 25 26 27
f 28 29 30
f 31 32 33
f 34 35 36
f 37 38 39
f 40 41 42
f 43 44 45
f 46 47 48
f 49 50 51
f 52 53 54
f 55 56 57
f 58 59 60
f 61 62 63
f 64 65 66
f 67 68 69
f 70 71 72
f 73 74 75
f 76 77 78
f 79 80 81
f 82 83 84
f 85 86 87
f 88 89 90
f 91 92 93
f 94 95 96
f 97 98 99
f 100 101 102
f 103 104 105
f 106 107 108
f 109 110 111
f 112 113 114
f 115 116 117
f 118 119 120
f 121 122 123
f 124 125 126
f 127 128 129
f 130 131 132
f 133 134 135
f 136 137 138
f 139 140 141
f 142 143 144
f 145 146 147
f 148 149 150
f 151 152 153
f 154 155 156
f 157 158 159
f 160 161 162
f 163 164 165
f 166 167 168
f 169 170 171
f 172 173 174
f 175 176 177
f 178 179 180
f 181 182 183
f 184 185 186
f 187 188 189
f 190 191 192
f 193 194 195
f 196 197 198
f 199 200 201
f 202 203 204
f 205 206 207
f 208 209 210
f 211 212 213
f 214 215 216
f 217 218 219
f 220 221 222
f 223 224 225
f 226 227 228
f 229 230 231
f 232 233 234
f 235 236 237
f 238 239 240
f 241 242 243
f 244 245 246
f 247 248 249
f 250 251 252
f 253 254 255
f 256 257 258
f 259 260 261
f 262 263 264
f 265 266 267
f 268 269 270
f 271 272 273
f 274 275 276
f 277 278 279
f 280 281 282
f 283 284 285
f 286 287 288
f 289 290 291
f 292 293 294
f 295 296 297
f 298 299 300
f 301 302 303
f 304 305 306
f 307 308 309
f 310 311 312
f 313 314 315
f 316 317 318
f 319 320 321
f 322 323 324
f 325 326 327
f 328 329 330
f 331 332 333
f 334 335 336
f 337 338 339
f 340 341 342
f 343 344 345
f 346 347 348
f 349 350 351
f 352 353 354
f 355 356 357
f 358 359 360
f 361 362 363
f 364 365 366
f 367 368 369
f 370 371 372
f 373 374 375
f 376 377 378
f 379 380 381
f 382 383 384
f 385 386 387
f 388 389 390
f 391 392 393
f 394 395 396
f 397 398 399
f 400 401 402
f 403 404 405
f 406 407 408
f 409 410 411
f 412 413 414
f 415 416 417
f 418 419 420
f 421 422 423
f 424 425 426
f 427 428 429
f 430 431 432
f 433 434 435
f 436 437 438
f 439 440 441
f 442 443 444
f 445 446 447
f 448 449 450
f 451 452 453
f 454 455 456
f 457 458 459
f 460 461 462
f 463 464 465
f 466 467 468
f 469 470 471
f 472 473 474
f 475 476 477
f 478 479 480
f 481 482 483
f 484 485 486
f 487 488 489
f 490 491 492
f 493 494 495
f 496 497 498
f 499 500 501
f 502 503 504
f 505 506 507
f 508 509 510
f 511 512 513
f 514 515 516
f 517 518 519
f 520 521 522
f 523 524 525
f 526 527 528
f 529 530 531
f 532 533 534
f 535 536 537
f 538 539 540
f 541 542 543
f 544 545 546
f 547 548 549
f 550 551 552
f 553 554 555
f 556 557 558
f 559 560 561
f 562 563 564
f 565 566 567
f 568 569 570
f 571 572 573
f 574 575 576
f 577 578 579
f 580 581 582
f 583 584 585
f 586 587 588
f 589 590 591
f 592 593 594
f 595 596 597
f 598 599 600
f 601 602 603
f 604 605 606
f 607 608 609
f 610 611 612
f 613 614 615
f 616 617 618
f 619 620 621
f 622 623 624
f 625 626 627
f 628 629 630
f 631 632 633
f 634 635 636
f 637 638 639
f 640 641 642
f 643 644 645
f 646 647 648
f 649 650 651
f 652 653 654
f 655 656 657
f 658 659 660
f 661 662 663
f 664 665 666
f 667 668 669
f 670 671 672
f 673 674 675
f 676 677 678
f 679 680 681
f 682 683 684
f 685 686 687
f 688 689 690
f 691 692 693
f 694 695 696
f 697 698 699
f 700 701 702
f 703 704 705
f 706 707 708
f 709 710 711
f 712 713 714
f 715 716 717
f 718 719 720
