# MATERIA - Fragment paravento
# Geometria originale di studio. Unita mm. Non CAD del produttore.
v -686.4090 -486.0000 -59.9531
v -687.2491 -486.0000 -63.7103
v -686.4090 1314.0000 -59.9531
v -687.2491 -486.0000 -63.7103
v -687.2491 1314.0000 -63.7103
v -686.4090 1314.0000 -59.9531
v -1239.4175 1314.0000 63.7103
v -1240.2577 1314.0000 59.9531
v -1239.4175 -486.0000 63.7103
v -1240.2577 1314.0000 59.9531
v -1240.2577 -486.0000 59.9531
v -1239.4175 -486.0000 63.7103
v -1239.4175 1314.0000 63.7103
v -1239.4175 -486.0000 63.7103
v -686.4090 1314.0000 -59.9531
v -1239.4175 -486.0000 63.7103
v -686.4090 -486.0000 -59.9531
v -686.4090 1314.0000 -59.9531
v -1240.2577 -486.0000 59.9531
v -1240.2577 1314.0000 59.9531
v -687.2491 -486.0000 -63.7103
v -1240.2577 1314.0000 59.9531
v -687.2491 1314.0000 -63.7103
v -687.2491 -486.0000 -63.7103
v -1239.4175 -486.0000 63.7103
v -1240.2577 -486.0000 59.9531
v -686.4090 -486.0000 -59.9531
v -1240.2577 -486.0000 59.9531
v -687.2491 -486.0000 -63.7103
v -686.4090 -486.0000 -59.9531
v -686.4090 1314.0000 -59.9531
v -687.2491 1314.0000 -63.7103
v -1239.4175 1314.0000 63.7103
v -687.2491 1314.0000 -63.7103
v -1240.2577 1314.0000 59.9531
v -1239.4175 1314.0000 63.7103
v 283.3333 -162.0000 1.9250
v 283.3333 -162.0000 -1.9250
v 283.3333 1638.0000 1.9250
v 283.3333 -162.0000 -1.9250
v 283.3333 1638.0000 -1.9250
v 283.3333 1638.0000 1.9250
v -283.3333 1638.0000 1.9250
v -283.3333 1638.0000 -1.9250
v -283.3333 -162.0000 1.9250
v -283.3333 1638.0000 -1.9250
v -283.3333 -162.0000 -1.9250
v -283.3333 -162.0000 1.9250
v -283.3333 1638.0000 1.9250
v -283.3333 -162.0000 1.9250
v 283.3333 1638.0000 1.9250
v -283.3333 -162.0000 1.9250
v 283.3333 -162.0000 1.9250
v 283.3333 1638.0000 1.9250
v -283.3333 -162.0000 -1.9250
v -283.3333 1638.0000 -1.9250
v 283.3333 -162.0000 -1.9250
v -283.3333 1638.0000 -1.9250
v 283.3333 1638.0000 -1.9250
v 283.3333 -162.0000 -1.9250
v -283.3333 -162.0000 1.9250
v -283.3333 -162.0000 -1.9250
v 283.3333 -162.0000 1.9250
v -283.3333 -162.0000 -1.9250
v 283.3333 -162.0000 -1.9250
v 283.3333 -162.0000 1.9250
v 283.3333 1638.0000 1.9250
v 283.3333 1638.0000 -1.9250
v -283.3333 1638.0000 1.9250
v 283.3333 1638.0000 -1.9250
v -283.3333 1638.0000 -1.9250
v -283.3333 1638.0000 1.9250
v 1239.4175 162.0000 63.7103
v 1240.2577 162.0000 59.9531
v 1239.4175 1962.0000 63.7103
v 1240.2577 162.0000 59.9531
v 1240.2577 1962.0000 59.9531
v 1239.4175 1962.0000 63.7103
v 686.4090 1962.0000 -59.9531
v 687.2491 1962.0000 -63.7103
v 686.4090 162.0000 -59.9531
v 687.2491 1962.0000 -63.7103
v 687.2491 162.0000 -63.7103
v 686.4090 162.0000 -59.9531
v 686.4090 1962.0000 -59.9531
v 686.4090 162.0000 -59.9531
v 1239.4175 1962.0000 63.7103
v 686.4090 162.0000 -59.9531
v 1239.4175 162.0000 63.7103
v 1239.4175 1962.0000 63.7103
v 687.2491 162.0000 -63.7103
v 687.2491 1962.0000 -63.7103
v 1240.2577 162.0000 59.9531
v 687.2491 1962.0000 -63.7103
v 1240.2577 1962.0000 59.9531
v 1240.2577 162.0000 59.9531
v 686.4090 162.0000 -59.9531
v 687.2491 162.0000 -63.7103
v 1239.4175 162.0000 63.7103
v 687.2491 162.0000 -63.7103
v 1240.2577 162.0000 59.9531
v 1239.4175 162.0000 63.7103
v 1239.4175 1962.0000 63.7103
v 1240.2577 1962.0000 59.9531
v 686.4090 1962.0000 -59.9531
v 1240.2577 1962.0000 59.9531
v 687.2491 1962.0000 -63.7103
v 686.4090 1962.0000 -59.9531
f 1 2 3
f 4 5 6
f 7 8 9
f 10 11 12
f 13 14 15
f 16 17 18
f 19 20 21
f 22 23 24
f 25 26 27
f 28 29 30
f 31 32 33
f 34 35 36
f 37 38 39
f 40 41 42
f 43 44 45
f 46 47 48
f 49 50 51
f 52 53 54
f 55 56 57
f 58 59 60
f 61 62 63
f 64 65 66
f 67 68 69
f 70 71 72
f 73 74 75
f 76 77 78
f 79 80 81
f 82 83 84
f 85 86 87
f 88 89 90
f 91 92 93
f 94 95 96
f 97 98 99
f 100 101 102
f 103 104 105
f 106 107 108
