# MATERIA - Prism Glass Wardrobe
# Geometria originale di studio. Unita mm. Non CAD del produttore.
v 500.0000 1355.2500 300.0000
v 500.0000 -302.2500 300.0000
v 500.0000 1355.2500 -300.0000
v 500.0000 -302.2500 300.0000
v 500.0000 -302.2500 -300.0000
v 500.0000 1355.2500 -300.0000
v -500.0000 1355.2500 -300.0000
v -500.0000 -302.2500 -300.0000
v -500.0000 1355.2500 300.0000
v -500.0000 -302.2500 -300.0000
v -500.0000 -302.2500 300.0000
v -500.0000 1355.2500 300.0000
v -500.0000 1355.2500 -300.0000
v -500.0000 1355.2500 300.0000
v 500.0000 1355.2500 -300.0000
v -500.0000 1355.2500 300.0000
v 500.0000 1355.2500 300.0000
v 500.0000 1355.2500 -300.0000
v -500.0000 -302.2500 300.0000
v -500.0000 -302.2500 -300.0000
v 500.0000 -302.2500 300.0000
v -500.0000 -302.2500 -300.0000
v 500.0000 -302.2500 -300.0000
v 500.0000 -302.2500 300.0000
v -500.0000 1355.2500 300.0000
v -500.0000 -302.2500 300.0000
v 500.0000 1355.2500 300.0000
v -500.0000 -302.2500 300.0000
v 500.0000 -302.2500 300.0000
v 500.0000 1355.2500 300.0000
v 500.0000 1355.2500 -300.0000
v 500.0000 -302.2500 -300.0000
v -500.0000 1355.2500 -300.0000
v 500.0000 -302.2500 -300.0000
v -500.0000 -302.2500 -300.0000
v -500.0000 1355.2500 -300.0000
v -416.5000 107.2500 -504.0750
v -416.5000 107.2500 -540.3750
v -416.5000 1647.7500 -504.0750
v -416.5000 107.2500 -540.3750
v -416.5000 1647.7500 -540.3750
v -416.5000 1647.7500 -504.0750
v -716.8333 1647.7500 -504.0750
v -716.8333 1647.7500 -540.3750
v -716.8333 107.2500 -504.0750
v -716.8333 1647.7500 -540.3750
v -716.8333 107.2500 -540.3750
v -716.8333 107.2500 -504.0750
v -716.8333 1647.7500 -504.0750
v -716.8333 107.2500 -504.0750
v -416.5000 1647.7500 -504.0750
v -716.8333 107.2500 -504.0750
v -416.5000 107.2500 -504.0750
v -416.5000 1647.7500 -504.0750
v -716.8333 107.2500 -540.3750
v -716.8333 1647.7500 -540.3750
v -416.5000 107.2500 -540.3750
v -716.8333 1647.7500 -540.3750
v -416.5000 1647.7500 -540.3750
v -416.5000 107.2500 -540.3750
v -716.8333 107.2500 -504.0750
v -716.8333 107.2500 -540.3750
v -416.5000 107.2500 -504.0750
v -716.8333 107.2500 -540.3750
v -416.5000 107.2500 -540.3750
v -416.5000 107.2500 -504.0750
v -416.5000 1647.7500 -504.0750
v -416.5000 1647.7500 -540.3750
v -716.8333 1647.7500 -504.0750
v -416.5000 1647.7500 -540.3750
v -716.8333 1647.7500 -540.3750
v -716.8333 1647.7500 -504.0750
v 150.1667 458.2500 -504.0750
v 150.1667 458.2500 -540.3750
v 150.1667 1998.7500 -504.0750
v 150.1667 458.2500 -540.3750
v 150.1667 1998.7500 -540.3750
v 150.1667 1998.7500 -504.0750
v -150.1667 1998.7500 -504.0750
v -150.1667 1998.7500 -540.3750
v -150.1667 458.2500 -504.0750
v -150.1667 1998.7500 -540.3750
v -150.1667 458.2500 -540.3750
v -150.1667 458.2500 -504.0750
v -150.1667 1998.7500 -504.0750
v -150.1667 458.2500 -504.0750
v 150.1667 1998.7500 -504.0750
v -150.1667 458.2500 -504.0750
v 150.1667 458.2500 -504.0750
v 150.1667 1998.7500 -504.0750
v -150.1667 458.2500 -540.3750
v -150.1667 1998.7500 -540.3750
v 150.1667 458.2500 -540.3750
v -150.1667 1998.7500 -540.3750
v 150.1667 1998.7500 -540.3750
v 150.1667 458.2500 -540.3750
v -150.1667 458.2500 -504.0750
v -150.1667 458.2500 -540.3750
v 150.1667 458.2500 -504.0750
v -150.1667 458.2500 -540.3750
v 150.1667 458.2500 -540.3750
v 150.1667 458.2500 -504.0750
v 150.1667 1998.7500 -504.0750
v 150.1667 1998.7500 -540.3750
v -150.1667 1998.7500 -504.0750
v 150.1667 1998.7500 -540.3750
v -150.1667 1998.7500 -540.3750
v -150.1667 1998.7500 -504.0750
v 716.8333 809.2500 -504.0750
v 716.8333 809.2500 -540.3750
v 716.8333 2349.7500 -504.0750
v 716.8333 809.2500 -540.3750
v 716.8333 2349.7500 -540.3750
v 716.8333 2349.7500 -504.0750
v 416.5000 2349.7500 -504.0750
v 416.5000 2349.7500 -540.3750
v 416.5000 809.2500 -504.0750
v 416.5000 2349.7500 -540.3750
v 416.5000 809.2500 -540.3750
v 416.5000 809.2500 -504.0750
v 416.5000 2349.7500 -504.0750
v 416.5000 809.2500 -504.0750
v 716.8333 2349.7500 -504.0750
v 416.5000 809.2500 -504.0750
v 716.8333 809.2500 -504.0750
v 716.8333 2349.7500 -504.0750
v 416.5000 809.2500 -540.3750
v 416.5000 2349.7500 -540.3750
v 716.8333 809.2500 -540.3750
v 416.5000 2349.7500 -540.3750
v 716.8333 2349.7500 -540.3750
v 716.8333 809.2500 -540.3750
v 416.5000 809.2500 -504.0750
v 416.5000 809.2500 -540.3750
v 716.8333 809.2500 -504.0750
v 416.5000 809.2500 -540.3750
v 716.8333 809.2500 -540.3750
v 716.8333 809.2500 -504.0750
v 716.8333 2349.7500 -504.0750
v 716.8333 2349.7500 -540.3750
v 416.5000 2349.7500 -504.0750
v 716.8333 2349.7500 -540.3750
v 416.5000 2349.7500 -540.3750
v 416.5000 2349.7500 -504.0750
v -689.5871 -514.8757 -385.7502
v -642.7871 -251.7757 -357.6702
v -691.4128 -513.6698 -394.0063
v -642.7871 -251.7757 -357.6702
v -644.6128 -250.5698 -365.9263
v -691.4128 -513.6698 -394.0063
v -691.4128 -513.6698 -394.0063
v -644.6128 -250.5698 -365.9263
v -688.8890 -513.2490 -402.1550
v -644.6128 -250.5698 -365.9263
v -642.0890 -250.1490 -374.0750
v -688.8890 -513.2490 -402.1550
v -688.8890 -513.2490 -402.1550
v -642.0890 -250.1490 -374.0750
v -682.6918 -513.7262 -408.0131
v -642.0890 -250.1490 -374.0750
v -635.8918 -250.6262 -379.9331
v -682.6918 -513.7262 -408.0131
v -682.6918 -513.7262 -408.0131
v -635.8918 -250.6262 -379.9331
v -674.4819 -514.9733 -410.0108
v -635.8918 -250.6262 -379.9331
v -627.6819 -251.8733 -381.9308
v -674.4819 -514.9733 -410.0108
v -674.4819 -514.9733 -410.0108
v -627.6819 -251.8733 -381.9308
v -666.4590 -516.6564 -407.6128
v -627.6819 -251.8733 -381.9308
v -619.6590 -253.5564 -379.5328
v -666.4590 -516.6564 -407.6128
v -666.4590 -516.6564 -407.6128
v -619.6590 -253.5564 -379.5328
v -660.7729 -518.3243 -401.4618
v -619.6590 -253.5564 -379.5328
v -613.9729 -255.2243 -373.3818
v -660.7729 -518.3243 -401.4618
v -660.7729 -518.3243 -401.4618
v -613.9729 -255.2243 -373.3818
v -658.9472 -519.5302 -393.2057
v -613.9729 -255.2243 -373.3818
v -612.1472 -256.4302 -365.1257
v -658.9472 -519.5302 -393.2057
v -658.9472 -519.5302 -393.2057
v -612.1472 -256.4302 -365.1257
v -661.4710 -519.9510 -385.0570
v -612.1472 -256.4302 -365.1257
v -614.6710 -256.8510 -356.9770
v -661.4710 -519.9510 -385.0570
v -661.4710 -519.9510 -385.0570
v -614.6710 -256.8510 -356.9770
v -667.6682 -519.4738 -379.1989
v -614.6710 -256.8510 -356.9770
v -620.8682 -256.3738 -351.1189
v -667.6682 -519.4738 -379.1989
v -667.6682 -519.4738 -379.1989
v -620.8682 -256.3738 -351.1189
v -675.8781 -518.2267 -377.2012
v -620.8682 -256.3738 -351.1189
v -629.0781 -255.1267 -349.1212
v -675.8781 -518.2267 -377.2012
v -675.8781 -518.2267 -377.2012
v -629.0781 -255.1267 -349.1212
v -683.9010 -516.5436 -379.5992
v -629.0781 -255.1267 -349.1212
v -637.1010 -253.4436 -351.5192
v -683.9010 -516.5436 -379.5992
v -683.9010 -516.5436 -379.5992
v -637.1010 -253.4436 -351.5192
v -689.5871 -514.8757 -385.7502
v -637.1010 -253.4436 -351.5192
v -642.7871 -251.7757 -357.6702
v -689.5871 -514.8757 -385.7502
v -689.5871 -514.8757 -385.7502
v -691.4128 -513.6698 -394.0063
v -675.1800 -516.6000 -393.6060
v -691.4128 -513.6698 -394.0063
v -688.8890 -513.2490 -402.1550
v -675.1800 -516.6000 -393.6060
v -688.8890 -513.2490 -402.1550
v -682.6918 -513.7262 -408.0131
v -675.1800 -516.6000 -393.6060
v -682.6918 -513.7262 -408.0131
v -674.4819 -514.9733 -410.0108
v -675.1800 -516.6000 -393.6060
v -674.4819 -514.9733 -410.0108
v -666.4590 -516.6564 -407.6128
v -675.1800 -516.6000 -393.6060
v -666.4590 -516.6564 -407.6128
v -660.7729 -518.3243 -401.4618
v -675.1800 -516.6000 -393.6060
v -660.7729 -518.3243 -401.4618
v -658.9472 -519.5302 -393.2057
v -675.1800 -516.6000 -393.6060
v -658.9472 -519.5302 -393.2057
v -661.4710 -519.9510 -385.0570
v -675.1800 -516.6000 -393.6060
v -661.4710 -519.9510 -385.0570
v -667.6682 -519.4738 -379.1989
v -675.1800 -516.6000 -393.6060
v -667.6682 -519.4738 -379.1989
v -675.8781 -518.2267 -377.2012
v -675.1800 -516.6000 -393.6060
v -675.8781 -518.2267 -377.2012
v -683.9010 -516.5436 -379.5992
v -675.1800 -516.6000 -393.6060
v -683.9010 -516.5436 -379.5992
v -689.5871 -514.8757 -385.7502
v -675.1800 -516.6000 -393.6060
v -644.6128 -250.5698 -365.9263
v -642.7871 -251.7757 -357.6702
v -628.3800 -253.5000 -365.5260
v -642.0890 -250.1490 -374.0750
v -644.6128 -250.5698 -365.9263
v -628.3800 -253.5000 -365.5260
v -635.8918 -250.6262 -379.9331
v -642.0890 -250.1490 -374.0750
v -628.3800 -253.5000 -365.5260
v -627.6819 -251.8733 -381.9308
v -635.8918 -250.6262 -379.9331
v -628.3800 -253.5000 -365.5260
v -619.6590 -253.5564 -379.5328
v -627.6819 -251.8733 -381.9308
v -628.3800 -253.5000 -365.5260
v -613.9729 -255.2243 -373.3818
v -619.6590 -253.5564 -379.5328
v -628.3800 -253.5000 -365.5260
v -612.1472 -256.4302 -365.1257
v -613.9729 -255.2243 -373.3818
v -628.3800 -253.5000 -365.5260
v -614.6710 -256.8510 -356.9770
v -612.1472 -256.4302 -365.1257
v -628.3800 -253.5000 -365.5260
v -620.8682 -256.3738 -351.1189
v -614.6710 -256.8510 -356.9770
v -628.3800 -253.5000 -365.5260
v -629.0781 -255.1267 -349.1212
v -620.8682 -256.3738 -351.1189
v -628.3800 -253.5000 -365.5260
v -637.1010 -253.4436 -351.5192
v -629.0781 -255.1267 -349.1212
v -628.3800 -253.5000 -365.5260
v -642.7871 -251.7757 -357.6702
v -637.1010 -253.4436 -351.5192
v -628.3800 -253.5000 -365.5260
v 689.5871 -163.8757 -385.7502
v 642.7871 99.2243 -357.6702
v 683.9010 -165.5436 -379.5992
v 642.7871 99.2243 -357.6702
v 637.1010 97.5564 -351.5192
v 683.9010 -165.5436 -379.5992
v 683.9010 -165.5436 -379.5992
v 637.1010 97.5564 -351.5192
v 675.8781 -167.2267 -377.2012
v 637.1010 97.5564 -351.5192
v 629.0781 95.8733 -349.1212
v 675.8781 -167.2267 -377.2012
v 675.8781 -167.2267 -377.2012
v 629.0781 95.8733 -349.1212
v 667.6682 -168.4738 -379.1989
v 629.0781 95.8733 -349.1212
v 620.8682 94.6262 -351.1189
v 667.6682 -168.4738 -379.1989
v 667.6682 -168.4738 -379.1989
v 620.8682 94.6262 -351.1189
v 661.4710 -168.9510 -385.0570
v 620.8682 94.6262 -351.1189
v 614.6710 94.1490 -356.9770
v 661.4710 -168.9510 -385.0570
v 661.4710 -168.9510 -385.0570
v 614.6710 94.1490 -356.9770
v 658.9472 -168.5302 -393.2057
v 614.6710 94.1490 -356.9770
v 612.1472 94.5698 -365.1257
v 658.9472 -168.5302 -393.2057
v 658.9472 -168.5302 -393.2057
v 612.1472 94.5698 -365.1257
v 660.7729 -167.3243 -401.4618
v 612.1472 94.5698 -365.1257
v 613.9729 95.7757 -373.3818
v 660.7729 -167.3243 -401.4618
v 660.7729 -167.3243 -401.4618
v 613.9729 95.7757 -373.3818
v 666.4590 -165.6564 -407.6128
v 613.9729 95.7757 -373.3818
v 619.6590 97.4436 -379.5328
v 666.4590 -165.6564 -407.6128
v 666.4590 -165.6564 -407.6128
v 619.6590 97.4436 -379.5328
v 674.4819 -163.9733 -410.0108
v 619.6590 97.4436 -379.5328
v 627.6819 99.1267 -381.9308
v 674.4819 -163.9733 -410.0108
v 674.4819 -163.9733 -410.0108
v 627.6819 99.1267 -381.9308
v 682.6918 -162.7262 -408.0131
v 627.6819 99.1267 -381.9308
v 635.8918 100.3738 -379.9331
v 682.6918 -162.7262 -408.0131
v 682.6918 -162.7262 -408.0131
v 635.8918 100.3738 -379.9331
v 688.8890 -162.2490 -402.1550
v 635.8918 100.3738 -379.9331
v 642.0890 100.8510 -374.0750
v 688.8890 -162.2490 -402.1550
v 688.8890 -162.2490 -402.1550
v 642.0890 100.8510 -374.0750
v 691.4128 -162.6698 -394.0063
v 642.0890 100.8510 -374.0750
v 644.6128 100.4302 -365.9263
v 691.4128 -162.6698 -394.0063
v 691.4128 -162.6698 -394.0063
v 644.6128 100.4302 -365.9263
v 689.5871 -163.8757 -385.7502
v 644.6128 100.4302 -365.9263
v 642.7871 99.2243 -357.6702
v 689.5871 -163.8757 -385.7502
v 689.5871 -163.8757 -385.7502
v 683.9010 -165.5436 -379.5992
v 675.1800 -165.6000 -393.6060
v 683.9010 -165.5436 -379.5992
v 675.8781 -167.2267 -377.2012
v 675.1800 -165.6000 -393.6060
v 675.8781 -167.2267 -377.2012
v 667.6682 -168.4738 -379.1989
v 675.1800 -165.6000 -393.6060
v 667.6682 -168.4738 -379.1989
v 661.4710 -168.9510 -385.0570
v 675.1800 -165.6000 -393.6060
v 661.4710 -168.9510 -385.0570
v 658.9472 -168.5302 -393.2057
v 675.1800 -165.6000 -393.6060
v 658.9472 -168.5302 -393.2057
v 660.7729 -167.3243 -401.4618
v 675.1800 -165.6000 -393.6060
v 660.7729 -167.3243 -401.4618
v 666.4590 -165.6564 -407.6128
v 675.1800 -165.6000 -393.6060
v 666.4590 -165.6564 -407.6128
v 674.4819 -163.9733 -410.0108
v 675.1800 -165.6000 -393.6060
v 674.4819 -163.9733 -410.0108
v 682.6918 -162.7262 -408.0131
v 675.1800 -165.6000 -393.6060
v 682.6918 -162.7262 -408.0131
v 688.8890 -162.2490 -402.1550
v 675.1800 -165.6000 -393.6060
v 688.8890 -162.2490 -402.1550
v 691.4128 -162.6698 -394.0063
v 675.1800 -165.6000 -393.6060
v 691.4128 -162.6698 -394.0063
v 689.5871 -163.8757 -385.7502
v 675.1800 -165.6000 -393.6060
v 637.1010 97.5564 -351.5192
v 642.7871 99.2243 -357.6702
v 628.3800 97.5000 -365.5260
v 629.0781 95.8733 -349.1212
v 637.1010 97.5564 -351.5192
v 628.3800 97.5000 -365.5260
v 620.8682 94.6262 -351.1189
v 629.0781 95.8733 -349.1212
v 628.3800 97.5000 -365.5260
v 614.6710 94.1490 -356.9770
v 620.8682 94.6262 -351.1189
v 628.3800 97.5000 -365.5260
v 612.1472 94.5698 -365.1257
v 614.6710 94.1490 -356.9770
v 628.3800 97.5000 -365.5260
v 613.9729 95.7757 -373.3818
v 612.1472 94.5698 -365.1257
v 628.3800 97.5000 -365.5260
v 619.6590 97.4436 -379.5328
v 613.9729 95.7757 -373.3818
v 628.3800 97.5000 -365.5260
v 627.6819 99.1267 -381.9308
v 619.6590 97.4436 -379.5328
v 628.3800 97.5000 -365.5260
v 635.8918 100.3738 -379.9331
v 627.6819 99.1267 -381.9308
v 628.3800 97.5000 -365.5260
v 642.0890 100.8510 -374.0750
v 635.8918 100.3738 -379.9331
v 628.3800 97.5000 -365.5260
v 644.6128 100.4302 -365.9263
v 642.0890 100.8510 -374.0750
v 628.3800 97.5000 -365.5260
v 642.7871 99.2243 -357.6702
v 644.6128 100.4302 -365.9263
v 628.3800 97.5000 -365.5260
v -660.7729 183.6757 401.4618
v -613.9729 446.7757 373.3818
v -666.4590 185.3436 407.6128
v -613.9729 446.7757 373.3818
v -619.6590 448.4436 379.5328
v -666.4590 185.3436 407.6128
v -666.4590 185.3436 407.6128
v -619.6590 448.4436 379.5328
v -674.4819 187.0267 410.0108
v -619.6590 448.4436 379.5328
v -627.6819 450.1267 381.9308
v -674.4819 187.0267 410.0108
v -674.4819 187.0267 410.0108
v -627.6819 450.1267 381.9308
v -682.6918 188.2738 408.0131
v -627.6819 450.1267 381.9308
v -635.8918 451.3738 379.9331
v -682.6918 188.2738 408.0131
v -682.6918 188.2738 408.0131
v -635.8918 451.3738 379.9331
v -688.8890 188.7510 402.1550
v -635.8918 451.3738 379.9331
v -642.0890 451.8510 374.0750
v -688.8890 188.7510 402.1550
v -688.8890 188.7510 402.1550
v -642.0890 451.8510 374.0750
v -691.4128 188.3302 394.0063
v -642.0890 451.8510 374.0750
v -644.6128 451.4302 365.9263
v -691.4128 188.3302 394.0063
v -691.4128 188.3302 394.0063
v -644.6128 451.4302 365.9263
v -689.5871 187.1243 385.7502
v -644.6128 451.4302 365.9263
v -642.7871 450.2243 357.6702
v -689.5871 187.1243 385.7502
v -689.5871 187.1243 385.7502
v -642.7871 450.2243 357.6702
v -683.9010 185.4564 379.5992
v -642.7871 450.2243 357.6702
v -637.1010 448.5564 351.5192
v -683.9010 185.4564 379.5992
v -683.9010 185.4564 379.5992
v -637.1010 448.5564 351.5192
v -675.8781 183.7733 377.2012
v -637.1010 448.5564 351.5192
v -629.0781 446.8733 349.1212
v -675.8781 183.7733 377.2012
v -675.8781 183.7733 377.2012
v -629.0781 446.8733 349.1212
v -667.6682 182.5262 379.1989
v -629.0781 446.8733 349.1212
v -620.8682 445.6262 351.1189
v -667.6682 182.5262 379.1989
v -667.6682 182.5262 379.1989
v -620.8682 445.6262 351.1189
v -661.4710 182.0490 385.0570
v -620.8682 445.6262 351.1189
v -614.6710 445.1490 356.9770
v -661.4710 182.0490 385.0570
v -661.4710 182.0490 385.0570
v -614.6710 445.1490 356.9770
v -658.9472 182.4698 393.2057
v -614.6710 445.1490 356.9770
v -612.1472 445.5698 365.1257
v -658.9472 182.4698 393.2057
v -658.9472 182.4698 393.2057
v -612.1472 445.5698 365.1257
v -660.7729 183.6757 401.4618
v -612.1472 445.5698 365.1257
v -613.9729 446.7757 373.3818
v -660.7729 183.6757 401.4618
v -660.7729 183.6757 401.4618
v -666.4590 185.3436 407.6128
v -675.1800 185.4000 393.6060
v -666.4590 185.3436 407.6128
v -674.4819 187.0267 410.0108
v -675.1800 185.4000 393.6060
v -674.4819 187.0267 410.0108
v -682.6918 188.2738 408.0131
v -675.1800 185.4000 393.6060
v -682.6918 188.2738 408.0131
v -688.8890 188.7510 402.1550
v -675.1800 185.4000 393.6060
v -688.8890 188.7510 402.1550
v -691.4128 188.3302 394.0063
v -675.1800 185.4000 393.6060
v -691.4128 188.3302 394.0063
v -689.5871 187.1243 385.7502
v -675.1800 185.4000 393.6060
v -689.5871 187.1243 385.7502
v -683.9010 185.4564 379.5992
v -675.1800 185.4000 393.6060
v -683.9010 185.4564 379.5992
v -675.8781 183.7733 377.2012
v -675.1800 185.4000 393.6060
v -675.8781 183.7733 377.2012
v -667.6682 182.5262 379.1989
v -675.1800 185.4000 393.6060
v -667.6682 182.5262 379.1989
v -661.4710 182.0490 385.0570
v -675.1800 185.4000 393.6060
v -661.4710 182.0490 385.0570
v -658.9472 182.4698 393.2057
v -675.1800 185.4000 393.6060
v -658.9472 182.4698 393.2057
v -660.7729 183.6757 401.4618
v -675.1800 185.4000 393.6060
v -619.6590 448.4436 379.5328
v -613.9729 446.7757 373.3818
v -628.3800 448.5000 365.5260
v -627.6819 450.1267 381.9308
v -619.6590 448.4436 379.5328
v -628.3800 448.5000 365.5260
v -635.8918 451.3738 379.9331
v -627.6819 450.1267 381.9308
v -628.3800 448.5000 365.5260
v -642.0890 451.8510 374.0750
v -635.8918 451.3738 379.9331
v -628.3800 448.5000 365.5260
v -644.6128 451.4302 365.9263
v -642.0890 451.8510 374.0750
v -628.3800 448.5000 365.5260
v -642.7871 450.2243 357.6702
v -644.6128 451.4302 365.9263
v -628.3800 448.5000 365.5260
v -637.1010 448.5564 351.5192
v -642.7871 450.2243 357.6702
v -628.3800 448.5000 365.5260
v -629.0781 446.8733 349.1212
v -637.1010 448.5564 351.5192
v -628.3800 448.5000 365.5260
v -620.8682 445.6262 351.1189
v -629.0781 446.8733 349.1212
v -628.3800 448.5000 365.5260
v -614.6710 445.1490 356.9770
v -620.8682 445.6262 351.1189
v -628.3800 448.5000 365.5260
v -612.1472 445.5698 365.1257
v -614.6710 445.1490 356.9770
v -628.3800 448.5000 365.5260
v -613.9729 446.7757 373.3818
v -612.1472 445.5698 365.1257
v -628.3800 448.5000 365.5260
v 660.7729 534.6757 401.4618
v 613.9729 797.7757 373.3818
v 658.9472 533.4698 393.2057
v 613.9729 797.7757 373.3818
v 612.1472 796.5698 365.1257
v 658.9472 533.4698 393.2057
v 658.9472 533.4698 393.2057
v 612.1472 796.5698 365.1257
v 661.4710 533.0490 385.0570
v 612.1472 796.5698 365.1257
v 614.6710 796.1490 356.9770
v 661.4710 533.0490 385.0570
v 661.4710 533.0490 385.0570
v 614.6710 796.1490 356.9770
v 667.6682 533.5262 379.1989
v 614.6710 796.1490 356.9770
v 620.8682 796.6262 351.1189
v 667.6682 533.5262 379.1989
v 667.6682 533.5262 379.1989
v 620.8682 796.6262 351.1189
v 675.8781 534.7733 377.2012
v 620.8682 796.6262 351.1189
v 629.0781 797.8733 349.1212
v 675.8781 534.7733 377.2012
v 675.8781 534.7733 377.2012
v 629.0781 797.8733 349.1212
v 683.9010 536.4564 379.5992
v 629.0781 797.8733 349.1212
v 637.1010 799.5564 351.5192
v 683.9010 536.4564 379.5992
v 683.9010 536.4564 379.5992
v 637.1010 799.5564 351.5192
v 689.5871 538.1243 385.7502
v 637.1010 799.5564 351.5192
v 642.7871 801.2243 357.6702
v 689.5871 538.1243 385.7502
v 689.5871 538.1243 385.7502
v 642.7871 801.2243 357.6702
v 691.4128 539.3302 394.0063
v 642.7871 801.2243 357.6702
v 644.6128 802.4302 365.9263
v 691.4128 539.3302 394.0063
v 691.4128 539.3302 394.0063
v 644.6128 802.4302 365.9263
v 688.8890 539.7510 402.1550
v 644.6128 802.4302 365.9263
v 642.0890 802.8510 374.0750
v 688.8890 539.7510 402.1550
v 688.8890 539.7510 402.1550
v 642.0890 802.8510 374.0750
v 682.6918 539.2738 408.0131
v 642.0890 802.8510 374.0750
v 635.8918 802.3738 379.9331
v 682.6918 539.2738 408.0131
v 682.6918 539.2738 408.0131
v 635.8918 802.3738 379.9331
v 674.4819 538.0267 410.0108
v 635.8918 802.3738 379.9331
v 627.6819 801.1267 381.9308
v 674.4819 538.0267 410.0108
v 674.4819 538.0267 410.0108
v 627.6819 801.1267 381.9308
v 666.4590 536.3436 407.6128
v 627.6819 801.1267 381.9308
v 619.6590 799.4436 379.5328
v 666.4590 536.3436 407.6128
v 666.4590 536.3436 407.6128
v 619.6590 799.4436 379.5328
v 660.7729 534.6757 401.4618
v 619.6590 799.4436 379.5328
v 613.9729 797.7757 373.3818
v 660.7729 534.6757 401.4618
v 660.7729 534.6757 401.4618
v 658.9472 533.4698 393.2057
v 675.1800 536.4000 393.6060
v 658.9472 533.4698 393.2057
v 661.4710 533.0490 385.0570
v 675.1800 536.4000 393.6060
v 661.4710 533.0490 385.0570
v 667.6682 533.5262 379.1989
v 675.1800 536.4000 393.6060
v 667.6682 533.5262 379.1989
v 675.8781 534.7733 377.2012
v 675.1800 536.4000 393.6060
v 675.8781 534.7733 377.2012
v 683.9010 536.4564 379.5992
v 675.1800 536.4000 393.6060
v 683.9010 536.4564 379.5992
v 689.5871 538.1243 385.7502
v 675.1800 536.4000 393.6060
v 689.5871 538.1243 385.7502
v 691.4128 539.3302 394.0063
v 675.1800 536.4000 393.6060
v 691.4128 539.3302 394.0063
v 688.8890 539.7510 402.1550
v 675.1800 536.4000 393.6060
v 688.8890 539.7510 402.1550
v 682.6918 539.2738 408.0131
v 675.1800 536.4000 393.6060
v 682.6918 539.2738 408.0131
v 674.4819 538.0267 410.0108
v 675.1800 536.4000 393.6060
v 674.4819 538.0267 410.0108
v 666.4590 536.3436 407.6128
v 675.1800 536.4000 393.6060
v 666.4590 536.3436 407.6128
v 660.7729 534.6757 401.4618
v 675.1800 536.4000 393.6060
v 612.1472 796.5698 365.1257
v 613.9729 797.7757 373.3818
v 628.3800 799.5000 365.5260
v 614.6710 796.1490 356.9770
v 612.1472 796.5698 365.1257
v 628.3800 799.5000 365.5260
v 620.8682 796.6262 351.1189
v 614.6710 796.1490 356.9770
v 628.3800 799.5000 365.5260
v 629.0781 797.8733 349.1212
v 620.8682 796.6262 351.1189
v 628.3800 799.5000 365.5260
v 637.1010 799.5564 351.5192
v 629.0781 797.8733 349.1212
v 628.3800 799.5000 365.5260
v 642.7871 801.2243 357.6702
v 637.1010 799.5564 351.5192
v 628.3800 799.5000 365.5260
v 644.6128 802.4302 365.9263
v 642.7871 801.2243 357.6702
v 628.3800 799.5000 365.5260
v 642.0890 802.8510 374.0750
v 644.6128 802.4302 365.9263
v 628.3800 799.5000 365.5260
v 635.8918 802.3738 379.9331
v 642.0890 802.8510 374.0750
v 628.3800 799.5000 365.5260
v 627.6819 801.1267 381.9308
v 635.8918 802.3738 379.9331
v 628.3800 799.5000 365.5260
v 619.6590 799.4436 379.5328
v 627.6819 801.1267 381.9308
v 628.3800 799.5000 365.5260
v 613.9729 797.7757 373.3818
v 619.6590 799.4436 379.5328
v 628.3800 799.5000 365.5260
f 1 2 3
f 4 5 6
f 7 8 9
f 10 11 12
f 13 14 15
f 16 17 18
f 19 20 21
f 22 23 24
f 25 26 27
f 28 29 30
f 31 32 33
f 34 35 36
f 37 38 39
f 40 41 42
f 43 44 45
f 46 47 48
f 49 50 51
f 52 53 54
f 55 56 57
f 58 59 60
f 61 62 63
f 64 65 66
f 67 68 69
f 70 71 72
f 73 74 75
f 76 77 78
f 79 80 81
f 82 83 84
f 85 86 87
f 88 89 90
f 91 92 93
f 94 95 96
f 97 98 99
f 100 101 102
f 103 104 105
f 106 107 108
f 109 110 111
f 112 113 114
f 115 116 117
f 118 119 120
f 121 122 123
f 124 125 126
f 127 128 129
f 130 131 132
f 133 134 135
f 136 137 138
f 139 140 141
f 142 143 144
f 145 146 147
f 148 149 150
f 151 152 153
f 154 155 156
f 157 158 159
f 160 161 162
f 163 164 165
f 166 167 168
f 169 170 171
f 172 173 174
f 175 176 177
f 178 179 180
f 181 182 183
f 184 185 186
f 187 188 189
f 190 191 192
f 193 194 195
f 196 197 198
f 199 200 201
f 202 203 204
f 205 206 207
f 208 209 210
f 211 212 213
f 214 215 216
f 217 218 219
f 220 221 222
f 223 224 225
f 226 227 228
f 229 230 231
f 232 233 234
f 235 236 237
f 238 239 240
f 241 242 243
f 244 245 246
f 247 248 249
f 250 251 252
f 253 254 255
f 256 257 258
f 259 260 261
f 262 263 264
f 265 266 267
f 268 269 270
f 271 272 273
f 274 275 276
f 277 278 279
f 280 281 282
f 283 284 285
f 286 287 288
f 289 290 291
f 292 293 294
f 295 296 297
f 298 299 300
f 301 302 303
f 304 305 306
f 307 308 309
f 310 311 312
f 313 314 315
f 316 317 318
f 319 320 321
f 322 323 324
f 325 326 327
f 328 329 330
f 331 332 333
f 334 335 336
f 337 338 339
f 340 341 342
f 343 344 345
f 346 347 348
f 349 350 351
f 352 353 354
f 355 356 357
f 358 359 360
f 361 362 363
f 364 365 366
f 367 368 369
f 370 371 372
f 373 374 375
f 376 377 378
f 379 380 381
f 382 383 384
f 385 386 387
f 388 389 390
f 391 392 393
f 394 395 396
f 397 398 399
f 400 401 402
f 403 404 405
f 406 407 408
f 409 410 411
f 412 413 414
f 415 416 417
f 418 419 420
f 421 422 423
f 424 425 426
f 427 428 429
f 430 431 432
f 433 434 435
f 436 437 438
f 439 440 441
f 442 443 444
f 445 446 447
f 448 449 450
f 451 452 453
f 454 455 456
f 457 458 459
f 460 461 462
f 463 464 465
f 466 467 468
f 469 470 471
f 472 473 474
f 475 476 477
f 478 479 480
f 481 482 483
f 484 485 486
f 487 488 489
f 490 491 492
f 493 494 495
f 496 497 498
f 499 500 501
f 502 503 504
f 505 506 507
f 508 509 510
f 511 512 513
f 514 515 516
f 517 518 519
f 520 521 522
f 523 524 525
f 526 527 528
f 529 530 531
f 532 533 534
f 535 536 537
f 538 539 540
f 541 542 543
f 544 545 546
f 547 548 549
f 550 551 552
f 553 554 555
f 556 557 558
f 559 560 561
f 562 563 564
f 565 566 567
f 568 569 570
f 571 572 573
f 574 575 576
f 577 578 579
f 580 581 582
f 583 584 585
f 586 587 588
f 589 590 591
f 592 593 594
f 595 596 597
f 598 599 600
f 601 602 603
f 604 605 606
f 607 608 609
f 610 611 612
f 613 614 615
f 616 617 618
f 619 620 621
f 622 623 624
f 625 626 627
f 628 629 630
f 631 632 633
f 634 635 636
f 637 638 639
f 640 641 642
f 643 644 645
f 646 647 648
f 649 650 651
f 652 653 654
f 655 656 657
f 658 659 660
f 661 662 663
f 664 665 666
f 667 668 669
f 670 671 672
f 673 674 675
f 676 677 678
f 679 680 681
f 682 683 684
f 685 686 687
f 688 689 690
f 691 692 693
f 694 695 696
f 697 698 699
f 700 701 702
f 703 704 705
f 706 707 708
f 709 710 711
f 712 713 714
f 715 716 717
f 718 719 720
