# MATERIA - Seconda
# Geometria originale di studio. Unita mm. Non CAD del produttore.
v -323.1188 -213.0626 -342.6463
v -301.5908 197.5474 -318.3103
v -320.6590 -212.8321 -348.7105
v -301.5908 197.5474 -318.3103
v -299.1310 197.7779 -324.3745
v -320.6590 -212.8321 -348.7105
v -320.6590 -212.8321 -348.7105
v -299.1310 197.7779 -324.3745
v -315.4993 -212.8637 -352.7422
v -299.1310 197.7779 -324.3745
v -293.9713 197.7463 -328.4062
v -315.4993 -212.8637 -352.7422
v -315.4993 -212.8637 -352.7422
v -293.9713 197.7463 -328.4062
v -309.0223 -213.1488 -353.6612
v -293.9713 197.7463 -328.4062
v -287.4943 197.4612 -329.3252
v -309.0223 -213.1488 -353.6612
v -309.0223 -213.1488 -353.6612
v -287.4943 197.4612 -329.3252
v -302.9634 -213.6111 -351.2211
v -287.4943 197.4612 -329.3252
v -281.4354 196.9989 -326.8851
v -302.9634 -213.6111 -351.2211
v -302.9634 -213.6111 -351.2211
v -281.4354 196.9989 -326.8851
v -298.9461 -214.1267 -346.0759
v -281.4354 196.9989 -326.8851
v -277.4181 196.4833 -321.7399
v -298.9461 -214.1267 -346.0759
v -298.9461 -214.1267 -346.0759
v -277.4181 196.4833 -321.7399
v -298.0468 -214.5574 -339.6041
v -277.4181 196.4833 -321.7399
v -276.5188 196.0526 -315.2681
v -298.0468 -214.5574 -339.6041
v -298.0468 -214.5574 -339.6041
v -276.5188 196.0526 -315.2681
v -300.5066 -214.7879 -333.5399
v -276.5188 196.0526 -315.2681
v -278.9786 195.8221 -309.2039
v -300.5066 -214.7879 -333.5399
v -300.5066 -214.7879 -333.5399
v -278.9786 195.8221 -309.2039
v -305.6663 -214.7563 -329.5082
v -278.9786 195.8221 -309.2039
v -284.1383 195.8537 -305.1722
v -305.6663 -214.7563 -329.5082
v -305.6663 -214.7563 -329.5082
v -284.1383 195.8537 -305.1722
v -312.1433 -214.4712 -328.5892
v -284.1383 195.8537 -305.1722
v -290.6153 196.1388 -304.2532
v -312.1433 -214.4712 -328.5892
v -312.1433 -214.4712 -328.5892
v -290.6153 196.1388 -304.2532
v -318.2022 -214.0089 -331.0293
v -290.6153 196.1388 -304.2532
v -296.6742 196.6011 -306.6933
v -318.2022 -214.0089 -331.0293
v -318.2022 -214.0089 -331.0293
v -296.6742 196.6011 -306.6933
v -322.2195 -213.4933 -336.1745
v -296.6742 196.6011 -306.6933
v -300.6915 197.1167 -311.8385
v -322.2195 -213.4933 -336.1745
v -322.2195 -213.4933 -336.1745
v -300.6915 197.1167 -311.8385
v -323.1188 -213.0626 -342.6463
v -300.6915 197.1167 -311.8385
v -301.5908 197.5474 -318.3103
v -323.1188 -213.0626 -342.6463
v -323.1188 -213.0626 -342.6463
v -320.6590 -212.8321 -348.7105
v -310.5828 -213.8100 -341.1252
v -320.6590 -212.8321 -348.7105
v -315.4993 -212.8637 -352.7422
v -310.5828 -213.8100 -341.1252
v -315.4993 -212.8637 -352.7422
v -309.0223 -213.1488 -353.6612
v -310.5828 -213.8100 -341.1252
v -309.0223 -213.1488 -353.6612
v -302.9634 -213.6111 -351.2211
v -310.5828 -213.8100 -341.1252
v -302.9634 -213.6111 -351.2211
v -298.9461 -214.1267 -346.0759
v -310.5828 -213.8100 -341.1252
v -298.9461 -214.1267 -346.0759
v -298.0468 -214.5574 -339.6041
v -310.5828 -213.8100 -341.1252
v -298.0468 -214.5574 -339.6041
v -300.5066 -214.7879 -333.5399
v -310.5828 -213.8100 -341.1252
v -300.5066 -214.7879 -333.5399
v -305.6663 -214.7563 -329.5082
v -310.5828 -213.8100 -341.1252
v -305.6663 -214.7563 -329.5082
v -312.1433 -214.4712 -328.5892
v -310.5828 -213.8100 -341.1252
v -312.1433 -214.4712 -328.5892
v -318.2022 -214.0089 -331.0293
v -310.5828 -213.8100 -341.1252
v -318.2022 -214.0089 -331.0293
v -322.2195 -213.4933 -336.1745
v -310.5828 -213.8100 -341.1252
v -322.2195 -213.4933 -336.1745
v -323.1188 -213.0626 -342.6463
v -310.5828 -213.8100 -341.1252
v -299.1310 197.7779 -324.3745
v -301.5908 197.5474 -318.3103
v -289.0548 196.8000 -316.7892
v -293.9713 197.7463 -328.4062
v -299.1310 197.7779 -324.3745
v -289.0548 196.8000 -316.7892
v -287.4943 197.4612 -329.3252
v -293.9713 197.7463 -328.4062
v -289.0548 196.8000 -316.7892
v -281.4354 196.9989 -326.8851
v -287.4943 197.4612 -329.3252
v -289.0548 196.8000 -316.7892
v -277.4181 196.4833 -321.7399
v -281.4354 196.9989 -326.8851
v -289.0548 196.8000 -316.7892
v -276.5188 196.0526 -315.2681
v -277.4181 196.4833 -321.7399
v -289.0548 196.8000 -316.7892
v -278.9786 195.8221 -309.2039
v -276.5188 196.0526 -315.2681
v -289.0548 196.8000 -316.7892
v -284.1383 195.8537 -305.1722
v -278.9786 195.8221 -309.2039
v -289.0548 196.8000 -316.7892
v -290.6153 196.1388 -304.2532
v -284.1383 195.8537 -305.1722
v -289.0548 196.8000 -316.7892
v -296.6742 196.6011 -306.6933
v -290.6153 196.1388 -304.2532
v -289.0548 196.8000 -316.7892
v -300.6915 197.1167 -311.8385
v -296.6742 196.6011 -306.6933
v -289.0548 196.8000 -316.7892
v -301.5908 197.5474 -318.3103
v -300.6915 197.1167 -311.8385
v -289.0548 196.8000 -316.7892
v 323.1188 -65.4626 -342.6463
v 301.5908 345.1474 -318.3103
v 322.2195 -65.8933 -336.1745
v 301.5908 345.1474 -318.3103
v 300.6915 344.7167 -311.8385
v 322.2195 -65.8933 -336.1745
v 322.2195 -65.8933 -336.1745
v 300.6915 344.7167 -311.8385
v 318.2022 -66.4089 -331.0293
v 300.6915 344.7167 -311.8385
v 296.6742 344.2011 -306.6933
v 318.2022 -66.4089 -331.0293
v 318.2022 -66.4089 -331.0293
v 296.6742 344.2011 -306.6933
v 312.1433 -66.8712 -328.5892
v 296.6742 344.2011 -306.6933
v 290.6153 343.7388 -304.2532
v 312.1433 -66.8712 -328.5892
v 312.1433 -66.8712 -328.5892
v 290.6153 343.7388 -304.2532
v 305.6663 -67.1563 -329.5082
v 290.6153 343.7388 -304.2532
v 284.1383 343.4537 -305.1722
v 305.6663 -67.1563 -329.5082
v 305.6663 -67.1563 -329.5082
v 284.1383 343.4537 -305.1722
v 300.5066 -67.1879 -333.5399
v 284.1383 343.4537 -305.1722
v 278.9786 343.4221 -309.2039
v 300.5066 -67.1879 -333.5399
v 300.5066 -67.1879 -333.5399
v 278.9786 343.4221 -309.2039
v 298.0468 -66.9574 -339.6041
v 278.9786 343.4221 -309.2039
v 276.5188 343.6526 -315.2681
v 298.0468 -66.9574 -339.6041
v 298.0468 -66.9574 -339.6041
v 276.5188 343.6526 -315.2681
v 298.9461 -66.5267 -346.0759
v 276.5188 343.6526 -315.2681
v 277.4181 344.0833 -321.7399
v 298.9461 -66.5267 -346.0759
v 298.9461 -66.5267 -346.0759
v 277.4181 344.0833 -321.7399
v 302.9634 -66.0111 -351.2211
v 277.4181 344.0833 -321.7399
v 281.4354 344.5989 -326.8851
v 302.9634 -66.0111 -351.2211
v 302.9634 -66.0111 -351.2211
v 281.4354 344.5989 -326.8851
v 309.0223 -65.5488 -353.6612
v 281.4354 344.5989 -326.8851
v 287.4943 345.0612 -329.3252
v 309.0223 -65.5488 -353.6612
v 309.0223 -65.5488 -353.6612
v 287.4943 345.0612 -329.3252
v 315.4993 -65.2637 -352.7422
v 287.4943 345.0612 -329.3252
v 293.9713 345.3463 -328.4062
v 315.4993 -65.2637 -352.7422
v 315.4993 -65.2637 -352.7422
v 293.9713 345.3463 -328.4062
v 320.6590 -65.2321 -348.7105
v 293.9713 345.3463 -328.4062
v 299.1310 345.3779 -324.3745
v 320.6590 -65.2321 -348.7105
v 320.6590 -65.2321 -348.7105
v 299.1310 345.3779 -324.3745
v 323.1188 -65.4626 -342.6463
v 299.1310 345.3779 -324.3745
v 301.5908 345.1474 -318.3103
v 323.1188 -65.4626 -342.6463
v 323.1188 -65.4626 -342.6463
v 322.2195 -65.8933 -336.1745
v 310.5828 -66.2100 -341.1252
v 322.2195 -65.8933 -336.1745
v 318.2022 -66.4089 -331.0293
v 310.5828 -66.2100 -341.1252
v 318.2022 -66.4089 -331.0293
v 312.1433 -66.8712 -328.5892
v 310.5828 -66.2100 -341.1252
v 312.1433 -66.8712 -328.5892
v 305.6663 -67.1563 -329.5082
v 310.5828 -66.2100 -341.1252
v 305.6663 -67.1563 -329.5082
v 300.5066 -67.1879 -333.5399
v 310.5828 -66.2100 -341.1252
v 300.5066 -67.1879 -333.5399
v 298.0468 -66.9574 -339.6041
v 310.5828 -66.2100 -341.1252
v 298.0468 -66.9574 -339.6041
v 298.9461 -66.5267 -346.0759
v 310.5828 -66.2100 -341.1252
v 298.9461 -66.5267 -346.0759
v 302.9634 -66.0111 -351.2211
v 310.5828 -66.2100 -341.1252
v 302.9634 -66.0111 -351.2211
v 309.0223 -65.5488 -353.6612
v 310.5828 -66.2100 -341.1252
v 309.0223 -65.5488 -353.6612
v 315.4993 -65.2637 -352.7422
v 310.5828 -66.2100 -341.1252
v 315.4993 -65.2637 -352.7422
v 320.6590 -65.2321 -348.7105
v 310.5828 -66.2100 -341.1252
v 320.6590 -65.2321 -348.7105
v 323.1188 -65.4626 -342.6463
v 310.5828 -66.2100 -341.1252
v 300.6915 344.7167 -311.8385
v 301.5908 345.1474 -318.3103
v 289.0548 344.4000 -316.7892
v 296.6742 344.2011 -306.6933
v 300.6915 344.7167 -311.8385
v 289.0548 344.4000 -316.7892
v 290.6153 343.7388 -304.2532
v 296.6742 344.2011 -306.6933
v 289.0548 344.4000 -316.7892
v 284.1383 343.4537 -305.1722
v 290.6153 343.7388 -304.2532
v 289.0548 344.4000 -316.7892
v 278.9786 343.4221 -309.2039
v 284.1383 343.4537 -305.1722
v 289.0548 344.4000 -316.7892
v 276.5188 343.6526 -315.2681
v 278.9786 343.4221 -309.2039
v 289.0548 344.4000 -316.7892
v 277.4181 344.0833 -321.7399
v 276.5188 343.6526 -315.2681
v 289.0548 344.4000 -316.7892
v 281.4354 344.5989 -326.8851
v 277.4181 344.0833 -321.7399
v 289.0548 344.4000 -316.7892
v 287.4943 345.0612 -329.3252
v 281.4354 344.5989 -326.8851
v 289.0548 344.4000 -316.7892
v 293.9713 345.3463 -328.4062
v 287.4943 345.0612 -329.3252
v 289.0548 344.4000 -316.7892
v 299.1310 345.3779 -324.3745
v 293.9713 345.3463 -328.4062
v 289.0548 344.4000 -316.7892
v 301.5908 345.1474 -318.3103
v 299.1310 345.3779 -324.3745
v 289.0548 344.4000 -316.7892
v -298.0468 80.6426 339.6041
v -276.5188 491.2526 315.2681
v -298.9461 81.0733 346.0759
v -276.5188 491.2526 315.2681
v -277.4181 491.6833 321.7399
v -298.9461 81.0733 346.0759
v -298.9461 81.0733 346.0759
v -277.4181 491.6833 321.7399
v -302.9634 81.5889 351.2211
v -277.4181 491.6833 321.7399
v -281.4354 492.1989 326.8851
v -302.9634 81.5889 351.2211
v -302.9634 81.5889 351.2211
v -281.4354 492.1989 326.8851
v -309.0223 82.0512 353.6612
v -281.4354 492.1989 326.8851
v -287.4943 492.6612 329.3252
v -309.0223 82.0512 353.6612
v -309.0223 82.0512 353.6612
v -287.4943 492.6612 329.3252
v -315.4993 82.3363 352.7422
v -287.4943 492.6612 329.3252
v -293.9713 492.9463 328.4062
v -315.4993 82.3363 352.7422
v -315.4993 82.3363 352.7422
v -293.9713 492.9463 328.4062
v -320.6590 82.3679 348.7105
v -293.9713 492.9463 328.4062
v -299.1310 492.9779 324.3745
v -320.6590 82.3679 348.7105
v -320.6590 82.3679 348.7105
v -299.1310 492.9779 324.3745
v -323.1188 82.1374 342.6463
v -299.1310 492.9779 324.3745
v -301.5908 492.7474 318.3103
v -323.1188 82.1374 342.6463
v -323.1188 82.1374 342.6463
v -301.5908 492.7474 318.3103
v -322.2195 81.7067 336.1745
v -301.5908 492.7474 318.3103
v -300.6915 492.3167 311.8385
v -322.2195 81.7067 336.1745
v -322.2195 81.7067 336.1745
v -300.6915 492.3167 311.8385
v -318.2022 81.1911 331.0293
v -300.6915 492.3167 311.8385
v -296.6742 491.8011 306.6933
v -318.2022 81.1911 331.0293
v -318.2022 81.1911 331.0293
v -296.6742 491.8011 306.6933
v -312.1433 80.7288 328.5892
v -296.6742 491.8011 306.6933
v -290.6153 491.3388 304.2532
v -312.1433 80.7288 328.5892
v -312.1433 80.7288 328.5892
v -290.6153 491.3388 304.2532
v -305.6663 80.4437 329.5082
v -290.6153 491.3388 304.2532
v -284.1383 491.0537 305.1722
v -305.6663 80.4437 329.5082
v -305.6663 80.4437 329.5082
v -284.1383 491.0537 305.1722
v -300.5066 80.4121 333.5399
v -284.1383 491.0537 305.1722
v -278.9786 491.0221 309.2039
v -300.5066 80.4121 333.5399
v -300.5066 80.4121 333.5399
v -278.9786 491.0221 309.2039
v -298.0468 80.6426 339.6041
v -278.9786 491.0221 309.2039
v -276.5188 491.2526 315.2681
v -298.0468 80.6426 339.6041
v -298.0468 80.6426 339.6041
v -298.9461 81.0733 346.0759
v -310.5828 81.3900 341.1252
v -298.9461 81.0733 346.0759
v -302.9634 81.5889 351.2211
v -310.5828 81.3900 341.1252
v -302.9634 81.5889 351.2211
v -309.0223 82.0512 353.6612
v -310.5828 81.3900 341.1252
v -309.0223 82.0512 353.6612
v -315.4993 82.3363 352.7422
v -310.5828 81.3900 341.1252
v -315.4993 82.3363 352.7422
v -320.6590 82.3679 348.7105
v -310.5828 81.3900 341.1252
v -320.6590 82.3679 348.7105
v -323.1188 82.1374 342.6463
v -310.5828 81.3900 341.1252
v -323.1188 82.1374 342.6463
v -322.2195 81.7067 336.1745
v -310.5828 81.3900 341.1252
v -322.2195 81.7067 336.1745
v -318.2022 81.1911 331.0293
v -310.5828 81.3900 341.1252
v -318.2022 81.1911 331.0293
v -312.1433 80.7288 328.5892
v -310.5828 81.3900 341.1252
v -312.1433 80.7288 328.5892
v -305.6663 80.4437 329.5082
v -310.5828 81.3900 341.1252
v -305.6663 80.4437 329.5082
v -300.5066 80.4121 333.5399
v -310.5828 81.3900 341.1252
v -300.5066 80.4121 333.5399
v -298.0468 80.6426 339.6041
v -310.5828 81.3900 341.1252
v -277.4181 491.6833 321.7399
v -276.5188 491.2526 315.2681
v -289.0548 492.0000 316.7892
v -281.4354 492.1989 326.8851
v -277.4181 491.6833 321.7399
v -289.0548 492.0000 316.7892
v -287.4943 492.6612 329.3252
v -281.4354 492.1989 326.8851
v -289.0548 492.0000 316.7892
v -293.9713 492.9463 328.4062
v -287.4943 492.6612 329.3252
v -289.0548 492.0000 316.7892
v -299.1310 492.9779 324.3745
v -293.9713 492.9463 328.4062
v -289.0548 492.0000 316.7892
v -301.5908 492.7474 318.3103
v -299.1310 492.9779 324.3745
v -289.0548 492.0000 316.7892
v -300.6915 492.3167 311.8385
v -301.5908 492.7474 318.3103
v -289.0548 492.0000 316.7892
v -296.6742 491.8011 306.6933
v -300.6915 492.3167 311.8385
v -289.0548 492.0000 316.7892
v -290.6153 491.3388 304.2532
v -296.6742 491.8011 306.6933
v -289.0548 492.0000 316.7892
v -284.1383 491.0537 305.1722
v -290.6153 491.3388 304.2532
v -289.0548 492.0000 316.7892
v -278.9786 491.0221 309.2039
v -284.1383 491.0537 305.1722
v -289.0548 492.0000 316.7892
v -276.5188 491.2526 315.2681
v -278.9786 491.0221 309.2039
v -289.0548 492.0000 316.7892
v 298.0468 228.2426 339.6041
v 276.5188 638.8526 315.2681
v 300.5066 228.0121 333.5399
v 276.5188 638.8526 315.2681
v 278.9786 638.6221 309.2039
v 300.5066 228.0121 333.5399
v 300.5066 228.0121 333.5399
v 278.9786 638.6221 309.2039
v 305.6663 228.0437 329.5082
v 278.9786 638.6221 309.2039
v 284.1383 638.6537 305.1722
v 305.6663 228.0437 329.5082
v 305.6663 228.0437 329.5082
v 284.1383 638.6537 305.1722
v 312.1433 228.3288 328.5892
v 284.1383 638.6537 305.1722
v 290.6153 638.9388 304.2532
v 312.1433 228.3288 328.5892
v 312.1433 228.3288 328.5892
v 290.6153 638.9388 304.2532
v 318.2022 228.7911 331.0293
v 290.6153 638.9388 304.2532
v 296.6742 639.4011 306.6933
v 318.2022 228.7911 331.0293
v 318.2022 228.7911 331.0293
v 296.6742 639.4011 306.6933
v 322.2195 229.3067 336.1745
v 296.6742 639.4011 306.6933
v 300.6915 639.9167 311.8385
v 322.2195 229.3067 336.1745
v 322.2195 229.3067 336.1745
v 300.6915 639.9167 311.8385
v 323.1188 229.7374 342.6463
v 300.6915 639.9167 311.8385
v 301.5908 640.3474 318.3103
v 323.1188 229.7374 342.6463
v 323.1188 229.7374 342.6463
v 301.5908 640.3474 318.3103
v 320.6590 229.9679 348.7105
v 301.5908 640.3474 318.3103
v 299.1310 640.5779 324.3745
v 320.6590 229.9679 348.7105
v 320.6590 229.9679 348.7105
v 299.1310 640.5779 324.3745
v 315.4993 229.9363 352.7422
v 299.1310 640.5779 324.3745
v 293.9713 640.5463 328.4062
v 315.4993 229.9363 352.7422
v 315.4993 229.9363 352.7422
v 293.9713 640.5463 328.4062
v 309.0223 229.6512 353.6612
v 293.9713 640.5463 328.4062
v 287.4943 640.2612 329.3252
v 309.0223 229.6512 353.6612
v 309.0223 229.6512 353.6612
v 287.4943 640.2612 329.3252
v 302.9634 229.1889 351.2211
v 287.4943 640.2612 329.3252
v 281.4354 639.7989 326.8851
v 302.9634 229.1889 351.2211
v 302.9634 229.1889 351.2211
v 281.4354 639.7989 326.8851
v 298.9461 228.6733 346.0759
v 281.4354 639.7989 326.8851
v 277.4181 639.2833 321.7399
v 298.9461 228.6733 346.0759
v 298.9461 228.6733 346.0759
v 277.4181 639.2833 321.7399
v 298.0468 228.2426 339.6041
v 277.4181 639.2833 321.7399
v 276.5188 638.8526 315.2681
v 298.0468 228.2426 339.6041
v 298.0468 228.2426 339.6041
v 300.5066 228.0121 333.5399
v 310.5828 228.9900 341.1252
v 300.5066 228.0121 333.5399
v 305.6663 228.0437 329.5082
v 310.5828 228.9900 341.1252
v 305.6663 228.0437 329.5082
v 312.1433 228.3288 328.5892
v 310.5828 228.9900 341.1252
v 312.1433 228.3288 328.5892
v 318.2022 228.7911 331.0293
v 310.5828 228.9900 341.1252
v 318.2022 228.7911 331.0293
v 322.2195 229.3067 336.1745
v 310.5828 228.9900 341.1252
v 322.2195 229.3067 336.1745
v 323.1188 229.7374 342.6463
v 310.5828 228.9900 341.1252
v 323.1188 229.7374 342.6463
v 320.6590 229.9679 348.7105
v 310.5828 228.9900 341.1252
v 320.6590 229.9679 348.7105
v 315.4993 229.9363 352.7422
v 310.5828 228.9900 341.1252
v 315.4993 229.9363 352.7422
v 309.0223 229.6512 353.6612
v 310.5828 228.9900 341.1252
v 309.0223 229.6512 353.6612
v 302.9634 229.1889 351.2211
v 310.5828 228.9900 341.1252
v 302.9634 229.1889 351.2211
v 298.9461 228.6733 346.0759
v 310.5828 228.9900 341.1252
v 298.9461 228.6733 346.0759
v 298.0468 228.2426 339.6041
v 310.5828 228.9900 341.1252
v 278.9786 638.6221 309.2039
v 276.5188 638.8526 315.2681
v 289.0548 639.6000 316.7892
v 284.1383 638.6537 305.1722
v 278.9786 638.6221 309.2039
v 289.0548 639.6000 316.7892
v 290.6153 638.9388 304.2532
v 284.1383 638.6537 305.1722
v 289.0548 639.6000 316.7892
v 296.6742 639.4011 306.6933
v 290.6153 638.9388 304.2532
v 289.0548 639.6000 316.7892
v 300.6915 639.9167 311.8385
v 296.6742 639.4011 306.6933
v 289.0548 639.6000 316.7892
v 301.5908 640.3474 318.3103
v 300.6915 639.9167 311.8385
v 289.0548 639.6000 316.7892
v 299.1310 640.5779 324.3745
v 301.5908 640.3474 318.3103
v 289.0548 639.6000 316.7892
v 293.9713 640.5463 328.4062
v 299.1310 640.5779 324.3745
v 289.0548 639.6000 316.7892
v 287.4943 640.2612 329.3252
v 293.9713 640.5463 328.4062
v 289.0548 639.6000 316.7892
v 281.4354 639.7989 326.8851
v 287.4943 640.2612 329.3252
v 289.0548 639.6000 316.7892
v 277.4181 639.2833 321.7399
v 281.4354 639.7989 326.8851
v 289.0548 639.6000 316.7892
v 276.5188 638.8526 315.2681
v 277.4181 639.2833 321.7399
v 289.0548 639.6000 316.7892
v 0.0000 223.9750 213.2000
v 0.0000 186.0250 213.2000
v 115.0000 223.9750 184.6366
v 0.0000 186.0250 213.2000
v 115.0000 186.0250 184.6366
v 115.0000 223.9750 184.6366
v 115.0000 223.9750 184.6366
v 115.0000 186.0250 184.6366
v 199.1858 223.9750 106.6000
v 115.0000 186.0250 184.6366
v 199.1858 186.0250 106.6000
v 199.1858 223.9750 106.6000
v 199.1858 223.9750 106.6000
v 199.1858 186.0250 106.6000
v 230.0000 223.9750 0.0000
v 199.1858 186.0250 106.6000
v 230.0000 186.0250 0.0000
v 230.0000 223.9750 0.0000
v 230.0000 223.9750 0.0000
v 230.0000 186.0250 0.0000
v 199.1858 223.9750 -106.6000
v 230.0000 186.0250 0.0000
v 199.1858 186.0250 -106.6000
v 199.1858 223.9750 -106.6000
v 199.1858 223.9750 -106.6000
v 199.1858 186.0250 -106.6000
v 115.0000 223.9750 -184.6366
v 199.1858 186.0250 -106.6000
v 115.0000 186.0250 -184.6366
v 115.0000 223.9750 -184.6366
v 115.0000 223.9750 -184.6366
v 115.0000 186.0250 -184.6366
v 0.0000 223.9750 -213.2000
v 115.0000 186.0250 -184.6366
v 0.0000 186.0250 -213.2000
v 0.0000 223.9750 -213.2000
v 0.0000 223.9750 -213.2000
v 0.0000 186.0250 -213.2000
v -115.0000 223.9750 -184.6366
v 0.0000 186.0250 -213.2000
v -115.0000 186.0250 -184.6366
v -115.0000 223.9750 -184.6366
v -115.0000 223.9750 -184.6366
v -115.0000 186.0250 -184.6366
v -199.1858 223.9750 -106.6000
v -115.0000 186.0250 -184.6366
v -199.1858 186.0250 -106.6000
v -199.1858 223.9750 -106.6000
v -199.1858 223.9750 -106.6000
v -199.1858 186.0250 -106.6000
v -230.0000 223.9750 -0.0000
v -199.1858 186.0250 -106.6000
v -230.0000 186.0250 -0.0000
v -230.0000 223.9750 -0.0000
v -230.0000 223.9750 -0.0000
v -230.0000 186.0250 -0.0000
v -199.1858 223.9750 106.6000
v -230.0000 186.0250 -0.0000
v -199.1858 186.0250 106.6000
v -199.1858 223.9750 106.6000
v -199.1858 223.9750 106.6000
v -199.1858 186.0250 106.6000
v -115.0000 223.9750 184.6366
v -199.1858 186.0250 106.6000
v -115.0000 186.0250 184.6366
v -115.0000 223.9750 184.6366
v -115.0000 223.9750 184.6366
v -115.0000 186.0250 184.6366
v -0.0000 223.9750 213.2000
v -115.0000 186.0250 184.6366
v -0.0000 186.0250 213.2000
v -0.0000 223.9750 213.2000
v 0.0000 223.9750 213.2000
v 115.0000 223.9750 184.6366
v 0.0000 223.9750 0.0000
v 115.0000 223.9750 184.6366
v 199.1858 223.9750 106.6000
v 0.0000 223.9750 0.0000
v 199.1858 223.9750 106.6000
v 230.0000 223.9750 0.0000
v 0.0000 223.9750 0.0000
v 230.0000 223.9750 0.0000
v 199.1858 223.9750 -106.6000
v 0.0000 223.9750 0.0000
v 199.1858 223.9750 -106.6000
v 115.0000 223.9750 -184.6366
v 0.0000 223.9750 0.0000
v 115.0000 223.9750 -184.6366
v 0.0000 223.9750 -213.2000
v 0.0000 223.9750 0.0000
v 0.0000 223.9750 -213.2000
v -115.0000 223.9750 -184.6366
v 0.0000 223.9750 0.0000
v -115.0000 223.9750 -184.6366
v -199.1858 223.9750 -106.6000
v 0.0000 223.9750 0.0000
v -199.1858 223.9750 -106.6000
v -230.0000 223.9750 -0.0000
v 0.0000 223.9750 0.0000
v -230.0000 223.9750 -0.0000
v -199.1858 223.9750 106.6000
v 0.0000 223.9750 0.0000
v -199.1858 223.9750 106.6000
v -115.0000 223.9750 184.6366
v 0.0000 223.9750 0.0000
v -115.0000 223.9750 184.6366
v -0.0000 223.9750 213.2000
v 0.0000 223.9750 0.0000
v 115.0000 186.0250 184.6366
v 0.0000 186.0250 213.2000
v 0.0000 186.0250 0.0000
v 199.1858 186.0250 106.6000
v 115.0000 186.0250 184.6366
v 0.0000 186.0250 0.0000
v 230.0000 186.0250 0.0000
v 199.1858 186.0250 106.6000
v 0.0000 186.0250 0.0000
v 199.1858 186.0250 -106.6000
v 230.0000 186.0250 0.0000
v 0.0000 186.0250 0.0000
v 115.0000 186.0250 -184.6366
v 199.1858 186.0250 -106.6000
v 0.0000 186.0250 0.0000
v 0.0000 186.0250 -213.2000
v 115.0000 186.0250 -184.6366
v 0.0000 186.0250 0.0000
v -115.0000 186.0250 -184.6366
v 0.0000 186.0250 -213.2000
v 0.0000 186.0250 0.0000
v -199.1858 186.0250 -106.6000
v -115.0000 186.0250 -184.6366
v 0.0000 186.0250 0.0000
v -230.0000 186.0250 -0.0000
v -199.1858 186.0250 -106.6000
v 0.0000 186.0250 0.0000
v -199.1858 186.0250 106.6000
v -230.0000 186.0250 -0.0000
v 0.0000 186.0250 0.0000
v -115.0000 186.0250 184.6366
v -199.1858 186.0250 106.6000
v 0.0000 186.0250 0.0000
v -0.0000 186.0250 213.2000
v -115.0000 186.0250 184.6366
v 0.0000 186.0250 0.0000
v 0.0000 623.2000 247.8300
v 0.0000 344.4000 247.8300
v 3.7950 623.2000 246.8131
v 0.0000 344.4000 247.8300
v 3.7950 344.4000 246.8131
v 3.7950 623.2000 246.8131
v 3.7950 623.2000 246.8131
v 3.7950 344.4000 246.8131
v 6.5731 623.2000 244.0350
v 3.7950 344.4000 246.8131
v 6.5731 344.4000 244.0350
v 6.5731 623.2000 244.0350
v 6.5731 623.2000 244.0350
v 6.5731 344.4000 244.0350
v 7.5900 623.2000 240.2400
v 6.5731 344.4000 244.0350
v 7.5900 344.4000 240.2400
v 7.5900 623.2000 240.2400
v 7.5900 623.2000 240.2400
v 7.5900 344.4000 240.2400
v 6.5731 623.2000 236.4450
v 7.5900 344.4000 240.2400
v 6.5731 344.4000 236.4450
v 6.5731 623.2000 236.4450
v 6.5731 623.2000 236.4450
v 6.5731 344.4000 236.4450
v 3.7950 623.2000 233.6669
v 6.5731 344.4000 236.4450
v 3.7950 344.4000 233.6669
v 3.7950 623.2000 233.6669
v 3.7950 623.2000 233.6669
v 3.7950 344.4000 233.6669
v 0.0000 623.2000 232.6500
v 3.7950 344.4000 233.6669
v 0.0000 344.4000 232.6500
v 0.0000 623.2000 232.6500
v 0.0000 623.2000 232.6500
v 0.0000 344.4000 232.6500
v -3.7950 623.2000 233.6669
v 0.0000 344.4000 232.6500
v -3.7950 344.4000 233.6669
v -3.7950 623.2000 233.6669
v -3.7950 623.2000 233.6669
v -3.7950 344.4000 233.6669
v -6.5731 623.2000 236.4450
v -3.7950 344.4000 233.6669
v -6.5731 344.4000 236.4450
v -6.5731 623.2000 236.4450
v -6.5731 623.2000 236.4450
v -6.5731 344.4000 236.4450
v -7.5900 623.2000 240.2400
v -6.5731 344.4000 236.4450
v -7.5900 344.4000 240.2400
v -7.5900 623.2000 240.2400
v -7.5900 623.2000 240.2400
v -7.5900 344.4000 240.2400
v -6.5731 623.2000 244.0350
v -7.5900 344.4000 240.2400
v -6.5731 344.4000 244.0350
v -6.5731 623.2000 244.0350
v -6.5731 623.2000 244.0350
v -6.5731 344.4000 244.0350
v -3.7950 623.2000 246.8131
v -6.5731 344.4000 244.0350
v -3.7950 344.4000 246.8131
v -3.7950 623.2000 246.8131
v -3.7950 623.2000 246.8131
v -3.7950 344.4000 246.8131
v -0.0000 623.2000 247.8300
v -3.7950 344.4000 246.8131
v -0.0000 344.4000 247.8300
v -0.0000 623.2000 247.8300
v 0.0000 623.2000 247.8300
v 3.7950 623.2000 246.8131
v 0.0000 623.2000 240.2400
v 3.7950 623.2000 246.8131
v 6.5731 623.2000 244.0350
v 0.0000 623.2000 240.2400
v 6.5731 623.2000 244.0350
v 7.5900 623.2000 240.2400
v 0.0000 623.2000 240.2400
v 7.5900 623.2000 240.2400
v 6.5731 623.2000 236.4450
v 0.0000 623.2000 240.2400
v 6.5731 623.2000 236.4450
v 3.7950 623.2000 233.6669
v 0.0000 623.2000 240.2400
v 3.7950 623.2000 233.6669
v 0.0000 623.2000 232.6500
v 0.0000 623.2000 240.2400
v 0.0000 623.2000 232.6500
v -3.7950 623.2000 233.6669
v 0.0000 623.2000 240.2400
v -3.7950 623.2000 233.6669
v -6.5731 623.2000 236.4450
v 0.0000 623.2000 240.2400
v -6.5731 623.2000 236.4450
v -7.5900 623.2000 240.2400
v 0.0000 623.2000 240.2400
v -7.5900 623.2000 240.2400
v -6.5731 623.2000 244.0350
v 0.0000 623.2000 240.2400
v -6.5731 623.2000 244.0350
v -3.7950 623.2000 246.8131
v 0.0000 623.2000 240.2400
v -3.7950 623.2000 246.8131
v -0.0000 623.2000 247.8300
v 0.0000 623.2000 240.2400
v 3.7950 344.4000 246.8131
v 0.0000 344.4000 247.8300
v 0.0000 344.4000 240.2400
v 6.5731 344.4000 244.0350
v 3.7950 344.4000 246.8131
v 0.0000 344.4000 240.2400
v 7.5900 344.4000 240.2400
v 6.5731 344.4000 244.0350
v 0.0000 344.4000 240.2400
v 6.5731 344.4000 236.4450
v 7.5900 344.4000 240.2400
v 0.0000 344.4000 240.2400
v 3.7950 344.4000 233.6669
v 6.5731 344.4000 236.4450
v 0.0000 344.4000 240.2400
v 0.0000 344.4000 232.6500
v 3.7950 344.4000 233.6669
v 0.0000 344.4000 240.2400
v -3.7950 344.4000 233.6669
v 0.0000 344.4000 232.6500
v 0.0000 344.4000 240.2400
v -6.5731 344.4000 236.4450
v -3.7950 344.4000 233.6669
v 0.0000 344.4000 240.2400
v -7.5900 344.4000 240.2400
v -6.5731 344.4000 236.4450
v 0.0000 344.4000 240.2400
v -6.5731 344.4000 244.0350
v -7.5900 344.4000 240.2400
v 0.0000 344.4000 240.2400
v -3.7950 344.4000 246.8131
v -6.5731 344.4000 244.0350
v 0.0000 344.4000 240.2400
v -0.0000 344.4000 247.8300
v -3.7950 344.4000 246.8131
v 0.0000 344.4000 240.2400
v 0.0000 598.6000 252.8900
v 0.0000 598.6000 227.5900
v 70.1500 617.2761 252.8900
v 0.0000 598.6000 227.5900
v 70.1500 617.2761 227.5900
v 70.1500 617.2761 252.8900
v 70.1500 617.2761 252.8900
v 70.1500 617.2761 227.5900
v 121.5034 668.3000 252.8900
v 70.1500 617.2761 227.5900
v 121.5034 668.3000 227.5900
v 121.5034 668.3000 252.8900
v 121.5034 668.3000 252.8900
v 121.5034 668.3000 227.5900
v 140.3000 738.0000 252.8900
v 121.5034 668.3000 227.5900
v 140.3000 738.0000 227.5900
v 140.3000 738.0000 252.8900
v 140.3000 738.0000 252.8900
v 140.3000 738.0000 227.5900
v 121.5034 807.7000 252.8900
v 140.3000 738.0000 227.5900
v 121.5034 807.7000 227.5900
v 121.5034 807.7000 252.8900
v 121.5034 807.7000 252.8900
v 121.5034 807.7000 227.5900
v 70.1500 858.7239 252.8900
v 121.5034 807.7000 227.5900
v 70.1500 858.7239 227.5900
v 70.1500 858.7239 252.8900
v 70.1500 858.7239 252.8900
v 70.1500 858.7239 227.5900
v 0.0000 877.4000 252.8900
v 70.1500 858.7239 227.5900
v 0.0000 877.4000 227.5900
v 0.0000 877.4000 252.8900
v 0.0000 877.4000 252.8900
v 0.0000 877.4000 227.5900
v -70.1500 858.7239 252.8900
v 0.0000 877.4000 227.5900
v -70.1500 858.7239 227.5900
v -70.1500 858.7239 252.8900
v -70.1500 858.7239 252.8900
v -70.1500 858.7239 227.5900
v -121.5034 807.7000 252.8900
v -70.1500 858.7239 227.5900
v -121.5034 807.7000 227.5900
v -121.5034 807.7000 252.8900
v -121.5034 807.7000 252.8900
v -121.5034 807.7000 227.5900
v -140.3000 738.0000 252.8900
v -121.5034 807.7000 227.5900
v -140.3000 738.0000 227.5900
v -140.3000 738.0000 252.8900
v -140.3000 738.0000 252.8900
v -140.3000 738.0000 227.5900
v -121.5034 668.3000 252.8900
v -140.3000 738.0000 227.5900
v -121.5034 668.3000 227.5900
v -121.5034 668.3000 252.8900
v -121.5034 668.3000 252.8900
v -121.5034 668.3000 227.5900
v -70.1500 617.2761 252.8900
v -121.5034 668.3000 227.5900
v -70.1500 617.2761 227.5900
v -70.1500 617.2761 252.8900
v -70.1500 617.2761 252.8900
v -70.1500 617.2761 227.5900
v -0.0000 598.6000 252.8900
v -70.1500 617.2761 227.5900
v -0.0000 598.6000 227.5900
v -0.0000 598.6000 252.8900
v 0.0000 598.6000 252.8900
v 70.1500 617.2761 252.8900
v 0.0000 738.0000 252.8900
v 70.1500 617.2761 252.8900
v 121.5034 668.3000 252.8900
v 0.0000 738.0000 252.8900
v 121.5034 668.3000 252.8900
v 140.3000 738.0000 252.8900
v 0.0000 738.0000 252.8900
v 140.3000 738.0000 252.8900
v 121.5034 807.7000 252.8900
v 0.0000 738.0000 252.8900
v 121.5034 807.7000 252.8900
v 70.1500 858.7239 252.8900
v 0.0000 738.0000 252.8900
v 70.1500 858.7239 252.8900
v 0.0000 877.4000 252.8900
v 0.0000 738.0000 252.8900
v 0.0000 877.4000 252.8900
v -70.1500 858.7239 252.8900
v 0.0000 738.0000 252.8900
v -70.1500 858.7239 252.8900
v -121.5034 807.7000 252.8900
v 0.0000 738.0000 252.8900
v -121.5034 807.7000 252.8900
v -140.3000 738.0000 252.8900
v 0.0000 738.0000 252.8900
v -140.3000 738.0000 252.8900
v -121.5034 668.3000 252.8900
v 0.0000 738.0000 252.8900
v -121.5034 668.3000 252.8900
v -70.1500 617.2761 252.8900
v 0.0000 738.0000 252.8900
v -70.1500 617.2761 252.8900
v -0.0000 598.6000 252.8900
v 0.0000 738.0000 252.8900
v 70.1500 617.2761 227.5900
v 0.0000 598.6000 227.5900
v 0.0000 738.0000 227.5900
v 121.5034 668.3000 227.5900
v 70.1500 617.2761 227.5900
v 0.0000 738.0000 227.5900
v 140.3000 738.0000 227.5900
v 121.5034 668.3000 227.5900
v 0.0000 738.0000 227.5900
v 121.5034 807.7000 227.5900
v 140.3000 738.0000 227.5900
v 0.0000 738.0000 227.5900
v 70.1500 858.7239 227.5900
v 121.5034 807.7000 227.5900
v 0.0000 738.0000 227.5900
v 0.0000 877.4000 227.5900
v 70.1500 858.7239 227.5900
v 0.0000 738.0000 227.5900
v -70.1500 858.7239 227.5900
v 0.0000 877.4000 227.5900
v 0.0000 738.0000 227.5900
v -121.5034 807.7000 227.5900
v -70.1500 858.7239 227.5900
v 0.0000 738.0000 227.5900
v -140.3000 738.0000 227.5900
v -121.5034 807.7000 227.5900
v 0.0000 738.0000 227.5900
v -121.5034 668.3000 227.5900
v -140.3000 738.0000 227.5900
v 0.0000 738.0000 227.5900
v -70.1500 617.2761 227.5900
v -121.5034 668.3000 227.5900
v 0.0000 738.0000 227.5900
v -0.0000 598.6000 227.5900
v -70.1500 617.2761 227.5900
v 0.0000 738.0000 227.5900
v -297.1600 943.7000 240.2400
v -306.8419 941.7742 240.2400
v -305.5448 941.7742 245.0809
v -297.1600 943.7000 240.2400
v -305.5448 941.7742 245.0809
v -302.0009 941.7742 248.6248
v -297.1600 943.7000 240.2400
v -302.0009 941.7742 248.6248
v -297.1600 941.7742 249.9219
v -297.1600 943.7000 240.2400
v -297.1600 941.7742 249.9219
v -292.3191 941.7742 248.6248
v -297.1600 943.7000 240.2400
v -292.3191 941.7742 248.6248
v -288.7752 941.7742 245.0809
v -297.1600 943.7000 240.2400
v -288.7752 941.7742 245.0809
v -287.4781 941.7742 240.2400
v -297.1600 943.7000 240.2400
v -287.4781 941.7742 240.2400
v -288.7752 941.7742 235.3991
v -297.1600 943.7000 240.2400
v -288.7752 941.7742 235.3991
v -292.3191 941.7742 231.8552
v -297.1600 943.7000 240.2400
v -292.3191 941.7742 231.8552
v -297.1600 941.7742 230.5581
v -297.1600 943.7000 240.2400
v -297.1600 941.7742 230.5581
v -302.0009 941.7742 231.8552
v -297.1600 943.7000 240.2400
v -302.0009 941.7742 231.8552
v -305.5448 941.7742 235.3991
v -297.1600 943.7000 240.2400
v -305.5448 941.7742 235.3991
v -306.8419 941.7742 240.2400
v -305.5448 941.7742 245.0809
v -306.8419 941.7742 240.2400
v -312.6530 936.2898 249.1849
v -306.8419 941.7742 240.2400
v -315.0498 936.2898 240.2400
v -312.6530 936.2898 249.1849
v -302.0009 941.7742 248.6248
v -305.5448 941.7742 245.0809
v -306.1049 936.2898 255.7330
v -305.5448 941.7742 245.0809
v -312.6530 936.2898 249.1849
v -306.1049 936.2898 255.7330
v -297.1600 941.7742 249.9219
v -302.0009 941.7742 248.6248
v -297.1600 936.2898 258.1298
v -302.0009 941.7742 248.6248
v -306.1049 936.2898 255.7330
v -297.1600 936.2898 258.1298
v -292.3191 941.7742 248.6248
v -297.1600 941.7742 249.9219
v -288.2151 936.2898 255.7330
v -297.1600 941.7742 249.9219
v -297.1600 936.2898 258.1298
v -288.2151 936.2898 255.7330
v -288.7752 941.7742 245.0809
v -292.3191 941.7742 248.6248
v -281.6670 936.2898 249.1849
v -292.3191 941.7742 248.6248
v -288.2151 936.2898 255.7330
v -281.6670 936.2898 249.1849
v -287.4781 941.7742 240.2400
v -288.7752 941.7742 245.0809
v -279.2702 936.2898 240.2400
v -288.7752 941.7742 245.0809
v -281.6670 936.2898 249.1849
v -279.2702 936.2898 240.2400
v -288.7752 941.7742 235.3991
v -287.4781 941.7742 240.2400
v -281.6670 936.2898 231.2951
v -287.4781 941.7742 240.2400
v -279.2702 936.2898 240.2400
v -281.6670 936.2898 231.2951
v -292.3191 941.7742 231.8552
v -288.7752 941.7742 235.3991
v -288.2151 936.2898 224.7470
v -288.7752 941.7742 235.3991
v -281.6670 936.2898 231.2951
v -288.2151 936.2898 224.7470
v -297.1600 941.7742 230.5581
v -292.3191 941.7742 231.8552
v -297.1600 936.2898 222.3502
v -292.3191 941.7742 231.8552
v -288.2151 936.2898 224.7470
v -297.1600 936.2898 222.3502
v -302.0009 941.7742 231.8552
v -297.1600 941.7742 230.5581
v -306.1049 936.2898 224.7470
v -297.1600 941.7742 230.5581
v -297.1600 936.2898 222.3502
v -306.1049 936.2898 224.7470
v -305.5448 941.7742 235.3991
v -302.0009 941.7742 231.8552
v -312.6530 936.2898 231.2951
v -302.0009 941.7742 231.8552
v -306.1049 936.2898 224.7470
v -312.6530 936.2898 231.2951
v -306.8419 941.7742 240.2400
v -305.5448 941.7742 235.3991
v -315.0498 936.2898 240.2400
v -305.5448 941.7742 235.3991
v -312.6530 936.2898 231.2951
v -315.0498 936.2898 240.2400
v -312.6530 936.2898 249.1849
v -315.0498 936.2898 240.2400
v -317.4026 928.0819 251.9271
v -315.0498 936.2898 240.2400
v -320.5342 928.0819 240.2400
v -317.4026 928.0819 251.9271
v -306.1049 936.2898 255.7330
v -312.6530 936.2898 249.1849
v -308.8471 928.0819 260.4826
v -312.6530 936.2898 249.1849
v -317.4026 928.0819 251.9271
v -308.8471 928.0819 260.4826
v -297.1600 936.2898 258.1298
v -306.1049 936.2898 255.7330
v -297.1600 928.0819 263.6142
v -306.1049 936.2898 255.7330
v -308.8471 928.0819 260.4826
v -297.1600 928.0819 263.6142
v -288.2151 936.2898 255.7330
v -297.1600 936.2898 258.1298
v -285.4729 928.0819 260.4826
v -297.1600 936.2898 258.1298
v -297.1600 928.0819 263.6142
v -285.4729 928.0819 260.4826
v -281.6670 936.2898 249.1849
v -288.2151 936.2898 255.7330
v -276.9174 928.0819 251.9271
v -288.2151 936.2898 255.7330
v -285.4729 928.0819 260.4826
v -276.9174 928.0819 251.9271
v -279.2702 936.2898 240.2400
v -281.6670 936.2898 249.1849
v -273.7858 928.0819 240.2400
v -281.6670 936.2898 249.1849
v -276.9174 928.0819 251.9271
v -273.7858 928.0819 240.2400
v -281.6670 936.2898 231.2951
v -279.2702 936.2898 240.2400
v -276.9174 928.0819 228.5529
v -279.2702 936.2898 240.2400
v -273.7858 928.0819 240.2400
v -276.9174 928.0819 228.5529
v -288.2151 936.2898 224.7470
v -281.6670 936.2898 231.2951
v -285.4729 928.0819 219.9974
v -281.6670 936.2898 231.2951
v -276.9174 928.0819 228.5529
v -285.4729 928.0819 219.9974
v -297.1600 936.2898 222.3502
v -288.2151 936.2898 224.7470
v -297.1600 928.0819 216.8658
v -288.2151 936.2898 224.7470
v -285.4729 928.0819 219.9974
v -297.1600 928.0819 216.8658
v -306.1049 936.2898 224.7470
v -297.1600 936.2898 222.3502
v -308.8471 928.0819 219.9974
v -297.1600 936.2898 222.3502
v -297.1600 928.0819 216.8658
v -308.8471 928.0819 219.9974
v -312.6530 936.2898 231.2951
v -306.1049 936.2898 224.7470
v -317.4026 928.0819 228.5529
v -306.1049 936.2898 224.7470
v -308.8471 928.0819 219.9974
v -317.4026 928.0819 228.5529
v -315.0498 936.2898 240.2400
v -312.6530 936.2898 231.2951
v -320.5342 928.0819 240.2400
v -312.6530 936.2898 231.2951
v -317.4026 928.0819 228.5529
v -320.5342 928.0819 240.2400
v -317.4026 928.0819 251.9271
v -320.5342 928.0819 240.2400
v -319.0704 918.4000 252.8900
v -320.5342 928.0819 240.2400
v -322.4600 918.4000 240.2400
v -319.0704 918.4000 252.8900
v -308.8471 928.0819 260.4826
v -317.4026 928.0819 251.9271
v -309.8100 918.4000 262.1504
v -317.4026 928.0819 251.9271
v -319.0704 918.4000 252.8900
v -309.8100 918.4000 262.1504
v -297.1600 928.0819 263.6142
v -308.8471 928.0819 260.4826
v -297.1600 918.4000 265.5400
v -308.8471 928.0819 260.4826
v -309.8100 918.4000 262.1504
v -297.1600 918.4000 265.5400
v -285.4729 928.0819 260.4826
v -297.1600 928.0819 263.6142
v -284.5100 918.4000 262.1504
v -297.1600 928.0819 263.6142
v -297.1600 918.4000 265.5400
v -284.5100 918.4000 262.1504
v -276.9174 928.0819 251.9271
v -285.4729 928.0819 260.4826
v -275.2496 918.4000 252.8900
v -285.4729 928.0819 260.4826
v -284.5100 918.4000 262.1504
v -275.2496 918.4000 252.8900
v -273.7858 928.0819 240.2400
v -276.9174 928.0819 251.9271
v -271.8600 918.4000 240.2400
v -276.9174 928.0819 251.9271
v -275.2496 918.4000 252.8900
v -271.8600 918.4000 240.2400
v -276.9174 928.0819 228.5529
v -273.7858 928.0819 240.2400
v -275.2496 918.4000 227.5900
v -273.7858 928.0819 240.2400
v -271.8600 918.4000 240.2400
v -275.2496 918.4000 227.5900
v -285.4729 928.0819 219.9974
v -276.9174 928.0819 228.5529
v -284.5100 918.4000 218.3296
v -276.9174 928.0819 228.5529
v -275.2496 918.4000 227.5900
v -284.5100 918.4000 218.3296
v -297.1600 928.0819 216.8658
v -285.4729 928.0819 219.9974
v -297.1600 918.4000 214.9400
v -285.4729 928.0819 219.9974
v -284.5100 918.4000 218.3296
v -297.1600 918.4000 214.9400
v -308.8471 928.0819 219.9974
v -297.1600 928.0819 216.8658
v -309.8100 918.4000 218.3296
v -297.1600 928.0819 216.8658
v -297.1600 918.4000 214.9400
v -309.8100 918.4000 218.3296
v -317.4026 928.0819 228.5529
v -308.8471 928.0819 219.9974
v -319.0704 918.4000 227.5900
v -308.8471 928.0819 219.9974
v -309.8100 918.4000 218.3296
v -319.0704 918.4000 227.5900
v -320.5342 928.0819 240.2400
v -317.4026 928.0819 228.5529
v -322.4600 918.4000 240.2400
v -317.4026 928.0819 228.5529
v -319.0704 918.4000 227.5900
v -322.4600 918.4000 240.2400
v -319.0704 918.4000 252.8900
v -322.4600 918.4000 240.2400
v -317.4026 908.7181 251.9271
v -322.4600 918.4000 240.2400
v -320.5342 908.7181 240.2400
v -317.4026 908.7181 251.9271
v -309.8100 918.4000 262.1504
v -319.0704 918.4000 252.8900
v -308.8471 908.7181 260.4826
v -319.0704 918.4000 252.8900
v -317.4026 908.7181 251.9271
v -308.8471 908.7181 260.4826
v -297.1600 918.4000 265.5400
v -309.8100 918.4000 262.1504
v -297.1600 908.7181 263.6142
v -309.8100 918.4000 262.1504
v -308.8471 908.7181 260.4826
v -297.1600 908.7181 263.6142
v -284.5100 918.4000 262.1504
v -297.1600 918.4000 265.5400
v -285.4729 908.7181 260.4826
v -297.1600 918.4000 265.5400
v -297.1600 908.7181 263.6142
v -285.4729 908.7181 260.4826
v -275.2496 918.4000 252.8900
v -284.5100 918.4000 262.1504
v -276.9174 908.7181 251.9271
v -284.5100 918.4000 262.1504
v -285.4729 908.7181 260.4826
v -276.9174 908.7181 251.9271
v -271.8600 918.4000 240.2400
v -275.2496 918.4000 252.8900
v -273.7858 908.7181 240.2400
v -275.2496 918.4000 252.8900
v -276.9174 908.7181 251.9271
v -273.7858 908.7181 240.2400
v -275.2496 918.4000 227.5900
v -271.8600 918.4000 240.2400
v -276.9174 908.7181 228.5529
v -271.8600 918.4000 240.2400
v -273.7858 908.7181 240.2400
v -276.9174 908.7181 228.5529
v -284.5100 918.4000 218.3296
v -275.2496 918.4000 227.5900
v -285.4729 908.7181 219.9974
v -275.2496 918.4000 227.5900
v -276.9174 908.7181 228.5529
v -285.4729 908.7181 219.9974
v -297.1600 918.4000 214.9400
v -284.5100 918.4000 218.3296
v -297.1600 908.7181 216.8658
v -284.5100 918.4000 218.3296
v -285.4729 908.7181 219.9974
v -297.1600 908.7181 216.8658
v -309.8100 918.4000 218.3296
v -297.1600 918.4000 214.9400
v -308.8471 908.7181 219.9974
v -297.1600 918.4000 214.9400
v -297.1600 908.7181 216.8658
v -308.8471 908.7181 219.9974
v -319.0704 918.4000 227.5900
v -309.8100 918.4000 218.3296
v -317.4026 908.7181 228.5529
v -309.8100 918.4000 218.3296
v -308.8471 908.7181 219.9974
v -317.4026 908.7181 228.5529
v -322.4600 918.4000 240.2400
v -319.0704 918.4000 227.5900
v -320.5342 908.7181 240.2400
v -319.0704 918.4000 227.5900
v -317.4026 908.7181 228.5529
v -320.5342 908.7181 240.2400
v -317.4026 908.7181 251.9271
v -320.5342 908.7181 240.2400
v -312.6530 900.5102 249.1849
v -320.5342 908.7181 240.2400
v -315.0498 900.5102 240.2400
v -312.6530 900.5102 249.1849
v -308.8471 908.7181 260.4826
v -317.4026 908.7181 251.9271
v -306.1049 900.5102 255.7330
v -317.4026 908.7181 251.9271
v -312.6530 900.5102 249.1849
v -306.1049 900.5102 255.7330
v -297.1600 908.7181 263.6142
v -308.8471 908.7181 260.4826
v -297.1600 900.5102 258.1298
v -308.8471 908.7181 260.4826
v -306.1049 900.5102 255.7330
v -297.1600 900.5102 258.1298
v -285.4729 908.7181 260.4826
v -297.1600 908.7181 263.6142
v -288.2151 900.5102 255.7330
v -297.1600 908.7181 263.6142
v -297.1600 900.5102 258.1298
v -288.2151 900.5102 255.7330
v -276.9174 908.7181 251.9271
v -285.4729 908.7181 260.4826
v -281.6670 900.5102 249.1849
v -285.4729 908.7181 260.4826
v -288.2151 900.5102 255.7330
v -281.6670 900.5102 249.1849
v -273.7858 908.7181 240.2400
v -276.9174 908.7181 251.9271
v -279.2702 900.5102 240.2400
v -276.9174 908.7181 251.9271
v -281.6670 900.5102 249.1849
v -279.2702 900.5102 240.2400
v -276.9174 908.7181 228.5529
v -273.7858 908.7181 240.2400
v -281.6670 900.5102 231.2951
v -273.7858 908.7181 240.2400
v -279.2702 900.5102 240.2400
v -281.6670 900.5102 231.2951
v -285.4729 908.7181 219.9974
v -276.9174 908.7181 228.5529
v -288.2151 900.5102 224.7470
v -276.9174 908.7181 228.5529
v -281.6670 900.5102 231.2951
v -288.2151 900.5102 224.7470
v -297.1600 908.7181 216.8658
v -285.4729 908.7181 219.9974
v -297.1600 900.5102 222.3502
v -285.4729 908.7181 219.9974
v -288.2151 900.5102 224.7470
v -297.1600 900.5102 222.3502
v -308.8471 908.7181 219.9974
v -297.1600 908.7181 216.8658
v -306.1049 900.5102 224.7470
v -297.1600 908.7181 216.8658
v -297.1600 900.5102 222.3502
v -306.1049 900.5102 224.7470
v -317.4026 908.7181 228.5529
v -308.8471 908.7181 219.9974
v -312.6530 900.5102 231.2951
v -308.8471 908.7181 219.9974
v -306.1049 900.5102 224.7470
v -312.6530 900.5102 231.2951
v -320.5342 908.7181 240.2400
v -317.4026 908.7181 228.5529
v -315.0498 900.5102 240.2400
v -317.4026 908.7181 228.5529
v -312.6530 900.5102 231.2951
v -315.0498 900.5102 240.2400
v -312.6530 900.5102 249.1849
v -315.0498 900.5102 240.2400
v -305.5448 895.0258 245.0809
v -315.0498 900.5102 240.2400
v -306.8419 895.0258 240.2400
v -305.5448 895.0258 245.0809
v -306.1049 900.5102 255.7330
v -312.6530 900.5102 249.1849
v -302.0009 895.0258 248.6248
v -312.6530 900.5102 249.1849
v -305.5448 895.0258 245.0809
v -302.0009 895.0258 248.6248
v -297.1600 900.5102 258.1298
v -306.1049 900.5102 255.7330
v -297.1600 895.0258 249.9219
v -306.1049 900.5102 255.7330
v -302.0009 895.0258 248.6248
v -297.1600 895.0258 249.9219
v -288.2151 900.5102 255.7330
v -297.1600 900.5102 258.1298
v -292.3191 895.0258 248.6248
v -297.1600 900.5102 258.1298
v -297.1600 895.0258 249.9219
v -292.3191 895.0258 248.6248
v -281.6670 900.5102 249.1849
v -288.2151 900.5102 255.7330
v -288.7752 895.0258 245.0809
v -288.2151 900.5102 255.7330
v -292.3191 895.0258 248.6248
v -288.7752 895.0258 245.0809
v -279.2702 900.5102 240.2400
v -281.6670 900.5102 249.1849
v -287.4781 895.0258 240.2400
v -281.6670 900.5102 249.1849
v -288.7752 895.0258 245.0809
v -287.4781 895.0258 240.2400
v -281.6670 900.5102 231.2951
v -279.2702 900.5102 240.2400
v -288.7752 895.0258 235.3991
v -279.2702 900.5102 240.2400
v -287.4781 895.0258 240.2400
v -288.7752 895.0258 235.3991
v -288.2151 900.5102 224.7470
v -281.6670 900.5102 231.2951
v -292.3191 895.0258 231.8552
v -281.6670 900.5102 231.2951
v -288.7752 895.0258 235.3991
v -292.3191 895.0258 231.8552
v -297.1600 900.5102 222.3502
v -288.2151 900.5102 224.7470
v -297.1600 895.0258 230.5581
v -288.2151 900.5102 224.7470
v -292.3191 895.0258 231.8552
v -297.1600 895.0258 230.5581
v -306.1049 900.5102 224.7470
v -297.1600 900.5102 222.3502
v -302.0009 895.0258 231.8552
v -297.1600 900.5102 222.3502
v -297.1600 895.0258 230.5581
v -302.0009 895.0258 231.8552
v -312.6530 900.5102 231.2951
v -306.1049 900.5102 224.7470
v -305.5448 895.0258 235.3991
v -306.1049 900.5102 224.7470
v -302.0009 895.0258 231.8552
v -305.5448 895.0258 235.3991
v -315.0498 900.5102 240.2400
v -312.6530 900.5102 231.2951
v -306.8419 895.0258 240.2400
v -312.6530 900.5102 231.2951
v -305.5448 895.0258 235.3991
v -306.8419 895.0258 240.2400
v -305.5448 895.0258 245.0809
v -306.8419 895.0258 240.2400
v -297.1600 893.1000 240.2400
v -302.0009 895.0258 248.6248
v -305.5448 895.0258 245.0809
v -297.1600 893.1000 240.2400
v -297.1600 895.0258 249.9219
v -302.0009 895.0258 248.6248
v -297.1600 893.1000 240.2400
v -292.3191 895.0258 248.6248
v -297.1600 895.0258 249.9219
v -297.1600 893.1000 240.2400
v -288.7752 895.0258 245.0809
v -292.3191 895.0258 248.6248
v -297.1600 893.1000 240.2400
v -287.4781 895.0258 240.2400
v -288.7752 895.0258 245.0809
v -297.1600 893.1000 240.2400
v -288.7752 895.0258 235.3991
v -287.4781 895.0258 240.2400
v -297.1600 893.1000 240.2400
v -292.3191 895.0258 231.8552
v -288.7752 895.0258 235.3991
v -297.1600 893.1000 240.2400
v -297.1600 895.0258 230.5581
v -292.3191 895.0258 231.8552
v -297.1600 893.1000 240.2400
v -302.0009 895.0258 231.8552
v -297.1600 895.0258 230.5581
v -297.1600 893.1000 240.2400
v -305.5448 895.0258 235.3991
v -302.0009 895.0258 231.8552
v -297.1600 893.1000 240.2400
v -306.8419 895.0258 240.2400
v -305.5448 895.0258 235.3991
v -297.1600 893.1000 240.2400
v 297.1600 500.9000 240.2400
v 287.4781 498.9742 240.2400
v 288.7752 498.9742 245.0809
v 297.1600 500.9000 240.2400
v 288.7752 498.9742 245.0809
v 292.3191 498.9742 248.6248
v 297.1600 500.9000 240.2400
v 292.3191 498.9742 248.6248
v 297.1600 498.9742 249.9219
v 297.1600 500.9000 240.2400
v 297.1600 498.9742 249.9219
v 302.0009 498.9742 248.6248
v 297.1600 500.9000 240.2400
v 302.0009 498.9742 248.6248
v 305.5448 498.9742 245.0809
v 297.1600 500.9000 240.2400
v 305.5448 498.9742 245.0809
v 306.8419 498.9742 240.2400
v 297.1600 500.9000 240.2400
v 306.8419 498.9742 240.2400
v 305.5448 498.9742 235.3991
v 297.1600 500.9000 240.2400
v 305.5448 498.9742 235.3991
v 302.0009 498.9742 231.8552
v 297.1600 500.9000 240.2400
v 302.0009 498.9742 231.8552
v 297.1600 498.9742 230.5581
v 297.1600 500.9000 240.2400
v 297.1600 498.9742 230.5581
v 292.3191 498.9742 231.8552
v 297.1600 500.9000 240.2400
v 292.3191 498.9742 231.8552
v 288.7752 498.9742 235.3991
v 297.1600 500.9000 240.2400
v 288.7752 498.9742 235.3991
v 287.4781 498.9742 240.2400
v 288.7752 498.9742 245.0809
v 287.4781 498.9742 240.2400
v 281.6670 493.4898 249.1849
v 287.4781 498.9742 240.2400
v 279.2702 493.4898 240.2400
v 281.6670 493.4898 249.1849
v 292.3191 498.9742 248.6248
v 288.7752 498.9742 245.0809
v 288.2151 493.4898 255.7330
v 288.7752 498.9742 245.0809
v 281.6670 493.4898 249.1849
v 288.2151 493.4898 255.7330
v 297.1600 498.9742 249.9219
v 292.3191 498.9742 248.6248
v 297.1600 493.4898 258.1298
v 292.3191 498.9742 248.6248
v 288.2151 493.4898 255.7330
v 297.1600 493.4898 258.1298
v 302.0009 498.9742 248.6248
v 297.1600 498.9742 249.9219
v 306.1049 493.4898 255.7330
v 297.1600 498.9742 249.9219
v 297.1600 493.4898 258.1298
v 306.1049 493.4898 255.7330
v 305.5448 498.9742 245.0809
v 302.0009 498.9742 248.6248
v 312.6530 493.4898 249.1849
v 302.0009 498.9742 248.6248
v 306.1049 493.4898 255.7330
v 312.6530 493.4898 249.1849
v 306.8419 498.9742 240.2400
v 305.5448 498.9742 245.0809
v 315.0498 493.4898 240.2400
v 305.5448 498.9742 245.0809
v 312.6530 493.4898 249.1849
v 315.0498 493.4898 240.2400
v 305.5448 498.9742 235.3991
v 306.8419 498.9742 240.2400
v 312.6530 493.4898 231.2951
v 306.8419 498.9742 240.2400
v 315.0498 493.4898 240.2400
v 312.6530 493.4898 231.2951
v 302.0009 498.9742 231.8552
v 305.5448 498.9742 235.3991
v 306.1049 493.4898 224.7470
v 305.5448 498.9742 235.3991
v 312.6530 493.4898 231.2951
v 306.1049 493.4898 224.7470
v 297.1600 498.9742 230.5581
v 302.0009 498.9742 231.8552
v 297.1600 493.4898 222.3502
v 302.0009 498.9742 231.8552
v 306.1049 493.4898 224.7470
v 297.1600 493.4898 222.3502
v 292.3191 498.9742 231.8552
v 297.1600 498.9742 230.5581
v 288.2151 493.4898 224.7470
v 297.1600 498.9742 230.5581
v 297.1600 493.4898 222.3502
v 288.2151 493.4898 224.7470
v 288.7752 498.9742 235.3991
v 292.3191 498.9742 231.8552
v 281.6670 493.4898 231.2951
v 292.3191 498.9742 231.8552
v 288.2151 493.4898 224.7470
v 281.6670 493.4898 231.2951
v 287.4781 498.9742 240.2400
v 288.7752 498.9742 235.3991
v 279.2702 493.4898 240.2400
v 288.7752 498.9742 235.3991
v 281.6670 493.4898 231.2951
v 279.2702 493.4898 240.2400
v 281.6670 493.4898 249.1849
v 279.2702 493.4898 240.2400
v 276.9174 485.2819 251.9271
v 279.2702 493.4898 240.2400
v 273.7858 485.2819 240.2400
v 276.9174 485.2819 251.9271
v 288.2151 493.4898 255.7330
v 281.6670 493.4898 249.1849
v 285.4729 485.2819 260.4826
v 281.6670 493.4898 249.1849
v 276.9174 485.2819 251.9271
v 285.4729 485.2819 260.4826
v 297.1600 493.4898 258.1298
v 288.2151 493.4898 255.7330
v 297.1600 485.2819 263.6142
v 288.2151 493.4898 255.7330
v 285.4729 485.2819 260.4826
v 297.1600 485.2819 263.6142
v 306.1049 493.4898 255.7330
v 297.1600 493.4898 258.1298
v 308.8471 485.2819 260.4826
v 297.1600 493.4898 258.1298
v 297.1600 485.2819 263.6142
v 308.8471 485.2819 260.4826
v 312.6530 493.4898 249.1849
v 306.1049 493.4898 255.7330
v 317.4026 485.2819 251.9271
v 306.1049 493.4898 255.7330
v 308.8471 485.2819 260.4826
v 317.4026 485.2819 251.9271
v 315.0498 493.4898 240.2400
v 312.6530 493.4898 249.1849
v 320.5342 485.2819 240.2400
v 312.6530 493.4898 249.1849
v 317.4026 485.2819 251.9271
v 320.5342 485.2819 240.2400
v 312.6530 493.4898 231.2951
v 315.0498 493.4898 240.2400
v 317.4026 485.2819 228.5529
v 315.0498 493.4898 240.2400
v 320.5342 485.2819 240.2400
v 317.4026 485.2819 228.5529
v 306.1049 493.4898 224.7470
v 312.6530 493.4898 231.2951
v 308.8471 485.2819 219.9974
v 312.6530 493.4898 231.2951
v 317.4026 485.2819 228.5529
v 308.8471 485.2819 219.9974
v 297.1600 493.4898 222.3502
v 306.1049 493.4898 224.7470
v 297.1600 485.2819 216.8658
v 306.1049 493.4898 224.7470
v 308.8471 485.2819 219.9974
v 297.1600 485.2819 216.8658
v 288.2151 493.4898 224.7470
v 297.1600 493.4898 222.3502
v 285.4729 485.2819 219.9974
v 297.1600 493.4898 222.3502
v 297.1600 485.2819 216.8658
v 285.4729 485.2819 219.9974
v 281.6670 493.4898 231.2951
v 288.2151 493.4898 224.7470
v 276.9174 485.2819 228.5529
v 288.2151 493.4898 224.7470
v 285.4729 485.2819 219.9974
v 276.9174 485.2819 228.5529
v 279.2702 493.4898 240.2400
v 281.6670 493.4898 231.2951
v 273.7858 485.2819 240.2400
v 281.6670 493.4898 231.2951
v 276.9174 485.2819 228.5529
v 273.7858 485.2819 240.2400
v 276.9174 485.2819 251.9271
v 273.7858 485.2819 240.2400
v 275.2496 475.6000 252.8900
v 273.7858 485.2819 240.2400
v 271.8600 475.6000 240.2400
v 275.2496 475.6000 252.8900
v 285.4729 485.2819 260.4826
v 276.9174 485.2819 251.9271
v 284.5100 475.6000 262.1504
v 276.9174 485.2819 251.9271
v 275.2496 475.6000 252.8900
v 284.5100 475.6000 262.1504
v 297.1600 485.2819 263.6142
v 285.4729 485.2819 260.4826
v 297.1600 475.6000 265.5400
v 285.4729 485.2819 260.4826
v 284.5100 475.6000 262.1504
v 297.1600 475.6000 265.5400
v 308.8471 485.2819 260.4826
v 297.1600 485.2819 263.6142
v 309.8100 475.6000 262.1504
v 297.1600 485.2819 263.6142
v 297.1600 475.6000 265.5400
v 309.8100 475.6000 262.1504
v 317.4026 485.2819 251.9271
v 308.8471 485.2819 260.4826
v 319.0704 475.6000 252.8900
v 308.8471 485.2819 260.4826
v 309.8100 475.6000 262.1504
v 319.0704 475.6000 252.8900
v 320.5342 485.2819 240.2400
v 317.4026 485.2819 251.9271
v 322.4600 475.6000 240.2400
v 317.4026 485.2819 251.9271
v 319.0704 475.6000 252.8900
v 322.4600 475.6000 240.2400
v 317.4026 485.2819 228.5529
v 320.5342 485.2819 240.2400
v 319.0704 475.6000 227.5900
v 320.5342 485.2819 240.2400
v 322.4600 475.6000 240.2400
v 319.0704 475.6000 227.5900
v 308.8471 485.2819 219.9974
v 317.4026 485.2819 228.5529
v 309.8100 475.6000 218.3296
v 317.4026 485.2819 228.5529
v 319.0704 475.6000 227.5900
v 309.8100 475.6000 218.3296
v 297.1600 485.2819 216.8658
v 308.8471 485.2819 219.9974
v 297.1600 475.6000 214.9400
v 308.8471 485.2819 219.9974
v 309.8100 475.6000 218.3296
v 297.1600 475.6000 214.9400
v 285.4729 485.2819 219.9974
v 297.1600 485.2819 216.8658
v 284.5100 475.6000 218.3296
v 297.1600 485.2819 216.8658
v 297.1600 475.6000 214.9400
v 284.5100 475.6000 218.3296
v 276.9174 485.2819 228.5529
v 285.4729 485.2819 219.9974
v 275.2496 475.6000 227.5900
v 285.4729 485.2819 219.9974
v 284.5100 475.6000 218.3296
v 275.2496 475.6000 227.5900
v 273.7858 485.2819 240.2400
v 276.9174 485.2819 228.5529
v 271.8600 475.6000 240.2400
v 276.9174 485.2819 228.5529
v 275.2496 475.6000 227.5900
v 271.8600 475.6000 240.2400
v 275.2496 475.6000 252.8900
v 271.8600 475.6000 240.2400
v 276.9174 465.9181 251.9271
v 271.8600 475.6000 240.2400
v 273.7858 465.9181 240.2400
v 276.9174 465.9181 251.9271
v 284.5100 475.6000 262.1504
v 275.2496 475.6000 252.8900
v 285.4729 465.9181 260.4826
v 275.2496 475.6000 252.8900
v 276.9174 465.9181 251.9271
v 285.4729 465.9181 260.4826
v 297.1600 475.6000 265.5400
v 284.5100 475.6000 262.1504
v 297.1600 465.9181 263.6142
v 284.5100 475.6000 262.1504
v 285.4729 465.9181 260.4826
v 297.1600 465.9181 263.6142
v 309.8100 475.6000 262.1504
v 297.1600 475.6000 265.5400
v 308.8471 465.9181 260.4826
v 297.1600 475.6000 265.5400
v 297.1600 465.9181 263.6142
v 308.8471 465.9181 260.4826
v 319.0704 475.6000 252.8900
v 309.8100 475.6000 262.1504
v 317.4026 465.9181 251.9271
v 309.8100 475.6000 262.1504
v 308.8471 465.9181 260.4826
v 317.4026 465.9181 251.9271
v 322.4600 475.6000 240.2400
v 319.0704 475.6000 252.8900
v 320.5342 465.9181 240.2400
v 319.0704 475.6000 252.8900
v 317.4026 465.9181 251.9271
v 320.5342 465.9181 240.2400
v 319.0704 475.6000 227.5900
v 322.4600 475.6000 240.2400
v 317.4026 465.9181 228.5529
v 322.4600 475.6000 240.2400
v 320.5342 465.9181 240.2400
v 317.4026 465.9181 228.5529
v 309.8100 475.6000 218.3296
v 319.0704 475.6000 227.5900
v 308.8471 465.9181 219.9974
v 319.0704 475.6000 227.5900
v 317.4026 465.9181 228.5529
v 308.8471 465.9181 219.9974
v 297.1600 475.6000 214.9400
v 309.8100 475.6000 218.3296
v 297.1600 465.9181 216.8658
v 309.8100 475.6000 218.3296
v 308.8471 465.9181 219.9974
v 297.1600 465.9181 216.8658
v 284.5100 475.6000 218.3296
v 297.1600 475.6000 214.9400
v 285.4729 465.9181 219.9974
v 297.1600 475.6000 214.9400
v 297.1600 465.9181 216.8658
v 285.4729 465.9181 219.9974
v 275.2496 475.6000 227.5900
v 284.5100 475.6000 218.3296
v 276.9174 465.9181 228.5529
v 284.5100 475.6000 218.3296
v 285.4729 465.9181 219.9974
v 276.9174 465.9181 228.5529
v 271.8600 475.6000 240.2400
v 275.2496 475.6000 227.5900
v 273.7858 465.9181 240.2400
v 275.2496 475.6000 227.5900
v 276.9174 465.9181 228.5529
v 273.7858 465.9181 240.2400
v 276.9174 465.9181 251.9271
v 273.7858 465.9181 240.2400
v 281.6670 457.7102 249.1849
v 273.7858 465.9181 240.2400
v 279.2702 457.7102 240.2400
v 281.6670 457.7102 249.1849
v 285.4729 465.9181 260.4826
v 276.9174 465.9181 251.9271
v 288.2151 457.7102 255.7330
v 276.9174 465.9181 251.9271
v 281.6670 457.7102 249.1849
v 288.2151 457.7102 255.7330
v 297.1600 465.9181 263.6142
v 285.4729 465.9181 260.4826
v 297.1600 457.7102 258.1298
v 285.4729 465.9181 260.4826
v 288.2151 457.7102 255.7330
v 297.1600 457.7102 258.1298
v 308.8471 465.9181 260.4826
v 297.1600 465.9181 263.6142
v 306.1049 457.7102 255.7330
v 297.1600 465.9181 263.6142
v 297.1600 457.7102 258.1298
v 306.1049 457.7102 255.7330
v 317.4026 465.9181 251.9271
v 308.8471 465.9181 260.4826
v 312.6530 457.7102 249.1849
v 308.8471 465.9181 260.4826
v 306.1049 457.7102 255.7330
v 312.6530 457.7102 249.1849
v 320.5342 465.9181 240.2400
v 317.4026 465.9181 251.9271
v 315.0498 457.7102 240.2400
v 317.4026 465.9181 251.9271
v 312.6530 457.7102 249.1849
v 315.0498 457.7102 240.2400
v 317.4026 465.9181 228.5529
v 320.5342 465.9181 240.2400
v 312.6530 457.7102 231.2951
v 320.5342 465.9181 240.2400
v 315.0498 457.7102 240.2400
v 312.6530 457.7102 231.2951
v 308.8471 465.9181 219.9974
v 317.4026 465.9181 228.5529
v 306.1049 457.7102 224.7470
v 317.4026 465.9181 228.5529
v 312.6530 457.7102 231.2951
v 306.1049 457.7102 224.7470
v 297.1600 465.9181 216.8658
v 308.8471 465.9181 219.9974
v 297.1600 457.7102 222.3502
v 308.8471 465.9181 219.9974
v 306.1049 457.7102 224.7470
v 297.1600 457.7102 222.3502
v 285.4729 465.9181 219.9974
v 297.1600 465.9181 216.8658
v 288.2151 457.7102 224.7470
v 297.1600 465.9181 216.8658
v 297.1600 457.7102 222.3502
v 288.2151 457.7102 224.7470
v 276.9174 465.9181 228.5529
v 285.4729 465.9181 219.9974
v 281.6670 457.7102 231.2951
v 285.4729 465.9181 219.9974
v 288.2151 457.7102 224.7470
v 281.6670 457.7102 231.2951
v 273.7858 465.9181 240.2400
v 276.9174 465.9181 228.5529
v 279.2702 457.7102 240.2400
v 276.9174 465.9181 228.5529
v 281.6670 457.7102 231.2951
v 279.2702 457.7102 240.2400
v 281.6670 457.7102 249.1849
v 279.2702 457.7102 240.2400
v 288.7752 452.2258 245.0809
v 279.2702 457.7102 240.2400
v 287.4781 452.2258 240.2400
v 288.7752 452.2258 245.0809
v 288.2151 457.7102 255.7330
v 281.6670 457.7102 249.1849
v 292.3191 452.2258 248.6248
v 281.6670 457.7102 249.1849
v 288.7752 452.2258 245.0809
v 292.3191 452.2258 248.6248
v 297.1600 457.7102 258.1298
v 288.2151 457.7102 255.7330
v 297.1600 452.2258 249.9219
v 288.2151 457.7102 255.7330
v 292.3191 452.2258 248.6248
v 297.1600 452.2258 249.9219
v 306.1049 457.7102 255.7330
v 297.1600 457.7102 258.1298
v 302.0009 452.2258 248.6248
v 297.1600 457.7102 258.1298
v 297.1600 452.2258 249.9219
v 302.0009 452.2258 248.6248
v 312.6530 457.7102 249.1849
v 306.1049 457.7102 255.7330
v 305.5448 452.2258 245.0809
v 306.1049 457.7102 255.7330
v 302.0009 452.2258 248.6248
v 305.5448 452.2258 245.0809
v 315.0498 457.7102 240.2400
v 312.6530 457.7102 249.1849
v 306.8419 452.2258 240.2400
v 312.6530 457.7102 249.1849
v 305.5448 452.2258 245.0809
v 306.8419 452.2258 240.2400
v 312.6530 457.7102 231.2951
v 315.0498 457.7102 240.2400
v 305.5448 452.2258 235.3991
v 315.0498 457.7102 240.2400
v 306.8419 452.2258 240.2400
v 305.5448 452.2258 235.3991
v 306.1049 457.7102 224.7470
v 312.6530 457.7102 231.2951
v 302.0009 452.2258 231.8552
v 312.6530 457.7102 231.2951
v 305.5448 452.2258 235.3991
v 302.0009 452.2258 231.8552
v 297.1600 457.7102 222.3502
v 306.1049 457.7102 224.7470
v 297.1600 452.2258 230.5581
v 306.1049 457.7102 224.7470
v 302.0009 452.2258 231.8552
v 297.1600 452.2258 230.5581
v 288.2151 457.7102 224.7470
v 297.1600 457.7102 222.3502
v 292.3191 452.2258 231.8552
v 297.1600 457.7102 222.3502
v 297.1600 452.2258 230.5581
v 292.3191 452.2258 231.8552
v 281.6670 457.7102 231.2951
v 288.2151 457.7102 224.7470
v 288.7752 452.2258 235.3991
v 288.2151 457.7102 224.7470
v 292.3191 452.2258 231.8552
v 288.7752 452.2258 235.3991
v 279.2702 457.7102 240.2400
v 281.6670 457.7102 231.2951
v 287.4781 452.2258 240.2400
v 281.6670 457.7102 231.2951
v 288.7752 452.2258 235.3991
v 287.4781 452.2258 240.2400
v 288.7752 452.2258 245.0809
v 287.4781 452.2258 240.2400
v 297.1600 450.3000 240.2400
v 292.3191 452.2258 248.6248
v 288.7752 452.2258 245.0809
v 297.1600 450.3000 240.2400
v 297.1600 452.2258 249.9219
v 292.3191 452.2258 248.6248
v 297.1600 450.3000 240.2400
v 302.0009 452.2258 248.6248
v 297.1600 452.2258 249.9219
v 297.1600 450.3000 240.2400
v 305.5448 452.2258 245.0809
v 302.0009 452.2258 248.6248
v 297.1600 450.3000 240.2400
v 306.8419 452.2258 240.2400
v 305.5448 452.2258 245.0809
v 297.1600 450.3000 240.2400
v 305.5448 452.2258 235.3991
v 306.8419 452.2258 240.2400
v 297.1600 450.3000 240.2400
v 302.0009 452.2258 231.8552
v 305.5448 452.2258 235.3991
v 297.1600 450.3000 240.2400
v 297.1600 452.2258 230.5581
v 302.0009 452.2258 231.8552
v 297.1600 450.3000 240.2400
v 292.3191 452.2258 231.8552
v 297.1600 452.2258 230.5581
v 297.1600 450.3000 240.2400
v 288.7752 452.2258 235.3991
v 292.3191 452.2258 231.8552
v 297.1600 450.3000 240.2400
v 287.4781 452.2258 240.2400
v 288.7752 452.2258 235.3991
v 297.1600 450.3000 240.2400
f 1 2 3
f 4 5 6
f 7 8 9
f 10 11 12
f 13 14 15
f 16 17 18
f 19 20 21
f 22 23 24
f 25 26 27
f 28 29 30
f 31 32 33
f 34 35 36
f 37 38 39
f 40 41 42
f 43 44 45
f 46 47 48
f 49 50 51
f 52 53 54
f 55 56 57
f 58 59 60
f 61 62 63
f 64 65 66
f 67 68 69
f 70 71 72
f 73 74 75
f 76 77 78
f 79 80 81
f 82 83 84
f 85 86 87
f 88 89 90
f 91 92 93
f 94 95 96
f 97 98 99
f 100 101 102
f 103 104 105
f 106 107 108
f 109 110 111
f 112 113 114
f 115 116 117
f 118 119 120
f 121 122 123
f 124 125 126
f 127 128 129
f 130 131 132
f 133 134 135
f 136 137 138
f 139 140 141
f 142 143 144
f 145 146 147
f 148 149 150
f 151 152 153
f 154 155 156
f 157 158 159
f 160 161 162
f 163 164 165
f 166 167 168
f 169 170 171
f 172 173 174
f 175 176 177
f 178 179 180
f 181 182 183
f 184 185 186
f 187 188 189
f 190 191 192
f 193 194 195
f 196 197 198
f 199 200 201
f 202 203 204
f 205 206 207
f 208 209 210
f 211 212 213
f 214 215 216
f 217 218 219
f 220 221 222
f 223 224 225
f 226 227 228
f 229 230 231
f 232 233 234
f 235 236 237
f 238 239 240
f 241 242 243
f 244 245 246
f 247 248 249
f 250 251 252
f 253 254 255
f 256 257 258
f 259 260 261
f 262 263 264
f 265 266 267
f 268 269 270
f 271 272 273
f 274 275 276
f 277 278 279
f 280 281 282
f 283 284 285
f 286 287 288
f 289 290 291
f 292 293 294
f 295 296 297
f 298 299 300
f 301 302 303
f 304 305 306
f 307 308 309
f 310 311 312
f 313 314 315
f 316 317 318
f 319 320 321
f 322 323 324
f 325 326 327
f 328 329 330
f 331 332 333
f 334 335 336
f 337 338 339
f 340 341 342
f 343 344 345
f 346 347 348
f 349 350 351
f 352 353 354
f 355 356 357
f 358 359 360
f 361 362 363
f 364 365 366
f 367 368 369
f 370 371 372
f 373 374 375
f 376 377 378
f 379 380 381
f 382 383 384
f 385 386 387
f 388 389 390
f 391 392 393
f 394 395 396
f 397 398 399
f 400 401 402
f 403 404 405
f 406 407 408
f 409 410 411
f 412 413 414
f 415 416 417
f 418 419 420
f 421 422 423
f 424 425 426
f 427 428 429
f 430 431 432
f 433 434 435
f 436 437 438
f 439 440 441
f 442 443 444
f 445 446 447
f 448 449 450
f 451 452 453
f 454 455 456
f 457 458 459
f 460 461 462
f 463 464 465
f 466 467 468
f 469 470 471
f 472 473 474
f 475 476 477
f 478 479 480
f 481 482 483
f 484 485 486
f 487 488 489
f 490 491 492
f 493 494 495
f 496 497 498
f 499 500 501
f 502 503 504
f 505 506 507
f 508 509 510
f 511 512 513
f 514 515 516
f 517 518 519
f 520 521 522
f 523 524 525
f 526 527 528
f 529 530 531
f 532 533 534
f 535 536 537
f 538 539 540
f 541 542 543
f 544 545 546
f 547 548 549
f 550 551 552
f 553 554 555
f 556 557 558
f 559 560 561
f 562 563 564
f 565 566 567
f 568 569 570
f 571 572 573
f 574 575 576
f 577 578 579
f 580 581 582
f 583 584 585
f 586 587 588
f 589 590 591
f 592 593 594
f 595 596 597
f 598 599 600
f 601 602 603
f 604 605 606
f 607 608 609
f 610 611 612
f 613 614 615
f 616 617 618
f 619 620 621
f 622 623 624
f 625 626 627
f 628 629 630
f 631 632 633
f 634 635 636
f 637 638 639
f 640 641 642
f 643 644 645
f 646 647 648
f 649 650 651
f 652 653 654
f 655 656 657
f 658 659 660
f 661 662 663
f 664 665 666
f 667 668 669
f 670 671 672
f 673 674 675
f 676 677 678
f 679 680 681
f 682 683 684
f 685 686 687
f 688 689 690
f 691 692 693
f 694 695 696
f 697 698 699
f 700 701 702
f 703 704 705
f 706 707 708
f 709 710 711
f 712 713 714
f 715 716 717
f 718 719 720
f 721 722 723
f 724 725 726
f 727 728 729
f 730 731 732
f 733 734 735
f 736 737 738
f 739 740 741
f 742 743 744
f 745 746 747
f 748 749 750
f 751 752 753
f 754 755 756
f 757 758 759
f 760 761 762
f 763 764 765
f 766 767 768
f 769 770 771
f 772 773 774
f 775 776 777
f 778 779 780
f 781 782 783
f 784 785 786
f 787 788 789
f 790 791 792
f 793 794 795
f 796 797 798
f 799 800 801
f 802 803 804
f 805 806 807
f 808 809 810
f 811 812 813
f 814 815 816
f 817 818 819
f 820 821 822
f 823 824 825
f 826 827 828
f 829 830 831
f 832 833 834
f 835 836 837
f 838 839 840
f 841 842 843
f 844 845 846
f 847 848 849
f 850 851 852
f 853 854 855
f 856 857 858
f 859 860 861
f 862 863 864
f 865 866 867
f 868 869 870
f 871 872 873
f 874 875 876
f 877 878 879
f 880 881 882
f 883 884 885
f 886 887 888
f 889 890 891
f 892 893 894
f 895 896 897
f 898 899 900
f 901 902 903
f 904 905 906
f 907 908 909
f 910 911 912
f 913 914 915
f 916 917 918
f 919 920 921
f 922 923 924
f 925 926 927
f 928 929 930
f 931 932 933
f 934 935 936
f 937 938 939
f 940 941 942
f 943 944 945
f 946 947 948
f 949 950 951
f 952 953 954
f 955 956 957
f 958 959 960
f 961 962 963
f 964 965 966
f 967 968 969
f 970 971 972
f 973 974 975
f 976 977 978
f 979 980 981
f 982 983 984
f 985 986 987
f 988 989 990
f 991 992 993
f 994 995 996
f 997 998 999
f 1000 1001 1002
f 1003 1004 1005
f 1006 1007 1008
f 1009 1010 1011
f 1012 1013 1014
f 1015 1016 1017
f 1018 1019 1020
f 1021 1022 1023
f 1024 1025 1026
f 1027 1028 1029
f 1030 1031 1032
f 1033 1034 1035
f 1036 1037 1038
f 1039 1040 1041
f 1042 1043 1044
f 1045 1046 1047
f 1048 1049 1050
f 1051 1052 1053
f 1054 1055 1056
f 1057 1058 1059
f 1060 1061 1062
f 1063 1064 1065
f 1066 1067 1068
f 1069 1070 1071
f 1072 1073 1074
f 1075 1076 1077
f 1078 1079 1080
f 1081 1082 1083
f 1084 1085 1086
f 1087 1088 1089
f 1090 1091 1092
f 1093 1094 1095
f 1096 1097 1098
f 1099 1100 1101
f 1102 1103 1104
f 1105 1106 1107
f 1108 1109 1110
f 1111 1112 1113
f 1114 1115 1116
f 1117 1118 1119
f 1120 1121 1122
f 1123 1124 1125
f 1126 1127 1128
f 1129 1130 1131
f 1132 1133 1134
f 1135 1136 1137
f 1138 1139 1140
f 1141 1142 1143
f 1144 1145 1146
f 1147 1148 1149
f 1150 1151 1152
f 1153 1154 1155
f 1156 1157 1158
f 1159 1160 1161
f 1162 1163 1164
f 1165 1166 1167
f 1168 1169 1170
f 1171 1172 1173
f 1174 1175 1176
f 1177 1178 1179
f 1180 1181 1182
f 1183 1184 1185
f 1186 1187 1188
f 1189 1190 1191
f 1192 1193 1194
f 1195 1196 1197
f 1198 1199 1200
f 1201 1202 1203
f 1204 1205 1206
f 1207 1208 1209
f 1210 1211 1212
f 1213 1214 1215
f 1216 1217 1218
f 1219 1220 1221
f 1222 1223 1224
f 1225 1226 1227
f 1228 1229 1230
f 1231 1232 1233
f 1234 1235 1236
f 1237 1238 1239
f 1240 1241 1242
f 1243 1244 1245
f 1246 1247 1248
f 1249 1250 1251
f 1252 1253 1254
f 1255 1256 1257
f 1258 1259 1260
f 1261 1262 1263
f 1264 1265 1266
f 1267 1268 1269
f 1270 1271 1272
f 1273 1274 1275
f 1276 1277 1278
f 1279 1280 1281
f 1282 1283 1284
f 1285 1286 1287
f 1288 1289 1290
f 1291 1292 1293
f 1294 1295 1296
f 1297 1298 1299
f 1300 1301 1302
f 1303 1304 1305
f 1306 1307 1308
f 1309 1310 1311
f 1312 1313 1314
f 1315 1316 1317
f 1318 1319 1320
f 1321 1322 1323
f 1324 1325 1326
f 1327 1328 1329
f 1330 1331 1332
f 1333 1334 1335
f 1336 1337 1338
f 1339 1340 1341
f 1342 1343 1344
f 1345 1346 1347
f 1348 1349 1350
f 1351 1352 1353
f 1354 1355 1356
f 1357 1358 1359
f 1360 1361 1362
f 1363 1364 1365
f 1366 1367 1368
f 1369 1370 1371
f 1372 1373 1374
f 1375 1376 1377
f 1378 1379 1380
f 1381 1382 1383
f 1384 1385 1386
f 1387 1388 1389
f 1390 1391 1392
f 1393 1394 1395
f 1396 1397 1398
f 1399 1400 1401
f 1402 1403 1404
f 1405 1406 1407
f 1408 1409 1410
f 1411 1412 1413
f 1414 1415 1416
f 1417 1418 1419
f 1420 1421 1422
f 1423 1424 1425
f 1426 1427 1428
f 1429 1430 1431
f 1432 1433 1434
f 1435 1436 1437
f 1438 1439 1440
f 1441 1442 1443
f 1444 1445 1446
f 1447 1448 1449
f 1450 1451 1452
f 1453 1454 1455
f 1456 1457 1458
f 1459 1460 1461
f 1462 1463 1464
f 1465 1466 1467
f 1468 1469 1470
f 1471 1472 1473
f 1474 1475 1476
f 1477 1478 1479
f 1480 1481 1482
f 1483 1484 1485
f 1486 1487 1488
f 1489 1490 1491
f 1492 1493 1494
f 1495 1496 1497
f 1498 1499 1500
f 1501 1502 1503
f 1504 1505 1506
f 1507 1508 1509
f 1510 1511 1512
f 1513 1514 1515
f 1516 1517 1518
f 1519 1520 1521
f 1522 1523 1524
f 1525 1526 1527
f 1528 1529 1530
f 1531 1532 1533
f 1534 1535 1536
f 1537 1538 1539
f 1540 1541 1542
f 1543 1544 1545
f 1546 1547 1548
f 1549 1550 1551
f 1552 1553 1554
f 1555 1556 1557
f 1558 1559 1560
f 1561 1562 1563
f 1564 1565 1566
f 1567 1568 1569
f 1570 1571 1572
f 1573 1574 1575
f 1576 1577 1578
f 1579 1580 1581
f 1582 1583 1584
f 1585 1586 1587
f 1588 1589 1590
f 1591 1592 1593
f 1594 1595 1596
f 1597 1598 1599
f 1600 1601 1602
f 1603 1604 1605
f 1606 1607 1608
f 1609 1610 1611
f 1612 1613 1614
f 1615 1616 1617
f 1618 1619 1620
f 1621 1622 1623
f 1624 1625 1626
f 1627 1628 1629
f 1630 1631 1632
f 1633 1634 1635
f 1636 1637 1638
f 1639 1640 1641
f 1642 1643 1644
f 1645 1646 1647
f 1648 1649 1650
f 1651 1652 1653
f 1654 1655 1656
f 1657 1658 1659
f 1660 1661 1662
f 1663 1664 1665
f 1666 1667 1668
f 1669 1670 1671
f 1672 1673 1674
f 1675 1676 1677
f 1678 1679 1680
f 1681 1682 1683
f 1684 1685 1686
f 1687 1688 1689
f 1690 1691 1692
f 1693 1694 1695
f 1696 1697 1698
f 1699 1700 1701
f 1702 1703 1704
f 1705 1706 1707
f 1708 1709 1710
f 1711 1712 1713
f 1714 1715 1716
f 1717 1718 1719
f 1720 1721 1722
f 1723 1724 1725
f 1726 1727 1728
f 1729 1730 1731
f 1732 1733 1734
f 1735 1736 1737
f 1738 1739 1740
f 1741 1742 1743
f 1744 1745 1746
f 1747 1748 1749
f 1750 1751 1752
f 1753 1754 1755
f 1756 1757 1758
f 1759 1760 1761
f 1762 1763 1764
f 1765 1766 1767
f 1768 1769 1770
f 1771 1772 1773
f 1774 1775 1776
f 1777 1778 1779
f 1780 1781 1782
f 1783 1784 1785
f 1786 1787 1788
f 1789 1790 1791
f 1792 1793 1794
f 1795 1796 1797
f 1798 1799 1800
f 1801 1802 1803
f 1804 1805 1806
f 1807 1808 1809
f 1810 1811 1812
f 1813 1814 1815
f 1816 1817 1818
f 1819 1820 1821
f 1822 1823 1824
f 1825 1826 1827
f 1828 1829 1830
f 1831 1832 1833
f 1834 1835 1836
f 1837 1838 1839
f 1840 1841 1842
f 1843 1844 1845
f 1846 1847 1848
f 1849 1850 1851
f 1852 1853 1854
f 1855 1856 1857
f 1858 1859 1860
f 1861 1862 1863
f 1864 1865 1866
f 1867 1868 1869
f 1870 1871 1872
f 1873 1874 1875
f 1876 1877 1878
f 1879 1880 1881
f 1882 1883 1884
f 1885 1886 1887
f 1888 1889 1890
f 1891 1892 1893
f 1894 1895 1896
f 1897 1898 1899
f 1900 1901 1902
f 1903 1904 1905
f 1906 1907 1908
f 1909 1910 1911
f 1912 1913 1914
f 1915 1916 1917
f 1918 1919 1920
f 1921 1922 1923
f 1924 1925 1926
f 1927 1928 1929
f 1930 1931 1932
f 1933 1934 1935
f 1936 1937 1938
f 1939 1940 1941
f 1942 1943 1944
f 1945 1946 1947
f 1948 1949 1950
f 1951 1952 1953
f 1954 1955 1956
f 1957 1958 1959
f 1960 1961 1962
f 1963 1964 1965
f 1966 1967 1968
f 1969 1970 1971
f 1972 1973 1974
f 1975 1976 1977
f 1978 1979 1980
f 1981 1982 1983
f 1984 1985 1986
f 1987 1988 1989
f 1990 1991 1992
f 1993 1994 1995
f 1996 1997 1998
f 1999 2000 2001
f 2002 2003 2004
f 2005 2006 2007
f 2008 2009 2010
f 2011 2012 2013
f 2014 2015 2016
