# MATERIA - Helsinki
# Geometria originale di studio. Unita mm. Non CAD del produttore.
v 1160.0000 544.4500 490.0000
v 1160.0000 490.5500 490.0000
v 1160.0000 544.4500 -490.0000
v 1160.0000 490.5500 490.0000
v 1160.0000 490.5500 -490.0000
v 1160.0000 544.4500 -490.0000
v -1160.0000 544.4500 -490.0000
v -1160.0000 490.5500 -490.0000
v -1160.0000 544.4500 490.0000
v -1160.0000 490.5500 -490.0000
v -1160.0000 490.5500 490.0000
v -1160.0000 544.4500 490.0000
v -1160.0000 544.4500 -490.0000
v -1160.0000 544.4500 490.0000
v 1160.0000 544.4500 -490.0000
v -1160.0000 544.4500 490.0000
v 1160.0000 544.4500 490.0000
v 1160.0000 544.4500 -490.0000
v -1160.0000 490.5500 490.0000
v -1160.0000 490.5500 -490.0000
v 1160.0000 490.5500 490.0000
v -1160.0000 490.5500 -490.0000
v 1160.0000 490.5500 -490.0000
v 1160.0000 490.5500 490.0000
v -1160.0000 544.4500 490.0000
v -1160.0000 490.5500 490.0000
v 1160.0000 544.4500 490.0000
v -1160.0000 490.5500 490.0000
v 1160.0000 490.5500 490.0000
v 1160.0000 544.4500 490.0000
v 1160.0000 544.4500 -490.0000
v 1160.0000 490.5500 -490.0000
v -1160.0000 544.4500 -490.0000
v 1160.0000 490.5500 -490.0000
v -1160.0000 490.5500 -490.0000
v -1160.0000 544.4500 -490.0000
v -1585.5950 -49.5310 -624.0406
v -1477.0190 627.3490 -578.1766
v -1592.2506 -47.6426 -636.1547
v -1477.0190 627.3490 -578.1766
v -1483.6746 629.2374 -590.2907
v -1592.2506 -47.6426 -636.1547
v -1592.2506 -47.6426 -636.1547
v -1483.6746 629.2374 -590.2907
v -1591.9842 -46.7422 -650.0734
v -1483.6746 629.2374 -590.2907
v -1483.4082 630.1378 -604.2094
v -1591.9842 -46.7422 -650.0734
v -1591.9842 -46.7422 -650.0734
v -1483.4082 630.1378 -604.2094
v -1584.8673 -47.0711 -662.0672
v -1483.4082 630.1378 -604.2094
v -1476.2913 629.8089 -616.2032
v -1584.8673 -47.0711 -662.0672
v -1584.8673 -47.0711 -662.0672
v -1476.2913 629.8089 -616.2032
v -1572.8068 -48.5412 -668.9225
v -1476.2913 629.8089 -616.2032
v -1464.2308 628.3388 -623.0585
v -1572.8068 -48.5412 -668.9225
v -1572.8068 -48.5412 -668.9225
v -1464.2308 628.3388 -623.0585
v -1559.0343 -50.7585 -668.8024
v -1464.2308 628.3388 -623.0585
v -1450.4583 626.1215 -622.9384
v -1559.0343 -50.7585 -668.8024
v -1559.0343 -50.7585 -668.8024
v -1450.4583 626.1215 -622.9384
v -1547.2402 -53.1290 -661.7390
v -1450.4583 626.1215 -622.9384
v -1438.6642 623.7510 -615.8750
v -1547.2402 -53.1290 -661.7390
v -1547.2402 -53.1290 -661.7390
v -1438.6642 623.7510 -615.8750
v -1540.5846 -55.0174 -649.6249
v -1438.6642 623.7510 -615.8750
v -1432.0086 621.8626 -603.7609
v -1540.5846 -55.0174 -649.6249
v -1540.5846 -55.0174 -649.6249
v -1432.0086 621.8626 -603.7609
v -1540.8510 -55.9178 -635.7062
v -1432.0086 621.8626 -603.7609
v -1432.2750 620.9622 -589.8422
v -1540.8510 -55.9178 -635.7062
v -1540.8510 -55.9178 -635.7062
v -1432.2750 620.9622 -589.8422
v -1547.9679 -55.5889 -623.7124
v -1432.2750 620.9622 -589.8422
v -1439.3919 621.2911 -577.8484
v -1547.9679 -55.5889 -623.7124
v -1547.9679 -55.5889 -623.7124
v -1439.3919 621.2911 -577.8484
v -1560.0284 -54.1188 -616.8571
v -1439.3919 621.2911 -577.8484
v -1451.4524 622.7612 -570.9931
v -1560.0284 -54.1188 -616.8571
v -1560.0284 -54.1188 -616.8571
v -1451.4524 622.7612 -570.9931
v -1573.8009 -51.9015 -616.9772
v -1451.4524 622.7612 -570.9931
v -1465.2249 624.9785 -571.1132
v -1573.8009 -51.9015 -616.9772
v -1573.8009 -51.9015 -616.9772
v -1465.2249 624.9785 -571.1132
v -1585.5950 -49.5310 -624.0406
v -1465.2249 624.9785 -571.1132
v -1477.0190 627.3490 -578.1766
v -1585.5950 -49.5310 -624.0406
v -1585.5950 -49.5310 -624.0406
v -1592.2506 -47.6426 -636.1547
v -1566.4176 -51.3300 -642.8898
v -1592.2506 -47.6426 -636.1547
v -1591.9842 -46.7422 -650.0734
v -1566.4176 -51.3300 -642.8898
v -1591.9842 -46.7422 -650.0734
v -1584.8673 -47.0711 -662.0672
v -1566.4176 -51.3300 -642.8898
v -1584.8673 -47.0711 -662.0672
v -1572.8068 -48.5412 -668.9225
v -1566.4176 -51.3300 -642.8898
v -1572.8068 -48.5412 -668.9225
v -1559.0343 -50.7585 -668.8024
v -1566.4176 -51.3300 -642.8898
v -1559.0343 -50.7585 -668.8024
v -1547.2402 -53.1290 -661.7390
v -1566.4176 -51.3300 -642.8898
v -1547.2402 -53.1290 -661.7390
v -1540.5846 -55.0174 -649.6249
v -1566.4176 -51.3300 -642.8898
v -1540.5846 -55.0174 -649.6249
v -1540.8510 -55.9178 -635.7062
v -1566.4176 -51.3300 -642.8898
v -1540.8510 -55.9178 -635.7062
v -1547.9679 -55.5889 -623.7124
v -1566.4176 -51.3300 -642.8898
v -1547.9679 -55.5889 -623.7124
v -1560.0284 -54.1188 -616.8571
v -1566.4176 -51.3300 -642.8898
v -1560.0284 -54.1188 -616.8571
v -1573.8009 -51.9015 -616.9772
v -1566.4176 -51.3300 -642.8898
v -1573.8009 -51.9015 -616.9772
v -1585.5950 -49.5310 -624.0406
v -1566.4176 -51.3300 -642.8898
v -1483.6746 629.2374 -590.2907
v -1477.0190 627.3490 -578.1766
v -1457.8416 625.5500 -597.0258
v -1483.4082 630.1378 -604.2094
v -1483.6746 629.2374 -590.2907
v -1457.8416 625.5500 -597.0258
v -1476.2913 629.8089 -616.2032
v -1483.4082 630.1378 -604.2094
v -1457.8416 625.5500 -597.0258
v -1464.2308 628.3388 -623.0585
v -1476.2913 629.8089 -616.2032
v -1457.8416 625.5500 -597.0258
v -1450.4583 626.1215 -622.9384
v -1464.2308 628.3388 -623.0585
v -1457.8416 625.5500 -597.0258
v -1438.6642 623.7510 -615.8750
v -1450.4583 626.1215 -622.9384
v -1457.8416 625.5500 -597.0258
v -1432.0086 621.8626 -603.7609
v -1438.6642 623.7510 -615.8750
v -1457.8416 625.5500 -597.0258
v -1432.2750 620.9622 -589.8422
v -1432.0086 621.8626 -603.7609
v -1457.8416 625.5500 -597.0258
v -1439.3919 621.2911 -577.8484
v -1432.2750 620.9622 -589.8422
v -1457.8416 625.5500 -597.0258
v -1451.4524 622.7612 -570.9931
v -1439.3919 621.2911 -577.8484
v -1457.8416 625.5500 -597.0258
v -1465.2249 624.9785 -571.1132
v -1451.4524 622.7612 -570.9931
v -1457.8416 625.5500 -597.0258
v -1477.0190 627.3490 -578.1766
v -1465.2249 624.9785 -571.1132
v -1457.8416 625.5500 -597.0258
v 1585.5950 85.4690 -624.0406
v 1477.0190 762.3490 -578.1766
v 1573.8009 83.0985 -616.9772
v 1477.0190 762.3490 -578.1766
v 1465.2249 759.9785 -571.1132
v 1573.8009 83.0985 -616.9772
v 1573.8009 83.0985 -616.9772
v 1465.2249 759.9785 -571.1132
v 1560.0284 80.8812 -616.8571
v 1465.2249 759.9785 -571.1132
v 1451.4524 757.7612 -570.9931
v 1560.0284 80.8812 -616.8571
v 1560.0284 80.8812 -616.8571
v 1451.4524 757.7612 -570.9931
v 1547.9679 79.4111 -623.7124
v 1451.4524 757.7612 -570.9931
v 1439.3919 756.2911 -577.8484
v 1547.9679 79.4111 -623.7124
v 1547.9679 79.4111 -623.7124
v 1439.3919 756.2911 -577.8484
v 1540.8510 79.0822 -635.7062
v 1439.3919 756.2911 -577.8484
v 1432.2750 755.9622 -589.8422
v 1540.8510 79.0822 -635.7062
v 1540.8510 79.0822 -635.7062
v 1432.2750 755.9622 -589.8422
v 1540.5846 79.9826 -649.6249
v 1432.2750 755.9622 -589.8422
v 1432.0086 756.8626 -603.7609
v 1540.5846 79.9826 -649.6249
v 1540.5846 79.9826 -649.6249
v 1432.0086 756.8626 -603.7609
v 1547.2402 81.8710 -661.7390
v 1432.0086 756.8626 -603.7609
v 1438.6642 758.7510 -615.8750
v 1547.2402 81.8710 -661.7390
v 1547.2402 81.8710 -661.7390
v 1438.6642 758.7510 -615.8750
v 1559.0343 84.2415 -668.8024
v 1438.6642 758.7510 -615.8750
v 1450.4583 761.1215 -622.9384
v 1559.0343 84.2415 -668.8024
v 1559.0343 84.2415 -668.8024
v 1450.4583 761.1215 -622.9384
v 1572.8068 86.4588 -668.9225
v 1450.4583 761.1215 -622.9384
v 1464.2308 763.3388 -623.0585
v 1572.8068 86.4588 -668.9225
v 1572.8068 86.4588 -668.9225
v 1464.2308 763.3388 -623.0585
v 1584.8673 87.9289 -662.0672
v 1464.2308 763.3388 -623.0585
v 1476.2913 764.8089 -616.2032
v 1584.8673 87.9289 -662.0672
v 1584.8673 87.9289 -662.0672
v 1476.2913 764.8089 -616.2032
v 1591.9842 88.2578 -650.0734
v 1476.2913 764.8089 -616.2032
v 1483.4082 765.1378 -604.2094
v 1591.9842 88.2578 -650.0734
v 1591.9842 88.2578 -650.0734
v 1483.4082 765.1378 -604.2094
v 1592.2506 87.3574 -636.1547
v 1483.4082 765.1378 -604.2094
v 1483.6746 764.2374 -590.2907
v 1592.2506 87.3574 -636.1547
v 1592.2506 87.3574 -636.1547
v 1483.6746 764.2374 -590.2907
v 1585.5950 85.4690 -624.0406
v 1483.6746 764.2374 -590.2907
v 1477.0190 762.3490 -578.1766
v 1585.5950 85.4690 -624.0406
v 1585.5950 85.4690 -624.0406
v 1573.8009 83.0985 -616.9772
v 1566.4176 83.6700 -642.8898
v 1573.8009 83.0985 -616.9772
v 1560.0284 80.8812 -616.8571
v 1566.4176 83.6700 -642.8898
v 1560.0284 80.8812 -616.8571
v 1547.9679 79.4111 -623.7124
v 1566.4176 83.6700 -642.8898
v 1547.9679 79.4111 -623.7124
v 1540.8510 79.0822 -635.7062
v 1566.4176 83.6700 -642.8898
v 1540.8510 79.0822 -635.7062
v 1540.5846 79.9826 -649.6249
v 1566.4176 83.6700 -642.8898
v 1540.5846 79.9826 -649.6249
v 1547.2402 81.8710 -661.7390
v 1566.4176 83.6700 -642.8898
v 1547.2402 81.8710 -661.7390
v 1559.0343 84.2415 -668.8024
v 1566.4176 83.6700 -642.8898
v 1559.0343 84.2415 -668.8024
v 1572.8068 86.4588 -668.9225
v 1566.4176 83.6700 -642.8898
v 1572.8068 86.4588 -668.9225
v 1584.8673 87.9289 -662.0672
v 1566.4176 83.6700 -642.8898
v 1584.8673 87.9289 -662.0672
v 1591.9842 88.2578 -650.0734
v 1566.4176 83.6700 -642.8898
v 1591.9842 88.2578 -650.0734
v 1592.2506 87.3574 -636.1547
v 1566.4176 83.6700 -642.8898
v 1592.2506 87.3574 -636.1547
v 1585.5950 85.4690 -624.0406
v 1566.4176 83.6700 -642.8898
v 1465.2249 759.9785 -571.1132
v 1477.0190 762.3490 -578.1766
v 1457.8416 760.5500 -597.0258
v 1451.4524 757.7612 -570.9931
v 1465.2249 759.9785 -571.1132
v 1457.8416 760.5500 -597.0258
v 1439.3919 756.2911 -577.8484
v 1451.4524 757.7612 -570.9931
v 1457.8416 760.5500 -597.0258
v 1432.2750 755.9622 -589.8422
v 1439.3919 756.2911 -577.8484
v 1457.8416 760.5500 -597.0258
v 1432.0086 756.8626 -603.7609
v 1432.2750 755.9622 -589.8422
v 1457.8416 760.5500 -597.0258
v 1438.6642 758.7510 -615.8750
v 1432.0086 756.8626 -603.7609
v 1457.8416 760.5500 -597.0258
v 1450.4583 761.1215 -622.9384
v 1438.6642 758.7510 -615.8750
v 1457.8416 760.5500 -597.0258
v 1464.2308 763.3388 -623.0585
v 1450.4583 761.1215 -622.9384
v 1457.8416 760.5500 -597.0258
v 1476.2913 764.8089 -616.2032
v 1464.2308 763.3388 -623.0585
v 1457.8416 760.5500 -597.0258
v 1483.4082 765.1378 -604.2094
v 1476.2913 764.8089 -616.2032
v 1457.8416 760.5500 -597.0258
v 1483.6746 764.2374 -590.2907
v 1483.4082 765.1378 -604.2094
v 1457.8416 760.5500 -597.0258
v 1477.0190 762.3490 -578.1766
v 1483.6746 764.2374 -590.2907
v 1457.8416 760.5500 -597.0258
v -1547.2402 216.8710 661.7390
v -1438.6642 893.7510 615.8750
v -1559.0343 219.2415 668.8024
v -1438.6642 893.7510 615.8750
v -1450.4583 896.1215 622.9384
v -1559.0343 219.2415 668.8024
v -1559.0343 219.2415 668.8024
v -1450.4583 896.1215 622.9384
v -1572.8068 221.4588 668.9225
v -1450.4583 896.1215 622.9384
v -1464.2308 898.3388 623.0585
v -1572.8068 221.4588 668.9225
v -1572.8068 221.4588 668.9225
v -1464.2308 898.3388 623.0585
v -1584.8673 222.9289 662.0672
v -1464.2308 898.3388 623.0585
v -1476.2913 899.8089 616.2032
v -1584.8673 222.9289 662.0672
v -1584.8673 222.9289 662.0672
v -1476.2913 899.8089 616.2032
v -1591.9842 223.2578 650.0734
v -1476.2913 899.8089 616.2032
v -1483.4082 900.1378 604.2094
v -1591.9842 223.2578 650.0734
v -1591.9842 223.2578 650.0734
v -1483.4082 900.1378 604.2094
v -1592.2506 222.3574 636.1547
v -1483.4082 900.1378 604.2094
v -1483.6746 899.2374 590.2907
v -1592.2506 222.3574 636.1547
v -1592.2506 222.3574 636.1547
v -1483.6746 899.2374 590.2907
v -1585.5950 220.4690 624.0406
v -1483.6746 899.2374 590.2907
v -1477.0190 897.3490 578.1766
v -1585.5950 220.4690 624.0406
v -1585.5950 220.4690 624.0406
v -1477.0190 897.3490 578.1766
v -1573.8009 218.0985 616.9772
v -1477.0190 897.3490 578.1766
v -1465.2249 894.9785 571.1132
v -1573.8009 218.0985 616.9772
v -1573.8009 218.0985 616.9772
v -1465.2249 894.9785 571.1132
v -1560.0284 215.8812 616.8571
v -1465.2249 894.9785 571.1132
v -1451.4524 892.7612 570.9931
v -1560.0284 215.8812 616.8571
v -1560.0284 215.8812 616.8571
v -1451.4524 892.7612 570.9931
v -1547.9679 214.4111 623.7124
v -1451.4524 892.7612 570.9931
v -1439.3919 891.2911 577.8484
v -1547.9679 214.4111 623.7124
v -1547.9679 214.4111 623.7124
v -1439.3919 891.2911 577.8484
v -1540.8510 214.0822 635.7062
v -1439.3919 891.2911 577.8484
v -1432.2750 890.9622 589.8422
v -1540.8510 214.0822 635.7062
v -1540.8510 214.0822 635.7062
v -1432.2750 890.9622 589.8422
v -1540.5846 214.9826 649.6249
v -1432.2750 890.9622 589.8422
v -1432.0086 891.8626 603.7609
v -1540.5846 214.9826 649.6249
v -1540.5846 214.9826 649.6249
v -1432.0086 891.8626 603.7609
v -1547.2402 216.8710 661.7390
v -1432.0086 891.8626 603.7609
v -1438.6642 893.7510 615.8750
v -1547.2402 216.8710 661.7390
v -1547.2402 216.8710 661.7390
v -1559.0343 219.2415 668.8024
v -1566.4176 218.6700 642.8898
v -1559.0343 219.2415 668.8024
v -1572.8068 221.4588 668.9225
v -1566.4176 218.6700 642.8898
v -1572.8068 221.4588 668.9225
v -1584.8673 222.9289 662.0672
v -1566.4176 218.6700 642.8898
v -1584.8673 222.9289 662.0672
v -1591.9842 223.2578 650.0734
v -1566.4176 218.6700 642.8898
v -1591.9842 223.2578 650.0734
v -1592.2506 222.3574 636.1547
v -1566.4176 218.6700 642.8898
v -1592.2506 222.3574 636.1547
v -1585.5950 220.4690 624.0406
v -1566.4176 218.6700 642.8898
v -1585.5950 220.4690 624.0406
v -1573.8009 218.0985 616.9772
v -1566.4176 218.6700 642.8898
v -1573.8009 218.0985 616.9772
v -1560.0284 215.8812 616.8571
v -1566.4176 218.6700 642.8898
v -1560.0284 215.8812 616.8571
v -1547.9679 214.4111 623.7124
v -1566.4176 218.6700 642.8898
v -1547.9679 214.4111 623.7124
v -1540.8510 214.0822 635.7062
v -1566.4176 218.6700 642.8898
v -1540.8510 214.0822 635.7062
v -1540.5846 214.9826 649.6249
v -1566.4176 218.6700 642.8898
v -1540.5846 214.9826 649.6249
v -1547.2402 216.8710 661.7390
v -1566.4176 218.6700 642.8898
v -1450.4583 896.1215 622.9384
v -1438.6642 893.7510 615.8750
v -1457.8416 895.5500 597.0258
v -1464.2308 898.3388 623.0585
v -1450.4583 896.1215 622.9384
v -1457.8416 895.5500 597.0258
v -1476.2913 899.8089 616.2032
v -1464.2308 898.3388 623.0585
v -1457.8416 895.5500 597.0258
v -1483.4082 900.1378 604.2094
v -1476.2913 899.8089 616.2032
v -1457.8416 895.5500 597.0258
v -1483.6746 899.2374 590.2907
v -1483.4082 900.1378 604.2094
v -1457.8416 895.5500 597.0258
v -1477.0190 897.3490 578.1766
v -1483.6746 899.2374 590.2907
v -1457.8416 895.5500 597.0258
v -1465.2249 894.9785 571.1132
v -1477.0190 897.3490 578.1766
v -1457.8416 895.5500 597.0258
v -1451.4524 892.7612 570.9931
v -1465.2249 894.9785 571.1132
v -1457.8416 895.5500 597.0258
v -1439.3919 891.2911 577.8484
v -1451.4524 892.7612 570.9931
v -1457.8416 895.5500 597.0258
v -1432.2750 890.9622 589.8422
v -1439.3919 891.2911 577.8484
v -1457.8416 895.5500 597.0258
v -1432.0086 891.8626 603.7609
v -1432.2750 890.9622 589.8422
v -1457.8416 895.5500 597.0258
v -1438.6642 893.7510 615.8750
v -1432.0086 891.8626 603.7609
v -1457.8416 895.5500 597.0258
v 1547.2402 -188.1290 661.7390
v 1438.6642 488.7510 615.8750
v 1540.5846 -190.0174 649.6249
v 1438.6642 488.7510 615.8750
v 1432.0086 486.8626 603.7609
v 1540.5846 -190.0174 649.6249
v 1540.5846 -190.0174 649.6249
v 1432.0086 486.8626 603.7609
v 1540.8510 -190.9178 635.7062
v 1432.0086 486.8626 603.7609
v 1432.2750 485.9622 589.8422
v 1540.8510 -190.9178 635.7062
v 1540.8510 -190.9178 635.7062
v 1432.2750 485.9622 589.8422
v 1547.9679 -190.5889 623.7124
v 1432.2750 485.9622 589.8422
v 1439.3919 486.2911 577.8484
v 1547.9679 -190.5889 623.7124
v 1547.9679 -190.5889 623.7124
v 1439.3919 486.2911 577.8484
v 1560.0284 -189.1188 616.8571
v 1439.3919 486.2911 577.8484
v 1451.4524 487.7612 570.9931
v 1560.0284 -189.1188 616.8571
v 1560.0284 -189.1188 616.8571
v 1451.4524 487.7612 570.9931
v 1573.8009 -186.9015 616.9772
v 1451.4524 487.7612 570.9931
v 1465.2249 489.9785 571.1132
v 1573.8009 -186.9015 616.9772
v 1573.8009 -186.9015 616.9772
v 1465.2249 489.9785 571.1132
v 1585.5950 -184.5310 624.0406
v 1465.2249 489.9785 571.1132
v 1477.0190 492.3490 578.1766
v 1585.5950 -184.5310 624.0406
v 1585.5950 -184.5310 624.0406
v 1477.0190 492.3490 578.1766
v 1592.2506 -182.6426 636.1547
v 1477.0190 492.3490 578.1766
v 1483.6746 494.2374 590.2907
v 1592.2506 -182.6426 636.1547
v 1592.2506 -182.6426 636.1547
v 1483.6746 494.2374 590.2907
v 1591.9842 -181.7422 650.0734
v 1483.6746 494.2374 590.2907
v 1483.4082 495.1378 604.2094
v 1591.9842 -181.7422 650.0734
v 1591.9842 -181.7422 650.0734
v 1483.4082 495.1378 604.2094
v 1584.8673 -182.0711 662.0672
v 1483.4082 495.1378 604.2094
v 1476.2913 494.8089 616.2032
v 1584.8673 -182.0711 662.0672
v 1584.8673 -182.0711 662.0672
v 1476.2913 494.8089 616.2032
v 1572.8068 -183.5412 668.9225
v 1476.2913 494.8089 616.2032
v 1464.2308 493.3388 623.0585
v 1572.8068 -183.5412 668.9225
v 1572.8068 -183.5412 668.9225
v 1464.2308 493.3388 623.0585
v 1559.0343 -185.7585 668.8024
v 1464.2308 493.3388 623.0585
v 1450.4583 491.1215 622.9384
v 1559.0343 -185.7585 668.8024
v 1559.0343 -185.7585 668.8024
v 1450.4583 491.1215 622.9384
v 1547.2402 -188.1290 661.7390
v 1450.4583 491.1215 622.9384
v 1438.6642 488.7510 615.8750
v 1547.2402 -188.1290 661.7390
v 1547.2402 -188.1290 661.7390
v 1540.5846 -190.0174 649.6249
v 1566.4176 -186.3300 642.8898
v 1540.5846 -190.0174 649.6249
v 1540.8510 -190.9178 635.7062
v 1566.4176 -186.3300 642.8898
v 1540.8510 -190.9178 635.7062
v 1547.9679 -190.5889 623.7124
v 1566.4176 -186.3300 642.8898
v 1547.9679 -190.5889 623.7124
v 1560.0284 -189.1188 616.8571
v 1566.4176 -186.3300 642.8898
v 1560.0284 -189.1188 616.8571
v 1573.8009 -186.9015 616.9772
v 1566.4176 -186.3300 642.8898
v 1573.8009 -186.9015 616.9772
v 1585.5950 -184.5310 624.0406
v 1566.4176 -186.3300 642.8898
v 1585.5950 -184.5310 624.0406
v 1592.2506 -182.6426 636.1547
v 1566.4176 -186.3300 642.8898
v 1592.2506 -182.6426 636.1547
v 1591.9842 -181.7422 650.0734
v 1566.4176 -186.3300 642.8898
v 1591.9842 -181.7422 650.0734
v 1584.8673 -182.0711 662.0672
v 1566.4176 -186.3300 642.8898
v 1584.8673 -182.0711 662.0672
v 1572.8068 -183.5412 668.9225
v 1566.4176 -186.3300 642.8898
v 1572.8068 -183.5412 668.9225
v 1559.0343 -185.7585 668.8024
v 1566.4176 -186.3300 642.8898
v 1559.0343 -185.7585 668.8024
v 1547.2402 -188.1290 661.7390
v 1566.4176 -186.3300 642.8898
v 1432.0086 486.8626 603.7609
v 1438.6642 488.7510 615.8750
v 1457.8416 490.5500 597.0258
v 1432.2750 485.9622 589.8422
v 1432.0086 486.8626 603.7609
v 1457.8416 490.5500 597.0258
v 1439.3919 486.2911 577.8484
v 1432.2750 485.9622 589.8422
v 1457.8416 490.5500 597.0258
v 1451.4524 487.7612 570.9931
v 1439.3919 486.2911 577.8484
v 1457.8416 490.5500 597.0258
v 1465.2249 489.9785 571.1132
v 1451.4524 487.7612 570.9931
v 1457.8416 490.5500 597.0258
v 1477.0190 492.3490 578.1766
v 1465.2249 489.9785 571.1132
v 1457.8416 490.5500 597.0258
v 1483.6746 494.2374 590.2907
v 1477.0190 492.3490 578.1766
v 1457.8416 490.5500 597.0258
v 1483.4082 495.1378 604.2094
v 1483.6746 494.2374 590.2907
v 1457.8416 490.5500 597.0258
v 1476.2913 494.8089 616.2032
v 1483.4082 495.1378 604.2094
v 1457.8416 490.5500 597.0258
v 1464.2308 493.3388 623.0585
v 1476.2913 494.8089 616.2032
v 1457.8416 490.5500 597.0258
v 1450.4583 491.1215 622.9384
v 1464.2308 493.3388 623.0585
v 1457.8416 490.5500 597.0258
v 1438.6642 488.7510 615.8750
v 1450.4583 491.1215 622.9384
v 1457.8416 490.5500 597.0258
f 1 2 3
f 4 5 6
f 7 8 9
f 10 11 12
f 13 14 15
f 16 17 18
f 19 20 21
f 22 23 24
f 25 26 27
f 28 29 30
f 31 32 33
f 34 35 36
f 37 38 39
f 40 41 42
f 43 44 45
f 46 47 48
f 49 50 51
f 52 53 54
f 55 56 57
f 58 59 60
f 61 62 63
f 64 65 66
f 67 68 69
f 70 71 72
f 73 74 75
f 76 77 78
f 79 80 81
f 82 83 84
f 85 86 87
f 88 89 90
f 91 92 93
f 94 95 96
f 97 98 99
f 100 101 102
f 103 104 105
f 106 107 108
f 109 110 111
f 112 113 114
f 115 116 117
f 118 119 120
f 121 122 123
f 124 125 126
f 127 128 129
f 130 131 132
f 133 134 135
f 136 137 138
f 139 140 141
f 142 143 144
f 145 146 147
f 148 149 150
f 151 152 153
f 154 155 156
f 157 158 159
f 160 161 162
f 163 164 165
f 166 167 168
f 169 170 171
f 172 173 174
f 175 176 177
f 178 179 180
f 181 182 183
f 184 185 186
f 187 188 189
f 190 191 192
f 193 194 195
f 196 197 198
f 199 200 201
f 202 203 204
f 205 206 207
f 208 209 210
f 211 212 213
f 214 215 216
f 217 218 219
f 220 221 222
f 223 224 225
f 226 227 228
f 229 230 231
f 232 233 234
f 235 236 237
f 238 239 240
f 241 242 243
f 244 245 246
f 247 248 249
f 250 251 252
f 253 254 255
f 256 257 258
f 259 260 261
f 262 263 264
f 265 266 267
f 268 269 270
f 271 272 273
f 274 275 276
f 277 278 279
f 280 281 282
f 283 284 285
f 286 287 288
f 289 290 291
f 292 293 294
f 295 296 297
f 298 299 300
f 301 302 303
f 304 305 306
f 307 308 309
f 310 311 312
f 313 314 315
f 316 317 318
f 319 320 321
f 322 323 324
f 325 326 327
f 328 329 330
f 331 332 333
f 334 335 336
f 337 338 339
f 340 341 342
f 343 344 345
f 346 347 348
f 349 350 351
f 352 353 354
f 355 356 357
f 358 359 360
f 361 362 363
f 364 365 366
f 367 368 369
f 370 371 372
f 373 374 375
f 376 377 378
f 379 380 381
f 382 383 384
f 385 386 387
f 388 389 390
f 391 392 393
f 394 395 396
f 397 398 399
f 400 401 402
f 403 404 405
f 406 407 408
f 409 410 411
f 412 413 414
f 415 416 417
f 418 419 420
f 421 422 423
f 424 425 426
f 427 428 429
f 430 431 432
f 433 434 435
f 436 437 438
f 439 440 441
f 442 443 444
f 445 446 447
f 448 449 450
f 451 452 453
f 454 455 456
f 457 458 459
f 460 461 462
f 463 464 465
f 466 467 468
f 469 470 471
f 472 473 474
f 475 476 477
f 478 479 480
f 481 482 483
f 484 485 486
f 487 488 489
f 490 491 492
f 493 494 495
f 496 497 498
f 499 500 501
f 502 503 504
f 505 506 507
f 508 509 510
f 511 512 513
f 514 515 516
f 517 518 519
f 520 521 522
f 523 524 525
f 526 527 528
f 529 530 531
f 532 533 534
f 535 536 537
f 538 539 540
f 541 542 543
f 544 545 546
f 547 548 549
f 550 551 552
f 553 554 555
f 556 557 558
f 559 560 561
f 562 563 564
f 565 566 567
f 568 569 570
f 571 572 573
f 574 575 576
f 577 578 579
f 580 581 582
f 583 584 585
f 586 587 588
f 589 590 591
f 592 593 594
f 595 596 597
f 598 599 600
f 601 602 603
f 604 605 606
f 607 608 609
f 610 611 612
