# MATERIA - Boa
# Geometria originale di studio. Unita mm. Non CAD del produttore.
v -743.1980 77.1748 344.8869
v -708.9996 191.8374 283.8660
v -802.8490 133.3841 437.2694
v -708.9996 191.8374 283.8660
v -756.9599 285.5249 348.4779
v -802.8490 133.3841 437.2694
v -802.8490 133.3841 437.2694
v -756.9599 285.5249 348.4779
v -922.1510 162.8093 424.8825
v -756.9599 285.5249 348.4779
v -876.7885 313.2620 337.3419
v -922.1510 162.8093 424.8825
v -922.1510 162.8093 424.8825
v -876.7885 313.2620 337.3419
v -981.8020 136.0252 320.1131
v -876.7885 313.2620 337.3419
v -948.6567 247.3117 261.5939
v -981.8020 136.0252 320.1131
v -981.8020 136.0252 320.1131
v -948.6567 247.3117 261.5939
v -922.1510 79.8159 227.7306
v -948.6567 247.3117 261.5939
v -900.6964 153.6241 196.9820
v -922.1510 79.8159 227.7306
v -922.1510 79.8159 227.7306
v -900.6964 153.6241 196.9820
v -802.8490 50.3907 240.1175
v -900.6964 153.6241 196.9820
v -780.8677 125.8870 208.1180
v -802.8490 50.3907 240.1175
v -802.8490 50.3907 240.1175
v -780.8677 125.8870 208.1180
v -743.1980 77.1748 344.8869
v -780.8677 125.8870 208.1180
v -708.9996 191.8374 283.8660
v -743.1980 77.1748 344.8869
v -708.9996 191.8374 283.8660
v -683.6374 251.6173 169.5791
v -756.9599 285.5249 348.4779
v -683.6374 251.6173 169.5791
v -723.2044 365.1120 197.9632
v -756.9599 285.5249 348.4779
v -756.9599 285.5249 348.4779
v -723.2044 365.1120 197.9632
v -876.7885 313.2620 337.3419
v -723.2044 365.1120 197.9632
v -842.5325 394.0304 184.6666
v -876.7885 313.2620 337.3419
v -876.7885 313.2620 337.3419
v -842.5325 394.0304 184.6666
v -948.6567 247.3117 261.5939
v -842.5325 394.0304 184.6666
v -922.2935 309.4540 142.9860
v -948.6567 247.3117 261.5939
v -948.6567 247.3117 261.5939
v -922.2935 309.4540 142.9860
v -900.6964 153.6241 196.9820
v -922.2935 309.4540 142.9860
v -882.7264 195.9593 114.6019
v -900.6964 153.6241 196.9820
v -900.6964 153.6241 196.9820
v -882.7264 195.9593 114.6019
v -780.8677 125.8870 208.1180
v -882.7264 195.9593 114.6019
v -763.3984 167.0409 127.8985
v -780.8677 125.8870 208.1180
v -780.8677 125.8870 208.1180
v -763.3984 167.0409 127.8985
v -708.9996 191.8374 283.8660
v -763.3984 167.0409 127.8985
v -683.6374 251.6173 169.5791
v -708.9996 191.8374 283.8660
v -683.6374 251.6173 169.5791
v -662.1314 272.9212 44.5975
v -723.2044 365.1120 197.9632
v -662.1314 272.9212 44.5975
v -696.5700 391.5221 44.3492
v -723.2044 365.1120 197.9632
v -723.2044 365.1120 197.9632
v -696.5700 391.5221 44.3492
v -842.5325 394.0304 184.6666
v -696.5700 391.5221 44.3492
v -814.9151 421.4192 25.5647
v -842.5325 394.0304 184.6666
v -842.5325 394.0304 184.6666
v -814.9151 421.4192 25.5647
v -922.2935 309.4540 142.9860
v -814.9151 421.4192 25.5647
v -898.8215 332.7154 7.0285
v -922.2935 309.4540 142.9860
v -922.2935 309.4540 142.9860
v -898.8215 332.7154 7.0285
v -882.7264 195.9593 114.6019
v -898.8215 332.7154 7.0285
v -864.3829 214.1145 7.2768
v -882.7264 195.9593 114.6019
v -882.7264 195.9593 114.6019
v -864.3829 214.1145 7.2768
v -763.3984 167.0409 127.8985
v -864.3829 214.1145 7.2768
v -746.0378 184.2174 26.0613
v -763.3984 167.0409 127.8985
v -763.3984 167.0409 127.8985
v -746.0378 184.2174 26.0613
v -683.6374 251.6173 169.5791
v -746.0378 184.2174 26.0613
v -662.1314 272.9212 44.5975
v -683.6374 251.6173 169.5791
v -662.1314 272.9212 44.5975
v -641.4315 263.8079 -80.1180
v -696.5700 391.5221 44.3492
v -641.4315 263.8079 -80.1180
v -670.8949 380.2141 -108.9929
v -696.5700 391.5221 44.3492
v -696.5700 391.5221 44.3492
v -670.8949 380.2141 -108.9929
v -814.9151 421.4192 25.5647
v -670.8949 380.2141 -108.9929
v -787.8726 409.5080 -135.6452
v -814.9151 421.4192 25.5647
v -814.9151 421.4192 25.5647
v -787.8726 409.5080 -135.6452
v -898.8215 332.7154 7.0285
v -787.8726 409.5080 -135.6452
v -875.3868 322.3957 -133.4226
v -898.8215 332.7154 7.0285
v -898.8215 332.7154 7.0285
v -875.3868 322.3957 -133.4226
v -864.3829 214.1145 7.2768
v -875.3868 322.3957 -133.4226
v -845.9235 205.9895 -104.5477
v -864.3829 214.1145 7.2768
v -864.3829 214.1145 7.2768
v -845.9235 205.9895 -104.5477
v -746.0378 184.2174 26.0613
v -845.9235 205.9895 -104.5477
v -728.9458 176.6956 -77.8954
v -746.0378 184.2174 26.0613
v -746.0378 184.2174 26.0613
v -728.9458 176.6956 -77.8954
v -662.1314 272.9212 44.5975
v -728.9458 176.6956 -77.8954
v -641.4315 263.8079 -80.1180
v -662.1314 272.9212 44.5975
v -641.4315 263.8079 -80.1180
v -620.0090 224.2494 -190.9564
v -670.8949 380.2141 -108.9929
v -620.0090 224.2494 -190.9564
v -642.4388 327.5947 -254.7444
v -670.8949 380.2141 -108.9929
v -670.8949 380.2141 -108.9929
v -642.4388 327.5947 -254.7444
v -787.8726 409.5080 -135.6452
v -642.4388 327.5947 -254.7444
v -756.7296 351.8991 -294.7341
v -787.8726 409.5080 -135.6452
v -787.8726 409.5080 -135.6452
v -756.7296 351.8991 -294.7341
v -875.3868 322.3957 -133.4226
v -756.7296 351.8991 -294.7341
v -848.5905 272.8582 -270.9359
v -875.3868 322.3957 -133.4226
v -875.3868 322.3957 -133.4226
v -848.5905 272.8582 -270.9359
v -845.9235 205.9895 -104.5477
v -848.5905 272.8582 -270.9359
v -826.1606 169.5129 -207.1478
v -845.9235 205.9895 -104.5477
v -845.9235 205.9895 -104.5477
v -826.1606 169.5129 -207.1478
v -728.9458 176.6956 -77.8954
v -826.1606 169.5129 -207.1478
v -711.8699 145.2086 -167.1581
v -728.9458 176.6956 -77.8954
v -728.9458 176.6956 -77.8954
v -711.8699 145.2086 -167.1581
v -641.4315 263.8079 -80.1180
v -711.8699 145.2086 -167.1581
v -620.0090 224.2494 -190.9564
v -641.4315 263.8079 -80.1180
v -620.0090 224.2494 -190.9564
v -598.6541 158.4670 -257.6035
v -642.4388 327.5947 -254.7444
v -598.6541 158.4670 -257.6035
v -602.9677 207.4410 -370.8960
v -642.4388 327.5947 -254.7444
v -642.4388 327.5947 -254.7444
v -602.9677 207.4410 -370.8960
v -756.7296 351.8991 -294.7341
v -602.9677 207.4410 -370.8960
v -708.3361 204.9670 -435.2672
v -756.7296 351.8991 -294.7341
v -756.7296 351.8991 -294.7341
v -708.3361 204.9670 -435.2672
v -848.5905 272.8582 -270.9359
v -708.3361 204.9670 -435.2672
v -809.3907 153.5190 -386.3459
v -848.5905 272.8582 -270.9359
v -848.5905 272.8582 -270.9359
v -809.3907 153.5190 -386.3459
v -826.1606 169.5129 -207.1478
v -809.3907 153.5190 -386.3459
v -805.0771 104.5450 -273.0534
v -826.1606 169.5129 -207.1478
v -826.1606 169.5129 -207.1478
v -805.0771 104.5450 -273.0534
v -711.8699 145.2086 -167.1581
v -805.0771 104.5450 -273.0534
v -699.7089 107.0190 -208.6822
v -711.8699 145.2086 -167.1581
v -711.8699 145.2086 -167.1581
v -699.7089 107.0190 -208.6822
v -620.0090 224.2494 -190.9564
v -699.7089 107.0190 -208.6822
v -598.6541 158.4670 -257.6035
v -620.0090 224.2494 -190.9564
v -598.6541 158.4670 -257.6035
v -582.6014 99.3712 -250.2037
v -602.9677 207.4410 -370.8960
v -582.6014 99.3712 -250.2037
v -553.5537 36.9226 -352.7155
v -602.9677 207.4410 -370.8960
v -602.9677 207.4410 -370.8960
v -553.5537 36.9226 -352.7155
v -708.3361 204.9670 -435.2672
v -553.5537 36.9226 -352.7155
v -639.6864 -29.7962 -410.8706
v -708.3361 204.9670 -435.2672
v -708.3361 204.9670 -435.2672
v -639.6864 -29.7962 -410.8706
v -809.3907 153.5190 -386.3459
v -639.6864 -29.7962 -410.8706
v -754.8667 -34.0664 -366.5140
v -809.3907 153.5190 -386.3459
v -809.3907 153.5190 -386.3459
v -754.8667 -34.0664 -366.5140
v -805.0771 104.5450 -273.0534
v -754.8667 -34.0664 -366.5140
v -783.9144 28.3821 -264.0022
v -805.0771 104.5450 -273.0534
v -805.0771 104.5450 -273.0534
v -783.9144 28.3821 -264.0022
v -699.7089 107.0190 -208.6822
v -783.9144 28.3821 -264.0022
v -697.7817 95.1009 -205.8471
v -699.7089 107.0190 -208.6822
v -699.7089 107.0190 -208.6822
v -697.7817 95.1009 -205.8471
v -598.6541 158.4670 -257.6035
v -697.7817 95.1009 -205.8471
v -582.6014 99.3712 -250.2037
v -598.6541 158.4670 -257.6035
v -582.6014 99.3712 -250.2037
v -563.3925 44.6241 -179.0137
v -553.5537 36.9226 -352.7155
v -563.3925 44.6241 -179.0137
v -520.5242 -56.7179 -235.0883
v -553.5537 36.9226 -352.7155
v -553.5537 36.9226 -352.7155
v -520.5242 -56.7179 -235.0883
v -639.6864 -29.7962 -410.8706
v -520.5242 -56.7179 -235.0883
v -597.3765 -149.5535 -262.0611
v -639.6864 -29.7962 -410.8706
v -639.6864 -29.7962 -410.8706
v -597.3765 -149.5535 -262.0611
v -754.8667 -34.0664 -366.5140
v -597.3765 -149.5535 -262.0611
v -717.0969 -141.0472 -232.9593
v -754.8667 -34.0664 -366.5140
v -754.8667 -34.0664 -366.5140
v -717.0969 -141.0472 -232.9593
v -783.9144 28.3821 -264.0022
v -717.0969 -141.0472 -232.9593
v -759.9650 -39.7051 -176.8846
v -783.9144 28.3821 -264.0022
v -783.9144 28.3821 -264.0022
v -759.9650 -39.7051 -176.8846
v -697.7817 95.1009 -205.8471
v -759.9650 -39.7051 -176.8846
v -683.1128 53.1305 -149.9118
v -697.7817 95.1009 -205.8471
v -697.7817 95.1009 -205.8471
v -683.1128 53.1305 -149.9118
v -582.6014 99.3712 -250.2037
v -683.1128 53.1305 -149.9118
v -563.3925 44.6241 -179.0137
v -582.6014 99.3712 -250.2037
v -563.3925 44.6241 -179.0137
v -544.6996 15.5769 -76.7906
v -520.5242 -56.7179 -235.0883
v -544.6996 15.5769 -76.7906
v -495.8594 -95.1197 -101.5522
v -520.5242 -56.7179 -235.0883
v -520.5242 -56.7179 -235.0883
v -495.8594 -95.1197 -101.5522
v -597.3765 -149.5535 -262.0611
v -495.8594 -95.1197 -101.5522
v -568.0026 -195.3315 -103.8346
v -597.3765 -149.5535 -262.0611
v -597.3765 -149.5535 -262.0611
v -568.0026 -195.3315 -103.8346
v -717.0969 -141.0472 -232.9593
v -568.0026 -195.3315 -103.8346
v -688.9861 -184.8467 -81.3554
v -717.0969 -141.0472 -232.9593
v -717.0969 -141.0472 -232.9593
v -688.9861 -184.8467 -81.3554
v -759.9650 -39.7051 -176.8846
v -688.9861 -184.8467 -81.3554
v -737.8264 -74.1500 -56.5938
v -759.9650 -39.7051 -176.8846
v -759.9650 -39.7051 -176.8846
v -737.8264 -74.1500 -56.5938
v -683.1128 53.1305 -149.9118
v -737.8264 -74.1500 -56.5938
v -665.6831 26.0617 -54.3114
v -683.1128 53.1305 -149.9118
v -683.1128 53.1305 -149.9118
v -665.6831 26.0617 -54.3114
v -563.3925 44.6241 -179.0137
v -665.6831 26.0617 -54.3114
v -544.6996 15.5769 -76.7906
v -563.3925 44.6241 -179.0137
v -544.6996 15.5769 -76.7906
v -526.8653 13.1395 32.1781
v -495.8594 -95.1197 -101.5522
v -526.8653 13.1395 32.1781
v -473.4275 -98.1842 34.0962
v -495.8594 -95.1197 -101.5522
v -495.8594 -95.1197 -101.5522
v -473.4275 -98.1842 34.0962
v -568.0026 -195.3315 -103.8346
v -473.4275 -98.1842 34.0962
v -541.4363 -198.9599 55.8058
v -568.0026 -195.3315 -103.8346
v -568.0026 -195.3315 -103.8346
v -541.4363 -198.9599 55.8058
v -688.9861 -184.8467 -81.3554
v -541.4363 -198.9599 55.8058
v -662.8830 -188.4119 75.5972
v -688.9861 -184.8467 -81.3554
v -688.9861 -184.8467 -81.3554
v -662.8830 -188.4119 75.5972
v -737.8264 -74.1500 -56.5938
v -662.8830 -188.4119 75.5972
v -716.3208 -77.0882 73.6790
v -737.8264 -74.1500 -56.5938
v -737.8264 -74.1500 -56.5938
v -716.3208 -77.0882 73.6790
v -665.6831 26.0617 -54.3114
v -716.3208 -77.0882 73.6790
v -648.3120 23.6875 51.9694
v -665.6831 26.0617 -54.3114
v -665.6831 26.0617 -54.3114
v -648.3120 23.6875 51.9694
v -544.6996 15.5769 -76.7906
v -648.3120 23.6875 51.9694
v -526.8653 13.1395 32.1781
v -544.6996 15.5769 -76.7906
v -526.8653 13.1395 32.1781
v -508.9802 36.2024 133.8219
v -473.4275 -98.1842 34.0962
v -508.9802 36.2024 133.8219
v -450.4952 -68.5622 163.0816
v -473.4275 -98.1842 34.0962
v -473.4275 -98.1842 34.0962
v -450.4952 -68.5622 163.0816
v -541.4363 -198.9599 55.8058
v -450.4952 -68.5622 163.0816
v -513.4240 -162.7361 212.3106
v -541.4363 -198.9599 55.8058
v -541.4363 -198.9599 55.8058
v -513.4240 -162.7361 212.3106
v -662.8830 -188.4119 75.5972
v -513.4240 -162.7361 212.3106
v -634.8378 -152.1454 232.2799
v -662.8830 -188.4119 75.5972
v -662.8830 -188.4119 75.5972
v -634.8378 -152.1454 232.2799
v -716.3208 -77.0882 73.6790
v -634.8378 -152.1454 232.2799
v -693.3228 -47.3808 203.0202
v -716.3208 -77.0882 73.6790
v -716.3208 -77.0882 73.6790
v -693.3228 -47.3808 203.0202
v -648.3120 23.6875 51.9694
v -693.3228 -47.3808 203.0202
v -630.3940 46.7931 153.7912
v -648.3120 23.6875 51.9694
v -648.3120 23.6875 51.9694
v -630.3940 46.7931 153.7912
v -526.8653 13.1395 32.1781
v -630.3940 46.7931 153.7912
v -508.9802 36.2024 133.8219
v -526.8653 13.1395 32.1781
v -508.9802 36.2024 133.8219
v -492.5466 79.3735 202.7732
v -450.4952 -68.5622 163.0816
v -492.5466 79.3735 202.7732
v -424.9155 -1.5085 267.0880
v -450.4952 -68.5622 163.0816
v -450.4952 -68.5622 163.0816
v -424.9155 -1.5085 267.0880
v -513.4240 -162.7361 212.3106
v -424.9155 -1.5085 267.0880
v -477.1682 -67.8045 357.2364
v -513.4240 -162.7361 212.3106
v -513.4240 -162.7361 212.3106
v -477.1682 -67.8045 357.2364
v -634.8378 -152.1454 232.2799
v -477.1682 -67.8045 357.2364
v -597.0520 -53.2184 383.0701
v -634.8378 -152.1454 232.2799
v -634.8378 -152.1454 232.2799
v -597.0520 -53.2184 383.0701
v -693.3228 -47.3808 203.0202
v -597.0520 -53.2184 383.0701
v -664.6830 27.6636 318.7553
v -693.3228 -47.3808 203.0202
v -693.3228 -47.3808 203.0202
v -664.6830 27.6636 318.7553
v -630.3940 46.7931 153.7912
v -664.6830 27.6636 318.7553
v -612.4304 93.9595 228.6069
v -630.3940 46.7931 153.7912
v -630.3940 46.7931 153.7912
v -612.4304 93.9595 228.6069
v -508.9802 36.2024 133.8219
v -612.4304 93.9595 228.6069
v -492.5466 79.3735 202.7732
v -508.9802 36.2024 133.8219
v -492.5466 79.3735 202.7732
v -488.1158 99.1189 212.7988
v -424.9155 -1.5085 267.0880
v -488.1158 99.1189 212.7988
v -397.8837 92.9020 296.8926
v -424.9155 -1.5085 267.0880
v -424.9155 -1.5085 267.0880
v -397.8837 92.9020 296.8926
v -477.1682 -67.8045 357.2364
v -397.8837 92.9020 296.8926
v -419.7924 126.8508 413.5962
v -477.1682 -67.8045 357.2364
v -477.1682 -67.8045 357.2364
v -419.7924 126.8508 413.5962
v -597.0520 -53.2184 383.0701
v -419.7924 126.8508 413.5962
v -531.9332 167.0165 446.2061
v -597.0520 -53.2184 383.0701
v -597.0520 -53.2184 383.0701
v -531.9332 167.0165 446.2061
v -664.6830 27.6636 318.7553
v -531.9332 167.0165 446.2061
v -622.1653 173.2334 362.1122
v -664.6830 27.6636 318.7553
v -664.6830 27.6636 318.7553
v -622.1653 173.2334 362.1122
v -612.4304 93.9595 228.6069
v -622.1653 173.2334 362.1122
v -600.2567 139.2846 245.4086
v -612.4304 93.9595 228.6069
v -612.4304 93.9595 228.6069
v -600.2567 139.2846 245.4086
v -492.5466 79.3735 202.7732
v -600.2567 139.2846 245.4086
v -488.1158 99.1189 212.7988
v -492.5466 79.3735 202.7732
v -488.1158 99.1189 212.7988
v -478.1528 133.1399 182.7267
v -397.8837 92.9020 296.8926
v -478.1528 133.1399 182.7267
v -373.5279 172.0070 235.5965
v -397.8837 92.9020 296.8926
v -397.8837 92.9020 296.8926
v -373.5279 172.0070 235.5965
v -419.7924 126.8508 413.5962
v -373.5279 172.0070 235.5965
v -373.6884 274.0793 305.1196
v -419.7924 126.8508 413.5962
v -419.7924 126.8508 413.5962
v -373.6884 274.0793 305.1196
v -531.9332 167.0165 446.2061
v -373.6884 274.0793 305.1196
v -478.4740 337.2846 321.7728
v -531.9332 167.0165 446.2061
v -531.9332 167.0165 446.2061
v -478.4740 337.2846 321.7728
v -622.1653 173.2334 362.1122
v -478.4740 337.2846 321.7728
v -583.0989 298.4176 268.9029
v -622.1653 173.2334 362.1122
v -622.1653 173.2334 362.1122
v -583.0989 298.4176 268.9029
v -600.2567 139.2846 245.4086
v -583.0989 298.4176 268.9029
v -582.9384 196.3452 199.3799
v -600.2567 139.2846 245.4086
v -600.2567 139.2846 245.4086
v -582.9384 196.3452 199.3799
v -488.1158 99.1189 212.7988
v -582.9384 196.3452 199.3799
v -478.1528 133.1399 182.7267
v -488.1158 99.1189 212.7988
v -478.1528 133.1399 182.7267
v -461.2848 168.5445 99.3647
v -373.5279 172.0070 235.5965
v -461.2848 168.5445 99.3647
v -352.2223 216.7758 131.4796
v -373.5279 172.0070 235.5965
v -373.5279 172.0070 235.5965
v -352.2223 216.7758 131.4796
v -373.6884 274.0793 305.1196
v -352.2223 216.7758 131.4796
v -344.3376 335.8255 163.3738
v -373.6884 274.0793 305.1196
v -373.6884 274.0793 305.1196
v -344.3376 335.8255 163.3738
v -478.4740 337.2846 321.7728
v -344.3376 335.8255 163.3738
v -445.5154 406.6441 163.1530
v -478.4740 337.2846 321.7728
v -478.4740 337.2846 321.7728
v -445.5154 406.6441 163.1530
v -583.0989 298.4176 268.9029
v -445.5154 406.6441 163.1530
v -554.5779 358.4128 131.0381
v -583.0989 298.4176 268.9029
v -583.0989 298.4176 268.9029
v -554.5779 358.4128 131.0381
v -582.9384 196.3452 199.3799
v -554.5779 358.4128 131.0381
v -562.4626 239.3630 99.1440
v -582.9384 196.3452 199.3799
v -582.9384 196.3452 199.3799
v -562.4626 239.3630 99.1440
v -478.1528 133.1399 182.7267
v -562.4626 239.3630 99.1440
v -461.2848 168.5445 99.3647
v -478.1528 133.1399 182.7267
v -461.2848 168.5445 99.3647
v -444.2908 180.6189 -2.6887
v -352.2223 216.7758 131.4796
v -444.2908 180.6189 -2.6887
v -332.9278 230.4844 16.3891
v -352.2223 216.7758 131.4796
v -352.2223 216.7758 131.4796
v -332.9278 230.4844 16.3891
v -344.3376 335.8255 163.3738
v -332.9278 230.4844 16.3891
v -319.7910 353.2652 18.5193
v -344.3376 335.8255 163.3738
v -344.3376 335.8255 163.3738
v -319.7910 353.2652 18.5193
v -445.5154 406.6441 163.1530
v -319.7910 353.2652 18.5193
v -418.0172 426.1806 1.5717
v -445.5154 406.6441 163.1530
v -445.5154 406.6441 163.1530
v -418.0172 426.1806 1.5717
v -554.5779 358.4128 131.0381
v -418.0172 426.1806 1.5717
v -529.3802 376.3150 -17.5062
v -554.5779 358.4128 131.0381
v -554.5779 358.4128 131.0381
v -529.3802 376.3150 -17.5062
v -562.4626 239.3630 99.1440
v -529.3802 376.3150 -17.5062
v -542.5170 253.5342 -19.6364
v -562.4626 239.3630 99.1440
v -562.4626 239.3630 99.1440
v -542.5170 253.5342 -19.6364
v -461.2848 168.5445 99.3647
v -542.5170 253.5342 -19.6364
v -444.2908 180.6189 -2.6887
v -461.2848 168.5445 99.3647
v -444.2908 180.6189 -2.6887
v -427.2651 168.3102 -104.9044
v -332.9278 230.4844 16.3891
v -427.2651 168.3102 -104.9044
v -313.9557 216.7686 -96.8408
v -332.9278 230.4844 16.3891
v -332.9278 230.4844 16.3891
v -313.9557 216.7686 -96.8408
v -319.7910 353.2652 18.5193
v -313.9557 216.7686 -96.8408
v -295.5909 335.7698 -124.2944
v -319.7910 353.2652 18.5193
v -319.7910 353.2652 18.5193
v -295.5909 335.7698 -124.2944
v -418.0172 426.1806 1.5717
v -295.5909 335.7698 -124.2944
v -390.5356 406.3126 -159.8118
v -418.0172 426.1806 1.5717
v -418.0172 426.1806 1.5717
v -390.5356 406.3126 -159.8118
v -529.3802 376.3150 -17.5062
v -390.5356 406.3126 -159.8118
v -503.8449 357.8543 -167.8754
v -529.3802 376.3150 -17.5062
v -529.3802 376.3150 -17.5062
v -503.8449 357.8543 -167.8754
v -542.5170 253.5342 -19.6364
v -503.8449 357.8543 -167.8754
v -522.2097 238.8531 -140.4217
v -542.5170 253.5342 -19.6364
v -542.5170 253.5342 -19.6364
v -522.2097 238.8531 -140.4217
v -444.2908 180.6189 -2.6887
v -522.2097 238.8531 -140.4217
v -427.2651 168.3102 -104.9044
v -444.2908 180.6189 -2.6887
v -427.2651 168.3102 -104.9044
v -410.1368 132.1584 -189.3255
v -313.9557 216.7686 -96.8408
v -410.1368 132.1584 -189.3255
v -294.8402 176.4025 -190.5108
v -313.9557 216.7686 -96.8408
v -313.9557 216.7686 -96.8408
v -294.8402 176.4025 -190.5108
v -295.5909 335.7698 -124.2944
v -294.8402 176.4025 -190.5108
v -268.6532 278.8153 -254.3710
v -295.5909 335.7698 -124.2944
v -295.5909 335.7698 -124.2944
v -268.6532 278.8153 -254.3710
v -390.5356 406.3126 -159.8118
v -268.6532 278.8153 -254.3710
v -357.7628 336.9840 -317.0458
v -390.5356 406.3126 -159.8118
v -390.5356 406.3126 -159.8118
v -357.7628 336.9840 -317.0458
v -503.8449 357.8543 -167.8754
v -357.7628 336.9840 -317.0458
v -473.0594 292.7399 -315.8604
v -503.8449 357.8543 -167.8754
v -503.8449 357.8543 -167.8754
v -473.0594 292.7399 -315.8604
v -522.2097 238.8531 -140.4217
v -473.0594 292.7399 -315.8604
v -499.2464 190.3271 -252.0003
v -522.2097 238.8531 -140.4217
v -522.2097 238.8531 -140.4217
v -499.2464 190.3271 -252.0003
v -427.2651 168.3102 -104.9044
v -499.2464 190.3271 -252.0003
v -410.1368 132.1584 -189.3255
v -427.2651 168.3102 -104.9044
v -410.1368 132.1584 -189.3255
v -398.9847 94.2435 -221.8840
v -294.8402 176.4025 -190.5108
v -398.9847 94.2435 -221.8840
v -280.9759 129.9873 -228.8519
v -294.8402 176.4025 -190.5108
v -294.8402 176.4025 -190.5108
v -280.9759 129.9873 -228.8519
v -268.6532 278.8153 -254.3710
v -280.9759 129.9873 -228.8519
v -234.1450 167.7004 -336.7261
v -268.6532 278.8153 -254.3710
v -268.6532 278.8153 -254.3710
v -234.1450 167.7004 -336.7261
v -357.7628 336.9840 -317.0458
v -234.1450 167.7004 -336.7261
v -305.3228 169.6696 -437.6324
v -357.7628 336.9840 -317.0458
v -357.7628 336.9840 -317.0458
v -305.3228 169.6696 -437.6324
v -473.0594 292.7399 -315.8604
v -305.3228 169.6696 -437.6324
v -423.3317 133.9257 -430.6646
v -473.0594 292.7399 -315.8604
v -473.0594 292.7399 -315.8604
v -423.3317 133.9257 -430.6646
v -499.2464 190.3271 -252.0003
v -423.3317 133.9257 -430.6646
v -470.1626 96.2127 -322.7903
v -499.2464 190.3271 -252.0003
v -499.2464 190.3271 -252.0003
v -470.1626 96.2127 -322.7903
v -410.1368 132.1584 -189.3255
v -470.1626 96.2127 -322.7903
v -398.9847 94.2435 -221.8840
v -410.1368 132.1584 -189.3255
v -398.9847 94.2435 -221.8840
v -391.8871 65.6797 -209.3625
v -280.9759 129.9873 -228.8519
v -391.8871 65.6797 -209.3625
v -272.8928 98.1715 -215.4361
v -280.9759 129.9873 -228.8519
v -280.9759 129.9873 -228.8519
v -272.8928 98.1715 -215.4361
v -234.1450 167.7004 -336.7261
v -272.8928 98.1715 -215.4361
v -198.4495 44.7676 -298.2520
v -234.1450 167.7004 -336.7261
v -234.1450 167.7004 -336.7261
v -198.4495 44.7676 -298.2520
v -305.3228 169.6696 -437.6324
v -198.4495 44.7676 -298.2520
v -243.0005 -41.1281 -374.9943
v -305.3228 169.6696 -437.6324
v -305.3228 169.6696 -437.6324
v -243.0005 -41.1281 -374.9943
v -423.3317 133.9257 -430.6646
v -243.0005 -41.1281 -374.9943
v -361.9948 -73.6199 -368.9208
v -423.3317 133.9257 -430.6646
v -423.3317 133.9257 -430.6646
v -361.9948 -73.6199 -368.9208
v -470.1626 96.2127 -322.7903
v -361.9948 -73.6199 -368.9208
v -436.4381 -20.2160 -286.1049
v -470.1626 96.2127 -322.7903
v -470.1626 96.2127 -322.7903
v -436.4381 -20.2160 -286.1049
v -398.9847 94.2435 -221.8840
v -436.4381 -20.2160 -286.1049
v -391.8871 65.6797 -209.3625
v -398.9847 94.2435 -221.8840
v -391.8871 65.6797 -209.3625
v -374.1977 19.4186 -135.3657
v -272.8928 98.1715 -215.4361
v -374.1977 19.4186 -135.3657
v -256.1707 54.4283 -145.1737
v -272.8928 98.1715 -215.4361
v -272.8928 98.1715 -215.4361
v -256.1707 54.4283 -145.1737
v -198.4495 44.7676 -298.2520
v -256.1707 54.4283 -145.1737
v -172.3561 -23.3691 -191.8099
v -198.4495 44.7676 -298.2520
v -198.4495 44.7676 -298.2520
v -172.3561 -23.3691 -191.8099
v -243.0005 -41.1281 -374.9943
v -172.3561 -23.3691 -191.8099
v -206.5686 -136.1762 -228.6381
v -243.0005 -41.1281 -374.9943
v -243.0005 -41.1281 -374.9943
v -206.5686 -136.1762 -228.6381
v -361.9948 -73.6199 -368.9208
v -206.5686 -136.1762 -228.6381
v -324.5956 -171.1859 -218.8301
v -361.9948 -73.6199 -368.9208
v -361.9948 -73.6199 -368.9208
v -324.5956 -171.1859 -218.8301
v -436.4381 -20.2160 -286.1049
v -324.5956 -171.1859 -218.8301
v -408.4102 -93.3885 -172.1940
v -436.4381 -20.2160 -286.1049
v -436.4381 -20.2160 -286.1049
v -408.4102 -93.3885 -172.1940
v -391.8871 65.6797 -209.3625
v -408.4102 -93.3885 -172.1940
v -374.1977 19.4186 -135.3657
v -391.8871 65.6797 -209.3625
v -374.1977 19.4186 -135.3657
v -355.5547 -4.3986 -29.5275
v -256.1707 54.4283 -145.1737
v -355.5547 -4.3986 -29.5275
v -238.7489 32.1836 -45.9710
v -256.1707 54.4283 -145.1737
v -256.1707 54.4283 -145.1737
v -238.7489 32.1836 -45.9710
v -172.3561 -23.3691 -191.8099
v -238.7489 32.1836 -45.9710
v -150.6210 -51.1682 -69.1701
v -172.3561 -23.3691 -191.8099
v -172.3561 -23.3691 -191.8099
v -150.6210 -51.1682 -69.1701
v -206.5686 -136.1762 -228.6381
v -150.6210 -51.1682 -69.1701
v -179.2989 -171.1023 -75.9256
v -206.5686 -136.1762 -228.6381
v -206.5686 -136.1762 -228.6381
v -179.2989 -171.1023 -75.9256
v -324.5956 -171.1859 -218.8301
v -179.2989 -171.1023 -75.9256
v -296.1047 -207.6846 -59.4821
v -324.5956 -171.1859 -218.8301
v -324.5956 -171.1859 -218.8301
v -296.1047 -207.6846 -59.4821
v -408.4102 -93.3885 -172.1940
v -296.1047 -207.6846 -59.4821
v -384.2326 -124.3327 -36.2830
v -408.4102 -93.3885 -172.1940
v -408.4102 -93.3885 -172.1940
v -384.2326 -124.3327 -36.2830
v -374.1977 19.4186 -135.3657
v -384.2326 -124.3327 -36.2830
v -355.5547 -4.3986 -29.5275
v -374.1977 19.4186 -135.3657
v -355.5547 -4.3986 -29.5275
v -336.9895 -1.6249 83.6720
v -238.7489 32.1836 -45.9710
v -336.9895 -1.6249 83.6720
v -221.7331 34.7250 58.2375
v -238.7489 32.1836 -45.9710
v -238.7489 32.1836 -45.9710
v -221.7331 34.7250 58.2375
v -150.6210 -51.1682 -69.1701
v -221.7331 34.7250 58.2375
v -130.2046 -48.1168 54.7710
v -150.6210 -51.1682 -69.1701
v -150.6210 -51.1682 -69.1701
v -130.2046 -48.1168 54.7710
v -179.2989 -171.1023 -75.9256
v -130.2046 -48.1168 54.7710
v -153.9324 -167.3085 76.7389
v -179.2989 -171.1023 -75.9256
v -179.2989 -171.1023 -75.9256
v -153.9324 -167.3085 76.7389
v -296.1047 -207.6846 -59.4821
v -153.9324 -167.3085 76.7389
v -269.1888 -203.6583 102.1733
v -296.1047 -207.6846 -59.4821
v -296.1047 -207.6846 -59.4821
v -269.1888 -203.6583 102.1733
v -384.2326 -124.3327 -36.2830
v -269.1888 -203.6583 102.1733
v -360.7173 -120.8165 105.6399
v -384.2326 -124.3327 -36.2830
v -384.2326 -124.3327 -36.2830
v -360.7173 -120.8165 105.6399
v -355.5547 -4.3986 -29.5275
v -360.7173 -120.8165 105.6399
v -336.9895 -1.6249 83.6720
v -355.5547 -4.3986 -29.5275
v -336.9895 -1.6249 83.6720
v -317.2858 29.2452 191.0515
v -221.7331 34.7250 58.2375
v -317.2858 29.2452 191.0515
v -204.6102 61.5225 152.1329
v -221.7331 34.7250 58.2375
v -221.7331 34.7250 58.2375
v -204.6102 61.5225 152.1329
v -130.2046 -48.1168 54.7710
v -204.6102 61.5225 152.1329
v -109.3589 -15.4446 168.1172
v -130.2046 -48.1168 54.7710
v -130.2046 -48.1168 54.7710
v -109.3589 -15.4446 168.1172
v -153.9324 -167.3085 76.7389
v -109.3589 -15.4446 168.1172
v -126.7830 -124.6889 223.0202
v -153.9324 -167.3085 76.7389
v -153.9324 -167.3085 76.7389
v -126.7830 -124.6889 223.0202
v -269.1888 -203.6583 102.1733
v -126.7830 -124.6889 223.0202
v -239.4585 -156.9661 261.9388
v -269.1888 -203.6583 102.1733
v -269.1888 -203.6583 102.1733
v -239.4585 -156.9661 261.9388
v -360.7173 -120.8165 105.6399
v -239.4585 -156.9661 261.9388
v -334.7099 -79.9991 245.9544
v -360.7173 -120.8165 105.6399
v -360.7173 -120.8165 105.6399
v -334.7099 -79.9991 245.9544
v -336.9895 -1.6249 83.6720
v -334.7099 -79.9991 245.9544
v -317.2858 29.2452 191.0515
v -336.9895 -1.6249 83.6720
v -317.2858 29.2452 191.0515
v -295.5918 91.2017 270.1934
v -204.6102 61.5225 152.1329
v -295.5918 91.2017 270.1934
v -190.3220 102.5872 206.6253
v -204.6102 61.5225 152.1329
v -204.6102 61.5225 152.1329
v -190.3220 102.5872 206.6253
v -109.3589 -15.4446 168.1172
v -190.3220 102.5872 206.6253
v -88.2160 44.9571 245.4247
v -109.3589 -15.4446 168.1172
v -109.3589 -15.4446 168.1172
v -88.2160 44.9571 245.4247
v -126.7830 -124.6889 223.0202
v -88.2160 44.9571 245.4247
v -91.3798 -24.0586 347.7921
v -126.7830 -124.6889 223.0202
v -126.7830 -124.6889 223.0202
v -91.3798 -24.0586 347.7921
v -239.4585 -156.9661 261.9388
v -91.3798 -24.0586 347.7921
v -196.6496 -35.4441 411.3601
v -239.4585 -156.9661 261.9388
v -239.4585 -156.9661 261.9388
v -196.6496 -35.4441 411.3601
v -334.7099 -79.9991 245.9544
v -196.6496 -35.4441 411.3601
v -298.7555 22.1861 372.5608
v -334.7099 -79.9991 245.9544
v -334.7099 -79.9991 245.9544
v -298.7555 22.1861 372.5608
v -317.2858 29.2452 191.0515
v -298.7555 22.1861 372.5608
v -295.5918 91.2017 270.1934
v -317.2858 29.2452 191.0515
v -295.5918 91.2017 270.1934
v -273.1962 171.4998 278.9366
v -190.3220 102.5872 206.6253
v -273.1962 171.4998 278.9366
v -188.3008 114.8125 209.4272
v -190.3220 102.5872 206.6253
v -190.3220 102.5872 206.6253
v -188.3008 114.8125 209.4272
v -88.2160 44.9571 245.4247
v -188.3008 114.8125 209.4272
v -73.2739 100.3527 251.9944
v -88.2160 44.9571 245.4247
v -88.2160 44.9571 245.4247
v -73.2739 100.3527 251.9944
v -91.3798 -24.0586 347.7921
v -73.2739 100.3527 251.9944
v -43.1424 142.5803 364.0711
v -91.3798 -24.0586 347.7921
v -91.3798 -24.0586 347.7921
v -43.1424 142.5803 364.0711
v -196.6496 -35.4441 411.3601
v -43.1424 142.5803 364.0711
v -128.0378 199.2676 433.5805
v -196.6496 -35.4441 411.3601
v -196.6496 -35.4441 411.3601
v -128.0378 199.2676 433.5805
v -298.7555 22.1861 372.5608
v -128.0378 199.2676 433.5805
v -243.0647 213.7274 391.0132
v -298.7555 22.1861 372.5608
v -298.7555 22.1861 372.5608
v -243.0647 213.7274 391.0132
v -295.5918 91.2017 270.1934
v -243.0647 213.7274 391.0132
v -273.1962 171.4998 278.9366
v -295.5918 91.2017 270.1934
v -273.1962 171.4998 278.9366
v -248.2359 247.8873 201.8882
v -188.3008 114.8125 209.4272
v -248.2359 247.8873 201.8882
v -175.5165 154.7106 166.0800
v -188.3008 114.8125 209.4272
v -188.3008 114.8125 209.4272
v -175.5165 154.7106 166.0800
v -73.2739 100.3527 251.9944
v -175.5165 154.7106 166.0800
v -55.2604 155.9217 194.1737
v -73.2739 100.3527 251.9944
v -73.2739 100.3527 251.9944
v -55.2604 155.9217 194.1737
v -43.1424 142.5803 364.0711
v -55.2604 155.9217 194.1737
v -7.7238 250.3095 258.0757
v -43.1424 142.5803 364.0711
v -43.1424 142.5803 364.0711
v -7.7238 250.3095 258.0757
v -128.0378 199.2676 433.5805
v -7.7238 250.3095 258.0757
v -80.4433 343.4862 293.8840
v -128.0378 199.2676 433.5805
v -128.0378 199.2676 433.5805
v -80.4433 343.4862 293.8840
v -243.0647 213.7274 391.0132
v -80.4433 343.4862 293.8840
v -200.6994 342.2750 265.7903
v -243.0647 213.7274 391.0132
v -243.0647 213.7274 391.0132
v -200.6994 342.2750 265.7903
v -273.1962 171.4998 278.9366
v -200.6994 342.2750 265.7903
v -248.2359 247.8873 201.8882
v -273.1962 171.4998 278.9366
v -248.2359 247.8873 201.8882
v -225.3396 289.9134 83.4851
v -175.5165 154.7106 166.0800
v -225.3396 289.9134 83.4851
v -158.0362 186.7396 74.6719
v -175.5165 154.7106 166.0800
v -175.5165 154.7106 166.0800
v -158.0362 186.7396 74.6719
v -55.2604 155.9217 194.1737
v -158.0362 186.7396 74.6719
v -36.5812 190.1636 96.7901
v -55.2604 155.9217 194.1737
v -55.2604 155.9217 194.1737
v -36.5812 190.1636 96.7901
v -7.7238 250.3095 258.0757
v -36.5812 190.1636 96.7901
v 17.5704 296.7615 127.7214
v -7.7238 250.3095 258.0757
v -7.7238 250.3095 258.0757
v 17.5704 296.7615 127.7214
v -80.4433 343.4862 293.8840
v 17.5704 296.7615 127.7214
v -49.7330 399.9353 136.5347
v -80.4433 343.4862 293.8840
v -80.4433 343.4862 293.8840
v -49.7330 399.9353 136.5347
v -200.6994 342.2750 265.7903
v -49.7330 399.9353 136.5347
v -171.1880 396.5112 114.4165
v -200.6994 342.2750 265.7903
v -200.6994 342.2750 265.7903
v -171.1880 396.5112 114.4165
v -248.2359 247.8873 201.8882
v -171.1880 396.5112 114.4165
v -225.3396 289.9134 83.4851
v -248.2359 247.8873 201.8882
v -225.3396 289.9134 83.4851
v -203.5401 299.2295 -47.5953
v -158.0362 186.7396 74.6719
v -203.5401 299.2295 -47.5953
v -140.5459 194.2139 -31.6053
v -158.0362 186.7396 74.6719
v -158.0362 186.7396 74.6719
v -140.5459 194.2139 -31.6053
v -36.5812 190.1636 96.7901
v -140.5459 194.2139 -31.6053
v -18.8348 197.7474 -10.9610
v -36.5812 190.1636 96.7901
v -36.5812 190.1636 96.7901
v -18.8348 197.7474 -10.9610
v 17.5704 296.7615 127.7214
v -18.8348 197.7474 -10.9610
v 39.8820 306.2965 -6.3066
v 17.5704 296.7615 127.7214
v 17.5704 296.7615 127.7214
v 39.8820 306.2965 -6.3066
v -49.7330 399.9353 136.5347
v 39.8820 306.2965 -6.3066
v -23.1123 411.3122 -22.2966
v -49.7330 399.9353 136.5347
v -49.7330 399.9353 136.5347
v -23.1123 411.3122 -22.2966
v -171.1880 396.5112 114.4165
v -23.1123 411.3122 -22.2966
v -144.8233 407.7787 -42.9410
v -171.1880 396.5112 114.4165
v -171.1880 396.5112 114.4165
v -144.8233 407.7787 -42.9410
v -225.3396 289.9134 83.4851
v -144.8233 407.7787 -42.9410
v -203.5401 299.2295 -47.5953
v -225.3396 289.9134 83.4851
v -203.5401 299.2295 -47.5953
v -180.8381 276.4469 -179.1413
v -140.5459 194.2139 -31.6053
v -180.8381 276.4469 -179.1413
v -122.6784 176.3039 -136.2334
v -140.5459 194.2139 -31.6053
v -140.5459 194.2139 -31.6053
v -122.6784 176.3039 -136.2334
v -18.8348 197.7474 -10.9610
v -122.6784 176.3039 -136.2334
v -1.1615 180.0331 -114.5081
v -18.8348 197.7474 -10.9610
v -18.8348 197.7474 -10.9610
v -1.1615 180.0331 -114.5081
v 39.8820 306.2965 -6.3066
v -1.1615 180.0331 -114.5081
v 62.1957 283.9052 -135.6907
v 39.8820 306.2965 -6.3066
v 39.8820 306.2965 -6.3066
v 62.1957 283.9052 -135.6907
v -23.1123 411.3122 -22.2966
v 62.1957 283.9052 -135.6907
v 4.0360 384.0481 -178.5986
v -23.1123 411.3122 -22.2966
v -23.1123 411.3122 -22.2966
v 4.0360 384.0481 -178.5986
v -144.8233 407.7787 -42.9410
v 4.0360 384.0481 -178.5986
v -117.4809 380.3190 -200.3239
v -144.8233 407.7787 -42.9410
v -144.8233 407.7787 -42.9410
v -117.4809 380.3190 -200.3239
v -203.5401 299.2295 -47.5953
v -117.4809 380.3190 -200.3239
v -180.8381 276.4469 -179.1413
v -203.5401 299.2295 -47.5953
v -180.8381 276.4469 -179.1413
v -153.3708 211.3932 -302.0413
v -122.6784 176.3039 -136.2334
v -153.3708 211.3932 -302.0413
v -104.1193 132.3620 -220.9203
v -122.6784 176.3039 -136.2334
v -122.6784 176.3039 -136.2334
v -104.1193 132.3620 -220.9203
v -1.1615 180.0331 -114.5081
v -104.1193 132.3620 -220.9203
v 15.8399 139.7827 -192.5131
v -1.1615 180.0331 -114.5081
v -1.1615 180.0331 -114.5081
v 15.8399 139.7827 -192.5131
v 62.1957 283.9052 -135.6907
v 15.8399 139.7827 -192.5131
v 86.5476 226.2347 -245.2269
v 62.1957 283.9052 -135.6907
v 62.1957 283.9052 -135.6907
v 86.5476 226.2347 -245.2269
v 4.0360 384.0481 -178.5986
v 86.5476 226.2347 -245.2269
v 37.2960 305.2658 -326.3478
v 4.0360 384.0481 -178.5986
v 4.0360 384.0481 -178.5986
v 37.2960 305.2658 -326.3478
v -117.4809 380.3190 -200.3239
v 37.2960 305.2658 -326.3478
v -82.6632 297.8451 -354.7550
v -117.4809 380.3190 -200.3239
v -117.4809 380.3190 -200.3239
v -82.6632 297.8451 -354.7550
v -180.8381 276.4469 -179.1413
v -82.6632 297.8451 -354.7550
v -153.3708 211.3932 -302.0413
v -180.8381 276.4469 -179.1413
v -153.3708 211.3932 -302.0413
v -112.1476 74.0377 -372.6854
v -104.1193 132.3620 -220.9203
v -112.1476 74.0377 -372.6854
v -89.4951 80.6149 -251.4590
v -104.1193 132.3620 -220.9203
v -104.1193 132.3620 -220.9203
v -89.4951 80.6149 -251.4590
v 15.8399 139.7827 -192.5131
v -89.4951 80.6149 -251.4590
v 22.6525 113.1772 -211.2735
v 15.8399 139.7827 -192.5131
v 15.8399 139.7827 -192.5131
v 22.6525 113.1772 -211.2735
v 86.5476 226.2347 -245.2269
v 22.6525 113.1772 -211.2735
v 112.1476 139.1623 -292.3146
v 86.5476 226.2347 -245.2269
v 86.5476 226.2347 -245.2269
v 112.1476 139.1623 -292.3146
v 37.2960 305.2658 -326.3478
v 112.1476 139.1623 -292.3146
v 89.4951 132.5851 -413.5410
v 37.2960 305.2658 -326.3478
v 37.2960 305.2658 -326.3478
v 89.4951 132.5851 -413.5410
v -82.6632 297.8451 -354.7550
v 89.4951 132.5851 -413.5410
v -22.6525 100.0228 -453.7265
v -82.6632 297.8451 -354.7550
v -82.6632 297.8451 -354.7550
v -22.6525 100.0228 -453.7265
v -153.3708 211.3932 -302.0413
v -22.6525 100.0228 -453.7265
v -112.1476 74.0377 -372.6854
v -153.3708 211.3932 -302.0413
v -112.1476 74.0377 -372.6854
v -68.7686 -70.2560 -298.7909
v -89.4951 80.6149 -251.4590
v -68.7686 -70.2560 -298.7909
v -73.1506 23.3310 -218.3265
v -89.4951 80.6149 -251.4590
v -89.4951 80.6149 -251.4590
v -73.1506 23.3310 -218.3265
v 22.6525 113.1772 -211.2735
v -73.1506 23.3310 -218.3265
v 29.0296 87.9731 -193.1697
v 22.6525 113.1772 -211.2735
v 22.6525 113.1772 -211.2735
v 29.0296 87.9731 -193.1697
v 112.1476 139.1623 -292.3146
v 29.0296 87.9731 -193.1697
v 135.5918 59.0281 -248.4772
v 112.1476 139.1623 -292.3146
v 112.1476 139.1623 -292.3146
v 135.5918 59.0281 -248.4772
v 89.4951 132.5851 -413.5410
v 135.5918 59.0281 -248.4772
v 139.9739 -34.5589 -328.9417
v 89.4951 132.5851 -413.5410
v 89.4951 132.5851 -413.5410
v 139.9739 -34.5589 -328.9417
v -22.6525 100.0228 -453.7265
v 139.9739 -34.5589 -328.9417
v 37.7937 -99.2009 -354.0985
v -22.6525 100.0228 -453.7265
v -22.6525 100.0228 -453.7265
v 37.7937 -99.2009 -354.0985
v -112.1476 74.0377 -372.6854
v 37.7937 -99.2009 -354.0985
v -68.7686 -70.2560 -298.7909
v -112.1476 74.0377 -372.6854
v -68.7686 -70.2560 -298.7909
v -38.3104 -142.3978 -163.0611
v -73.1506 23.3310 -218.3265
v -38.3104 -142.3978 -163.0611
v -52.2048 -26.2673 -123.4012
v -73.1506 23.3310 -218.3265
v -73.1506 23.3310 -218.3265
v -52.2048 -26.2673 -123.4012
v 29.0296 87.9731 -193.1697
v -52.2048 -26.2673 -123.4012
v 45.4269 49.1544 -117.7561
v 29.0296 87.9731 -193.1697
v 29.0296 87.9731 -193.1697
v 45.4269 49.1544 -117.7561
v 135.5918 59.0281 -248.4772
v 45.4269 49.1544 -117.7561
v 156.9529 8.4457 -151.7708
v 135.5918 59.0281 -248.4772
v 135.5918 59.0281 -248.4772
v 156.9529 8.4457 -151.7708
v 139.9739 -34.5589 -328.9417
v 156.9529 8.4457 -151.7708
v 170.8472 -107.6848 -191.4308
v 139.9739 -34.5589 -328.9417
v 139.9739 -34.5589 -328.9417
v 170.8472 -107.6848 -191.4308
v 37.7937 -99.2009 -354.0985
v 170.8472 -107.6848 -191.4308
v 73.2155 -183.1065 -197.0759
v 37.7937 -99.2009 -354.0985
v 37.7937 -99.2009 -354.0985
v 73.2155 -183.1065 -197.0759
v -68.7686 -70.2560 -298.7909
v 73.2155 -183.1065 -197.0759
v -38.3104 -142.3978 -163.0611
v -68.7686 -70.2560 -298.7909
v -38.3104 -142.3978 -163.0611
v -12.5894 -168.2234 -14.7054
v -52.2048 -26.2673 -123.4012
v -12.5894 -168.2234 -14.7054
v -31.9280 -46.6056 -5.3588
v -52.2048 -26.2673 -123.4012
v -52.2048 -26.2673 -123.4012
v -31.9280 -46.6056 -5.3588
v 45.4269 49.1544 -117.7561
v -31.9280 -46.6056 -5.3588
v 62.4904 32.0548 -17.6043
v 45.4269 49.1544 -117.7561
v 45.4269 49.1544 -117.7561
v 62.4904 32.0548 -17.6043
v 156.9529 8.4457 -151.7708
v 62.4904 32.0548 -17.6043
v 176.2475 -10.9027 -39.1965
v 156.9529 8.4457 -151.7708
v 156.9529 8.4457 -151.7708
v 176.2475 -10.9027 -39.1965
v 170.8472 -107.6848 -191.4308
v 176.2475 -10.9027 -39.1965
v 195.5862 -132.5205 -48.5431
v 170.8472 -107.6848 -191.4308
v 170.8472 -107.6848 -191.4308
v 195.5862 -132.5205 -48.5431
v 73.2155 -183.1065 -197.0759
v 195.5862 -132.5205 -48.5431
v 101.1677 -211.1809 -36.2976
v 73.2155 -183.1065 -197.0759
v 73.2155 -183.1065 -197.0759
v 101.1677 -211.1809 -36.2976
v -38.3104 -142.3978 -163.0611
v 101.1677 -211.1809 -36.2976
v -12.5894 -168.2234 -14.7054
v -38.3104 -142.3978 -163.0611
v -12.5894 -168.2234 -14.7054
v 12.8208 -157.3639 137.1582
v -31.9280 -46.6056 -5.3588
v 12.8208 -157.3639 137.1582
v -11.5563 -37.8996 117.5037
v -31.9280 -46.6056 -5.3588
v -31.9280 -46.6056 -5.3588
v -11.5563 -37.8996 117.5037
v 62.4904 32.0548 -17.6043
v -11.5563 -37.8996 117.5037
v 79.5075 39.3268 85.9487
v 62.4904 32.0548 -17.6043
v 62.4904 32.0548 -17.6043
v 79.5075 39.3268 85.9487
v 176.2475 -10.9027 -39.1965
v 79.5075 39.3268 85.9487
v 194.9484 -2.9110 74.0483
v 176.2475 -10.9027 -39.1965
v 176.2475 -10.9027 -39.1965
v 194.9484 -2.9110 74.0483
v 195.5862 -132.5205 -48.5431
v 194.9484 -2.9110 74.0483
v 219.3255 -122.3752 93.7029
v 195.5862 -132.5205 -48.5431
v 195.5862 -132.5205 -48.5431
v 219.3255 -122.3752 93.7029
v 101.1677 -211.1809 -36.2976
v 219.3255 -122.3752 93.7029
v 128.2617 -199.6016 125.2579
v 101.1677 -211.1809 -36.2976
v 101.1677 -211.1809 -36.2976
v 128.2617 -199.6016 125.2579
v -12.5894 -168.2234 -14.7054
v 128.2617 -199.6016 125.2579
v 12.8208 -157.3639 137.1582
v -12.5894 -168.2234 -14.7054
v 12.8208 -157.3639 137.1582
v 42.1355 -103.4908 287.5517
v -11.5563 -37.8996 117.5037
v 42.1355 -103.4908 287.5517
v 11.0459 3.5834 234.4405
v -11.5563 -37.8996 117.5037
v -11.5563 -37.8996 117.5037
v 11.0459 3.5834 234.4405
v 79.5075 39.3268 85.9487
v 11.0459 3.5834 234.4405
v 96.8902 71.1758 176.8707
v 79.5075 39.3268 85.9487
v 79.5075 39.3268 85.9487
v 96.8902 71.1758 176.8707
v 194.9484 -2.9110 74.0483
v 96.8902 71.1758 176.8707
v 213.8242 31.6940 172.4123
v 194.9484 -2.9110 74.0483
v 194.9484 -2.9110 74.0483
v 213.8242 31.6940 172.4123
v 219.3255 -122.3752 93.7029
v 213.8242 31.6940 172.4123
v 244.9139 -75.3802 225.5235
v 219.3255 -122.3752 93.7029
v 219.3255 -122.3752 93.7029
v 244.9139 -75.3802 225.5235
v 128.2617 -199.6016 125.2579
v 244.9139 -75.3802 225.5235
v 159.0695 -142.9726 283.0933
v 128.2617 -199.6016 125.2579
v 128.2617 -199.6016 125.2579
v 159.0695 -142.9726 283.0933
v 12.8208 -157.3639 137.1582
v 159.0695 -142.9726 283.0933
v 42.1355 -103.4908 287.5517
v 12.8208 -157.3639 137.1582
v 42.1355 -103.4908 287.5517
v 86.9563 32.4154 419.5710
v 11.0459 3.5834 234.4405
v 86.9563 32.4154 419.5710
v 39.6791 90.9782 321.6551
v 11.0459 3.5834 234.4405
v 11.0459 3.5834 234.4405
v 39.6791 90.9782 321.6551
v 96.8902 71.1758 176.8707
v 39.6791 90.9782 321.6551
v 110.8921 114.7227 223.5880
v 96.8902 71.1758 176.8707
v 96.8902 71.1758 176.8707
v 110.8921 114.7227 223.5880
v 213.8242 31.6940 172.4123
v 110.8921 114.7227 223.5880
v 229.3823 79.9045 223.4367
v 213.8242 31.6940 172.4123
v 213.8242 31.6940 172.4123
v 229.3823 79.9045 223.4367
v 244.9139 -75.3802 225.5235
v 229.3823 79.9045 223.4367
v 276.6595 21.3417 321.3526
v 244.9139 -75.3802 225.5235
v 244.9139 -75.3802 225.5235
v 276.6595 21.3417 321.3526
v 159.0695 -142.9726 283.0933
v 276.6595 21.3417 321.3526
v 205.4465 -2.4028 419.4197
v 159.0695 -142.9726 283.0933
v 159.0695 -142.9726 283.0933
v 205.4465 -2.4028 419.4197
v 42.1355 -103.4908 287.5517
v 205.4465 -2.4028 419.4197
v 86.9563 32.4154 419.5710
v 42.1355 -103.4908 287.5517
v 86.9563 32.4154 419.5710
v 151.5254 253.6199 398.5295
v 39.6791 90.9782 321.6551
v 151.5254 253.6199 398.5295
v 75.3553 215.6484 309.0391
v 39.6791 90.9782 321.6551
v 39.6791 90.9782 321.6551
v 75.3553 215.6484 309.0391
v 110.8921 114.7227 223.5880
v 75.3553 215.6484 309.0391
v 117.3157 141.6569 219.5023
v 110.8921 114.7227 223.5880
v 110.8921 114.7227 223.5880
v 117.3157 141.6569 219.5023
v 229.3823 79.9045 223.4367
v 117.3157 141.6569 219.5023
v 235.4462 105.6370 219.4560
v 229.3823 79.9045 223.4367
v 229.3823 79.9045 223.4367
v 235.4462 105.6370 219.4560
v 276.6595 21.3417 321.3526
v 235.4462 105.6370 219.4560
v 311.6162 143.6085 308.9464
v 276.6595 21.3417 321.3526
v 276.6595 21.3417 321.3526
v 311.6162 143.6085 308.9464
v 205.4465 -2.4028 419.4197
v 311.6162 143.6085 308.9464
v 269.6559 217.5999 398.4832
v 205.4465 -2.4028 419.4197
v 205.4465 -2.4028 419.4197
v 269.6559 217.5999 398.4832
v 86.9563 32.4154 419.5710
v 269.6559 217.5999 398.4832
v 151.5254 253.6199 398.5295
v 86.9563 32.4154 419.5710
v 151.5254 253.6199 398.5295
v 193.1746 371.8703 252.9682
v 75.3553 215.6484 309.0391
v 193.1746 371.8703 252.9682
v 105.5681 301.6364 201.5432
v 75.3553 215.6484 309.0391
v 75.3553 215.6484 309.0391
v 105.5681 301.6364 201.5432
v 117.3157 141.6569 219.5023
v 105.5681 301.6364 201.5432
v 134.4278 190.6879 155.6108
v 117.3157 141.6569 219.5023
v 117.3157 141.6569 219.5023
v 134.4278 190.6879 155.6108
v 235.4462 105.6370 219.4560
v 134.4278 190.6879 155.6108
v 250.8942 149.9733 161.1034
v 235.4462 105.6370 219.4560
v 235.4462 105.6370 219.4560
v 250.8942 149.9733 161.1034
v 311.6162 143.6085 308.9464
v 250.8942 149.9733 161.1034
v 338.5007 220.2072 212.5285
v 311.6162 143.6085 308.9464
v 311.6162 143.6085 308.9464
v 338.5007 220.2072 212.5285
v 269.6559 217.5999 398.4832
v 338.5007 220.2072 212.5285
v 309.6409 331.1558 258.4609
v 269.6559 217.5999 398.4832
v 269.6559 217.5999 398.4832
v 309.6409 331.1558 258.4609
v 151.5254 253.6199 398.5295
v 309.6409 331.1558 258.4609
v 193.1746 371.8703 252.9682
v 151.5254 253.6199 398.5295
v 193.1746 371.8703 252.9682
v 222.6922 418.2270 94.3140
v 105.5681 301.6364 201.5432
v 222.6922 418.2270 94.3140
v 130.5225 340.7923 66.7300
v 105.5681 301.6364 201.5432
v 105.5681 301.6364 201.5432
v 130.5225 340.7923 66.7300
v 134.4278 190.6879 155.6108
v 130.5225 340.7923 66.7300
v 153.2913 220.2320 52.6214
v 134.4278 190.6879 155.6108
v 134.4278 190.6879 155.6108
v 153.2913 220.2320 52.6214
v 250.8942 149.9733 161.1034
v 153.2913 220.2320 52.6214
v 268.2297 177.1064 66.0969
v 250.8942 149.9733 161.1034
v 250.8942 149.9733 161.1034
v 268.2297 177.1064 66.0969
v 338.5007 220.2072 212.5285
v 268.2297 177.1064 66.0969
v 360.3994 254.5410 93.6809
v 338.5007 220.2072 212.5285
v 338.5007 220.2072 212.5285
v 360.3994 254.5410 93.6809
v 309.6409 331.1558 258.4609
v 360.3994 254.5410 93.6809
v 337.6306 375.1013 107.7894
v 309.6409 331.1558 258.4609
v 309.6409 331.1558 258.4609
v 337.6306 375.1013 107.7894
v 193.1746 371.8703 252.9682
v 337.6306 375.1013 107.7894
v 222.6922 418.2270 94.3140
v 193.1746 371.8703 252.9682
v 222.6922 418.2270 94.3140
v 249.6477 422.2591 -67.5712
v 130.5225 340.7923 66.7300
v 249.6477 422.2591 -67.5712
v 154.2339 344.3379 -76.3303
v 130.5225 340.7923 66.7300
v 130.5225 340.7923 66.7300
v 154.2339 344.3379 -76.3303
v 153.2913 220.2320 52.6214
v 154.2339 344.3379 -76.3303
v 172.0129 223.0292 -61.4857
v 153.2913 220.2320 52.6214
v 153.2913 220.2320 52.6214
v 172.0129 223.0292 -61.4857
v 268.2297 177.1064 66.0969
v 172.0129 223.0292 -61.4857
v 285.2059 179.6418 -37.8819
v 268.2297 177.1064 66.0969
v 268.2297 177.1064 66.0969
v 285.2059 179.6418 -37.8819
v 360.3994 254.5410 93.6809
v 285.2059 179.6418 -37.8819
v 380.6198 257.5630 -29.1228
v 360.3994 254.5410 93.6809
v 360.3994 254.5410 93.6809
v 380.6198 257.5630 -29.1228
v 337.6306 375.1013 107.7894
v 380.6198 257.5630 -29.1228
v 362.8407 378.8717 -43.9674
v 337.6306 375.1013 107.7894
v 337.6306 375.1013 107.7894
v 362.8407 378.8717 -43.9674
v 222.6922 418.2270 94.3140
v 362.8407 378.8717 -43.9674
v 249.6477 422.2591 -67.5712
v 222.6922 418.2270 94.3140
v 249.6477 422.2591 -67.5712
v 278.4042 385.4184 -228.3624
v 154.2339 344.3379 -76.3303
v 278.4042 385.4184 -228.3624
v 179.7263 311.7003 -219.3861
v 154.2339 344.3379 -76.3303
v 154.2339 344.3379 -76.3303
v 179.7263 311.7003 -219.3861
v 172.0129 223.0292 -61.4857
v 179.7263 311.7003 -219.3861
v 191.7053 197.8607 -173.0257
v 172.0129 223.0292 -61.4857
v 172.0129 223.0292 -61.4857
v 191.7053 197.8607 -173.0257
v 285.2059 179.6418 -37.8819
v 191.7053 197.8607 -173.0257
v 302.3621 157.7392 -135.6414
v 285.2059 179.6418 -37.8819
v 285.2059 179.6418 -37.8819
v 302.3621 157.7392 -135.6414
v 380.6198 257.5630 -29.1228
v 302.3621 157.7392 -135.6414
v 401.0400 231.4572 -144.6177
v 380.6198 257.5630 -29.1228
v 380.6198 257.5630 -29.1228
v 401.0400 231.4572 -144.6177
v 362.8407 378.8717 -43.9674
v 401.0400 231.4572 -144.6177
v 389.0610 345.2969 -190.9782
v 362.8407 378.8717 -43.9674
v 362.8407 378.8717 -43.9674
v 389.0610 345.2969 -190.9782
v 249.6477 422.2591 -67.5712
v 389.0610 345.2969 -190.9782
v 278.4042 385.4184 -228.3624
v 249.6477 422.2591 -67.5712
v 278.4042 385.4184 -228.3624
v 316.8685 285.0801 -382.5648
v 179.7263 311.7003 -219.3861
v 316.8685 285.0801 -382.5648
v 213.0270 224.8029 -353.6535
v 179.7263 311.7003 -219.3861
v 179.7263 311.7003 -219.3861
v 213.0270 224.8029 -353.6535
v 191.7053 197.8607 -173.0257
v 213.0270 224.8029 -353.6535
v 213.6024 140.6469 -263.2672
v 191.7053 197.8607 -173.0257
v 191.7053 197.8607 -173.0257
v 213.6024 140.6469 -263.2672
v 302.3621 157.7392 -135.6414
v 213.6024 140.6469 -263.2672
v 318.0192 116.7682 -201.7921
v 302.3621 157.7392 -135.6414
v 302.3621 157.7392 -135.6414
v 318.0192 116.7682 -201.7921
v 401.0400 231.4572 -144.6177
v 318.0192 116.7682 -201.7921
v 421.8606 177.0455 -230.7033
v 401.0400 231.4572 -144.6177
v 401.0400 231.4572 -144.6177
v 421.8606 177.0455 -230.7033
v 389.0610 345.2969 -190.9782
v 421.8606 177.0455 -230.7033
v 421.2852 261.2014 -321.0897
v 389.0610 345.2969 -190.9782
v 389.0610 345.2969 -190.9782
v 421.2852 261.2014 -321.0897
v 278.4042 385.4184 -228.3624
v 421.2852 261.2014 -321.0897
v 316.8685 285.0801 -382.5648
v 278.4042 385.4184 -228.3624
v 316.8685 285.0801 -382.5648
v 382.4536 63.5157 -448.1639
v 213.0270 224.8029 -353.6535
v 382.4536 63.5157 -448.1639
v 267.7839 38.9703 -409.4260
v 213.0270 224.8029 -353.6535
v 213.0270 224.8029 -353.6535
v 267.7839 38.9703 -409.4260
v 213.6024 140.6469 -263.2672
v 267.7839 38.9703 -409.4260
v 237.4841 56.6980 -291.0203
v 213.6024 140.6469 -263.2672
v 213.6024 140.6469 -263.2672
v 237.4841 56.6980 -291.0203
v 318.0192 116.7682 -201.7921
v 237.4841 56.6980 -291.0203
v 321.8540 98.9712 -211.3526
v 318.0192 116.7682 -201.7921
v 318.0192 116.7682 -201.7921
v 321.8540 98.9712 -211.3526
v 421.8606 177.0455 -230.7033
v 321.8540 98.9712 -211.3526
v 436.5237 123.5167 -250.0905
v 421.8606 177.0455 -230.7033
v 421.8606 177.0455 -230.7033
v 436.5237 123.5167 -250.0905
v 421.2852 261.2014 -321.0897
v 436.5237 123.5167 -250.0905
v 466.8235 105.7890 -368.4962
v 421.2852 261.2014 -321.0897
v 421.2852 261.2014 -321.0897
v 466.8235 105.7890 -368.4962
v 316.8685 285.0801 -382.5648
v 466.8235 105.7890 -368.4962
v 382.4536 63.5157 -448.1639
v 316.8685 285.0801 -382.5648
v 382.4536 63.5157 -448.1639
v 435.9293 -107.0447 -325.3690
v 267.7839 38.9703 -409.4260
v 435.9293 -107.0447 -325.3690
v 315.4229 -113.2976 -299.0752
v 267.7839 38.9703 -409.4260
v 267.7839 38.9703 -409.4260
v 315.4229 -113.2976 -299.0752
v 237.4841 56.6980 -291.0203
v 315.4229 -113.2976 -299.0752
v 263.4434 -27.6241 -226.8918
v 237.4841 56.6980 -291.0203
v 237.4841 56.6980 -291.0203
v 263.4434 -27.6241 -226.8918
v 321.8540 98.9712 -211.3526
v 263.4434 -27.6241 -226.8918
v 331.9703 64.3023 -181.0023
v 321.8540 98.9712 -211.3526
v 321.8540 98.9712 -211.3526
v 331.9703 64.3023 -181.0023
v 436.5237 123.5167 -250.0905
v 331.9703 64.3023 -181.0023
v 452.4767 70.5552 -207.2961
v 436.5237 123.5167 -250.0905
v 436.5237 123.5167 -250.0905
v 452.4767 70.5552 -207.2961
v 466.8235 105.7890 -368.4962
v 452.4767 70.5552 -207.2961
v 504.4562 -15.1183 -279.4795
v 466.8235 105.7890 -368.4962
v 466.8235 105.7890 -368.4962
v 504.4562 -15.1183 -279.4795
v 382.4536 63.5157 -448.1639
v 504.4562 -15.1183 -279.4795
v 435.9293 -107.0447 -325.3690
v 382.4536 63.5157 -448.1639
v 435.9293 -107.0447 -325.3690
v 468.4126 -175.7597 -169.4817
v 315.4229 -113.2976 -299.0752
v 468.4126 -175.7597 -169.4817
v 346.7920 -179.6495 -148.3742
v 315.4229 -113.2976 -299.0752
v 315.4229 -113.2976 -299.0752
v 346.7920 -179.6495 -148.3742
v 263.4434 -27.6241 -226.8918
v 346.7920 -179.6495 -148.3742
v 287.2796 -78.0012 -111.2506
v 263.4434 -27.6241 -226.8918
v 263.4434 -27.6241 -226.8918
v 287.2796 -78.0012 -111.2506
v 331.9703 64.3023 -181.0023
v 287.2796 -78.0012 -111.2506
v 349.3880 27.5368 -95.2344
v 331.9703 64.3023 -181.0023
v 331.9703 64.3023 -181.0023
v 349.3880 27.5368 -95.2344
v 452.4767 70.5552 -207.2961
v 349.3880 27.5368 -95.2344
v 471.0087 31.4266 -116.3419
v 452.4767 70.5552 -207.2961
v 452.4767 70.5552 -207.2961
v 471.0087 31.4266 -116.3419
v 504.4562 -15.1183 -279.4795
v 471.0087 31.4266 -116.3419
v 530.5210 -70.2216 -153.4656
v 504.4562 -15.1183 -279.4795
v 504.4562 -15.1183 -279.4795
v 530.5210 -70.2216 -153.4656
v 435.9293 -107.0447 -325.3690
v 530.5210 -70.2216 -153.4656
v 468.4126 -175.7597 -169.4817
v 435.9293 -107.0447 -325.3690
v 468.4126 -175.7597 -169.4817
v 495.2616 -195.1702 -11.6785
v 346.7920 -179.6495 -148.3742
v 495.2616 -195.1702 -11.6785
v 373.6031 -199.0327 9.2152
v 346.7920 -179.6495 -148.3742
v 346.7920 -179.6495 -148.3742
v 373.6031 -199.0327 9.2152
v 287.2796 -78.0012 -111.2506
v 373.6031 -199.0327 9.2152
v 309.4955 -94.0622 20.3351
v 287.2796 -78.0012 -111.2506
v 287.2796 -78.0012 -111.2506
v 309.4955 -94.0622 20.3351
v 349.3880 27.5368 -95.2344
v 309.4955 -94.0622 20.3351
v 367.0464 14.7708 10.5614
v 349.3880 27.5368 -95.2344
v 349.3880 27.5368 -95.2344
v 367.0464 14.7708 10.5614
v 471.0087 31.4266 -116.3419
v 367.0464 14.7708 10.5614
v 488.7049 18.6333 -10.3322
v 471.0087 31.4266 -116.3419
v 471.0087 31.4266 -116.3419
v 488.7049 18.6333 -10.3322
v 530.5210 -70.2216 -153.4656
v 488.7049 18.6333 -10.3322
v 552.8125 -86.3372 -21.4522
v 530.5210 -70.2216 -153.4656
v 530.5210 -70.2216 -153.4656
v 552.8125 -86.3372 -21.4522
v 468.4126 -175.7597 -169.4817
v 552.8125 -86.3372 -21.4522
v 495.2616 -195.1702 -11.6785
v 468.4126 -175.7597 -169.4817
v 495.2616 -195.1702 -11.6785
v 521.8789 -176.2595 144.9111
v 373.6031 -199.0327 9.2152
v 521.8789 -176.2595 144.9111
v 400.5771 -179.8685 167.8262
v 373.6031 -199.0327 9.2152
v 373.6031 -199.0327 9.2152
v 400.5771 -179.8685 167.8262
v 309.4955 -94.0622 20.3351
v 400.5771 -179.8685 167.8262
v 332.0983 -78.0033 154.1740
v 309.4955 -94.0622 20.3351
v 309.4955 -94.0622 20.3351
v 332.0983 -78.0033 154.1740
v 367.0464 14.7708 10.5614
v 332.0983 -78.0033 154.1740
v 384.9213 27.4709 117.6067
v 367.0464 14.7708 10.5614
v 367.0464 14.7708 10.5614
v 384.9213 27.4709 117.6067
v 488.7049 18.6333 -10.3322
v 384.9213 27.4709 117.6067
v 506.2230 31.0800 94.6916
v 488.7049 18.6333 -10.3322
v 488.7049 18.6333 -10.3322
v 506.2230 31.0800 94.6916
v 552.8125 -86.3372 -21.4522
v 506.2230 31.0800 94.6916
v 574.7019 -70.7852 108.3438
v 552.8125 -86.3372 -21.4522
v 552.8125 -86.3372 -21.4522
v 574.7019 -70.7852 108.3438
v 495.2616 -195.1702 -11.6785
v 574.7019 -70.7852 108.3438
v 521.8789 -176.2595 144.9111
v 495.2616 -195.1702 -11.6785
v 521.8789 -176.2595 144.9111
v 552.8391 -111.1172 294.1839
v 400.5771 -179.8685 167.8262
v 552.8391 -111.1172 294.1839
v 433.1284 -111.3687 324.5407
v 400.5771 -179.8685 167.8262
v 400.5771 -179.8685 167.8262
v 433.1284 -111.3687 324.5407
v 332.0983 -78.0033 154.1740
v 433.1284 -111.3687 324.5407
v 358.6027 -22.2638 282.6065
v 332.0983 -78.0033 154.1740
v 332.0983 -78.0033 154.1740
v 358.6027 -22.2638 282.6065
v 384.9213 27.4709 117.6067
v 358.6027 -22.2638 282.6065
v 403.7877 67.0927 210.3156
v 384.9213 27.4709 117.6067
v 384.9213 27.4709 117.6067
v 403.7877 67.0927 210.3156
v 506.2230 31.0800 94.6916
v 403.7877 67.0927 210.3156
v 523.4984 67.3442 179.9587
v 506.2230 31.0800 94.6916
v 506.2230 31.0800 94.6916
v 523.4984 67.3442 179.9587
v 574.7019 -70.7852 108.3438
v 523.4984 67.3442 179.9587
v 598.0241 -21.7607 221.8929
v 574.7019 -70.7852 108.3438
v 574.7019 -70.7852 108.3438
v 598.0241 -21.7607 221.8929
v 521.8789 -176.2595 144.9111
v 598.0241 -21.7607 221.8929
v 552.8391 -111.1172 294.1839
v 521.8789 -176.2595 144.9111
v 552.8391 -111.1172 294.1839
v 599.1928 36.8935 403.2023
v 433.1284 -111.3687 324.5407
v 599.1928 36.8935 403.2023
v 486.5245 58.7014 448.8369
v 433.1284 -111.3687 324.5407
v 433.1284 -111.3687 324.5407
v 486.5245 58.7014 448.8369
v 358.6027 -22.2638 282.6065
v 486.5245 58.7014 448.8369
v 397.3562 101.9401 375.1370
v 358.6027 -22.2638 282.6065
v 358.6027 -22.2638 282.6065
v 397.3562 101.9401 375.1370
v 403.7877 67.0927 210.3156
v 397.3562 101.9401 375.1370
v 420.8562 123.3711 255.8025
v 403.7877 67.0927 210.3156
v 403.7877 67.0927 210.3156
v 420.8562 123.3711 255.8025
v 523.4984 67.3442 179.9587
v 420.8562 123.3711 255.8025
v 533.5246 101.5632 210.1680
v 523.4984 67.3442 179.9587
v 523.4984 67.3442 179.9587
v 533.5246 101.5632 210.1680
v 598.0241 -21.7607 221.8929
v 533.5246 101.5632 210.1680
v 622.6929 58.3245 283.8679
v 598.0241 -21.7607 221.8929
v 598.0241 -21.7607 221.8929
v 622.6929 58.3245 283.8679
v 552.8391 -111.1172 294.1839
v 622.6929 58.3245 283.8679
v 599.1928 36.8935 403.2023
v 552.8391 -111.1172 294.1839
v 599.1928 36.8935 403.2023
v 652.6073 218.4622 350.3092
v 486.5245 58.7014 448.8369
v 652.6073 218.4622 350.3092
v 552.6459 282.2488 384.8235
v 486.5245 58.7014 448.8369
v 486.5245 58.7014 448.8369
v 552.6459 282.2488 384.8235
v 397.3562 101.9401 375.1370
v 552.6459 282.2488 384.8235
v 444.8379 263.9091 327.4359
v 397.3562 101.9401 375.1370
v 397.3562 101.9401 375.1370
v 444.8379 263.9091 327.4359
v 420.8562 123.3711 255.8025
v 444.8379 263.9091 327.4359
v 436.9913 181.7828 235.5340
v 420.8562 123.3711 255.8025
v 420.8562 123.3711 255.8025
v 436.9913 181.7828 235.5340
v 533.5246 101.5632 210.1680
v 436.9913 181.7828 235.5340
v 536.9527 117.9961 201.0198
v 533.5246 101.5632 210.1680
v 533.5246 101.5632 210.1680
v 536.9527 117.9961 201.0198
v 622.6929 58.3245 283.8679
v 536.9527 117.9961 201.0198
v 644.7607 136.3358 258.4074
v 622.6929 58.3245 283.8679
v 622.6929 58.3245 283.8679
v 644.7607 136.3358 258.4074
v 599.1928 36.8935 403.2023
v 644.7607 136.3358 258.4074
v 652.6073 218.4622 350.3092
v 599.1928 36.8935 403.2023
v 652.6073 218.4622 350.3092
v 685.4266 304.4203 218.5548
v 552.6459 282.2488 384.8235
v 685.4266 304.4203 218.5548
v 591.3015 383.4470 230.6994
v 552.6459 282.2488 384.8235
v 552.6459 282.2488 384.8235
v 591.3015 383.4470 230.6994
v 444.8379 263.9091 327.4359
v 591.3015 383.4470 230.6994
v 477.7839 350.1983 195.1956
v 444.8379 263.9091 327.4359
v 444.8379 263.9091 327.4359
v 477.7839 350.1983 195.1956
v 436.9913 181.7828 235.5340
v 477.7839 350.1983 195.1956
v 458.3914 237.9227 147.5471
v 436.9913 181.7828 235.5340
v 436.9913 181.7828 235.5340
v 458.3914 237.9227 147.5471
v 536.9527 117.9961 201.0198
v 458.3914 237.9227 147.5471
v 552.5165 158.8960 135.4024
v 536.9527 117.9961 201.0198
v 536.9527 117.9961 201.0198
v 552.5165 158.8960 135.4024
v 644.7607 136.3358 258.4074
v 552.5165 158.8960 135.4024
v 666.0341 192.1448 170.9063
v 644.7607 136.3358 258.4074
v 644.7607 136.3358 258.4074
v 666.0341 192.1448 170.9063
v 652.6073 218.4622 350.3092
v 666.0341 192.1448 170.9063
v 685.4266 304.4203 218.5548
v 652.6073 218.4622 350.3092
v 685.4266 304.4203 218.5548
v 710.6146 336.9737 77.3500
v 591.3015 383.4470 230.6994
v 710.6146 336.9737 77.3500
v 620.0616 420.6426 70.1440
v 591.3015 383.4470 230.6994
v 591.3015 383.4470 230.6994
v 620.0616 420.6426 70.1440
v 477.7839 350.1983 195.1956
v 620.0616 420.6426 70.1440
v 504.3212 384.5051 46.6816
v 477.7839 350.1983 195.1956
v 477.7839 350.1983 195.1956
v 504.3212 384.5051 46.6816
v 458.3914 237.9227 147.5471
v 504.3212 384.5051 46.6816
v 479.1337 264.6987 30.4252
v 458.3914 237.9227 147.5471
v 458.3914 237.9227 147.5471
v 479.1337 264.6987 30.4252
v 552.5165 158.8960 135.4024
v 479.1337 264.6987 30.4252
v 569.6867 181.0298 37.6312
v 552.5165 158.8960 135.4024
v 552.5165 158.8960 135.4024
v 569.6867 181.0298 37.6312
v 666.0341 192.1448 170.9063
v 569.6867 181.0298 37.6312
v 685.4271 217.1673 61.0936
v 666.0341 192.1448 170.9063
v 666.0341 192.1448 170.9063
v 685.4271 217.1673 61.0936
v 685.4266 304.4203 218.5548
v 685.4271 217.1673 61.0936
v 710.6146 336.9737 77.3500
v 685.4266 304.4203 218.5548
v 710.6146 336.9737 77.3500
v 734.0442 333.7731 -64.0884
v 620.0616 420.6426 70.1440
v 734.0442 333.7731 -64.0884
v 646.9586 416.9691 -91.4157
v 620.0616 420.6426 70.1440
v 620.0616 420.6426 70.1440
v 646.9586 416.9691 -91.4157
v 504.3212 384.5051 46.6816
v 646.9586 416.9691 -91.4157
v 529.7573 381.0308 -106.4003
v 504.3212 384.5051 46.6816
v 504.3212 384.5051 46.6816
v 529.7573 381.0308 -106.4003
v 479.1337 264.6987 30.4252
v 529.7573 381.0308 -106.4003
v 499.6415 261.8967 -94.0576
v 479.1337 264.6987 30.4252
v 479.1337 264.6987 30.4252
v 499.6415 261.8967 -94.0576
v 569.6867 181.0298 37.6312
v 499.6415 261.8967 -94.0576
v 586.7271 178.7007 -66.7303
v 569.6867 181.0298 37.6312
v 569.6867 181.0298 37.6312
v 586.7271 178.7007 -66.7303
v 685.4271 217.1673 61.0936
v 586.7271 178.7007 -66.7303
v 703.9285 214.6390 -51.7457
v 685.4271 217.1673 61.0936
v 685.4271 217.1673 61.0936
v 703.9285 214.6390 -51.7457
v 710.6146 336.9737 77.3500
v 703.9285 214.6390 -51.7457
v 734.0442 333.7731 -64.0884
v 710.6146 336.9737 77.3500
v 734.0442 333.7731 -64.0884
v 758.5873 295.5620 -196.9862
v 646.9586 416.9691 -91.4157
v 758.5873 295.5620 -196.9862
v 676.2921 371.2543 -249.4306
v 646.9586 416.9691 -91.4157
v 646.9586 416.9691 -91.4157
v 676.2921 371.2543 -249.4306
v 529.7573 381.0308 -106.4003
v 676.2921 371.2543 -249.4306
v 557.9494 337.1038 -258.4309
v 529.7573 381.0308 -106.4003
v 529.7573 381.0308 -106.4003
v 557.9494 337.1038 -258.4309
v 499.6415 261.8967 -94.0576
v 557.9494 337.1038 -258.4309
v 521.9020 227.2611 -214.9867
v 499.6415 261.8967 -94.0576
v 499.6415 261.8967 -94.0576
v 521.9020 227.2611 -214.9867
v 586.7271 178.7007 -66.7303
v 521.9020 227.2611 -214.9867
v 604.1972 151.5687 -162.5423
v 586.7271 178.7007 -66.7303
v 586.7271 178.7007 -66.7303
v 604.1972 151.5687 -162.5423
v 703.9285 214.6390 -51.7457
v 604.1972 151.5687 -162.5423
v 722.5399 185.7192 -153.5421
v 703.9285 214.6390 -51.7457
v 703.9285 214.6390 -51.7457
v 722.5399 185.7192 -153.5421
v 734.0442 333.7731 -64.0884
v 722.5399 185.7192 -153.5421
v 758.5873 295.5620 -196.9862
v 734.0442 333.7731 -64.0884
v 758.5873 295.5620 -196.9862
v 787.8689 212.4689 -302.0201
v 676.2921 371.2543 -249.4306
v 787.8689 212.4689 -302.0201
v 717.3596 254.9933 -394.0656
v 676.2921 371.2543 -249.4306
v 676.2921 371.2543 -249.4306
v 717.3596 254.9933 -394.0656
v 557.9494 337.1038 -258.4309
v 717.3596 254.9933 -394.0656
v 598.2248 223.0720 -400.4043
v 557.9494 337.1038 -258.4309
v 557.9494 337.1038 -258.4309
v 598.2248 223.0720 -400.4043
v 521.9020 227.2611 -214.9867
v 598.2248 223.0720 -400.4043
v 549.5992 148.6264 -314.6976
v 521.9020 227.2611 -214.9867
v 521.9020 227.2611 -214.9867
v 549.5992 148.6264 -314.6976
v 604.1972 151.5687 -162.5423
v 549.5992 148.6264 -314.6976
v 620.1085 106.1020 -222.6521
v 604.1972 151.5687 -162.5423
v 604.1972 151.5687 -162.5423
v 620.1085 106.1020 -222.6521
v 722.5399 185.7192 -153.5421
v 620.1085 106.1020 -222.6521
v 739.2433 138.0232 -216.3134
v 722.5399 185.7192 -153.5421
v 722.5399 185.7192 -153.5421
v 739.2433 138.0232 -216.3134
v 758.5873 295.5620 -196.9862
v 739.2433 138.0232 -216.3134
v 787.8689 212.4689 -302.0201
v 758.5873 295.5620 -196.9862
v 787.8689 212.4689 -302.0201
v 821.4486 94.8350 -315.0838
v 717.3596 254.9933 -394.0656
v 821.4486 94.8350 -315.0838
v 780.7604 37.7608 -416.7660
v 717.3596 254.9933 -394.0656
v 717.3596 254.9933 -394.0656
v 780.7604 37.7608 -416.7660
v 598.2248 223.0720 -400.4043
v 780.7604 37.7608 -416.7660
v 663.3342 0.1328 -423.6569
v 598.2248 223.0720 -400.4043
v 598.2248 223.0720 -400.4043
v 663.3342 0.1328 -423.6569
v 549.5992 148.6264 -314.6976
v 663.3342 0.1328 -423.6569
v 586.5963 19.5790 -328.8656
v 549.5992 148.6264 -314.6976
v 549.5992 148.6264 -314.6976
v 586.5963 19.5790 -328.8656
v 620.1085 106.1020 -222.6521
v 586.5963 19.5790 -328.8656
v 627.2845 76.6532 -227.1834
v 620.1085 106.1020 -222.6521
v 620.1085 106.1020 -222.6521
v 627.2845 76.6532 -227.1834
v 739.2433 138.0232 -216.3134
v 627.2845 76.6532 -227.1834
v 744.7107 114.2811 -220.2925
v 739.2433 138.0232 -216.3134
v 739.2433 138.0232 -216.3134
v 744.7107 114.2811 -220.2925
v 787.8689 212.4689 -302.0201
v 744.7107 114.2811 -220.2925
v 821.4486 94.8350 -315.0838
v 787.8689 212.4689 -302.0201
v 821.4486 94.8350 -315.0838
v 849.0563 10.2863 -231.3503
v 780.7604 37.7608 -416.7660
v 849.0563 10.2863 -231.3503
v 825.2213 -97.3685 -286.9792
v 780.7604 37.7608 -416.7660
v 780.7604 37.7608 -416.7660
v 825.2213 -97.3685 -286.9792
v 663.3342 0.1328 -423.6569
v 825.2213 -97.3685 -286.9792
v 710.4647 -143.0087 -286.5750
v 663.3342 0.1328 -423.6569
v 663.3342 0.1328 -423.6569
v 710.4647 -143.0087 -286.5750
v 586.5963 19.5790 -328.8656
v 710.4647 -143.0087 -286.5750
v 619.5432 -80.9940 -230.5420
v 586.5963 19.5790 -328.8656
v 586.5963 19.5790 -328.8656
v 619.5432 -80.9940 -230.5420
v 627.2845 76.6532 -227.1834
v 619.5432 -80.9940 -230.5420
v 643.3782 26.6609 -174.9130
v 627.2845 76.6532 -227.1834
v 627.2845 76.6532 -227.1834
v 643.3782 26.6609 -174.9130
v 744.7107 114.2811 -220.2925
v 643.3782 26.6609 -174.9130
v 758.1348 72.3010 -175.3172
v 744.7107 114.2811 -220.2925
v 744.7107 114.2811 -220.2925
v 758.1348 72.3010 -175.3172
v 821.4486 94.8350 -315.0838
v 758.1348 72.3010 -175.3172
v 849.0563 10.2863 -231.3503
v 821.4486 94.8350 -315.0838
v 849.0563 10.2863 -231.3503
v 871.2405 -30.6867 -116.7306
v 825.2213 -97.3685 -286.9792
v 871.2405 -30.6867 -116.7306
v 854.2852 -151.1168 -138.2101
v 825.2213 -97.3685 -286.9792
v 825.2213 -97.3685 -286.9792
v 854.2852 -151.1168 -138.2101
v 710.4647 -143.0087 -286.5750
v 854.2852 -151.1168 -138.2101
v 741.4539 -200.3318 -128.2499
v 710.4647 -143.0087 -286.5750
v 710.4647 -143.0087 -286.5750
v 741.4539 -200.3318 -128.2499
v 619.5432 -80.9940 -230.5420
v 741.4539 -200.3318 -128.2499
v 645.5778 -129.1169 -96.8101
v 619.5432 -80.9940 -230.5420
v 619.5432 -80.9940 -230.5420
v 645.5778 -129.1169 -96.8101
v 643.3782 26.6609 -174.9130
v 645.5778 -129.1169 -96.8101
v 662.5331 -8.6868 -75.3305
v 643.3782 26.6609 -174.9130
v 643.3782 26.6609 -174.9130
v 662.5331 -8.6868 -75.3305
v 758.1348 72.3010 -175.3172
v 662.5331 -8.6868 -75.3305
v 775.3645 40.5283 -85.2907
v 758.1348 72.3010 -175.3172
v 758.1348 72.3010 -175.3172
v 775.3645 40.5283 -85.2907
v 849.0563 10.2863 -231.3503
v 775.3645 40.5283 -85.2907
v 871.2405 -30.6867 -116.7306
v 849.0563 10.2863 -231.3503
v 871.2405 -30.6867 -116.7306
v 891.3363 -39.5335 4.5089
v 854.2852 -151.1168 -138.2101
v 891.3363 -39.5335 4.5089
v 879.4783 -162.2121 12.3580
v 854.2852 -151.1168 -138.2101
v 854.2852 -151.1168 -138.2101
v 879.4783 -162.2121 12.3580
v 741.4539 -200.3318 -128.2499
v 879.4783 -162.2121 12.3580
v 768.6184 -212.2969 33.6621
v 741.4539 -200.3318 -128.2499
v 741.4539 -200.3318 -128.2499
v 768.6184 -212.2969 33.6621
v 645.5778 -129.1169 -96.8101
v 768.6184 -212.2969 33.6621
v 669.6166 -139.7031 47.1171
v 645.5778 -129.1169 -96.8101
v 645.5778 -129.1169 -96.8101
v 669.6166 -139.7031 47.1171
v 662.5331 -8.6868 -75.3305
v 669.6166 -139.7031 47.1171
v 681.4747 -17.0245 39.2680
v 662.5331 -8.6868 -75.3305
v 662.5331 -8.6868 -75.3305
v 681.4747 -17.0245 39.2680
v 775.3645 40.5283 -85.2907
v 681.4747 -17.0245 39.2680
v 792.3345 33.0603 17.9639
v 775.3645 40.5283 -85.2907
v 775.3645 40.5283 -85.2907
v 792.3345 33.0603 17.9639
v 871.2405 -30.6867 -116.7306
v 792.3345 33.0603 17.9639
v 891.3363 -39.5335 4.5089
v 871.2405 -30.6867 -116.7306
v 891.3363 -39.5335 4.5089
v 911.3053 -19.7599 120.9091
v 879.4783 -162.2121 12.3580
v 911.3053 -19.7599 120.9091
v 904.8861 -137.0232 159.1239
v 879.4783 -162.2121 12.3580
v 879.4783 -162.2121 12.3580
v 904.8861 -137.0232 159.1239
v 768.6184 -212.2969 33.6621
v 904.8861 -137.0232 159.1239
v 796.5463 -184.5989 194.4973
v 768.6184 -212.2969 33.6621
v 768.6184 -212.2969 33.6621
v 796.5463 -184.5989 194.4973
v 669.6166 -139.7031 47.1171
v 796.5463 -184.5989 194.4973
v 694.6256 -114.9113 191.6560
v 669.6166 -139.7031 47.1171
v 669.6166 -139.7031 47.1171
v 694.6256 -114.9113 191.6560
v 681.4747 -17.0245 39.2680
v 694.6256 -114.9113 191.6560
v 701.0448 2.3519 153.4412
v 681.4747 -17.0245 39.2680
v 681.4747 -17.0245 39.2680
v 701.0448 2.3519 153.4412
v 792.3345 33.0603 17.9639
v 701.0448 2.3519 153.4412
v 809.3846 49.9276 118.0677
v 792.3345 33.0603 17.9639
v 792.3345 33.0603 17.9639
v 809.3846 49.9276 118.0677
v 891.3363 -39.5335 4.5089
v 809.3846 49.9276 118.0677
v 911.3053 -19.7599 120.9091
v 891.3363 -39.5335 4.5089
v 911.3053 -19.7599 120.9091
v 931.7764 28.4778 214.0851
v 904.8861 -137.0232 159.1239
v 931.7764 28.4778 214.0851
v 934.7385 -66.6469 292.7919
v 904.8861 -137.0232 159.1239
v 904.8861 -137.0232 159.1239
v 934.7385 -66.6469 292.7919
v 796.5463 -184.5989 194.4973
v 934.7385 -66.6469 292.7919
v 831.7902 -101.4992 351.4368
v 796.5463 -184.5989 194.4973
v 796.5463 -184.5989 194.4973
v 831.7902 -101.4992 351.4368
v 694.6256 -114.9113 191.6560
v 831.7902 -101.4992 351.4368
v 725.8799 -41.2268 331.3748
v 694.6256 -114.9113 191.6560
v 694.6256 -114.9113 191.6560
v 725.8799 -41.2268 331.3748
v 701.0448 2.3519 153.4412
v 725.8799 -41.2268 331.3748
v 722.9178 53.8979 252.6680
v 701.0448 2.3519 153.4412
v 701.0448 2.3519 153.4412
v 722.9178 53.8979 252.6680
v 809.3846 49.9276 118.0677
v 722.9178 53.8979 252.6680
v 825.8660 88.7502 194.0231
v 809.3846 49.9276 118.0677
v 809.3846 49.9276 118.0677
v 825.8660 88.7502 194.0231
v 911.3053 -19.7599 120.9091
v 825.8660 88.7502 194.0231
v 931.7764 28.4778 214.0851
v 911.3053 -19.7599 120.9091
v 931.7764 28.4778 214.0851
v 956.5392 112.8915 252.6922
v 934.7385 -66.6469 292.7919
v 956.5392 112.8915 252.6922
v 973.0978 61.3549 363.6969
v 934.7385 -66.6469 292.7919
v 934.7385 -66.6469 292.7919
v 973.0978 61.3549 363.6969
v 831.7902 -101.4992 351.4368
v 973.0978 61.3549 363.6969
v 879.0586 55.0634 443.5047
v 831.7902 -101.4992 351.4368
v 831.7902 -101.4992 351.4368
v 879.0586 55.0634 443.5047
v 725.8799 -41.2268 331.3748
v 879.0586 55.0634 443.5047
v 768.4608 100.3085 412.3078
v 725.8799 -41.2268 331.3748
v 725.8799 -41.2268 331.3748
v 768.4608 100.3085 412.3078
v 722.9178 53.8979 252.6680
v 768.4608 100.3085 412.3078
v 751.9022 151.8451 301.3031
v 722.9178 53.8979 252.6680
v 722.9178 53.8979 252.6680
v 751.9022 151.8451 301.3031
v 825.8660 88.7502 194.0231
v 751.9022 151.8451 301.3031
v 845.9414 158.1366 221.4953
v 825.8660 88.7502 194.0231
v 825.8660 88.7502 194.0231
v 845.9414 158.1366 221.4953
v 931.7764 28.4778 214.0851
v 845.9414 158.1366 221.4953
v 956.5392 112.8915 252.6922
v 931.7764 28.4778 214.0851
f 1 2 3
f 4 5 6
f 7 8 9
f 10 11 12
f 13 14 15
f 16 17 18
f 19 20 21
f 22 23 24
f 25 26 27
f 28 29 30
f 31 32 33
f 34 35 36
f 37 38 39
f 40 41 42
f 43 44 45
f 46 47 48
f 49 50 51
f 52 53 54
f 55 56 57
f 58 59 60
f 61 62 63
f 64 65 66
f 67 68 69
f 70 71 72
f 73 74 75
f 76 77 78
f 79 80 81
f 82 83 84
f 85 86 87
f 88 89 90
f 91 92 93
f 94 95 96
f 97 98 99
f 100 101 102
f 103 104 105
f 106 107 108
f 109 110 111
f 112 113 114
f 115 116 117
f 118 119 120
f 121 122 123
f 124 125 126
f 127 128 129
f 130 131 132
f 133 134 135
f 136 137 138
f 139 140 141
f 142 143 144
f 145 146 147
f 148 149 150
f 151 152 153
f 154 155 156
f 157 158 159
f 160 161 162
f 163 164 165
f 166 167 168
f 169 170 171
f 172 173 174
f 175 176 177
f 178 179 180
f 181 182 183
f 184 185 186
f 187 188 189
f 190 191 192
f 193 194 195
f 196 197 198
f 199 200 201
f 202 203 204
f 205 206 207
f 208 209 210
f 211 212 213
f 214 215 216
f 217 218 219
f 220 221 222
f 223 224 225
f 226 227 228
f 229 230 231
f 232 233 234
f 235 236 237
f 238 239 240
f 241 242 243
f 244 245 246
f 247 248 249
f 250 251 252
f 253 254 255
f 256 257 258
f 259 260 261
f 262 263 264
f 265 266 267
f 268 269 270
f 271 272 273
f 274 275 276
f 277 278 279
f 280 281 282
f 283 284 285
f 286 287 288
f 289 290 291
f 292 293 294
f 295 296 297
f 298 299 300
f 301 302 303
f 304 305 306
f 307 308 309
f 310 311 312
f 313 314 315
f 316 317 318
f 319 320 321
f 322 323 324
f 325 326 327
f 328 329 330
f 331 332 333
f 334 335 336
f 337 338 339
f 340 341 342
f 343 344 345
f 346 347 348
f 349 350 351
f 352 353 354
f 355 356 357
f 358 359 360
f 361 362 363
f 364 365 366
f 367 368 369
f 370 371 372
f 373 374 375
f 376 377 378
f 379 380 381
f 382 383 384
f 385 386 387
f 388 389 390
f 391 392 393
f 394 395 396
f 397 398 399
f 400 401 402
f 403 404 405
f 406 407 408
f 409 410 411
f 412 413 414
f 415 416 417
f 418 419 420
f 421 422 423
f 424 425 426
f 427 428 429
f 430 431 432
f 433 434 435
f 436 437 438
f 439 440 441
f 442 443 444
f 445 446 447
f 448 449 450
f 451 452 453
f 454 455 456
f 457 458 459
f 460 461 462
f 463 464 465
f 466 467 468
f 469 470 471
f 472 473 474
f 475 476 477
f 478 479 480
f 481 482 483
f 484 485 486
f 487 488 489
f 490 491 492
f 493 494 495
f 496 497 498
f 499 500 501
f 502 503 504
f 505 506 507
f 508 509 510
f 511 512 513
f 514 515 516
f 517 518 519
f 520 521 522
f 523 524 525
f 526 527 528
f 529 530 531
f 532 533 534
f 535 536 537
f 538 539 540
f 541 542 543
f 544 545 546
f 547 548 549
f 550 551 552
f 553 554 555
f 556 557 558
f 559 560 561
f 562 563 564
f 565 566 567
f 568 569 570
f 571 572 573
f 574 575 576
f 577 578 579
f 580 581 582
f 583 584 585
f 586 587 588
f 589 590 591
f 592 593 594
f 595 596 597
f 598 599 600
f 601 602 603
f 604 605 606
f 607 608 609
f 610 611 612
f 613 614 615
f 616 617 618
f 619 620 621
f 622 623 624
f 625 626 627
f 628 629 630
f 631 632 633
f 634 635 636
f 637 638 639
f 640 641 642
f 643 644 645
f 646 647 648
f 649 650 651
f 652 653 654
f 655 656 657
f 658 659 660
f 661 662 663
f 664 665 666
f 667 668 669
f 670 671 672
f 673 674 675
f 676 677 678
f 679 680 681
f 682 683 684
f 685 686 687
f 688 689 690
f 691 692 693
f 694 695 696
f 697 698 699
f 700 701 702
f 703 704 705
f 706 707 708
f 709 710 711
f 712 713 714
f 715 716 717
f 718 719 720
f 721 722 723
f 724 725 726
f 727 728 729
f 730 731 732
f 733 734 735
f 736 737 738
f 739 740 741
f 742 743 744
f 745 746 747
f 748 749 750
f 751 752 753
f 754 755 756
f 757 758 759
f 760 761 762
f 763 764 765
f 766 767 768
f 769 770 771
f 772 773 774
f 775 776 777
f 778 779 780
f 781 782 783
f 784 785 786
f 787 788 789
f 790 791 792
f 793 794 795
f 796 797 798
f 799 800 801
f 802 803 804
f 805 806 807
f 808 809 810
f 811 812 813
f 814 815 816
f 817 818 819
f 820 821 822
f 823 824 825
f 826 827 828
f 829 830 831
f 832 833 834
f 835 836 837
f 838 839 840
f 841 842 843
f 844 845 846
f 847 848 849
f 850 851 852
f 853 854 855
f 856 857 858
f 859 860 861
f 862 863 864
f 865 866 867
f 868 869 870
f 871 872 873
f 874 875 876
f 877 878 879
f 880 881 882
f 883 884 885
f 886 887 888
f 889 890 891
f 892 893 894
f 895 896 897
f 898 899 900
f 901 902 903
f 904 905 906
f 907 908 909
f 910 911 912
f 913 914 915
f 916 917 918
f 919 920 921
f 922 923 924
f 925 926 927
f 928 929 930
f 931 932 933
f 934 935 936
f 937 938 939
f 940 941 942
f 943 944 945
f 946 947 948
f 949 950 951
f 952 953 954
f 955 956 957
f 958 959 960
f 961 962 963
f 964 965 966
f 967 968 969
f 970 971 972
f 973 974 975
f 976 977 978
f 979 980 981
f 982 983 984
f 985 986 987
f 988 989 990
f 991 992 993
f 994 995 996
f 997 998 999
f 1000 1001 1002
f 1003 1004 1005
f 1006 1007 1008
f 1009 1010 1011
f 1012 1013 1014
f 1015 1016 1017
f 1018 1019 1020
f 1021 1022 1023
f 1024 1025 1026
f 1027 1028 1029
f 1030 1031 1032
f 1033 1034 1035
f 1036 1037 1038
f 1039 1040 1041
f 1042 1043 1044
f 1045 1046 1047
f 1048 1049 1050
f 1051 1052 1053
f 1054 1055 1056
f 1057 1058 1059
f 1060 1061 1062
f 1063 1064 1065
f 1066 1067 1068
f 1069 1070 1071
f 1072 1073 1074
f 1075 1076 1077
f 1078 1079 1080
f 1081 1082 1083
f 1084 1085 1086
f 1087 1088 1089
f 1090 1091 1092
f 1093 1094 1095
f 1096 1097 1098
f 1099 1100 1101
f 1102 1103 1104
f 1105 1106 1107
f 1108 1109 1110
f 1111 1112 1113
f 1114 1115 1116
f 1117 1118 1119
f 1120 1121 1122
f 1123 1124 1125
f 1126 1127 1128
f 1129 1130 1131
f 1132 1133 1134
f 1135 1136 1137
f 1138 1139 1140
f 1141 1142 1143
f 1144 1145 1146
f 1147 1148 1149
f 1150 1151 1152
f 1153 1154 1155
f 1156 1157 1158
f 1159 1160 1161
f 1162 1163 1164
f 1165 1166 1167
f 1168 1169 1170
f 1171 1172 1173
f 1174 1175 1176
f 1177 1178 1179
f 1180 1181 1182
f 1183 1184 1185
f 1186 1187 1188
f 1189 1190 1191
f 1192 1193 1194
f 1195 1196 1197
f 1198 1199 1200
f 1201 1202 1203
f 1204 1205 1206
f 1207 1208 1209
f 1210 1211 1212
f 1213 1214 1215
f 1216 1217 1218
f 1219 1220 1221
f 1222 1223 1224
f 1225 1226 1227
f 1228 1229 1230
f 1231 1232 1233
f 1234 1235 1236
f 1237 1238 1239
f 1240 1241 1242
f 1243 1244 1245
f 1246 1247 1248
f 1249 1250 1251
f 1252 1253 1254
f 1255 1256 1257
f 1258 1259 1260
f 1261 1262 1263
f 1264 1265 1266
f 1267 1268 1269
f 1270 1271 1272
f 1273 1274 1275
f 1276 1277 1278
f 1279 1280 1281
f 1282 1283 1284
f 1285 1286 1287
f 1288 1289 1290
f 1291 1292 1293
f 1294 1295 1296
f 1297 1298 1299
f 1300 1301 1302
f 1303 1304 1305
f 1306 1307 1308
f 1309 1310 1311
f 1312 1313 1314
f 1315 1316 1317
f 1318 1319 1320
f 1321 1322 1323
f 1324 1325 1326
f 1327 1328 1329
f 1330 1331 1332
f 1333 1334 1335
f 1336 1337 1338
f 1339 1340 1341
f 1342 1343 1344
f 1345 1346 1347
f 1348 1349 1350
f 1351 1352 1353
f 1354 1355 1356
f 1357 1358 1359
f 1360 1361 1362
f 1363 1364 1365
f 1366 1367 1368
f 1369 1370 1371
f 1372 1373 1374
f 1375 1376 1377
f 1378 1379 1380
f 1381 1382 1383
f 1384 1385 1386
f 1387 1388 1389
f 1390 1391 1392
f 1393 1394 1395
f 1396 1397 1398
f 1399 1400 1401
f 1402 1403 1404
f 1405 1406 1407
f 1408 1409 1410
f 1411 1412 1413
f 1414 1415 1416
f 1417 1418 1419
f 1420 1421 1422
f 1423 1424 1425
f 1426 1427 1428
f 1429 1430 1431
f 1432 1433 1434
f 1435 1436 1437
f 1438 1439 1440
f 1441 1442 1443
f 1444 1445 1446
f 1447 1448 1449
f 1450 1451 1452
f 1453 1454 1455
f 1456 1457 1458
f 1459 1460 1461
f 1462 1463 1464
f 1465 1466 1467
f 1468 1469 1470
f 1471 1472 1473
f 1474 1475 1476
f 1477 1478 1479
f 1480 1481 1482
f 1483 1484 1485
f 1486 1487 1488
f 1489 1490 1491
f 1492 1493 1494
f 1495 1496 1497
f 1498 1499 1500
f 1501 1502 1503
f 1504 1505 1506
f 1507 1508 1509
f 1510 1511 1512
f 1513 1514 1515
f 1516 1517 1518
f 1519 1520 1521
f 1522 1523 1524
f 1525 1526 1527
f 1528 1529 1530
f 1531 1532 1533
f 1534 1535 1536
f 1537 1538 1539
f 1540 1541 1542
f 1543 1544 1545
f 1546 1547 1548
f 1549 1550 1551
f 1552 1553 1554
f 1555 1556 1557
f 1558 1559 1560
f 1561 1562 1563
f 1564 1565 1566
f 1567 1568 1569
f 1570 1571 1572
f 1573 1574 1575
f 1576 1577 1578
f 1579 1580 1581
f 1582 1583 1584
f 1585 1586 1587
f 1588 1589 1590
f 1591 1592 1593
f 1594 1595 1596
f 1597 1598 1599
f 1600 1601 1602
f 1603 1604 1605
f 1606 1607 1608
f 1609 1610 1611
f 1612 1613 1614
f 1615 1616 1617
f 1618 1619 1620
f 1621 1622 1623
f 1624 1625 1626
f 1627 1628 1629
f 1630 1631 1632
f 1633 1634 1635
f 1636 1637 1638
f 1639 1640 1641
f 1642 1643 1644
f 1645 1646 1647
f 1648 1649 1650
f 1651 1652 1653
f 1654 1655 1656
f 1657 1658 1659
f 1660 1661 1662
f 1663 1664 1665
f 1666 1667 1668
f 1669 1670 1671
f 1672 1673 1674
f 1675 1676 1677
f 1678 1679 1680
f 1681 1682 1683
f 1684 1685 1686
f 1687 1688 1689
f 1690 1691 1692
f 1693 1694 1695
f 1696 1697 1698
f 1699 1700 1701
f 1702 1703 1704
f 1705 1706 1707
f 1708 1709 1710
f 1711 1712 1713
f 1714 1715 1716
f 1717 1718 1719
f 1720 1721 1722
f 1723 1724 1725
f 1726 1727 1728
f 1729 1730 1731
f 1732 1733 1734
f 1735 1736 1737
f 1738 1739 1740
f 1741 1742 1743
f 1744 1745 1746
f 1747 1748 1749
f 1750 1751 1752
f 1753 1754 1755
f 1756 1757 1758
f 1759 1760 1761
f 1762 1763 1764
f 1765 1766 1767
f 1768 1769 1770
f 1771 1772 1773
f 1774 1775 1776
f 1777 1778 1779
f 1780 1781 1782
f 1783 1784 1785
f 1786 1787 1788
f 1789 1790 1791
f 1792 1793 1794
f 1795 1796 1797
f 1798 1799 1800
f 1801 1802 1803
f 1804 1805 1806
f 1807 1808 1809
f 1810 1811 1812
f 1813 1814 1815
f 1816 1817 1818
f 1819 1820 1821
f 1822 1823 1824
f 1825 1826 1827
f 1828 1829 1830
f 1831 1832 1833
f 1834 1835 1836
f 1837 1838 1839
f 1840 1841 1842
f 1843 1844 1845
f 1846 1847 1848
f 1849 1850 1851
f 1852 1853 1854
f 1855 1856 1857
f 1858 1859 1860
f 1861 1862 1863
f 1864 1865 1866
f 1867 1868 1869
f 1870 1871 1872
f 1873 1874 1875
f 1876 1877 1878
f 1879 1880 1881
f 1882 1883 1884
f 1885 1886 1887
f 1888 1889 1890
f 1891 1892 1893
f 1894 1895 1896
f 1897 1898 1899
f 1900 1901 1902
f 1903 1904 1905
f 1906 1907 1908
f 1909 1910 1911
f 1912 1913 1914
f 1915 1916 1917
f 1918 1919 1920
f 1921 1922 1923
f 1924 1925 1926
f 1927 1928 1929
f 1930 1931 1932
f 1933 1934 1935
f 1936 1937 1938
f 1939 1940 1941
f 1942 1943 1944
f 1945 1946 1947
f 1948 1949 1950
f 1951 1952 1953
f 1954 1955 1956
f 1957 1958 1959
f 1960 1961 1962
f 1963 1964 1965
f 1966 1967 1968
f 1969 1970 1971
f 1972 1973 1974
f 1975 1976 1977
f 1978 1979 1980
f 1981 1982 1983
f 1984 1985 1986
f 1987 1988 1989
f 1990 1991 1992
f 1993 1994 1995
f 1996 1997 1998
f 1999 2000 2001
f 2002 2003 2004
f 2005 2006 2007
f 2008 2009 2010
f 2011 2012 2013
f 2014 2015 2016
f 2017 2018 2019
f 2020 2021 2022
f 2023 2024 2025
f 2026 2027 2028
f 2029 2030 2031
f 2032 2033 2034
f 2035 2036 2037
f 2038 2039 2040
f 2041 2042 2043
f 2044 2045 2046
f 2047 2048 2049
f 2050 2051 2052
f 2053 2054 2055
f 2056 2057 2058
f 2059 2060 2061
f 2062 2063 2064
f 2065 2066 2067
f 2068 2069 2070
f 2071 2072 2073
f 2074 2075 2076
f 2077 2078 2079
f 2080 2081 2082
f 2083 2084 2085
f 2086 2087 2088
f 2089 2090 2091
f 2092 2093 2094
f 2095 2096 2097
f 2098 2099 2100
f 2101 2102 2103
f 2104 2105 2106
f 2107 2108 2109
f 2110 2111 2112
f 2113 2114 2115
f 2116 2117 2118
f 2119 2120 2121
f 2122 2123 2124
f 2125 2126 2127
f 2128 2129 2130
f 2131 2132 2133
f 2134 2135 2136
f 2137 2138 2139
f 2140 2141 2142
f 2143 2144 2145
f 2146 2147 2148
f 2149 2150 2151
f 2152 2153 2154
f 2155 2156 2157
f 2158 2159 2160
f 2161 2162 2163
f 2164 2165 2166
f 2167 2168 2169
f 2170 2171 2172
f 2173 2174 2175
f 2176 2177 2178
f 2179 2180 2181
f 2182 2183 2184
f 2185 2186 2187
f 2188 2189 2190
f 2191 2192 2193
f 2194 2195 2196
f 2197 2198 2199
f 2200 2201 2202
f 2203 2204 2205
f 2206 2207 2208
f 2209 2210 2211
f 2212 2213 2214
f 2215 2216 2217
f 2218 2219 2220
f 2221 2222 2223
f 2224 2225 2226
f 2227 2228 2229
f 2230 2231 2232
f 2233 2234 2235
f 2236 2237 2238
f 2239 2240 2241
f 2242 2243 2244
f 2245 2246 2247
f 2248 2249 2250
f 2251 2252 2253
f 2254 2255 2256
f 2257 2258 2259
f 2260 2261 2262
f 2263 2264 2265
f 2266 2267 2268
f 2269 2270 2271
f 2272 2273 2274
f 2275 2276 2277
f 2278 2279 2280
f 2281 2282 2283
f 2284 2285 2286
f 2287 2288 2289
f 2290 2291 2292
f 2293 2294 2295
f 2296 2297 2298
f 2299 2300 2301
f 2302 2303 2304
