# MATERIA - On the Rocks
# Geometria originale di studio. Unita mm. Non CAD del produttore.
v -409.4000 147.6000 -156.2750
v -409.4000 -221.4000 -156.2750
v -409.4000 147.6000 -564.7750
v -409.4000 -221.4000 -156.2750
v -409.4000 -221.4000 -564.7750
v -409.4000 147.6000 -564.7750
v -1467.4000 147.6000 -564.7750
v -1467.4000 -221.4000 -564.7750
v -1467.4000 147.6000 -156.2750
v -1467.4000 -221.4000 -564.7750
v -1467.4000 -221.4000 -156.2750
v -1467.4000 147.6000 -156.2750
v -1467.4000 147.6000 -564.7750
v -1467.4000 147.6000 -156.2750
v -409.4000 147.6000 -564.7750
v -1467.4000 147.6000 -156.2750
v -409.4000 147.6000 -156.2750
v -409.4000 147.6000 -564.7750
v -1467.4000 -221.4000 -156.2750
v -1467.4000 -221.4000 -564.7750
v -409.4000 -221.4000 -156.2750
v -1467.4000 -221.4000 -564.7750
v -409.4000 -221.4000 -564.7750
v -409.4000 -221.4000 -156.2750
v -1467.4000 147.6000 -156.2750
v -1467.4000 -221.4000 -156.2750
v -409.4000 147.6000 -156.2750
v -1467.4000 -221.4000 -156.2750
v -409.4000 -221.4000 -156.2750
v -409.4000 147.6000 -156.2750
v -409.4000 147.6000 -564.7750
v -409.4000 -221.4000 -564.7750
v -1467.4000 147.6000 -564.7750
v -409.4000 -221.4000 -564.7750
v -1467.4000 -221.4000 -564.7750
v -1467.4000 147.6000 -564.7750
v 1488.0470 295.2000 -221.0716
v 1488.0470 -73.8000 -221.0716
v 1439.1446 295.2000 -626.6339
v 1488.0470 -73.8000 -221.0716
v 1439.1446 -73.8000 -626.6339
v 1439.1446 295.2000 -626.6339
v 388.7530 295.2000 -499.9784
v 388.7530 -73.8000 -499.9784
v 437.6554 295.2000 -94.4161
v 388.7530 -73.8000 -499.9784
v 437.6554 -73.8000 -94.4161
v 437.6554 295.2000 -94.4161
v 388.7530 295.2000 -499.9784
v 437.6554 295.2000 -94.4161
v 1439.1446 295.2000 -626.6339
v 437.6554 295.2000 -94.4161
v 1488.0470 295.2000 -221.0716
v 1439.1446 295.2000 -626.6339
v 437.6554 -73.8000 -94.4161
v 388.7530 -73.8000 -499.9784
v 1488.0470 -73.8000 -221.0716
v 388.7530 -73.8000 -499.9784
v 1439.1446 -73.8000 -626.6339
v 1488.0470 -73.8000 -221.0716
v 437.6554 295.2000 -94.4161
v 437.6554 -73.8000 -94.4161
v 1488.0470 295.2000 -221.0716
v 437.6554 -73.8000 -94.4161
v 1488.0470 -73.8000 -221.0716
v 1488.0470 295.2000 -221.0716
v 1439.1446 295.2000 -626.6339
v 1439.1446 -73.8000 -626.6339
v 388.7530 295.2000 -499.9784
v 1439.1446 -73.8000 -626.6339
v 388.7530 -73.8000 -499.9784
v 388.7530 295.2000 -499.9784
v -376.0114 442.8000 433.1761
v -376.0114 73.8000 433.1761
v -473.1130 442.8000 36.3845
v -376.0114 73.8000 433.1761
v -473.1130 73.8000 36.3845
v -473.1130 442.8000 36.3845
v -1500.7886 442.8000 287.8739
v -1500.7886 73.8000 287.8739
v -1403.6870 442.8000 684.6655
v -1500.7886 73.8000 287.8739
v -1403.6870 73.8000 684.6655
v -1403.6870 442.8000 684.6655
v -1500.7886 442.8000 287.8739
v -1403.6870 442.8000 684.6655
v -473.1130 442.8000 36.3845
v -1403.6870 442.8000 684.6655
v -376.0114 442.8000 433.1761
v -473.1130 442.8000 36.3845
v -1403.6870 73.8000 684.6655
v -1500.7886 73.8000 287.8739
v -376.0114 73.8000 433.1761
v -1500.7886 73.8000 287.8739
v -473.1130 73.8000 36.3845
v -376.0114 73.8000 433.1761
v -1403.6870 442.8000 684.6655
v -1403.6870 73.8000 684.6655
v -376.0114 442.8000 433.1761
v -1403.6870 73.8000 684.6655
v -376.0114 73.8000 433.1761
v -376.0114 442.8000 433.1761
v -473.1130 442.8000 36.3845
v -473.1130 73.8000 36.3845
v -1500.7886 442.8000 287.8739
v -473.1130 73.8000 36.3845
v -1500.7886 73.8000 287.8739
v -1500.7886 442.8000 287.8739
v 1505.4414 590.4000 365.3289
v 1505.4414 221.4000 365.3289
v 1361.5374 590.4000 -16.9850
v 1505.4414 221.4000 365.3289
v 1361.5374 221.4000 -16.9850
v 1361.5374 590.4000 -16.9850
v 371.3586 590.4000 355.7211
v 371.3586 221.4000 355.7211
v 515.2626 590.4000 738.0350
v 371.3586 221.4000 355.7211
v 515.2626 221.4000 738.0350
v 515.2626 590.4000 738.0350
v 371.3586 590.4000 355.7211
v 515.2626 590.4000 738.0350
v 1361.5374 590.4000 -16.9850
v 515.2626 590.4000 738.0350
v 1505.4414 590.4000 365.3289
v 1361.5374 590.4000 -16.9850
v 515.2626 221.4000 738.0350
v 371.3586 221.4000 355.7211
v 1505.4414 221.4000 365.3289
v 371.3586 221.4000 355.7211
v 1361.5374 221.4000 -16.9850
v 1505.4414 221.4000 365.3289
v 515.2626 590.4000 738.0350
v 515.2626 221.4000 738.0350
v 1505.4414 590.4000 365.3289
v 515.2626 221.4000 738.0350
v 1505.4414 221.4000 365.3289
v 1505.4414 590.4000 365.3289
v 1361.5374 590.4000 -16.9850
v 1361.5374 221.4000 -16.9850
v 371.3586 590.4000 355.7211
v 1361.5374 221.4000 -16.9850
v 371.3586 221.4000 355.7211
v 371.3586 590.4000 355.7211
v 0.0000 553.5000 595.6500
v -250.8490 535.7106 595.6500
v -217.2416 535.7106 612.9186
v 0.0000 553.5000 595.6500
v -217.2416 535.7106 612.9186
v -125.4245 535.7106 625.5601
v 0.0000 553.5000 595.6500
v -125.4245 535.7106 625.5601
v -0.0000 535.7106 630.1872
v 0.0000 553.5000 595.6500
v -0.0000 535.7106 630.1872
v 125.4245 535.7106 625.5601
v 0.0000 553.5000 595.6500
v 125.4245 535.7106 625.5601
v 217.2416 535.7106 612.9186
v 0.0000 553.5000 595.6500
v 217.2416 535.7106 612.9186
v 250.8490 535.7106 595.6500
v 0.0000 553.5000 595.6500
v 250.8490 535.7106 595.6500
v 217.2416 535.7106 578.3814
v 0.0000 553.5000 595.6500
v 217.2416 535.7106 578.3814
v 125.4245 535.7106 565.7399
v 0.0000 553.5000 595.6500
v 125.4245 535.7106 565.7399
v 0.0000 535.7106 561.1128
v 0.0000 553.5000 595.6500
v 0.0000 535.7106 561.1128
v -125.4245 535.7106 565.7399
v 0.0000 553.5000 595.6500
v -125.4245 535.7106 565.7399
v -217.2416 535.7106 578.3814
v 0.0000 553.5000 595.6500
v -217.2416 535.7106 578.3814
v -250.8490 535.7106 595.6500
v -217.2416 535.7106 612.9186
v -250.8490 535.7106 595.6500
v -401.4101 485.0509 627.5582
v -250.8490 535.7106 595.6500
v -463.5085 485.0509 595.6500
v -401.4101 485.0509 627.5582
v -125.4245 535.7106 625.5601
v -217.2416 535.7106 612.9186
v -231.7542 485.0509 650.9166
v -217.2416 535.7106 612.9186
v -401.4101 485.0509 627.5582
v -231.7542 485.0509 650.9166
v -0.0000 535.7106 630.1872
v -125.4245 535.7106 625.5601
v -0.0000 485.0509 659.4664
v -125.4245 535.7106 625.5601
v -231.7542 485.0509 650.9166
v -0.0000 485.0509 659.4664
v 125.4245 535.7106 625.5601
v -0.0000 535.7106 630.1872
v 231.7542 485.0509 650.9166
v -0.0000 535.7106 630.1872
v -0.0000 485.0509 659.4664
v 231.7542 485.0509 650.9166
v 217.2416 535.7106 612.9186
v 125.4245 535.7106 625.5601
v 401.4101 485.0509 627.5582
v 125.4245 535.7106 625.5601
v 231.7542 485.0509 650.9166
v 401.4101 485.0509 627.5582
v 250.8490 535.7106 595.6500
v 217.2416 535.7106 612.9186
v 463.5085 485.0509 595.6500
v 217.2416 535.7106 612.9186
v 401.4101 485.0509 627.5582
v 463.5085 485.0509 595.6500
v 217.2416 535.7106 578.3814
v 250.8490 535.7106 595.6500
v 401.4101 485.0509 563.7418
v 250.8490 535.7106 595.6500
v 463.5085 485.0509 595.6500
v 401.4101 485.0509 563.7418
v 125.4245 535.7106 565.7399
v 217.2416 535.7106 578.3814
v 231.7542 485.0509 540.3834
v 217.2416 535.7106 578.3814
v 401.4101 485.0509 563.7418
v 231.7542 485.0509 540.3834
v 0.0000 535.7106 561.1128
v 125.4245 535.7106 565.7399
v 0.0000 485.0509 531.8336
v 125.4245 535.7106 565.7399
v 231.7542 485.0509 540.3834
v 0.0000 485.0509 531.8336
v -125.4245 535.7106 565.7399
v 0.0000 535.7106 561.1128
v -231.7542 485.0509 540.3834
v 0.0000 535.7106 561.1128
v 0.0000 485.0509 531.8336
v -231.7542 485.0509 540.3834
v -217.2416 535.7106 578.3814
v -125.4245 535.7106 565.7399
v -401.4101 485.0509 563.7418
v -125.4245 535.7106 565.7399
v -231.7542 485.0509 540.3834
v -401.4101 485.0509 563.7418
v -250.8490 535.7106 595.6500
v -217.2416 535.7106 578.3814
v -463.5085 485.0509 595.6500
v -217.2416 535.7106 578.3814
v -401.4101 485.0509 563.7418
v -463.5085 485.0509 595.6500
v -401.4101 485.0509 627.5582
v -463.5085 485.0509 595.6500
v -524.4676 409.2331 637.3401
v -463.5085 485.0509 595.6500
v -605.6030 409.2331 595.6500
v -524.4676 409.2331 637.3401
v -231.7542 485.0509 650.9166
v -401.4101 485.0509 627.5582
v -302.8015 409.2331 667.8593
v -401.4101 485.0509 627.5582
v -524.4676 409.2331 637.3401
v -302.8015 409.2331 667.8593
v -0.0000 485.0509 659.4664
v -231.7542 485.0509 650.9166
v -0.0000 409.2331 679.0301
v -231.7542 485.0509 650.9166
v -302.8015 409.2331 667.8593
v -0.0000 409.2331 679.0301
v 231.7542 485.0509 650.9166
v -0.0000 485.0509 659.4664
v 302.8015 409.2331 667.8593
v -0.0000 485.0509 659.4664
v -0.0000 409.2331 679.0301
v 302.8015 409.2331 667.8593
v 401.4101 485.0509 627.5582
v 231.7542 485.0509 650.9166
v 524.4676 409.2331 637.3401
v 231.7542 485.0509 650.9166
v 302.8015 409.2331 667.8593
v 524.4676 409.2331 637.3401
v 463.5085 485.0509 595.6500
v 401.4101 485.0509 627.5582
v 605.6030 409.2331 595.6500
v 401.4101 485.0509 627.5582
v 524.4676 409.2331 637.3401
v 605.6030 409.2331 595.6500
v 401.4101 485.0509 563.7418
v 463.5085 485.0509 595.6500
v 524.4676 409.2331 553.9599
v 463.5085 485.0509 595.6500
v 605.6030 409.2331 595.6500
v 524.4676 409.2331 553.9599
v 231.7542 485.0509 540.3834
v 401.4101 485.0509 563.7418
v 302.8015 409.2331 523.4407
v 401.4101 485.0509 563.7418
v 524.4676 409.2331 553.9599
v 302.8015 409.2331 523.4407
v 0.0000 485.0509 531.8336
v 231.7542 485.0509 540.3834
v 0.0000 409.2331 512.2699
v 231.7542 485.0509 540.3834
v 302.8015 409.2331 523.4407
v 0.0000 409.2331 512.2699
v -231.7542 485.0509 540.3834
v 0.0000 485.0509 531.8336
v -302.8015 409.2331 523.4407
v 0.0000 485.0509 531.8336
v 0.0000 409.2331 512.2699
v -302.8015 409.2331 523.4407
v -401.4101 485.0509 563.7418
v -231.7542 485.0509 540.3834
v -524.4676 409.2331 553.9599
v -231.7542 485.0509 540.3834
v -302.8015 409.2331 523.4407
v -524.4676 409.2331 553.9599
v -463.5085 485.0509 595.6500
v -401.4101 485.0509 563.7418
v -605.6030 409.2331 595.6500
v -401.4101 485.0509 563.7418
v -524.4676 409.2331 553.9599
v -605.6030 409.2331 595.6500
v -524.4676 409.2331 637.3401
v -605.6030 409.2331 595.6500
v -567.6796 319.8000 640.7750
v -605.6030 409.2331 595.6500
v -655.5000 319.8000 595.6500
v -567.6796 319.8000 640.7750
v -302.8015 409.2331 667.8593
v -524.4676 409.2331 637.3401
v -327.7500 319.8000 673.8088
v -524.4676 409.2331 637.3401
v -567.6796 319.8000 640.7750
v -327.7500 319.8000 673.8088
v -0.0000 409.2331 679.0301
v -302.8015 409.2331 667.8593
v -0.0000 319.8000 685.9000
v -302.8015 409.2331 667.8593
v -327.7500 319.8000 673.8088
v -0.0000 319.8000 685.9000
v 302.8015 409.2331 667.8593
v -0.0000 409.2331 679.0301
v 327.7500 319.8000 673.8088
v -0.0000 409.2331 679.0301
v -0.0000 319.8000 685.9000
v 327.7500 319.8000 673.8088
v 524.4676 409.2331 637.3401
v 302.8015 409.2331 667.8593
v 567.6796 319.8000 640.7750
v 302.8015 409.2331 667.8593
v 327.7500 319.8000 673.8088
v 567.6796 319.8000 640.7750
v 605.6030 409.2331 595.6500
v 524.4676 409.2331 637.3401
v 655.5000 319.8000 595.6500
v 524.4676 409.2331 637.3401
v 567.6796 319.8000 640.7750
v 655.5000 319.8000 595.6500
v 524.4676 409.2331 553.9599
v 605.6030 409.2331 595.6500
v 567.6796 319.8000 550.5250
v 605.6030 409.2331 595.6500
v 655.5000 319.8000 595.6500
v 567.6796 319.8000 550.5250
v 302.8015 409.2331 523.4407
v 524.4676 409.2331 553.9599
v 327.7500 319.8000 517.4912
v 524.4676 409.2331 553.9599
v 567.6796 319.8000 550.5250
v 327.7500 319.8000 517.4912
v 0.0000 409.2331 512.2699
v 302.8015 409.2331 523.4407
v 0.0000 319.8000 505.4000
v 302.8015 409.2331 523.4407
v 327.7500 319.8000 517.4912
v 0.0000 319.8000 505.4000
v -302.8015 409.2331 523.4407
v 0.0000 409.2331 512.2699
v -327.7500 319.8000 517.4912
v 0.0000 409.2331 512.2699
v 0.0000 319.8000 505.4000
v -327.7500 319.8000 517.4912
v -524.4676 409.2331 553.9599
v -302.8015 409.2331 523.4407
v -567.6796 319.8000 550.5250
v -302.8015 409.2331 523.4407
v -327.7500 319.8000 517.4912
v -567.6796 319.8000 550.5250
v -605.6030 409.2331 595.6500
v -524.4676 409.2331 553.9599
v -655.5000 319.8000 595.6500
v -524.4676 409.2331 553.9599
v -567.6796 319.8000 550.5250
v -655.5000 319.8000 595.6500
v -567.6796 319.8000 640.7750
v -655.5000 319.8000 595.6500
v -524.4676 230.3669 637.3401
v -655.5000 319.8000 595.6500
v -605.6030 230.3669 595.6500
v -524.4676 230.3669 637.3401
v -327.7500 319.8000 673.8088
v -567.6796 319.8000 640.7750
v -302.8015 230.3669 667.8593
v -567.6796 319.8000 640.7750
v -524.4676 230.3669 637.3401
v -302.8015 230.3669 667.8593
v -0.0000 319.8000 685.9000
v -327.7500 319.8000 673.8088
v -0.0000 230.3669 679.0301
v -327.7500 319.8000 673.8088
v -302.8015 230.3669 667.8593
v -0.0000 230.3669 679.0301
v 327.7500 319.8000 673.8088
v -0.0000 319.8000 685.9000
v 302.8015 230.3669 667.8593
v -0.0000 319.8000 685.9000
v -0.0000 230.3669 679.0301
v 302.8015 230.3669 667.8593
v 567.6796 319.8000 640.7750
v 327.7500 319.8000 673.8088
v 524.4676 230.3669 637.3401
v 327.7500 319.8000 673.8088
v 302.8015 230.3669 667.8593
v 524.4676 230.3669 637.3401
v 655.5000 319.8000 595.6500
v 567.6796 319.8000 640.7750
v 605.6030 230.3669 595.6500
v 567.6796 319.8000 640.7750
v 524.4676 230.3669 637.3401
v 605.6030 230.3669 595.6500
v 567.6796 319.8000 550.5250
v 655.5000 319.8000 595.6500
v 524.4676 230.3669 553.9599
v 655.5000 319.8000 595.6500
v 605.6030 230.3669 595.6500
v 524.4676 230.3669 553.9599
v 327.7500 319.8000 517.4912
v 567.6796 319.8000 550.5250
v 302.8015 230.3669 523.4407
v 567.6796 319.8000 550.5250
v 524.4676 230.3669 553.9599
v 302.8015 230.3669 523.4407
v 0.0000 319.8000 505.4000
v 327.7500 319.8000 517.4912
v 0.0000 230.3669 512.2699
v 327.7500 319.8000 517.4912
v 302.8015 230.3669 523.4407
v 0.0000 230.3669 512.2699
v -327.7500 319.8000 517.4912
v 0.0000 319.8000 505.4000
v -302.8015 230.3669 523.4407
v 0.0000 319.8000 505.4000
v 0.0000 230.3669 512.2699
v -302.8015 230.3669 523.4407
v -567.6796 319.8000 550.5250
v -327.7500 319.8000 517.4912
v -524.4676 230.3669 553.9599
v -327.7500 319.8000 517.4912
v -302.8015 230.3669 523.4407
v -524.4676 230.3669 553.9599
v -655.5000 319.8000 595.6500
v -567.6796 319.8000 550.5250
v -605.6030 230.3669 595.6500
v -567.6796 319.8000 550.5250
v -524.4676 230.3669 553.9599
v -605.6030 230.3669 595.6500
v -524.4676 230.3669 637.3401
v -605.6030 230.3669 595.6500
v -401.4101 154.5491 627.5582
v -605.6030 230.3669 595.6500
v -463.5085 154.5491 595.6500
v -401.4101 154.5491 627.5582
v -302.8015 230.3669 667.8593
v -524.4676 230.3669 637.3401
v -231.7542 154.5491 650.9166
v -524.4676 230.3669 637.3401
v -401.4101 154.5491 627.5582
v -231.7542 154.5491 650.9166
v -0.0000 230.3669 679.0301
v -302.8015 230.3669 667.8593
v -0.0000 154.5491 659.4664
v -302.8015 230.3669 667.8593
v -231.7542 154.5491 650.9166
v -0.0000 154.5491 659.4664
v 302.8015 230.3669 667.8593
v -0.0000 230.3669 679.0301
v 231.7542 154.5491 650.9166
v -0.0000 230.3669 679.0301
v -0.0000 154.5491 659.4664
v 231.7542 154.5491 650.9166
v 524.4676 230.3669 637.3401
v 302.8015 230.3669 667.8593
v 401.4101 154.5491 627.5582
v 302.8015 230.3669 667.8593
v 231.7542 154.5491 650.9166
v 401.4101 154.5491 627.5582
v 605.6030 230.3669 595.6500
v 524.4676 230.3669 637.3401
v 463.5085 154.5491 595.6500
v 524.4676 230.3669 637.3401
v 401.4101 154.5491 627.5582
v 463.5085 154.5491 595.6500
v 524.4676 230.3669 553.9599
v 605.6030 230.3669 595.6500
v 401.4101 154.5491 563.7418
v 605.6030 230.3669 595.6500
v 463.5085 154.5491 595.6500
v 401.4101 154.5491 563.7418
v 302.8015 230.3669 523.4407
v 524.4676 230.3669 553.9599
v 231.7542 154.5491 540.3834
v 524.4676 230.3669 553.9599
v 401.4101 154.5491 563.7418
v 231.7542 154.5491 540.3834
v 0.0000 230.3669 512.2699
v 302.8015 230.3669 523.4407
v 0.0000 154.5491 531.8336
v 302.8015 230.3669 523.4407
v 231.7542 154.5491 540.3834
v 0.0000 154.5491 531.8336
v -302.8015 230.3669 523.4407
v 0.0000 230.3669 512.2699
v -231.7542 154.5491 540.3834
v 0.0000 230.3669 512.2699
v 0.0000 154.5491 531.8336
v -231.7542 154.5491 540.3834
v -524.4676 230.3669 553.9599
v -302.8015 230.3669 523.4407
v -401.4101 154.5491 563.7418
v -302.8015 230.3669 523.4407
v -231.7542 154.5491 540.3834
v -401.4101 154.5491 563.7418
v -605.6030 230.3669 595.6500
v -524.4676 230.3669 553.9599
v -463.5085 154.5491 595.6500
v -524.4676 230.3669 553.9599
v -401.4101 154.5491 563.7418
v -463.5085 154.5491 595.6500
v -401.4101 154.5491 627.5582
v -463.5085 154.5491 595.6500
v -217.2416 103.8894 612.9186
v -463.5085 154.5491 595.6500
v -250.8490 103.8894 595.6500
v -217.2416 103.8894 612.9186
v -231.7542 154.5491 650.9166
v -401.4101 154.5491 627.5582
v -125.4245 103.8894 625.5601
v -401.4101 154.5491 627.5582
v -217.2416 103.8894 612.9186
v -125.4245 103.8894 625.5601
v -0.0000 154.5491 659.4664
v -231.7542 154.5491 650.9166
v -0.0000 103.8894 630.1872
v -231.7542 154.5491 650.9166
v -125.4245 103.8894 625.5601
v -0.0000 103.8894 630.1872
v 231.7542 154.5491 650.9166
v -0.0000 154.5491 659.4664
v 125.4245 103.8894 625.5601
v -0.0000 154.5491 659.4664
v -0.0000 103.8894 630.1872
v 125.4245 103.8894 625.5601
v 401.4101 154.5491 627.5582
v 231.7542 154.5491 650.9166
v 217.2416 103.8894 612.9186
v 231.7542 154.5491 650.9166
v 125.4245 103.8894 625.5601
v 217.2416 103.8894 612.9186
v 463.5085 154.5491 595.6500
v 401.4101 154.5491 627.5582
v 250.8490 103.8894 595.6500
v 401.4101 154.5491 627.5582
v 217.2416 103.8894 612.9186
v 250.8490 103.8894 595.6500
v 401.4101 154.5491 563.7418
v 463.5085 154.5491 595.6500
v 217.2416 103.8894 578.3814
v 463.5085 154.5491 595.6500
v 250.8490 103.8894 595.6500
v 217.2416 103.8894 578.3814
v 231.7542 154.5491 540.3834
v 401.4101 154.5491 563.7418
v 125.4245 103.8894 565.7399
v 401.4101 154.5491 563.7418
v 217.2416 103.8894 578.3814
v 125.4245 103.8894 565.7399
v 0.0000 154.5491 531.8336
v 231.7542 154.5491 540.3834
v 0.0000 103.8894 561.1128
v 231.7542 154.5491 540.3834
v 125.4245 103.8894 565.7399
v 0.0000 103.8894 561.1128
v -231.7542 154.5491 540.3834
v 0.0000 154.5491 531.8336
v -125.4245 103.8894 565.7399
v 0.0000 154.5491 531.8336
v 0.0000 103.8894 561.1128
v -125.4245 103.8894 565.7399
v -401.4101 154.5491 563.7418
v -231.7542 154.5491 540.3834
v -217.2416 103.8894 578.3814
v -231.7542 154.5491 540.3834
v -125.4245 103.8894 565.7399
v -217.2416 103.8894 578.3814
v -463.5085 154.5491 595.6500
v -401.4101 154.5491 563.7418
v -250.8490 103.8894 595.6500
v -401.4101 154.5491 563.7418
v -217.2416 103.8894 578.3814
v -250.8490 103.8894 595.6500
v -217.2416 103.8894 612.9186
v -250.8490 103.8894 595.6500
v -0.0000 86.1000 595.6500
v -125.4245 103.8894 625.5601
v -217.2416 103.8894 612.9186
v -0.0000 86.1000 595.6500
v -0.0000 103.8894 630.1872
v -125.4245 103.8894 625.5601
v -0.0000 86.1000 595.6500
v 125.4245 103.8894 625.5601
v -0.0000 103.8894 630.1872
v 0.0000 86.1000 595.6500
v 217.2416 103.8894 612.9186
v 125.4245 103.8894 625.5601
v 0.0000 86.1000 595.6500
v 250.8490 103.8894 595.6500
v 217.2416 103.8894 612.9186
v 0.0000 86.1000 595.6500
v 217.2416 103.8894 578.3814
v 250.8490 103.8894 595.6500
v 0.0000 86.1000 595.6500
v 125.4245 103.8894 565.7399
v 217.2416 103.8894 578.3814
v 0.0000 86.1000 595.6500
v 0.0000 103.8894 561.1128
v 125.4245 103.8894 565.7399
v 0.0000 86.1000 595.6500
v -125.4245 103.8894 565.7399
v 0.0000 103.8894 561.1128
v -0.0000 86.1000 595.6500
v -217.2416 103.8894 578.3814
v -125.4245 103.8894 565.7399
v -0.0000 86.1000 595.6500
v -250.8490 103.8894 595.6500
v -217.2416 103.8894 578.3814
v -0.0000 86.1000 595.6500
f 1 2 3
f 4 5 6
f 7 8 9
f 10 11 12
f 13 14 15
f 16 17 18
f 19 20 21
f 22 23 24
f 25 26 27
f 28 29 30
f 31 32 33
f 34 35 36
f 37 38 39
f 40 41 42
f 43 44 45
f 46 47 48
f 49 50 51
f 52 53 54
f 55 56 57
f 58 59 60
f 61 62 63
f 64 65 66
f 67 68 69
f 70 71 72
f 73 74 75
f 76 77 78
f 79 80 81
f 82 83 84
f 85 86 87
f 88 89 90
f 91 92 93
f 94 95 96
f 97 98 99
f 100 101 102
f 103 104 105
f 106 107 108
f 109 110 111
f 112 113 114
f 115 116 117
f 118 119 120
f 121 122 123
f 124 125 126
f 127 128 129
f 130 131 132
f 133 134 135
f 136 137 138
f 139 140 141
f 142 143 144
f 145 146 147
f 148 149 150
f 151 152 153
f 154 155 156
f 157 158 159
f 160 161 162
f 163 164 165
f 166 167 168
f 169 170 171
f 172 173 174
f 175 176 177
f 178 179 180
f 181 182 183
f 184 185 186
f 187 188 189
f 190 191 192
f 193 194 195
f 196 197 198
f 199 200 201
f 202 203 204
f 205 206 207
f 208 209 210
f 211 212 213
f 214 215 216
f 217 218 219
f 220 221 222
f 223 224 225
f 226 227 228
f 229 230 231
f 232 233 234
f 235 236 237
f 238 239 240
f 241 242 243
f 244 245 246
f 247 248 249
f 250 251 252
f 253 254 255
f 256 257 258
f 259 260 261
f 262 263 264
f 265 266 267
f 268 269 270
f 271 272 273
f 274 275 276
f 277 278 279
f 280 281 282
f 283 284 285
f 286 287 288
f 289 290 291
f 292 293 294
f 295 296 297
f 298 299 300
f 301 302 303
f 304 305 306
f 307 308 309
f 310 311 312
f 313 314 315
f 316 317 318
f 319 320 321
f 322 323 324
f 325 326 327
f 328 329 330
f 331 332 333
f 334 335 336
f 337 338 339
f 340 341 342
f 343 344 345
f 346 347 348
f 349 350 351
f 352 353 354
f 355 356 357
f 358 359 360
f 361 362 363
f 364 365 366
f 367 368 369
f 370 371 372
f 373 374 375
f 376 377 378
f 379 380 381
f 382 383 384
f 385 386 387
f 388 389 390
f 391 392 393
f 394 395 396
f 397 398 399
f 400 401 402
f 403 404 405
f 406 407 408
f 409 410 411
f 412 413 414
f 415 416 417
f 418 419 420
f 421 422 423
f 424 425 426
f 427 428 429
f 430 431 432
f 433 434 435
f 436 437 438
f 439 440 441
f 442 443 444
f 445 446 447
f 448 449 450
f 451 452 453
f 454 455 456
f 457 458 459
f 460 461 462
f 463 464 465
f 466 467 468
f 469 470 471
f 472 473 474
f 475 476 477
f 478 479 480
f 481 482 483
f 484 485 486
f 487 488 489
f 490 491 492
f 493 494 495
f 496 497 498
f 499 500 501
f 502 503 504
f 505 506 507
f 508 509 510
f 511 512 513
f 514 515 516
f 517 518 519
f 520 521 522
f 523 524 525
f 526 527 528
f 529 530 531
f 532 533 534
f 535 536 537
f 538 539 540
f 541 542 543
f 544 545 546
f 547 548 549
f 550 551 552
f 553 554 555
f 556 557 558
f 559 560 561
f 562 563 564
f 565 566 567
f 568 569 570
f 571 572 573
f 574 575 576
f 577 578 579
f 580 581 582
f 583 584 585
f 586 587 588
f 589 590 591
f 592 593 594
f 595 596 597
f 598 599 600
f 601 602 603
f 604 605 606
f 607 608 609
f 610 611 612
f 613 614 615
f 616 617 618
f 619 620 621
f 622 623 624
f 625 626 627
f 628 629 630
f 631 632 633
f 634 635 636
f 637 638 639
f 640 641 642
f 643 644 645
f 646 647 648
