0
SECTION
2
HEADER
9
$INSUNITS
70
4
0
ENDSEC
0
SECTION
2
ENTITIES
0
LWPOLYLINE
100
AcDbEntity
8
CUCITURA
100
AcDbPolyline
90
4
70
1
10
36.4000
20
0.0000
10
243.6000
20
0.0000
10
280.0000
20
-220.0000
10
0.0000
20
-220.0000
0
LWPOLYLINE
100
AcDbEntity
8
TAGLIO_STUDIO
100
AcDbPolyline
90
4
70
1
10
30.4630
20
7.0000
10
249.5370
20
7.0000
10
288.2533
20
-227.0000
10
-8.2533
20
-227.0000
0
LWPOLYLINE
100
AcDbEntity
8
CUCITURA
100
AcDbPolyline
90
4
70
1
10
376.4000
20
0.0000
10
583.6000
20
0.0000
10
620.0000
20
-220.0000
10
340.0000
20
-220.0000
0
LWPOLYLINE
100
AcDbEntity
8
TAGLIO_STUDIO
100
AcDbPolyline
90
4
70
1
10
370.4630
20
7.0000
10
589.5370
20
7.0000
10
628.2533
20
-227.0000
10
331.7467
20
-227.0000
0
LWPOLYLINE
100
AcDbEntity
8
CUCITURA
100
AcDbPolyline
90
4
70
1
10
0.0000
20
-280.0000
10
933.1819
20
-280.0000
10
933.1819
20
-380.0000
10
0.0000
20
-380.0000
0
LWPOLYLINE
100
AcDbEntity
8
TAGLIO_STUDIO
100
AcDbPolyline
90
4
70
1
10
-7.0000
20
-273.0000
10
940.1819
20
-273.0000
10
940.1819
20
-387.0000
10
-7.0000
20
-387.0000
0
ENDSEC
0
EOF
