0
SECTION
2
HEADER
9
$INSUNITS
70
4
0
ENDSEC
0
SECTION
2
ENTITIES
0
LWPOLYLINE
100
AcDbEntity
8
CUCITURA
100
AcDbPolyline
90
30
70
1
10
0.0000
20
-180.0000
10
0.0000
20
-63.0000
10
0.8790
20
-55.6861
10
3.5042
20
-48.4712
10
7.8400
20
-41.4527
10
13.8278
20
-34.7257
10
21.3866
20
-28.3809
10
30.4142
20
-22.5044
10
40.7886
20
-17.1755
10
52.3694
20
-12.4662
10
65.0000
20
-8.4404
10
78.5096
20
-5.1524
10
92.7156
20
-2.6467
10
107.4257
20
-0.9571
10
122.4412
20
-0.1066
10
137.5588
20
-0.1066
10
152.5743
20
-0.9571
10
167.2844
20
-2.6467
10
181.4904
20
-5.1524
10
195.0000
20
-8.4404
10
207.6306
20
-12.4662
10
219.2114
20
-17.1755
10
229.5858
20
-22.5044
10
238.6134
20
-28.3809
10
246.1722
20
-34.7257
10
252.1600
20
-41.4527
10
256.4958
20
-48.4712
10
259.1210
20
-55.6861
10
260.0000
20
-63.0000
10
260.0000
20
-180.0000
0
LWPOLYLINE
100
AcDbEntity
8
TAGLIO_STUDIO
100
AcDbPolyline
90
30
70
1
10
-7.0000
20
-187.0000
10
-7.0000
20
-62.5809
10
-5.9748
20
-54.0504
10
-2.8284
20
-45.4031
10
2.2055
20
-37.2545
10
8.9375
20
-29.6913
10
17.2116
20
-22.7462
10
26.8964
20
-16.4419
10
37.8653
20
-10.8076
10
49.9845
20
-5.8794
10
63.1071
20
-1.6968
10
77.0725
20
1.7022
10
91.7073
20
4.2836
10
106.8279
20
6.0202
10
122.2431
20
6.8934
10
137.7569
20
6.8934
10
153.1721
20
6.0202
10
168.2927
20
4.2836
10
182.9275
20
1.7022
10
196.8929
20
-1.6968
10
210.0155
20
-5.8794
10
222.1347
20
-10.8076
10
233.1036
20
-16.4419
10
242.7884
20
-22.7462
10
251.0625
20
-29.6913
10
257.7945
20
-37.2545
10
262.8284
20
-45.4031
10
265.9748
20
-54.0504
10
267.0000
20
-62.5809
10
267.0000
20
-187.0000
0
LWPOLYLINE
100
AcDbEntity
8
CUCITURA
100
AcDbPolyline
90
30
70
1
10
320.0000
20
-180.0000
10
320.0000
20
-63.0000
10
320.8790
20
-55.6861
10
323.5042
20
-48.4712
10
327.8400
20
-41.4527
10
333.8278
20
-34.7257
10
341.3866
20
-28.3809
10
350.4142
20
-22.5044
10
360.7886
20
-17.1755
10
372.3694
20
-12.4662
10
385.0000
20
-8.4404
10
398.5096
20
-5.1524
10
412.7156
20
-2.6467
10
427.4257
20
-0.9571
10
442.4412
20
-0.1066
10
457.5588
20
-0.1066
10
472.5743
20
-0.9571
10
487.2844
20
-2.6467
10
501.4904
20
-5.1524
10
515.0000
20
-8.4404
10
527.6306
20
-12.4662
10
539.2114
20
-17.1755
10
549.5858
20
-22.5044
10
558.6134
20
-28.3809
10
566.1722
20
-34.7257
10
572.1600
20
-41.4527
10
576.4958
20
-48.4712
10
579.1210
20
-55.6861
10
580.0000
20
-63.0000
10
580.0000
20
-180.0000
0
LWPOLYLINE
100
AcDbEntity
8
TAGLIO_STUDIO
100
AcDbPolyline
90
30
70
1
10
313.0000
20
-187.0000
10
313.0000
20
-62.5809
10
314.0252
20
-54.0504
10
317.1716
20
-45.4031
10
322.2055
20
-37.2545
10
328.9375
20
-29.6913
10
337.2116
20
-22.7462
10
346.8964
20
-16.4419
10
357.8653
20
-10.8076
10
369.9845
20
-5.8794
10
383.1071
20
-1.6968
10
397.0725
20
1.7022
10
411.7073
20
4.2836
10
426.8279
20
6.0202
10
442.2431
20
6.8934
10
457.7569
20
6.8934
10
473.1721
20
6.0202
10
488.2927
20
4.2836
10
502.9275
20
1.7022
10
516.8929
20
-1.6968
10
530.0155
20
-5.8794
10
542.1347
20
-10.8076
10
553.1036
20
-16.4419
10
562.7884
20
-22.7462
10
571.0625
20
-29.6913
10
577.7945
20
-37.2545
10
582.8284
20
-45.4031
10
585.9748
20
-54.0504
10
587.0000
20
-62.5809
10
587.0000
20
-187.0000
0
LWPOLYLINE
100
AcDbEntity
8
CUCITURA
100
AcDbPolyline
90
4
70
1
10
0.0000
20
-240.0000
10
806.1923
20
-240.0000
10
806.1923
20
-380.0000
10
0.0000
20
-380.0000
0
LWPOLYLINE
100
AcDbEntity
8
TAGLIO_STUDIO
100
AcDbPolyline
90
4
70
1
10
-7.0000
20
-233.0000
10
813.1923
20
-233.0000
10
813.1923
20
-387.0000
10
-7.0000
20
-387.0000
0
ENDSEC
0
EOF
