0
SECTION
2
HEADER
9
$INSUNITS
70
4
0
ENDSEC
0
SECTION
2
ENTITIES
0
LWPOLYLINE
100
AcDbEntity
8
CUCITURA
100
AcDbPolyline
90
30
70
1
10
0.0000
20
-490.0000
10
0.0000
20
-171.5000
10
0.9804
20
-151.5901
10
3.9085
20
-131.9494
10
8.7446
20
-112.8435
10
15.4233
20
-94.5309
10
23.8543
20
-77.2592
10
33.9236
20
-61.2619
10
45.4950
20
-46.7554
10
58.4120
20
-33.9359
10
72.5000
20
-22.9766
10
87.5684
20
-14.0259
10
103.4135
20
-7.2048
10
119.8210
20
-2.6055
10
136.5690
20
-0.2902
10
153.4310
20
-0.2902
10
170.1790
20
-2.6055
10
186.5865
20
-7.2048
10
202.4316
20
-14.0259
10
217.5000
20
-22.9766
10
231.5880
20
-33.9359
10
244.5050
20
-46.7554
10
256.0764
20
-61.2619
10
266.1457
20
-77.2592
10
274.5767
20
-94.5309
10
281.2554
20
-112.8435
10
286.0915
20
-131.9494
10
289.0196
20
-151.5901
10
290.0000
20
-171.5000
10
290.0000
20
-490.0000
0
LWPOLYLINE
100
AcDbEntity
8
TAGLIO_STUDIO
100
AcDbPolyline
90
30
70
1
10
-7.0000
20
-497.0000
10
-7.0000
20
-171.3278
10
-5.9941
20
-150.9002
10
-2.9634
20
-130.5710
10
2.0461
20
-110.7802
10
8.9723
20
-91.7889
10
17.7292
20
-73.8496
10
28.2076
20
-57.2023
10
40.2758
20
-42.0729
10
53.7807
20
-28.6700
10
68.5481
20
-17.1823
10
84.3837
20
-7.7758
10
101.0745
20
-0.5906
10
118.3904
20
4.2633
10
136.0874
20
6.7098
10
153.9126
20
6.7098
10
171.6096
20
4.2633
10
188.9255
20
-0.5906
10
205.6163
20
-7.7758
10
221.4519
20
-17.1823
10
236.2193
20
-28.6700
10
249.7242
20
-42.0729
10
261.7924
20
-57.2023
10
272.2708
20
-73.8496
10
281.0277
20
-91.7889
10
287.9539
20
-110.7802
10
292.9634
20
-130.5710
10
295.9941
20
-150.9002
10
297.0000
20
-171.3278
10
297.0000
20
-497.0000
0
LWPOLYLINE
100
AcDbEntity
8
CUCITURA
100
AcDbPolyline
90
30
70
1
10
350.0000
20
-490.0000
10
350.0000
20
-171.5000
10
350.9804
20
-151.5901
10
353.9085
20
-131.9494
10
358.7446
20
-112.8435
10
365.4233
20
-94.5309
10
373.8543
20
-77.2592
10
383.9236
20
-61.2619
10
395.4950
20
-46.7554
10
408.4120
20
-33.9359
10
422.5000
20
-22.9766
10
437.5684
20
-14.0259
10
453.4135
20
-7.2048
10
469.8210
20
-2.6055
10
486.5690
20
-0.2902
10
503.4310
20
-0.2902
10
520.1790
20
-2.6055
10
536.5865
20
-7.2048
10
552.4316
20
-14.0259
10
567.5000
20
-22.9766
10
581.5880
20
-33.9359
10
594.5050
20
-46.7554
10
606.0764
20
-61.2619
10
616.1457
20
-77.2592
10
624.5767
20
-94.5309
10
631.2554
20
-112.8435
10
636.0915
20
-131.9494
10
639.0196
20
-151.5901
10
640.0000
20
-171.5000
10
640.0000
20
-490.0000
0
LWPOLYLINE
100
AcDbEntity
8
TAGLIO_STUDIO
100
AcDbPolyline
90
30
70
1
10
343.0000
20
-497.0000
10
343.0000
20
-171.3278
10
344.0059
20
-150.9002
10
347.0366
20
-130.5710
10
352.0461
20
-110.7802
10
358.9723
20
-91.7889
10
367.7292
20
-73.8496
10
378.2076
20
-57.2023
10
390.2758
20
-42.0729
10
403.7807
20
-28.6700
10
418.5481
20
-17.1823
10
434.3837
20
-7.7758
10
451.0745
20
-0.5906
10
468.3904
20
4.2633
10
486.0874
20
6.7098
10
503.9126
20
6.7098
10
521.6096
20
4.2633
10
538.9255
20
-0.5906
10
555.6163
20
-7.7758
10
571.4519
20
-17.1823
10
586.2193
20
-28.6700
10
599.7242
20
-42.0729
10
611.7924
20
-57.2023
10
622.2708
20
-73.8496
10
631.0277
20
-91.7889
10
637.9539
20
-110.7802
10
642.9634
20
-130.5710
10
645.9941
20
-150.9002
10
647.0000
20
-171.3278
10
647.0000
20
-497.0000
0
LWPOLYLINE
100
AcDbEntity
8
CUCITURA
100
AcDbPolyline
90
4
70
1
10
0.0000
20
-550.0000
10
1424.7478
20
-550.0000
10
1424.7478
20
-730.0000
10
0.0000
20
-730.0000
0
LWPOLYLINE
100
AcDbEntity
8
TAGLIO_STUDIO
100
AcDbPolyline
90
4
70
1
10
-7.0000
20
-543.0000
10
1431.7478
20
-543.0000
10
1431.7478
20
-737.0000
10
-7.0000
20
-737.0000
0
ENDSEC
0
EOF
