0
SECTION
2
HEADER
9
$INSUNITS
70
4
0
ENDSEC
0
SECTION
2
ENTITIES
0
LWPOLYLINE
100
AcDbEntity
8
CUCITURA
100
AcDbPolyline
90
4
70
1
10
30.6000
20
0.0000
10
149.4000
20
0.0000
10
180.0000
20
-130.0000
10
0.0000
20
-130.0000
0
LWPOLYLINE
100
AcDbEntity
8
TAGLIO_STUDIO
100
AcDbPolyline
90
4
70
1
10
25.0564
20
7.0000
10
154.9436
20
7.0000
10
188.8390
20
-137.0000
10
-8.8390
20
-137.0000
0
LWPOLYLINE
100
AcDbEntity
8
CUCITURA
100
AcDbPolyline
90
4
70
1
10
270.6000
20
0.0000
10
389.4000
20
0.0000
10
420.0000
20
-130.0000
10
240.0000
20
-130.0000
0
LWPOLYLINE
100
AcDbEntity
8
TAGLIO_STUDIO
100
AcDbPolyline
90
4
70
1
10
265.0564
20
7.0000
10
394.9436
20
7.0000
10
428.8390
20
-137.0000
10
231.1610
20
-137.0000
0
LWPOLYLINE
100
AcDbEntity
8
CUCITURA
100
AcDbPolyline
90
4
70
1
10
0.0000
20
-190.0000
10
565.9057
20
-190.0000
10
565.9057
20
-270.0000
10
0.0000
20
-270.0000
0
LWPOLYLINE
100
AcDbEntity
8
TAGLIO_STUDIO
100
AcDbPolyline
90
4
70
1
10
-7.0000
20
-183.0000
10
572.9057
20
-183.0000
10
572.9057
20
-277.0000
10
-7.0000
20
-277.0000
0
ENDSEC
0
EOF
