0
SECTION
2
HEADER
9
$INSUNITS
70
4
0
ENDSEC
0
SECTION
2
ENTITIES
0
LWPOLYLINE
100
AcDbEntity
8
CUCITURA
100
AcDbPolyline
90
30
70
1
10
0.0000
20
-420.0000
10
0.0000
20
-147.0000
10
1.1157
20
-129.9343
10
4.4476
20
-113.0995
10
9.9507
20
-96.7230
10
17.5506
20
-81.0265
10
27.1445
20
-66.2222
10
38.6027
20
-52.5102
10
51.7701
20
-40.0761
10
66.4688
20
-29.0879
10
82.5000
20
-19.6943
10
99.6468
20
-12.0222
10
117.6775
20
-6.1755
10
136.3481
20
-2.2333
10
155.4061
20
-0.2487
10
174.5939
20
-0.2487
10
193.6519
20
-2.2333
10
212.3225
20
-6.1755
10
230.3532
20
-12.0222
10
247.5000
20
-19.6943
10
263.5312
20
-29.0879
10
278.2299
20
-40.0761
10
291.3973
20
-52.5102
10
302.8555
20
-66.2222
10
312.4494
20
-81.0265
10
320.0493
20
-96.7230
10
325.5524
20
-113.0995
10
328.8843
20
-129.9343
10
330.0000
20
-147.0000
10
330.0000
20
-420.0000
0
LWPOLYLINE
100
AcDbEntity
8
TAGLIO_STUDIO
100
AcDbPolyline
90
30
70
1
10
-7.0000
20
-427.0000
10
-7.0000
20
-146.7714
10
-5.8397
20
-129.0226
10
-2.3316
20
-111.2976
10
3.4568
20
-94.0723
10
11.4398
20
-77.5846
10
21.5009
20
-62.0592
10
33.4962
20
-47.7045
10
47.2566
20
-34.7104
10
62.5916
20
-23.2466
10
79.2915
20
-13.4611
10
97.1306
20
-5.4793
10
115.8698
20
0.5971
10
135.2595
20
4.6912
10
155.0426
20
6.7513
10
174.9574
20
6.7513
10
194.7405
20
4.6912
10
214.1302
20
0.5971
10
232.8694
20
-5.4793
10
250.7085
20
-13.4611
10
267.4084
20
-23.2466
10
282.7434
20
-34.7104
10
296.5038
20
-47.7045
10
308.4991
20
-62.0592
10
318.5602
20
-77.5846
10
326.5432
20
-94.0723
10
332.3316
20
-111.2976
10
335.8397
20
-129.0226
10
337.0000
20
-146.7714
10
337.0000
20
-427.0000
0
LWPOLYLINE
100
AcDbEntity
8
CUCITURA
100
AcDbPolyline
90
30
70
1
10
390.0000
20
-420.0000
10
390.0000
20
-147.0000
10
391.1157
20
-129.9343
10
394.4476
20
-113.0995
10
399.9507
20
-96.7230
10
407.5506
20
-81.0265
10
417.1445
20
-66.2222
10
428.6027
20
-52.5102
10
441.7701
20
-40.0761
10
456.4688
20
-29.0879
10
472.5000
20
-19.6943
10
489.6468
20
-12.0222
10
507.6775
20
-6.1755
10
526.3481
20
-2.2333
10
545.4061
20
-0.2487
10
564.5939
20
-0.2487
10
583.6519
20
-2.2333
10
602.3225
20
-6.1755
10
620.3532
20
-12.0222
10
637.5000
20
-19.6943
10
653.5312
20
-29.0879
10
668.2299
20
-40.0761
10
681.3973
20
-52.5102
10
692.8555
20
-66.2222
10
702.4494
20
-81.0265
10
710.0493
20
-96.7230
10
715.5524
20
-113.0995
10
718.8843
20
-129.9343
10
720.0000
20
-147.0000
10
720.0000
20
-420.0000
0
LWPOLYLINE
100
AcDbEntity
8
TAGLIO_STUDIO
100
AcDbPolyline
90
30
70
1
10
383.0000
20
-427.0000
10
383.0000
20
-146.7714
10
384.1603
20
-129.0226
10
387.6684
20
-111.2976
10
393.4568
20
-94.0723
10
401.4398
20
-77.5846
10
411.5009
20
-62.0592
10
423.4962
20
-47.7045
10
437.2566
20
-34.7104
10
452.5916
20
-23.2466
10
469.2915
20
-13.4611
10
487.1306
20
-5.4793
10
505.8698
20
0.5971
10
525.2595
20
4.6912
10
545.0426
20
6.7513
10
564.9574
20
6.7513
10
584.7405
20
4.6912
10
604.1302
20
0.5971
10
622.8694
20
-5.4793
10
640.7085
20
-13.4611
10
657.4084
20
-23.2466
10
672.7434
20
-34.7104
10
686.5038
20
-47.7045
10
698.4991
20
-62.0592
10
708.5602
20
-77.5846
10
716.5432
20
-94.0723
10
722.3316
20
-111.2976
10
725.8397
20
-129.0226
10
727.0000
20
-146.7714
10
727.0000
20
-427.0000
0
LWPOLYLINE
100
AcDbEntity
8
CUCITURA
100
AcDbPolyline
90
4
70
1
10
0.0000
20
-480.0000
10
1366.2197
20
-480.0000
10
1366.2197
20
-690.0000
10
0.0000
20
-690.0000
0
LWPOLYLINE
100
AcDbEntity
8
TAGLIO_STUDIO
100
AcDbPolyline
90
4
70
1
10
-7.0000
20
-473.0000
10
1373.2197
20
-473.0000
10
1373.2197
20
-697.0000
10
-7.0000
20
-697.0000
0
ENDSEC
0
EOF
