0
SECTION
2
HEADER
9
$INSUNITS
70
4
0
ENDSEC
0
SECTION
2
ENTITIES
0
LWPOLYLINE
100
AcDbEntity
8
CUCITURA
100
AcDbPolyline
90
4
70
1
10
0.0000
20
0.0000
10
180.0000
20
0.0000
10
180.0000
20
-120.0000
10
0.0000
20
-120.0000
0
LWPOLYLINE
100
AcDbEntity
8
TAGLIO_STUDIO
100
AcDbPolyline
90
4
70
1
10
-7.0000
20
7.0000
10
187.0000
20
7.0000
10
187.0000
20
-127.0000
10
-7.0000
20
-127.0000
0
LWPOLYLINE
100
AcDbEntity
8
CUCITURA
100
AcDbPolyline
90
4
70
1
10
240.0000
20
0.0000
10
420.0000
20
0.0000
10
420.0000
20
-120.0000
10
240.0000
20
-120.0000
0
LWPOLYLINE
100
AcDbEntity
8
TAGLIO_STUDIO
100
AcDbPolyline
90
4
70
1
10
233.0000
20
7.0000
10
427.0000
20
7.0000
10
427.0000
20
-127.0000
10
233.0000
20
-127.0000
0
LWPOLYLINE
100
AcDbEntity
8
CUCITURA
100
AcDbPolyline
90
4
70
1
10
0.0000
20
-180.0000
10
600.0000
20
-180.0000
10
600.0000
20
-240.0000
10
0.0000
20
-240.0000
0
LWPOLYLINE
100
AcDbEntity
8
TAGLIO_STUDIO
100
AcDbPolyline
90
4
70
1
10
-7.0000
20
-173.0000
10
607.0000
20
-173.0000
10
607.0000
20
-247.0000
10
-7.0000
20
-247.0000
0
ENDSEC
0
EOF
