0
SECTION
2
HEADER
9
$INSUNITS
70
4
0
ENDSEC
0
SECTION
2
ENTITIES
0
LWPOLYLINE
100
AcDbEntity
8
CUCITURA
100
AcDbPolyline
90
16
70
1
10
0.0000
20
-25.5000
10
16.8000
20
0.0000
10
44.8000
20
-10.2000
10
72.8000
20
-51.0000
10
112.0000
20
-68.0000
10
168.0000
20
-68.0000
10
207.2000
20
-51.0000
10
235.2000
20
-10.2000
10
263.2000
20
0.0000
10
280.0000
20
-25.5000
10
268.8000
20
-108.8000
10
235.2000
20
-146.2000
10
179.2000
20
-170.0000
10
100.8000
20
-170.0000
10
44.8000
20
-146.2000
10
11.2000
20
-108.8000
0
LWPOLYLINE
100
AcDbEntity
8
TAGLIO_STUDIO
100
AcDbPolyline
90
16
70
1
10
-7.2867
20
-23.8365
10
13.9981
20
8.4707
10
49.3028
20
-4.3903
10
77.4323
20
-45.3790
10
113.4525
20
-61.0000
10
166.5475
20
-61.0000
10
202.5677
20
-45.3790
10
230.6972
20
-4.3903
10
266.0019
20
8.4707
10
287.2867
20
-23.8365
10
275.4499
20
-111.8723
10
239.3685
20
-152.0344
10
180.6258
20
-177.0000
10
99.3742
20
-177.0000
10
40.6315
20
-152.0344
10
4.5501
20
-111.8723
0
LWPOLYLINE
100
AcDbEntity
8
CUCITURA
100
AcDbPolyline
90
16
70
1
10
340.0000
20
-25.5000
10
356.8000
20
0.0000
10
384.8000
20
-10.2000
10
412.8000
20
-51.0000
10
452.0000
20
-68.0000
10
508.0000
20
-68.0000
10
547.2000
20
-51.0000
10
575.2000
20
-10.2000
10
603.2000
20
0.0000
10
620.0000
20
-25.5000
10
608.8000
20
-108.8000
10
575.2000
20
-146.2000
10
519.2000
20
-170.0000
10
440.8000
20
-170.0000
10
384.8000
20
-146.2000
10
351.2000
20
-108.8000
0
LWPOLYLINE
100
AcDbEntity
8
TAGLIO_STUDIO
100
AcDbPolyline
90
16
70
1
10
332.7133
20
-23.8365
10
353.9981
20
8.4707
10
389.3028
20
-4.3903
10
417.4323
20
-45.3790
10
453.4525
20
-61.0000
10
506.5475
20
-61.0000
10
542.5677
20
-45.3790
10
570.6972
20
-4.3903
10
606.0019
20
8.4707
10
627.2867
20
-23.8365
10
615.4499
20
-111.8723
10
579.3685
20
-152.0344
10
520.6258
20
-177.0000
10
439.3742
20
-177.0000
10
380.6315
20
-152.0344
10
344.5501
20
-111.8723
0
LWPOLYLINE
100
AcDbEntity
8
CUCITURA
100
AcDbPolyline
90
4
70
1
10
0.0000
20
-230.0000
10
829.8433
20
-230.0000
10
829.8433
20
-310.0000
10
0.0000
20
-310.0000
0
LWPOLYLINE
100
AcDbEntity
8
TAGLIO_STUDIO
100
AcDbPolyline
90
4
70
1
10
-7.0000
20
-223.0000
10
836.8433
20
-223.0000
10
836.8433
20
-317.0000
10
-7.0000
20
-317.0000
0
ENDSEC
0
EOF
