0
SECTION
2
HEADER
9
$INSUNITS
70
4
0
ENDSEC
0
SECTION
2
ENTITIES
0
LWPOLYLINE
100
AcDbEntity
8
CUCITURA
100
AcDbPolyline
90
4
70
1
10
0.0000
20
0.0000
10
280.0000
20
0.0000
10
280.0000
20
-200.0000
10
0.0000
20
-200.0000
0
LWPOLYLINE
100
AcDbEntity
8
TAGLIO_STUDIO
100
AcDbPolyline
90
4
70
1
10
-7.0000
20
7.0000
10
287.0000
20
7.0000
10
287.0000
20
-207.0000
10
-7.0000
20
-207.0000
0
LWPOLYLINE
100
AcDbEntity
8
CUCITURA
100
AcDbPolyline
90
4
70
1
10
340.0000
20
0.0000
10
620.0000
20
0.0000
10
620.0000
20
-200.0000
10
340.0000
20
-200.0000
0
LWPOLYLINE
100
AcDbEntity
8
TAGLIO_STUDIO
100
AcDbPolyline
90
4
70
1
10
333.0000
20
7.0000
10
627.0000
20
7.0000
10
627.0000
20
-207.0000
10
333.0000
20
-207.0000
0
LWPOLYLINE
100
AcDbEntity
8
CUCITURA
100
AcDbPolyline
90
4
70
1
10
0.0000
20
-260.0000
10
960.0000
20
-260.0000
10
960.0000
20
-350.0000
10
0.0000
20
-350.0000
0
LWPOLYLINE
100
AcDbEntity
8
TAGLIO_STUDIO
100
AcDbPolyline
90
4
70
1
10
-7.0000
20
-253.0000
10
967.0000
20
-253.0000
10
967.0000
20
-357.0000
10
-7.0000
20
-357.0000
0
ENDSEC
0
EOF
