0
SECTION
2
HEADER
9
$INSUNITS
70
4
0
ENDSEC
0
SECTION
2
ENTITIES
0
LWPOLYLINE
100
AcDbEntity
8
CUCITURA
100
AcDbPolyline
90
30
70
1
10
0.0000
20
-270.0000
10
0.0000
20
-94.5000
10
1.4876
20
-83.5292
10
5.9301
20
-72.7068
10
13.2676
20
-62.1791
10
23.4008
20
-52.0885
10
36.1927
20
-42.5714
10
51.4702
20
-33.7566
10
69.0268
20
-25.7632
10
88.6251
20
-18.6994
10
110.0000
20
-12.6606
10
132.8625
20
-7.7286
10
156.9033
20
-3.9700
10
181.7974
20
-1.4357
10
207.2081
20
-0.1599
10
232.7919
20
-0.1599
10
258.2026
20
-1.4357
10
283.0967
20
-3.9700
10
307.1375
20
-7.7286
10
330.0000
20
-12.6606
10
351.3749
20
-18.6994
10
370.9732
20
-25.7632
10
388.5298
20
-33.7566
10
403.8073
20
-42.5714
10
416.5992
20
-52.0885
10
426.7324
20
-62.1791
10
434.0699
20
-72.7068
10
438.5124
20
-83.5292
10
440.0000
20
-94.5000
10
440.0000
20
-270.0000
0
LWPOLYLINE
100
AcDbEntity
8
TAGLIO_STUDIO
100
AcDbPolyline
90
30
70
1
10
-7.0000
20
-277.0000
10
-7.0000
20
-94.0276
10
-5.3285
20
-81.7003
10
-0.2530
20
-69.3361
10
7.8836
20
-57.6617
10
18.8184
20
-46.7730
10
32.3413
20
-36.7120
10
48.2634
20
-27.5252
10
66.3854
20
-19.2744
10
86.4841
20
-12.0302
10
108.3087
20
-5.8644
10
131.5827
20
-0.8436
10
156.0075
20
2.9750
10
181.2671
20
5.5465
10
207.0325
20
6.8401
10
232.9675
20
6.8401
10
258.7329
20
5.5465
10
283.9925
20
2.9750
10
308.4173
20
-0.8436
10
331.6913
20
-5.8644
10
353.5159
20
-12.0302
10
373.6146
20
-19.2744
10
391.7366
20
-27.5252
10
407.6587
20
-36.7120
10
421.1816
20
-46.7730
10
432.1164
20
-57.6617
10
440.2530
20
-69.3361
10
445.3285
20
-81.7003
10
447.0000
20
-94.0276
10
447.0000
20
-277.0000
0
LWPOLYLINE
100
AcDbEntity
8
CUCITURA
100
AcDbPolyline
90
30
70
1
10
500.0000
20
-270.0000
10
500.0000
20
-94.5000
10
501.4876
20
-83.5292
10
505.9301
20
-72.7068
10
513.2676
20
-62.1791
10
523.4008
20
-52.0885
10
536.1927
20
-42.5714
10
551.4702
20
-33.7566
10
569.0268
20
-25.7632
10
588.6251
20
-18.6994
10
610.0000
20
-12.6606
10
632.8625
20
-7.7286
10
656.9033
20
-3.9700
10
681.7974
20
-1.4357
10
707.2081
20
-0.1599
10
732.7919
20
-0.1599
10
758.2026
20
-1.4357
10
783.0967
20
-3.9700
10
807.1375
20
-7.7286
10
830.0000
20
-12.6606
10
851.3749
20
-18.6994
10
870.9732
20
-25.7632
10
888.5298
20
-33.7566
10
903.8073
20
-42.5714
10
916.5992
20
-52.0885
10
926.7324
20
-62.1791
10
934.0699
20
-72.7068
10
938.5124
20
-83.5292
10
940.0000
20
-94.5000
10
940.0000
20
-270.0000
0
LWPOLYLINE
100
AcDbEntity
8
TAGLIO_STUDIO
100
AcDbPolyline
90
30
70
1
10
493.0000
20
-277.0000
10
493.0000
20
-94.0276
10
494.6715
20
-81.7003
10
499.7470
20
-69.3361
10
507.8836
20
-57.6617
10
518.8184
20
-46.7730
10
532.3413
20
-36.7120
10
548.2634
20
-27.5252
10
566.3854
20
-19.2744
10
586.4841
20
-12.0302
10
608.3087
20
-5.8644
10
631.5827
20
-0.8436
10
656.0075
20
2.9750
10
681.2671
20
5.5465
10
707.0325
20
6.8401
10
732.9675
20
6.8401
10
758.7329
20
5.5465
10
783.9925
20
2.9750
10
808.4173
20
-0.8436
10
831.6913
20
-5.8644
10
853.5159
20
-12.0302
10
873.6146
20
-19.2744
10
891.7366
20
-27.5252
10
907.6587
20
-36.7120
10
921.1816
20
-46.7730
10
932.1164
20
-57.6617
10
940.2530
20
-69.3361
10
945.3285
20
-81.7003
10
947.0000
20
-94.0276
10
947.0000
20
-277.0000
0
LWPOLYLINE
100
AcDbEntity
8
CUCITURA
100
AcDbPolyline
90
4
70
1
10
0.0000
20
-330.0000
10
1304.5961
20
-330.0000
10
1304.5961
20
-530.0000
10
0.0000
20
-530.0000
0
LWPOLYLINE
100
AcDbEntity
8
TAGLIO_STUDIO
100
AcDbPolyline
90
4
70
1
10
-7.0000
20
-323.0000
10
1311.5961
20
-323.0000
10
1311.5961
20
-537.0000
10
-7.0000
20
-537.0000
0
ENDSEC
0
EOF
