0
SECTION
2
HEADER
9
$INSUNITS
70
4
0
ENDSEC
0
SECTION
2
ENTITIES
0
LWPOLYLINE
100
AcDbEntity
8
CUCITURA
100
AcDbPolyline
90
4
70
1
10
0.0000
20
0.0000
10
330.2000
20
0.0000
10
330.2000
20
-304.8000
10
0.0000
20
-304.8000
0
LWPOLYLINE
100
AcDbEntity
8
TAGLIO_STUDIO
100
AcDbPolyline
90
4
70
1
10
-7.0000
20
7.0000
10
337.2000
20
7.0000
10
337.2000
20
-311.8000
10
-7.0000
20
-311.8000
0
LWPOLYLINE
100
AcDbEntity
8
CUCITURA
100
AcDbPolyline
90
4
70
1
10
390.2000
20
0.0000
10
720.4000
20
0.0000
10
720.4000
20
-304.8000
10
390.2000
20
-304.8000
0
LWPOLYLINE
100
AcDbEntity
8
TAGLIO_STUDIO
100
AcDbPolyline
90
4
70
1
10
383.2000
20
7.0000
10
727.4000
20
7.0000
10
727.4000
20
-311.8000
10
383.2000
20
-311.8000
0
LWPOLYLINE
100
AcDbEntity
8
CUCITURA
100
AcDbPolyline
90
4
70
1
10
0.0000
20
-364.8000
10
1270.0000
20
-364.8000
10
1270.0000
20
-517.2000
10
0.0000
20
-517.2000
0
LWPOLYLINE
100
AcDbEntity
8
TAGLIO_STUDIO
100
AcDbPolyline
90
4
70
1
10
-7.0000
20
-357.8000
10
1277.0000
20
-357.8000
10
1277.0000
20
-524.2000
10
-7.0000
20
-524.2000
0
ENDSEC
0
EOF
