0
SECTION
2
HEADER
9
$INSUNITS
70
4
0
ENDSEC
0
SECTION
2
ENTITIES
0
LWPOLYLINE
100
AcDbEntity
8
CUCITURA
100
AcDbPolyline
90
4
70
1
10
0.0000
20
0.0000
10
290.0000
20
0.0000
10
290.0000
20
-300.0000
10
0.0000
20
-300.0000
0
LWPOLYLINE
100
AcDbEntity
8
TAGLIO_STUDIO
100
AcDbPolyline
90
4
70
1
10
-7.0000
20
7.0000
10
297.0000
20
7.0000
10
297.0000
20
-307.0000
10
-7.0000
20
-307.0000
0
LWPOLYLINE
100
AcDbEntity
8
CUCITURA
100
AcDbPolyline
90
4
70
1
10
350.0000
20
0.0000
10
640.0000
20
0.0000
10
640.0000
20
-300.0000
10
350.0000
20
-300.0000
0
LWPOLYLINE
100
AcDbEntity
8
TAGLIO_STUDIO
100
AcDbPolyline
90
4
70
1
10
343.0000
20
7.0000
10
647.0000
20
7.0000
10
647.0000
20
-307.0000
10
343.0000
20
-307.0000
0
LWPOLYLINE
100
AcDbEntity
8
CUCITURA
100
AcDbPolyline
90
4
70
1
10
0.0000
20
-360.0000
10
1180.0000
20
-360.0000
10
1180.0000
20
-510.0000
10
0.0000
20
-510.0000
0
LWPOLYLINE
100
AcDbEntity
8
TAGLIO_STUDIO
100
AcDbPolyline
90
4
70
1
10
-7.0000
20
-353.0000
10
1187.0000
20
-353.0000
10
1187.0000
20
-517.0000
10
-7.0000
20
-517.0000
0
ENDSEC
0
EOF
