0
SECTION
2
HEADER
9
$INSUNITS
70
4
0
ENDSEC
0
SECTION
2
ENTITIES
0
LWPOLYLINE
100
AcDbEntity
8
CUCITURA
100
AcDbPolyline
90
4
70
1
10
29.9000
20
0.0000
10
200.1000
20
0.0000
10
230.0000
20
-200.0000
10
0.0000
20
-200.0000
0
LWPOLYLINE
100
AcDbEntity
8
TAGLIO_STUDIO
100
AcDbPolyline
90
4
70
1
10
23.8687
20
7.0000
10
206.1313
20
7.0000
10
238.1243
20
-207.0000
10
-8.1243
20
-207.0000
0
LWPOLYLINE
100
AcDbEntity
8
CUCITURA
100
AcDbPolyline
90
4
70
1
10
319.9000
20
0.0000
10
490.1000
20
0.0000
10
520.0000
20
-200.0000
10
290.0000
20
-200.0000
0
LWPOLYLINE
100
AcDbEntity
8
TAGLIO_STUDIO
100
AcDbPolyline
90
4
70
1
10
313.8687
20
7.0000
10
496.1313
20
7.0000
10
528.1243
20
-207.0000
10
281.8757
20
-207.0000
0
LWPOLYLINE
100
AcDbEntity
8
CUCITURA
100
AcDbPolyline
90
4
70
1
10
0.0000
20
-260.0000
10
804.6453
20
-260.0000
10
804.6453
20
-360.0000
10
0.0000
20
-360.0000
0
LWPOLYLINE
100
AcDbEntity
8
TAGLIO_STUDIO
100
AcDbPolyline
90
4
70
1
10
-7.0000
20
-253.0000
10
811.6453
20
-253.0000
10
811.6453
20
-367.0000
10
-7.0000
20
-367.0000
0
ENDSEC
0
EOF
