0
SECTION
2
HEADER
9
$INSUNITS
70
4
0
ENDSEC
0
SECTION
2
ENTITIES
0
LWPOLYLINE
100
AcDbEntity
8
CUCITURA
100
AcDbPolyline
90
16
70
1
10
0.0000
20
-34.5000
10
18.0000
20
0.0000
10
48.0000
20
-13.8000
10
78.0000
20
-69.0000
10
120.0000
20
-92.0000
10
180.0000
20
-92.0000
10
222.0000
20
-69.0000
10
252.0000
20
-13.8000
10
282.0000
20
0.0000
10
300.0000
20
-34.5000
10
288.0000
20
-147.2000
10
252.0000
20
-197.8000
10
192.0000
20
-230.0000
10
108.0000
20
-230.0000
10
48.0000
20
-197.8000
10
12.0000
20
-147.2000
0
LWPOLYLINE
100
AcDbEntity
8
TAGLIO_STUDIO
100
AcDbPolyline
90
16
70
1
10
-7.1846
20
-33.1376
10
14.8747
20
9.1427
10
53.0393
20
-8.4130
10
83.1675
20
-63.8489
10
121.7912
20
-85.0000
10
178.2088
20
-85.0000
10
216.8325
20
-63.8489
10
246.9607
20
-8.4130
10
285.1253
20
9.1427
10
307.1846
20
-33.1376
10
294.7665
20
-149.7642
10
256.7539
20
-203.1931
10
193.7596
20
-237.0000
10
106.2404
20
-237.0000
10
43.2461
20
-203.1931
10
5.2335
20
-149.7642
0
LWPOLYLINE
100
AcDbEntity
8
CUCITURA
100
AcDbPolyline
90
16
70
1
10
360.0000
20
-34.5000
10
378.0000
20
0.0000
10
408.0000
20
-13.8000
10
438.0000
20
-69.0000
10
480.0000
20
-92.0000
10
540.0000
20
-92.0000
10
582.0000
20
-69.0000
10
612.0000
20
-13.8000
10
642.0000
20
0.0000
10
660.0000
20
-34.5000
10
648.0000
20
-147.2000
10
612.0000
20
-197.8000
10
552.0000
20
-230.0000
10
468.0000
20
-230.0000
10
408.0000
20
-197.8000
10
372.0000
20
-147.2000
0
LWPOLYLINE
100
AcDbEntity
8
TAGLIO_STUDIO
100
AcDbPolyline
90
16
70
1
10
352.8154
20
-33.1376
10
374.8747
20
9.1427
10
413.0393
20
-8.4130
10
443.1675
20
-63.8489
10
481.7912
20
-85.0000
10
538.2088
20
-85.0000
10
576.8325
20
-63.8489
10
606.9607
20
-8.4130
10
645.1253
20
9.1427
10
667.1846
20
-33.1376
10
654.7665
20
-149.7642
10
616.7539
20
-203.1931
10
553.7596
20
-237.0000
10
466.2404
20
-237.0000
10
403.2461
20
-203.1931
10
365.2335
20
-149.7642
0
LWPOLYLINE
100
AcDbEntity
8
CUCITURA
100
AcDbPolyline
90
4
70
1
10
0.0000
20
-290.0000
10
996.3539
20
-290.0000
10
996.3539
20
-420.0000
10
0.0000
20
-420.0000
0
LWPOLYLINE
100
AcDbEntity
8
TAGLIO_STUDIO
100
AcDbPolyline
90
4
70
1
10
-7.0000
20
-283.0000
10
1003.3539
20
-283.0000
10
1003.3539
20
-427.0000
10
-7.0000
20
-427.0000
0
ENDSEC
0
EOF
