0
SECTION
2
HEADER
9
$INSUNITS
70
4
0
ENDSEC
0
SECTION
2
ENTITIES
0
LWPOLYLINE
100
AcDbEntity
8
CUCITURA
100
AcDbPolyline
90
4
70
1
10
0.0000
20
0.0000
10
400.0000
20
0.0000
10
340.0000
20
-260.0000
10
60.0000
20
-260.0000
0
LWPOLYLINE
100
AcDbEntity
8
TAGLIO_STUDIO
100
AcDbPolyline
90
4
70
1
10
-8.7994
20
7.0000
10
408.7994
20
7.0000
10
345.5686
20
-267.0000
10
54.4314
20
-267.0000
0
LWPOLYLINE
100
AcDbEntity
8
CUCITURA
100
AcDbPolyline
90
4
70
1
10
460.0000
20
0.0000
10
860.0000
20
0.0000
10
800.0000
20
-260.0000
10
520.0000
20
-260.0000
0
LWPOLYLINE
100
AcDbEntity
8
TAGLIO_STUDIO
100
AcDbPolyline
90
4
70
1
10
451.2006
20
7.0000
10
868.7994
20
7.0000
10
805.5686
20
-267.0000
10
514.4314
20
-267.0000
0
LWPOLYLINE
100
AcDbEntity
8
CUCITURA
100
AcDbPolyline
90
4
70
1
10
0.0000
20
-320.0000
10
1213.6666
20
-320.0000
10
1213.6666
20
-480.0000
10
0.0000
20
-480.0000
0
LWPOLYLINE
100
AcDbEntity
8
TAGLIO_STUDIO
100
AcDbPolyline
90
4
70
1
10
-7.0000
20
-313.0000
10
1220.6666
20
-313.0000
10
1220.6666
20
-487.0000
10
-7.0000
20
-487.0000
0
ENDSEC
0
EOF
