0
SECTION
2
HEADER
9
$INSUNITS
70
4
0
ENDSEC
0
SECTION
2
ENTITIES
0
LWPOLYLINE
100
AcDbEntity
8
CUCITURA
100
AcDbPolyline
90
30
70
1
10
0.0000
20
-180.0000
10
0.0000
20
-63.0000
10
0.9466
20
-55.6861
10
3.7737
20
-48.4712
10
8.4430
20
-41.4527
10
14.8914
20
-34.7257
10
23.0317
20
-28.3809
10
32.7538
20
-22.5044
10
43.9262
20
-17.1755
10
56.3978
20
-12.4662
10
70.0000
20
-8.4404
10
84.5488
20
-5.1524
10
99.8475
20
-2.6467
10
115.6893
20
-0.9571
10
131.8597
20
-0.1066
10
148.1403
20
-0.1066
10
164.3107
20
-0.9571
10
180.1525
20
-2.6467
10
195.4512
20
-5.1524
10
210.0000
20
-8.4404
10
223.6022
20
-12.4662
10
236.0738
20
-17.1755
10
247.2462
20
-22.5044
10
256.9683
20
-28.3809
10
265.1086
20
-34.7257
10
271.5570
20
-41.4527
10
276.2263
20
-48.4712
10
279.0534
20
-55.6861
10
280.0000
20
-63.0000
10
280.0000
20
-180.0000
0
LWPOLYLINE
100
AcDbEntity
8
TAGLIO_STUDIO
100
AcDbPolyline
90
30
70
1
10
-7.0000
20
-187.0000
10
-7.0000
20
-62.5489
10
-5.8850
20
-53.9339
10
-2.4700
20
-45.2187
10
2.9594
20
-37.0577
10
10.1887
20
-29.5160
10
19.0556
20
-22.6049
10
29.4284
20
-16.3350
10
41.1782
20
-10.7307
10
54.1651
20
-5.8269
10
68.2333
20
-1.6631
10
83.2104
20
1.7217
10
98.9099
20
4.2930
10
115.1338
20
6.0234
10
131.6758
20
6.8934
10
148.3242
20
6.8934
10
164.8662
20
6.0234
10
181.0901
20
4.2930
10
196.7896
20
1.7217
10
211.7667
20
-1.6631
10
225.8349
20
-5.8269
10
238.8218
20
-10.7307
10
250.5716
20
-16.3350
10
260.9444
20
-22.6049
10
269.8113
20
-29.5160
10
277.0406
20
-37.0577
10
282.4700
20
-45.2187
10
285.8850
20
-53.9339
10
287.0000
20
-62.5489
10
287.0000
20
-187.0000
0
LWPOLYLINE
100
AcDbEntity
8
CUCITURA
100
AcDbPolyline
90
30
70
1
10
340.0000
20
-180.0000
10
340.0000
20
-63.0000
10
340.9466
20
-55.6861
10
343.7737
20
-48.4712
10
348.4430
20
-41.4527
10
354.8914
20
-34.7257
10
363.0317
20
-28.3809
10
372.7538
20
-22.5044
10
383.9262
20
-17.1755
10
396.3978
20
-12.4662
10
410.0000
20
-8.4404
10
424.5488
20
-5.1524
10
439.8475
20
-2.6467
10
455.6893
20
-0.9571
10
471.8597
20
-0.1066
10
488.1403
20
-0.1066
10
504.3107
20
-0.9571
10
520.1525
20
-2.6467
10
535.4512
20
-5.1524
10
550.0000
20
-8.4404
10
563.6022
20
-12.4662
10
576.0738
20
-17.1755
10
587.2462
20
-22.5044
10
596.9683
20
-28.3809
10
605.1086
20
-34.7257
10
611.5570
20
-41.4527
10
616.2263
20
-48.4712
10
619.0534
20
-55.6861
10
620.0000
20
-63.0000
10
620.0000
20
-180.0000
0
LWPOLYLINE
100
AcDbEntity
8
TAGLIO_STUDIO
100
AcDbPolyline
90
30
70
1
10
333.0000
20
-187.0000
10
333.0000
20
-62.5489
10
334.1150
20
-53.9339
10
337.5300
20
-45.2187
10
342.9594
20
-37.0577
10
350.1887
20
-29.5160
10
359.0556
20
-22.6049
10
369.4284
20
-16.3350
10
381.1782
20
-10.7307
10
394.1651
20
-5.8269
10
408.2333
20
-1.6631
10
423.2104
20
1.7217
10
438.9099
20
4.2930
10
455.1338
20
6.0234
10
471.6758
20
6.8934
10
488.3242
20
6.8934
10
504.8662
20
6.0234
10
521.0901
20
4.2930
10
536.7896
20
1.7217
10
551.7667
20
-1.6631
10
565.8349
20
-5.8269
10
578.8218
20
-10.7307
10
590.5716
20
-16.3350
10
600.9444
20
-22.6049
10
609.8113
20
-29.5160
10
617.0406
20
-37.0577
10
622.4700
20
-45.2187
10
625.8850
20
-53.9339
10
627.0000
20
-62.5489
10
627.0000
20
-187.0000
0
LWPOLYLINE
100
AcDbEntity
8
CUCITURA
100
AcDbPolyline
90
4
70
1
10
0.0000
20
-240.0000
10
844.2619
20
-240.0000
10
844.2619
20
-350.0000
10
0.0000
20
-350.0000
0
LWPOLYLINE
100
AcDbEntity
8
TAGLIO_STUDIO
100
AcDbPolyline
90
4
70
1
10
-7.0000
20
-233.0000
10
851.2619
20
-233.0000
10
851.2619
20
-357.0000
10
-7.0000
20
-357.0000
0
ENDSEC
0
EOF
