0
SECTION
2
HEADER
9
$INSUNITS
70
4
0
ENDSEC
0
SECTION
2
ENTITIES
0
LWPOLYLINE
100
AcDbEntity
8
CUCITURA
100
AcDbPolyline
90
7
70
1
10
14.4000
20
0.0000
10
216.0000
20
0.0000
10
240.0000
20
-25.6000
10
240.0000
20
-152.0000
10
220.8000
20
-160.0000
10
0.0000
20
-152.0000
10
0.0000
20
-32.0000
0
LWPOLYLINE
100
AcDbEntity
8
TAGLIO_STUDIO
100
AcDbPolyline
90
7
70
1
10
9.8739
20
7.0000
10
219.0326
20
7.0000
10
247.0000
20
-22.8319
10
247.0000
20
-156.6667
10
222.0779
20
-167.0509
10
-7.0000
20
-158.7510
10
-7.0000
20
-30.4976
0
LWPOLYLINE
100
AcDbEntity
8
CUCITURA
100
AcDbPolyline
90
7
70
1
10
314.4000
20
0.0000
10
516.0000
20
0.0000
10
540.0000
20
-25.6000
10
540.0000
20
-152.0000
10
520.8000
20
-160.0000
10
300.0000
20
-152.0000
10
300.0000
20
-32.0000
0
LWPOLYLINE
100
AcDbEntity
8
TAGLIO_STUDIO
100
AcDbPolyline
90
7
70
1
10
309.8739
20
7.0000
10
519.0326
20
7.0000
10
547.0000
20
-22.8319
10
547.0000
20
-156.6667
10
522.0779
20
-167.0509
10
293.0000
20
-158.7510
10
293.0000
20
-30.4976
0
LWPOLYLINE
100
AcDbEntity
8
CUCITURA
100
AcDbPolyline
90
4
70
1
10
0.0000
20
-220.0000
10
759.9264
20
-220.0000
10
759.9264
20
-330.0000
10
0.0000
20
-330.0000
0
LWPOLYLINE
100
AcDbEntity
8
TAGLIO_STUDIO
100
AcDbPolyline
90
4
70
1
10
-7.0000
20
-213.0000
10
766.9264
20
-213.0000
10
766.9264
20
-337.0000
10
-7.0000
20
-337.0000
0
ENDSEC
0
EOF
