0
SECTION
2
HEADER
9
$INSUNITS
70
4
0
ENDSEC
0
SECTION
2
ENTITIES
0
LWPOLYLINE
100
AcDbEntity
8
CUCITURA
100
AcDbPolyline
90
10
70
1
10
20.0000
20
0.0000
10
230.0000
20
0.0000
10
250.0000
20
-66.5000
10
245.0000
20
-133.0000
10
215.0000
20
-171.0000
10
162.5000
20
-190.0000
10
87.5000
20
-190.0000
10
35.0000
20
-171.0000
10
5.0000
20
-133.0000
10
0.0000
20
-66.5000
0
LWPOLYLINE
100
AcDbEntity
8
TAGLIO_STUDIO
100
AcDbPolyline
90
10
70
1
10
14.7955
20
7.0000
10
235.2045
20
7.0000
10
257.0778
20
-65.7287
10
251.8199
20
-135.6583
10
219.2580
20
-176.9033
10
163.7277
20
-197.0000
10
86.2723
20
-197.0000
10
30.7420
20
-176.9033
10
-1.8199
20
-135.6583
10
-7.0778
20
-65.7287
0
LWPOLYLINE
100
AcDbEntity
8
CUCITURA
100
AcDbPolyline
90
10
70
1
10
330.0000
20
0.0000
10
540.0000
20
0.0000
10
560.0000
20
-66.5000
10
555.0000
20
-133.0000
10
525.0000
20
-171.0000
10
472.5000
20
-190.0000
10
397.5000
20
-190.0000
10
345.0000
20
-171.0000
10
315.0000
20
-133.0000
10
310.0000
20
-66.5000
0
LWPOLYLINE
100
AcDbEntity
8
TAGLIO_STUDIO
100
AcDbPolyline
90
10
70
1
10
324.7955
20
7.0000
10
545.2045
20
7.0000
10
567.0778
20
-65.7287
10
561.8199
20
-135.6583
10
529.2580
20
-176.9033
10
473.7277
20
-197.0000
10
396.2723
20
-197.0000
10
340.7420
20
-176.9033
10
308.1801
20
-135.6583
10
302.9222
20
-65.7287
0
LWPOLYLINE
100
AcDbEntity
8
CUCITURA
100
AcDbPolyline
90
4
70
1
10
0.0000
20
-250.0000
10
765.7547
20
-250.0000
10
765.7547
20
-360.0000
10
0.0000
20
-360.0000
0
LWPOLYLINE
100
AcDbEntity
8
TAGLIO_STUDIO
100
AcDbPolyline
90
4
70
1
10
-7.0000
20
-243.0000
10
772.7547
20
-243.0000
10
772.7547
20
-367.0000
10
-7.0000
20
-367.0000
0
ENDSEC
0
EOF
