0
SECTION
2
HEADER
9
$INSUNITS
70
4
0
ENDSEC
0
SECTION
2
ENTITIES
0
LWPOLYLINE
100
AcDbEntity
8
CUCITURA
100
AcDbPolyline
90
16
70
1
10
0.0000
20
-36.0000
10
19.8000
20
0.0000
10
52.8000
20
-14.4000
10
85.8000
20
-72.0000
10
132.0000
20
-96.0000
10
198.0000
20
-96.0000
10
244.2000
20
-72.0000
10
277.2000
20
-14.4000
10
310.2000
20
0.0000
10
330.0000
20
-36.0000
10
316.8000
20
-153.6000
10
277.2000
20
-206.4000
10
211.2000
20
-240.0000
10
118.8000
20
-240.0000
10
52.8000
20
-206.4000
10
13.2000
20
-153.6000
0
LWPOLYLINE
100
AcDbEntity
8
TAGLIO_STUDIO
100
AcDbPolyline
90
16
70
1
10
-7.2041
20
-34.5731
10
16.7449
20
8.9706
10
57.7224
20
-8.9105
10
90.8516
20
-66.7361
10
133.7097
20
-89.0000
10
196.2903
20
-89.0000
10
239.1484
20
-66.7361
10
272.2776
20
-8.9105
10
313.2551
20
8.9706
10
337.2041
20
-34.5731
10
323.5437
20
-156.2751
10
281.8246
20
-211.9006
10
212.8793
20
-247.0000
10
117.1207
20
-247.0000
10
48.1754
20
-211.9006
10
6.4563
20
-156.2751
0
LWPOLYLINE
100
AcDbEntity
8
CUCITURA
100
AcDbPolyline
90
16
70
1
10
390.0000
20
-36.0000
10
409.8000
20
0.0000
10
442.8000
20
-14.4000
10
475.8000
20
-72.0000
10
522.0000
20
-96.0000
10
588.0000
20
-96.0000
10
634.2000
20
-72.0000
10
667.2000
20
-14.4000
10
700.2000
20
0.0000
10
720.0000
20
-36.0000
10
706.8000
20
-153.6000
10
667.2000
20
-206.4000
10
601.2000
20
-240.0000
10
508.8000
20
-240.0000
10
442.8000
20
-206.4000
10
403.2000
20
-153.6000
0
LWPOLYLINE
100
AcDbEntity
8
TAGLIO_STUDIO
100
AcDbPolyline
90
16
70
1
10
382.7959
20
-34.5731
10
406.7449
20
8.9706
10
447.7224
20
-8.9105
10
480.8516
20
-66.7361
10
523.7097
20
-89.0000
10
586.2903
20
-89.0000
10
629.1484
20
-66.7361
10
662.2776
20
-8.9105
10
703.2551
20
8.9706
10
727.2041
20
-34.5731
10
713.5437
20
-156.2751
10
671.8246
20
-211.9006
10
602.8793
20
-247.0000
10
507.1207
20
-247.0000
10
438.1754
20
-211.9006
10
396.4563
20
-156.2751
0
LWPOLYLINE
100
AcDbEntity
8
CUCITURA
100
AcDbPolyline
90
4
70
1
10
0.0000
20
-300.0000
10
1066.2702
20
-300.0000
10
1066.2702
20
-440.0000
10
0.0000
20
-440.0000
0
LWPOLYLINE
100
AcDbEntity
8
TAGLIO_STUDIO
100
AcDbPolyline
90
4
70
1
10
-7.0000
20
-293.0000
10
1073.2702
20
-293.0000
10
1073.2702
20
-447.0000
10
-7.0000
20
-447.0000
0
ENDSEC
0
EOF
