0
SECTION
2
HEADER
9
$INSUNITS
70
4
0
ENDSEC
0
SECTION
2
ENTITIES
0
LWPOLYLINE
100
AcDbEntity
8
CUCITURA
100
AcDbPolyline
90
6
70
1
10
101.5000
20
0.0000
10
188.5000
20
0.0000
10
290.0000
20
-87.5000
10
246.5000
20
-250.0000
10
43.5000
20
-250.0000
10
0.0000
20
-87.5000
0
LWPOLYLINE
100
AcDbEntity
8
TAGLIO_STUDIO
100
AcDbPolyline
90
6
70
1
10
98.8993
20
7.0000
10
191.1007
20
7.0000
10
297.8979
20
-85.0665
10
251.8726
20
-257.0000
10
38.1274
20
-257.0000
10
-7.8979
20
-85.0665
0
LWPOLYLINE
100
AcDbEntity
8
CUCITURA
100
AcDbPolyline
90
6
70
1
10
451.5000
20
0.0000
10
538.5000
20
0.0000
10
640.0000
20
-87.5000
10
596.5000
20
-250.0000
10
393.5000
20
-250.0000
10
350.0000
20
-87.5000
0
LWPOLYLINE
100
AcDbEntity
8
TAGLIO_STUDIO
100
AcDbPolyline
90
6
70
1
10
448.8993
20
7.0000
10
541.1007
20
7.0000
10
647.8979
20
-85.0665
10
601.8726
20
-257.0000
10
388.1274
20
-257.0000
10
342.1021
20
-85.0665
0
LWPOLYLINE
100
AcDbEntity
8
CUCITURA
100
AcDbPolyline
90
4
70
1
10
0.0000
20
-310.0000
10
894.4618
20
-310.0000
10
894.4618
20
-450.0000
10
0.0000
20
-450.0000
0
LWPOLYLINE
100
AcDbEntity
8
TAGLIO_STUDIO
100
AcDbPolyline
90
4
70
1
10
-7.0000
20
-303.0000
10
901.4618
20
-303.0000
10
901.4618
20
-457.0000
10
-7.0000
20
-457.0000
0
ENDSEC
0
EOF
