0
SECTION
2
HEADER
9
$INSUNITS
70
4
0
ENDSEC
0
SECTION
2
ENTITIES
0
LWPOLYLINE
100
AcDbEntity
8
CUCITURA
100
AcDbPolyline
90
4
70
1
10
39.0000
20
0.0000
10
261.0000
20
0.0000
10
300.0000
20
-230.0000
10
0.0000
20
-230.0000
0
LWPOLYLINE
100
AcDbEntity
8
TAGLIO_STUDIO
100
AcDbPolyline
90
4
70
1
10
33.0870
20
7.0000
10
266.9130
20
7.0000
10
308.2869
20
-237.0000
10
-8.2869
20
-237.0000
0
LWPOLYLINE
100
AcDbEntity
8
CUCITURA
100
AcDbPolyline
90
4
70
1
10
399.0000
20
0.0000
10
621.0000
20
0.0000
10
660.0000
20
-230.0000
10
360.0000
20
-230.0000
0
LWPOLYLINE
100
AcDbEntity
8
TAGLIO_STUDIO
100
AcDbPolyline
90
4
70
1
10
393.0870
20
7.0000
10
626.9130
20
7.0000
10
668.2869
20
-237.0000
10
351.7131
20
-237.0000
0
LWPOLYLINE
100
AcDbEntity
8
CUCITURA
100
AcDbPolyline
90
4
70
1
10
0.0000
20
-290.0000
10
988.5662
20
-290.0000
10
988.5662
20
-410.0000
10
0.0000
20
-410.0000
0
LWPOLYLINE
100
AcDbEntity
8
TAGLIO_STUDIO
100
AcDbPolyline
90
4
70
1
10
-7.0000
20
-283.0000
10
995.5662
20
-283.0000
10
995.5662
20
-417.0000
10
-7.0000
20
-417.0000
0
ENDSEC
0
EOF
