0
SECTION
2
HEADER
9
$INSUNITS
70
4
0
ENDSEC
0
SECTION
2
ENTITIES
0
LWPOLYLINE
100
AcDbEntity
8
CUCITURA
100
AcDbPolyline
90
4
70
1
10
0.0000
20
0.0000
10
310.0000
20
0.0000
10
266.6000
20
-300.0000
10
43.4000
20
-300.0000
0
LWPOLYLINE
100
AcDbEntity
8
TAGLIO_STUDIO
100
AcDbPolyline
90
4
70
1
10
-8.0855
20
7.0000
10
318.0855
20
7.0000
10
272.6602
20
-307.0000
10
37.3398
20
-307.0000
0
LWPOLYLINE
100
AcDbEntity
8
CUCITURA
100
AcDbPolyline
90
4
70
1
10
370.0000
20
0.0000
10
680.0000
20
0.0000
10
636.6000
20
-300.0000
10
413.4000
20
-300.0000
0
LWPOLYLINE
100
AcDbEntity
8
TAGLIO_STUDIO
100
AcDbPolyline
90
4
70
1
10
361.9145
20
7.0000
10
688.0855
20
7.0000
10
642.6602
20
-307.0000
10
407.3398
20
-307.0000
0
LWPOLYLINE
100
AcDbEntity
8
CUCITURA
100
AcDbPolyline
90
4
70
1
10
0.0000
20
-360.0000
10
1139.4460
20
-360.0000
10
1139.4460
20
-550.0000
10
0.0000
20
-550.0000
0
LWPOLYLINE
100
AcDbEntity
8
TAGLIO_STUDIO
100
AcDbPolyline
90
4
70
1
10
-7.0000
20
-353.0000
10
1146.4460
20
-353.0000
10
1146.4460
20
-557.0000
10
-7.0000
20
-557.0000
0
ENDSEC
0
EOF
