0
SECTION
2
HEADER
9
$INSUNITS
70
4
0
ENDSEC
0
SECTION
2
ENTITIES
0
LWPOLYLINE
100
AcDbEntity
8
CUCITURA
100
AcDbPolyline
90
30
70
1
10
0.0000
20
-210.0000
10
0.0000
20
-73.5000
10
1.0142
20
-64.9672
10
4.0433
20
-56.5497
10
9.0461
20
-48.3615
10
15.9551
20
-40.5133
10
24.6768
20
-33.1111
10
35.0933
20
-26.2551
10
47.0638
20
-20.0380
10
60.4262
20
-14.5439
10
75.0000
20
-9.8471
10
90.5880
20
-6.0111
10
106.9795
20
-3.0878
10
123.9528
20
-1.1166
10
141.2783
20
-0.1244
10
158.7217
20
-0.1244
10
176.0472
20
-1.1166
10
193.0205
20
-3.0878
10
209.4120
20
-6.0111
10
225.0000
20
-9.8471
10
239.5738
20
-14.5439
10
252.9362
20
-20.0380
10
264.9067
20
-26.2551
10
275.3232
20
-33.1111
10
284.0449
20
-40.5133
10
290.9539
20
-48.3615
10
295.9567
20
-56.5497
10
298.9858
20
-64.9672
10
300.0000
20
-73.5000
10
300.0000
20
-210.0000
0
LWPOLYLINE
100
AcDbEntity
8
TAGLIO_STUDIO
100
AcDbPolyline
90
30
70
1
10
-7.0000
20
-217.0000
10
-7.0000
20
-73.0854
10
-5.8426
20
-63.3482
10
-2.3018
20
-53.5086
10
3.3900
20
-44.1928
10
11.0374
20
-35.5057
10
20.4723
20
-27.4983
10
31.5465
20
-20.2094
10
44.1138
20
-13.6824
10
58.0180
20
-7.9655
10
73.0877
20
-3.1089
10
89.1356
20
0.8403
10
105.9603
20
3.8409
10
123.3484
20
5.8602
10
141.0780
20
6.8756
10
158.9220
20
6.8756
10
176.6516
20
5.8602
10
194.0397
20
3.8409
10
210.8644
20
0.8403
10
226.9123
20
-3.1089
10
241.9820
20
-7.9655
10
255.8862
20
-13.6824
10
268.4535
20
-20.2094
10
279.5277
20
-27.4983
10
288.9626
20
-35.5057
10
296.6100
20
-44.1928
10
302.3018
20
-53.5086
10
305.8426
20
-63.3482
10
307.0000
20
-73.0854
10
307.0000
20
-217.0000
0
LWPOLYLINE
100
AcDbEntity
8
CUCITURA
100
AcDbPolyline
90
30
70
1
10
360.0000
20
-210.0000
10
360.0000
20
-73.5000
10
361.0142
20
-64.9672
10
364.0433
20
-56.5497
10
369.0461
20
-48.3615
10
375.9551
20
-40.5133
10
384.6768
20
-33.1111
10
395.0933
20
-26.2551
10
407.0638
20
-20.0380
10
420.4262
20
-14.5439
10
435.0000
20
-9.8471
10
450.5880
20
-6.0111
10
466.9795
20
-3.0878
10
483.9528
20
-1.1166
10
501.2783
20
-0.1244
10
518.7217
20
-0.1244
10
536.0472
20
-1.1166
10
553.0205
20
-3.0878
10
569.4120
20
-6.0111
10
585.0000
20
-9.8471
10
599.5738
20
-14.5439
10
612.9362
20
-20.0380
10
624.9067
20
-26.2551
10
635.3232
20
-33.1111
10
644.0449
20
-40.5133
10
650.9539
20
-48.3615
10
655.9567
20
-56.5497
10
658.9858
20
-64.9672
10
660.0000
20
-73.5000
10
660.0000
20
-210.0000
0
LWPOLYLINE
100
AcDbEntity
8
TAGLIO_STUDIO
100
AcDbPolyline
90
30
70
1
10
353.0000
20
-217.0000
10
353.0000
20
-73.0854
10
354.1574
20
-63.3482
10
357.6982
20
-53.5086
10
363.3900
20
-44.1928
10
371.0374
20
-35.5057
10
380.4723
20
-27.4983
10
391.5465
20
-20.2094
10
404.1138
20
-13.6824
10
418.0180
20
-7.9655
10
433.0877
20
-3.1089
10
449.1356
20
0.8403
10
465.9603
20
3.8409
10
483.3484
20
5.8602
10
501.0780
20
6.8756
10
518.9220
20
6.8756
10
536.6516
20
5.8602
10
554.0397
20
3.8409
10
570.8644
20
0.8403
10
586.9123
20
-3.1089
10
601.9820
20
-7.9655
10
615.8862
20
-13.6824
10
628.4535
20
-20.2094
10
639.5277
20
-27.4983
10
648.9626
20
-35.5057
10
656.6100
20
-44.1928
10
662.3018
20
-53.5086
10
665.8426
20
-63.3482
10
667.0000
20
-73.0854
10
667.0000
20
-217.0000
0
LWPOLYLINE
100
AcDbEntity
8
CUCITURA
100
AcDbPolyline
90
4
70
1
10
0.0000
20
-270.0000
10
934.2294
20
-270.0000
10
934.2294
20
-440.0000
10
0.0000
20
-440.0000
0
LWPOLYLINE
100
AcDbEntity
8
TAGLIO_STUDIO
100
AcDbPolyline
90
4
70
1
10
-7.0000
20
-263.0000
10
941.2294
20
-263.0000
10
941.2294
20
-447.0000
10
-7.0000
20
-447.0000
0
ENDSEC
0
EOF
