0
SECTION
2
HEADER
9
$INSUNITS
70
4
0
ENDSEC
0
SECTION
2
ENTITIES
0
LWPOLYLINE
100
AcDbEntity
8
CUCITURA
100
AcDbPolyline
90
30
70
1
10
0.0000
20
-290.0000
10
0.0000
20
-101.5000
10
1.6904
20
-89.7166
10
6.7388
20
-78.0925
10
15.0768
20
-66.7850
10
26.5918
20
-55.9469
10
41.1280
20
-45.7248
10
58.4889
20
-36.2571
10
78.4396
20
-27.6716
10
100.7104
20
-20.0845
10
125.0000
20
-13.5984
10
150.9801
20
-8.3011
10
178.2992
20
-4.2641
10
206.5880
20
-1.5420
10
235.4638
20
-0.1717
10
264.5362
20
-0.1717
10
293.4120
20
-1.5420
10
321.7008
20
-4.2641
10
349.0199
20
-8.3011
10
375.0000
20
-13.5984
10
399.2896
20
-20.0845
10
421.5604
20
-27.6716
10
441.5111
20
-36.2571
10
458.8720
20
-45.7248
10
473.4082
20
-55.9469
10
484.9232
20
-66.7850
10
493.2612
20
-78.0925
10
498.3096
20
-89.7166
10
500.0000
20
-101.5000
10
500.0000
20
-290.0000
0
LWPOLYLINE
100
AcDbEntity
8
TAGLIO_STUDIO
100
AcDbPolyline
90
30
70
1
10
-7.0000
20
-297.0000
10
-7.0000
20
-101.0005
10
-5.1050
20
-87.7911
10
0.6341
20
-74.5765
10
9.8184
20
-62.1213
10
22.1573
20
-50.5078
10
37.4271
20
-39.7699
10
55.4230
20
-29.9558
10
75.9236
20
-21.1337
10
98.6764
20
-13.3823
10
123.3963
20
-6.7814
10
149.7683
20
-1.4041
10
177.4518
20
2.6867
10
206.0865
20
5.4421
10
235.2978
20
6.8283
10
264.7022
20
6.8283
10
293.9135
20
5.4421
10
322.5482
20
2.6867
10
350.2317
20
-1.4041
10
376.6037
20
-6.7814
10
401.3236
20
-13.3823
10
424.0764
20
-21.1337
10
444.5770
20
-29.9558
10
462.5729
20
-39.7699
10
477.8427
20
-50.5078
10
490.1816
20
-62.1213
10
499.3659
20
-74.5765
10
505.1050
20
-87.7911
10
507.0000
20
-101.0005
10
507.0000
20
-297.0000
0
LWPOLYLINE
100
AcDbEntity
8
CUCITURA
100
AcDbPolyline
90
30
70
1
10
560.0000
20
-290.0000
10
560.0000
20
-101.5000
10
561.6904
20
-89.7166
10
566.7388
20
-78.0925
10
575.0768
20
-66.7850
10
586.5918
20
-55.9469
10
601.1280
20
-45.7248
10
618.4889
20
-36.2571
10
638.4396
20
-27.6716
10
660.7104
20
-20.0845
10
685.0000
20
-13.5984
10
710.9801
20
-8.3011
10
738.2992
20
-4.2641
10
766.5880
20
-1.5420
10
795.4638
20
-0.1717
10
824.5362
20
-0.1717
10
853.4120
20
-1.5420
10
881.7008
20
-4.2641
10
909.0199
20
-8.3011
10
935.0000
20
-13.5984
10
959.2896
20
-20.0845
10
981.5604
20
-27.6716
10
1001.5111
20
-36.2571
10
1018.8720
20
-45.7248
10
1033.4082
20
-55.9469
10
1044.9232
20
-66.7850
10
1053.2612
20
-78.0925
10
1058.3096
20
-89.7166
10
1060.0000
20
-101.5000
10
1060.0000
20
-290.0000
0
LWPOLYLINE
100
AcDbEntity
8
TAGLIO_STUDIO
100
AcDbPolyline
90
30
70
1
10
553.0000
20
-297.0000
10
553.0000
20
-101.0005
10
554.8950
20
-87.7911
10
560.6341
20
-74.5765
10
569.8184
20
-62.1213
10
582.1573
20
-50.5078
10
597.4271
20
-39.7699
10
615.4230
20
-29.9558
10
635.9236
20
-21.1337
10
658.6764
20
-13.3823
10
683.3963
20
-6.7814
10
709.7683
20
-1.4041
10
737.4518
20
2.6867
10
766.0865
20
5.4421
10
795.2978
20
6.8283
10
824.7022
20
6.8283
10
853.9135
20
5.4421
10
882.5482
20
2.6867
10
910.2317
20
-1.4041
10
936.6037
20
-6.7814
10
961.3236
20
-13.3823
10
984.0764
20
-21.1337
10
1004.5770
20
-29.9558
10
1022.5729
20
-39.7699
10
1037.8427
20
-50.5078
10
1050.1816
20
-62.1213
10
1059.3659
20
-74.5765
10
1065.1050
20
-87.7911
10
1067.0000
20
-101.0005
10
1067.0000
20
-297.0000
0
LWPOLYLINE
100
AcDbEntity
8
CUCITURA
100
AcDbPolyline
90
4
70
1
10
0.0000
20
-350.0000
10
1453.7345
20
-350.0000
10
1453.7345
20
-580.0000
10
0.0000
20
-580.0000
0
LWPOLYLINE
100
AcDbEntity
8
TAGLIO_STUDIO
100
AcDbPolyline
90
4
70
1
10
-7.0000
20
-343.0000
10
1460.7345
20
-343.0000
10
1460.7345
20
-587.0000
10
-7.0000
20
-587.0000
0
ENDSEC
0
EOF
