0
SECTION
2
HEADER
9
$INSUNITS
70
4
0
ENDSEC
0
SECTION
2
ENTITIES
0
LWPOLYLINE
100
AcDbEntity
8
CUCITURA
100
AcDbPolyline
90
4
70
1
10
0.0000
20
0.0000
10
250.0000
20
0.0000
10
250.0000
20
-170.0000
10
0.0000
20
-170.0000
0
LWPOLYLINE
100
AcDbEntity
8
TAGLIO_STUDIO
100
AcDbPolyline
90
4
70
1
10
-7.0000
20
7.0000
10
257.0000
20
7.0000
10
257.0000
20
-177.0000
10
-7.0000
20
-177.0000
0
LWPOLYLINE
100
AcDbEntity
8
CUCITURA
100
AcDbPolyline
90
4
70
1
10
310.0000
20
0.0000
10
560.0000
20
0.0000
10
560.0000
20
-170.0000
10
310.0000
20
-170.0000
0
LWPOLYLINE
100
AcDbEntity
8
TAGLIO_STUDIO
100
AcDbPolyline
90
4
70
1
10
303.0000
20
7.0000
10
567.0000
20
7.0000
10
567.0000
20
-177.0000
10
303.0000
20
-177.0000
0
LWPOLYLINE
100
AcDbEntity
8
CUCITURA
100
AcDbPolyline
90
4
70
1
10
0.0000
20
-230.0000
10
840.0000
20
-230.0000
10
840.0000
20
-330.0000
10
0.0000
20
-330.0000
0
LWPOLYLINE
100
AcDbEntity
8
TAGLIO_STUDIO
100
AcDbPolyline
90
4
70
1
10
-7.0000
20
-223.0000
10
847.0000
20
-223.0000
10
847.0000
20
-337.0000
10
-7.0000
20
-337.0000
0
ENDSEC
0
EOF
