0
SECTION
2
HEADER
9
$INSUNITS
70
4
0
ENDSEC
0
SECTION
2
ENTITIES
0
LWPOLYLINE
100
AcDbEntity
8
CUCITURA
100
AcDbPolyline
90
4
70
1
10
40.3000
20
0.0000
10
269.7000
20
0.0000
10
310.0000
20
-200.0000
10
0.0000
20
-200.0000
0
LWPOLYLINE
100
AcDbEntity
8
TAGLIO_STUDIO
100
AcDbPolyline
90
4
70
1
10
34.5698
20
7.0000
10
275.4302
20
7.0000
10
318.5512
20
-207.0000
10
-8.5512
20
-207.0000
0
LWPOLYLINE
100
AcDbEntity
8
CUCITURA
100
AcDbPolyline
90
4
70
1
10
410.3000
20
0.0000
10
639.7000
20
0.0000
10
680.0000
20
-200.0000
10
370.0000
20
-200.0000
0
LWPOLYLINE
100
AcDbEntity
8
TAGLIO_STUDIO
100
AcDbPolyline
90
4
70
1
10
404.5698
20
7.0000
10
645.4302
20
7.0000
10
688.5512
20
-207.0000
10
361.4488
20
-207.0000
0
LWPOLYLINE
100
AcDbEntity
8
CUCITURA
100
AcDbPolyline
90
4
70
1
10
0.0000
20
-260.0000
10
947.4397
20
-260.0000
10
947.4397
20
-370.0000
10
0.0000
20
-370.0000
0
LWPOLYLINE
100
AcDbEntity
8
TAGLIO_STUDIO
100
AcDbPolyline
90
4
70
1
10
-7.0000
20
-253.0000
10
954.4397
20
-253.0000
10
954.4397
20
-377.0000
10
-7.0000
20
-377.0000
0
ENDSEC
0
EOF
