0
SECTION
2
HEADER
9
$INSUNITS
70
4
0
ENDSEC
0
SECTION
2
ENTITIES
0
LWPOLYLINE
100
AcDbEntity
8
CUCITURA
100
AcDbPolyline
90
4
70
1
10
0.0000
20
0.0000
10
310.0000
20
0.0000
10
310.0000
20
-280.0000
10
0.0000
20
-280.0000
0
LWPOLYLINE
100
AcDbEntity
8
TAGLIO_STUDIO
100
AcDbPolyline
90
4
70
1
10
-7.0000
20
7.0000
10
317.0000
20
7.0000
10
317.0000
20
-287.0000
10
-7.0000
20
-287.0000
0
LWPOLYLINE
100
AcDbEntity
8
CUCITURA
100
AcDbPolyline
90
4
70
1
10
370.0000
20
0.0000
10
680.0000
20
0.0000
10
680.0000
20
-280.0000
10
370.0000
20
-280.0000
0
LWPOLYLINE
100
AcDbEntity
8
TAGLIO_STUDIO
100
AcDbPolyline
90
4
70
1
10
363.0000
20
7.0000
10
687.0000
20
7.0000
10
687.0000
20
-287.0000
10
363.0000
20
-287.0000
0
LWPOLYLINE
100
AcDbEntity
8
CUCITURA
100
AcDbPolyline
90
4
70
1
10
0.0000
20
-340.0000
10
1180.0000
20
-340.0000
10
1180.0000
20
-480.0000
10
0.0000
20
-480.0000
0
LWPOLYLINE
100
AcDbEntity
8
TAGLIO_STUDIO
100
AcDbPolyline
90
4
70
1
10
-7.0000
20
-333.0000
10
1187.0000
20
-333.0000
10
1187.0000
20
-487.0000
10
-7.0000
20
-487.0000
0
ENDSEC
0
EOF
