0
SECTION
2
HEADER
9
$INSUNITS
70
4
0
ENDSEC
0
SECTION
2
ENTITIES
0
LWPOLYLINE
100
AcDbEntity
8
CUCITURA
100
AcDbPolyline
90
30
70
1
10
0.0000
20
-250.0000
10
0.0000
20
-87.5000
10
1.0819
20
-77.3419
10
4.3128
20
-67.3211
10
9.6492
20
-57.5732
10
17.0188
20
-48.2301
10
26.3220
20
-39.4180
10
37.4329
20
-31.2561
10
50.2013
20
-23.8548
10
64.4546
20
-17.3142
10
80.0000
20
-11.7228
10
96.6272
20
-7.1561
10
114.1115
20
-3.6759
10
132.2163
20
-1.3293
10
150.6968
20
-0.1480
10
169.3032
20
-0.1480
10
187.7837
20
-1.3293
10
205.8885
20
-3.6759
10
223.3728
20
-7.1561
10
240.0000
20
-11.7228
10
255.5454
20
-17.3142
10
269.7987
20
-23.8548
10
282.5671
20
-31.2561
10
293.6780
20
-39.4180
10
302.9812
20
-48.2301
10
310.3508
20
-57.5732
10
315.6872
20
-67.3211
10
318.9181
20
-77.3419
10
320.0000
20
-87.5000
10
320.0000
20
-250.0000
0
LWPOLYLINE
100
AcDbEntity
8
TAGLIO_STUDIO
100
AcDbPolyline
90
30
70
1
10
-7.0000
20
-257.0000
10
-7.0000
20
-87.1283
10
-5.8022
20
-75.8818
10
-2.1459
20
-64.5417
10
3.7903
20
-53.6981
10
11.8368
20
-43.4968
10
21.8255
20
-34.0353
10
33.5944
20
-25.3901
10
46.9791
20
-17.6316
10
61.8055
20
-10.8280
10
77.8853
20
-5.0444
10
95.0150
20
-0.3397
10
112.9771
20
3.2356
10
131.5424
20
5.6419
10
150.4733
20
6.8520
10
169.5267
20
6.8520
10
188.4576
20
5.6419
10
207.0229
20
3.2356
10
224.9850
20
-0.3397
10
242.1147
20
-5.0444
10
258.1945
20
-10.8280
10
273.0209
20
-17.6316
10
286.4056
20
-25.3901
10
298.1745
20
-34.0353
10
308.1632
20
-43.4968
10
316.2097
20
-53.6981
10
322.1459
20
-64.5417
10
325.8022
20
-75.8818
10
327.0000
20
-87.1283
10
327.0000
20
-257.0000
0
LWPOLYLINE
100
AcDbEntity
8
CUCITURA
100
AcDbPolyline
90
30
70
1
10
380.0000
20
-250.0000
10
380.0000
20
-87.5000
10
381.0819
20
-77.3419
10
384.3128
20
-67.3211
10
389.6492
20
-57.5732
10
397.0188
20
-48.2301
10
406.3220
20
-39.4180
10
417.4329
20
-31.2561
10
430.2013
20
-23.8548
10
444.4546
20
-17.3142
10
460.0000
20
-11.7228
10
476.6272
20
-7.1561
10
494.1115
20
-3.6759
10
512.2163
20
-1.3293
10
530.6968
20
-0.1480
10
549.3032
20
-0.1480
10
567.7837
20
-1.3293
10
585.8885
20
-3.6759
10
603.3728
20
-7.1561
10
620.0000
20
-11.7228
10
635.5454
20
-17.3142
10
649.7987
20
-23.8548
10
662.5671
20
-31.2561
10
673.6780
20
-39.4180
10
682.9812
20
-48.2301
10
690.3508
20
-57.5732
10
695.6872
20
-67.3211
10
698.9181
20
-77.3419
10
700.0000
20
-87.5000
10
700.0000
20
-250.0000
0
LWPOLYLINE
100
AcDbEntity
8
TAGLIO_STUDIO
100
AcDbPolyline
90
30
70
1
10
373.0000
20
-257.0000
10
373.0000
20
-87.1283
10
374.1978
20
-75.8818
10
377.8541
20
-64.5417
10
383.7903
20
-53.6981
10
391.8368
20
-43.4968
10
401.8255
20
-34.0353
10
413.5944
20
-25.3901
10
426.9791
20
-17.6316
10
441.8055
20
-10.8280
10
457.8853
20
-5.0444
10
475.0150
20
-0.3397
10
492.9771
20
3.2356
10
511.5424
20
5.6419
10
530.4733
20
6.8520
10
549.5267
20
6.8520
10
568.4576
20
5.6419
10
587.0229
20
3.2356
10
604.9850
20
-0.3397
10
622.1147
20
-5.0444
10
638.1945
20
-10.8280
10
653.0209
20
-17.6316
10
666.4056
20
-25.3901
10
678.1745
20
-34.0353
10
688.1632
20
-43.4968
10
696.2097
20
-53.6981
10
702.1459
20
-64.5417
10
705.8022
20
-75.8818
10
707.0000
20
-87.1283
10
707.0000
20
-257.0000
0
LWPOLYLINE
100
AcDbEntity
8
CUCITURA
100
AcDbPolyline
90
4
70
1
10
0.0000
20
-310.0000
10
1041.9337
20
-310.0000
10
1041.9337
20
-470.0000
10
0.0000
20
-470.0000
0
LWPOLYLINE
100
AcDbEntity
8
TAGLIO_STUDIO
100
AcDbPolyline
90
4
70
1
10
-7.0000
20
-303.0000
10
1048.9337
20
-303.0000
10
1048.9337
20
-477.0000
10
-7.0000
20
-477.0000
0
ENDSEC
0
EOF
