0
SECTION
2
HEADER
9
$INSUNITS
70
4
0
ENDSEC
0
SECTION
2
ENTITIES
0
LWPOLYLINE
100
AcDbEntity
8
CUCITURA
100
AcDbPolyline
90
4
70
1
10
49.4000
20
0.0000
10
330.6000
20
0.0000
10
380.0000
20
-390.0000
10
0.0000
20
-390.0000
0
LWPOLYLINE
100
AcDbEntity
8
TAGLIO_STUDIO
100
AcDbPolyline
90
4
70
1
10
43.2307
20
7.0000
10
336.7693
20
7.0000
10
387.9426
20
-397.0000
10
-7.9426
20
-397.0000
0
LWPOLYLINE
100
AcDbEntity
8
CUCITURA
100
AcDbPolyline
90
4
70
1
10
489.4000
20
0.0000
10
770.6000
20
0.0000
10
820.0000
20
-390.0000
10
440.0000
20
-390.0000
0
LWPOLYLINE
100
AcDbEntity
8
TAGLIO_STUDIO
100
AcDbPolyline
90
4
70
1
10
483.2307
20
7.0000
10
776.7693
20
7.0000
10
827.9426
20
-397.0000
10
432.0574
20
-397.0000
0
LWPOLYLINE
100
AcDbEntity
8
CUCITURA
100
AcDbPolyline
90
4
70
1
10
0.0000
20
-450.0000
10
1447.4324
20
-450.0000
10
1447.4324
20
-600.0000
10
0.0000
20
-600.0000
0
LWPOLYLINE
100
AcDbEntity
8
TAGLIO_STUDIO
100
AcDbPolyline
90
4
70
1
10
-7.0000
20
-443.0000
10
1454.4324
20
-443.0000
10
1454.4324
20
-607.0000
10
-7.0000
20
-607.0000
0
ENDSEC
0
EOF
