0
SECTION
2
HEADER
9
$INSUNITS
70
4
0
ENDSEC
0
SECTION
2
ENTITIES
0
LWPOLYLINE
100
AcDbEntity
8
CUCITURA
100
AcDbPolyline
90
64
70
1
10
150.0000
20
-75.0000
10
149.6389
20
-82.3513
10
148.5589
20
-89.6318
10
146.7705
20
-96.7714
10
144.2910
20
-103.7013
10
141.1441
20
-110.3548
10
137.3602
20
-116.6678
10
132.9758
20
-122.5795
10
128.0330
20
-128.0330
10
122.5795
20
-132.9758
10
116.6678
20
-137.3602
10
110.3548
20
-141.1441
10
103.7013
20
-144.2910
10
96.7714
20
-146.7705
10
89.6318
20
-148.5589
10
82.3513
20
-149.6389
10
75.0000
20
-150.0000
10
67.6487
20
-149.6389
10
60.3682
20
-148.5589
10
53.2286
20
-146.7705
10
46.2987
20
-144.2910
10
39.6452
20
-141.1441
10
33.3322
20
-137.3602
10
27.4205
20
-132.9758
10
21.9670
20
-128.0330
10
17.0242
20
-122.5795
10
12.6398
20
-116.6678
10
8.8559
20
-110.3548
10
5.7090
20
-103.7013
10
3.2295
20
-96.7714
10
1.4411
20
-89.6318
10
0.3611
20
-82.3513
10
0.0000
20
-75.0000
10
0.3611
20
-67.6487
10
1.4411
20
-60.3682
10
3.2295
20
-53.2286
10
5.7090
20
-46.2987
10
8.8559
20
-39.6452
10
12.6398
20
-33.3322
10
17.0242
20
-27.4205
10
21.9670
20
-21.9670
10
27.4205
20
-17.0242
10
33.3322
20
-12.6398
10
39.6452
20
-8.8559
10
46.2987
20
-5.7090
10
53.2286
20
-3.2295
10
60.3682
20
-1.4411
10
67.6487
20
-0.3611
10
75.0000
20
0.0000
10
82.3513
20
-0.3611
10
89.6318
20
-1.4411
10
96.7714
20
-3.2295
10
103.7013
20
-5.7090
10
110.3548
20
-8.8559
10
116.6678
20
-12.6398
10
122.5795
20
-17.0242
10
128.0330
20
-21.9670
10
132.9758
20
-27.4205
10
137.3602
20
-33.3322
10
141.1441
20
-39.6452
10
144.2910
20
-46.2987
10
146.7705
20
-53.2286
10
148.5589
20
-60.3682
10
149.6389
20
-67.6487
0
LWPOLYLINE
100
AcDbEntity
8
TAGLIO_STUDIO
100
AcDbPolyline
90
64
70
1
10
157.0084
20
-75.0000
10
156.6135
20
-83.0382
10
155.4327
20
-90.9991
10
153.4772
20
-98.8058
10
150.7659
20
-106.3833
10
147.3250
20
-113.6585
10
143.1875
20
-120.5614
10
138.3934
20
-127.0256
10
132.9887
20
-132.9887
10
127.0256
20
-138.3934
10
120.5614
20
-143.1875
10
113.6585
20
-147.3250
10
106.3833
20
-150.7659
10
98.8058
20
-153.4772
10
90.9991
20
-155.4327
10
83.0382
20
-156.6135
10
75.0000
20
-157.0084
10
66.9618
20
-156.6135
10
59.0009
20
-155.4327
10
51.1942
20
-153.4772
10
43.6167
20
-150.7659
10
36.3415
20
-147.3250
10
29.4386
20
-143.1875
10
22.9744
20
-138.3934
10
17.0113
20
-132.9887
10
11.6066
20
-127.0256
10
6.8125
20
-120.5614
10
2.6750
20
-113.6585
10
-0.7659
20
-106.3833
10
-3.4772
20
-98.8058
10
-5.4327
20
-90.9991
10
-6.6135
20
-83.0382
10
-7.0084
20
-75.0000
10
-6.6135
20
-66.9618
10
-5.4327
20
-59.0009
10
-3.4772
20
-51.1942
10
-0.7659
20
-43.6167
10
2.6750
20
-36.3415
10
6.8125
20
-29.4386
10
11.6066
20
-22.9744
10
17.0113
20
-17.0113
10
22.9744
20
-11.6066
10
29.4386
20
-6.8125
10
36.3415
20
-2.6750
10
43.6167
20
0.7659
10
51.1942
20
3.4772
10
59.0009
20
5.4327
10
66.9618
20
6.6135
10
75.0000
20
7.0084
10
83.0382
20
6.6135
10
90.9991
20
5.4327
10
98.8058
20
3.4772
10
106.3833
20
0.7659
10
113.6585
20
-2.6750
10
120.5614
20
-6.8125
10
127.0256
20
-11.6066
10
132.9887
20
-17.0113
10
138.3934
20
-22.9744
10
143.1875
20
-29.4386
10
147.3250
20
-36.3415
10
150.7659
20
-43.6167
10
153.4772
20
-51.1942
10
155.4327
20
-59.0009
10
156.6135
20
-66.9618
0
LWPOLYLINE
100
AcDbEntity
8
CUCITURA
100
AcDbPolyline
90
64
70
1
10
360.0000
20
-75.0000
10
359.6389
20
-82.3513
10
358.5589
20
-89.6318
10
356.7705
20
-96.7714
10
354.2910
20
-103.7013
10
351.1441
20
-110.3548
10
347.3602
20
-116.6678
10
342.9758
20
-122.5795
10
338.0330
20
-128.0330
10
332.5795
20
-132.9758
10
326.6678
20
-137.3602
10
320.3548
20
-141.1441
10
313.7013
20
-144.2910
10
306.7714
20
-146.7705
10
299.6318
20
-148.5589
10
292.3513
20
-149.6389
10
285.0000
20
-150.0000
10
277.6487
20
-149.6389
10
270.3682
20
-148.5589
10
263.2286
20
-146.7705
10
256.2987
20
-144.2910
10
249.6452
20
-141.1441
10
243.3322
20
-137.3602
10
237.4205
20
-132.9758
10
231.9670
20
-128.0330
10
227.0242
20
-122.5795
10
222.6398
20
-116.6678
10
218.8559
20
-110.3548
10
215.7090
20
-103.7013
10
213.2295
20
-96.7714
10
211.4411
20
-89.6318
10
210.3611
20
-82.3513
10
210.0000
20
-75.0000
10
210.3611
20
-67.6487
10
211.4411
20
-60.3682
10
213.2295
20
-53.2286
10
215.7090
20
-46.2987
10
218.8559
20
-39.6452
10
222.6398
20
-33.3322
10
227.0242
20
-27.4205
10
231.9670
20
-21.9670
10
237.4205
20
-17.0242
10
243.3322
20
-12.6398
10
249.6452
20
-8.8559
10
256.2987
20
-5.7090
10
263.2286
20
-3.2295
10
270.3682
20
-1.4411
10
277.6487
20
-0.3611
10
285.0000
20
0.0000
10
292.3513
20
-0.3611
10
299.6318
20
-1.4411
10
306.7714
20
-3.2295
10
313.7013
20
-5.7090
10
320.3548
20
-8.8559
10
326.6678
20
-12.6398
10
332.5795
20
-17.0242
10
338.0330
20
-21.9670
10
342.9758
20
-27.4205
10
347.3602
20
-33.3322
10
351.1441
20
-39.6452
10
354.2910
20
-46.2987
10
356.7705
20
-53.2286
10
358.5589
20
-60.3682
10
359.6389
20
-67.6487
0
LWPOLYLINE
100
AcDbEntity
8
TAGLIO_STUDIO
100
AcDbPolyline
90
64
70
1
10
367.0084
20
-75.0000
10
366.6135
20
-83.0382
10
365.4327
20
-90.9991
10
363.4772
20
-98.8058
10
360.7659
20
-106.3833
10
357.3250
20
-113.6585
10
353.1875
20
-120.5614
10
348.3934
20
-127.0256
10
342.9887
20
-132.9887
10
337.0256
20
-138.3934
10
330.5614
20
-143.1875
10
323.6585
20
-147.3250
10
316.3833
20
-150.7659
10
308.8058
20
-153.4772
10
300.9991
20
-155.4327
10
293.0382
20
-156.6135
10
285.0000
20
-157.0084
10
276.9618
20
-156.6135
10
269.0009
20
-155.4327
10
261.1942
20
-153.4772
10
253.6167
20
-150.7659
10
246.3415
20
-147.3250
10
239.4386
20
-143.1875
10
232.9744
20
-138.3934
10
227.0113
20
-132.9887
10
221.6066
20
-127.0256
10
216.8125
20
-120.5614
10
212.6750
20
-113.6585
10
209.2341
20
-106.3833
10
206.5228
20
-98.8058
10
204.5673
20
-90.9991
10
203.3865
20
-83.0382
10
202.9916
20
-75.0000
10
203.3865
20
-66.9618
10
204.5673
20
-59.0009
10
206.5228
20
-51.1942
10
209.2341
20
-43.6167
10
212.6750
20
-36.3415
10
216.8125
20
-29.4386
10
221.6066
20
-22.9744
10
227.0113
20
-17.0113
10
232.9744
20
-11.6066
10
239.4386
20
-6.8125
10
246.3415
20
-2.6750
10
253.6167
20
0.7659
10
261.1942
20
3.4772
10
269.0009
20
5.4327
10
276.9618
20
6.6135
10
285.0000
20
7.0084
10
293.0382
20
6.6135
10
300.9991
20
5.4327
10
308.8058
20
3.4772
10
316.3833
20
0.7659
10
323.6585
20
-2.6750
10
330.5614
20
-6.8125
10
337.0256
20
-11.6066
10
342.9887
20
-17.0113
10
348.3934
20
-22.9744
10
353.1875
20
-29.4386
10
357.3250
20
-36.3415
10
360.7659
20
-43.6167
10
363.4772
20
-51.1942
10
365.4327
20
-59.0009
10
366.6135
20
-66.9618
0
LWPOLYLINE
100
AcDbEntity
8
CUCITURA
100
AcDbPolyline
90
4
70
1
10
0.0000
20
-210.0000
10
471.0497
20
-210.0000
10
471.0497
20
-510.0000
10
0.0000
20
-510.0000
0
LWPOLYLINE
100
AcDbEntity
8
TAGLIO_STUDIO
100
AcDbPolyline
90
4
70
1
10
-7.0000
20
-203.0000
10
478.0497
20
-203.0000
10
478.0497
20
-517.0000
10
-7.0000
20
-517.0000
0
ENDSEC
0
EOF
