0
SECTION
2
HEADER
9
$INSUNITS
70
4
0
ENDSEC
0
SECTION
2
ENTITIES
0
LWPOLYLINE
100
AcDbEntity
8
CUCITURA
100
AcDbPolyline
90
4
70
1
10
32.5000
20
0.0000
10
217.5000
20
0.0000
10
250.0000
20
-160.0000
10
0.0000
20
-160.0000
0
LWPOLYLINE
100
AcDbEntity
8
TAGLIO_STUDIO
100
AcDbPolyline
90
4
70
1
10
26.7789
20
7.0000
10
223.2211
20
7.0000
10
258.5648
20
-167.0000
10
-8.5648
20
-167.0000
0
LWPOLYLINE
100
AcDbEntity
8
CUCITURA
100
AcDbPolyline
90
4
70
1
10
342.5000
20
0.0000
10
527.5000
20
0.0000
10
560.0000
20
-160.0000
10
310.0000
20
-160.0000
0
LWPOLYLINE
100
AcDbEntity
8
TAGLIO_STUDIO
100
AcDbPolyline
90
4
70
1
10
336.7789
20
7.0000
10
533.2211
20
7.0000
10
568.5648
20
-167.0000
10
301.4352
20
-167.0000
0
LWPOLYLINE
100
AcDbEntity
8
CUCITURA
100
AcDbPolyline
90
4
70
1
10
0.0000
20
-220.0000
10
761.5348
20
-220.0000
10
761.5348
20
-320.0000
10
0.0000
20
-320.0000
0
LWPOLYLINE
100
AcDbEntity
8
TAGLIO_STUDIO
100
AcDbPolyline
90
4
70
1
10
-7.0000
20
-213.0000
10
768.5348
20
-213.0000
10
768.5348
20
-327.0000
10
-7.0000
20
-327.0000
0
ENDSEC
0
EOF
