0
SECTION
2
HEADER
9
$INSUNITS
70
4
0
ENDSEC
0
SECTION
2
ENTITIES
0
LWPOLYLINE
100
AcDbEntity
8
CUCITURA
100
AcDbPolyline
90
13
70
1
10
0.0000
20
-57.6000
10
28.8000
20
-30.0000
10
72.0000
20
-3.6000
10
100.8000
20
0.0000
10
120.0000
20
-18.0000
10
139.2000
20
0.0000
10
168.0000
20
-3.6000
10
211.2000
20
-30.0000
10
240.0000
20
-57.6000
10
196.8000
20
-91.2000
10
151.2000
20
-116.4000
10
88.8000
20
-116.4000
10
43.2000
20
-91.2000
0
LWPOLYLINE
100
AcDbEntity
8
TAGLIO_STUDIO
100
AcDbPolyline
90
13
70
1
10
-10.6926
20
-58.1516
10
24.5035
20
-24.4220
10
69.6360
20
3.1590
10
103.1912
20
7.3534
10
120.0000
20
-8.4049
10
136.8088
20
7.3534
10
170.3640
20
3.1590
10
215.4965
20
-24.4220
10
250.6926
20
-58.1516
10
200.6652
20
-97.0618
10
153.0055
20
-123.4000
10
86.9945
20
-123.4000
10
39.3348
20
-97.0618
0
LWPOLYLINE
100
AcDbEntity
8
CUCITURA
100
AcDbPolyline
90
13
70
1
10
300.0000
20
-57.6000
10
328.8000
20
-30.0000
10
372.0000
20
-3.6000
10
400.8000
20
0.0000
10
420.0000
20
-18.0000
10
439.2000
20
0.0000
10
468.0000
20
-3.6000
10
511.2000
20
-30.0000
10
540.0000
20
-57.6000
10
496.8000
20
-91.2000
10
451.2000
20
-116.4000
10
388.8000
20
-116.4000
10
343.2000
20
-91.2000
0
LWPOLYLINE
100
AcDbEntity
8
TAGLIO_STUDIO
100
AcDbPolyline
90
13
70
1
10
289.3074
20
-58.1516
10
324.5035
20
-24.4220
10
369.6360
20
3.1590
10
403.1912
20
7.3534
10
420.0000
20
-8.4049
10
436.8088
20
7.3534
10
470.3640
20
3.1590
10
515.4965
20
-24.4220
10
550.6926
20
-58.1516
10
500.6652
20
-97.0618
10
453.0055
20
-123.4000
10
386.9945
20
-123.4000
10
339.3348
20
-97.0618
0
LWPOLYLINE
100
AcDbEntity
8
CUCITURA
100
AcDbPolyline
90
4
70
1
10
0.0000
20
-180.0000
10
567.7768
20
-180.0000
10
567.7768
20
-230.0000
10
0.0000
20
-230.0000
0
LWPOLYLINE
100
AcDbEntity
8
TAGLIO_STUDIO
100
AcDbPolyline
90
4
70
1
10
-7.0000
20
-173.0000
10
574.7768
20
-173.0000
10
574.7768
20
-237.0000
10
-7.0000
20
-237.0000
0
ENDSEC
0
EOF
