0
SECTION
2
HEADER
9
$INSUNITS
70
4
0
ENDSEC
0
SECTION
2
ENTITIES
0
LWPOLYLINE
100
AcDbEntity
8
CUCITURA
100
AcDbPolyline
90
30
70
1
10
0.0000
20
-250.0000
10
0.0000
20
-87.5000
10
1.2847
20
-77.3419
10
5.1215
20
-67.3211
10
11.4584
20
-57.5732
10
20.2098
20
-48.2301
10
31.2573
20
-39.4180
10
44.4516
20
-31.2561
10
59.6141
20
-23.8548
10
76.5399
20
-17.3142
10
95.0000
20
-11.7228
10
114.7448
20
-7.1561
10
135.5074
20
-3.6759
10
157.0068
20
-1.3293
10
178.9525
20
-0.1480
10
201.0475
20
-0.1480
10
222.9932
20
-1.3293
10
244.4926
20
-3.6759
10
265.2552
20
-7.1561
10
285.0000
20
-11.7228
10
303.4601
20
-17.3142
10
320.3859
20
-23.8548
10
335.5484
20
-31.2561
10
348.7427
20
-39.4180
10
359.7902
20
-48.2301
10
368.5416
20
-57.5732
10
374.8785
20
-67.3211
10
378.7153
20
-77.3419
10
380.0000
20
-87.5000
10
380.0000
20
-250.0000
0
LWPOLYLINE
100
AcDbEntity
8
TAGLIO_STUDIO
100
AcDbPolyline
90
30
70
1
10
-7.0000
20
-257.0000
10
-7.0000
20
-87.0591
10
-5.5541
20
-75.6267
10
-1.1510
20
-64.1266
10
5.9267
20
-53.2394
10
15.4479
20
-43.0743
10
27.2192
20
-33.6849
10
41.0665
20
-25.1190
10
56.8121
20
-17.4331
10
74.2605
20
-10.6906
10
93.1947
20
-4.9555
10
113.3763
20
-0.2878
10
134.5482
20
3.2610
10
156.4385
20
5.6502
10
178.7642
20
6.8520
10
201.2358
20
6.8520
10
223.5615
20
5.6502
10
245.4518
20
3.2610
10
266.6237
20
-0.2878
10
286.8053
20
-4.9555
10
305.7395
20
-10.6906
10
323.1879
20
-17.4331
10
338.9335
20
-25.1190
10
352.7808
20
-33.6849
10
364.5521
20
-43.0743
10
374.0733
20
-53.2394
10
381.1510
20
-64.1266
10
385.5541
20
-75.6267
10
387.0000
20
-87.0591
10
387.0000
20
-257.0000
0
LWPOLYLINE
100
AcDbEntity
8
CUCITURA
100
AcDbPolyline
90
30
70
1
10
440.0000
20
-250.0000
10
440.0000
20
-87.5000
10
441.2847
20
-77.3419
10
445.1215
20
-67.3211
10
451.4584
20
-57.5732
10
460.2098
20
-48.2301
10
471.2573
20
-39.4180
10
484.4516
20
-31.2561
10
499.6141
20
-23.8548
10
516.5399
20
-17.3142
10
535.0000
20
-11.7228
10
554.7448
20
-7.1561
10
575.5074
20
-3.6759
10
597.0068
20
-1.3293
10
618.9525
20
-0.1480
10
641.0475
20
-0.1480
10
662.9932
20
-1.3293
10
684.4926
20
-3.6759
10
705.2552
20
-7.1561
10
725.0000
20
-11.7228
10
743.4601
20
-17.3142
10
760.3859
20
-23.8548
10
775.5484
20
-31.2561
10
788.7427
20
-39.4180
10
799.7902
20
-48.2301
10
808.5416
20
-57.5732
10
814.8785
20
-67.3211
10
818.7153
20
-77.3419
10
820.0000
20
-87.5000
10
820.0000
20
-250.0000
0
LWPOLYLINE
100
AcDbEntity
8
TAGLIO_STUDIO
100
AcDbPolyline
90
30
70
1
10
433.0000
20
-257.0000
10
433.0000
20
-87.0591
10
434.4459
20
-75.6267
10
438.8490
20
-64.1266
10
445.9267
20
-53.2394
10
455.4479
20
-43.0743
10
467.2192
20
-33.6849
10
481.0665
20
-25.1190
10
496.8121
20
-17.4331
10
514.2605
20
-10.6906
10
533.1947
20
-4.9555
10
553.3763
20
-0.2878
10
574.5482
20
3.2610
10
596.4385
20
5.6502
10
618.7642
20
6.8520
10
641.2358
20
6.8520
10
663.5615
20
5.6502
10
685.4518
20
3.2610
10
706.6237
20
-0.2878
10
726.8053
20
-4.9555
10
745.7395
20
-10.6906
10
763.1879
20
-17.4331
10
778.9335
20
-25.1190
10
792.7808
20
-33.6849
10
804.5521
20
-43.0743
10
814.0733
20
-53.2394
10
821.1510
20
-64.1266
10
825.5541
20
-75.6267
10
827.0000
20
-87.0591
10
827.0000
20
-257.0000
0
LWPOLYLINE
100
AcDbEntity
8
CUCITURA
100
AcDbPolyline
90
4
70
1
10
0.0000
20
-310.0000
10
1155.6407
20
-310.0000
10
1155.6407
20
-460.0000
10
0.0000
20
-460.0000
0
LWPOLYLINE
100
AcDbEntity
8
TAGLIO_STUDIO
100
AcDbPolyline
90
4
70
1
10
-7.0000
20
-303.0000
10
1162.6407
20
-303.0000
10
1162.6407
20
-467.0000
10
-7.0000
20
-467.0000
0
ENDSEC
0
EOF
