0
SECTION
2
HEADER
9
$INSUNITS
70
4
0
ENDSEC
0
SECTION
2
ENTITIES
0
LWPOLYLINE
100
AcDbEntity
8
CUCITURA
100
AcDbPolyline
90
4
70
1
10
0.0000
20
0.0000
10
340.0000
20
0.0000
10
340.0000
20
-270.0000
10
0.0000
20
-270.0000
0
LWPOLYLINE
100
AcDbEntity
8
TAGLIO_STUDIO
100
AcDbPolyline
90
4
70
1
10
-7.0000
20
7.0000
10
347.0000
20
7.0000
10
347.0000
20
-277.0000
10
-7.0000
20
-277.0000
0
LWPOLYLINE
100
AcDbEntity
8
CUCITURA
100
AcDbPolyline
90
4
70
1
10
400.0000
20
0.0000
10
740.0000
20
0.0000
10
740.0000
20
-270.0000
10
400.0000
20
-270.0000
0
LWPOLYLINE
100
AcDbEntity
8
TAGLIO_STUDIO
100
AcDbPolyline
90
4
70
1
10
393.0000
20
7.0000
10
747.0000
20
7.0000
10
747.0000
20
-277.0000
10
393.0000
20
-277.0000
0
LWPOLYLINE
100
AcDbEntity
8
CUCITURA
100
AcDbPolyline
90
4
70
1
10
0.0000
20
-330.0000
10
1220.0000
20
-330.0000
10
1220.0000
20
-480.0000
10
0.0000
20
-480.0000
0
LWPOLYLINE
100
AcDbEntity
8
TAGLIO_STUDIO
100
AcDbPolyline
90
4
70
1
10
-7.0000
20
-323.0000
10
1227.0000
20
-323.0000
10
1227.0000
20
-487.0000
10
-7.0000
20
-487.0000
0
ENDSEC
0
EOF
