0
SECTION
2
HEADER
9
$INSUNITS
70
4
0
ENDSEC
0
SECTION
2
ENTITIES
0
LWPOLYLINE
100
AcDbEntity
8
CUCITURA
100
AcDbPolyline
90
4
70
1
10
46.8000
20
0.0000
10
313.2000
20
0.0000
10
360.0000
20
-330.0000
10
0.0000
20
-330.0000
0
LWPOLYLINE
100
AcDbEntity
8
TAGLIO_STUDIO
100
AcDbPolyline
90
4
70
1
10
40.7227
20
7.0000
10
319.2773
20
7.0000
10
368.0628
20
-337.0000
10
-8.0628
20
-337.0000
0
LWPOLYLINE
100
AcDbEntity
8
CUCITURA
100
AcDbPolyline
90
4
70
1
10
466.8000
20
0.0000
10
733.2000
20
0.0000
10
780.0000
20
-330.0000
10
420.0000
20
-330.0000
0
LWPOLYLINE
100
AcDbEntity
8
TAGLIO_STUDIO
100
AcDbPolyline
90
4
70
1
10
460.7227
20
7.0000
10
739.2773
20
7.0000
10
788.0628
20
-337.0000
10
411.9372
20
-337.0000
0
LWPOLYLINE
100
AcDbEntity
8
CUCITURA
100
AcDbPolyline
90
4
70
1
10
0.0000
20
-390.0000
10
1293.0041
20
-390.0000
10
1293.0041
20
-540.0000
10
0.0000
20
-540.0000
0
LWPOLYLINE
100
AcDbEntity
8
TAGLIO_STUDIO
100
AcDbPolyline
90
4
70
1
10
-7.0000
20
-383.0000
10
1300.0041
20
-383.0000
10
1300.0041
20
-547.0000
10
-7.0000
20
-547.0000
0
ENDSEC
0
EOF
