<svg xmlns="http://www.w3.org/2000/svg" viewBox="0 0 420 330" role="img" aria-label="Dezza — iso di studio"><title>Dezza — geometria di studio</title><rect width="420" height="330" fill="#e9e9df"/><ellipse cx="210" cy="272" rx="93.88373753433078" ry="10" fill="#667455" opacity=".10"/><polygon points="228.69,192.30 227.19,92.65 228.39,193.59" fill="#a58a63" /><polygon points="218.67,194.39 217.16,94.74 217.47,193.23" fill="#a18661" /><polygon points="228.39,193.59 226.89,93.93 226.67,194.66" fill="#a08560" /><polygon points="221.05,195.12 219.55,95.46 218.67,194.39" fill="#957c59" /><polygon points="226.67,194.66 225.16,95.00 223.98,195.22" fill="#927a58" /><polygon points="223.98,195.22 222.48,95.56 221.05,195.12" fill="#836d4f" /><polygon points="227.19,92.65 226.89,93.93 228.39,193.59" fill="#a58a63" /><polygon points="217.16,94.74 215.96,93.57 217.47,193.23" fill="#a18661" /><polygon points="226.89,93.93 225.16,95.00 226.67,194.66" fill="#a08560" /><polygon points="219.55,95.46 217.16,94.74 218.67,194.39" fill="#957c59" /><polygon points="225.16,95.00 222.48,95.56 223.98,195.22" fill="#927a58" /><polygon points="222.48,95.56 219.55,95.46 221.05,195.12" fill="#836d4f" /><polygon points="223.60,90.76 220.68,90.66 221.58,93.11" fill="#b4976c" /><polygon points="220.68,90.66 217.99,91.22 221.58,93.11" fill="#b4976c" /><polygon points="225.99,91.48 223.60,90.76 221.58,93.11" fill="#b4976c" /><polygon points="217.99,91.22 216.26,92.29 221.58,93.11" fill="#b4976c" /><polygon points="227.19,92.65 225.99,91.48 221.58,93.11" fill="#b4976c" /><polygon points="216.26,92.29 215.96,93.57 221.58,93.11" fill="#b4976c" /><polygon points="226.89,93.93 227.19,92.65 221.58,93.11" fill="#b4976c" /><polygon points="215.96,93.57 217.16,94.74 221.58,93.11" fill="#b4976c" /><polygon points="225.16,95.00 226.89,93.93 221.58,93.11" fill="#b4976c" /><polygon points="217.16,94.74 219.55,95.46 221.58,93.11" fill="#b4976c" /><polygon points="222.48,95.56 225.16,95.00 221.58,93.11" fill="#b4976c" /><polygon points="219.55,95.46 222.48,95.56 221.58,93.11" fill="#b4976c" /><polygon points="258.45,94.99 258.75,94.14 258.75,53.64" fill="#a58a63" /><polygon points="248.63,94.62 249.68,95.41 249.68,54.91" fill="#9e845f" /><polygon points="256.87,95.68 258.45,94.99 258.45,54.49" fill="#a38862" /><polygon points="249.68,95.41 251.80,95.92 251.80,55.42" fill="#8f7856" /><polygon points="254.43,96.02 256.87,95.68 256.87,55.18" fill="#977e5b" /><polygon points="251.80,95.92 254.43,96.02 254.43,55.52" fill="#867050" /><polygon points="258.45,54.49 258.45,94.99 258.75,53.64" fill="#a58a63" /><polygon points="248.63,54.12 248.63,94.62 249.68,54.91" fill="#9e845f" /><polygon points="255.57,52.34 252.94,52.24 253.69,53.88" fill="#b4966c" /><polygon points="252.94,52.24 250.51,52.58 253.69,53.88" fill="#b4966c" /><polygon points="257.70,52.85 255.57,52.34 253.69,53.88" fill="#b4966c" /><polygon points="250.51,52.58 248.93,53.27 253.69,53.88" fill="#b4966c" /><polygon points="256.87,55.18 256.87,95.68 258.45,54.49" fill="#a38862" /><polygon points="258.75,53.64 257.70,52.85 253.69,53.88" fill="#b4966c" /><polygon points="249.68,54.91 249.68,95.41 251.80,55.42" fill="#8f7856" /><polygon points="248.93,53.27 248.63,54.12 253.69,53.88" fill="#b4966c" /><polygon points="254.43,55.52 254.43,96.02 256.87,55.18" fill="#977e5b" /><polygon points="251.80,55.42 251.80,95.92 254.43,55.52" fill="#867050" /><polygon points="258.45,54.49 258.75,53.64 253.69,53.88" fill="#b4966c" /><polygon points="248.63,54.12 249.68,54.91 253.69,53.88" fill="#b4966c" /><polygon points="256.87,55.18 258.45,54.49 253.69,53.88" fill="#b4966c" /><polygon points="249.68,54.91 251.80,55.42 253.69,53.88" fill="#b4966c" /><polygon points="254.43,55.52 256.87,55.18 253.69,53.88" fill="#b4966c" /><polygon points="251.80,55.42 254.43,55.52 253.69,53.88" fill="#b4966c" /><polygon points="219.99,99.03 103.31,128.98 221.58,99.03" fill="#ab8f67" /><polygon points="224.33,107.41 107.65,137.37 223.16,108.71" fill="#917957" /><polygon points="221.58,99.03 104.90,128.98 223.16,100.33" fill="#ba9b70" /><polygon points="224.75,105.17 108.08,135.12 224.33,107.41" fill="#907856" /><polygon points="223.16,100.33 106.49,130.28 224.33,102.57" fill="#ba9b70" /><polygon points="224.33,102.57 107.65,132.53 224.75,105.17" fill="#aa8e66" /><polygon points="249.44,57.93 251.24,59.63 322.68,88.85" fill="#b5976d" /><polygon points="256.14,48.13 253.69,47.96 325.13,77.19" fill="#b89a6f" /><polygon points="248.79,55.14 249.44,57.93 320.88,87.15" fill="#a48963" /><polygon points="253.69,47.96 251.24,49.39 322.68,78.61" fill="#ad9068" /><polygon points="249.44,52.01 248.79,55.14 320.23,84.36" fill="#8a7353" /><polygon points="251.24,49.39 249.44,52.01 320.88,81.23" fill="#967d5a" /><polygon points="103.31,128.98 104.90,128.98 221.58,99.03" fill="#ab8f67" /><polygon points="107.65,137.37 106.49,138.66 223.16,108.71" fill="#917957" /><polygon points="104.90,128.98 106.49,130.28 223.16,100.33" fill="#ba9b70" /><polygon points="108.08,135.12 107.65,137.37 224.33,107.41" fill="#907856" /><polygon points="106.49,130.28 107.65,132.53 224.33,102.57" fill="#ba9b70" /><polygon points="107.65,132.53 108.08,135.12 224.75,105.17" fill="#aa8e66" /><polygon points="96.83,227.01 110.49,123.46 96.46,227.95" fill="#9f845f" /><polygon points="96.46,227.95 110.12,124.40 94.69,228.54" fill="#9d835e" /><polygon points="86.77,227.27 100.44,123.72 85.65,226.22" fill="#997f5c" /><polygon points="94.69,228.54 108.35,124.99 91.99,228.61" fill="#947b59" /><polygon points="89.10,228.14 102.76,124.59 86.77,227.27" fill="#8c7554" /><polygon points="91.99,228.61 105.66,125.06 89.10,228.14" fill="#856f50" /><polygon points="327.58,77.35 256.14,48.13 325.13,77.19" fill="#b89a6f" /><polygon points="320.88,87.15 249.44,57.93 322.68,88.85" fill="#b5976d" /><polygon points="110.49,123.46 110.12,124.40 96.46,227.95" fill="#9f845f" /><polygon points="100.44,123.72 99.31,122.67 85.65,226.22" fill="#997f5c" /><polygon points="325.13,77.19 253.69,47.96 322.68,78.61" fill="#ad9068" /><polygon points="320.23,84.36 248.79,55.14 320.88,87.15" fill="#a48963" /><polygon points="322.68,78.61 251.24,49.39 320.88,81.23" fill="#967d5a" /><polygon points="110.12,124.40 108.35,124.99 94.69,228.54" fill="#9d835e" /><polygon points="320.88,81.23 249.44,52.01 320.23,84.36" fill="#8a7353" /><polygon points="102.76,124.59 100.44,123.72 86.77,227.27" fill="#8c7554" /><polygon points="108.35,124.99 105.66,125.06 91.99,228.61" fill="#947b59" /><polygon points="105.66,125.06 102.76,124.59 89.10,228.14" fill="#856f50" /><polygon points="101.73,132.52 102.15,135.12 104.90,133.82" fill="#987e5b" /><polygon points="102.15,135.12 103.31,137.36 104.90,133.82" fill="#987e5b" /><polygon points="102.15,130.27 101.73,132.52 104.90,133.82" fill="#987e5b" /><polygon points="103.31,137.36 104.90,138.66 104.90,133.82" fill="#987e5b" /><polygon points="103.31,128.98 102.15,130.27 104.90,133.82" fill="#987e5b" /><polygon points="104.90,138.66 106.49,138.66 104.90,133.82" fill="#987e5b" /><polygon points="107.05,121.53 104.15,121.07 104.90,123.06" fill="#b89a6f" /><polygon points="104.90,128.98 103.31,128.98 104.90,133.82" fill="#987e5b" /><polygon points="104.15,121.07 101.46,121.14 104.90,123.06" fill="#b89a6f" /><polygon points="109.37,122.41 107.05,121.53 104.90,123.06" fill="#b89a6f" /><polygon points="106.49,138.66 107.65,137.37 104.90,133.82" fill="#987e5b" /><polygon points="106.49,130.28 104.90,128.98 104.90,133.82" fill="#987e5b" /><polygon points="101.46,121.14 99.68,121.72 104.90,123.06" fill="#b89a6f" /><polygon points="107.65,137.37 108.08,135.12 104.90,133.82" fill="#987e5b" /><polygon points="110.49,123.46 109.37,122.41 104.90,123.06" fill="#b89a6f" /><polygon points="107.65,132.53 106.49,130.28 104.90,133.82" fill="#987e5b" /><polygon points="108.08,135.12 107.65,132.53 104.90,133.82" fill="#987e5b" /><polygon points="99.68,121.72 99.31,122.67 104.90,123.06" fill="#b89a6f" /><polygon points="110.12,124.40 110.49,123.46 104.90,123.06" fill="#b89a6f" /><polygon points="99.31,122.67 100.44,123.72 104.90,123.06" fill="#b89a6f" /><polygon points="334.35,235.10 320.69,130.47 333.98,236.04" fill="#ab8f67" /><polygon points="108.35,124.99 110.12,124.40 104.90,123.06" fill="#b89a6f" /><polygon points="100.44,123.72 102.76,124.59 104.90,123.06" fill="#b89a6f" /><polygon points="105.66,125.06 108.35,124.99 104.90,123.06" fill="#b89a6f" /><polygon points="102.76,124.59 105.66,125.06 104.90,123.06" fill="#b89a6f" /><polygon points="324.29,237.59 310.63,132.97 323.17,236.89" fill="#a48962" /><polygon points="333.98,236.04 320.32,131.42 332.21,236.98" fill="#a88c65" /><polygon points="326.62,237.87 312.95,133.24 324.29,237.59" fill="#937b58" /><polygon points="332.21,236.98 318.54,132.35 329.51,237.65" fill="#9a805c" /><polygon points="329.51,237.65 315.85,133.02 326.62,237.87" fill="#856f50" /><polygon points="79.61,114.90 191.31,160.59 228.69,76.63" fill="#824f3d" /><polygon points="329.37,84.97 330.03,81.84 325.13,83.10" fill="#9e845f" /><polygon points="327.58,87.60 329.37,84.97 325.13,83.10" fill="#9e845f" /><polygon points="330.03,81.84 329.37,79.05 325.13,83.10" fill="#9e845f" /><polygon points="325.13,89.02 327.58,87.60 325.13,83.10" fill="#9e845f" /><polygon points="320.69,130.47 320.32,131.42 333.98,236.04" fill="#ab8f67" /><polygon points="310.63,132.97 309.51,132.26 323.17,236.89" fill="#a48962" /><polygon points="329.37,79.05 327.58,77.35 325.13,83.10" fill="#9e845f" /><polygon points="322.68,88.85 325.13,89.02 325.13,83.10" fill="#9e845f" /><polygon points="327.58,77.35 325.13,77.19 325.13,83.10" fill="#9e845f" /><polygon points="320.88,87.15 322.68,88.85 325.13,83.10" fill="#9e845f" /><polygon points="320.32,131.42 318.54,132.35 332.21,236.98" fill="#a88c65" /><polygon points="312.95,133.24 310.63,132.97 324.29,237.59" fill="#937b58" /><polygon points="325.13,77.19 322.68,78.61 325.13,83.10" fill="#9e845f" /><polygon points="320.23,84.36 320.88,87.15 325.13,83.10" fill="#9e845f" /><polygon points="318.54,132.35 315.85,133.02 329.51,237.65" fill="#9a805c" /><polygon points="315.85,133.02 312.95,133.24 326.62,237.87" fill="#856f50" /><polygon points="322.68,78.61 320.88,81.23 325.13,83.10" fill="#9e845f" /><polygon points="320.88,81.23 320.23,84.36 325.13,83.10" fill="#9e845f" /><polygon points="191.31,160.59 340.39,122.32 228.69,76.63" fill="#824f3d" /><polygon points="317.24,129.48 314.34,129.71 315.10,131.36" fill="#af9269" /><polygon points="314.34,129.71 311.65,130.38 315.10,131.36" fill="#af9269" /><polygon points="319.56,129.76 317.24,129.48 315.10,131.36" fill="#af9269" /><polygon points="311.65,130.38 309.88,131.31 315.10,131.36" fill="#af9269" /><polygon points="320.69,130.47 319.56,129.76 315.10,131.36" fill="#af9269" /><polygon points="309.88,131.31 309.51,132.26 315.10,131.36" fill="#af9269" /><polygon points="320.32,131.42 320.69,130.47 315.10,131.36" fill="#af9269" /><polygon points="309.51,132.26 310.63,132.97 315.10,131.36" fill="#af9269" /><polygon points="318.54,132.35 320.32,131.42 315.10,131.36" fill="#af9269" /><polygon points="310.63,132.97 312.95,133.24 315.10,131.36" fill="#af9269" /><polygon points="315.85,133.02 318.54,132.35 315.10,131.36" fill="#af9269" /><polygon points="312.95,133.24 315.85,133.02 315.10,131.36" fill="#af9269" /><polygon points="319.53,132.26 319.81,131.38 325.33,48.15" fill="#a28761" /><polygon points="106.12,134.09 106.43,133.24 106.43,92.74" fill="#a58a63" /><polygon points="310.38,131.34 311.36,132.22 316.87,48.99" fill="#9c825e" /><polygon points="318.05,132.89 319.53,132.26 325.04,49.02" fill="#9f8560" /><polygon points="96.30,133.73 97.36,134.51 97.36,94.02" fill="#9e845f" /><polygon points="104.54,134.78 106.12,134.09 106.12,93.60" fill="#a38862" /><polygon points="311.36,132.22 313.34,132.87 318.85,49.64" fill="#8f7756" /><polygon points="315.79,133.11 318.05,132.89 323.57,49.66" fill="#947b59" /><polygon points="97.36,134.51 99.48,135.02 99.48,94.53" fill="#8f7856" /><polygon points="102.11,135.12 104.54,134.78 104.54,94.29" fill="#977e5b" /><polygon points="313.34,132.87 315.79,133.11 321.30,49.88" fill="#846e4f" /><polygon points="99.48,135.02 102.11,135.12 102.11,94.63" fill="#867050" /><polygon points="106.12,93.60 106.12,134.09 106.43,92.74" fill="#a58a63" /><polygon points="96.30,93.23 96.30,133.73 97.36,94.02" fill="#9e845f" /><polygon points="103.25,91.44 100.62,91.35 101.37,92.99" fill="#b4966c" /><polygon points="100.62,91.35 98.19,91.69 101.37,92.99" fill="#b4966c" /><polygon points="105.38,91.96 103.25,91.44 101.37,92.99" fill="#b4966c" /><polygon points="98.19,91.69 96.61,92.38 101.37,92.99" fill="#b4966c" /><polygon points="104.54,94.29 104.54,134.78 106.12,93.60" fill="#a38862" /><polygon points="106.43,92.74 105.38,91.96 101.37,92.99" fill="#b4966c" /><polygon points="97.36,94.02 97.36,134.51 99.48,94.53" fill="#8f7856" /><polygon points="96.61,92.38 96.30,93.23 101.37,92.99" fill="#b4966c" /><polygon points="102.11,94.63 102.11,135.12 104.54,94.29" fill="#977e5b" /><polygon points="99.48,94.53 99.48,135.02 102.11,94.63" fill="#867050" /><polygon points="106.12,93.60 106.43,92.74 101.37,92.99" fill="#b4966c" /><polygon points="96.30,93.23 97.36,94.02 101.37,92.99" fill="#b4966c" /><polygon points="104.54,94.29 106.12,93.60 101.37,92.99" fill="#b4966c" /><polygon points="325.04,49.02 319.53,132.26 325.33,48.15" fill="#a28761" /><polygon points="79.61,114.90 79.61,132.11 191.31,160.59" fill="#6d4333" /><polygon points="97.36,94.02 99.48,94.53 101.37,92.99" fill="#b4966c" /><polygon points="102.11,94.63 104.54,94.29 101.37,92.99" fill="#b4966c" /><polygon points="315.90,48.11 310.38,131.34 316.87,48.99" fill="#9c825e" /><polygon points="99.48,94.53 102.11,94.63 101.37,92.99" fill="#b4966c" /><polygon points="323.57,49.66 318.05,132.89 325.04,49.02" fill="#9f8560" /><polygon points="316.87,48.99 311.36,132.22 318.85,49.64" fill="#8f7756" /><polygon points="321.30,49.88 315.79,133.11 323.57,49.66" fill="#947b59" /><polygon points="318.85,49.64 313.34,132.87 321.30,49.88" fill="#846e4f" /><polygon points="322.38,46.62 319.92,46.38 320.61,48.13" fill="#b7986e" /><polygon points="319.92,46.38 317.66,46.60 320.61,48.13" fill="#b7986e" /><polygon points="324.35,47.27 322.38,46.62 320.61,48.13" fill="#b7986e" /><polygon points="317.66,46.60 316.19,47.23 320.61,48.13" fill="#b7986e" /><polygon points="325.33,48.15 324.35,47.27 320.61,48.13" fill="#b7986e" /><polygon points="316.19,47.23 315.90,48.11 320.61,48.13" fill="#b7986e" /><polygon points="325.04,49.02 325.33,48.15 320.61,48.13" fill="#b7986e" /><polygon points="315.90,48.11 316.87,48.99 320.61,48.13" fill="#b7986e" /><polygon points="323.57,49.66 325.04,49.02 320.61,48.13" fill="#b7986e" /><polygon points="316.87,48.99 318.85,49.64 320.61,48.13" fill="#b7986e" /><polygon points="321.30,49.88 323.57,49.66 320.61,48.13" fill="#b7986e" /><polygon points="191.31,177.80 340.39,139.53 340.39,122.32" fill="#724635" /><polygon points="318.85,49.64 321.30,49.88 320.61,48.13" fill="#b7986e" /><polygon points="97.12,97.03 98.91,98.74 170.36,127.96" fill="#b5976d" /><polygon points="103.82,87.23 101.37,87.07 172.81,116.29" fill="#b89a6f" /><polygon points="96.46,94.24 97.12,97.03 168.56,126.25" fill="#a48963" /><polygon points="101.37,87.07 98.91,88.49 170.36,117.71" fill="#ad9068" /><polygon points="97.12,91.12 96.46,94.24 167.90,123.46" fill="#8a7353" /><polygon points="98.91,88.49 97.12,91.12 168.56,120.34" fill="#967d5a" /><polygon points="194.91,128.26 337.51,91.65 335.07,44.23" fill="#a28761" /><polygon points="192.47,80.84 335.07,44.23 323.81,41.00" fill="#b2946b" /><polygon points="79.61,132.11 191.31,177.80 191.31,160.59" fill="#6d4333" /><polygon points="202.53,269.73 204.04,161.21 202.23,270.32" fill="#a58a63" /><polygon points="191.31,160.59 191.31,177.80 340.39,122.32" fill="#724635" /><polygon points="192.51,270.51 194.01,161.99 191.31,269.95" fill="#9b815d" /><polygon points="202.23,270.32 203.74,161.80 200.51,270.79" fill="#a68b64" /><polygon points="194.89,270.90 196.40,162.38 192.51,270.51" fill="#8a7353" /><polygon points="200.51,270.79 202.01,162.27 197.82,271.00" fill="#9d835e" /><polygon points="175.26,116.45 103.82,87.23 172.81,116.29" fill="#b89a6f" /><polygon points="197.82,271.00 199.32,162.48 194.89,270.90" fill="#8d7554" /><polygon points="168.56,126.25 97.12,97.03 170.36,127.96" fill="#b5976d" /><polygon points="172.81,116.29 101.37,87.07 170.36,117.71" fill="#ad9068" /><polygon points="167.90,123.46 96.46,94.24 168.56,126.25" fill="#a48963" /><polygon points="170.36,117.71 98.91,88.49 168.56,120.34" fill="#967d5a" /><polygon points="204.04,161.21 203.74,161.80 202.23,270.32" fill="#a58a63" /><polygon points="168.56,120.34 97.12,91.12 167.90,123.46" fill="#8a7353" /><polygon points="194.01,161.99 192.81,161.42 191.31,269.95" fill="#9b815d" /><polygon points="203.74,161.80 202.01,162.27 200.51,270.79" fill="#a68b64" /><polygon points="200.45,160.25 197.52,160.15 198.42,161.31" fill="#b3966c" /><polygon points="196.40,162.38 194.01,161.99 192.51,270.51" fill="#8a7353" /><polygon points="197.52,160.15 194.84,160.36 198.42,161.31" fill="#b3966c" /><polygon points="202.84,160.64 200.45,160.25 198.42,161.31" fill="#b3966c" /><polygon points="202.01,162.27 199.32,162.48 197.82,271.00" fill="#9d835e" /><polygon points="199.32,162.48 196.40,162.38 194.89,270.90" fill="#8d7554" /><polygon points="194.84,160.36 193.11,160.83 198.42,161.31" fill="#b3966c" /><polygon points="204.04,161.21 202.84,160.64 198.42,161.31" fill="#b3966c" /><polygon points="193.11,160.83 192.81,161.42 198.42,161.31" fill="#b3966c" /><polygon points="203.74,161.80 204.04,161.21 198.42,161.31" fill="#b3966c" /><polygon points="192.81,161.42 194.01,161.99 198.42,161.31" fill="#b3966c" /><polygon points="202.01,162.27 203.74,161.80 198.42,161.31" fill="#b3966c" /><polygon points="181.21,77.61 192.47,80.84 323.81,41.00" fill="#b2946b" /><polygon points="194.01,161.99 196.40,162.38 198.42,161.31" fill="#b3966c" /><polygon points="199.32,162.48 202.01,162.27 198.42,161.31" fill="#b3966c" /><polygon points="196.40,162.38 199.32,162.48 198.42,161.31" fill="#b3966c" /><polygon points="192.47,80.84 194.91,128.26 335.07,44.23" fill="#a28761" /><polygon points="202.86,162.10 203.15,161.16 205.42,78.76" fill="#a48862" /><polygon points="193.70,161.47 194.68,162.38 196.96,79.98" fill="#9e845f" /><polygon points="201.39,162.84 202.86,162.10 205.14,79.70" fill="#a08560" /><polygon points="194.68,162.38 196.66,163.00 198.94,80.60" fill="#927957" /><polygon points="177.05,124.07 177.71,120.95 172.81,122.21" fill="#9e845f" /><polygon points="199.12,163.17 201.39,162.84 203.66,80.44" fill="#937b59" /><polygon points="175.26,126.70 177.05,124.07 172.81,122.21" fill="#9e845f" /><polygon points="196.66,163.00 199.12,163.17 201.39,80.77" fill="#826d4e" /><polygon points="177.71,120.95 177.05,118.16 172.81,122.21" fill="#9e845f" /><polygon points="172.81,128.12 175.26,126.70 172.81,122.21" fill="#9e845f" /><polygon points="177.05,118.16 175.26,116.45 172.81,122.21" fill="#9e845f" /><polygon points="170.36,127.96 172.81,128.12 172.81,122.21" fill="#9e845f" /><polygon points="175.26,116.45 172.81,116.29 172.81,122.21" fill="#9e845f" /><polygon points="168.56,126.25 170.36,127.96 172.81,122.21" fill="#9e845f" /><polygon points="172.81,116.29 170.36,117.71 172.81,122.21" fill="#9e845f" /><polygon points="167.90,123.46 168.56,126.25 172.81,122.21" fill="#9e845f" /><polygon points="170.36,117.71 168.56,120.34 172.81,122.21" fill="#9e845f" /><polygon points="168.56,120.34 167.90,123.46 172.81,122.21" fill="#9e845f" /><polygon points="205.14,79.70 202.86,162.10 205.42,78.76" fill="#a48862" /><polygon points="195.98,79.07 193.70,161.47 196.96,79.98" fill="#9e845f" /><polygon points="203.66,80.44 201.39,162.84 205.14,79.70" fill="#a08560" /><polygon points="196.96,79.98 194.68,162.38 198.94,80.60" fill="#927957" /><polygon points="201.39,80.77 199.12,163.17 203.66,80.44" fill="#937b59" /><polygon points="198.94,80.60 196.66,163.00 201.39,80.77" fill="#826d4e" /><polygon points="202.46,77.23 200.01,77.06 200.70,78.91" fill="#b6986d" /><polygon points="200.01,77.06 197.74,77.39 200.70,78.91" fill="#b6986d" /><polygon points="204.45,77.85 202.46,77.23 200.70,78.91" fill="#b6986d" /><polygon points="197.74,77.39 196.26,78.12 200.70,78.91" fill="#b6986d" /><polygon points="205.42,78.76 204.45,77.85 200.70,78.91" fill="#b6986d" /><polygon points="181.21,77.61 183.65,125.03 192.47,80.84" fill="#987e5b" /><polygon points="183.65,125.03 194.91,128.26 192.47,80.84" fill="#987e5b" /><polygon points="196.26,78.12 195.98,79.07 200.70,78.91" fill="#b6986d" /><polygon points="205.14,79.70 205.42,78.76 200.70,78.91" fill="#b6986d" /><polygon points="195.98,79.07 196.96,79.98 200.70,78.91" fill="#b6986d" /><polygon points="203.66,80.44 205.14,79.70 200.70,78.91" fill="#b6986d" /><polygon points="196.96,79.98 198.94,80.60 200.70,78.91" fill="#b6986d" /><polygon points="201.39,80.77 203.66,80.44 200.70,78.91" fill="#b6986d" /><polygon points="198.94,80.60 201.39,80.77 200.70,78.91" fill="#b6986d" /><text x="210" y="308" text-anchor="middle" font-family="Arial" font-size="8" letter-spacing="1.4" fill="#72796f">GEOMETRIA DI STUDIO</text></svg>