<svg xmlns="http://www.w3.org/2000/svg" viewBox="0 0 420 330" role="img" aria-label="Tropicalia — top di studio"><title>Tropicalia — geometria di studio</title><rect width="420" height="330" fill="#e9e9df"/><ellipse cx="210" cy="272" rx="94.35719090506092" ry="10" fill="#667455" opacity=".10"/><polygon points="99.74,54.36 112.01,66.77 97.16,51.72" fill="#616866" /><polygon points="320.26,257.64 307.99,245.23 322.84,260.28" fill="#616866" /><polygon points="322.84,51.72 310.58,64.12 320.26,54.36" fill="#79807f" /><polygon points="97.16,260.28 109.42,247.88 99.74,257.64" fill="#79807f" /><polygon points="312.89,41.99 300.63,54.39 316.46,41.00" fill="#757c7b" /><polygon points="107.11,270.01 119.37,257.61 103.54,271.00" fill="#79817f" /><polygon points="97.16,51.72 109.42,64.12 96.25,48.12" fill="#676d6c" /><polygon points="322.84,260.28 310.58,247.88 323.75,263.88" fill="#6b7271" /><polygon points="103.54,41.00 115.80,53.40 107.11,41.99" fill="#6c7371" /><polygon points="316.46,271.00 304.20,258.60 312.89,270.01" fill="#707876" /><polygon points="323.75,48.12 311.49,60.52 322.84,51.72" fill="#767d7c" /><polygon points="96.25,263.88 108.51,251.48 97.16,260.28" fill="#717877" /><polygon points="316.46,41.00 304.20,53.40 320.06,41.93" fill="#6b7270" /><polygon points="103.54,271.00 115.80,258.60 99.94,270.07" fill="#737a78" /><polygon points="96.25,48.12 108.51,60.52 97.27,44.54" fill="#707775" /><polygon points="323.75,263.88 311.49,251.48 322.73,267.46" fill="#787f7e" /><polygon points="99.94,41.93 112.20,54.34 103.54,41.00" fill="#737a78" /><polygon points="320.06,270.07 307.80,257.66 316.46,271.00" fill="#7b8281" /><polygon points="322.73,44.54 310.47,56.94 323.75,48.12" fill="#6d7372" /><polygon points="97.27,267.46 109.53,255.06 96.25,263.88" fill="#656b69" /><polygon points="320.06,41.93 307.80,54.34 322.73,44.54" fill="#606664" /><polygon points="99.94,270.07 112.20,257.66 97.27,267.46" fill="#676d6c" /><polygon points="97.27,44.54 109.53,56.94 99.94,41.93" fill="#747b7a" /><polygon points="322.73,267.46 310.47,255.06 320.06,270.07" fill="#7d8583" /><polygon points="310.58,64.12 307.99,66.77 320.26,54.36" fill="#79807f" /><polygon points="109.42,247.88 112.01,245.23 99.74,257.64" fill="#79807f" /><polygon points="112.01,66.77 109.42,64.12 97.16,51.72" fill="#616866" /><polygon points="307.99,245.23 310.58,247.88 322.84,260.28" fill="#616866" /><polygon points="115.80,53.40 119.37,54.39 107.11,41.99" fill="#6c7371" /><polygon points="304.20,258.60 300.63,257.61 312.89,270.01" fill="#707876" /><polygon points="311.49,60.52 310.58,64.12 322.84,51.72" fill="#767d7c" /><polygon points="108.51,251.48 109.42,247.88 97.16,260.28" fill="#717877" /><polygon points="300.63,54.39 304.20,53.40 316.46,41.00" fill="#757c7b" /><polygon points="119.37,257.61 115.80,258.60 103.54,271.00" fill="#79817f" /><polygon points="109.42,64.12 108.51,60.52 96.25,48.12" fill="#676d6c" /><polygon points="310.58,247.88 311.49,251.48 323.75,263.88" fill="#6b7271" /><polygon points="112.20,54.34 115.80,53.40 103.54,41.00" fill="#737a78" /><polygon points="307.80,257.66 304.20,258.60 316.46,271.00" fill="#7b8281" /><polygon points="310.47,56.94 311.49,60.52 323.75,48.12" fill="#6d7372" /><polygon points="109.53,255.06 108.51,251.48 96.25,263.88" fill="#656b69" /><polygon points="304.20,53.40 307.80,54.34 320.06,41.93" fill="#6b7270" /><polygon points="115.80,258.60 112.20,257.66 99.94,270.07" fill="#737a78" /><polygon points="108.51,60.52 109.53,56.94 97.27,44.54" fill="#707775" /><polygon points="311.49,251.48 310.47,255.06 322.73,267.46" fill="#787f7e" /><polygon points="109.53,56.94 112.20,54.34 99.94,41.93" fill="#747b7a" /><polygon points="310.47,255.06 307.80,257.66 320.06,270.07" fill="#7d8583" /><polygon points="307.80,54.34 310.47,56.94 322.73,44.54" fill="#606664" /><polygon points="112.20,257.66 109.53,255.06 97.27,267.46" fill="#676d6c" /><polygon points="115.69,66.20 115.69,67.06 304.31,67.06" fill="#7c8483" /><polygon points="304.31,54.10 115.69,54.10 304.31,54.97" fill="#69706e" /><polygon points="115.69,54.10 115.69,54.97 304.31,54.97" fill="#69706e" /><polygon points="304.31,66.20 115.69,66.20 304.31,67.06" fill="#7c8483" /><polygon points="95.45,203.33 96.17,203.35 96.17,177.71" fill="#808886" /><polygon points="118.51,203.33 119.23,203.35 119.23,177.71" fill="#808886" /><polygon points="141.56,203.33 142.28,203.35 142.28,177.71" fill="#808886" /><polygon points="164.61,203.33 165.33,203.35 165.33,177.71" fill="#808886" /><polygon points="187.67,203.33 188.39,203.35 188.39,177.71" fill="#808886" /><polygon points="210.72,203.33 211.44,203.35 211.44,177.71" fill="#808886" /><polygon points="233.77,203.33 234.49,203.35 234.49,177.71" fill="#808886" /><polygon points="256.83,203.33 257.55,203.35 257.55,177.71" fill="#808886" /><polygon points="279.88,203.33 280.60,203.35 280.60,177.71" fill="#808886" /><polygon points="302.93,203.33 303.66,203.35 303.66,177.71" fill="#808886" /><polygon points="325.99,203.33 326.71,203.35 326.71,177.71" fill="#808886" /><polygon points="93.29,177.71 93.29,203.35 94.01,177.79" fill="#636a68" /><polygon points="116.34,177.71 116.34,203.35 117.07,177.79" fill="#636a68" /><polygon points="139.40,177.71 139.40,203.35 140.12,177.79" fill="#636a68" /><polygon points="162.45,177.71 162.45,203.35 163.17,177.79" fill="#636a68" /><polygon points="185.51,177.71 185.51,203.35 186.23,177.79" fill="#636a68" /><polygon points="208.56,177.71 208.56,203.35 209.28,177.79" fill="#636a68" /><polygon points="231.61,177.71 231.61,203.35 232.33,177.79" fill="#636a68" /><polygon points="254.67,177.71 254.67,203.35 255.39,177.79" fill="#636a68" /><polygon points="277.72,177.71 277.72,203.35 278.44,177.79" fill="#636a68" /><polygon points="300.77,177.71 300.77,203.35 301.49,177.79" fill="#636a68" /><polygon points="323.83,177.71 323.83,203.35 324.55,177.79" fill="#636a68" /><polygon points="93.29,203.35 94.01,203.33 94.01,177.79" fill="#636a68" /><polygon points="116.34,203.35 117.07,203.33 117.07,177.79" fill="#636a68" /><polygon points="139.40,203.35 140.12,203.33 140.12,177.79" fill="#636a68" /><polygon points="162.45,203.35 163.17,203.33 163.17,177.79" fill="#636a68" /><polygon points="185.51,203.35 186.23,203.33 186.23,177.79" fill="#636a68" /><polygon points="208.56,203.35 209.28,203.33 209.28,177.79" fill="#636a68" /><polygon points="231.61,203.35 232.33,203.33 232.33,177.79" fill="#636a68" /><polygon points="254.67,203.35 255.39,203.33 255.39,177.79" fill="#636a68" /><polygon points="277.72,203.35 278.44,203.33 278.44,177.79" fill="#636a68" /><polygon points="300.77,203.35 301.49,203.33 301.49,177.79" fill="#636a68" /><polygon points="323.83,203.35 324.55,203.33 324.55,177.79" fill="#636a68" /><polygon points="93.29,203.35 93.29,228.87 94.01,203.33" fill="#626867" /><polygon points="116.34,203.35 116.34,228.87 117.07,203.33" fill="#626867" /><polygon points="139.40,203.35 139.40,228.87 140.12,203.33" fill="#626867" /><polygon points="162.45,203.35 162.45,228.87 163.17,203.33" fill="#626867" /><polygon points="185.51,203.35 185.51,228.87 186.23,203.33" fill="#626867" /><polygon points="208.56,203.35 208.56,228.87 209.28,203.33" fill="#626867" /><polygon points="231.61,203.35 231.61,228.87 232.33,203.33" fill="#626867" /><polygon points="254.67,203.35 254.67,228.87 255.39,203.33" fill="#626867" /><polygon points="277.72,203.35 277.72,228.87 278.44,203.33" fill="#626867" /><polygon points="300.77,203.35 300.77,228.87 301.49,203.33" fill="#626867" /><polygon points="323.83,203.35 323.83,228.87 324.55,203.33" fill="#626867" /><polygon points="95.45,177.79 95.45,203.33 96.17,177.71" fill="#808886" /><polygon points="118.51,177.79 118.51,203.33 119.23,177.71" fill="#808886" /><polygon points="141.56,177.79 141.56,203.33 142.28,177.71" fill="#808886" /><polygon points="164.61,177.79 164.61,203.33 165.33,177.71" fill="#808886" /><polygon points="187.67,177.79 187.67,203.33 188.39,177.71" fill="#808886" /><polygon points="210.72,177.79 210.72,203.33 211.44,177.71" fill="#808886" /><polygon points="233.77,177.79 233.77,203.33 234.49,177.71" fill="#808886" /><polygon points="256.83,177.79 256.83,203.33 257.55,177.71" fill="#808886" /><polygon points="279.88,177.79 279.88,203.33 280.60,177.71" fill="#808886" /><polygon points="302.93,177.79 302.93,203.33 303.66,177.71" fill="#808886" /><polygon points="325.99,177.79 325.99,203.33 326.71,177.71" fill="#808886" /><polygon points="94.01,203.33 95.45,203.33 95.45,177.79" fill="#848d8b" /><polygon points="117.07,203.33 118.51,203.33 118.51,177.79" fill="#848d8b" /><polygon points="140.12,203.33 141.56,203.33 141.56,177.79" fill="#848d8b" /><polygon points="163.17,203.33 164.61,203.33 164.61,177.79" fill="#848d8b" /><polygon points="186.23,203.33 187.67,203.33 187.67,177.79" fill="#848d8b" /><polygon points="209.28,203.33 210.72,203.33 210.72,177.79" fill="#848d8b" /><polygon points="232.33,203.33 233.77,203.33 233.77,177.79" fill="#848d8b" /><polygon points="255.39,203.33 256.83,203.33 256.83,177.79" fill="#848d8b" /><polygon points="278.44,203.33 279.88,203.33 279.88,177.79" fill="#848d8b" /><polygon points="301.49,203.33 302.93,203.33 302.93,177.79" fill="#848d8b" /><polygon points="324.55,203.33 325.99,203.33 325.99,177.79" fill="#848d8b" /><polygon points="95.45,203.33 95.45,228.62 96.17,203.35" fill="#7e8684" /><polygon points="118.51,203.33 118.51,228.62 119.23,203.35" fill="#7e8684" /><polygon points="141.56,203.33 141.56,228.62 142.28,203.35" fill="#7e8684" /><polygon points="164.61,203.33 164.61,228.62 165.33,203.35" fill="#7e8684" /><polygon points="187.67,203.33 187.67,228.62 188.39,203.35" fill="#7e8684" /><polygon points="210.72,203.33 210.72,228.62 211.44,203.35" fill="#7e8684" /><polygon points="233.77,203.33 233.77,228.62 234.49,203.35" fill="#7e8684" /><polygon points="256.83,203.33 256.83,228.62 257.55,203.35" fill="#7e8684" /><polygon points="279.88,203.33 279.88,228.62 280.60,203.35" fill="#7e8684" /><polygon points="302.93,203.33 302.93,228.62 303.66,203.35" fill="#7e8684" /><polygon points="325.99,203.33 325.99,228.62 326.71,203.35" fill="#7e8684" /><polygon points="94.01,177.79 94.01,203.33 95.45,177.79" fill="#848d8b" /><polygon points="117.07,177.79 117.07,203.33 118.51,177.79" fill="#848d8b" /><polygon points="140.12,177.79 140.12,203.33 141.56,177.79" fill="#848d8b" /><polygon points="163.17,177.79 163.17,203.33 164.61,177.79" fill="#848d8b" /><polygon points="186.23,177.79 186.23,203.33 187.67,177.79" fill="#848d8b" /><polygon points="209.28,177.79 209.28,203.33 210.72,177.79" fill="#848d8b" /><polygon points="232.33,177.79 232.33,203.33 233.77,177.79" fill="#848d8b" /><polygon points="255.39,177.79 255.39,203.33 256.83,177.79" fill="#848d8b" /><polygon points="278.44,177.79 278.44,203.33 279.88,177.79" fill="#848d8b" /><polygon points="301.49,177.79 301.49,203.33 302.93,177.79" fill="#848d8b" /><polygon points="324.55,177.79 324.55,203.33 325.99,177.79" fill="#848d8b" /><polygon points="95.45,228.62 96.17,228.87 96.17,203.35" fill="#7e8685" /><polygon points="118.51,228.62 119.23,228.87 119.23,203.35" fill="#7e8685" /><polygon points="141.56,228.62 142.28,228.87 142.28,203.35" fill="#7e8685" /><polygon points="164.61,228.62 165.33,228.87 165.33,203.35" fill="#7e8685" /><polygon points="187.67,228.62 188.39,228.87 188.39,203.35" fill="#7e8685" /><polygon points="210.72,228.62 211.44,228.87 211.44,203.35" fill="#7e8685" /><polygon points="233.77,228.62 234.49,228.87 234.49,203.35" fill="#7e8685" /><polygon points="256.83,228.62 257.55,228.87 257.55,203.35" fill="#7e8685" /><polygon points="279.88,228.62 280.60,228.87 280.60,203.35" fill="#7e8685" /><polygon points="302.93,228.62 303.66,228.87 303.66,203.35" fill="#7e8685" /><polygon points="325.99,228.62 326.71,228.87 326.71,203.35" fill="#7e8685" /><polygon points="115.69,63.82 115.69,66.20 304.31,66.20" fill="#88908e" /><polygon points="304.31,54.97 115.69,54.97 304.31,57.34" fill="#6a716f" /><polygon points="94.01,203.33 94.01,228.62 95.45,203.33" fill="#828a88" /><polygon points="117.07,203.33 117.07,228.62 118.51,203.33" fill="#828a88" /><polygon points="140.12,203.33 140.12,228.62 141.56,203.33" fill="#828a88" /><polygon points="163.17,203.33 163.17,228.62 164.61,203.33" fill="#828a88" /><polygon points="186.23,203.33 186.23,228.62 187.67,203.33" fill="#828a88" /><polygon points="209.28,203.33 209.28,228.62 210.72,203.33" fill="#828a88" /><polygon points="232.33,203.33 232.33,228.62 233.77,203.33" fill="#828a88" /><polygon points="255.39,203.33 255.39,228.62 256.83,203.33" fill="#828a88" /><polygon points="278.44,203.33 278.44,228.62 279.88,203.33" fill="#828a88" /><polygon points="301.49,203.33 301.49,228.62 302.93,203.33" fill="#828a88" /><polygon points="324.55,203.33 324.55,228.62 325.99,203.33" fill="#828a88" /><polygon points="95.45,177.79 96.17,177.71 96.17,152.15" fill="#808886" /><polygon points="118.51,177.79 119.23,177.71 119.23,152.15" fill="#808886" /><polygon points="141.56,177.79 142.28,177.71 142.28,152.15" fill="#808886" /><polygon points="164.61,177.79 165.33,177.71 165.33,152.15" fill="#808886" /><polygon points="187.67,177.79 188.39,177.71 188.39,152.15" fill="#808886" /><polygon points="210.72,177.79 211.44,177.71 211.44,152.15" fill="#808886" /><polygon points="233.77,177.79 234.49,177.71 234.49,152.15" fill="#808886" /><polygon points="256.83,177.79 257.55,177.71 257.55,152.15" fill="#808886" /><polygon points="279.88,177.79 280.60,177.71 280.60,152.15" fill="#808886" /><polygon points="302.93,177.79 303.66,177.71 303.66,152.15" fill="#808886" /><polygon points="325.99,177.79 326.71,177.71 326.71,152.15" fill="#808886" /><polygon points="93.29,228.87 94.01,228.62 94.01,203.33" fill="#626867" /><polygon points="116.34,228.87 117.07,228.62 117.07,203.33" fill="#626867" /><polygon points="139.40,228.87 140.12,228.62 140.12,203.33" fill="#626867" /><polygon points="162.45,228.87 163.17,228.62 163.17,203.33" fill="#626867" /><polygon points="185.51,228.87 186.23,228.62 186.23,203.33" fill="#626867" /><polygon points="208.56,228.87 209.28,228.62 209.28,203.33" fill="#626867" /><polygon points="231.61,228.87 232.33,228.62 232.33,203.33" fill="#626867" /><polygon points="254.67,228.87 255.39,228.62 255.39,203.33" fill="#626867" /><polygon points="277.72,228.87 278.44,228.62 278.44,203.33" fill="#626867" /><polygon points="300.77,228.87 301.49,228.62 301.49,203.33" fill="#626867" /><polygon points="323.83,228.87 324.55,228.62 324.55,203.33" fill="#626867" /><polygon points="93.29,177.71 94.01,177.79 94.01,152.28" fill="#646a69" /><polygon points="116.34,177.71 117.07,177.79 117.07,152.28" fill="#646a69" /><polygon points="139.40,177.71 140.12,177.79 140.12,152.28" fill="#646a69" /><polygon points="162.45,177.71 163.17,177.79 163.17,152.28" fill="#646a69" /><polygon points="185.51,177.71 186.23,177.79 186.23,152.28" fill="#646a69" /><polygon points="208.56,177.71 209.28,177.79 209.28,152.28" fill="#646a69" /><polygon points="231.61,177.71 232.33,177.79 232.33,152.28" fill="#646a69" /><polygon points="254.67,177.71 255.39,177.79 255.39,152.28" fill="#646a69" /><polygon points="277.72,177.71 278.44,177.79 278.44,152.28" fill="#646a69" /><polygon points="300.77,177.71 301.49,177.79 301.49,152.28" fill="#646a69" /><polygon points="323.83,177.71 324.55,177.79 324.55,152.28" fill="#646a69" /><polygon points="115.69,54.97 115.69,57.34 304.31,57.34" fill="#6a716f" /><polygon points="304.31,63.82 115.69,63.82 304.31,66.20" fill="#88908e" /><polygon points="94.01,228.62 95.45,228.62 95.45,203.33" fill="#828a88" /><polygon points="117.07,228.62 118.51,228.62 118.51,203.33" fill="#828a88" /><polygon points="140.12,228.62 141.56,228.62 141.56,203.33" fill="#828a88" /><polygon points="163.17,228.62 164.61,228.62 164.61,203.33" fill="#828a88" /><polygon points="186.23,228.62 187.67,228.62 187.67,203.33" fill="#828a88" /><polygon points="209.28,228.62 210.72,228.62 210.72,203.33" fill="#828a88" /><polygon points="232.33,228.62 233.77,228.62 233.77,203.33" fill="#828a88" /><polygon points="255.39,228.62 256.83,228.62 256.83,203.33" fill="#828a88" /><polygon points="278.44,228.62 279.88,228.62 279.88,203.33" fill="#828a88" /><polygon points="301.49,228.62 302.93,228.62 302.93,203.33" fill="#828a88" /><polygon points="324.55,228.62 325.99,228.62 325.99,203.33" fill="#828a88" /><polygon points="93.29,152.15 93.29,177.71 94.01,152.28" fill="#646a69" /><polygon points="116.34,152.15 116.34,177.71 117.07,152.28" fill="#646a69" /><polygon points="139.40,152.15 139.40,177.71 140.12,152.28" fill="#646a69" /><polygon points="162.45,152.15 162.45,177.71 163.17,152.28" fill="#646a69" /><polygon points="185.51,152.15 185.51,177.71 186.23,152.28" fill="#646a69" /><polygon points="208.56,152.15 208.56,177.71 209.28,152.28" fill="#646a69" /><polygon points="231.61,152.15 231.61,177.71 232.33,152.28" fill="#646a69" /><polygon points="254.67,152.15 254.67,177.71 255.39,152.28" fill="#646a69" /><polygon points="277.72,152.15 277.72,177.71 278.44,152.28" fill="#646a69" /><polygon points="300.77,152.15 300.77,177.71 301.49,152.28" fill="#646a69" /><polygon points="323.83,152.15 323.83,177.71 324.55,152.28" fill="#646a69" /><polygon points="94.01,177.79 95.45,177.79 95.45,152.28" fill="#858e8c" /><polygon points="117.07,177.79 118.51,177.79 118.51,152.28" fill="#858e8c" /><polygon points="140.12,177.79 141.56,177.79 141.56,152.28" fill="#858e8c" /><polygon points="163.17,177.79 164.61,177.79 164.61,152.28" fill="#858e8c" /><polygon points="186.23,177.79 187.67,177.79 187.67,152.28" fill="#858e8c" /><polygon points="209.28,177.79 210.72,177.79 210.72,152.28" fill="#858e8c" /><polygon points="232.33,177.79 233.77,177.79 233.77,152.28" fill="#858e8c" /><polygon points="255.39,177.79 256.83,177.79 256.83,152.28" fill="#858e8c" /><polygon points="278.44,177.79 279.88,177.79 279.88,152.28" fill="#858e8c" /><polygon points="301.49,177.79 302.93,177.79 302.93,152.28" fill="#858e8c" /><polygon points="324.55,177.79 325.99,177.79 325.99,152.28" fill="#858e8c" /><polygon points="95.45,152.28 95.45,177.79 96.17,152.15" fill="#808886" /><polygon points="118.51,152.28 118.51,177.79 119.23,152.15" fill="#808886" /><polygon points="141.56,152.28 141.56,177.79 142.28,152.15" fill="#808886" /><polygon points="164.61,152.28 164.61,177.79 165.33,152.15" fill="#808886" /><polygon points="187.67,152.28 187.67,177.79 188.39,152.15" fill="#808886" /><polygon points="210.72,152.28 210.72,177.79 211.44,152.15" fill="#808886" /><polygon points="233.77,152.28 233.77,177.79 234.49,152.15" fill="#808886" /><polygon points="256.83,152.28 256.83,177.79 257.55,152.15" fill="#808886" /><polygon points="279.88,152.28 279.88,177.79 280.60,152.15" fill="#808886" /><polygon points="302.93,152.28 302.93,177.79 303.66,152.15" fill="#808886" /><polygon points="325.99,152.28 325.99,177.79 326.71,152.15" fill="#808886" /><polygon points="94.01,152.28 94.01,177.79 95.45,152.28" fill="#858e8c" /><polygon points="117.07,152.28 117.07,177.79 118.51,152.28" fill="#858e8c" /><polygon points="140.12,152.28 140.12,177.79 141.56,152.28" fill="#858e8c" /><polygon points="163.17,152.28 163.17,177.79 164.61,152.28" fill="#858e8c" /><polygon points="186.23,152.28 186.23,177.79 187.67,152.28" fill="#858e8c" /><polygon points="209.28,152.28 209.28,177.79 210.72,152.28" fill="#858e8c" /><polygon points="232.33,152.28 232.33,177.79 233.77,152.28" fill="#858e8c" /><polygon points="255.39,152.28 255.39,177.79 256.83,152.28" fill="#858e8c" /><polygon points="278.44,152.28 278.44,177.79 279.88,152.28" fill="#858e8c" /><polygon points="301.49,152.28 301.49,177.79 302.93,152.28" fill="#858e8c" /><polygon points="324.55,152.28 324.55,177.79 325.99,152.28" fill="#858e8c" /><polygon points="115.69,60.58 115.69,63.82 304.31,63.82" fill="#88918f" /><polygon points="304.31,57.34 115.69,57.34 304.31,60.58" fill="#7d8583" /><polygon points="115.69,57.34 115.69,60.58 304.31,60.58" fill="#7d8583" /><polygon points="304.31,60.58 115.69,60.58 304.31,63.82" fill="#88918f" /><polygon points="95.45,152.28 96.17,152.15 96.17,126.65" fill="#808887" /><polygon points="118.51,152.28 119.23,152.15 119.23,126.65" fill="#808887" /><polygon points="141.56,152.28 142.28,152.15 142.28,126.65" fill="#808887" /><polygon points="164.61,152.28 165.33,152.15 165.33,126.65" fill="#808887" /><polygon points="187.67,152.28 188.39,152.15 188.39,126.65" fill="#808887" /><polygon points="210.72,152.28 211.44,152.15 211.44,126.65" fill="#808887" /><polygon points="233.77,152.28 234.49,152.15 234.49,126.65" fill="#808887" /><polygon points="256.83,152.28 257.55,152.15 257.55,126.65" fill="#808887" /><polygon points="279.88,152.28 280.60,152.15 280.60,126.65" fill="#808887" /><polygon points="302.93,152.28 303.66,152.15 303.66,126.65" fill="#808887" /><polygon points="325.99,152.28 326.71,152.15 326.71,126.65" fill="#808887" /><polygon points="93.29,152.15 94.01,152.28 94.01,126.80" fill="#646a69" /><polygon points="116.34,152.15 117.07,152.28 117.07,126.80" fill="#646a69" /><polygon points="139.40,152.15 140.12,152.28 140.12,126.80" fill="#646a69" /><polygon points="162.45,152.15 163.17,152.28 163.17,126.80" fill="#646a69" /><polygon points="185.51,152.15 186.23,152.28 186.23,126.80" fill="#646a69" /><polygon points="208.56,152.15 209.28,152.28 209.28,126.80" fill="#646a69" /><polygon points="231.61,152.15 232.33,152.28 232.33,126.80" fill="#646a69" /><polygon points="254.67,152.15 255.39,152.28 255.39,126.80" fill="#646a69" /><polygon points="277.72,152.15 278.44,152.28 278.44,126.80" fill="#646a69" /><polygon points="300.77,152.15 301.49,152.28 301.49,126.80" fill="#646a69" /><polygon points="323.83,152.15 324.55,152.28 324.55,126.80" fill="#646a69" /><polygon points="94.01,152.28 95.45,152.28 95.45,126.80" fill="#868e8c" /><polygon points="117.07,152.28 118.51,152.28 118.51,126.80" fill="#868e8c" /><polygon points="140.12,152.28 141.56,152.28 141.56,126.80" fill="#868e8c" /><polygon points="163.17,152.28 164.61,152.28 164.61,126.80" fill="#868e8c" /><polygon points="186.23,152.28 187.67,152.28 187.67,126.80" fill="#868e8c" /><polygon points="209.28,152.28 210.72,152.28 210.72,126.80" fill="#868e8c" /><polygon points="232.33,152.28 233.77,152.28 233.77,126.80" fill="#868e8c" /><polygon points="255.39,152.28 256.83,152.28 256.83,126.80" fill="#868e8c" /><polygon points="278.44,152.28 279.88,152.28 279.88,126.80" fill="#868e8c" /><polygon points="301.49,152.28 302.93,152.28 302.93,126.80" fill="#868e8c" /><polygon points="324.55,152.28 325.99,152.28 325.99,126.80" fill="#868e8c" /><polygon points="93.29,126.65 93.29,152.15 94.01,126.80" fill="#646a69" /><polygon points="116.34,126.65 116.34,152.15 117.07,126.80" fill="#646a69" /><polygon points="139.40,126.65 139.40,152.15 140.12,126.80" fill="#646a69" /><polygon points="162.45,126.65 162.45,152.15 163.17,126.80" fill="#646a69" /><polygon points="185.51,126.65 185.51,152.15 186.23,126.80" fill="#646a69" /><polygon points="208.56,126.65 208.56,152.15 209.28,126.80" fill="#646a69" /><polygon points="231.61,126.65 231.61,152.15 232.33,126.80" fill="#646a69" /><polygon points="254.67,126.65 254.67,152.15 255.39,126.80" fill="#646a69" /><polygon points="277.72,126.65 277.72,152.15 278.44,126.80" fill="#646a69" /><polygon points="300.77,126.65 300.77,152.15 301.49,126.80" fill="#646a69" /><polygon points="323.83,126.65 323.83,152.15 324.55,126.80" fill="#646a69" /><polygon points="95.45,126.80 95.45,152.28 96.17,126.65" fill="#808887" /><polygon points="118.51,126.80 118.51,152.28 119.23,126.65" fill="#808887" /><polygon points="141.56,126.80 141.56,152.28 142.28,126.65" fill="#808887" /><polygon points="164.61,126.80 164.61,152.28 165.33,126.65" fill="#808887" /><polygon points="187.67,126.80 187.67,152.28 188.39,126.65" fill="#808887" /><polygon points="210.72,126.80 210.72,152.28 211.44,126.65" fill="#808887" /><polygon points="233.77,126.80 233.77,152.28 234.49,126.65" fill="#808887" /><polygon points="256.83,126.80 256.83,152.28 257.55,126.65" fill="#808887" /><polygon points="279.88,126.80 279.88,152.28 280.60,126.65" fill="#808887" /><polygon points="302.93,126.80 302.93,152.28 303.66,126.65" fill="#808887" /><polygon points="325.99,126.80 325.99,152.28 326.71,126.65" fill="#808887" /><polygon points="93.29,228.87 93.29,251.91 94.01,228.62" fill="#606664" /><polygon points="116.34,228.87 116.34,251.91 117.07,228.62" fill="#606664" /><polygon points="139.40,228.87 139.40,251.91 140.12,228.62" fill="#606664" /><polygon points="162.45,228.87 162.45,251.91 163.17,228.62" fill="#606664" /><polygon points="185.51,228.87 185.51,251.91 186.23,228.62" fill="#606664" /><polygon points="208.56,228.87 208.56,251.91 209.28,228.62" fill="#606664" /><polygon points="231.61,228.87 231.61,251.91 232.33,228.62" fill="#606664" /><polygon points="254.67,228.87 254.67,251.91 255.39,228.62" fill="#606664" /><polygon points="277.72,228.87 277.72,251.91 278.44,228.62" fill="#606664" /><polygon points="300.77,228.87 300.77,251.91 301.49,228.62" fill="#606664" /><polygon points="323.83,228.87 323.83,251.91 324.55,228.62" fill="#606664" /><polygon points="94.01,126.80 94.01,152.28 95.45,126.80" fill="#868e8c" /><polygon points="117.07,126.80 117.07,152.28 118.51,126.80" fill="#868e8c" /><polygon points="140.12,126.80 140.12,152.28 141.56,126.80" fill="#868e8c" /><polygon points="163.17,126.80 163.17,152.28 164.61,126.80" fill="#868e8c" /><polygon points="186.23,126.80 186.23,152.28 187.67,126.80" fill="#868e8c" /><polygon points="209.28,126.80 209.28,152.28 210.72,126.80" fill="#868e8c" /><polygon points="232.33,126.80 232.33,152.28 233.77,126.80" fill="#868e8c" /><polygon points="255.39,126.80 255.39,152.28 256.83,126.80" fill="#868e8c" /><polygon points="278.44,126.80 278.44,152.28 279.88,126.80" fill="#868e8c" /><polygon points="301.49,126.80 301.49,152.28 302.93,126.80" fill="#868e8c" /><polygon points="324.55,126.80 324.55,152.28 325.99,126.80" fill="#868e8c" /><polygon points="95.45,228.62 95.45,251.04 96.17,228.87" fill="#79817f" /><polygon points="118.51,228.62 118.51,251.04 119.23,228.87" fill="#79817f" /><polygon points="141.56,228.62 141.56,251.04 142.28,228.87" fill="#79817f" /><polygon points="164.61,228.62 164.61,251.04 165.33,228.87" fill="#79817f" /><polygon points="187.67,228.62 187.67,251.04 188.39,228.87" fill="#79817f" /><polygon points="210.72,228.62 210.72,251.04 211.44,228.87" fill="#79817f" /><polygon points="233.77,228.62 233.77,251.04 234.49,228.87" fill="#79817f" /><polygon points="256.83,228.62 256.83,251.04 257.55,228.87" fill="#79817f" /><polygon points="279.88,228.62 279.88,251.04 280.60,228.87" fill="#79817f" /><polygon points="302.93,228.62 302.93,251.04 303.66,228.87" fill="#79817f" /><polygon points="325.99,228.62 325.99,251.04 326.71,228.87" fill="#79817f" /><polygon points="94.01,228.62 94.01,251.04 95.45,228.62" fill="#787f7e" /><polygon points="117.07,228.62 117.07,251.04 118.51,228.62" fill="#787f7e" /><polygon points="140.12,228.62 140.12,251.04 141.56,228.62" fill="#787f7e" /><polygon points="163.17,228.62 163.17,251.04 164.61,228.62" fill="#787f7e" /><polygon points="186.23,228.62 186.23,251.04 187.67,228.62" fill="#787f7e" /><polygon points="209.28,228.62 209.28,251.04 210.72,228.62" fill="#787f7e" /><polygon points="232.33,228.62 232.33,251.04 233.77,228.62" fill="#787f7e" /><polygon points="255.39,228.62 255.39,251.04 256.83,228.62" fill="#787f7e" /><polygon points="278.44,228.62 278.44,251.04 279.88,228.62" fill="#787f7e" /><polygon points="301.49,228.62 301.49,251.04 302.93,228.62" fill="#787f7e" /><polygon points="324.55,228.62 324.55,251.04 325.99,228.62" fill="#787f7e" /><polygon points="95.45,126.80 96.17,126.65 96.17,101.16" fill="#808887" /><polygon points="118.51,126.80 119.23,126.65 119.23,101.16" fill="#808887" /><polygon points="141.56,126.80 142.28,126.65 142.28,101.16" fill="#808887" /><polygon points="164.61,126.80 165.33,126.65 165.33,101.16" fill="#808887" /><polygon points="187.67,126.80 188.39,126.65 188.39,101.16" fill="#808887" /><polygon points="210.72,126.80 211.44,126.65 211.44,101.16" fill="#808887" /><polygon points="233.77,126.80 234.49,126.65 234.49,101.16" fill="#808887" /><polygon points="256.83,126.80 257.55,126.65 257.55,101.16" fill="#808887" /><polygon points="279.88,126.80 280.60,126.65 280.60,101.16" fill="#808887" /><polygon points="302.93,126.80 303.66,126.65 303.66,101.16" fill="#808887" /><polygon points="325.99,126.80 326.71,126.65 326.71,101.16" fill="#808887" /><polygon points="93.29,126.65 94.01,126.80 94.01,101.29" fill="#646a69" /><polygon points="116.34,126.65 117.07,126.80 117.07,101.29" fill="#646a69" /><polygon points="139.40,126.65 140.12,126.80 140.12,101.29" fill="#646a69" /><polygon points="162.45,126.65 163.17,126.80 163.17,101.29" fill="#646a69" /><polygon points="185.51,126.65 186.23,126.80 186.23,101.29" fill="#646a69" /><polygon points="208.56,126.65 209.28,126.80 209.28,101.29" fill="#646a69" /><polygon points="231.61,126.65 232.33,126.80 232.33,101.29" fill="#646a69" /><polygon points="254.67,126.65 255.39,126.80 255.39,101.29" fill="#646a69" /><polygon points="277.72,126.65 278.44,126.80 278.44,101.29" fill="#646a69" /><polygon points="300.77,126.65 301.49,126.80 301.49,101.29" fill="#646a69" /><polygon points="323.83,126.65 324.55,126.80 324.55,101.29" fill="#646a69" /><polygon points="94.01,126.80 95.45,126.80 95.45,101.29" fill="#868e8c" /><polygon points="117.07,126.80 118.51,126.80 118.51,101.29" fill="#868e8c" /><polygon points="140.12,126.80 141.56,126.80 141.56,101.29" fill="#868e8c" /><polygon points="163.17,126.80 164.61,126.80 164.61,101.29" fill="#868e8c" /><polygon points="186.23,126.80 187.67,126.80 187.67,101.29" fill="#868e8c" /><polygon points="209.28,126.80 210.72,126.80 210.72,101.29" fill="#868e8c" /><polygon points="232.33,126.80 233.77,126.80 233.77,101.29" fill="#868e8c" /><polygon points="255.39,126.80 256.83,126.80 256.83,101.29" fill="#868e8c" /><polygon points="278.44,126.80 279.88,126.80 279.88,101.29" fill="#868e8c" /><polygon points="301.49,126.80 302.93,126.80 302.93,101.29" fill="#868e8c" /><polygon points="324.55,126.80 325.99,126.80 325.99,101.29" fill="#868e8c" /><polygon points="93.29,101.16 93.29,126.65 94.01,101.29" fill="#646a69" /><polygon points="116.34,101.16 116.34,126.65 117.07,101.29" fill="#646a69" /><polygon points="139.40,101.16 139.40,126.65 140.12,101.29" fill="#646a69" /><polygon points="162.45,101.16 162.45,126.65 163.17,101.29" fill="#646a69" /><polygon points="185.51,101.16 185.51,126.65 186.23,101.29" fill="#646a69" /><polygon points="208.56,101.16 208.56,126.65 209.28,101.29" fill="#646a69" /><polygon points="231.61,101.16 231.61,126.65 232.33,101.29" fill="#646a69" /><polygon points="254.67,101.16 254.67,126.65 255.39,101.29" fill="#646a69" /><polygon points="277.72,101.16 277.72,126.65 278.44,101.29" fill="#646a69" /><polygon points="300.77,101.16 300.77,126.65 301.49,101.29" fill="#646a69" /><polygon points="323.83,101.16 323.83,126.65 324.55,101.29" fill="#646a69" /><polygon points="95.45,101.29 95.45,126.80 96.17,101.16" fill="#808887" /><polygon points="118.51,101.29 118.51,126.80 119.23,101.16" fill="#808887" /><polygon points="141.56,101.29 141.56,126.80 142.28,101.16" fill="#808887" /><polygon points="164.61,101.29 164.61,126.80 165.33,101.16" fill="#808887" /><polygon points="187.67,101.29 187.67,126.80 188.39,101.16" fill="#808887" /><polygon points="210.72,101.29 210.72,126.80 211.44,101.16" fill="#808887" /><polygon points="233.77,101.29 233.77,126.80 234.49,101.16" fill="#808887" /><polygon points="256.83,101.29 256.83,126.80 257.55,101.16" fill="#808887" /><polygon points="279.88,101.29 279.88,126.80 280.60,101.16" fill="#808887" /><polygon points="302.93,101.29 302.93,126.80 303.66,101.16" fill="#808887" /><polygon points="325.99,101.29 325.99,126.80 326.71,101.16" fill="#808887" /><polygon points="94.01,101.29 94.01,126.80 95.45,101.29" fill="#868e8c" /><polygon points="117.07,101.29 117.07,126.80 118.51,101.29" fill="#868e8c" /><polygon points="140.12,101.29 140.12,126.80 141.56,101.29" fill="#868e8c" /><polygon points="163.17,101.29 163.17,126.80 164.61,101.29" fill="#868e8c" /><polygon points="186.23,101.29 186.23,126.80 187.67,101.29" fill="#868e8c" /><polygon points="209.28,101.29 209.28,126.80 210.72,101.29" fill="#868e8c" /><polygon points="232.33,101.29 232.33,126.80 233.77,101.29" fill="#868e8c" /><polygon points="255.39,101.29 255.39,126.80 256.83,101.29" fill="#868e8c" /><polygon points="278.44,101.29 278.44,126.80 279.88,101.29" fill="#868e8c" /><polygon points="301.49,101.29 301.49,126.80 302.93,101.29" fill="#868e8c" /><polygon points="324.55,101.29 324.55,126.80 325.99,101.29" fill="#868e8c" /><polygon points="95.45,251.04 96.17,251.91 96.17,228.87" fill="#7a8180" /><polygon points="118.51,251.04 119.23,251.91 119.23,228.87" fill="#7a8180" /><polygon points="141.56,251.04 142.28,251.91 142.28,228.87" fill="#7a8180" /><polygon points="164.61,251.04 165.33,251.91 165.33,228.87" fill="#7a8180" /><polygon points="187.67,251.04 188.39,251.91 188.39,228.87" fill="#7a8180" /><polygon points="210.72,251.04 211.44,251.91 211.44,228.87" fill="#7a8180" /><polygon points="233.77,251.04 234.49,251.91 234.49,228.87" fill="#7a8180" /><polygon points="256.83,251.04 257.55,251.91 257.55,228.87" fill="#7a8180" /><polygon points="279.88,251.04 280.60,251.91 280.60,228.87" fill="#7a8180" /><polygon points="302.93,251.04 303.66,251.91 303.66,228.87" fill="#7a8180" /><polygon points="325.99,251.04 326.71,251.91 326.71,228.87" fill="#7a8180" /><polygon points="93.29,251.91 94.01,251.04 94.01,228.62" fill="#5f6564" /><polygon points="116.34,251.91 117.07,251.04 117.07,228.62" fill="#5f6564" /><polygon points="139.40,251.91 140.12,251.04 140.12,228.62" fill="#5f6564" /><polygon points="162.45,251.91 163.17,251.04 163.17,228.62" fill="#5f6564" /><polygon points="185.51,251.91 186.23,251.04 186.23,228.62" fill="#5f6564" /><polygon points="208.56,251.91 209.28,251.04 209.28,228.62" fill="#5f6564" /><polygon points="231.61,251.91 232.33,251.04 232.33,228.62" fill="#5f6564" /><polygon points="254.67,251.91 255.39,251.04 255.39,228.62" fill="#5f6564" /><polygon points="277.72,251.91 278.44,251.04 278.44,228.62" fill="#5f6564" /><polygon points="300.77,251.91 301.49,251.04 301.49,228.62" fill="#5f6564" /><polygon points="323.83,251.91 324.55,251.04 324.55,228.62" fill="#5f6564" /><polygon points="95.45,101.29 96.17,101.16 96.17,75.61" fill="#808886" /><polygon points="118.51,101.29 119.23,101.16 119.23,75.61" fill="#808886" /><polygon points="141.56,101.29 142.28,101.16 142.28,75.61" fill="#808886" /><polygon points="164.61,101.29 165.33,101.16 165.33,75.61" fill="#808886" /><polygon points="187.67,101.29 188.39,101.16 188.39,75.61" fill="#808886" /><polygon points="210.72,101.29 211.44,101.16 211.44,75.61" fill="#808886" /><polygon points="233.77,101.29 234.49,101.16 234.49,75.61" fill="#808886" /><polygon points="256.83,101.29 257.55,101.16 257.55,75.61" fill="#808886" /><polygon points="279.88,101.29 280.60,101.16 280.60,75.61" fill="#808886" /><polygon points="302.93,101.29 303.66,101.16 303.66,75.61" fill="#808886" /><polygon points="325.99,101.29 326.71,101.16 326.71,75.61" fill="#808886" /><polygon points="94.01,251.04 95.45,251.04 95.45,228.62" fill="#787f7e" /><polygon points="117.07,251.04 118.51,251.04 118.51,228.62" fill="#787f7e" /><polygon points="140.12,251.04 141.56,251.04 141.56,228.62" fill="#787f7e" /><polygon points="163.17,251.04 164.61,251.04 164.61,228.62" fill="#787f7e" /><polygon points="186.23,251.04 187.67,251.04 187.67,228.62" fill="#787f7e" /><polygon points="209.28,251.04 210.72,251.04 210.72,228.62" fill="#787f7e" /><polygon points="232.33,251.04 233.77,251.04 233.77,228.62" fill="#787f7e" /><polygon points="255.39,251.04 256.83,251.04 256.83,228.62" fill="#787f7e" /><polygon points="278.44,251.04 279.88,251.04 279.88,228.62" fill="#787f7e" /><polygon points="301.49,251.04 302.93,251.04 302.93,228.62" fill="#787f7e" /><polygon points="324.55,251.04 325.99,251.04 325.99,228.62" fill="#787f7e" /><polygon points="93.29,101.16 94.01,101.29 94.01,75.70" fill="#646a69" /><polygon points="116.34,101.16 117.07,101.29 117.07,75.70" fill="#646a69" /><polygon points="139.40,101.16 140.12,101.29 140.12,75.70" fill="#646a69" /><polygon points="162.45,101.16 163.17,101.29 163.17,75.70" fill="#646a69" /><polygon points="185.51,101.16 186.23,101.29 186.23,75.70" fill="#646a69" /><polygon points="208.56,101.16 209.28,101.29 209.28,75.70" fill="#646a69" /><polygon points="231.61,101.16 232.33,101.29 232.33,75.70" fill="#646a69" /><polygon points="254.67,101.16 255.39,101.29 255.39,75.70" fill="#646a69" /><polygon points="277.72,101.16 278.44,101.29 278.44,75.70" fill="#646a69" /><polygon points="300.77,101.16 301.49,101.29 301.49,75.70" fill="#646a69" /><polygon points="323.83,101.16 324.55,101.29 324.55,75.70" fill="#646a69" /><polygon points="93.29,75.61 93.29,101.16 94.01,75.70" fill="#646a69" /><polygon points="116.34,75.61 116.34,101.16 117.07,75.70" fill="#646a69" /><polygon points="139.40,75.61 139.40,101.16 140.12,75.70" fill="#646a69" /><polygon points="162.45,75.61 162.45,101.16 163.17,75.70" fill="#646a69" /><polygon points="185.51,75.61 185.51,101.16 186.23,75.70" fill="#646a69" /><polygon points="208.56,75.61 208.56,101.16 209.28,75.70" fill="#646a69" /><polygon points="231.61,75.61 231.61,101.16 232.33,75.70" fill="#646a69" /><polygon points="254.67,75.61 254.67,101.16 255.39,75.70" fill="#646a69" /><polygon points="277.72,75.61 277.72,101.16 278.44,75.70" fill="#646a69" /><polygon points="300.77,75.61 300.77,101.16 301.49,75.70" fill="#646a69" /><polygon points="323.83,75.61 323.83,101.16 324.55,75.70" fill="#646a69" /><polygon points="94.01,101.29 95.45,101.29 95.45,75.70" fill="#858e8c" /><polygon points="117.07,101.29 118.51,101.29 118.51,75.70" fill="#858e8c" /><polygon points="140.12,101.29 141.56,101.29 141.56,75.70" fill="#858e8c" /><polygon points="163.17,101.29 164.61,101.29 164.61,75.70" fill="#858e8c" /><polygon points="186.23,101.29 187.67,101.29 187.67,75.70" fill="#858e8c" /><polygon points="209.28,101.29 210.72,101.29 210.72,75.70" fill="#858e8c" /><polygon points="232.33,101.29 233.77,101.29 233.77,75.70" fill="#858e8c" /><polygon points="255.39,101.29 256.83,101.29 256.83,75.70" fill="#858e8c" /><polygon points="278.44,101.29 279.88,101.29 279.88,75.70" fill="#858e8c" /><polygon points="301.49,101.29 302.93,101.29 302.93,75.70" fill="#858e8c" /><polygon points="324.55,101.29 325.99,101.29 325.99,75.70" fill="#858e8c" /><polygon points="95.45,75.70 95.45,101.29 96.17,75.61" fill="#808886" /><polygon points="118.51,75.70 118.51,101.29 119.23,75.61" fill="#808886" /><polygon points="141.56,75.70 141.56,101.29 142.28,75.61" fill="#808886" /><polygon points="164.61,75.70 164.61,101.29 165.33,75.61" fill="#808886" /><polygon points="187.67,75.70 187.67,101.29 188.39,75.61" fill="#808886" /><polygon points="210.72,75.70 210.72,101.29 211.44,75.61" fill="#808886" /><polygon points="233.77,75.70 233.77,101.29 234.49,75.61" fill="#808886" /><polygon points="256.83,75.70 256.83,101.29 257.55,75.61" fill="#808886" /><polygon points="279.88,75.70 279.88,101.29 280.60,75.61" fill="#808886" /><polygon points="302.93,75.70 302.93,101.29 303.66,75.61" fill="#808886" /><polygon points="325.99,75.70 325.99,101.29 326.71,75.61" fill="#808886" /><polygon points="94.01,75.70 94.01,101.29 95.45,75.70" fill="#858e8c" /><polygon points="117.07,75.70 117.07,101.29 118.51,75.70" fill="#858e8c" /><polygon points="140.12,75.70 140.12,101.29 141.56,75.70" fill="#858e8c" /><polygon points="163.17,75.70 163.17,101.29 164.61,75.70" fill="#858e8c" /><polygon points="186.23,75.70 186.23,101.29 187.67,75.70" fill="#858e8c" /><polygon points="209.28,75.70 209.28,101.29 210.72,75.70" fill="#858e8c" /><polygon points="232.33,75.70 232.33,101.29 233.77,75.70" fill="#858e8c" /><polygon points="255.39,75.70 255.39,101.29 256.83,75.70" fill="#858e8c" /><polygon points="278.44,75.70 278.44,101.29 279.88,75.70" fill="#858e8c" /><polygon points="301.49,75.70 301.49,101.29 302.93,75.70" fill="#858e8c" /><polygon points="324.55,75.70 324.55,101.29 325.99,75.70" fill="#858e8c" /><polygon points="119.18,66.82 121.85,64.22 115.69,60.58" fill="#878f8d" /><polygon points="298.15,64.22 300.82,66.82 304.31,60.58" fill="#848c8a" /><polygon points="121.85,247.78 119.18,245.18 115.69,251.42" fill="#838b89" /><polygon points="300.82,245.18 298.15,247.78 304.31,251.42" fill="#808886" /><polygon points="121.85,64.22 122.87,60.64 115.69,60.58" fill="#878f8d" /><polygon points="297.13,60.64 298.15,64.22 304.31,60.58" fill="#848c8a" /><polygon points="122.87,251.36 121.85,247.78 115.69,251.42" fill="#838b89" /><polygon points="298.15,247.78 297.13,251.36 304.31,251.42" fill="#808886" /><polygon points="115.58,67.76 119.18,66.82 115.69,60.58" fill="#878f8d" /><polygon points="300.82,66.82 304.42,67.76 304.31,60.58" fill="#848c8a" /><polygon points="119.18,245.18 115.58,244.24 115.69,251.42" fill="#838b89" /><polygon points="304.42,244.24 300.82,245.18 304.31,251.42" fill="#808886" /><polygon points="122.87,60.64 121.96,57.04 115.69,60.58" fill="#878f8d" /><polygon points="298.04,57.04 297.13,60.64 304.31,60.58" fill="#848c8a" /><polygon points="121.96,254.96 122.87,251.36 115.69,251.42" fill="#838b89" /><polygon points="297.13,251.36 298.04,254.96 304.31,251.42" fill="#808886" /><polygon points="95.45,75.70 96.17,75.61 96.17,49.98" fill="#808886" /><polygon points="118.51,75.70 119.23,75.61 119.23,49.98" fill="#808886" /><polygon points="141.56,75.70 142.28,75.61 142.28,49.98" fill="#808886" /><polygon points="164.61,75.70 165.33,75.61 165.33,49.98" fill="#808886" /><polygon points="187.67,75.70 188.39,75.61 188.39,49.98" fill="#808886" /><polygon points="210.72,75.70 211.44,75.61 211.44,49.98" fill="#808886" /><polygon points="233.77,75.70 234.49,75.61 234.49,49.98" fill="#808886" /><polygon points="256.83,75.70 257.55,75.61 257.55,49.98" fill="#808886" /><polygon points="279.88,75.70 280.60,75.61 280.60,49.98" fill="#808886" /><polygon points="302.93,75.70 303.66,75.61 303.66,49.98" fill="#808886" /><polygon points="325.99,75.70 326.71,75.61 326.71,49.98" fill="#808886" /><polygon points="112.01,66.77 115.58,67.76 115.69,60.58" fill="#878f8d" /><polygon points="304.42,67.76 307.99,66.77 304.31,60.58" fill="#848c8a" /><polygon points="115.58,244.24 112.01,245.23 115.69,251.42" fill="#838b89" /><polygon points="307.99,245.23 304.42,244.24 304.31,251.42" fill="#808886" /><polygon points="121.96,57.04 119.37,54.39 115.69,60.58" fill="#878f8d" /><polygon points="300.63,54.39 298.04,57.04 304.31,60.58" fill="#848c8a" /><polygon points="119.37,257.61 121.96,254.96 115.69,251.42" fill="#838b89" /><polygon points="298.04,254.96 300.63,257.61 304.31,251.42" fill="#808886" /><polygon points="109.42,64.12 112.01,66.77 115.69,60.58" fill="#878f8d" /><polygon points="307.99,66.77 310.58,64.12 304.31,60.58" fill="#848c8a" /><polygon points="112.01,245.23 109.42,247.88 115.69,251.42" fill="#838b89" /><polygon points="310.58,247.88 307.99,245.23 304.31,251.42" fill="#808886" /><polygon points="93.29,49.98 93.29,75.61 94.01,49.98" fill="#636a68" /><polygon points="116.34,49.98 116.34,75.61 117.07,49.98" fill="#636a68" /><polygon points="139.40,49.98 139.40,75.61 140.12,49.98" fill="#636a68" /><polygon points="162.45,49.98 162.45,75.61 163.17,49.98" fill="#636a68" /><polygon points="185.51,49.98 185.51,75.61 186.23,49.98" fill="#636a68" /><polygon points="208.56,49.98 208.56,75.61 209.28,49.98" fill="#636a68" /><polygon points="231.61,49.98 231.61,75.61 232.33,49.98" fill="#636a68" /><polygon points="254.67,49.98 254.67,75.61 255.39,49.98" fill="#636a68" /><polygon points="277.72,49.98 277.72,75.61 278.44,49.98" fill="#636a68" /><polygon points="300.77,49.98 300.77,75.61 301.49,49.98" fill="#636a68" /><polygon points="323.83,49.98 323.83,75.61 324.55,49.98" fill="#636a68" /><polygon points="93.29,75.61 94.01,75.70 94.01,49.98" fill="#636a68" /><polygon points="116.34,75.61 117.07,75.70 117.07,49.98" fill="#636a68" /><polygon points="139.40,75.61 140.12,75.70 140.12,49.98" fill="#636a68" /><polygon points="162.45,75.61 163.17,75.70 163.17,49.98" fill="#636a68" /><polygon points="185.51,75.61 186.23,75.70 186.23,49.98" fill="#636a68" /><polygon points="208.56,75.61 209.28,75.70 209.28,49.98" fill="#636a68" /><polygon points="231.61,75.61 232.33,75.70 232.33,49.98" fill="#636a68" /><polygon points="254.67,75.61 255.39,75.70 255.39,49.98" fill="#636a68" /><polygon points="277.72,75.61 278.44,75.70 278.44,49.98" fill="#636a68" /><polygon points="300.77,75.61 301.49,75.70 301.49,49.98" fill="#636a68" /><polygon points="323.83,75.61 324.55,75.70 324.55,49.98" fill="#636a68" /><polygon points="119.37,54.39 115.80,53.40 115.69,60.58" fill="#878f8d" /><polygon points="304.20,53.40 300.63,54.39 304.31,60.58" fill="#848c8a" /><polygon points="115.80,258.60 119.37,257.61 115.69,251.42" fill="#838b89" /><polygon points="300.63,257.61 304.20,258.60 304.31,251.42" fill="#808886" /><polygon points="108.51,60.52 109.42,64.12 115.69,60.58" fill="#878f8d" /><polygon points="310.58,64.12 311.49,60.52 304.31,60.58" fill="#848c8a" /><polygon points="109.42,247.88 108.51,251.48 115.69,251.42" fill="#838b89" /><polygon points="311.49,251.48 310.58,247.88 304.31,251.42" fill="#808886" /><polygon points="95.45,49.98 95.45,75.70 96.17,49.98" fill="#808886" /><polygon points="118.51,49.98 118.51,75.70 119.23,49.98" fill="#808886" /><polygon points="141.56,49.98 141.56,75.70 142.28,49.98" fill="#808886" /><polygon points="164.61,49.98 164.61,75.70 165.33,49.98" fill="#808886" /><polygon points="187.67,49.98 187.67,75.70 188.39,49.98" fill="#808886" /><polygon points="210.72,49.98 210.72,75.70 211.44,49.98" fill="#808886" /><polygon points="233.77,49.98 233.77,75.70 234.49,49.98" fill="#808886" /><polygon points="256.83,49.98 256.83,75.70 257.55,49.98" fill="#808886" /><polygon points="279.88,49.98 279.88,75.70 280.60,49.98" fill="#808886" /><polygon points="302.93,49.98 302.93,75.70 303.66,49.98" fill="#808886" /><polygon points="325.99,49.98 325.99,75.70 326.71,49.98" fill="#808886" /><polygon points="115.80,53.40 112.20,54.34 115.69,60.58" fill="#878f8d" /><polygon points="307.80,54.34 304.20,53.40 304.31,60.58" fill="#848c8a" /><polygon points="112.20,257.66 115.80,258.60 115.69,251.42" fill="#838b89" /><polygon points="304.20,258.60 307.80,257.66 304.31,251.42" fill="#808886" /><polygon points="109.53,56.94 108.51,60.52 115.69,60.58" fill="#878f8d" /><polygon points="311.49,60.52 310.47,56.94 304.31,60.58" fill="#848c8a" /><polygon points="108.51,251.48 109.53,255.06 115.69,251.42" fill="#838b89" /><polygon points="310.47,255.06 311.49,251.48 304.31,251.42" fill="#808886" /><polygon points="94.01,75.70 95.45,75.70 95.45,49.98" fill="#858d8b" /><polygon points="117.07,75.70 118.51,75.70 118.51,49.98" fill="#858d8b" /><polygon points="140.12,75.70 141.56,75.70 141.56,49.98" fill="#858d8b" /><polygon points="163.17,75.70 164.61,75.70 164.61,49.98" fill="#858d8b" /><polygon points="186.23,75.70 187.67,75.70 187.67,49.98" fill="#858d8b" /><polygon points="209.28,75.70 210.72,75.70 210.72,49.98" fill="#858d8b" /><polygon points="232.33,75.70 233.77,75.70 233.77,49.98" fill="#858d8b" /><polygon points="255.39,75.70 256.83,75.70 256.83,49.98" fill="#858d8b" /><polygon points="278.44,75.70 279.88,75.70 279.88,49.98" fill="#858d8b" /><polygon points="301.49,75.70 302.93,75.70 302.93,49.98" fill="#858d8b" /><polygon points="324.55,75.70 325.99,75.70 325.99,49.98" fill="#858d8b" /><polygon points="112.20,54.34 109.53,56.94 115.69,60.58" fill="#878f8d" /><polygon points="310.47,56.94 307.80,54.34 304.31,60.58" fill="#848c8a" /><polygon points="109.53,255.06 112.20,257.66 115.69,251.42" fill="#838b89" /><polygon points="307.80,257.66 310.47,255.06 304.31,251.42" fill="#808886" /><polygon points="94.01,49.98 94.01,75.70 95.45,49.98" fill="#858d8b" /><polygon points="117.07,49.98 117.07,75.70 118.51,49.98" fill="#858d8b" /><polygon points="140.12,49.98 140.12,75.70 141.56,49.98" fill="#858d8b" /><polygon points="163.17,49.98 163.17,75.70 164.61,49.98" fill="#858d8b" /><polygon points="186.23,49.98 186.23,75.70 187.67,49.98" fill="#858d8b" /><polygon points="209.28,49.98 209.28,75.70 210.72,49.98" fill="#858d8b" /><polygon points="232.33,49.98 232.33,75.70 233.77,49.98" fill="#858d8b" /><polygon points="255.39,49.98 255.39,75.70 256.83,49.98" fill="#858d8b" /><polygon points="278.44,49.98 278.44,75.70 279.88,49.98" fill="#858d8b" /><polygon points="301.49,49.98 301.49,75.70 302.93,49.98" fill="#858d8b" /><polygon points="324.55,49.98 324.55,75.70 325.99,49.98" fill="#858d8b" /><polygon points="93.29,251.91 93.29,261.93 94.01,251.04" fill="#6f7674" /><polygon points="116.34,251.91 116.34,261.93 117.07,251.04" fill="#6f7674" /><polygon points="139.40,251.91 139.40,261.93 140.12,251.04" fill="#6f7674" /><polygon points="162.45,251.91 162.45,261.93 163.17,251.04" fill="#6f7674" /><polygon points="185.51,251.91 185.51,261.93 186.23,251.04" fill="#6f7674" /><polygon points="208.56,251.91 208.56,261.93 209.28,251.04" fill="#6f7674" /><polygon points="231.61,251.91 231.61,261.93 232.33,251.04" fill="#6f7674" /><polygon points="254.67,251.91 254.67,261.93 255.39,251.04" fill="#6f7674" /><polygon points="277.72,251.91 277.72,261.93 278.44,251.04" fill="#6f7674" /><polygon points="300.77,251.91 300.77,261.93 301.49,251.04" fill="#6f7674" /><polygon points="323.83,251.91 323.83,261.93 324.55,251.04" fill="#6f7674" /><polygon points="95.45,251.04 95.45,260.70 96.17,251.91" fill="#6a716f" /><polygon points="118.51,251.04 118.51,260.70 119.23,251.91" fill="#6a716f" /><polygon points="141.56,251.04 141.56,260.70 142.28,251.91" fill="#6a716f" /><polygon points="164.61,251.04 164.61,260.70 165.33,251.91" fill="#6a716f" /><polygon points="187.67,251.04 187.67,260.70 188.39,251.91" fill="#6a716f" /><polygon points="210.72,251.04 210.72,260.70 211.44,251.91" fill="#6a716f" /><polygon points="233.77,251.04 233.77,260.70 234.49,251.91" fill="#6a716f" /><polygon points="256.83,251.04 256.83,260.70 257.55,251.91" fill="#6a716f" /><polygon points="279.88,251.04 279.88,260.70 280.60,251.91" fill="#6a716f" /><polygon points="302.93,251.04 302.93,260.70 303.66,251.91" fill="#6a716f" /><polygon points="325.99,251.04 325.99,260.70 326.71,251.91" fill="#6a716f" /><polygon points="94.01,251.04 94.01,260.70 95.45,251.04" fill="#636968" /><polygon points="117.07,251.04 117.07,260.70 118.51,251.04" fill="#636968" /><polygon points="140.12,251.04 140.12,260.70 141.56,251.04" fill="#636968" /><polygon points="163.17,251.04 163.17,260.70 164.61,251.04" fill="#636968" /><polygon points="186.23,251.04 186.23,260.70 187.67,251.04" fill="#636968" /><polygon points="209.28,251.04 209.28,260.70 210.72,251.04" fill="#636968" /><polygon points="232.33,251.04 232.33,260.70 233.77,251.04" fill="#636968" /><polygon points="255.39,251.04 255.39,260.70 256.83,251.04" fill="#636968" /><polygon points="278.44,251.04 278.44,260.70 279.88,251.04" fill="#636968" /><polygon points="301.49,251.04 301.49,260.70 302.93,251.04" fill="#636968" /><polygon points="324.55,251.04 324.55,260.70 325.99,251.04" fill="#636968" /><polygon points="95.45,260.70 96.17,261.93 96.17,251.91" fill="#6a716f" /><polygon points="118.51,260.70 119.23,261.93 119.23,251.91" fill="#6a716f" /><polygon points="141.56,260.70 142.28,261.93 142.28,251.91" fill="#6a716f" /><polygon points="164.61,260.70 165.33,261.93 165.33,251.91" fill="#6a716f" /><polygon points="187.67,260.70 188.39,261.93 188.39,251.91" fill="#6a716f" /><polygon points="210.72,260.70 211.44,261.93 211.44,251.91" fill="#6a716f" /><polygon points="233.77,260.70 234.49,261.93 234.49,251.91" fill="#6a716f" /><polygon points="256.83,260.70 257.55,261.93 257.55,251.91" fill="#6a716f" /><polygon points="279.88,260.70 280.60,261.93 280.60,251.91" fill="#6a716f" /><polygon points="302.93,260.70 303.66,261.93 303.66,251.91" fill="#6a716f" /><polygon points="325.99,260.70 326.71,261.93 326.71,251.91" fill="#6a716f" /><polygon points="93.29,261.93 94.01,260.70 94.01,251.04" fill="#6f7674" /><polygon points="116.34,261.93 117.07,260.70 117.07,251.04" fill="#6f7674" /><polygon points="139.40,261.93 140.12,260.70 140.12,251.04" fill="#6f7674" /><polygon points="162.45,261.93 163.17,260.70 163.17,251.04" fill="#6f7674" /><polygon points="185.51,261.93 186.23,260.70 186.23,251.04" fill="#6f7674" /><polygon points="208.56,261.93 209.28,260.70 209.28,251.04" fill="#6f7674" /><polygon points="231.61,261.93 232.33,260.70 232.33,251.04" fill="#6f7674" /><polygon points="254.67,261.93 255.39,260.70 255.39,251.04" fill="#6f7674" /><polygon points="277.72,261.93 278.44,260.70 278.44,251.04" fill="#6f7674" /><polygon points="300.77,261.93 301.49,260.70 301.49,251.04" fill="#6f7674" /><polygon points="323.83,261.93 324.55,260.70 324.55,251.04" fill="#6f7674" /><polygon points="94.01,260.70 95.45,260.70 95.45,251.04" fill="#636968" /><polygon points="117.07,260.70 118.51,260.70 118.51,251.04" fill="#636968" /><polygon points="140.12,260.70 141.56,260.70 141.56,251.04" fill="#636968" /><polygon points="163.17,260.70 164.61,260.70 164.61,251.04" fill="#636968" /><polygon points="186.23,260.70 187.67,260.70 187.67,251.04" fill="#636968" /><polygon points="209.28,260.70 210.72,260.70 210.72,251.04" fill="#636968" /><polygon points="232.33,260.70 233.77,260.70 233.77,251.04" fill="#636968" /><polygon points="255.39,260.70 256.83,260.70 256.83,251.04" fill="#636968" /><polygon points="278.44,260.70 279.88,260.70 279.88,251.04" fill="#636968" /><polygon points="301.49,260.70 302.93,260.70 302.93,251.04" fill="#636968" /><polygon points="324.55,260.70 325.99,260.70 325.99,251.04" fill="#636968" /><polygon points="95.45,260.70 95.45,260.85 96.17,261.93" fill="#626867" /><polygon points="118.51,260.70 118.51,260.85 119.23,261.93" fill="#626867" /><polygon points="141.56,260.70 141.56,260.85 142.28,261.93" fill="#626867" /><polygon points="164.61,260.70 164.61,260.85 165.33,261.93" fill="#626867" /><polygon points="187.67,260.70 187.67,260.85 188.39,261.93" fill="#626867" /><polygon points="210.72,260.70 210.72,260.85 211.44,261.93" fill="#626867" /><polygon points="233.77,260.70 233.77,260.85 234.49,261.93" fill="#626867" /><polygon points="256.83,260.70 256.83,260.85 257.55,261.93" fill="#626867" /><polygon points="279.88,260.70 279.88,260.85 280.60,261.93" fill="#626867" /><polygon points="302.93,260.70 302.93,260.85 303.66,261.93" fill="#626867" /><polygon points="325.99,260.70 325.99,260.85 326.71,261.93" fill="#626867" /><polygon points="93.29,261.93 93.29,262.10 94.01,260.70" fill="#777f7d" /><polygon points="116.34,261.93 116.34,262.10 117.07,260.70" fill="#777f7d" /><polygon points="139.40,261.93 139.40,262.10 140.12,260.70" fill="#777f7d" /><polygon points="162.45,261.93 162.45,262.10 163.17,260.70" fill="#777f7d" /><polygon points="185.51,261.93 185.51,262.10 186.23,260.70" fill="#777f7d" /><polygon points="208.56,261.93 208.56,262.10 209.28,260.70" fill="#777f7d" /><polygon points="231.61,261.93 231.61,262.10 232.33,260.70" fill="#777f7d" /><polygon points="254.67,261.93 254.67,262.10 255.39,260.70" fill="#777f7d" /><polygon points="277.72,261.93 277.72,262.10 278.44,260.70" fill="#777f7d" /><polygon points="300.77,261.93 300.77,262.10 301.49,260.70" fill="#777f7d" /><polygon points="323.83,261.93 323.83,262.10 324.55,260.70" fill="#777f7d" /><polygon points="94.01,260.70 94.01,260.85 95.45,260.70" fill="#737b79" /><polygon points="117.07,260.70 117.07,260.85 118.51,260.70" fill="#737b79" /><polygon points="140.12,260.70 140.12,260.85 141.56,260.70" fill="#737b79" /><polygon points="163.17,260.70 163.17,260.85 164.61,260.70" fill="#737b79" /><polygon points="186.23,260.70 186.23,260.85 187.67,260.70" fill="#737b79" /><polygon points="209.28,260.70 209.28,260.85 210.72,260.70" fill="#737b79" /><polygon points="232.33,260.70 232.33,260.85 233.77,260.70" fill="#737b79" /><polygon points="255.39,260.70 255.39,260.85 256.83,260.70" fill="#737b79" /><polygon points="278.44,260.70 278.44,260.85 279.88,260.70" fill="#737b79" /><polygon points="301.49,260.70 301.49,260.85 302.93,260.70" fill="#737b79" /><polygon points="324.55,260.70 324.55,260.85 325.99,260.70" fill="#737b79" /><polygon points="298.26,251.42 299.07,254.44 301.69,262.39" fill="#696f6e" /><polygon points="120.93,254.44 121.74,251.42 119.12,259.38" fill="#747b7a" /><polygon points="112.66,246.19 110.45,248.40 107.83,256.35" fill="#787f7d" /><polygon points="299.07,248.41 298.26,251.42 300.88,259.38" fill="#727978" /><polygon points="309.55,248.40 307.34,246.19 309.96,254.14" fill="#606765" /><polygon points="121.74,251.42 120.93,248.41 118.31,256.36" fill="#6a7170" /><polygon points="115.69,245.38 112.66,246.19 110.04,254.14" fill="#757c7a" /><polygon points="301.29,246.19 299.07,248.41 301.69,256.36" fill="#767e7c" /><polygon points="307.34,246.19 304.31,245.38 306.93,253.33" fill="#6c7371" /><polygon points="120.93,248.41 118.71,246.19 116.09,254.15" fill="#5f6564" /><polygon points="118.71,246.19 115.69,245.38 113.07,253.33" fill="#6c7371" /><polygon points="304.31,245.38 301.29,246.19 303.91,254.15" fill="#747c7a" /><polygon points="95.45,260.85 96.17,262.10 96.17,261.93" fill="#626867" /><polygon points="118.51,260.85 119.23,262.10 119.23,261.93" fill="#626867" /><polygon points="141.56,260.85 142.28,262.10 142.28,261.93" fill="#626867" /><polygon points="164.61,260.85 165.33,262.10 165.33,261.93" fill="#626867" /><polygon points="187.67,260.85 188.39,262.10 188.39,261.93" fill="#626867" /><polygon points="210.72,260.85 211.44,262.10 211.44,261.93" fill="#626867" /><polygon points="233.77,260.85 234.49,262.10 234.49,261.93" fill="#626867" /><polygon points="256.83,260.85 257.55,262.10 257.55,261.93" fill="#626867" /><polygon points="279.88,260.85 280.60,262.10 280.60,261.93" fill="#626867" /><polygon points="302.93,260.85 303.66,262.10 303.66,261.93" fill="#626867" /><polygon points="325.99,260.85 326.71,262.10 326.71,261.93" fill="#626867" /><polygon points="94.01,260.85 95.45,260.85 95.45,260.70" fill="#737b79" /><polygon points="117.07,260.85 118.51,260.85 118.51,260.70" fill="#737b79" /><polygon points="140.12,260.85 141.56,260.85 141.56,260.70" fill="#737b79" /><polygon points="163.17,260.85 164.61,260.85 164.61,260.70" fill="#737b79" /><polygon points="186.23,260.85 187.67,260.85 187.67,260.70" fill="#737b79" /><polygon points="209.28,260.85 210.72,260.85 210.72,260.70" fill="#737b79" /><polygon points="232.33,260.85 233.77,260.85 233.77,260.70" fill="#737b79" /><polygon points="255.39,260.85 256.83,260.85 256.83,260.70" fill="#737b79" /><polygon points="278.44,260.85 279.88,260.85 279.88,260.70" fill="#737b79" /><polygon points="301.49,260.85 302.93,260.85 302.93,260.70" fill="#737b79" /><polygon points="324.55,260.85 325.99,260.85 325.99,260.70" fill="#737b79" /><polygon points="93.29,262.10 94.01,260.85 94.01,260.70" fill="#777f7d" /><polygon points="116.34,262.10 117.07,260.85 117.07,260.70" fill="#777f7d" /><polygon points="139.40,262.10 140.12,260.85 140.12,260.70" fill="#777f7d" /><polygon points="162.45,262.10 163.17,260.85 163.17,260.70" fill="#777f7d" /><polygon points="185.51,262.10 186.23,260.85 186.23,260.70" fill="#777f7d" /><polygon points="208.56,262.10 209.28,260.85 209.28,260.70" fill="#777f7d" /><polygon points="231.61,262.10 232.33,260.85 232.33,260.70" fill="#777f7d" /><polygon points="254.67,262.10 255.39,260.85 255.39,260.70" fill="#777f7d" /><polygon points="277.72,262.10 278.44,260.85 278.44,260.70" fill="#777f7d" /><polygon points="300.77,262.10 301.49,260.85 301.49,260.70" fill="#777f7d" /><polygon points="323.83,262.10 324.55,260.85 324.55,260.70" fill="#777f7d" /><polygon points="86.87,96.22 90.11,95.35 86.87,89.74" fill="#848c8a" /><polygon points="90.11,95.35 92.49,92.98 86.87,89.74" fill="#848c8a" /><polygon points="92.49,92.98 93.36,89.74 86.87,89.74" fill="#848c8a" /><polygon points="93.36,89.74 92.49,86.49 86.87,89.74" fill="#848c8a" /><polygon points="92.49,86.49 90.11,84.12 86.87,89.74" fill="#848c8a" /><polygon points="90.11,84.12 86.87,83.25 86.87,89.74" fill="#848c8a" /><polygon points="86.87,83.25 83.63,84.12 86.87,89.74" fill="#848c8a" /><polygon points="83.63,84.12 81.26,86.49 86.87,89.74" fill="#848c8a" /><polygon points="81.26,86.49 80.39,89.74 86.87,89.74" fill="#848c8a" /><polygon points="80.39,89.74 81.26,92.98 86.87,89.74" fill="#848c8a" /><polygon points="81.26,92.98 83.63,95.35 86.87,89.74" fill="#848c8a" /><polygon points="83.63,95.35 86.87,96.22 86.87,89.74" fill="#848c8a" /><polygon points="333.13,96.22 336.37,95.35 333.13,89.74" fill="#848c8a" /><polygon points="336.37,95.35 338.74,92.98 333.13,89.74" fill="#848c8a" /><polygon points="338.74,92.98 339.61,89.74 333.13,89.74" fill="#848c8a" /><polygon points="339.61,89.74 338.74,86.49 333.13,89.74" fill="#848c8a" /><polygon points="338.74,86.49 336.37,84.12 333.13,89.74" fill="#848c8a" /><polygon points="336.37,84.12 333.13,83.25 333.13,89.74" fill="#848c8a" /><polygon points="333.13,83.25 329.89,84.12 333.13,89.74" fill="#848c8a" /><polygon points="329.89,84.12 327.51,86.49 333.13,89.74" fill="#848c8a" /><polygon points="327.51,86.49 326.64,89.74 333.13,89.74" fill="#848c8a" /><polygon points="326.64,89.74 327.51,92.98 333.13,89.74" fill="#848c8a" /><polygon points="327.51,92.98 329.89,95.35 333.13,89.74" fill="#848c8a" /><polygon points="329.89,95.35 333.13,96.22 333.13,89.74" fill="#848c8a" /><polygon points="80.01,89.74 78.95,89.74 78.95,235.52" fill="#656b6a" /><polygon points="326.26,89.74 325.20,89.74 325.20,235.52" fill="#656b6a" /><polygon points="94.80,235.52 94.80,89.74 93.74,235.52" fill="#787f7e" /><polygon points="341.05,235.52 341.05,89.74 339.99,235.52" fill="#787f7e" /><polygon points="94.80,89.74 93.74,89.74 93.74,235.52" fill="#787f7e" /><polygon points="80.01,235.52 80.01,89.74 78.95,235.52" fill="#656b6a" /><polygon points="341.05,89.74 339.99,89.74 339.99,235.52" fill="#787f7e" /><polygon points="326.26,235.52 326.26,89.74 325.20,235.52" fill="#656b6a" /><polygon points="96.17,262.10 96.17,259.88 95.45,263.34" fill="#79807f" /><polygon points="119.23,262.10 119.23,259.88 118.51,263.34" fill="#79807f" /><polygon points="142.28,262.10 142.28,259.88 141.56,263.34" fill="#79807f" /><polygon points="165.33,262.10 165.33,259.88 164.61,263.34" fill="#79807f" /><polygon points="188.39,262.10 188.39,259.88 187.67,263.34" fill="#79807f" /><polygon points="211.44,262.10 211.44,259.88 210.72,263.34" fill="#79807f" /><polygon points="234.49,262.10 234.49,259.88 233.77,263.34" fill="#79807f" /><polygon points="257.55,262.10 257.55,259.88 256.83,263.34" fill="#79807f" /><polygon points="280.60,262.10 280.60,259.88 279.88,263.34" fill="#79807f" /><polygon points="303.66,262.10 303.66,259.88 302.93,263.34" fill="#79807f" /><polygon points="326.71,262.10 326.71,259.88 325.99,263.34" fill="#79807f" /><polygon points="94.01,263.34 94.01,261.12 93.29,262.10" fill="#616765" /><polygon points="117.07,263.34 117.07,261.12 116.34,262.10" fill="#616765" /><polygon points="140.12,263.34 140.12,261.12 139.40,262.10" fill="#616765" /><polygon points="163.17,263.34 163.17,261.12 162.45,262.10" fill="#616765" /><polygon points="186.23,263.34 186.23,261.12 185.51,262.10" fill="#616765" /><polygon points="209.28,263.34 209.28,261.12 208.56,262.10" fill="#616765" /><polygon points="232.33,263.34 232.33,261.12 231.61,262.10" fill="#616765" /><polygon points="255.39,263.34 255.39,261.12 254.67,262.10" fill="#616765" /><polygon points="278.44,263.34 278.44,261.12 277.72,262.10" fill="#616765" /><polygon points="301.49,263.34 301.49,261.12 300.77,262.10" fill="#616765" /><polygon points="324.55,263.34 324.55,261.12 323.83,262.10" fill="#616765" /><polygon points="95.45,263.34 95.45,261.12 94.01,263.34" fill="#777e7c" /><polygon points="118.51,263.34 118.51,261.12 117.07,263.34" fill="#777e7c" /><polygon points="141.56,263.34 141.56,261.12 140.12,263.34" fill="#777e7c" /><polygon points="164.61,263.34 164.61,261.12 163.17,263.34" fill="#777e7c" /><polygon points="187.67,263.34 187.67,261.12 186.23,263.34" fill="#777e7c" /><polygon points="210.72,263.34 210.72,261.12 209.28,263.34" fill="#777e7c" /><polygon points="233.77,263.34 233.77,261.12 232.33,263.34" fill="#777e7c" /><polygon points="256.83,263.34 256.83,261.12 255.39,263.34" fill="#777e7c" /><polygon points="279.88,263.34 279.88,261.12 278.44,263.34" fill="#777e7c" /><polygon points="302.93,263.34 302.93,261.12 301.49,263.34" fill="#777e7c" /><polygon points="325.99,263.34 325.99,261.12 324.55,263.34" fill="#777e7c" /><polygon points="93.74,235.52 93.74,89.74 90.84,235.52" fill="#848d8b" /><polygon points="82.91,89.74 80.01,89.74 80.01,235.52" fill="#6d7473" /><polygon points="339.99,235.52 339.99,89.74 337.09,235.52" fill="#848d8b" /><polygon points="329.16,89.74 326.26,89.74 326.26,235.52" fill="#6d7473" /><polygon points="93.74,89.74 90.84,89.74 90.84,235.52" fill="#848d8b" /><polygon points="339.99,89.74 337.09,89.74 337.09,235.52" fill="#848d8b" /><polygon points="82.91,235.52 82.91,89.74 80.01,235.52" fill="#6d7473" /><polygon points="329.16,235.52 329.16,89.74 326.26,235.52" fill="#6d7473" /><polygon points="90.84,235.52 90.84,89.74 86.87,235.52" fill="#878f8d" /><polygon points="86.87,89.74 82.91,89.74 82.91,235.52" fill="#7e8684" /><polygon points="337.09,235.52 337.09,89.74 333.13,235.52" fill="#878f8d" /><polygon points="333.13,89.74 329.16,89.74 329.16,235.52" fill="#7e8684" /><polygon points="90.84,89.74 86.87,89.74 86.87,235.52" fill="#878f8d" /><polygon points="86.87,235.52 86.87,89.74 82.91,235.52" fill="#7e8684" /><polygon points="337.09,89.74 333.13,89.74 333.13,235.52" fill="#878f8d" /><polygon points="333.13,235.52 333.13,89.74 329.16,235.52" fill="#7e8684" /><polygon points="94.01,261.12 93.29,259.88 93.29,262.10" fill="#616765" /><polygon points="117.07,261.12 116.34,259.88 116.34,262.10" fill="#616765" /><polygon points="140.12,261.12 139.40,259.88 139.40,262.10" fill="#616765" /><polygon points="163.17,261.12 162.45,259.88 162.45,262.10" fill="#616765" /><polygon points="186.23,261.12 185.51,259.88 185.51,262.10" fill="#616765" /><polygon points="209.28,261.12 208.56,259.88 208.56,262.10" fill="#616765" /><polygon points="232.33,261.12 231.61,259.88 231.61,262.10" fill="#616765" /><polygon points="255.39,261.12 254.67,259.88 254.67,262.10" fill="#616765" /><polygon points="278.44,261.12 277.72,259.88 277.72,262.10" fill="#616765" /><polygon points="301.49,261.12 300.77,259.88 300.77,262.10" fill="#616765" /><polygon points="324.55,261.12 323.83,259.88 323.83,262.10" fill="#616765" /><polygon points="96.17,259.88 95.45,261.12 95.45,263.34" fill="#79807f" /><polygon points="119.23,259.88 118.51,261.12 118.51,263.34" fill="#79807f" /><polygon points="142.28,259.88 141.56,261.12 141.56,263.34" fill="#79807f" /><polygon points="165.33,259.88 164.61,261.12 164.61,263.34" fill="#79807f" /><polygon points="188.39,259.88 187.67,261.12 187.67,263.34" fill="#79807f" /><polygon points="211.44,259.88 210.72,261.12 210.72,263.34" fill="#79807f" /><polygon points="234.49,259.88 233.77,261.12 233.77,263.34" fill="#79807f" /><polygon points="257.55,259.88 256.83,261.12 256.83,263.34" fill="#79807f" /><polygon points="280.60,259.88 279.88,261.12 279.88,263.34" fill="#79807f" /><polygon points="303.66,259.88 302.93,261.12 302.93,263.34" fill="#79807f" /><polygon points="326.71,259.88 325.99,261.12 325.99,263.34" fill="#79807f" /><polygon points="95.45,261.12 94.01,261.12 94.01,263.34" fill="#777e7c" /><polygon points="118.51,261.12 117.07,261.12 117.07,263.34" fill="#777e7c" /><polygon points="141.56,261.12 140.12,261.12 140.12,263.34" fill="#777e7c" /><polygon points="164.61,261.12 163.17,261.12 163.17,263.34" fill="#777e7c" /><polygon points="187.67,261.12 186.23,261.12 186.23,263.34" fill="#777e7c" /><polygon points="210.72,261.12 209.28,261.12 209.28,263.34" fill="#777e7c" /><polygon points="233.77,261.12 232.33,261.12 232.33,263.34" fill="#777e7c" /><polygon points="256.83,261.12 255.39,261.12 255.39,263.34" fill="#777e7c" /><polygon points="279.88,261.12 278.44,261.12 278.44,263.34" fill="#777e7c" /><polygon points="302.93,261.12 301.49,261.12 301.49,263.34" fill="#777e7c" /><polygon points="325.99,261.12 324.55,261.12 324.55,263.34" fill="#777e7c" /><polygon points="94.73,270.70 325.27,270.70 325.27,265.72" fill="#767e7c" /><polygon points="118.31,262.39 120.93,254.44 119.12,259.38" fill="#747b7a" /><polygon points="300.88,259.38 298.26,251.42 301.69,262.39" fill="#696f6e" /><polygon points="312.17,256.35 309.55,248.40 309.96,254.14" fill="#606765" /><polygon points="119.12,259.38 121.74,251.42 118.31,256.36" fill="#6a7170" /><polygon points="110.04,254.14 112.66,246.19 107.83,256.35" fill="#787f7d" /><polygon points="301.69,256.36 299.07,248.41 300.88,259.38" fill="#727978" /><polygon points="309.96,254.14 307.34,246.19 306.93,253.33" fill="#6c7371" /><polygon points="118.31,256.36 120.93,248.41 116.09,254.15" fill="#5f6564" /><polygon points="113.07,253.33 115.69,245.38 110.04,254.14" fill="#757c7a" /><polygon points="303.91,254.15 301.29,246.19 301.69,256.36" fill="#767e7c" /><polygon points="306.93,253.33 304.31,245.38 303.91,254.15" fill="#747c7a" /><polygon points="116.09,254.15 118.71,246.19 113.07,253.33" fill="#6c7371" /><polygon points="94.01,261.12 94.01,260.62 93.29,259.88" fill="#626867" /><polygon points="117.07,261.12 117.07,260.62 116.34,259.88" fill="#626867" /><polygon points="140.12,261.12 140.12,260.62 139.40,259.88" fill="#626867" /><polygon points="163.17,261.12 163.17,260.62 162.45,259.88" fill="#626867" /><polygon points="186.23,261.12 186.23,260.62 185.51,259.88" fill="#626867" /><polygon points="209.28,261.12 209.28,260.62 208.56,259.88" fill="#626867" /><polygon points="232.33,261.12 232.33,260.62 231.61,259.88" fill="#626867" /><polygon points="255.39,261.12 255.39,260.62 254.67,259.88" fill="#626867" /><polygon points="278.44,261.12 278.44,260.62 277.72,259.88" fill="#626867" /><polygon points="301.49,261.12 301.49,260.62 300.77,259.88" fill="#626867" /><polygon points="324.55,261.12 324.55,260.62 323.83,259.88" fill="#626867" /><polygon points="96.17,259.88 96.17,259.37 95.45,261.12" fill="#777f7d" /><polygon points="119.23,259.88 119.23,259.37 118.51,261.12" fill="#777f7d" /><polygon points="142.28,259.88 142.28,259.37 141.56,261.12" fill="#777f7d" /><polygon points="165.33,259.88 165.33,259.37 164.61,261.12" fill="#777f7d" /><polygon points="188.39,259.88 188.39,259.37 187.67,261.12" fill="#777f7d" /><polygon points="211.44,259.88 211.44,259.37 210.72,261.12" fill="#777f7d" /><polygon points="234.49,259.88 234.49,259.37 233.77,261.12" fill="#777f7d" /><polygon points="257.55,259.88 257.55,259.37 256.83,261.12" fill="#777f7d" /><polygon points="280.60,259.88 280.60,259.37 279.88,261.12" fill="#777f7d" /><polygon points="303.66,259.88 303.66,259.37 302.93,261.12" fill="#777f7d" /><polygon points="326.71,259.88 326.71,259.37 325.99,261.12" fill="#777f7d" /><polygon points="95.45,261.12 95.45,260.62 94.01,261.12" fill="#747c7a" /><polygon points="118.51,261.12 118.51,260.62 117.07,261.12" fill="#747c7a" /><polygon points="141.56,261.12 141.56,260.62 140.12,261.12" fill="#747c7a" /><polygon points="164.61,261.12 164.61,260.62 163.17,261.12" fill="#747c7a" /><polygon points="187.67,261.12 187.67,260.62 186.23,261.12" fill="#747c7a" /><polygon points="210.72,261.12 210.72,260.62 209.28,261.12" fill="#747c7a" /><polygon points="233.77,261.12 233.77,260.62 232.33,261.12" fill="#747c7a" /><polygon points="256.83,261.12 256.83,260.62 255.39,261.12" fill="#747c7a" /><polygon points="279.88,261.12 279.88,260.62 278.44,261.12" fill="#747c7a" /><polygon points="302.93,261.12 302.93,260.62 301.49,261.12" fill="#747c7a" /><polygon points="325.99,261.12 325.99,260.62 324.55,261.12" fill="#747c7a" /><polygon points="94.01,260.62 93.29,259.37 93.29,259.88" fill="#626867" /><polygon points="117.07,260.62 116.34,259.37 116.34,259.88" fill="#626867" /><polygon points="140.12,260.62 139.40,259.37 139.40,259.88" fill="#626867" /><polygon points="163.17,260.62 162.45,259.37 162.45,259.88" fill="#626867" /><polygon points="186.23,260.62 185.51,259.37 185.51,259.88" fill="#626867" /><polygon points="209.28,260.62 208.56,259.37 208.56,259.88" fill="#626867" /><polygon points="232.33,260.62 231.61,259.37 231.61,259.88" fill="#626867" /><polygon points="255.39,260.62 254.67,259.37 254.67,259.88" fill="#626867" /><polygon points="278.44,260.62 277.72,259.37 277.72,259.88" fill="#626867" /><polygon points="301.49,260.62 300.77,259.37 300.77,259.88" fill="#626867" /><polygon points="324.55,260.62 323.83,259.37 323.83,259.88" fill="#626867" /><polygon points="95.45,260.62 94.01,260.62 94.01,261.12" fill="#747c7a" /><polygon points="118.51,260.62 117.07,260.62 117.07,261.12" fill="#747c7a" /><polygon points="141.56,260.62 140.12,260.62 140.12,261.12" fill="#747c7a" /><polygon points="164.61,260.62 163.17,260.62 163.17,261.12" fill="#747c7a" /><polygon points="187.67,260.62 186.23,260.62 186.23,261.12" fill="#747c7a" /><polygon points="210.72,260.62 209.28,260.62 209.28,261.12" fill="#747c7a" /><polygon points="233.77,260.62 232.33,260.62 232.33,261.12" fill="#747c7a" /><polygon points="256.83,260.62 255.39,260.62 255.39,261.12" fill="#747c7a" /><polygon points="279.88,260.62 278.44,260.62 278.44,261.12" fill="#747c7a" /><polygon points="302.93,260.62 301.49,260.62 301.49,261.12" fill="#747c7a" /><polygon points="325.99,260.62 324.55,260.62 324.55,261.12" fill="#747c7a" /><polygon points="96.17,259.37 95.45,260.62 95.45,261.12" fill="#777f7d" /><polygon points="119.23,259.37 118.51,260.62 118.51,261.12" fill="#777f7d" /><polygon points="142.28,259.37 141.56,260.62 141.56,261.12" fill="#777f7d" /><polygon points="165.33,259.37 164.61,260.62 164.61,261.12" fill="#777f7d" /><polygon points="188.39,259.37 187.67,260.62 187.67,261.12" fill="#777f7d" /><polygon points="211.44,259.37 210.72,260.62 210.72,261.12" fill="#777f7d" /><polygon points="234.49,259.37 233.77,260.62 233.77,261.12" fill="#777f7d" /><polygon points="257.55,259.37 256.83,260.62 256.83,261.12" fill="#777f7d" /><polygon points="280.60,259.37 279.88,260.62 279.88,261.12" fill="#777f7d" /><polygon points="303.66,259.37 302.93,260.62 302.93,261.12" fill="#777f7d" /><polygon points="326.71,259.37 325.99,260.62 325.99,261.12" fill="#777f7d" /><polygon points="94.73,265.72 94.73,270.70 325.27,265.72" fill="#767e7c" /><polygon points="110.05,264.60 113.08,265.41 113.07,259.37" fill="#858d8b" /><polygon points="306.92,265.41 309.95,264.60 306.93,259.37" fill="#858e8c" /><polygon points="107.83,262.39 110.05,264.60 113.07,259.37" fill="#858d8b" /><polygon points="309.95,264.60 312.17,262.39 306.93,259.37" fill="#858e8c" /><polygon points="113.08,265.41 116.10,264.60 113.07,259.37" fill="#858d8b" /><polygon points="303.90,264.60 306.92,265.41 306.93,259.37" fill="#858e8c" /><polygon points="107.02,259.37 107.83,262.39 113.07,259.37" fill="#858d8b" /><polygon points="312.17,262.39 312.98,259.37 306.93,259.37" fill="#858e8c" /><polygon points="116.10,264.60 118.31,262.39 113.07,259.37" fill="#858d8b" /><polygon points="301.69,262.39 303.90,264.60 306.93,259.37" fill="#858e8c" /><polygon points="107.83,256.35 107.02,259.37 113.07,259.37" fill="#858d8b" /><polygon points="312.98,259.37 312.17,256.35 306.93,259.37" fill="#858e8c" /><polygon points="118.31,262.39 119.12,259.38 113.07,259.37" fill="#858d8b" /><polygon points="300.88,259.38 301.69,262.39 306.93,259.37" fill="#858e8c" /><polygon points="110.04,254.14 107.83,256.35 113.07,259.37" fill="#858d8b" /><polygon points="312.17,256.35 309.96,254.14 306.93,259.37" fill="#858e8c" /><polygon points="119.12,259.38 118.31,256.36 113.07,259.37" fill="#858d8b" /><polygon points="301.69,256.36 300.88,259.38 306.93,259.37" fill="#858e8c" /><polygon points="113.07,253.33 110.04,254.14 113.07,259.37" fill="#858d8b" /><polygon points="309.96,254.14 306.93,253.33 306.93,259.37" fill="#858e8c" /><polygon points="118.31,256.36 116.09,254.15 113.07,259.37" fill="#858d8b" /><polygon points="303.91,254.15 301.69,256.36 306.93,259.37" fill="#858e8c" /><polygon points="116.09,254.15 113.07,253.33 113.07,259.37" fill="#858d8b" /><polygon points="306.93,253.33 303.91,254.15 306.93,259.37" fill="#858e8c" /><polygon points="94.73,242.74 94.73,265.72 325.27,242.74" fill="#828a88" /><polygon points="94.73,265.72 325.27,265.72 325.27,242.74" fill="#828a88" /><path d="M45 283h330M32 38v231" fill="none" stroke="#7d8779" stroke-width=".65"/><text x="210" y="301" text-anchor="middle" font-family="Arial" font-size="10" fill="#647060">850 mm</text><text x="21" y="164" text-anchor="middle" transform="rotate(-90 21 164)" font-family="Arial" font-size="10" fill="#647060">860 mm</text></svg>