<svg xmlns="http://www.w3.org/2000/svg" viewBox="0 0 420 330" role="img" aria-label="A.B.C. — top di studio"><title>A.B.C. — geometria di studio</title><rect width="420" height="330" fill="#e9e9df"/><ellipse cx="210" cy="272" rx="86.32098765432099" ry="10" fill="#667455" opacity=".10"/><polygon points="108.76,57.48 119.98,69.44 106.60,55.03" fill="#606765" /><polygon points="311.24,254.52 300.02,242.56 313.40,256.97" fill="#606665" /><polygon points="313.40,55.03 302.17,66.99 311.24,57.48" fill="#79817f" /><polygon points="106.60,256.97 117.83,245.01 108.76,254.52" fill="#78807e" /><polygon points="303.84,46.60 292.62,58.56 306.99,45.60" fill="#727a78" /><polygon points="116.16,265.40 127.38,253.44 113.01,266.40" fill="#7d8483" /><polygon points="106.60,55.03 117.83,66.99 106.02,51.77" fill="#646a69" /><polygon points="313.40,256.97 302.17,245.01 313.98,260.23" fill="#6f7775" /><polygon points="113.01,45.60 124.23,57.56 116.16,46.60" fill="#676e6d" /><polygon points="306.99,266.40 295.77,254.44 303.84,265.40" fill="#727977" /><polygon points="313.98,51.77 302.76,63.73 313.40,55.03" fill="#78807e" /><polygon points="106.02,260.23 117.24,248.27 106.60,256.97" fill="#6d7472" /><polygon points="306.99,45.60 295.77,57.56 310.28,46.33" fill="#666d6c" /><polygon points="113.01,266.40 124.23,254.44 109.72,265.67" fill="#79817f" /><polygon points="106.02,51.77 117.24,63.73 107.16,48.59" fill="#6a716f" /><polygon points="313.98,260.23 302.76,248.27 312.84,263.41" fill="#7d8583" /><polygon points="109.72,46.33 120.94,58.29 113.01,45.60" fill="#6c7371" /><polygon points="310.28,265.67 299.06,253.71 306.99,266.40" fill="#7e8685" /><polygon points="312.84,48.59 301.62,60.55 313.98,51.77" fill="#717876" /><polygon points="107.16,263.41 118.38,251.45 106.02,260.23" fill="#5f6564" /><polygon points="310.28,46.33 299.06,58.29 312.84,48.59" fill="#646b69" /><polygon points="109.72,265.67 120.94,253.71 107.16,263.41" fill="#6e7574" /><polygon points="107.16,48.59 118.38,60.55 109.72,46.33" fill="#6d7472" /><polygon points="312.84,263.41 301.62,251.45 310.28,265.67" fill="#838b89" /><polygon points="302.17,66.99 300.02,69.44 311.24,57.48" fill="#79817f" /><polygon points="117.83,245.01 119.98,242.56 108.76,254.52" fill="#78807e" /><polygon points="119.98,69.44 117.83,66.99 106.60,55.03" fill="#606765" /><polygon points="300.02,242.56 302.17,245.01 313.40,256.97" fill="#606665" /><polygon points="124.23,57.56 127.38,58.56 116.16,46.60" fill="#676e6d" /><polygon points="295.77,254.44 292.62,253.44 303.84,265.40" fill="#727977" /><polygon points="302.76,63.73 302.17,66.99 313.40,55.03" fill="#78807e" /><polygon points="117.24,248.27 117.83,245.01 106.60,256.97" fill="#6d7472" /><polygon points="292.62,58.56 295.77,57.56 306.99,45.60" fill="#727a78" /><polygon points="127.38,253.44 124.23,254.44 113.01,266.40" fill="#7d8483" /><polygon points="117.83,66.99 117.24,63.73 106.02,51.77" fill="#646a69" /><polygon points="302.17,245.01 302.76,248.27 313.98,260.23" fill="#6f7775" /><polygon points="120.94,58.29 124.23,57.56 113.01,45.60" fill="#6c7371" /><polygon points="299.06,253.71 295.77,254.44 306.99,266.40" fill="#7e8685" /><polygon points="301.62,60.55 302.76,63.73 313.98,51.77" fill="#717876" /><polygon points="118.38,251.45 117.24,248.27 106.02,260.23" fill="#5f6564" /><polygon points="295.77,57.56 299.06,58.29 310.28,46.33" fill="#666d6c" /><polygon points="124.23,254.44 120.94,253.71 109.72,265.67" fill="#79817f" /><polygon points="117.24,63.73 118.38,60.55 107.16,48.59" fill="#6a716f" /><polygon points="302.76,248.27 301.62,251.45 312.84,263.41" fill="#7d8583" /><polygon points="118.38,60.55 120.94,58.29 109.72,46.33" fill="#6d7472" /><polygon points="301.62,251.45 299.06,253.71 310.28,265.67" fill="#838b89" /><polygon points="299.06,58.29 301.62,60.55 312.84,48.59" fill="#646b69" /><polygon points="120.94,253.71 118.38,251.45 107.16,263.41" fill="#6e7574" /><polygon points="126.42,69.71 128.98,67.45 123.68,64.00" fill="#8a9391" /><polygon points="291.02,67.45 293.58,69.71 296.32,64.00" fill="#838c8a" /><polygon points="128.98,244.55 126.42,242.29 123.68,248.00" fill="#818987" /><polygon points="293.58,242.29 291.02,244.55 296.32,248.00" fill="#7a8281" /><polygon points="128.98,67.45 130.12,64.27 123.68,64.00" fill="#8a9391" /><polygon points="289.88,64.27 291.02,67.45 296.32,64.00" fill="#838c8a" /><polygon points="130.12,247.73 128.98,244.55 123.68,248.00" fill="#818987" /><polygon points="291.02,244.55 289.88,247.73 296.32,248.00" fill="#7a8281" /><polygon points="123.13,70.44 126.42,69.71 123.68,64.00" fill="#8a9391" /><polygon points="293.58,69.71 296.87,70.44 296.32,64.00" fill="#838c8a" /><polygon points="126.42,242.29 123.13,241.56 123.68,248.00" fill="#818987" /><polygon points="296.87,241.56 293.58,242.29 296.32,248.00" fill="#7a8281" /><polygon points="130.12,64.27 129.53,61.01 123.68,64.00" fill="#8a9391" /><polygon points="290.47,61.01 289.88,64.27 296.32,64.00" fill="#838c8a" /><polygon points="129.53,250.99 130.12,247.73 123.68,248.00" fill="#818987" /><polygon points="289.88,247.73 290.47,250.99 296.32,248.00" fill="#7a8281" /><polygon points="119.98,69.44 123.13,70.44 123.68,64.00" fill="#8a9391" /><polygon points="296.87,70.44 300.02,69.44 296.32,64.00" fill="#838c8a" /><polygon points="123.13,241.56 119.98,242.56 123.68,248.00" fill="#818987" /><polygon points="300.02,242.56 296.87,241.56 296.32,248.00" fill="#7a8281" /><polygon points="129.53,61.01 127.38,58.56 123.68,64.00" fill="#8a9391" /><polygon points="292.62,58.56 290.47,61.01 296.32,64.00" fill="#838c8a" /><polygon points="127.38,253.44 129.53,250.99 123.68,248.00" fill="#818987" /><polygon points="290.47,250.99 292.62,253.44 296.32,248.00" fill="#7a8281" /><polygon points="117.83,66.99 119.98,69.44 123.68,64.00" fill="#8a9391" /><polygon points="300.02,69.44 302.17,66.99 296.32,64.00" fill="#838c8a" /><polygon points="119.98,242.56 117.83,245.01 123.68,248.00" fill="#818987" /><polygon points="302.17,245.01 300.02,242.56 296.32,248.00" fill="#7a8281" /><polygon points="127.38,58.56 124.23,57.56 123.68,64.00" fill="#8a9391" /><polygon points="295.77,57.56 292.62,58.56 296.32,64.00" fill="#838c8a" /><polygon points="124.23,254.44 127.38,253.44 123.68,248.00" fill="#818987" /><polygon points="292.62,253.44 295.77,254.44 296.32,248.00" fill="#7a8281" /><polygon points="117.24,63.73 117.83,66.99 123.68,64.00" fill="#8a9391" /><polygon points="302.17,66.99 302.76,63.73 296.32,64.00" fill="#838c8a" /><polygon points="117.83,245.01 117.24,248.27 123.68,248.00" fill="#818987" /><polygon points="302.76,248.27 302.17,245.01 296.32,248.00" fill="#7a8281" /><polygon points="124.23,57.56 120.94,58.29 123.68,64.00" fill="#8a9391" /><polygon points="299.06,58.29 295.77,57.56 296.32,64.00" fill="#838c8a" /><polygon points="120.94,253.71 124.23,254.44 123.68,248.00" fill="#818987" /><polygon points="295.77,254.44 299.06,253.71 296.32,248.00" fill="#7a8281" /><polygon points="118.38,60.55 117.24,63.73 123.68,64.00" fill="#8a9391" /><polygon points="302.76,63.73 301.62,60.55 296.32,64.00" fill="#838c8a" /><polygon points="117.24,248.27 118.38,251.45 123.68,248.00" fill="#818987" /><polygon points="301.62,251.45 302.76,248.27 296.32,248.00" fill="#7a8281" /><polygon points="120.94,58.29 118.38,60.55 123.68,64.00" fill="#8a9391" /><polygon points="301.62,60.55 299.06,58.29 296.32,64.00" fill="#838c8a" /><polygon points="118.38,251.45 120.94,253.71 123.68,248.00" fill="#818987" /><polygon points="299.06,253.71 301.62,251.45 296.32,248.00" fill="#7a8281" /><polygon points="108.09,47.39 108.09,264.61 311.91,47.39" fill="#848c8a" /><polygon points="108.09,264.61 311.91,264.61 311.91,47.39" fill="#848c8a" /><polygon points="132.47,156.00 126.08,156.00 137.32,204.56" fill="#633c2e" /><polygon points="142.85,200.86 137.32,204.56 168.04,240.10" fill="#6f4434" /><polygon points="171.23,233.70 168.04,240.10 210.00,253.11" fill="#7c4c3a" /><polygon points="210.00,245.72 210.00,253.11 251.96,240.10" fill="#84513e" /><polygon points="248.77,233.70 251.96,240.10 282.68,204.56" fill="#84513e" /><polygon points="277.15,200.86 282.68,204.56 293.92,156.00" fill="#7f4e3b" /><polygon points="287.53,156.00 293.92,156.00 282.68,107.44" fill="#774937" /><polygon points="277.15,111.14 282.68,107.44 251.96,71.90" fill="#6c4233" /><polygon points="248.77,78.30 251.96,71.90 210.00,58.89" fill="#613b2d" /><polygon points="210.00,66.28 210.00,58.89 168.04,71.90" fill="#623c2e" /><polygon points="171.23,78.30 168.04,71.90 137.32,107.44" fill="#643d2f" /><polygon points="142.85,111.14 137.32,107.44 126.08,156.00" fill="#603b2d" /><polygon points="142.85,200.86 132.47,156.00 137.32,204.56" fill="#633c2e" /><polygon points="171.23,233.70 142.85,200.86 168.04,240.10" fill="#6f4434" /><polygon points="210.00,245.72 171.23,233.70 210.00,253.11" fill="#7c4c3a" /><polygon points="248.77,233.70 210.00,245.72 251.96,240.10" fill="#84513e" /><polygon points="277.15,200.86 248.77,233.70 282.68,204.56" fill="#84513e" /><polygon points="287.53,156.00 277.15,200.86 293.92,156.00" fill="#7f4e3b" /><polygon points="277.15,111.14 287.53,156.00 282.68,107.44" fill="#774937" /><polygon points="248.77,78.30 277.15,111.14 251.96,71.90" fill="#6c4233" /><polygon points="210.00,66.28 248.77,78.30 210.00,58.89" fill="#613b2d" /><polygon points="171.23,78.30 210.00,66.28 168.04,71.90" fill="#623c2e" /><polygon points="142.85,111.14 171.23,78.30 137.32,107.44" fill="#643d2f" /><polygon points="132.47,156.00 142.85,111.14 126.08,156.00" fill="#603b2d" /><polygon points="150.66,156.00 132.47,156.00 142.85,200.86" fill="#764837" /><polygon points="158.61,190.33 142.85,200.86 171.23,233.70" fill="#7d4d3b" /><polygon points="180.33,215.47 171.23,233.70 210.00,245.72" fill="#84513e" /><polygon points="210.00,224.67 210.00,245.72 248.77,233.70" fill="#895440" /><polygon points="239.67,215.47 248.77,233.70 277.15,200.86" fill="#8a5440" /><polygon points="261.39,190.33 277.15,200.86 287.53,156.00" fill="#87533f" /><polygon points="269.34,156.00 287.53,156.00 277.15,111.14" fill="#824f3d" /><polygon points="261.39,121.67 277.15,111.14 248.77,78.30" fill="#7c4c3a" /><polygon points="239.67,96.53 248.77,78.30 210.00,66.28" fill="#764837" /><polygon points="210.00,87.33 210.00,66.28 171.23,78.30" fill="#714535" /><polygon points="180.33,96.53 171.23,78.30 142.85,111.14" fill="#6f4434" /><polygon points="158.61,121.67 142.85,111.14 132.47,156.00" fill="#714535" /><polygon points="158.61,190.33 150.66,156.00 142.85,200.86" fill="#764837" /><polygon points="180.33,215.47 158.61,190.33 171.23,233.70" fill="#7d4d3b" /><polygon points="210.00,224.67 180.33,215.47 210.00,245.72" fill="#84513e" /><polygon points="239.67,215.47 210.00,224.67 248.77,233.70" fill="#895440" /><polygon points="261.39,190.33 239.67,215.47 277.15,200.86" fill="#8a5440" /><polygon points="269.34,156.00 261.39,190.33 287.53,156.00" fill="#87533f" /><polygon points="261.39,121.67 269.34,156.00 277.15,111.14" fill="#824f3d" /><polygon points="239.67,96.53 261.39,121.67 248.77,78.30" fill="#7c4c3a" /><polygon points="210.00,87.33 239.67,96.53 210.00,66.28" fill="#764837" /><polygon points="180.33,96.53 210.00,87.33 171.23,78.30" fill="#714535" /><polygon points="158.61,121.67 180.33,96.53 142.85,111.14" fill="#6f4434" /><polygon points="150.66,156.00 158.61,121.67 132.47,156.00" fill="#714535" /><polygon points="177.88,156.00 150.66,156.00 158.61,190.33" fill="#7d4d3b" /><polygon points="182.19,174.58 158.61,190.33 180.33,215.47" fill="#814f3c" /><polygon points="193.94,188.18 180.33,215.47 210.00,224.67" fill="#84513e" /><polygon points="210.00,193.16 210.00,224.67 239.67,215.47" fill="#87523f" /><polygon points="226.06,188.18 239.67,215.47 261.39,190.33" fill="#87533f" /><polygon points="237.81,174.58 261.39,190.33 269.34,156.00" fill="#86523f" /><polygon points="242.12,156.00 269.34,156.00 261.39,121.67" fill="#83503d" /><polygon points="237.81,137.42 261.39,121.67 239.67,96.53" fill="#804e3c" /><polygon points="226.06,123.82 239.67,96.53 210.00,87.33" fill="#7d4c3a" /><polygon points="210.00,118.84 210.00,87.33 180.33,96.53" fill="#7b4b39" /><polygon points="193.94,123.82 180.33,96.53 158.61,121.67" fill="#7a4b39" /><polygon points="182.19,137.42 158.61,121.67 150.66,156.00" fill="#7b4b39" /><polygon points="182.19,174.58 177.88,156.00 158.61,190.33" fill="#7d4d3b" /><polygon points="193.94,188.18 182.19,174.58 180.33,215.47" fill="#814f3c" /><polygon points="210.00,193.16 193.94,188.18 210.00,224.67" fill="#84513e" /><polygon points="226.06,188.18 210.00,193.16 239.67,215.47" fill="#87523f" /><polygon points="237.81,174.58 226.06,188.18 261.39,190.33" fill="#87533f" /><polygon points="242.12,156.00 237.81,174.58 269.34,156.00" fill="#86523f" /><polygon points="237.81,137.42 242.12,156.00 261.39,121.67" fill="#83503d" /><polygon points="226.06,123.82 237.81,137.42 239.67,96.53" fill="#804e3c" /><polygon points="210.00,118.84 226.06,123.82 210.00,87.33" fill="#7d4c3a" /><polygon points="193.94,123.82 210.00,118.84 180.33,96.53" fill="#7b4b39" /><polygon points="182.19,137.42 193.94,123.82 158.61,121.67" fill="#7a4b39" /><polygon points="177.88,156.00 182.19,137.42 150.66,156.00" fill="#7b4b39" /><polygon points="91.93,156.00 90.11,156.00 93.32,213.50" fill="#694031" /><polygon points="94.90,209.12 93.32,213.50 102.10,255.59" fill="#653e2f" /><polygon points="103.01,248.01 102.10,255.59 114.09,271.00" fill="#643d2f" /><polygon points="114.09,262.25 114.09,271.00 126.08,255.59" fill="#7d4d3b" /><polygon points="125.16,248.01 126.08,255.59 134.85,213.50" fill="#744736" /><polygon points="133.27,209.12 134.85,213.50 138.07,156.00" fill="#714535" /><polygon points="136.24,156.00 138.07,156.00 134.85,98.50" fill="#6e4434" /><polygon points="133.27,102.88 134.85,98.50 126.08,56.41" fill="#6c4232" /><polygon points="125.16,63.99 126.08,56.41 114.09,41.00" fill="#643d2f" /><polygon points="114.09,49.75 114.09,41.00 102.10,56.41" fill="#6f4434" /><polygon points="103.01,63.99 102.10,56.41 93.32,98.50" fill="#6e4333" /><polygon points="94.90,102.88 93.32,98.50 90.11,156.00" fill="#6c4232" /><polygon points="283.76,156.00 281.93,156.00 285.15,213.50" fill="#694031" /><polygon points="286.73,209.12 285.15,213.50 293.92,255.59" fill="#653e2f" /><polygon points="294.84,248.01 293.92,255.59 305.91,271.00" fill="#643d2f" /><polygon points="305.91,262.25 305.91,271.00 317.90,255.59" fill="#7d4d3b" /><polygon points="316.99,248.01 317.90,255.59 326.68,213.50" fill="#744736" /><polygon points="325.10,209.12 326.68,213.50 329.89,156.00" fill="#714535" /><polygon points="328.07,156.00 329.89,156.00 326.68,98.50" fill="#6e4434" /><polygon points="325.10,102.88 326.68,98.50 317.90,56.41" fill="#6c4232" /><polygon points="316.99,63.99 317.90,56.41 305.91,41.00" fill="#643d2f" /><polygon points="305.91,49.75 305.91,41.00 293.92,56.41" fill="#6f4434" /><polygon points="294.84,63.99 293.92,56.41 285.15,98.50" fill="#6e4333" /><polygon points="286.73,102.88 285.15,98.50 281.93,156.00" fill="#6c4232" /><polygon points="210.00,156.00 177.88,156.00 182.19,174.58" fill="#814f3c" /><polygon points="210.00,156.00 182.19,174.58 193.94,188.18" fill="#824f3d" /><polygon points="210.00,156.00 193.94,188.18 210.00,193.16" fill="#83503d" /><polygon points="210.00,156.00 210.00,193.16 226.06,188.18" fill="#84503e" /><polygon points="210.00,156.00 226.06,188.18 237.81,174.58" fill="#84513e" /><polygon points="210.00,156.00 237.81,174.58 242.12,156.00" fill="#83503d" /><polygon points="210.00,156.00 242.12,156.00 237.81,137.42" fill="#83503d" /><polygon points="210.00,156.00 237.81,137.42 226.06,123.82" fill="#824f3d" /><polygon points="210.00,156.00 226.06,123.82 210.00,118.84" fill="#814f3c" /><polygon points="210.00,156.00 210.00,118.84 193.94,123.82" fill="#804e3c" /><polygon points="210.00,156.00 193.94,123.82 182.19,137.42" fill="#804e3c" /><polygon points="210.00,156.00 182.19,137.42 177.88,156.00" fill="#804e3c" /><polygon points="94.90,209.12 91.93,156.00 93.32,213.50" fill="#694031" /><polygon points="103.01,248.01 94.90,209.12 102.10,255.59" fill="#653e2f" /><polygon points="114.09,262.25 103.01,248.01 114.09,271.00" fill="#643d2f" /><polygon points="125.16,248.01 114.09,262.25 126.08,255.59" fill="#7d4d3b" /><polygon points="133.27,209.12 125.16,248.01 134.85,213.50" fill="#744736" /><polygon points="136.24,156.00 133.27,209.12 138.07,156.00" fill="#714535" /><polygon points="133.27,102.88 136.24,156.00 134.85,98.50" fill="#6e4434" /><polygon points="125.16,63.99 133.27,102.88 126.08,56.41" fill="#6c4232" /><polygon points="114.09,49.75 125.16,63.99 114.09,41.00" fill="#643d2f" /><polygon points="103.01,63.99 114.09,49.75 102.10,56.41" fill="#6f4434" /><polygon points="94.90,102.88 103.01,63.99 93.32,98.50" fill="#6e4333" /><polygon points="91.93,156.00 94.90,102.88 90.11,156.00" fill="#6c4232" /><polygon points="286.73,209.12 283.76,156.00 285.15,213.50" fill="#694031" /><polygon points="294.84,248.01 286.73,209.12 293.92,255.59" fill="#653e2f" /><polygon points="305.91,262.25 294.84,248.01 305.91,271.00" fill="#643d2f" /><polygon points="316.99,248.01 305.91,262.25 317.90,255.59" fill="#7d4d3b" /><polygon points="325.10,209.12 316.99,248.01 326.68,213.50" fill="#744736" /><polygon points="328.07,156.00 325.10,209.12 329.89,156.00" fill="#714535" /><polygon points="325.10,102.88 328.07,156.00 326.68,98.50" fill="#6e4434" /><polygon points="316.99,63.99 325.10,102.88 317.90,56.41" fill="#6c4232" /><polygon points="305.91,49.75 316.99,63.99 305.91,41.00" fill="#643d2f" /><polygon points="294.84,63.99 305.91,49.75 293.92,56.41" fill="#6f4434" /><polygon points="286.73,102.88 294.84,63.99 285.15,98.50" fill="#6e4333" /><polygon points="283.76,156.00 286.73,102.88 281.93,156.00" fill="#6c4232" /><polygon points="97.13,156.00 91.93,156.00 94.90,209.12" fill="#633d2e" /><polygon points="99.40,196.66 94.90,209.12 103.01,248.01" fill="#5d392c" /><polygon points="105.61,226.42 103.01,248.01 114.09,262.25" fill="#724635" /><polygon points="114.09,237.32 114.09,262.25 125.16,248.01" fill="#87523f" /><polygon points="122.57,226.42 125.16,248.01 133.27,209.12" fill="#7b4b3a" /><polygon points="128.77,196.66 133.27,209.12 136.24,156.00" fill="#764837" /><polygon points="131.04,156.00 136.24,156.00 133.27,102.88" fill="#744736" /><polygon points="128.77,115.34 133.27,102.88 125.16,63.99" fill="#734636" /><polygon points="122.57,85.58 125.16,63.99 114.09,49.75" fill="#724635" /><polygon points="114.09,74.68 114.09,49.75 103.01,63.99" fill="#5e392c" /><polygon points="105.61,85.58 103.01,63.99 94.90,102.88" fill="#653e2f" /><polygon points="99.40,115.34 94.90,102.88 91.93,156.00" fill="#663e30" /><polygon points="288.96,156.00 283.76,156.00 286.73,209.12" fill="#633d2e" /><polygon points="291.23,196.66 286.73,209.12 294.84,248.01" fill="#5d392c" /><polygon points="297.43,226.42 294.84,248.01 305.91,262.25" fill="#724635" /><polygon points="305.91,237.32 305.91,262.25 316.99,248.01" fill="#87523f" /><polygon points="314.39,226.42 316.99,248.01 325.10,209.12" fill="#7b4b3a" /><polygon points="320.60,196.66 325.10,209.12 328.07,156.00" fill="#764837" /><polygon points="322.87,156.00 328.07,156.00 325.10,102.88" fill="#744736" /><polygon points="320.60,115.34 325.10,102.88 316.99,63.99" fill="#734636" /><polygon points="314.39,85.58 316.99,63.99 305.91,49.75" fill="#724635" /><polygon points="305.91,74.68 305.91,49.75 294.84,63.99" fill="#5e392c" /><polygon points="297.43,85.58 294.84,63.99 286.73,102.88" fill="#653e2f" /><polygon points="291.23,115.34 286.73,102.88 283.76,156.00" fill="#663e30" /><polygon points="99.40,196.66 97.13,156.00 94.90,209.12" fill="#633d2e" /><polygon points="105.61,226.42 99.40,196.66 103.01,248.01" fill="#5d392c" /><polygon points="114.09,237.32 105.61,226.42 114.09,262.25" fill="#724635" /><polygon points="122.57,226.42 114.09,237.32 125.16,248.01" fill="#87523f" /><polygon points="128.77,196.66 122.57,226.42 133.27,209.12" fill="#7b4b3a" /><polygon points="131.04,156.00 128.77,196.66 136.24,156.00" fill="#764837" /><polygon points="128.77,115.34 131.04,156.00 133.27,102.88" fill="#744736" /><polygon points="122.57,85.58 128.77,115.34 125.16,63.99" fill="#734636" /><polygon points="114.09,74.68 122.57,85.58 114.09,49.75" fill="#724635" /><polygon points="105.61,85.58 114.09,74.68 103.01,63.99" fill="#5e392c" /><polygon points="99.40,115.34 105.61,85.58 94.90,102.88" fill="#653e2f" /><polygon points="97.13,156.00 99.40,115.34 91.93,156.00" fill="#663e30" /><polygon points="291.23,196.66 288.96,156.00 286.73,209.12" fill="#633d2e" /><polygon points="297.43,226.42 291.23,196.66 294.84,248.01" fill="#5d392c" /><polygon points="305.91,237.32 297.43,226.42 305.91,262.25" fill="#724635" /><polygon points="314.39,226.42 305.91,237.32 316.99,248.01" fill="#87523f" /><polygon points="320.60,196.66 314.39,226.42 325.10,209.12" fill="#7b4b3a" /><polygon points="322.87,156.00 320.60,196.66 328.07,156.00" fill="#764837" /><polygon points="320.60,115.34 322.87,156.00 325.10,102.88" fill="#744736" /><polygon points="314.39,85.58 320.60,115.34 316.99,63.99" fill="#734636" /><polygon points="305.91,74.68 314.39,85.58 305.91,49.75" fill="#724635" /><polygon points="297.43,85.58 305.91,74.68 294.84,63.99" fill="#5e392c" /><polygon points="291.23,115.34 297.43,85.58 286.73,102.88" fill="#653e2f" /><polygon points="288.96,156.00 291.23,115.34 283.76,156.00" fill="#663e30" /><polygon points="104.91,156.00 97.13,156.00 99.40,196.66" fill="#613b2d" /><polygon points="106.14,178.00 99.40,196.66 105.61,226.42" fill="#684031" /><polygon points="109.50,194.11 105.61,226.42 114.09,237.32" fill="#7c4c3a" /><polygon points="114.09,200.01 114.09,237.32 122.57,226.42" fill="#8a5440" /><polygon points="118.68,194.11 122.57,226.42 128.77,196.66" fill="#82503d" /><polygon points="122.03,178.00 128.77,196.66 131.04,156.00" fill="#7d4d3b" /><polygon points="123.26,156.00 131.04,156.00 128.77,115.34" fill="#7b4b3a" /><polygon points="122.03,134.00 128.77,115.34 122.57,85.58" fill="#7b4b3a" /><polygon points="118.68,117.89 122.57,85.58 114.09,74.68" fill="#7c4c3a" /><polygon points="114.09,111.99 114.09,74.68 105.61,85.58" fill="#6e4333" /><polygon points="109.50,117.89 105.61,85.58 99.40,115.34" fill="#623c2e" /><polygon points="106.14,134.00 99.40,115.34 97.13,156.00" fill="#5f3a2c" /><polygon points="296.74,156.00 288.96,156.00 291.23,196.66" fill="#613b2d" /><polygon points="297.97,178.00 291.23,196.66 297.43,226.42" fill="#684031" /><polygon points="301.32,194.11 297.43,226.42 305.91,237.32" fill="#7c4c3a" /><polygon points="305.91,200.01 305.91,237.32 314.39,226.42" fill="#8a5440" /><polygon points="310.50,194.11 314.39,226.42 320.60,196.66" fill="#82503d" /><polygon points="313.86,178.00 320.60,196.66 322.87,156.00" fill="#7d4d3b" /><polygon points="315.09,156.00 322.87,156.00 320.60,115.34" fill="#7b4b3a" /><polygon points="313.86,134.00 320.60,115.34 314.39,85.58" fill="#7b4b3a" /><polygon points="310.50,117.89 314.39,85.58 305.91,74.68" fill="#7c4c3a" /><polygon points="305.91,111.99 305.91,74.68 297.43,85.58" fill="#6e4333" /><polygon points="301.32,117.89 297.43,85.58 291.23,115.34" fill="#623c2e" /><polygon points="297.97,134.00 291.23,115.34 288.96,156.00" fill="#5f3a2c" /><polygon points="106.14,178.00 104.91,156.00 99.40,196.66" fill="#613b2d" /><polygon points="109.50,194.11 106.14,178.00 105.61,226.42" fill="#684031" /><polygon points="114.09,200.01 109.50,194.11 114.09,237.32" fill="#7c4c3a" /><polygon points="118.68,194.11 114.09,200.01 122.57,226.42" fill="#8a5440" /><polygon points="122.03,178.00 118.68,194.11 128.77,196.66" fill="#82503d" /><polygon points="123.26,156.00 122.03,178.00 131.04,156.00" fill="#7d4d3b" /><polygon points="122.03,134.00 123.26,156.00 128.77,115.34" fill="#7b4b3a" /><polygon points="118.68,117.89 122.03,134.00 122.57,85.58" fill="#7b4b3a" /><polygon points="114.09,111.99 118.68,117.89 114.09,74.68" fill="#7c4c3a" /><polygon points="109.50,117.89 114.09,111.99 105.61,85.58" fill="#6e4333" /><polygon points="106.14,134.00 109.50,117.89 99.40,115.34" fill="#623c2e" /><polygon points="104.91,156.00 106.14,134.00 97.13,156.00" fill="#5f3a2c" /><polygon points="297.97,178.00 296.74,156.00 291.23,196.66" fill="#613b2d" /><polygon points="301.32,194.11 297.97,178.00 297.43,226.42" fill="#684031" /><polygon points="305.91,200.01 301.32,194.11 305.91,237.32" fill="#7c4c3a" /><polygon points="310.50,194.11 305.91,200.01 314.39,226.42" fill="#8a5440" /><polygon points="313.86,178.00 310.50,194.11 320.60,196.66" fill="#82503d" /><polygon points="315.09,156.00 313.86,178.00 322.87,156.00" fill="#7d4d3b" /><polygon points="313.86,134.00 315.09,156.00 320.60,115.34" fill="#7b4b3a" /><polygon points="310.50,117.89 313.86,134.00 314.39,85.58" fill="#7b4b3a" /><polygon points="305.91,111.99 310.50,117.89 305.91,74.68" fill="#7c4c3a" /><polygon points="301.32,117.89 305.91,111.99 297.43,85.58" fill="#6e4333" /><polygon points="297.97,134.00 301.32,117.89 291.23,115.34" fill="#623c2e" /><polygon points="296.74,156.00 297.97,134.00 288.96,156.00" fill="#5f3a2c" /><polygon points="114.09,156.00 104.91,156.00 106.14,178.00" fill="#754837" /><polygon points="114.09,156.00 106.14,178.00 109.50,194.11" fill="#7a4b39" /><polygon points="114.09,156.00 109.50,194.11 114.09,200.01" fill="#814f3c" /><polygon points="114.09,156.00 114.09,200.01 118.68,194.11" fill="#86523f" /><polygon points="114.09,156.00 118.68,194.11 122.03,178.00" fill="#87523f" /><polygon points="114.09,156.00 122.03,178.00 123.26,156.00" fill="#85523e" /><polygon points="114.09,156.00 123.26,156.00 122.03,134.00" fill="#84513e" /><polygon points="114.09,156.00 122.03,134.00 118.68,117.89" fill="#83503d" /><polygon points="114.09,156.00 118.68,117.89 114.09,111.99" fill="#814f3c" /><polygon points="114.09,156.00 114.09,111.99 109.50,117.89" fill="#7c4c3a" /><polygon points="114.09,156.00 109.50,117.89 106.14,134.00" fill="#774938" /><polygon points="114.09,156.00 106.14,134.00 104.91,156.00" fill="#744736" /><polygon points="305.91,156.00 296.74,156.00 297.97,178.00" fill="#754837" /><polygon points="305.91,156.00 297.97,178.00 301.32,194.11" fill="#7a4b39" /><polygon points="305.91,156.00 301.32,194.11 305.91,200.01" fill="#814f3c" /><polygon points="305.91,156.00 305.91,200.01 310.50,194.11" fill="#86523f" /><polygon points="305.91,156.00 310.50,194.11 313.86,178.00" fill="#87523f" /><polygon points="305.91,156.00 313.86,178.00 315.09,156.00" fill="#85523e" /><polygon points="305.91,156.00 315.09,156.00 313.86,134.00" fill="#84513e" /><polygon points="305.91,156.00 313.86,134.00 310.50,117.89" fill="#83503d" /><polygon points="305.91,156.00 310.50,117.89 305.91,111.99" fill="#814f3c" /><polygon points="305.91,156.00 305.91,111.99 301.32,117.89" fill="#7c4c3a" /><polygon points="305.91,156.00 301.32,117.89 297.97,134.00" fill="#774938" /><polygon points="305.91,156.00 297.97,134.00 296.74,156.00" fill="#744736" /><polygon points="121.39,237.78 114.09,237.78 126.94,254.39" fill="#633d2e" /><polygon points="133.26,253.12 126.94,254.39 162.04,266.55" fill="#6f4434" /><polygon points="165.69,264.36 162.04,266.55 210.00,271.00" fill="#734636" /><polygon points="210.00,268.47 210.00,271.00 257.96,266.55" fill="#764837" /><polygon points="254.31,264.36 257.96,266.55 293.06,254.39" fill="#794a39" /><polygon points="286.74,253.12 293.06,254.39 305.91,237.78" fill="#7c4c3a" /><polygon points="298.61,237.78 305.91,237.78 293.06,221.17" fill="#633d2e" /><polygon points="286.74,222.43 293.06,221.17 257.96,209.01" fill="#683f31" /><polygon points="254.31,211.20 257.96,209.01 210.00,204.56" fill="#6d4333" /><polygon points="210.00,207.08 210.00,204.56 162.04,209.01" fill="#704535" /><polygon points="165.69,211.20 162.04,209.01 126.94,221.17" fill="#724635" /><polygon points="133.26,222.43 126.94,221.17 114.09,237.78" fill="#704434" /><polygon points="133.26,253.12 121.39,237.78 126.94,254.39" fill="#633d2e" /><polygon points="165.69,264.36 133.26,253.12 162.04,266.55" fill="#6f4434" /><polygon points="210.00,268.47 165.69,264.36 210.00,271.00" fill="#734636" /><polygon points="254.31,264.36 210.00,268.47 257.96,266.55" fill="#764837" /><polygon points="286.74,253.12 254.31,264.36 293.06,254.39" fill="#794a39" /><polygon points="298.61,237.78 286.74,253.12 305.91,237.78" fill="#7c4c3a" /><polygon points="286.74,222.43 298.61,237.78 293.06,221.17" fill="#633d2e" /><polygon points="254.31,211.20 286.74,222.43 257.96,209.01" fill="#683f31" /><polygon points="210.00,207.08 254.31,211.20 210.00,204.56" fill="#6d4333" /><polygon points="165.69,211.20 210.00,207.08 162.04,209.01" fill="#704535" /><polygon points="133.26,222.43 165.69,211.20 126.94,221.17" fill="#724635" /><polygon points="121.39,237.78 133.26,222.43 114.09,237.78" fill="#704434" /><polygon points="142.18,237.78 121.39,237.78 133.26,253.12" fill="#6f4434" /><polygon points="151.27,249.52 133.26,253.12 165.69,264.36" fill="#764837" /><polygon points="176.09,258.12 165.69,264.36 210.00,268.47" fill="#794a38" /><polygon points="210.00,261.27 210.00,268.47 254.31,264.36" fill="#7b4b3a" /><polygon points="243.91,258.12 254.31,264.36 286.74,253.12" fill="#804e3c" /><polygon points="268.73,249.52 286.74,253.12 298.61,237.78" fill="#85523e" /><polygon points="277.82,237.78 298.61,237.78 286.74,222.43" fill="#6f4434" /><polygon points="268.73,226.03 286.74,222.43 254.31,211.20" fill="#5f3a2d" /><polygon points="243.91,217.43 254.31,211.20 210.00,207.08" fill="#673f30" /><polygon points="210.00,214.29 210.00,207.08 165.69,211.20" fill="#6a4131" /><polygon points="176.09,217.43 165.69,211.20 133.26,222.43" fill="#694031" /><polygon points="151.27,226.03 133.26,222.43 121.39,237.78" fill="#613b2d" /><polygon points="151.27,249.52 142.18,237.78 133.26,253.12" fill="#6f4434" /><polygon points="176.09,258.12 151.27,249.52 165.69,264.36" fill="#764837" /><polygon points="210.00,261.27 176.09,258.12 210.00,268.47" fill="#794a38" /><polygon points="243.91,258.12 210.00,261.27 254.31,264.36" fill="#7b4b3a" /><polygon points="268.73,249.52 243.91,258.12 286.74,253.12" fill="#804e3c" /><polygon points="277.82,237.78 268.73,249.52 298.61,237.78" fill="#85523e" /><polygon points="268.73,226.03 277.82,237.78 286.74,222.43" fill="#6f4434" /><polygon points="243.91,217.43 268.73,226.03 254.31,211.20" fill="#5f3a2d" /><polygon points="210.00,214.29 243.91,217.43 210.00,207.08" fill="#673f30" /><polygon points="176.09,217.43 210.00,214.29 165.69,211.20" fill="#6a4131" /><polygon points="151.27,226.03 176.09,217.43 133.26,222.43" fill="#694031" /><polygon points="142.18,237.78 151.27,226.03 121.39,237.78" fill="#613b2d" /><polygon points="173.30,237.78 142.18,237.78 151.27,249.52" fill="#7a4b39" /><polygon points="178.21,244.13 151.27,249.52 176.09,258.12" fill="#7e4d3b" /><polygon points="191.65,248.79 176.09,258.12 210.00,261.27" fill="#804e3c" /><polygon points="210.00,250.49 210.00,261.27 243.91,258.12" fill="#82503d" /><polygon points="228.35,248.79 243.91,258.12 268.73,249.52" fill="#87523f" /><polygon points="241.79,244.13 268.73,249.52 277.82,237.78" fill="#8a5440" /><polygon points="246.70,237.78 277.82,237.78 268.73,226.03" fill="#7a4b39" /><polygon points="241.79,231.42 268.73,226.03 243.91,217.43" fill="#673f30" /><polygon points="228.35,226.77 243.91,217.43 210.00,214.29" fill="#5e3a2c" /><polygon points="210.00,225.06 210.00,214.29 176.09,217.43" fill="#5e3a2c" /><polygon points="191.65,226.77 176.09,217.43 151.27,226.03" fill="#5f3a2c" /><polygon points="178.21,231.42 151.27,226.03 142.18,237.78" fill="#6a4132" /><polygon points="178.21,244.13 173.30,237.78 151.27,249.52" fill="#7a4b39" /><polygon points="191.65,248.79 178.21,244.13 176.09,258.12" fill="#7e4d3b" /><polygon points="210.00,250.49 191.65,248.79 210.00,261.27" fill="#804e3c" /><polygon points="228.35,248.79 210.00,250.49 243.91,258.12" fill="#82503d" /><polygon points="241.79,244.13 228.35,248.79 268.73,249.52" fill="#87523f" /><polygon points="246.70,237.78 241.79,244.13 277.82,237.78" fill="#8a5440" /><polygon points="241.79,231.42 246.70,237.78 268.73,226.03" fill="#7a4b39" /><polygon points="228.35,226.77 241.79,231.42 243.91,217.43" fill="#673f30" /><polygon points="210.00,225.06 228.35,226.77 210.00,214.29" fill="#5e3a2c" /><polygon points="191.65,226.77 210.00,225.06 176.09,217.43" fill="#5e3a2c" /><polygon points="178.21,231.42 191.65,226.77 151.27,226.03" fill="#5f3a2c" /><polygon points="173.30,237.78 178.21,231.42 142.18,237.78" fill="#6a4132" /><polygon points="210.00,237.78 173.30,237.78 178.21,244.13" fill="#814f3c" /><polygon points="210.00,237.78 178.21,244.13 191.65,248.79" fill="#84513e" /><polygon points="210.00,237.78 191.65,248.79 210.00,250.49" fill="#86523f" /><polygon points="210.00,237.78 210.00,250.49 228.35,248.79" fill="#885340" /><polygon points="210.00,237.78 228.35,248.79 241.79,244.13" fill="#885340" /><polygon points="210.00,237.78 241.79,244.13 246.70,237.78" fill="#87523f" /><polygon points="210.00,237.78 246.70,237.78 241.79,231.42" fill="#814f3c" /><polygon points="210.00,237.78 241.79,231.42 228.35,226.77" fill="#7a4a39" /><polygon points="210.00,237.78 228.35,226.77 210.00,225.06" fill="#754737" /><polygon points="210.00,237.78 210.00,225.06 191.65,226.77" fill="#734636" /><polygon points="210.00,237.78 191.65,226.77 178.21,231.42" fill="#764837" /><polygon points="210.00,237.78 178.21,231.42 173.30,237.78" fill="#7b4b3a" /><path d="M45 283h330M32 38v231" fill="none" stroke="#7d8779" stroke-width=".65"/><text x="210" y="301" text-anchor="middle" font-family="Arial" font-size="10" fill="#647060">760 mm</text><text x="21" y="164" text-anchor="middle" transform="rotate(-90 21 164)" font-family="Arial" font-size="10" fill="#647060">810 mm</text></svg>