<svg xmlns="http://www.w3.org/2000/svg" viewBox="0 0 420 330" role="img" aria-label="A.B.C. — iso di studio"><title>A.B.C. — geometria di studio</title><rect width="420" height="330" fill="#e9e9df"/><ellipse cx="210" cy="272" rx="110" ry="10" fill="#667455" opacity=".10"/><polygon points="229.77,144.16 228.85,113.13 229.66,145.51" fill="#79817f" /><polygon points="229.66,145.51 228.74,114.47 228.41,146.67" fill="#727a78" /><polygon points="222.12,146.62 221.19,115.58 221.06,145.44" fill="#78807e" /><polygon points="228.41,146.67 227.49,115.63 226.36,147.33" fill="#666d6c" /><polygon points="224.06,147.31 223.13,116.27 222.12,146.62" fill="#717876" /><polygon points="226.36,147.33 225.44,116.29 224.06,147.31" fill="#646b69" /><polygon points="228.85,113.13 228.74,114.47 229.66,145.51" fill="#79817f" /><polygon points="221.19,115.58 220.13,114.40 221.06,145.44" fill="#78807e" /><polygon points="228.74,114.47 227.49,115.63 228.41,146.67" fill="#727a78" /><polygon points="223.13,116.27 221.19,115.58 222.12,146.62" fill="#717876" /><polygon points="227.49,115.63 225.44,116.29 226.36,147.33" fill="#666d6c" /><polygon points="225.44,116.29 223.13,116.27 224.06,147.31" fill="#646b69" /><polygon points="225.85,111.26 223.54,111.24 224.49,113.76" fill="#838c8a" /><polygon points="223.54,111.24 221.49,111.90 224.49,113.76" fill="#838c8a" /><polygon points="227.79,111.95 225.85,111.26 224.49,113.76" fill="#838c8a" /><polygon points="221.49,111.90 220.24,113.05 224.49,113.76" fill="#838c8a" /><polygon points="228.85,113.13 227.79,111.95 224.49,113.76" fill="#838c8a" /><polygon points="220.24,113.05 220.13,114.40 224.49,113.76" fill="#838c8a" /><polygon points="228.74,114.47 228.85,113.13 224.49,113.76" fill="#838c8a" /><polygon points="220.13,114.40 221.19,115.58 224.49,113.76" fill="#838c8a" /><polygon points="227.49,115.63 228.74,114.47 224.49,113.76" fill="#838c8a" /><polygon points="221.19,115.58 223.13,116.27 224.49,113.76" fill="#838c8a" /><polygon points="225.44,116.29 227.49,115.63 224.49,113.76" fill="#838c8a" /><polygon points="223.13,116.27 225.44,116.29 224.49,113.76" fill="#838c8a" /><polygon points="251.82,127.66 248.14,143.22 248.26,147.50" fill="#6f4434" /><polygon points="251.93,131.61 251.82,127.66 248.26,147.50" fill="#6f4434" /><polygon points="248.26,147.50 251.93,165.73 263.96,173.52" fill="#744736" /><polygon points="251.93,165.73 262.37,183.55 271.59,189.51" fill="#7b4b3a" /><polygon points="262.29,117.48 251.82,127.66 251.93,131.61" fill="#5e392c" /><polygon points="251.93,131.61 248.26,147.50 261.29,155.92" fill="#6e4333" /><polygon points="263.96,173.52 251.93,165.73 271.59,189.51" fill="#7b4b3a" /><polygon points="262.37,183.55 278.01,198.24 282.99,201.46" fill="#82503d" /><polygon points="261.29,155.92 248.26,147.50 263.96,173.52" fill="#744736" /><polygon points="271.59,189.51 262.37,183.55 282.99,201.46" fill="#82503d" /><polygon points="262.37,120.51 262.29,117.48 251.93,131.61" fill="#5e392c" /><polygon points="262.37,120.51 251.93,131.61 263.96,139.40" fill="#653e2f" /><polygon points="263.96,139.40 251.93,131.61 261.29,155.92" fill="#6e4333" /><polygon points="277.96,114.23 262.29,117.48 262.37,120.51" fill="#6e4333" /><polygon points="271.59,189.51 282.99,201.46 291.59,205.41" fill="#7d4d3b" /><polygon points="263.96,173.52 271.59,189.51 287.46,196.81" fill="#764837" /><polygon points="261.29,155.92 263.96,173.52 284.71,183.05" fill="#714535" /><polygon points="287.46,196.81 271.59,189.51 291.59,205.41" fill="#7d4d3b" /><polygon points="271.59,126.47 262.37,120.51 263.96,139.40" fill="#653e2f" /><polygon points="278.01,115.87 277.96,114.23 262.37,120.51" fill="#6e4333" /><polygon points="278.01,115.87 262.37,120.51 271.59,126.47" fill="#623c2e" /><polygon points="284.71,183.05 263.96,173.52 287.46,196.81" fill="#764837" /><polygon points="301.48,209.02 291.59,205.41 296.45,207.56" fill="#84513e" /><polygon points="263.96,139.40 261.29,155.92 283.74,166.24" fill="#6c4232" /><polygon points="287.46,196.81 291.59,205.41 301.48,209.02" fill="#7b4b3a" /><polygon points="283.74,166.24 261.29,155.92 284.71,183.05" fill="#714535" /><polygon points="271.59,126.47 263.96,139.40 284.71,148.93" fill="#663e30" /><polygon points="282.99,119.09 278.01,115.87 271.59,126.47" fill="#623c2e" /><polygon points="296.45,118.40 282.87,114.62 277.96,114.23" fill="#814f3c" /><polygon points="296.45,118.40 277.96,114.23 278.01,115.87" fill="#7c4c3a" /><polygon points="296.45,118.40 291.42,116.93 282.87,114.62" fill="#83503d" /><polygon points="284.71,148.93 263.96,139.40 283.74,166.24" fill="#6c4232" /><polygon points="305.74,203.48 287.46,196.81 301.48,209.02" fill="#7b4b3a" /><polygon points="284.71,183.05 287.46,196.81 305.74,203.48" fill="#744736" /><polygon points="296.45,118.40 278.01,115.87 282.99,119.09" fill="#774938" /><polygon points="282.99,119.09 271.59,126.47 287.46,133.76" fill="#5f3a2c" /><polygon points="305.74,203.48 301.48,209.02 310.03,211.33" fill="#7b4b3a" /><polygon points="287.46,133.76 271.59,126.47 284.71,148.93" fill="#663e30" /><polygon points="296.45,118.40 282.99,119.09 291.59,123.04" fill="#744736" /><polygon points="283.74,166.24 284.71,183.05 308.59,191.77" fill="#6e4434" /><polygon points="291.59,123.04 282.99,119.09 287.46,133.76" fill="#5f3a2c" /><polygon points="321.54,207.75 310.03,211.33 314.94,211.72" fill="#7c4c3a" /><polygon points="308.59,191.77 284.71,183.05 305.74,203.48" fill="#744736" /><polygon points="296.45,118.40 309.91,124.49 301.32,120.54" fill="#85523e" /><polygon points="321.54,207.75 305.74,203.48 310.03,211.33" fill="#7b4b3a" /><polygon points="284.71,148.93 283.74,166.24 309.59,175.68" fill="#694031" /><polygon points="296.45,118.40 291.59,123.04 301.48,126.65" fill="#754837" /><polygon points="330.61,208.47 321.54,207.75 314.94,211.72" fill="#7c4c3a" /><polygon points="296.45,118.40 314.89,127.71 309.91,124.49" fill="#87523f" /><polygon points="308.59,191.77 305.74,203.48 321.54,207.75" fill="#734636" /><polygon points="287.46,133.76 284.71,148.93 308.59,157.65" fill="#633d2e" /><polygon points="291.59,123.04 287.46,133.76 305.74,140.44" fill="#613b2d" /><polygon points="309.59,175.68 283.74,166.24 308.59,191.77" fill="#6e4434" /><polygon points="296.45,118.40 301.48,126.65 310.03,128.96" fill="#7a4b39" /><polygon points="296.45,118.40 314.94,129.35 314.89,127.71" fill="#86523f" /><polygon points="301.48,126.65 291.59,123.04 305.74,140.44" fill="#613b2d" /><polygon points="296.45,118.40 310.03,128.96 314.94,129.35" fill="#814f3c" /><polygon points="308.59,157.65 284.71,148.93 309.59,175.68" fill="#694031" /><polygon points="305.74,140.44 287.46,133.76 308.59,157.65" fill="#633d2e" /><polygon points="329.23,197.35 308.59,191.77 321.54,207.75" fill="#734636" /><polygon points="329.23,197.35 321.54,207.75 330.61,208.47" fill="#724635" /><polygon points="58.00,223.37 68.97,189.28 57.59,224.09" fill="#6d7472" /><polygon points="57.59,224.09 68.57,190.00 56.15,224.33" fill="#6c7371" /><polygon points="50.21,222.25 61.19,188.16 49.48,221.24" fill="#6a716f" /><polygon points="309.59,175.68 308.59,191.77 329.23,197.35" fill="#6c4232" /><polygon points="314.89,127.71 314.94,129.35 330.53,142.40" fill="#8a5440" /><polygon points="310.03,128.96 301.48,126.65 321.54,144.71" fill="#684031" /><polygon points="56.15,224.33 67.13,190.24 54.07,224.03" fill="#676e6d" /><polygon points="51.89,223.26 62.87,189.17 50.21,222.25" fill="#646a69" /><polygon points="301.48,126.65 305.74,140.44 321.54,144.71" fill="#684031" /><polygon points="54.07,224.03 65.04,189.94 51.89,223.26" fill="#606765" /><polygon points="68.97,189.28 68.57,190.00 57.59,224.09" fill="#6d7472" /><polygon points="61.19,188.16 60.45,187.15 49.48,221.24" fill="#6a716f" /><polygon points="181.16,139.04 172.31,142.65 156.81,149.99" fill="#714535" /><polygon points="66.56,187.26 64.39,186.50 64.71,188.22" fill="#8a9391" /><polygon points="341.08,198.29 329.23,197.35 330.61,208.47" fill="#724635" /><polygon points="314.94,129.35 310.03,128.96 330.61,145.42" fill="#7c4c3a" /><polygon points="64.39,186.50 62.30,186.20 64.71,188.22" fill="#8a9391" /><polygon points="68.24,188.28 66.56,187.26 64.71,188.22" fill="#8a9391" /><polygon points="68.57,190.00 67.13,190.24 56.15,224.33" fill="#6c7371" /><polygon points="62.30,186.20 60.86,186.44 64.71,188.22" fill="#8a9391" /><polygon points="62.87,189.17 61.19,188.16 50.21,222.25" fill="#646a69" /><polygon points="68.97,189.28 68.24,188.28 64.71,188.22" fill="#8a9391" /><polygon points="67.13,190.24 65.04,189.94 54.07,224.03" fill="#676e6d" /><polygon points="65.04,189.94 62.87,189.17 51.89,223.26" fill="#606765" /><polygon points="60.86,186.44 60.45,187.15 64.71,188.22" fill="#8a9391" /><polygon points="314.94,129.35 330.61,145.42 330.53,142.40" fill="#8a5440" /><polygon points="68.57,190.00 68.97,189.28 64.71,188.22" fill="#8a9391" /><polygon points="216.94,139.02 222.83,137.94 200.75,136.58" fill="#804e3c" /><polygon points="308.59,157.65 309.59,175.68 331.93,181.72" fill="#653e2f" /><polygon points="204.99,138.29 200.75,136.58 181.16,139.04" fill="#7d4c3a" /><polygon points="305.74,140.44 308.59,157.65 329.23,163.23" fill="#5d392c" /><polygon points="60.45,187.15 61.19,188.16 64.71,188.22" fill="#8a9391" /><polygon points="67.13,190.24 68.57,190.00 64.71,188.22" fill="#8a9391" /><polygon points="310.03,128.96 321.54,144.71 330.61,145.42" fill="#7c4c3a" /><polygon points="331.93,181.72 309.59,175.68 329.23,197.35" fill="#6c4232" /><polygon points="61.19,188.16 62.87,189.17 64.71,188.22" fill="#8a9391" /><polygon points="65.04,189.94 67.13,190.24 64.71,188.22" fill="#8a9391" /><polygon points="62.87,189.17 65.04,189.94 64.71,188.22" fill="#8a9391" /><polygon points="110.34,220.74 201.59,258.06 218.41,193.00" fill="#848c8a" /><polygon points="330.53,142.40 330.61,145.42 340.97,160.22" fill="#87523f" /><polygon points="321.54,144.71 305.74,140.44 329.23,163.23" fill="#5d392c" /><polygon points="331.93,181.72 329.23,197.35 341.08,198.29" fill="#643d2f" /><polygon points="204.99,138.29 216.94,139.02 200.75,136.58" fill="#804e3c" /><polygon points="169.29,144.65 181.16,139.04 156.81,149.99" fill="#714535" /><polygon points="329.23,163.23 308.59,157.65 331.93,181.72" fill="#653e2f" /><polygon points="340.97,160.22 341.08,164.17 344.64,178.45" fill="#7d4d3b" /><polygon points="227.03,141.63 241.46,142.76 222.83,137.94" fill="#83503d" /><polygon points="194.39,139.62 204.99,138.29 181.16,139.04" fill="#7d4c3a" /><polygon points="330.61,145.42 341.08,164.17 340.97,160.22" fill="#87523f" /><polygon points="344.76,182.73 331.93,181.72 341.08,198.29" fill="#643d2f" /><polygon points="194.39,139.62 181.16,139.04 169.29,144.65" fill="#7b4b39" /><polygon points="330.61,145.42 321.54,144.71 341.08,164.17" fill="#724635" /><polygon points="341.08,164.17 344.76,182.73 344.64,178.45" fill="#7d4d3b" /><polygon points="216.94,139.02 227.03,141.63 222.83,137.94" fill="#83503d" /><polygon points="321.54,144.71 329.23,163.23 341.08,164.17" fill="#724635" /><polygon points="201.59,258.06 309.66,230.32 218.41,193.00" fill="#848c8a" /><polygon points="329.23,163.23 331.93,181.72 344.76,182.73" fill="#643d2f" /><polygon points="241.46,142.76 251.67,149.74 251.11,147.51" fill="#87533f" /><polygon points="156.81,149.99 152.42,157.86 151.07,168.15" fill="#643d2f" /><polygon points="341.08,164.17 329.23,163.23 344.76,182.73" fill="#643d2f" /><polygon points="251.67,149.74 264.45,156.63 251.11,147.51" fill="#87533f" /><polygon points="187.97,142.66 194.39,139.62 169.29,144.65" fill="#7b4b39" /><polygon points="370.52,267.96 359.55,232.81 370.11,268.71" fill="#838b89" /><polygon points="169.29,144.65 156.81,149.99 155.55,159.50" fill="#6f4434" /><polygon points="362.73,271.00 351.76,235.85 362.00,270.60" fill="#7d8583" /><polygon points="210.00,144.30 216.94,139.02 204.99,138.29" fill="#824f3d" /><polygon points="370.11,268.71 359.14,233.57 368.67,269.62" fill="#7e8685" /><polygon points="364.41,270.94 353.44,235.80 362.73,271.00" fill="#6f7775" /><polygon points="210.00,144.30 204.99,138.29 194.39,139.62" fill="#814f3c" /><polygon points="227.03,141.63 232.55,145.41 241.46,142.76" fill="#86523f" /><polygon points="368.67,269.62 357.70,234.48 366.59,270.44" fill="#727977" /><polygon points="366.59,270.44 355.61,235.29 364.41,270.94" fill="#606665" /><polygon points="351.76,235.85 351.03,235.45 362.00,270.60" fill="#7d8583" /><polygon points="354.96,232.97 352.87,233.79 355.29,234.13" fill="#7a8281" /><polygon points="357.13,232.47 354.96,232.97 355.29,234.13" fill="#7a8281" /><polygon points="359.55,232.81 359.14,233.57 370.11,268.71" fill="#838b89" /><polygon points="352.87,233.79 351.43,234.70 355.29,234.13" fill="#7a8281" /><polygon points="358.81,232.41 357.13,232.47 355.29,234.13" fill="#7a8281" /><polygon points="210.00,144.30 227.03,141.63 216.94,139.02" fill="#83503d" /><polygon points="353.44,235.80 351.76,235.85 362.73,271.00" fill="#6f7775" /><polygon points="232.55,145.41 251.67,149.74 241.46,142.76" fill="#86523f" /><polygon points="351.43,234.70 351.03,235.45 355.29,234.13" fill="#7a8281" /><polygon points="359.55,232.81 358.81,232.41 355.29,234.13" fill="#7a8281" /><polygon points="155.55,159.50 156.81,149.99 151.07,168.15" fill="#643d2f" /><polygon points="359.14,233.57 357.70,234.48 368.67,269.62" fill="#7e8685" /><polygon points="355.61,235.29 353.44,235.80 364.41,270.94" fill="#606665" /><polygon points="187.97,142.66 169.29,144.65 168.33,151.93" fill="#7a4b39" /><polygon points="210.00,144.30 194.39,139.62 187.97,142.66" fill="#804e3c" /><polygon points="357.70,234.48 355.61,235.29 366.59,270.44" fill="#727977" /><polygon points="351.03,235.45 351.76,235.85 355.29,234.13" fill="#7a8281" /><polygon points="359.14,233.57 359.55,232.81 355.29,234.13" fill="#7a8281" /><polygon points="351.76,235.85 353.44,235.80 355.29,234.13" fill="#7a8281" /><polygon points="357.70,234.48 359.14,233.57 355.29,234.13" fill="#7a8281" /><polygon points="353.44,235.80 355.61,235.29 355.29,234.13" fill="#7a8281" /><polygon points="355.61,235.29 357.70,234.48 355.29,234.13" fill="#7a8281" /><polygon points="168.33,151.93 169.29,144.65 155.55,159.50" fill="#6f4434" /><polygon points="110.34,220.74 110.34,229.18 201.59,258.06" fill="#6f7674" /><polygon points="210.00,144.30 232.55,145.41 227.03,141.63" fill="#83503d" /><polygon points="210.00,144.30 187.97,142.66 187.45,146.59" fill="#804e3c" /><polygon points="187.45,146.59 187.97,142.66 168.33,151.93" fill="#7a4b39" /><polygon points="264.45,156.63 263.19,166.14 268.93,165.04" fill="#84513e" /><polygon points="232.55,145.41 232.03,149.35 251.67,149.74" fill="#87533f" /><polygon points="251.67,149.74 250.71,157.01 264.45,156.63" fill="#8a5440" /><polygon points="210.00,144.30 232.03,149.35 232.55,145.41" fill="#84513e" /><polygon points="151.07,168.15 155.55,176.56 168.89,185.68" fill="#7f4e3b" /><polygon points="210.00,144.30 187.45,146.59 192.97,150.37" fill="#804e3c" /><polygon points="232.03,149.35 250.71,157.01 251.67,149.74" fill="#87533f" /><polygon points="155.55,159.50 151.07,168.15 165.50,178.02" fill="#603b2d" /><polygon points="187.45,146.59 168.33,151.93 178.54,158.91" fill="#7b4b39" /><polygon points="263.19,166.14 267.58,175.33 268.93,165.04" fill="#84513e" /><polygon points="250.71,157.01 263.19,166.14 264.45,156.63" fill="#8a5440" /><polygon points="168.33,151.93 155.55,159.50 168.89,168.62" fill="#714535" /><polygon points="210.00,144.30 225.61,152.39 232.03,149.35" fill="#84503e" /><polygon points="210.00,144.30 192.97,150.37 203.06,152.98" fill="#814f3c" /><polygon points="201.59,266.50 309.66,238.76 309.66,230.32" fill="#737b79" /><polygon points="192.97,150.37 187.45,146.59 178.54,158.91" fill="#7b4b39" /><polygon points="210.00,144.30 215.01,153.72 225.61,152.39" fill="#83503d" /><polygon points="210.00,144.30 203.06,152.98 215.01,153.72" fill="#824f3d" /><polygon points="165.50,178.02 151.07,168.15 168.89,185.68" fill="#7f4e3b" /><polygon points="232.03,149.35 225.61,152.39 250.71,157.01" fill="#87523f" /><polygon points="178.54,158.91 168.33,151.93 168.89,168.62" fill="#714535" /><polygon points="168.89,168.62 155.55,159.50 165.50,178.02" fill="#603b2d" /><polygon points="168.89,185.68 178.54,190.43 197.17,195.25" fill="#824f3d" /><polygon points="225.61,152.39 238.84,162.63 250.71,157.01" fill="#87523f" /><polygon points="250.71,157.01 238.84,162.63 263.19,166.14" fill="#895440" /><polygon points="203.06,152.98 192.97,150.37 197.17,163.73" fill="#7d4d3b" /><polygon points="192.97,150.37 178.54,158.91 197.17,163.73" fill="#7d4d3b" /><polygon points="267.58,175.33 250.79,183.28 263.19,183.20" fill="#623c2e" /><polygon points="225.61,152.39 215.01,153.72 238.84,162.63" fill="#84513e" /><polygon points="263.19,166.14 247.69,173.48 267.58,175.33" fill="#84513e" /><polygon points="215.01,153.72 203.06,152.98 219.25,165.09" fill="#814f3c" /><polygon points="193.24,191.97 168.89,185.68 197.17,195.25" fill="#824f3d" /><polygon points="165.50,178.02 168.89,185.68 193.24,191.97" fill="#774937" /><polygon points="110.34,229.18 201.59,266.50 201.59,258.06" fill="#6f7674" /><polygon points="250.79,183.28 247.69,190.54 263.19,183.20" fill="#623c2e" /><polygon points="238.84,162.63 247.69,173.48 263.19,166.14" fill="#895440" /><polygon points="193.24,191.97 197.17,195.25 219.25,196.61" fill="#7c4c3a" /><polygon points="178.54,158.91 168.89,168.62 193.24,174.91" fill="#764837" /><polygon points="215.01,153.72 219.25,165.09 238.84,162.63" fill="#84513e" /><polygon points="222.08,193.75 219.25,196.61 238.84,194.15" fill="#764837" /><polygon points="203.06,152.98 197.17,163.73 219.25,165.09" fill="#814f3c" /><polygon points="168.89,168.62 165.50,178.02 191.86,184.83" fill="#633c2e" /><polygon points="247.69,173.48 250.79,183.28 267.58,175.33" fill="#84513e" /><polygon points="247.69,190.54 222.08,193.75 238.84,194.15" fill="#764837" /><polygon points="197.17,163.73 178.54,158.91 193.24,174.91" fill="#764837" /><polygon points="78.92,71.74 75.24,87.30 75.36,91.58" fill="#6f4434" /><polygon points="191.86,184.83 165.50,178.02 193.24,191.97" fill="#774937" /><polygon points="222.08,193.75 193.24,191.97 219.25,196.61" fill="#7c4c3a" /><polygon points="238.84,162.63 219.25,165.09 247.69,173.48" fill="#84513e" /><polygon points="193.24,174.91 168.89,168.62 191.86,184.83" fill="#633c2e" /><polygon points="201.59,258.06 201.59,266.50 309.66,230.32" fill="#737b79" /><polygon points="219.25,165.09 197.17,163.73 222.08,176.69" fill="#7d4d3b" /><polygon points="250.79,183.28 223.08,186.76 247.69,190.54" fill="#613b2d" /><polygon points="79.03,75.70 78.92,71.74 75.36,91.58" fill="#6f4434" /><polygon points="191.86,184.83 193.24,191.97 222.08,193.75" fill="#6c4233" /><polygon points="219.25,165.09 222.08,176.69 247.69,173.48" fill="#84513e" /><polygon points="223.08,186.76 222.08,193.75 247.69,190.54" fill="#613b2d" /><polygon points="197.17,163.73 193.24,174.91 222.08,176.69" fill="#7d4d3b" /><polygon points="247.69,173.48 222.08,176.69 250.79,183.28" fill="#7c4c3a" /><polygon points="75.36,91.58 79.03,109.82 91.06,117.60" fill="#744736" /><polygon points="79.03,109.82 89.47,127.64 98.68,133.59" fill="#7b4b3a" /><polygon points="223.08,186.76 191.86,184.83 222.08,193.75" fill="#6c4233" /><polygon points="193.24,174.91 191.86,184.83 223.08,186.76" fill="#6f4434" /><polygon points="222.08,176.69 223.08,186.76 250.79,183.28" fill="#7c4c3a" /><polygon points="89.39,61.56 78.92,71.74 79.03,75.70" fill="#5e392c" /><polygon points="222.08,176.69 193.24,174.91 223.08,186.76" fill="#6f4434" /><polygon points="79.03,75.70 75.36,91.58 88.39,100.01" fill="#6e4333" /><polygon points="91.06,117.60 79.03,109.82 98.68,133.59" fill="#7b4b3a" /><polygon points="89.47,127.64 105.11,142.32 110.09,145.55" fill="#82503d" /><polygon points="88.39,100.01 75.36,91.58 91.06,117.60" fill="#744736" /><polygon points="98.68,133.59 89.47,127.64 110.09,145.55" fill="#82503d" /><polygon points="89.47,64.59 89.39,61.56 79.03,75.70" fill="#5e392c" /><polygon points="89.47,64.59 79.03,75.70 91.06,83.48" fill="#653e2f" /><polygon points="91.06,83.48 79.03,75.70 88.39,100.01" fill="#6e4333" /><polygon points="313.66,65.02 313.81,69.27 317.53,85.70" fill="#7c4c3a" /><polygon points="313.81,69.27 317.70,90.31 317.53,85.70" fill="#7c4c3a" /><polygon points="105.06,58.31 89.39,61.56 89.47,64.59" fill="#6e4333" /><polygon points="98.68,133.59 110.09,145.55 118.68,149.49" fill="#7d4d3b" /><polygon points="302.76,132.84 293.21,137.70 286.20,147.87" fill="#5f3a2c" /><polygon points="313.81,112.63 301.34,118.98 302.76,132.84" fill="#694031" /><polygon points="91.06,117.60 98.68,133.59 114.56,140.89" fill="#764837" /><polygon points="293.21,137.70 281.04,150.49 286.20,147.87" fill="#5f3a2c" /><polygon points="88.39,100.01 91.06,117.60 111.80,127.13" fill="#714535" /><polygon points="301.34,118.98 293.21,137.70 302.76,132.84" fill="#694031" /><polygon points="317.70,90.31 304.19,97.18 313.81,112.63" fill="#724635" /><polygon points="114.56,140.89 98.68,133.59 118.68,149.49" fill="#7d4d3b" /><polygon points="98.68,70.55 89.47,64.59 91.06,83.48" fill="#653e2f" /><polygon points="281.04,150.49 272.02,153.29 266.68,155.41" fill="#734636" /><polygon points="105.11,59.95 105.06,58.31 89.47,64.59" fill="#6e4333" /><polygon points="302.76,52.72 313.81,69.27 313.66,65.02" fill="#85523e" /><polygon points="304.19,97.18 301.34,118.98 313.81,112.63" fill="#724635" /><polygon points="105.11,59.95 89.47,64.59 98.68,70.55" fill="#623c2e" /><polygon points="302.64,49.47 302.76,52.72 313.66,65.02" fill="#85523e" /><polygon points="111.80,127.13 91.06,117.60 114.56,140.89" fill="#764837" /><polygon points="128.58,153.11 118.68,149.49 123.55,151.64" fill="#84513e" /><polygon points="91.06,83.48 88.39,100.01 110.84,110.32" fill="#6c4232" /><polygon points="293.21,137.70 276.55,142.86 281.04,150.49" fill="#5e3a2c" /><polygon points="313.81,69.27 301.34,75.62 317.70,90.31" fill="#794a39" /><polygon points="272.02,153.29 261.57,155.49 266.68,155.41" fill="#754737" /><polygon points="276.55,142.86 272.02,153.29 281.04,150.49" fill="#5e3a2c" /><polygon points="114.56,140.89 118.68,149.49 128.58,153.11" fill="#7b4b3a" /><polygon points="261.57,155.49 252.50,156.52 266.68,155.41" fill="#7a4a39" /><polygon points="110.84,110.32 88.39,100.01 111.80,127.13" fill="#714535" /><polygon points="301.34,75.62 304.19,97.18 317.70,90.31" fill="#794a39" /><polygon points="301.34,118.98 279.57,125.71 293.21,137.70" fill="#6a4131" /><polygon points="98.68,70.55 91.06,83.48 111.80,93.01" fill="#663e30" /><polygon points="110.09,63.17 105.11,59.95 98.68,70.55" fill="#623c2e" /><polygon points="123.55,62.48 109.97,58.70 105.06,58.31" fill="#814f3c" /><polygon points="123.55,62.48 105.06,58.31 105.11,59.95" fill="#7c4c3a" /><polygon points="279.57,125.71 276.55,142.86 293.21,137.70" fill="#6a4131" /><polygon points="123.55,62.48 118.52,61.01 109.97,58.70" fill="#83503d" /><polygon points="302.76,52.72 293.21,57.58 313.81,69.27" fill="#804e3c" /><polygon points="286.20,43.18 302.76,52.72 302.64,49.47" fill="#8a5440" /><polygon points="111.80,93.01 91.06,83.48 110.84,110.32" fill="#6c4232" /><polygon points="132.84,147.57 114.56,140.89 128.58,153.11" fill="#7b4b3a" /><polygon points="257.25,146.93 261.57,155.49 272.02,153.29" fill="#5e3a2c" /><polygon points="111.80,127.13 114.56,140.89 132.84,147.57" fill="#744736" /><polygon points="276.55,142.86 257.25,146.93 272.02,153.29" fill="#5e3a2c" /><polygon points="293.21,57.58 301.34,75.62 313.81,69.27" fill="#804e3c" /><polygon points="286.14,41.42 286.20,43.18 302.64,49.47" fill="#8a5440" /><polygon points="123.55,62.48 105.11,59.95 110.09,63.17" fill="#774938" /><polygon points="304.19,97.18 280.64,104.47 301.34,118.98" fill="#704535" /><polygon points="110.09,63.17 98.68,70.55 114.56,77.84" fill="#5f3a2c" /><polygon points="132.84,147.57 128.58,153.11 137.13,155.42" fill="#7b4b3a" /><polygon points="230.72,148.05 247.22,156.10 252.50,156.52" fill="#7a4b39" /><polygon points="240.47,148.83 252.50,156.52 261.57,155.49" fill="#673f30" /><polygon points="114.56,77.84 98.68,70.55 111.80,93.01" fill="#663e30" /><polygon points="280.64,104.47 279.57,125.71 301.34,118.98" fill="#704535" /><polygon points="257.25,146.93 240.47,148.83 261.57,155.49" fill="#673f30" /><polygon points="286.20,43.18 281.04,45.81 302.76,52.72" fill="#87523f" /><polygon points="123.55,62.48 110.09,63.17 118.68,67.12" fill="#744736" /><polygon points="301.34,75.62 279.57,82.35 304.19,97.18" fill="#764837" /><polygon points="110.84,110.32 111.80,127.13 135.69,135.86" fill="#6e4434" /><polygon points="281.04,45.81 293.21,57.58 302.76,52.72" fill="#87523f" /><polygon points="118.68,67.12 110.09,63.17 114.56,77.84" fill="#5f3a2c" /><polygon points="148.64,151.83 137.13,155.42 142.04,155.81" fill="#7c4c3a" /><polygon points="266.68,42.11 286.14,41.42 280.86,41.00" fill="#814f3c" /><polygon points="240.47,148.83 230.72,148.05 252.50,156.52" fill="#7a4b39" /><polygon points="135.69,135.86 111.80,127.13 132.84,147.57" fill="#744736" /><polygon points="123.55,62.48 137.01,68.57 128.41,64.62" fill="#85523e" /><polygon points="279.57,125.71 254.35,131.04 276.55,142.86" fill="#673f30" /><polygon points="266.68,42.11 286.20,43.18 286.14,41.42" fill="#87523f" /><polygon points="254.35,131.04 257.25,146.93 276.55,142.86" fill="#673f30" /><polygon points="148.64,151.83 132.84,147.57 137.13,155.42" fill="#7b4b3a" /><polygon points="279.57,82.35 280.64,104.47 304.19,97.18" fill="#764837" /><polygon points="293.21,57.58 276.55,62.74 301.34,75.62" fill="#7b4b3a" /><polygon points="111.80,93.01 110.84,110.32 136.69,119.76" fill="#694031" /><polygon points="123.55,62.48 118.68,67.12 128.58,70.73" fill="#754837" /><polygon points="266.68,42.11 281.04,45.81 286.20,43.18" fill="#885340" /><polygon points="157.71,152.55 148.64,151.83 142.04,155.81" fill="#7c4c3a" /><polygon points="123.55,62.48 141.99,71.80 137.01,68.57" fill="#87523f" /><polygon points="281.04,45.81 272.02,48.60 293.21,57.58" fill="#82503d" /><polygon points="276.55,62.74 279.57,82.35 301.34,75.62" fill="#7b4b3a" /><polygon points="135.69,135.86 132.84,147.57 148.64,151.83" fill="#734636" /><polygon points="114.56,77.84 111.80,93.01 135.69,101.74" fill="#633d2e" /><polygon points="118.68,67.12 114.56,77.84 132.84,84.52" fill="#613b2d" /><polygon points="232.44,133.52 240.47,148.83 257.25,146.93" fill="#5f3a2d" /><polygon points="219.70,132.50 230.72,148.05 240.47,148.83" fill="#6f4434" /><polygon points="136.69,119.76 110.84,110.32 135.69,135.86" fill="#6e4434" /><polygon points="280.64,104.47 253.34,110.23 279.57,125.71" fill="#6d4333" /><polygon points="266.68,42.11 272.02,48.60 281.04,45.81" fill="#885340" /><polygon points="272.02,48.60 276.55,62.74 293.21,57.58" fill="#82503d" /><polygon points="123.55,62.48 128.58,70.73 137.13,73.04" fill="#7a4b39" /><polygon points="254.35,131.04 232.44,133.52 257.25,146.93" fill="#5f3a2d" /><polygon points="123.55,62.48 142.04,73.43 141.99,71.80" fill="#86523f" /><polygon points="128.58,70.73 118.68,67.12 132.84,84.52" fill="#613b2d" /><polygon points="253.34,110.23 254.35,131.04 279.57,125.71" fill="#6d4333" /><polygon points="266.68,42.11 252.32,47.03 247.16,49.65" fill="#764837" /><polygon points="123.55,62.48 137.13,73.04 142.04,73.43" fill="#814f3c" /><polygon points="135.69,101.74 111.80,93.01 136.69,119.76" fill="#694031" /><polygon points="232.44,133.52 219.70,132.50 240.47,148.83" fill="#6f4434" /><polygon points="266.68,42.11 261.57,50.81 272.02,48.60" fill="#86523f" /><polygon points="132.84,84.52 114.56,77.84 135.69,101.74" fill="#633d2e" /><polygon points="279.57,82.35 254.35,87.68 280.64,104.47" fill="#734636" /><polygon points="266.68,42.11 247.16,49.65 247.22,51.41" fill="#7b4b3a" /><polygon points="272.02,48.60 261.57,50.81 276.55,62.74" fill="#804e3c" /><polygon points="156.33,141.44 135.69,135.86 148.64,151.83" fill="#734636" /><polygon points="266.68,42.11 252.50,51.84 261.57,50.81" fill="#84513e" /><polygon points="156.33,141.44 148.64,151.83 157.71,152.55" fill="#724635" /><polygon points="266.68,42.11 247.22,51.41 252.50,51.84" fill="#814f3c" /><polygon points="276.55,62.74 257.25,66.81 279.57,82.35" fill="#794a38" /><polygon points="254.35,87.68 253.34,110.23 280.64,104.47" fill="#734636" /><polygon points="136.69,119.76 135.69,135.86 156.33,141.44" fill="#6c4232" /><polygon points="141.99,71.80 142.04,73.43 157.63,86.48" fill="#8a5440" /><polygon points="219.55,84.89 215.66,107.21 215.83,111.82" fill="#704434" /><polygon points="261.57,50.81 257.25,66.81 276.55,62.74" fill="#804e3c" /><polygon points="137.13,73.04 128.58,70.73 148.64,88.79" fill="#684031" /><polygon points="229.62,112.92 232.44,133.52 254.35,131.04" fill="#683f31" /><polygon points="128.58,70.73 132.84,84.52 148.64,88.79" fill="#684031" /><polygon points="215.83,111.82 219.70,132.50 232.44,133.52" fill="#633d2e" /><polygon points="253.34,110.23 229.62,112.92 254.35,131.04" fill="#683f31" /><polygon points="257.25,66.81 254.35,87.68 279.57,82.35" fill="#794a38" /><polygon points="247.16,49.65 230.60,64.68 230.72,67.93" fill="#6a4132" /><polygon points="247.22,51.41 247.16,49.65 230.72,67.93" fill="#6a4132" /><polygon points="261.57,50.81 252.50,51.84 257.25,66.81" fill="#7e4d3b" /><polygon points="168.18,142.37 156.33,141.44 157.71,152.55" fill="#724635" /><polygon points="230.60,64.68 219.55,84.89 219.70,89.14" fill="#613b2d" /><polygon points="142.04,73.43 137.13,73.04 157.71,89.51" fill="#7c4c3a" /><polygon points="252.50,51.84 247.22,51.41 240.47,68.71" fill="#7a4b39" /><polygon points="229.62,112.92 215.83,111.82 232.44,133.52" fill="#633d2e" /><polygon points="219.70,89.14 219.55,84.89 215.83,111.82" fill="#704434" /><polygon points="142.04,73.43 157.71,89.51 157.63,86.48" fill="#8a5440" /><polygon points="135.69,101.74 136.69,119.76 159.03,125.80" fill="#653e2f" /><polygon points="252.50,51.84 240.47,68.71 257.25,66.81" fill="#7e4d3b" /><polygon points="230.72,67.93 230.60,64.68 219.70,89.14" fill="#613b2d" /><polygon points="132.84,84.52 135.69,101.74 156.33,107.31" fill="#5d392c" /><polygon points="247.22,51.41 230.72,67.93 240.47,68.71" fill="#7a4b39" /><polygon points="254.35,87.68 232.44,90.16 253.34,110.23" fill="#6f4434" /><polygon points="137.13,73.04 148.64,88.79 157.71,89.51" fill="#7c4c3a" /><polygon points="159.03,125.80 136.69,119.76 156.33,141.44" fill="#6c4232" /><polygon points="257.25,66.81 240.47,68.71 254.35,87.68" fill="#764837" /><polygon points="232.44,90.16 229.62,112.92 253.34,110.23" fill="#6f4434" /><polygon points="219.70,89.14 215.83,111.82 229.62,112.92" fill="#633d2e" /><polygon points="157.63,86.48 157.71,89.51 168.07,104.30" fill="#87523f" /><polygon points="148.64,88.79 132.84,84.52 156.33,107.31" fill="#5d392c" /><polygon points="240.47,68.71 232.44,90.16 254.35,87.68" fill="#764837" /><polygon points="159.03,125.80 156.33,141.44 168.18,142.37" fill="#643d2f" /><polygon points="230.72,67.93 219.70,89.14 232.44,90.16" fill="#6f4434" /><polygon points="240.47,68.71 230.72,67.93 232.44,90.16" fill="#6f4434" /><polygon points="232.44,90.16 219.70,89.14 229.62,112.92" fill="#633d2e" /><polygon points="156.33,107.31 135.69,101.74 159.03,125.80" fill="#653e2f" /><polygon points="168.07,104.30 168.18,108.25 171.74,122.54" fill="#7d4d3b" /><polygon points="157.71,89.51 168.18,108.25 168.07,104.30" fill="#87523f" /><polygon points="171.86,126.82 159.03,125.80 168.18,142.37" fill="#643d2f" /><polygon points="157.71,89.51 148.64,88.79 168.18,108.25" fill="#724635" /><polygon points="168.18,108.25 171.86,126.82 171.74,122.54" fill="#7d4d3b" /><polygon points="148.64,88.79 156.33,107.31 168.18,108.25" fill="#724635" /><polygon points="196.87,174.72 194.56,174.66 195.51,174.85" fill="#818987" /><polygon points="194.56,174.66 192.51,174.65 195.51,174.85" fill="#818987" /><polygon points="198.81,174.82 196.87,174.72 195.51,174.85" fill="#818987" /><polygon points="156.33,107.31 159.03,125.80 171.86,126.82" fill="#643d2f" /><polygon points="192.51,174.65 191.26,174.69 195.51,174.85" fill="#818987" /><polygon points="199.87,174.92 198.81,174.82 195.51,174.85" fill="#818987" /><polygon points="198.94,213.12 199.87,174.92 198.83,213.20" fill="#78807e" /><polygon points="168.18,108.25 156.33,107.31 171.86,126.82" fill="#643d2f" /><polygon points="191.26,174.69 191.15,174.77 195.51,174.85" fill="#818987" /><polygon points="199.87,174.92 199.76,175.00 198.83,213.20" fill="#78807e" /><polygon points="199.76,175.00 199.87,174.92 195.51,174.85" fill="#818987" /><polygon points="198.83,213.20 199.76,175.00 197.58,213.24" fill="#7d8483" /><polygon points="192.21,174.87 191.15,174.77 190.23,212.97" fill="#6d7472" /><polygon points="191.15,174.77 192.21,174.87 195.51,174.85" fill="#818987" /><polygon points="191.28,213.08 192.21,174.87 190.23,212.97" fill="#6d7472" /><polygon points="198.51,175.04 199.76,175.00 195.51,174.85" fill="#818987" /><polygon points="199.76,175.00 198.51,175.04 197.58,213.24" fill="#7d8483" /><polygon points="192.21,174.87 194.15,174.97 195.51,174.85" fill="#818987" /><polygon points="196.46,175.03 198.51,175.04 195.51,174.85" fill="#818987" /><polygon points="197.58,213.24 198.51,175.04 195.53,213.23" fill="#79817f" /><polygon points="194.15,174.97 196.46,175.03 195.51,174.85" fill="#818987" /><polygon points="193.22,213.17 194.15,174.97 191.28,213.08" fill="#5f6564" /><polygon points="194.15,174.97 192.21,174.87 191.28,213.08" fill="#5f6564" /><polygon points="195.53,213.23 196.46,175.03 193.22,213.17" fill="#6e7574" /><polygon points="198.51,175.04 196.46,175.03 195.53,213.23" fill="#79817f" /><polygon points="196.46,175.03 194.15,174.97 193.22,213.17" fill="#6e7574" /><text x="210" y="308" text-anchor="middle" font-family="Arial" font-size="8" letter-spacing="1.4" fill="#72796f">GEOMETRIA DI STUDIO</text></svg>